<svg xmlns="http://www.w3.org/2000/svg" width="480" height="70"><rect x="0" y="0" width="10" height="10" fill="rgb(73,153,249)"/><rect x="10" y="0" width="10" height="10" fill="rgb(52,156,255)"/><rect x="20" y="0" width="10" height="10" fill="rgb(65,166,255)"/><rect x="30" y="0" width="10" height="10" fill="rgb(155,199,255)"/><rect x="40" y="0" width="10" height="10" fill="rgb(170,209,255)"/><rect x="50" y="0" width="10" height="10" fill="rgb(146,191,250)"/><rect x="60" y="0" width="10" height="10" fill="rgb(146,188,248)"/><rect x="70" y="0" width="10" height="10" fill="rgb(172,209,255)"/><rect x="80" y="0" width="10" height="10" fill="rgb(175,213,255)"/><rect x="90" y="0" width="10" height="10" fill="rgb(178,214,255)"/><rect x="100" y="0" width="10" height="10" fill="rgb(182,215,255)"/><rect x="110" y="0" width="10" height="10" fill="rgb(187,218,255)"/><rect x="120" y="0" width="10" height="10" fill="rgb(166,202,248)"/><rect x="130" y="0" width="10" height="10" fill="rgb(170,206,248)"/><rect x="140" y="0" width="10" height="10" fill="rgb(192,223,255)"/><rect x="150" y="0" width="10" height="10" fill="rgb(198,222,255)"/><rect x="160" y="0" width="10" height="10" fill="rgb(192,219,255)"/><rect x="170" y="0" width="10" height="10" fill="rgb(162,220,255)"/><rect x="180" y="0" width="10" height="10" fill="rgb(217,219,238)"/><rect x="190" y="0" width="10" height="10" fill="rgb(110,207,255)"/><rect x="200" y="0" width="10" height="10" fill="rgb(68,181,255)"/><rect x="210" y="0" width="10" height="10" fill="rgb(110,186,255)"/><rect x="220" y="0" width="10" height="10" fill="rgb(90,155,255)"/><rect x="230" y="0" width="10" height="10" fill="rgb(41,87,252)"/><rect x="240" y="0" width="10" height="10" fill="rgb(20,69,233)"/><rect x="250" y="0" width="10" height="10" fill="rgb(36,86,230)"/><rect x="260" y="0" width="10" height="10" fill="rgb(28,66,187)"/><rect x="270" y="0" width="10" height="10" fill="rgb(11,42,147)"/><rect x="280" y="0" width="10" height="10" fill="rgb(0,2,54)"/><rect x="290" y="0" width="10" height="10" fill="rgb(0,0,25)"/><rect x="300" y="0" width="10" height="10" fill="rgb(6,18,60)"/><rect x="310" y="0" width="10" height="10" fill="rgb(40,40,40)"/><rect x="320" y="0" width="10" height="10" fill="rgb(0,0,0)"/><rect x="330" y="0" width="10" height="10" fill="rgb(0,0,0)"/><rect x="340" y="0" width="10" height="10" fill="rgb(7,12,26)"/><rect x="350" y="0" width="10" height="10" fill="rgb(37,37,37)"/><rect x="360" y="0" width="10" height="10" fill="rgb(38,38,38)"/><rect x="370" y="0" width="10" height="10" fill="rgb(0,0,0)"/><rect x="380" y="0" width="10" height="10" fill="rgb(0,0,0)"/><rect x="390" y="0" width="10" height="10" fill="rgb(37,37,37)"/><rect x="400" y="0" width="10" height="10" fill="rgb(37,37,37)"/><rect x="410" y="0" width="10" height="10" fill="rgb(0,0,0)"/><rect x="420" y="0" width="10" height="10" fill="rgb(0,0,0)"/><rect x="430" y="0" width="10" height="10" fill="rgb(4,9,15)"/><rect x="440" y="0" width="10" height="10" fill="rgb(35,35,35)"/><rect x="450" y="0" width="10" height="10" fill="rgb(35,35,35)"/><rect x="460" y="0" width="10" height="10" fill="rgb(0,0,0)"/><rect x="470" y="0" width="10" height="10" fill="rgb(36,36,36)"/><rect x="0" y="10" width="10" height="10" fill="rgb(36,36,36)"/><rect x="10" y="10" width="10" height="10" fill="rgb(38,38,38)"/><rect x="20" y="10" width="10" height="10" fill="rgb(0,0,0)"/><rect x="30" y="10" width="10" height="10" fill="rgb(0,0,0)"/><rect x="40" y="10" width="10" height="10" fill="rgb(37,37,37)"/><rect x="50" y="10" width="10" height="10" fill="rgb(35,35,35)"/><rect x="60" y="10" width="10" height="10" fill="rgb(0,0,0)"/><rect x="70" y="10" width="10" height="10" fill="rgb(0,0,0)"/><rect x="80" y="10" width="10" height="10" fill="rgb(0,0,0)"/><rect x="90" y="10" width="10" height="10" fill="rgb(37,37,37)"/><rect x="100" y="10" width="10" height="10" fill="rgb(35,35,35)"/><rect x="110" y="10" width="10" height="10" fill="rgb(0,0,0)"/><rect x="120" y="10" width="10" height="10" fill="rgb(0,0,0)"/><rect x="130" y="10" width="10" height="10" fill="rgb(36,36,36)"/><rect x="140" y="10" width="10" height="10" fill="rgb(36,36,36)"/><rect x="150" y="10" width="10" height="10" fill="rgb(1,1,1)"/><rect x="160" y="10" width="10" height="10" fill="rgb(0,0,0)"/><rect x="170" y="10" width="10" height="10" fill="rgb(0,0,0)"/><rect x="180" y="10" width="10" height="10" fill="rgb(37,37,37)"/><rect x="190" y="10" width="10" height="10" fill="rgb(34,34,34)"/><rect x="200" y="10" width="10" height="10" fill="rgb(0,0,0)"/><rect x="210" y="10" width="10" height="10" fill="rgb(0,0,0)"/><rect x="220" y="10" width="10" height="10" fill="rgb(41,41,41)"/><rect x="230" y="10" width="10" height="10" fill="rgb(44,44,44)"/><rect x="240" y="10" width="10" height="10" fill="rgb(32,32,32)"/><rect x="250" y="10" width="10" height="10" fill="rgb(39,39,39)"/><rect x="260" y="10" width="10" height="10" fill="rgb(40,40,40)"/><rect x="270" y="10" width="10" height="10" fill="rgb(43,43,43)"/><rect x="280" y="10" width="10" height="10" fill="rgb(43,43,43)"/><rect x="290" y="10" width="10" height="10" fill="rgb(42,42,42)"/><rect x="300" y="10" width="10" height="10" fill="rgb(39,39,39)"/><rect x="310" y="10" width="10" height="10" fill="rgb(44,44,44)"/><rect x="320" y="10" width="10" height="10" fill="rgb(44,44,44)"/><rect x="330" y="10" width="10" height="10" fill="rgb(39,39,39)"/><rect x="340" y="10" width="10" height="10" fill="rgb(40,40,40)"/><rect x="350" y="10" width="10" height="10" fill="rgb(38,38,38)"/><rect x="360" y="10" width="10" height="10" fill="rgb(43,43,43)"/><rect x="370" y="10" width="10" height="10" fill="rgb(42,42,42)"/><rect x="380" y="10" width="10" height="10" fill="rgb(44,44,44)"/><rect x="390" y="10" width="10" height="10" fill="rgb(39,39,39)"/><rect x="400" y="10" width="10" height="10" fill="rgb(41,41,41)"/><rect x="410" y="10" width="10" height="10" fill="rgb(41,41,41)"/><rect x="420" y="10" width="10" height="10" fill="rgb(24,24,24)"/><rect x="430" y="10" width="10" height="10" fill="rgb(39,39,39)"/><rect x="440" y="10" width="10" height="10" fill="rgb(39,39,39)"/><rect x="450" y="10" width="10" height="10" fill="rgb(42,42,42)"/><rect x="460" y="10" width="10" height="10" fill="rgb(42,42,42)"/><rect x="470" y="10" width="10" height="10" fill="rgb(41,41,41)"/><rect x="0" y="20" width="10" height="10" fill="rgb(39,39,39)"/><rect x="10" y="20" width="10" height="10" fill="rgb(43,43,43)"/><rect x="20" y="20" width="10" height="10" fill="rgb(45,45,45)"/><rect x="30" y="20" width="10" height="10" fill="rgb(31,31,31)"/><rect x="40" y="20" width="10" height="10" fill="rgb(38,38,38)"/><rect x="50" y="20" width="10" height="10" fill="rgb(40,40,40)"/><rect x="60" y="20" width="10" height="10" fill="rgb(45,45,45)"/><rect x="70" y="20" width="10" height="10" fill="rgb(75,75,75)"/><rect x="80" y="20" width="10" height="10" fill="rgb(52,52,52)"/><rect x="90" y="20" width="10" height="10" fill="rgb(54,54,54)"/><rect x="100" y="20" width="10" height="10" fill="rgb(89,89,89)"/><rect x="110" y="20" width="10" height="10" fill="rgb(91,91,91)"/><rect x="120" y="20" width="10" height="10" fill="rgb(103,103,103)"/><rect x="130" y="20" width="10" height="10" fill="rgb(82,82,82)"/><rect x="140" y="20" width="10" height="10" fill="rgb(102,102,102)"/><rect x="150" y="20" width="10" height="10" fill="rgb(142,142,142)"/><rect x="160" y="20" width="10" height="10" fill="rgb(139,167,228)"/><rect x="170" y="20" width="10" height="10" fill="rgb(89,143,235)"/><rect x="180" y="20" width="10" height="10" fill="rgb(116,163,243)"/><rect x="190" y="20" width="10" height="10" fill="rgb(146,208,255)"/><rect x="200" y="20" width="10" height="10" fill="rgb(175,211,255)"/><rect x="210" y="20" width="10" height="10" fill="rgb(191,217,245)"/><rect x="220" y="20" width="10" height="10" fill="rgb(173,228,255)"/><rect x="230" y="20" width="10" height="10" fill="rgb(183,234,255)"/><rect x="240" y="20" width="10" height="10" fill="rgb(217,231,245)"/><rect x="250" y="20" width="10" height="10" fill="rgb(215,231,244)"/><rect x="260" y="20" width="10" height="10" fill="rgb(206,225,246)"/><rect x="270" y="20" width="10" height="10" fill="rgb(205,226,245)"/><rect x="280" y="20" width="10" height="10" fill="rgb(209,224,236)"/><rect x="290" y="20" width="10" height="10" fill="rgb(194,215,230)"/><rect x="300" y="20" width="10" height="10" fill="rgb(189,210,228)"/><rect x="310" y="20" width="10" height="10" fill="rgb(190,216,240)"/><rect x="320" y="20" width="10" height="10" fill="rgb(190,216,243)"/><rect x="330" y="20" width="10" height="10" fill="rgb(169,188,220)"/><rect x="340" y="20" width="10" height="10" fill="rgb(164,182,216)"/><rect x="350" y="20" width="10" height="10" fill="rgb(164,200,236)"/><rect x="360" y="20" width="10" height="10" fill="rgb(167,205,237)"/><rect x="370" y="20" width="10" height="10" fill="rgb(178,213,250)"/><rect x="380" y="20" width="10" height="10" fill="rgb(176,189,223)"/><rect x="390" y="20" width="10" height="10" fill="rgb(177,194,226)"/><rect x="400" y="20" width="10" height="10" fill="rgb(171,211,248)"/><rect x="410" y="20" width="10" height="10" fill="rgb(172,210,249)"/><rect x="420" y="20" width="10" height="10" fill="rgb(176,202,232)"/><rect x="430" y="20" width="10" height="10" fill="rgb(177,203,233)"/><rect x="440" y="20" width="10" height="10" fill="rgb(174,214,255)"/><rect x="450" y="20" width="10" height="10" fill="rgb(154,193,240)"/><rect x="460" y="20" width="10" height="10" fill="rgb(155,197,244)"/><rect x="470" y="20" width="10" height="10" fill="rgb(177,205,234)"/><rect x="0" y="30" width="10" height="10" fill="rgb(175,206,235)"/><rect x="10" y="30" width="10" height="10" fill="rgb(154,196,246)"/><rect x="20" y="30" width="10" height="10" fill="rgb(157,199,247)"/><rect x="30" y="30" width="10" height="10" fill="rgb(172,203,237)"/><rect x="40" y="30" width="10" height="10" fill="rgb(173,201,237)"/><rect x="50" y="30" width="10" height="10" fill="rgb(147,189,242)"/><rect x="60" y="30" width="10" height="10" fill="rgb(151,192,244)"/><rect x="70" y="30" width="10" height="10" fill="rgb(155,195,244)"/><rect x="80" y="30" width="10" height="10" fill="rgb(162,197,238)"/><rect x="90" y="30" width="10" height="10" fill="rgb(161,195,240)"/><rect x="100" y="30" width="10" height="10" fill="rgb(149,185,239)"/><rect x="110" y="30" width="10" height="10" fill="rgb(161,197,243)"/><rect x="120" y="30" width="10" height="10" fill="rgb(156,190,240)"/><rect x="130" y="30" width="10" height="10" fill="rgb(151,189,241)"/><rect x="140" y="30" width="10" height="10" fill="rgb(147,187,241)"/><rect x="150" y="30" width="10" height="10" fill="rgb(168,202,241)"/><rect x="160" y="30" width="10" height="10" fill="rgb(170,203,242)"/><rect x="170" y="30" width="10" height="10" fill="rgb(140,182,241)"/><rect x="180" y="30" width="10" height="10" fill="rgb(137,181,241)"/><rect x="190" y="30" width="10" height="10" fill="rgb(168,205,245)"/><rect x="200" y="30" width="10" height="10" fill="rgb(172,207,248)"/><rect x="210" y="30" width="10" height="10" fill="rgb(130,173,239)"/><rect x="220" y="30" width="10" height="10" fill="rgb(126,171,239)"/><rect x="230" y="30" width="10" height="10" fill="rgb(189,216,252)"/><rect x="240" y="30" width="10" height="10" fill="rgb(185,214,253)"/><rect x="250" y="30" width="10" height="10" fill="rgb(189,215,254)"/><rect x="260" y="30" width="10" height="10" fill="rgb(120,167,239)"/><rect x="270" y="30" width="10" height="10" fill="rgb(194,219,255)"/><rect x="280" y="30" width="10" height="10" fill="rgb(115,165,238)"/><rect x="290" y="30" width="10" height="10" fill="rgb(114,164,236)"/><rect x="300" y="30" width="10" height="10" fill="rgb(202,221,254)"/><rect x="310" y="30" width="10" height="10" fill="rgb(202,222,255)"/><rect x="320" y="30" width="10" height="10" fill="rgb(204,223,255)"/><rect x="330" y="30" width="10" height="10" fill="rgb(102,160,237)"/><rect x="340" y="30" width="10" height="10" fill="rgb(101,159,236)"/><rect x="350" y="30" width="10" height="10" fill="rgb(205,224,255)"/><rect x="360" y="30" width="10" height="10" fill="rgb(205,224,255)"/><rect x="370" y="30" width="10" height="10" fill="rgb(96,156,233)"/><rect x="380" y="30" width="10" height="10" fill="rgb(92,155,236)"/><rect x="390" y="30" width="10" height="10" fill="rgb(202,223,255)"/><rect x="400" y="30" width="10" height="10" fill="rgb(200,223,255)"/><rect x="410" y="30" width="10" height="10" fill="rgb(199,222,255)"/><rect x="420" y="30" width="10" height="10" fill="rgb(83,152,237)"/><rect x="430" y="30" width="10" height="10" fill="rgb(81,151,237)"/><rect x="440" y="30" width="10" height="10" fill="rgb(200,222,255)"/><rect x="450" y="30" width="10" height="10" fill="rgb(198,222,255)"/><rect x="460" y="30" width="10" height="10" fill="rgb(78,149,236)"/><rect x="470" y="30" width="10" height="10" fill="rgb(76,149,237)"/><rect x="0" y="40" width="10" height="10" fill="rgb(75,148,237)"/><rect x="10" y="40" width="10" height="10" fill="rgb(198,219,255)"/><rect x="20" y="40" width="10" height="10" fill="rgb(193,219,255)"/><rect x="30" y="40" width="10" height="10" fill="rgb(70,147,237)"/><rect x="40" y="40" width="10" height="10" fill="rgb(66,146,239)"/><rect x="50" y="40" width="10" height="10" fill="rgb(198,219,255)"/><rect x="60" y="40" width="10" height="10" fill="rgb(194,218,255)"/><rect x="70" y="40" width="10" height="10" fill="rgb(63,144,239)"/><rect x="80" y="40" width="10" height="10" fill="rgb(63,143,240)"/><rect x="90" y="40" width="10" height="10" fill="rgb(60,143,242)"/><rect x="100" y="40" width="10" height="10" fill="rgb(183,213,255)"/><rect x="110" y="40" width="10" height="10" fill="rgb(177,212,255)"/><rect x="120" y="40" width="10" height="10" fill="rgb(58,141,242)"/><rect x="130" y="40" width="10" height="10" fill="rgb(55,141,244)"/><rect x="140" y="40" width="10" height="10" fill="rgb(164,206,254)"/><rect x="150" y="40" width="10" height="10" fill="rgb(161,205,254)"/><rect x="160" y="40" width="10" height="10" fill="rgb(50,140,247)"/><rect x="170" y="40" width="10" height="10" fill="rgb(48,140,250)"/><rect x="180" y="40" width="10" height="10" fill="rgb(47,140,250)"/><rect x="190" y="40" width="10" height="10" fill="rgb(147,197,254)"/><rect x="200" y="40" width="10" height="10" fill="rgb(143,196,254)"/><rect x="210" y="40" width="10" height="10" fill="rgb(49,140,249)"/><rect x="220" y="40" width="10" height="10" fill="rgb(48,139,248)"/><rect x="230" y="40" width="10" height="10" fill="rgb(134,189,254)"/><rect x="240" y="40" width="10" height="10" fill="rgb(132,188,254)"/><rect x="250" y="40" width="10" height="10" fill="rgb(41,140,252)"/><rect x="260" y="40" width="10" height="10" fill="rgb(45,139,251)"/><rect x="270" y="40" width="10" height="10" fill="rgb(42,139,253)"/><rect x="280" y="40" width="10" height="10" fill="rgb(107,178,255)"/><rect x="290" y="40" width="10" height="10" fill="rgb(102,176,255)"/><rect x="300" y="40" width="10" height="10" fill="rgb(40,138,254)"/><rect x="310" y="40" width="10" height="10" fill="rgb(40,138,254)"/><rect x="320" y="40" width="10" height="10" fill="rgb(90,170,255)"/><rect x="330" y="40" width="10" height="10" fill="rgb(88,168,255)"/><rect x="340" y="40" width="10" height="10" fill="rgb(88,167,255)"/><rect x="350" y="40" width="10" height="10" fill="rgb(39,138,255)"/><rect x="360" y="40" width="10" height="10" fill="rgb(38,139,255)"/><rect x="370" y="40" width="10" height="10" fill="rgb(79,161,255)"/><rect x="380" y="40" width="10" height="10" fill="rgb(76,159,254)"/><rect x="390" y="40" width="10" height="10" fill="rgb(36,138,255)"/><rect x="400" y="40" width="10" height="10" fill="rgb(36,138,255)"/><rect x="410" y="40" width="10" height="10" fill="rgb(74,155,249)"/><rect x="420" y="40" width="10" height="10" fill="rgb(70,154,248)"/><rect x="430" y="40" width="10" height="10" fill="rgb(68,152,247)"/><rect x="440" y="40" width="10" height="10" fill="rgb(35,138,255)"/><rect x="450" y="40" width="10" height="10" fill="rgb(33,138,255)"/><rect x="460" y="40" width="10" height="10" fill="rgb(57,146,247)"/><rect x="470" y="40" width="10" height="10" fill="rgb(58,148,249)"/><rect x="0" y="50" width="10" height="10" fill="rgb(33,141,254)"/><rect x="10" y="50" width="10" height="10" fill="rgb(36,147,255)"/><rect x="20" y="50" width="10" height="10" fill="rgb(55,150,254)"/><rect x="30" y="50" width="10" height="10" fill="rgb(56,151,254)"/><rect x="40" y="50" width="10" height="10" fill="rgb(55,151,254)"/><rect x="50" y="50" width="10" height="10" fill="rgb(41,151,255)"/><rect x="60" y="50" width="10" height="10" fill="rgb(40,150,255)"/><rect x="70" y="50" width="10" height="10" fill="rgb(54,149,252)"/><rect x="80" y="50" width="10" height="10" fill="rgb(61,153,254)"/><rect x="90" y="50" width="10" height="10" fill="rgb(42,155,255)"/><rect x="100" y="50" width="10" height="10" fill="rgb(43,155,255)"/><rect x="110" y="50" width="10" height="10" fill="rgb(50,151,255)"/><rect x="120" y="50" width="10" height="10" fill="rgb(49,150,255)"/><rect x="130" y="50" width="10" height="10" fill="rgb(51,150,254)"/><rect x="140" y="50" width="10" height="10" fill="rgb(45,159,255)"/><rect x="150" y="50" width="10" height="10" fill="rgb(45,159,255)"/><rect x="160" y="50" width="10" height="10" fill="rgb(49,153,255)"/><rect x="170" y="50" width="10" height="10" fill="rgb(53,155,255)"/><rect x="180" y="50" width="10" height="10" fill="rgb(51,164,255)"/><rect x="190" y="50" width="10" height="10" fill="rgb(50,164,255)"/><rect x="200" y="50" width="10" height="10" fill="rgb(56,171,255)"/><rect x="210" y="50" width="10" height="10" fill="rgb(63,165,255)"/><rect x="220" y="50" width="10" height="10" fill="rgb(63,165,255)"/><rect x="230" y="50" width="10" height="10" fill="rgb(59,170,255)"/><rect x="240" y="50" width="10" height="10" fill="rgb(62,169,255)"/><rect x="250" y="50" width="10" height="10" fill="rgb(72,170,255)"/><rect x="260" y="50" width="10" height="10" fill="rgb(79,176,255)"/><rect x="270" y="50" width="10" height="10" fill="rgb(74,173,255)"/><rect x="280" y="50" width="10" height="10" fill="rgb(80,178,255)"/><rect x="290" y="50" width="10" height="10" fill="rgb(84,181,255)"/><rect x="300" y="50" width="10" height="10" fill="rgb(97,184,255)"/><rect x="310" y="50" width="10" height="10" fill="rgb(109,183,255)"/><rect x="320" y="50" width="10" height="10" fill="rgb(105,182,255)"/><rect x="330" y="50" width="10" height="10" fill="rgb(112,185,255)"/><rect x="340" y="50" width="10" height="10" fill="rgb(121,186,255)"/><rect x="350" y="50" width="10" height="10" fill="rgb(129,189,255)"/><rect x="360" y="50" width="10" height="10" fill="rgb(138,192,255)"/><rect x="370" y="50" width="10" height="10" fill="rgb(127,186,255)"/><rect x="380" y="50" width="10" height="10" fill="rgb(130,184,254)"/><rect x="390" y="50" width="10" height="10" fill="rgb(150,197,255)"/><rect x="400" y="50" width="10" height="10" fill="rgb(152,199,255)"/><rect x="410" y="50" width="10" height="10" fill="rgb(135,184,250)"/><rect x="420" y="50" width="10" height="10" fill="rgb(136,181,247)"/><rect x="430" y="50" width="10" height="10" fill="rgb(149,194,250)"/><rect x="440" y="50" width="10" height="10" fill="rgb(153,199,252)"/><rect x="450" y="50" width="10" height="10" fill="rgb(155,199,250)"/><rect x="460" y="50" width="10" height="10" fill="rgb(138,183,245)"/><rect x="470" y="50" width="10" height="10" fill="rgb(140,181,243)"/><rect x="0" y="60" width="10" height="10" fill="rgb(165,203,252)"/><rect x="10" y="60" width="10" height="10" fill="rgb(162,203,248)"/><rect x="20" y="60" width="10" height="10" fill="rgb(141,182,239)"/><rect x="30" y="60" width="10" height="10" fill="rgb(147,185,243)"/><rect x="40" y="60" width="10" height="10" fill="rgb(174,208,250)"/><rect x="50" y="60" width="10" height="10" fill="rgb(178,213,252)"/><rect x="60" y="60" width="10" height="10" fill="rgb(181,214,249)"/><rect x="70" y="60" width="10" height="10" fill="rgb(150,193,240)"/><rect x="80" y="60" width="10" height="10" fill="rgb(157,197,237)"/><rect x="90" y="60" width="10" height="10" fill="rgb(195,218,242)"/><rect x="100" y="60" width="10" height="10" fill="rgb(199,220,238)"/><rect x="110" y="60" width="10" height="10" fill="rgb(180,212,232)"/><rect x="120" y="60" width="10" height="10" fill="rgb(188,217,230)"/><rect x="130" y="60" width="10" height="10" fill="rgb(193,208,229)"/><rect x="140" y="60" width="10" height="10" fill="rgb(177,206,243)"/><rect x="150" y="60" width="10" height="10" fill="rgb(141,192,255)"/><rect x="160" y="60" width="10" height="10" fill="rgb(133,198,255)"/><rect x="170" y="60" width="10" height="10" fill="rgb(113,168,255)"/><rect x="180" y="60" width="10" height="10" fill="rgb(60,106,247)"/><rect x="190" y="60" width="10" height="10" fill="rgb(40,87,241)"/><rect x="200" y="60" width="10" height="10" fill="rgb(41,89,222)"/></svg>