<svg xmlns="http://www.w3.org/2000/svg" width="480" height="20"><rect x="0" y="0" width="10" height="10" fill="rgb(153,202,251)"/><rect x="10" y="0" width="10" height="10" fill="rgb(110,195,255)"/><rect x="20" y="0" width="10" height="10" fill="rgb(119,201,255)"/><rect x="30" y="0" width="10" height="10" fill="rgb(186,217,249)"/><rect x="40" y="0" width="10" height="10" fill="rgb(196,221,247)"/><rect x="50" y="0" width="10" height="10" fill="rgb(209,232,248)"/><rect x="60" y="0" width="10" height="10" fill="rgb(208,230,245)"/><rect x="70" y="0" width="10" height="10" fill="rgb(198,219,243)"/><rect x="80" y="0" width="10" height="10" fill="rgb(200,224,242)"/><rect x="90" y="0" width="10" height="10" fill="rgb(202,224,241)"/><rect x="100" y="0" width="10" height="10" fill="rgb(205,223,239)"/><rect x="110" y="0" width="10" height="10" fill="rgb(206,224,239)"/><rect x="120" y="0" width="10" height="10" fill="rgb(219,229,239)"/><rect x="130" y="0" width="10" height="10" fill="rgb(218,228,239)"/><rect x="140" y="0" width="10" height="10" fill="rgb(211,226,240)"/><rect x="150" y="0" width="10" height="10" fill="rgb(212,224,243)"/><rect x="160" y="0" width="10" height="10" fill="rgb(205,224,251)"/><rect x="170" y="0" width="10" height="10" fill="rgb(163,221,254)"/><rect x="180" y="0" width="10" height="10" fill="rgb(208,215,234)"/><rect x="190" y="0" width="10" height="10" fill="rgb(139,218,255)"/><rect x="200" y="0" width="10" height="10" fill="rgb(100,202,255)"/><rect x="210" y="0" width="10" height="10" fill="rgb(98,177,255)"/><rect x="220" y="0" width="10" height="10" fill="rgb(80,150,255)"/><rect x="230" y="0" width="10" height="10" fill="rgb(50,116,255)"/><rect x="240" y="0" width="10" height="10" fill="rgb(34,96,241)"/><rect x="250" y="0" width="10" height="10" fill="rgb(32,94,237)"/><rect x="260" y="0" width="10" height="10" fill="rgb(20,69,195)"/><rect x="270" y="0" width="10" height="10" fill="rgb(5,41,152)"/><rect x="280" y="0" width="10" height="10" fill="rgb(11,26,78)"/><rect x="290" y="0" width="10" height="10" fill="rgb(10,20,54)"/><rect x="300" y="0" width="10" height="10" fill="rgb(3,9,46)"/><rect x="310" y="0" width="10" height="10" fill="rgb(31,31,31)"/><rect x="320" y="0" width="10" height="10" fill="rgb(7,12,19)"/><rect x="330" y="0" width="10" height="10" fill="rgb(9,14,21)"/><rect x="340" y="0" width="10" height="10" fill="rgb(3,5,10)"/><rect x="350" y="0" width="10" height="10" fill="rgb(27,27,27)"/><rect x="360" y="0" width="10" height="10" fill="rgb(28,28,28)"/><rect x="370" y="0" width="10" height="10" fill="rgb(8,13,17)"/><rect x="380" y="0" width="10" height="10" fill="rgb(8,13,16)"/><rect x="390" y="0" width="10" height="10" fill="rgb(27,27,27)"/><rect x="400" y="0" width="10" height="10" fill="rgb(28,28,28)"/><rect x="410" y="0" width="10" height="10" fill="rgb(8,12,15)"/><rect x="420" y="0" width="10" height="10" fill="rgb(9,13,17)"/><rect x="430" y="0" width="10" height="10" fill="rgb(2,4,6)"/><rect x="440" y="0" width="10" height="10" fill="rgb(25,25,25)"/><rect x="450" y="0" width="10" height="10" fill="rgb(25,25,25)"/><rect x="460" y="0" width="10" height="10" fill="rgb(9,14,17)"/><rect x="470" y="0" width="10" height="10" fill="rgb(27,27,27)"/><rect x="0" y="10" width="10" height="10" fill="rgb(26,26,26)"/><rect x="10" y="10" width="10" height="10" fill="rgb(30,30,30)"/></svg>