<svg xmlns="http://www.w3.org/2000/svg" width="100" height="260"><rect x="0" y="0" width="10" height="10" fill="rgb(83,105,113)"/><rect x="10" y="0" width="10" height="10" fill="rgb(83,105,113)"/><rect x="20" y="0" width="10" height="10" fill="rgb(83,106,113)"/><rect x="30" y="0" width="10" height="10" fill="rgb(83,106,113)"/><rect x="40" y="0" width="10" height="10" fill="rgb(83,106,113)"/><rect x="50" y="0" width="10" height="10" fill="rgb(83,105,112)"/><rect x="60" y="0" width="10" height="10" fill="rgb(83,105,112)"/><rect x="70" y="0" width="10" height="10" fill="rgb(109,139,149)"/><rect x="80" y="0" width="10" height="10" fill="rgb(109,139,149)"/><rect x="90" y="0" width="10" height="10" fill="rgb(110,139,148)"/><rect x="0" y="10" width="10" height="10" fill="rgb(110,139,148)"/><rect x="10" y="10" width="10" height="10" fill="rgb(110,139,147)"/><rect x="20" y="10" width="10" height="10" fill="rgb(110,139,147)"/><rect x="30" y="10" width="10" height="10" fill="rgb(110,138,146)"/><rect x="40" y="10" width="10" height="10" fill="rgb(110,138,146)"/><rect x="50" y="10" width="10" height="10" fill="rgb(111,138,145)"/><rect x="60" y="10" width="10" height="10" fill="rgb(111,138,145)"/><rect x="70" y="10" width="10" height="10" fill="rgb(111,138,145)"/><rect x="80" y="10" width="10" height="10" fill="rgb(111,137,143)"/><rect x="90" y="10" width="10" height="10" fill="rgb(111,137,143)"/><rect x="0" y="20" width="10" height="10" fill="rgb(110,134,138)"/><rect x="10" y="20" width="10" height="10" fill="rgb(110,134,138)"/><rect x="20" y="20" width="10" height="10" fill="rgb(108,131,135)"/><rect x="30" y="20" width="10" height="10" fill="rgb(108,131,135)"/><rect x="40" y="20" width="10" height="10" fill="rgb(106,128,130)"/><rect x="50" y="20" width="10" height="10" fill="rgb(106,128,130)"/><rect x="60" y="20" width="10" height="10" fill="rgb(103,123,125)"/><rect x="70" y="20" width="10" height="10" fill="rgb(103,123,125)"/><rect x="80" y="20" width="10" height="10" fill="rgb(99,118,118)"/><rect x="90" y="20" width="10" height="10" fill="rgb(99,118,118)"/><rect x="0" y="30" width="10" height="10" fill="rgb(99,118,118)"/><rect x="10" y="30" width="10" height="10" fill="rgb(93,110,109)"/><rect x="20" y="30" width="10" height="10" fill="rgb(93,110,109)"/><rect x="30" y="30" width="10" height="10" fill="rgb(85,100,98)"/><rect x="40" y="30" width="10" height="10" fill="rgb(85,100,98)"/><rect x="50" y="30" width="10" height="10" fill="rgb(85,99,97)"/><rect x="60" y="30" width="10" height="10" fill="rgb(85,99,97)"/><rect x="70" y="30" width="10" height="10" fill="rgb(91,105,101)"/><rect x="80" y="30" width="10" height="10" fill="rgb(91,105,101)"/><rect x="90" y="30" width="10" height="10" fill="rgb(141,162,163)"/><rect x="0" y="40" width="10" height="10" fill="rgb(141,162,163)"/><rect x="10" y="40" width="10" height="10" fill="rgb(89,102,98)"/><rect x="20" y="40" width="10" height="10" fill="rgb(89,102,98)"/><rect x="30" y="40" width="10" height="10" fill="rgb(87,101,98)"/><rect x="40" y="40" width="10" height="10" fill="rgb(87,101,98)"/><rect x="50" y="40" width="10" height="10" fill="rgb(81,93,90)"/><rect x="60" y="40" width="10" height="10" fill="rgb(81,93,90)"/><rect x="70" y="40" width="10" height="10" fill="rgb(28,33,32)"/><rect x="80" y="40" width="10" height="10" fill="rgb(28,33,32)"/><rect x="90" y="40" width="10" height="10" fill="rgb(8,9,8)"/><rect x="0" y="50" width="10" height="10" fill="rgb(8,9,8)"/><rect x="10" y="50" width="10" height="10" fill="rgb(8,9,8)"/><rect x="20" y="50" width="10" height="10" fill="rgb(3,4,3)"/><rect x="30" y="50" width="10" height="10" fill="rgb(3,4,3)"/><rect x="40" y="50" width="10" height="10" fill="rgb(3,3,3)"/><rect x="50" y="50" width="10" height="10" fill="rgb(3,3,3)"/><rect x="60" y="50" width="10" height="10" fill="rgb(2,2,2)"/><rect x="70" y="50" width="10" height="10" fill="rgb(2,2,2)"/><rect x="80" y="50" width="10" height="10" fill="rgb(2,2,2)"/><rect x="90" y="50" width="10" height="10" fill="rgb(2,2,2)"/><rect x="0" y="60" width="10" height="10" fill="rgb(2,2,2)"/><rect x="10" y="60" width="10" height="10" fill="rgb(2,2,2)"/><rect x="20" y="60" width="10" height="10" fill="rgb(2,2,2)"/><rect x="30" y="60" width="10" height="10" fill="rgb(2,2,2)"/><rect x="40" y="60" width="10" height="10" fill="rgb(2,2,2)"/><rect x="50" y="60" width="10" height="10" fill="rgb(2,2,2)"/><rect x="60" y="60" width="10" height="10" fill="rgb(2,2,2)"/><rect x="70" y="60" width="10" height="10" fill="rgb(1,1,1)"/><rect x="80" y="60" width="10" height="10" fill="rgb(1,1,1)"/><rect x="90" y="60" width="10" height="10" fill="rgb(1,1,1)"/><rect x="0" y="70" width="10" height="10" fill="rgb(1,1,1)"/><rect x="10" y="70" width="10" height="10" fill="rgb(1,1,1)"/><rect x="20" y="70" width="10" height="10" fill="rgb(1,1,1)"/><rect x="30" y="70" width="10" height="10" fill="rgb(1,1,1)"/><rect x="40" y="70" width="10" height="10" fill="rgb(1,1,1)"/><rect x="50" y="70" width="10" height="10" fill="rgb(1,1,1)"/><rect x="60" y="70" width="10" height="10" fill="rgb(1,1,1)"/><rect x="70" y="70" width="10" height="10" fill="rgb(1,1,1)"/><rect x="80" y="70" width="10" height="10" fill="rgb(1,1,1)"/><rect x="90" y="70" width="10" height="10" fill="rgb(1,1,1)"/><rect x="0" y="80" width="10" height="10" fill="rgb(1,1,1)"/><rect x="10" y="80" width="10" height="10" fill="rgb(1,1,1)"/><rect x="20" y="80" width="10" height="10" fill="rgb(1,1,1)"/><rect x="30" y="80" width="10" height="10" fill="rgb(1,1,1)"/><rect x="40" y="80" width="10" height="10" fill="rgb(1,1,1)"/><rect x="50" y="80" width="10" height="10" fill="rgb(1,1,1)"/><rect x="60" y="80" width="10" height="10" fill="rgb(1,1,1)"/><rect x="70" y="80" width="10" height="10" fill="rgb(1,1,1)"/><rect x="80" y="80" width="10" height="10" fill="rgb(1,1,1)"/><rect x="90" y="80" width="10" height="10" fill="rgb(1,1,1)"/><rect x="0" y="90" width="10" height="10" fill="rgb(1,1,1)"/><rect x="10" y="90" width="10" height="10" fill="rgb(1,1,1)"/><rect x="20" y="90" width="10" height="10" fill="rgb(1,1,1)"/><rect x="30" y="90" width="10" height="10" fill="rgb(1,1,1)"/><rect x="40" y="90" width="10" height="10" fill="rgb(1,1,1)"/><rect x="50" y="90" width="10" height="10" fill="rgb(1,1,1)"/><rect x="60" y="90" width="10" height="10" fill="rgb(1,1,1)"/><rect x="70" y="90" width="10" height="10" fill="rgb(1,1,1)"/><rect x="80" y="90" width="10" height="10" fill="rgb(1,1,1)"/><rect x="90" y="90" width="10" height="10" fill="rgb(1,1,1)"/><rect x="0" y="100" width="10" height="10" fill="rgb(1,1,1)"/><rect x="10" y="100" width="10" height="10" fill="rgb(1,1,1)"/><rect x="20" y="100" width="10" height="10" fill="rgb(1,1,1)"/><rect x="30" y="100" width="10" height="10" fill="rgb(1,1,1)"/><rect x="40" y="100" width="10" height="10" fill="rgb(1,1,1)"/><rect x="50" y="100" width="10" height="10" fill="rgb(2,2,2)"/><rect x="60" y="100" width="10" height="10" fill="rgb(2,2,2)"/><rect x="70" y="100" width="10" height="10" fill="rgb(2,2,2)"/><rect x="80" y="100" width="10" height="10" fill="rgb(2,2,2)"/><rect x="90" y="100" width="10" height="10" fill="rgb(2,2,2)"/><rect x="0" y="110" width="10" height="10" fill="rgb(2,2,2)"/><rect x="10" y="110" width="10" height="10" fill="rgb(2,2,2)"/><rect x="20" y="110" width="10" height="10" fill="rgb(2,2,2)"/><rect x="30" y="110" width="10" height="10" fill="rgb(2,2,2)"/><rect x="40" y="110" width="10" height="10" fill="rgb(2,2,2)"/><rect x="50" y="110" width="10" height="10" fill="rgb(2,2,2)"/><rect x="60" y="110" width="10" height="10" fill="rgb(1,1,1)"/><rect x="70" y="110" width="10" height="10" fill="rgb(1,1,1)"/><rect x="80" y="110" width="10" height="10" fill="rgb(1,1,1)"/><rect x="90" y="110" width="10" height="10" fill="rgb(1,1,1)"/><rect x="0" y="120" width="10" height="10" fill="rgb(1,1,1)"/><rect x="10" y="120" width="10" height="10" fill="rgb(1,1,1)"/><rect x="20" y="120" width="10" height="10" fill="rgb(1,1,1)"/><rect x="30" y="120" width="10" height="10" fill="rgb(1,1,1)"/><rect x="40" y="120" width="10" height="10" fill="rgb(1,1,1)"/><rect x="50" y="120" width="10" height="10" fill="rgb(2,2,2)"/><rect x="60" y="120" width="10" height="10" fill="rgb(2,2,2)"/><rect x="70" y="120" width="10" height="10" fill="rgb(2,2,2)"/><rect x="80" y="120" width="10" height="10" fill="rgb(2,2,2)"/><rect x="90" y="120" width="10" height="10" fill="rgb(2,2,2)"/><rect x="0" y="130" width="10" height="10" fill="rgb(2,2,2)"/><rect x="10" y="130" width="10" height="10" fill="rgb(2,2,2)"/><rect x="20" y="130" width="10" height="10" fill="rgb(2,2,2)"/><rect x="30" y="130" width="10" height="10" fill="rgb(2,2,2)"/><rect x="40" y="130" width="10" height="10" fill="rgb(2,2,2)"/><rect x="50" y="130" width="10" height="10" fill="rgb(2,2,2)"/><rect x="60" y="130" width="10" height="10" fill="rgb(1,1,1)"/><rect x="70" y="130" width="10" height="10" fill="rgb(1,1,1)"/><rect x="80" y="130" width="10" height="10" fill="rgb(1,1,1)"/><rect x="90" y="130" width="10" height="10" fill="rgb(1,1,1)"/><rect x="0" y="140" width="10" height="10" fill="rgb(1,1,1)"/><rect x="10" y="140" width="10" height="10" fill="rgb(1,1,1)"/><rect x="20" y="140" width="10" height="10" fill="rgb(3,3,3)"/><rect x="30" y="140" width="10" height="10" fill="rgb(3,3,3)"/><rect x="40" y="140" width="10" height="10" fill="rgb(17,22,20)"/><rect x="50" y="140" width="10" height="10" fill="rgb(17,22,20)"/><rect x="60" y="140" width="10" height="10" fill="rgb(63,77,75)"/><rect x="70" y="140" width="10" height="10" fill="rgb(63,77,75)"/><rect x="80" y="140" width="10" height="10" fill="rgb(63,77,75)"/><rect x="90" y="140" width="10" height="10" fill="rgb(92,107,105)"/><rect x="0" y="150" width="10" height="10" fill="rgb(92,107,105)"/><rect x="10" y="150" width="10" height="10" fill="rgb(112,128,125)"/><rect x="20" y="150" width="10" height="10" fill="rgb(112,128,125)"/><rect x="30" y="150" width="10" height="10" fill="rgb(116,133,130)"/><rect x="40" y="150" width="10" height="10" fill="rgb(116,133,130)"/><rect x="50" y="150" width="10" height="10" fill="rgb(116,133,130)"/><rect x="60" y="150" width="10" height="10" fill="rgb(106,124,123)"/><rect x="70" y="150" width="10" height="10" fill="rgb(106,124,123)"/><rect x="80" y="150" width="10" height="10" fill="rgb(88,106,106)"/><rect x="90" y="150" width="10" height="10" fill="rgb(88,106,106)"/><rect x="0" y="160" width="10" height="10" fill="rgb(76,95,97)"/><rect x="10" y="160" width="10" height="10" fill="rgb(76,95,97)"/><rect x="20" y="160" width="10" height="10" fill="rgb(82,104,107)"/><rect x="30" y="160" width="10" height="10" fill="rgb(82,104,107)"/><rect x="40" y="160" width="10" height="10" fill="rgb(87,110,115)"/><rect x="50" y="160" width="10" height="10" fill="rgb(87,110,115)"/><rect x="60" y="160" width="10" height="10" fill="rgb(87,110,115)"/><rect x="70" y="160" width="10" height="10" fill="rgb(91,115,121)"/><rect x="80" y="160" width="10" height="10" fill="rgb(91,115,121)"/><rect x="90" y="160" width="10" height="10" fill="rgb(94,120,126)"/><rect x="0" y="170" width="10" height="10" fill="rgb(94,120,126)"/><rect x="10" y="170" width="10" height="10" fill="rgb(95,123,130)"/><rect x="20" y="170" width="10" height="10" fill="rgb(95,123,130)"/><rect x="30" y="170" width="10" height="10" fill="rgb(97,125,134)"/><rect x="40" y="170" width="10" height="10" fill="rgb(97,125,134)"/><rect x="50" y="170" width="10" height="10" fill="rgb(99,128,137)"/><rect x="60" y="170" width="10" height="10" fill="rgb(99,128,137)"/><rect x="70" y="170" width="10" height="10" fill="rgb(99,128,137)"/><rect x="80" y="170" width="10" height="10" fill="rgb(99,129,139)"/><rect x="90" y="170" width="10" height="10" fill="rgb(99,129,139)"/><rect x="0" y="180" width="10" height="10" fill="rgb(100,131,141)"/><rect x="10" y="180" width="10" height="10" fill="rgb(100,131,141)"/><rect x="20" y="180" width="10" height="10" fill="rgb(102,133,146)"/><rect x="30" y="180" width="10" height="10" fill="rgb(102,133,146)"/><rect x="40" y="180" width="10" height="10" fill="rgb(71,95,102)"/><rect x="50" y="180" width="10" height="10" fill="rgb(71,95,102)"/><rect x="60" y="180" width="10" height="10" fill="rgb(72,95,103)"/><rect x="70" y="180" width="10" height="10" fill="rgb(72,95,103)"/><rect x="80" y="180" width="10" height="10" fill="rgb(72,96,104)"/><rect x="90" y="180" width="10" height="10" fill="rgb(72,96,104)"/><rect x="0" y="190" width="10" height="10" fill="rgb(72,96,104)"/><rect x="10" y="190" width="10" height="10" fill="rgb(72,96,104)"/><rect x="20" y="190" width="10" height="10" fill="rgb(72,96,104)"/><rect x="30" y="190" width="10" height="10" fill="rgb(73,97,105)"/><rect x="40" y="190" width="10" height="10" fill="rgb(73,97,105)"/><rect x="50" y="190" width="10" height="10" fill="rgb(73,97,106)"/><rect x="60" y="190" width="10" height="10" fill="rgb(73,97,106)"/><rect x="70" y="190" width="10" height="10" fill="rgb(74,98,106)"/><rect x="80" y="190" width="10" height="10" fill="rgb(74,98,106)"/><rect x="90" y="190" width="10" height="10" fill="rgb(74,98,107)"/><rect x="0" y="200" width="10" height="10" fill="rgb(74,98,107)"/><rect x="10" y="200" width="10" height="10" fill="rgb(74,98,108)"/><rect x="20" y="200" width="10" height="10" fill="rgb(74,98,108)"/><rect x="30" y="200" width="10" height="10" fill="rgb(74,98,108)"/><rect x="40" y="200" width="10" height="10" fill="rgb(74,98,108)"/><rect x="50" y="200" width="10" height="10" fill="rgb(74,98,108)"/><rect x="60" y="200" width="10" height="10" fill="rgb(74,98,108)"/><rect x="70" y="200" width="10" height="10" fill="rgb(74,98,108)"/><rect x="80" y="200" width="10" height="10" fill="rgb(74,98,108)"/><rect x="90" y="200" width="10" height="10" fill="rgb(75,99,109)"/><rect x="0" y="210" width="10" height="10" fill="rgb(75,99,109)"/><rect x="10" y="210" width="10" height="10" fill="rgb(75,99,109)"/><rect x="20" y="210" width="10" height="10" fill="rgb(75,99,109)"/><rect x="30" y="210" width="10" height="10" fill="rgb(75,99,109)"/><rect x="40" y="210" width="10" height="10" fill="rgb(75,99,109)"/><rect x="50" y="210" width="10" height="10" fill="rgb(75,99,109)"/><rect x="60" y="210" width="10" height="10" fill="rgb(75,99,109)"/><rect x="70" y="210" width="10" height="10" fill="rgb(75,99,109)"/><rect x="80" y="210" width="10" height="10" fill="rgb(74,99,109)"/><rect x="90" y="210" width="10" height="10" fill="rgb(74,99,109)"/><rect x="0" y="220" width="10" height="10" fill="rgb(74,99,110)"/><rect x="10" y="220" width="10" height="10" fill="rgb(74,99,110)"/><rect x="20" y="220" width="10" height="10" fill="rgb(75,99,110)"/><rect x="30" y="220" width="10" height="10" fill="rgb(75,99,110)"/><rect x="40" y="220" width="10" height="10" fill="rgb(75,99,110)"/><rect x="50" y="220" width="10" height="10" fill="rgb(76,100,112)"/><rect x="60" y="220" width="10" height="10" fill="rgb(76,100,112)"/><rect x="70" y="220" width="10" height="10" fill="rgb(90,112,120)"/><rect x="80" y="220" width="10" height="10" fill="rgb(90,112,120)"/><rect x="90" y="220" width="10" height="10" fill="rgb(82,105,115)"/><rect x="0" y="230" width="10" height="10" fill="rgb(82,105,115)"/><rect x="10" y="230" width="10" height="10" fill="rgb(90,109,113)"/><rect x="20" y="230" width="10" height="10" fill="rgb(90,109,113)"/><rect x="30" y="230" width="10" height="10" fill="rgb(90,109,113)"/><rect x="40" y="230" width="10" height="10" fill="rgb(108,126,130)"/><rect x="50" y="230" width="10" height="10" fill="rgb(108,126,130)"/><rect x="60" y="230" width="10" height="10" fill="rgb(120,136,135)"/><rect x="70" y="230" width="10" height="10" fill="rgb(120,136,135)"/><rect x="80" y="230" width="10" height="10" fill="rgb(100,114,114)"/><rect x="90" y="230" width="10" height="10" fill="rgb(100,114,114)"/><rect x="0" y="240" width="10" height="10" fill="rgb(111,125,122)"/><rect x="10" y="240" width="10" height="10" fill="rgb(111,125,122)"/><rect x="20" y="240" width="10" height="10" fill="rgb(92,107,108)"/><rect x="30" y="240" width="10" height="10" fill="rgb(92,107,108)"/><rect x="40" y="240" width="10" height="10" fill="rgb(92,107,108)"/><rect x="50" y="240" width="10" height="10" fill="rgb(85,100,101)"/><rect x="60" y="240" width="10" height="10" fill="rgb(85,100,101)"/><rect x="70" y="240" width="10" height="10" fill="rgb(75,89,88)"/><rect x="80" y="240" width="10" height="10" fill="rgb(75,89,88)"/><rect x="90" y="240" width="10" height="10" fill="rgb(73,89,92)"/><rect x="0" y="250" width="10" height="10" fill="rgb(73,89,92)"/><rect x="10" y="250" width="10" height="10" fill="rgb(73,89,92)"/><rect x="20" y="250" width="10" height="10" fill="rgb(73,89,92)"/><rect x="30" y="250" width="10" height="10" fill="rgb(73,89,92)"/></svg>