<svg xmlns="http://www.w3.org/2000/svg" width="480" height="10"><rect x="0" y="0" width="10" height="10" fill="rgb(247,244,254)"/><rect x="10" y="0" width="10" height="10" fill="rgb(248,244,253)"/><rect x="20" y="0" width="10" height="10" fill="rgb(230,233,254)"/><rect x="30" y="0" width="10" height="10" fill="rgb(225,224,245)"/><rect x="40" y="0" width="10" height="10" fill="rgb(178,173,186)"/><rect x="50" y="0" width="10" height="10" fill="rgb(227,225,238)"/><rect x="60" y="0" width="10" height="10" fill="rgb(225,222,236)"/><rect x="70" y="0" width="10" height="10" fill="rgb(238,236,246)"/><rect x="80" y="0" width="10" height="10" fill="rgb(247,245,254)"/><rect x="90" y="0" width="10" height="10" fill="rgb(224,218,224)"/><rect x="100" y="0" width="10" height="10" fill="rgb(229,227,241)"/><rect x="110" y="0" width="10" height="10" fill="rgb(230,224,231)"/><rect x="120" y="0" width="10" height="10" fill="rgb(201,199,215)"/><rect x="130" y="0" width="10" height="10" fill="rgb(211,211,227)"/><rect x="140" y="0" width="10" height="10" fill="rgb(177,178,198)"/><rect x="150" y="0" width="10" height="10" fill="rgb(188,195,220)"/><rect x="160" y="0" width="10" height="10" fill="rgb(153,156,176)"/><rect x="170" y="0" width="10" height="10" fill="rgb(239,237,250)"/><rect x="180" y="0" width="10" height="10" fill="rgb(213,218,237)"/><rect x="190" y="0" width="10" height="10" fill="rgb(223,221,237)"/><rect x="200" y="0" width="10" height="10" fill="rgb(211,209,223)"/><rect x="210" y="0" width="10" height="10" fill="rgb(218,215,230)"/><rect x="220" y="0" width="10" height="10" fill="rgb(210,210,231)"/><rect x="230" y="0" width="10" height="10" fill="rgb(214,213,229)"/><rect x="240" y="0" width="10" height="10" fill="rgb(209,209,225)"/><rect x="250" y="0" width="10" height="10" fill="rgb(204,203,215)"/><rect x="260" y="0" width="10" height="10" fill="rgb(233,230,235)"/><rect x="270" y="0" width="10" height="10" fill="rgb(238,238,250)"/><rect x="280" y="0" width="10" height="10" fill="rgb(220,225,239)"/><rect x="290" y="0" width="10" height="10" fill="rgb(237,236,245)"/><rect x="300" y="0" width="10" height="10" fill="rgb(232,232,244)"/><rect x="310" y="0" width="10" height="10" fill="rgb(208,211,224)"/><rect x="320" y="0" width="10" height="10" fill="rgb(194,194,208)"/><rect x="330" y="0" width="10" height="10" fill="rgb(145,154,168)"/><rect x="340" y="0" width="10" height="10" fill="rgb(152,157,174)"/><rect x="350" y="0" width="10" height="10" fill="rgb(155,158,172)"/><rect x="360" y="0" width="10" height="10" fill="rgb(133,138,153)"/><rect x="370" y="0" width="10" height="10" fill="rgb(150,159,174)"/><rect x="380" y="0" width="10" height="10" fill="rgb(141,154,167)"/><rect x="390" y="0" width="10" height="10" fill="rgb(146,155,171)"/><rect x="400" y="0" width="10" height="10" fill="rgb(123,140,157)"/><rect x="410" y="0" width="10" height="10" fill="rgb(122,139,154)"/><rect x="420" y="0" width="10" height="10" fill="rgb(123,140,155)"/><rect x="430" y="0" width="10" height="10" fill="rgb(119,136,155)"/><rect x="440" y="0" width="10" height="10" fill="rgb(117,130,151)"/></svg>