<svg xmlns="http://www.w3.org/2000/svg" width="100" height="260"><rect x="0" y="0" width="10" height="10" fill="rgb(110,123,131)"/><rect x="10" y="0" width="10" height="10" fill="rgb(110,123,131)"/><rect x="20" y="0" width="10" height="10" fill="rgb(97,108,114)"/><rect x="30" y="0" width="10" height="10" fill="rgb(97,108,114)"/><rect x="40" y="0" width="10" height="10" fill="rgb(96,104,107)"/><rect x="50" y="0" width="10" height="10" fill="rgb(96,104,107)"/><rect x="60" y="0" width="10" height="10" fill="rgb(88,99,104)"/><rect x="70" y="0" width="10" height="10" fill="rgb(88,99,104)"/><rect x="80" y="0" width="10" height="10" fill="rgb(129,142,148)"/><rect x="90" y="0" width="10" height="10" fill="rgb(129,142,148)"/><rect x="0" y="10" width="10" height="10" fill="rgb(129,142,148)"/><rect x="10" y="10" width="10" height="10" fill="rgb(121,132,137)"/><rect x="20" y="10" width="10" height="10" fill="rgb(121,132,137)"/><rect x="30" y="10" width="10" height="10" fill="rgb(113,123,127)"/><rect x="40" y="10" width="10" height="10" fill="rgb(113,123,127)"/><rect x="50" y="10" width="10" height="10" fill="rgb(101,110,113)"/><rect x="60" y="10" width="10" height="10" fill="rgb(101,110,113)"/><rect x="70" y="10" width="10" height="10" fill="rgb(84,91,94)"/><rect x="80" y="10" width="10" height="10" fill="rgb(84,91,94)"/><rect x="90" y="10" width="10" height="10" fill="rgb(99,106,108)"/><rect x="0" y="20" width="10" height="10" fill="rgb(99,106,108)"/><rect x="10" y="20" width="10" height="10" fill="rgb(99,106,108)"/><rect x="20" y="20" width="10" height="10" fill="rgb(121,128,131)"/><rect x="30" y="20" width="10" height="10" fill="rgb(121,128,131)"/><rect x="40" y="20" width="10" height="10" fill="rgb(252,252,252)"/><rect x="50" y="20" width="10" height="10" fill="rgb(252,252,252)"/><rect x="60" y="20" width="10" height="10" fill="rgb(115,122,129)"/><rect x="70" y="20" width="10" height="10" fill="rgb(115,122,129)"/><rect x="80" y="20" width="10" height="10" fill="rgb(117,121,131)"/><rect x="90" y="20" width="10" height="10" fill="rgb(117,121,131)"/><rect x="0" y="30" width="10" height="10" fill="rgb(63,67,72)"/><rect x="10" y="30" width="10" height="10" fill="rgb(63,67,72)"/><rect x="20" y="30" width="10" height="10" fill="rgb(3,4,4)"/><rect x="30" y="30" width="10" height="10" fill="rgb(3,4,4)"/><rect x="40" y="30" width="10" height="10" fill="rgb(2,2,2)"/><rect x="50" y="30" width="10" height="10" fill="rgb(2,2,2)"/><rect x="60" y="30" width="10" height="10" fill="rgb(2,2,2)"/><rect x="70" y="30" width="10" height="10" fill="rgb(2,2,2)"/><rect x="80" y="30" width="10" height="10" fill="rgb(1,1,1)"/><rect x="90" y="30" width="10" height="10" fill="rgb(1,1,1)"/><rect x="0" y="40" width="10" height="10" fill="rgb(1,1,1)"/><rect x="10" y="40" width="10" height="10" fill="rgb(1,1,1)"/><rect x="20" y="40" width="10" height="10" fill="rgb(1,1,1)"/><rect x="30" y="40" width="10" height="10" fill="rgb(1,1,1)"/><rect x="40" y="40" width="10" height="10" fill="rgb(1,1,1)"/><rect x="50" y="40" width="10" height="10" fill="rgb(1,1,1)"/><rect x="60" y="40" width="10" height="10" fill="rgb(1,1,1)"/><rect x="70" y="40" width="10" height="10" fill="rgb(1,1,1)"/><rect x="80" y="40" width="10" height="10" fill="rgb(1,1,1)"/><rect x="90" y="40" width="10" height="10" fill="rgb(1,1,1)"/><rect x="0" y="50" width="10" height="10" fill="rgb(1,1,1)"/><rect x="10" y="50" width="10" height="10" fill="rgb(1,1,1)"/><rect x="20" y="50" width="10" height="10" fill="rgb(1,1,1)"/><rect x="30" y="50" width="10" height="10" fill="rgb(1,1,1)"/><rect x="40" y="50" width="10" height="10" fill="rgb(1,1,1)"/><rect x="50" y="50" width="10" height="10" fill="rgb(1,1,1)"/><rect x="60" y="50" width="10" height="10" fill="rgb(1,1,1)"/><rect x="70" y="50" width="10" height="10" fill="rgb(1,1,1)"/><rect x="80" y="50" width="10" height="10" fill="rgb(1,1,1)"/><rect x="90" y="50" width="10" height="10" fill="rgb(1,1,1)"/><rect x="0" y="60" width="10" height="10" fill="rgb(1,1,1)"/><rect x="10" y="60" width="10" height="10" fill="rgb(1,1,1)"/><rect x="20" y="60" width="10" height="10" fill="rgb(1,1,1)"/><rect x="30" y="60" width="10" height="10" fill="rgb(1,1,1)"/><rect x="40" y="60" width="10" height="10" fill="rgb(1,1,1)"/><rect x="50" y="60" width="10" height="10" fill="rgb(1,1,1)"/><rect x="60" y="60" width="10" height="10" fill="rgb(1,1,1)"/><rect x="70" y="60" width="10" height="10" fill="rgb(1,1,1)"/><rect x="80" y="60" width="10" height="10" fill="rgb(252,252,252)"/><rect x="90" y="60" width="10" height="10" fill="rgb(252,252,252)"/><rect x="0" y="70" width="10" height="10" fill="rgb(1,1,1)"/><rect x="10" y="70" width="10" height="10" fill="rgb(1,1,1)"/><rect x="20" y="70" width="10" height="10" fill="rgb(1,1,1)"/><rect x="30" y="70" width="10" height="10" fill="rgb(1,1,1)"/><rect x="40" y="70" width="10" height="10" fill="rgb(1,1,1)"/><rect x="50" y="70" width="10" height="10" fill="rgb(1,1,1)"/><rect x="60" y="70" width="10" height="10" fill="rgb(1,1,1)"/><rect x="70" y="70" width="10" height="10" fill="rgb(1,1,1)"/><rect x="80" y="70" width="10" height="10" fill="rgb(1,1,1)"/><rect x="90" y="70" width="10" height="10" fill="rgb(1,1,1)"/><rect x="0" y="80" width="10" height="10" fill="rgb(1,1,1)"/><rect x="10" y="80" width="10" height="10" fill="rgb(1,1,1)"/><rect x="20" y="80" width="10" height="10" fill="rgb(1,1,1)"/><rect x="30" y="80" width="10" height="10" fill="rgb(1,1,1)"/><rect x="40" y="80" width="10" height="10" fill="rgb(1,1,1)"/><rect x="50" y="80" width="10" height="10" fill="rgb(1,1,1)"/><rect x="60" y="80" width="10" height="10" fill="rgb(1,1,1)"/><rect x="70" y="80" width="10" height="10" fill="rgb(1,1,1)"/><rect x="80" y="80" width="10" height="10" fill="rgb(1,1,1)"/><rect x="90" y="80" width="10" height="10" fill="rgb(1,1,1)"/><rect x="0" y="90" width="10" height="10" fill="rgb(1,1,1)"/><rect x="10" y="90" width="10" height="10" fill="rgb(1,1,1)"/><rect x="20" y="90" width="10" height="10" fill="rgb(1,1,1)"/><rect x="30" y="90" width="10" height="10" fill="rgb(1,1,1)"/><rect x="40" y="90" width="10" height="10" fill="rgb(242,242,242)"/><rect x="50" y="90" width="10" height="10" fill="rgb(242,242,242)"/><rect x="60" y="90" width="10" height="10" fill="rgb(1,1,1)"/><rect x="70" y="90" width="10" height="10" fill="rgb(1,1,1)"/><rect x="80" y="90" width="10" height="10" fill="rgb(1,1,1)"/><rect x="90" y="90" width="10" height="10" fill="rgb(1,1,1)"/><rect x="0" y="100" width="10" height="10" fill="rgb(1,1,1)"/><rect x="10" y="100" width="10" height="10" fill="rgb(1,1,1)"/><rect x="20" y="100" width="10" height="10" fill="rgb(1,1,1)"/><rect x="30" y="100" width="10" height="10" fill="rgb(1,1,1)"/><rect x="40" y="100" width="10" height="10" fill="rgb(1,1,1)"/><rect x="50" y="100" width="10" height="10" fill="rgb(1,1,1)"/><rect x="60" y="100" width="10" height="10" fill="rgb(1,1,1)"/><rect x="70" y="100" width="10" height="10" fill="rgb(242,242,242)"/><rect x="80" y="100" width="10" height="10" fill="rgb(242,242,242)"/><rect x="90" y="100" width="10" height="10" fill="rgb(1,1,1)"/><rect x="0" y="110" width="10" height="10" fill="rgb(1,1,1)"/><rect x="10" y="110" width="10" height="10" fill="rgb(1,1,1)"/><rect x="20" y="110" width="10" height="10" fill="rgb(1,1,1)"/><rect x="30" y="110" width="10" height="10" fill="rgb(1,1,1)"/><rect x="40" y="110" width="10" height="10" fill="rgb(1,1,1)"/><rect x="50" y="110" width="10" height="10" fill="rgb(1,1,1)"/><rect x="60" y="110" width="10" height="10" fill="rgb(1,1,1)"/><rect x="70" y="110" width="10" height="10" fill="rgb(1,1,1)"/><rect x="80" y="110" width="10" height="10" fill="rgb(1,1,1)"/><rect x="90" y="110" width="10" height="10" fill="rgb(1,1,1)"/><rect x="0" y="120" width="10" height="10" fill="rgb(2,2,2)"/><rect x="10" y="120" width="10" height="10" fill="rgb(2,2,2)"/><rect x="20" y="120" width="10" height="10" fill="rgb(242,242,242)"/><rect x="30" y="120" width="10" height="10" fill="rgb(242,242,242)"/><rect x="40" y="120" width="10" height="10" fill="rgb(51,54,60)"/><rect x="50" y="120" width="10" height="10" fill="rgb(51,54,60)"/><rect x="60" y="120" width="10" height="10" fill="rgb(51,54,60)"/><rect x="70" y="120" width="10" height="10" fill="rgb(126,128,136)"/><rect x="80" y="120" width="10" height="10" fill="rgb(126,128,136)"/><rect x="90" y="120" width="10" height="10" fill="rgb(130,132,137)"/><rect x="0" y="130" width="10" height="10" fill="rgb(130,132,137)"/><rect x="10" y="130" width="10" height="10" fill="rgb(129,131,132)"/><rect x="20" y="130" width="10" height="10" fill="rgb(129,131,132)"/><rect x="30" y="130" width="10" height="10" fill="rgb(242,242,242)"/><rect x="40" y="130" width="10" height="10" fill="rgb(242,242,242)"/><rect x="50" y="130" width="10" height="10" fill="rgb(242,242,242)"/><rect x="60" y="130" width="10" height="10" fill="rgb(242,242,242)"/><rect x="70" y="130" width="10" height="10" fill="rgb(242,242,242)"/><rect x="80" y="130" width="10" height="10" fill="rgb(242,242,242)"/><rect x="90" y="130" width="10" height="10" fill="rgb(242,242,242)"/><rect x="0" y="140" width="10" height="10" fill="rgb(252,252,252)"/><rect x="10" y="140" width="10" height="10" fill="rgb(252,252,252)"/><rect x="20" y="140" width="10" height="10" fill="rgb(252,252,252)"/><rect x="30" y="140" width="10" height="10" fill="rgb(252,252,252)"/><rect x="40" y="140" width="10" height="10" fill="rgb(252,252,252)"/><rect x="50" y="140" width="10" height="10" fill="rgb(252,252,252)"/><rect x="60" y="140" width="10" height="10" fill="rgb(252,252,252)"/><rect x="70" y="140" width="10" height="10" fill="rgb(252,252,252)"/><rect x="80" y="140" width="10" height="10" fill="rgb(252,252,252)"/><rect x="90" y="140" width="10" height="10" fill="rgb(252,252,252)"/><rect x="0" y="150" width="10" height="10" fill="rgb(252,252,252)"/><rect x="10" y="150" width="10" height="10" fill="rgb(252,252,252)"/><rect x="20" y="150" width="10" height="10" fill="rgb(252,252,252)"/><rect x="30" y="150" width="10" height="10" fill="rgb(252,252,252)"/><rect x="40" y="150" width="10" height="10" fill="rgb(252,252,252)"/><rect x="50" y="150" width="10" height="10" fill="rgb(252,252,252)"/><rect x="60" y="150" width="10" height="10" fill="rgb(252,252,252)"/><rect x="70" y="150" width="10" height="10" fill="rgb(252,252,252)"/><rect x="80" y="150" width="10" height="10" fill="rgb(252,252,252)"/><rect x="90" y="150" width="10" height="10" fill="rgb(252,252,252)"/><rect x="0" y="160" width="10" height="10" fill="rgb(252,252,252)"/><rect x="10" y="160" width="10" height="10" fill="rgb(252,252,252)"/><rect x="20" y="160" width="10" height="10" fill="rgb(252,252,252)"/><rect x="30" y="160" width="10" height="10" fill="rgb(252,252,252)"/><rect x="40" y="160" width="10" height="10" fill="rgb(252,252,252)"/><rect x="50" y="160" width="10" height="10" fill="rgb(252,252,252)"/><rect x="60" y="160" width="10" height="10" fill="rgb(252,252,252)"/><rect x="70" y="160" width="10" height="10" fill="rgb(252,252,252)"/><rect x="80" y="160" width="10" height="10" fill="rgb(252,252,252)"/><rect x="90" y="160" width="10" height="10" fill="rgb(252,252,252)"/><rect x="0" y="170" width="10" height="10" fill="rgb(252,252,252)"/><rect x="10" y="170" width="10" height="10" fill="rgb(252,252,252)"/><rect x="20" y="170" width="10" height="10" fill="rgb(252,252,252)"/><rect x="30" y="170" width="10" height="10" fill="rgb(252,252,252)"/><rect x="40" y="170" width="10" height="10" fill="rgb(252,252,252)"/><rect x="50" y="170" width="10" height="10" fill="rgb(252,252,252)"/><rect x="60" y="170" width="10" height="10" fill="rgb(252,252,252)"/><rect x="70" y="170" width="10" height="10" fill="rgb(252,252,252)"/><rect x="80" y="170" width="10" height="10" fill="rgb(252,252,252)"/><rect x="90" y="170" width="10" height="10" fill="rgb(252,252,252)"/><rect x="0" y="180" width="10" height="10" fill="rgb(252,252,252)"/><rect x="10" y="180" width="10" height="10" fill="rgb(252,252,252)"/><rect x="20" y="180" width="10" height="10" fill="rgb(252,252,252)"/><rect x="30" y="180" width="10" height="10" fill="rgb(252,252,252)"/><rect x="40" y="180" width="10" height="10" fill="rgb(252,252,252)"/><rect x="50" y="180" width="10" height="10" fill="rgb(252,252,252)"/><rect x="60" y="180" width="10" height="10" fill="rgb(252,252,252)"/><rect x="70" y="180" width="10" height="10" fill="rgb(252,252,252)"/><rect x="80" y="180" width="10" height="10" fill="rgb(252,252,252)"/><rect x="90" y="180" width="10" height="10" fill="rgb(252,252,252)"/><rect x="0" y="190" width="10" height="10" fill="rgb(252,252,252)"/><rect x="10" y="190" width="10" height="10" fill="rgb(252,252,252)"/><rect x="20" y="190" width="10" height="10" fill="rgb(252,252,252)"/><rect x="30" y="190" width="10" height="10" fill="rgb(252,252,252)"/><rect x="40" y="190" width="10" height="10" fill="rgb(252,252,252)"/><rect x="50" y="190" width="10" height="10" fill="rgb(252,252,252)"/><rect x="60" y="190" width="10" height="10" fill="rgb(252,252,252)"/><rect x="70" y="190" width="10" height="10" fill="rgb(252,252,252)"/><rect x="80" y="190" width="10" height="10" fill="rgb(252,252,252)"/><rect x="90" y="190" width="10" height="10" fill="rgb(252,252,252)"/><rect x="0" y="200" width="10" height="10" fill="rgb(252,252,252)"/><rect x="10" y="200" width="10" height="10" fill="rgb(252,252,252)"/><rect x="20" y="200" width="10" height="10" fill="rgb(252,252,252)"/><rect x="30" y="200" width="10" height="10" fill="rgb(252,252,252)"/><rect x="40" y="200" width="10" height="10" fill="rgb(252,252,252)"/><rect x="50" y="200" width="10" height="10" fill="rgb(252,252,252)"/><rect x="60" y="200" width="10" height="10" fill="rgb(252,252,252)"/><rect x="70" y="200" width="10" height="10" fill="rgb(252,252,252)"/><rect x="80" y="200" width="10" height="10" fill="rgb(252,252,252)"/><rect x="90" y="200" width="10" height="10" fill="rgb(252,252,252)"/><rect x="0" y="210" width="10" height="10" fill="rgb(252,252,252)"/><rect x="10" y="210" width="10" height="10" fill="rgb(252,252,252)"/><rect x="20" y="210" width="10" height="10" fill="rgb(252,252,252)"/><rect x="30" y="210" width="10" height="10" fill="rgb(252,252,252)"/><rect x="40" y="210" width="10" height="10" fill="rgb(252,252,252)"/><rect x="50" y="210" width="10" height="10" fill="rgb(252,252,252)"/><rect x="60" y="210" width="10" height="10" fill="rgb(252,252,252)"/><rect x="70" y="210" width="10" height="10" fill="rgb(115,120,121)"/><rect x="80" y="210" width="10" height="10" fill="rgb(115,120,121)"/><rect x="90" y="210" width="10" height="10" fill="rgb(109,117,120)"/><rect x="0" y="220" width="10" height="10" fill="rgb(109,117,120)"/><rect x="10" y="220" width="10" height="10" fill="rgb(97,118,134)"/><rect x="20" y="220" width="10" height="10" fill="rgb(97,118,134)"/><rect x="30" y="220" width="10" height="10" fill="rgb(155,171,182)"/><rect x="40" y="220" width="10" height="10" fill="rgb(155,171,182)"/><rect x="50" y="220" width="10" height="10" fill="rgb(120,124,124)"/><rect x="60" y="220" width="10" height="10" fill="rgb(120,124,124)"/><rect x="70" y="220" width="10" height="10" fill="rgb(123,127,126)"/><rect x="80" y="220" width="10" height="10" fill="rgb(123,127,126)"/><rect x="90" y="220" width="10" height="10" fill="rgb(123,127,126)"/><rect x="0" y="230" width="10" height="10" fill="rgb(123,127,126)"/><rect x="10" y="230" width="10" height="10" fill="rgb(252,252,252)"/><rect x="20" y="230" width="10" height="10" fill="rgb(252,252,252)"/><rect x="30" y="230" width="10" height="10" fill="rgb(128,130,128)"/><rect x="40" y="230" width="10" height="10" fill="rgb(128,130,128)"/><rect x="50" y="230" width="10" height="10" fill="rgb(128,130,128)"/><rect x="60" y="230" width="10" height="10" fill="rgb(242,242,242)"/><rect x="70" y="230" width="10" height="10" fill="rgb(242,242,242)"/><rect x="80" y="230" width="10" height="10" fill="rgb(119,121,120)"/><rect x="90" y="230" width="10" height="10" fill="rgb(119,121,120)"/><rect x="0" y="240" width="10" height="10" fill="rgb(122,124,123)"/><rect x="10" y="240" width="10" height="10" fill="rgb(122,124,123)"/><rect x="20" y="240" width="10" height="10" fill="rgb(117,120,119)"/><rect x="30" y="240" width="10" height="10" fill="rgb(117,120,119)"/><rect x="40" y="240" width="10" height="10" fill="rgb(117,121,121)"/><rect x="50" y="240" width="10" height="10" fill="rgb(117,121,121)"/><rect x="60" y="240" width="10" height="10" fill="rgb(117,121,121)"/><rect x="70" y="240" width="10" height="10" fill="rgb(125,129,128)"/><rect x="80" y="240" width="10" height="10" fill="rgb(125,129,128)"/><rect x="90" y="240" width="10" height="10" fill="rgb(123,126,125)"/><rect x="0" y="250" width="10" height="10" fill="rgb(123,126,125)"/><rect x="10" y="250" width="10" height="10" fill="rgb(252,252,252)"/><rect x="20" y="250" width="10" height="10" fill="rgb(252,252,252)"/><rect x="30" y="250" width="10" height="10" fill="rgb(124,127,126)"/><rect x="40" y="250" width="10" height="10" fill="rgb(124,127,126)"/><rect x="50" y="250" width="10" height="10" fill="rgb(124,127,126)"/><rect x="60" y="250" width="10" height="10" fill="rgb(140,148,152)"/></svg>