<svg xmlns="http://www.w3.org/2000/svg" width="100" height="640"><rect x="0" y="0" width="10" height="10" fill="rgb(110,123,131)"/><rect x="10" y="0" width="10" height="10" fill="rgb(110,123,131)"/><rect x="20" y="0" width="10" height="10" fill="rgb(97,108,114)"/><rect x="30" y="0" width="10" height="10" fill="rgb(97,108,114)"/><rect x="40" y="0" width="10" height="10" fill="rgb(96,104,107)"/><rect x="50" y="0" width="10" height="10" fill="rgb(96,104,107)"/><rect x="60" y="0" width="10" height="10" fill="rgb(88,99,104)"/><rect x="70" y="0" width="10" height="10" fill="rgb(88,99,104)"/><rect x="80" y="0" width="10" height="10" fill="rgb(129,142,148)"/><rect x="90" y="0" width="10" height="10" fill="rgb(129,142,148)"/><rect x="0" y="10" width="10" height="10" fill="rgb(129,142,148)"/><rect x="10" y="10" width="10" height="10" fill="rgb(121,132,137)"/><rect x="20" y="10" width="10" height="10" fill="rgb(121,132,137)"/><rect x="30" y="10" width="10" height="10" fill="rgb(113,123,127)"/><rect x="40" y="10" width="10" height="10" fill="rgb(113,123,127)"/><rect x="50" y="10" width="10" height="10" fill="rgb(101,110,113)"/><rect x="60" y="10" width="10" height="10" fill="rgb(101,110,113)"/><rect x="70" y="10" width="10" height="10" fill="rgb(84,91,94)"/><rect x="80" y="10" width="10" height="10" fill="rgb(84,91,94)"/><rect x="90" y="10" width="10" height="10" fill="rgb(99,106,108)"/><rect x="0" y="20" width="10" height="10" fill="rgb(99,106,108)"/><rect x="10" y="20" width="10" height="10" fill="rgb(99,106,108)"/><rect x="20" y="20" width="10" height="10" fill="rgb(121,128,131)"/><rect x="30" y="20" width="10" height="10" fill="rgb(121,128,131)"/><rect x="40" y="20" width="10" height="10" fill="rgb(252,252,252)"/><rect x="50" y="20" width="10" height="10" fill="rgb(252,252,252)"/><rect x="60" y="20" width="10" height="10" fill="rgb(115,122,129)"/><rect x="70" y="20" width="10" height="10" fill="rgb(115,122,129)"/><rect x="80" y="20" width="10" height="10" fill="rgb(117,121,131)"/><rect x="90" y="20" width="10" height="10" fill="rgb(117,121,131)"/><rect x="0" y="30" width="10" height="10" fill="rgb(63,67,72)"/><rect x="10" y="30" width="10" height="10" fill="rgb(63,67,72)"/><rect x="20" y="30" width="10" height="10" fill="rgb(3,4,4)"/><rect x="30" y="30" width="10" height="10" fill="rgb(3,4,4)"/><rect x="40" y="30" width="10" height="10" fill="rgb(2,2,2)"/><rect x="50" y="30" width="10" height="10" fill="rgb(2,2,2)"/><rect x="60" y="30" width="10" height="10" fill="rgb(2,2,2)"/><rect x="70" y="30" width="10" height="10" fill="rgb(2,2,2)"/><rect x="80" y="30" width="10" height="10" fill="rgb(1,1,1)"/><rect x="90" y="30" width="10" height="10" fill="rgb(1,1,1)"/><rect x="0" y="40" width="10" height="10" fill="rgb(1,1,1)"/><rect x="10" y="40" width="10" height="10" fill="rgb(1,1,1)"/><rect x="20" y="40" width="10" height="10" fill="rgb(1,1,1)"/><rect x="30" y="40" width="10" height="10" fill="rgb(1,1,1)"/><rect x="40" y="40" width="10" height="10" fill="rgb(1,1,1)"/><rect x="50" y="40" width="10" height="10" fill="rgb(1,1,1)"/><rect x="60" y="40" width="10" height="10" fill="rgb(1,1,1)"/><rect x="70" y="40" width="10" height="10" fill="rgb(1,1,1)"/><rect x="80" y="40" width="10" height="10" fill="rgb(1,1,1)"/><rect x="90" y="40" width="10" height="10" fill="rgb(1,1,1)"/><rect x="0" y="50" width="10" height="10" fill="rgb(1,1,1)"/><rect x="10" y="50" width="10" height="10" fill="rgb(1,1,1)"/><rect x="20" y="50" width="10" height="10" fill="rgb(1,1,1)"/><rect x="30" y="50" width="10" height="10" fill="rgb(1,1,1)"/><rect x="40" y="50" width="10" height="10" fill="rgb(1,1,1)"/><rect x="50" y="50" width="10" height="10" fill="rgb(1,1,1)"/><rect x="60" y="50" width="10" height="10" fill="rgb(1,1,1)"/><rect x="70" y="50" width="10" height="10" fill="rgb(1,1,1)"/><rect x="80" y="50" width="10" height="10" fill="rgb(1,1,1)"/><rect x="90" y="50" width="10" height="10" fill="rgb(1,1,1)"/><rect x="0" y="60" width="10" height="10" fill="rgb(1,1,1)"/><rect x="10" y="60" width="10" height="10" fill="rgb(1,1,1)"/><rect x="20" y="60" width="10" height="10" fill="rgb(1,1,1)"/><rect x="30" y="60" width="10" height="10" fill="rgb(1,1,1)"/><rect x="40" y="60" width="10" height="10" fill="rgb(1,1,1)"/><rect x="50" y="60" width="10" height="10" fill="rgb(1,1,1)"/><rect x="60" y="60" width="10" height="10" fill="rgb(1,1,1)"/><rect x="70" y="60" width="10" height="10" fill="rgb(1,1,1)"/><rect x="80" y="60" width="10" height="10" fill="rgb(252,252,252)"/><rect x="90" y="60" width="10" height="10" fill="rgb(252,252,252)"/><rect x="0" y="70" width="10" height="10" fill="rgb(1,1,1)"/><rect x="10" y="70" width="10" height="10" fill="rgb(1,1,1)"/><rect x="20" y="70" width="10" height="10" fill="rgb(1,1,1)"/><rect x="30" y="70" width="10" height="10" fill="rgb(1,1,1)"/><rect x="40" y="70" width="10" height="10" fill="rgb(1,1,1)"/><rect x="50" y="70" width="10" height="10" fill="rgb(1,1,1)"/><rect x="60" y="70" width="10" height="10" fill="rgb(1,1,1)"/><rect x="70" y="70" width="10" height="10" fill="rgb(1,1,1)"/><rect x="80" y="70" width="10" height="10" fill="rgb(1,1,1)"/><rect x="90" y="70" width="10" height="10" fill="rgb(1,1,1)"/><rect x="0" y="80" width="10" height="10" fill="rgb(1,1,1)"/><rect x="10" y="80" width="10" height="10" fill="rgb(1,1,1)"/><rect x="20" y="80" width="10" height="10" fill="rgb(1,1,1)"/><rect x="30" y="80" width="10" height="10" fill="rgb(1,1,1)"/><rect x="40" y="80" width="10" height="10" fill="rgb(1,1,1)"/><rect x="50" y="80" width="10" height="10" fill="rgb(1,1,1)"/><rect x="60" y="80" width="10" height="10" fill="rgb(1,1,1)"/><rect x="70" y="80" width="10" height="10" fill="rgb(1,1,1)"/><rect x="80" y="80" width="10" height="10" fill="rgb(1,1,1)"/><rect x="90" y="80" width="10" height="10" fill="rgb(1,1,1)"/><rect x="0" y="90" width="10" height="10" fill="rgb(1,1,1)"/><rect x="10" y="90" width="10" height="10" fill="rgb(1,1,1)"/><rect x="20" y="90" width="10" height="10" fill="rgb(1,1,1)"/><rect x="30" y="90" width="10" height="10" fill="rgb(1,1,1)"/><rect x="40" y="90" width="10" height="10" fill="rgb(242,242,242)"/><rect x="50" y="90" width="10" height="10" fill="rgb(242,242,242)"/><rect x="60" y="90" width="10" height="10" fill="rgb(1,1,1)"/><rect x="70" y="90" width="10" height="10" fill="rgb(1,1,1)"/><rect x="80" y="90" width="10" height="10" fill="rgb(1,1,1)"/><rect x="90" y="90" width="10" height="10" fill="rgb(1,1,1)"/><rect x="0" y="100" width="10" height="10" fill="rgb(1,1,1)"/><rect x="10" y="100" width="10" height="10" fill="rgb(1,1,1)"/><rect x="20" y="100" width="10" height="10" fill="rgb(1,1,1)"/><rect x="30" y="100" width="10" height="10" fill="rgb(1,1,1)"/><rect x="40" y="100" width="10" height="10" fill="rgb(1,1,1)"/><rect x="50" y="100" width="10" height="10" fill="rgb(1,1,1)"/><rect x="60" y="100" width="10" height="10" fill="rgb(1,1,1)"/><rect x="70" y="100" width="10" height="10" fill="rgb(242,242,242)"/><rect x="80" y="100" width="10" height="10" fill="rgb(242,242,242)"/><rect x="90" y="100" width="10" height="10" fill="rgb(1,1,1)"/><rect x="0" y="110" width="10" height="10" fill="rgb(1,1,1)"/><rect x="10" y="110" width="10" height="10" fill="rgb(1,1,1)"/><rect x="20" y="110" width="10" height="10" fill="rgb(1,1,1)"/><rect x="30" y="110" width="10" height="10" fill="rgb(1,1,1)"/><rect x="40" y="110" width="10" height="10" fill="rgb(1,1,1)"/><rect x="50" y="110" width="10" height="10" fill="rgb(1,1,1)"/><rect x="60" y="110" width="10" height="10" fill="rgb(1,1,1)"/><rect x="70" y="110" width="10" height="10" fill="rgb(1,1,1)"/><rect x="80" y="110" width="10" height="10" fill="rgb(1,1,1)"/><rect x="90" y="110" width="10" height="10" fill="rgb(1,1,1)"/><rect x="0" y="120" width="10" height="10" fill="rgb(2,2,2)"/><rect x="10" y="120" width="10" height="10" fill="rgb(2,2,2)"/><rect x="20" y="120" width="10" height="10" fill="rgb(242,242,242)"/><rect x="30" y="120" width="10" height="10" fill="rgb(242,242,242)"/><rect x="40" y="120" width="10" height="10" fill="rgb(51,54,60)"/><rect x="50" y="120" width="10" height="10" fill="rgb(51,54,60)"/><rect x="60" y="120" width="10" height="10" fill="rgb(51,54,60)"/><rect x="70" y="120" width="10" height="10" fill="rgb(126,128,136)"/><rect x="80" y="120" width="10" height="10" fill="rgb(126,128,136)"/><rect x="90" y="120" width="10" height="10" fill="rgb(130,132,137)"/><rect x="0" y="130" width="10" height="10" fill="rgb(130,132,137)"/><rect x="10" y="130" width="10" height="10" fill="rgb(129,131,132)"/><rect x="20" y="130" width="10" height="10" fill="rgb(129,131,132)"/><rect x="30" y="130" width="10" height="10" fill="rgb(242,242,242)"/><rect x="40" y="130" width="10" height="10" fill="rgb(242,242,242)"/><rect x="50" y="130" width="10" height="10" fill="rgb(242,242,242)"/><rect x="60" y="130" width="10" height="10" fill="rgb(242,242,242)"/><rect x="70" y="130" width="10" height="10" fill="rgb(242,242,242)"/><rect x="80" y="130" width="10" height="10" fill="rgb(242,242,242)"/><rect x="90" y="130" width="10" height="10" fill="rgb(242,242,242)"/><rect x="0" y="140" width="10" height="10" fill="rgb(252,252,252)"/><rect x="10" y="140" width="10" height="10" fill="rgb(252,252,252)"/><rect x="20" y="140" width="10" height="10" fill="rgb(252,252,252)"/><rect x="30" y="140" width="10" height="10" fill="rgb(252,252,252)"/><rect x="40" y="140" width="10" height="10" fill="rgb(252,252,252)"/><rect x="50" y="140" width="10" height="10" fill="rgb(252,252,252)"/><rect x="60" y="140" width="10" height="10" fill="rgb(252,252,252)"/><rect x="70" y="140" width="10" height="10" fill="rgb(252,252,252)"/><rect x="80" y="140" width="10" height="10" fill="rgb(252,252,252)"/><rect x="90" y="140" width="10" height="10" fill="rgb(252,252,252)"/><rect x="0" y="150" width="10" height="10" fill="rgb(252,252,252)"/><rect x="10" y="150" width="10" height="10" fill="rgb(252,252,252)"/><rect x="20" y="150" width="10" height="10" fill="rgb(252,252,252)"/><rect x="30" y="150" width="10" height="10" fill="rgb(252,252,252)"/><rect x="40" y="150" width="10" height="10" fill="rgb(252,252,252)"/><rect x="50" y="150" width="10" height="10" fill="rgb(252,252,252)"/><rect x="60" y="150" width="10" height="10" fill="rgb(252,252,252)"/><rect x="70" y="150" width="10" height="10" fill="rgb(252,252,252)"/><rect x="80" y="150" width="10" height="10" fill="rgb(252,252,252)"/><rect x="90" y="150" width="10" height="10" fill="rgb(252,252,252)"/><rect x="0" y="160" width="10" height="10" fill="rgb(252,252,252)"/><rect x="10" y="160" width="10" height="10" fill="rgb(252,252,252)"/><rect x="20" y="160" width="10" height="10" fill="rgb(252,252,252)"/><rect x="30" y="160" width="10" height="10" fill="rgb(252,252,252)"/><rect x="40" y="160" width="10" height="10" fill="rgb(252,252,252)"/><rect x="50" y="160" width="10" height="10" fill="rgb(252,252,252)"/><rect x="60" y="160" width="10" height="10" fill="rgb(252,252,252)"/><rect x="70" y="160" width="10" height="10" fill="rgb(252,252,252)"/><rect x="80" y="160" width="10" height="10" fill="rgb(252,252,252)"/><rect x="90" y="160" width="10" height="10" fill="rgb(252,252,252)"/><rect x="0" y="170" width="10" height="10" fill="rgb(252,252,252)"/><rect x="10" y="170" width="10" height="10" fill="rgb(252,252,252)"/><rect x="20" y="170" width="10" height="10" fill="rgb(252,252,252)"/><rect x="30" y="170" width="10" height="10" fill="rgb(252,252,252)"/><rect x="40" y="170" width="10" height="10" fill="rgb(252,252,252)"/><rect x="50" y="170" width="10" height="10" fill="rgb(252,252,252)"/><rect x="60" y="170" width="10" height="10" fill="rgb(252,252,252)"/><rect x="70" y="170" width="10" height="10" fill="rgb(252,252,252)"/><rect x="80" y="170" width="10" height="10" fill="rgb(252,252,252)"/><rect x="90" y="170" width="10" height="10" fill="rgb(252,252,252)"/><rect x="0" y="180" width="10" height="10" fill="rgb(252,252,252)"/><rect x="10" y="180" width="10" height="10" fill="rgb(252,252,252)"/><rect x="20" y="180" width="10" height="10" fill="rgb(252,252,252)"/><rect x="30" y="180" width="10" height="10" fill="rgb(252,252,252)"/><rect x="40" y="180" width="10" height="10" fill="rgb(252,252,252)"/><rect x="50" y="180" width="10" height="10" fill="rgb(252,252,252)"/><rect x="60" y="180" width="10" height="10" fill="rgb(252,252,252)"/><rect x="70" y="180" width="10" height="10" fill="rgb(252,252,252)"/><rect x="80" y="180" width="10" height="10" fill="rgb(252,252,252)"/><rect x="90" y="180" width="10" height="10" fill="rgb(252,252,252)"/><rect x="0" y="190" width="10" height="10" fill="rgb(252,252,252)"/><rect x="10" y="190" width="10" height="10" fill="rgb(252,252,252)"/><rect x="20" y="190" width="10" height="10" fill="rgb(252,252,252)"/><rect x="30" y="190" width="10" height="10" fill="rgb(252,252,252)"/><rect x="40" y="190" width="10" height="10" fill="rgb(252,252,252)"/><rect x="50" y="190" width="10" height="10" fill="rgb(252,252,252)"/><rect x="60" y="190" width="10" height="10" fill="rgb(252,252,252)"/><rect x="70" y="190" width="10" height="10" fill="rgb(252,252,252)"/><rect x="80" y="190" width="10" height="10" fill="rgb(252,252,252)"/><rect x="90" y="190" width="10" height="10" fill="rgb(252,252,252)"/><rect x="0" y="200" width="10" height="10" fill="rgb(252,252,252)"/><rect x="10" y="200" width="10" height="10" fill="rgb(252,252,252)"/><rect x="20" y="200" width="10" height="10" fill="rgb(252,252,252)"/><rect x="30" y="200" width="10" height="10" fill="rgb(252,252,252)"/><rect x="40" y="200" width="10" height="10" fill="rgb(252,252,252)"/><rect x="50" y="200" width="10" height="10" fill="rgb(252,252,252)"/><rect x="60" y="200" width="10" height="10" fill="rgb(252,252,252)"/><rect x="70" y="200" width="10" height="10" fill="rgb(252,252,252)"/><rect x="80" y="200" width="10" height="10" fill="rgb(252,252,252)"/><rect x="90" y="200" width="10" height="10" fill="rgb(252,252,252)"/><rect x="0" y="210" width="10" height="10" fill="rgb(252,252,252)"/><rect x="10" y="210" width="10" height="10" fill="rgb(252,252,252)"/><rect x="20" y="210" width="10" height="10" fill="rgb(252,252,252)"/><rect x="30" y="210" width="10" height="10" fill="rgb(252,252,252)"/><rect x="40" y="210" width="10" height="10" fill="rgb(252,252,252)"/><rect x="50" y="210" width="10" height="10" fill="rgb(252,252,252)"/><rect x="60" y="210" width="10" height="10" fill="rgb(252,252,252)"/><rect x="70" y="210" width="10" height="10" fill="rgb(115,120,121)"/><rect x="80" y="210" width="10" height="10" fill="rgb(115,120,121)"/><rect x="90" y="210" width="10" height="10" fill="rgb(109,117,120)"/><rect x="0" y="220" width="10" height="10" fill="rgb(109,117,120)"/><rect x="10" y="220" width="10" height="10" fill="rgb(97,118,134)"/><rect x="20" y="220" width="10" height="10" fill="rgb(97,118,134)"/><rect x="30" y="220" width="10" height="10" fill="rgb(155,171,182)"/><rect x="40" y="220" width="10" height="10" fill="rgb(155,171,182)"/><rect x="50" y="220" width="10" height="10" fill="rgb(120,124,124)"/><rect x="60" y="220" width="10" height="10" fill="rgb(120,124,124)"/><rect x="70" y="220" width="10" height="10" fill="rgb(123,127,126)"/><rect x="80" y="220" width="10" height="10" fill="rgb(123,127,126)"/><rect x="90" y="220" width="10" height="10" fill="rgb(123,127,126)"/><rect x="0" y="230" width="10" height="10" fill="rgb(123,127,126)"/><rect x="10" y="230" width="10" height="10" fill="rgb(252,252,252)"/><rect x="20" y="230" width="10" height="10" fill="rgb(252,252,252)"/><rect x="30" y="230" width="10" height="10" fill="rgb(128,130,128)"/><rect x="40" y="230" width="10" height="10" fill="rgb(128,130,128)"/><rect x="50" y="230" width="10" height="10" fill="rgb(128,130,128)"/><rect x="60" y="230" width="10" height="10" fill="rgb(242,242,242)"/><rect x="70" y="230" width="10" height="10" fill="rgb(242,242,242)"/><rect x="80" y="230" width="10" height="10" fill="rgb(119,121,120)"/><rect x="90" y="230" width="10" height="10" fill="rgb(119,121,120)"/><rect x="0" y="240" width="10" height="10" fill="rgb(122,124,123)"/><rect x="10" y="240" width="10" height="10" fill="rgb(122,124,123)"/><rect x="20" y="240" width="10" height="10" fill="rgb(117,120,119)"/><rect x="30" y="240" width="10" height="10" fill="rgb(117,120,119)"/><rect x="40" y="240" width="10" height="10" fill="rgb(117,121,121)"/><rect x="50" y="240" width="10" height="10" fill="rgb(117,121,121)"/><rect x="60" y="240" width="10" height="10" fill="rgb(117,121,121)"/><rect x="70" y="240" width="10" height="10" fill="rgb(125,129,128)"/><rect x="80" y="240" width="10" height="10" fill="rgb(125,129,128)"/><rect x="90" y="240" width="10" height="10" fill="rgb(123,126,125)"/><rect x="0" y="250" width="10" height="10" fill="rgb(123,126,125)"/><rect x="10" y="250" width="10" height="10" fill="rgb(252,252,252)"/><rect x="20" y="250" width="10" height="10" fill="rgb(252,252,252)"/><rect x="30" y="250" width="10" height="10" fill="rgb(124,127,126)"/><rect x="40" y="250" width="10" height="10" fill="rgb(124,127,126)"/><rect x="50" y="250" width="10" height="10" fill="rgb(124,127,126)"/><rect x="60" y="250" width="10" height="10" fill="rgb(140,148,152)"/><rect x="70" y="250" width="10" height="10" fill="rgb(124,127,125)"/><rect x="80" y="250" width="10" height="10" fill="rgb(124,127,125)"/><rect x="90" y="250" width="10" height="10" fill="rgb(118,121,120)"/><rect x="0" y="260" width="10" height="10" fill="rgb(118,121,120)"/><rect x="10" y="260" width="10" height="10" fill="rgb(121,124,123)"/><rect x="20" y="260" width="10" height="10" fill="rgb(121,124,123)"/><rect x="30" y="260" width="10" height="10" fill="rgb(122,124,123)"/><rect x="40" y="260" width="10" height="10" fill="rgb(122,124,123)"/><rect x="50" y="260" width="10" height="10" fill="rgb(242,242,242)"/><rect x="60" y="260" width="10" height="10" fill="rgb(242,242,242)"/><rect x="70" y="260" width="10" height="10" fill="rgb(115,118,118)"/><rect x="80" y="260" width="10" height="10" fill="rgb(115,118,118)"/><rect x="90" y="260" width="10" height="10" fill="rgb(115,118,118)"/><rect x="0" y="270" width="10" height="10" fill="rgb(116,120,120)"/><rect x="10" y="270" width="10" height="10" fill="rgb(116,120,120)"/><rect x="20" y="270" width="10" height="10" fill="rgb(122,126,125)"/><rect x="30" y="270" width="10" height="10" fill="rgb(122,126,125)"/><rect x="40" y="270" width="10" height="10" fill="rgb(127,131,131)"/><rect x="50" y="270" width="10" height="10" fill="rgb(127,131,131)"/><rect x="60" y="270" width="10" height="10" fill="rgb(115,124,129)"/><rect x="70" y="270" width="10" height="10" fill="rgb(115,124,129)"/><rect x="80" y="270" width="10" height="10" fill="rgb(115,127,135)"/><rect x="90" y="270" width="10" height="10" fill="rgb(115,127,135)"/><rect x="0" y="280" width="10" height="10" fill="rgb(135,145,151)"/><rect x="10" y="280" width="10" height="10" fill="rgb(135,145,151)"/><rect x="20" y="280" width="10" height="10" fill="rgb(135,145,151)"/><rect x="30" y="280" width="10" height="10" fill="rgb(131,143,151)"/><rect x="40" y="280" width="10" height="10" fill="rgb(131,143,151)"/><rect x="50" y="280" width="10" height="10" fill="rgb(141,149,153)"/><rect x="60" y="280" width="10" height="10" fill="rgb(141,149,153)"/><rect x="70" y="280" width="10" height="10" fill="rgb(142,147,147)"/><rect x="80" y="280" width="10" height="10" fill="rgb(142,147,147)"/><rect x="90" y="280" width="10" height="10" fill="rgb(114,124,130)"/><rect x="0" y="290" width="10" height="10" fill="rgb(114,124,130)"/><rect x="10" y="290" width="10" height="10" fill="rgb(100,111,117)"/><rect x="20" y="290" width="10" height="10" fill="rgb(100,111,117)"/><rect x="30" y="290" width="10" height="10" fill="rgb(90,101,107)"/><rect x="40" y="290" width="10" height="10" fill="rgb(90,101,107)"/><rect x="50" y="290" width="10" height="10" fill="rgb(87,98,102)"/><rect x="60" y="290" width="10" height="10" fill="rgb(87,98,102)"/><rect x="70" y="290" width="10" height="10" fill="rgb(132,143,149)"/><rect x="80" y="290" width="10" height="10" fill="rgb(132,143,149)"/><rect x="90" y="290" width="10" height="10" fill="rgb(127,137,142)"/><rect x="0" y="300" width="10" height="10" fill="rgb(127,137,142)"/><rect x="10" y="300" width="10" height="10" fill="rgb(117,127,132)"/><rect x="20" y="300" width="10" height="10" fill="rgb(117,127,132)"/><rect x="30" y="300" width="10" height="10" fill="rgb(106,115,119)"/><rect x="40" y="300" width="10" height="10" fill="rgb(106,115,119)"/><rect x="50" y="300" width="10" height="10" fill="rgb(106,115,119)"/><rect x="60" y="300" width="10" height="10" fill="rgb(91,99,102)"/><rect x="70" y="300" width="10" height="10" fill="rgb(91,99,102)"/><rect x="80" y="300" width="10" height="10" fill="rgb(112,120,122)"/><rect x="90" y="300" width="10" height="10" fill="rgb(112,120,122)"/><rect x="0" y="310" width="10" height="10" fill="rgb(122,129,132)"/><rect x="10" y="310" width="10" height="10" fill="rgb(122,129,132)"/><rect x="20" y="310" width="10" height="10" fill="rgb(112,119,121)"/><rect x="30" y="310" width="10" height="10" fill="rgb(112,119,121)"/><rect x="40" y="310" width="10" height="10" fill="rgb(114,120,122)"/><rect x="50" y="310" width="10" height="10" fill="rgb(114,120,122)"/><rect x="60" y="310" width="10" height="10" fill="rgb(117,123,124)"/><rect x="70" y="310" width="10" height="10" fill="rgb(117,123,124)"/><rect x="80" y="310" width="10" height="10" fill="rgb(87,91,93)"/><rect x="90" y="310" width="10" height="10" fill="rgb(87,91,93)"/><rect x="0" y="320" width="10" height="10" fill="rgb(87,91,93)"/><rect x="10" y="320" width="10" height="10" fill="rgb(24,28,29)"/><rect x="20" y="320" width="10" height="10" fill="rgb(24,28,29)"/><rect x="30" y="320" width="10" height="10" fill="rgb(7,8,8)"/><rect x="40" y="320" width="10" height="10" fill="rgb(7,8,8)"/><rect x="50" y="320" width="10" height="10" fill="rgb(4,4,4)"/><rect x="60" y="320" width="10" height="10" fill="rgb(4,4,4)"/><rect x="70" y="320" width="10" height="10" fill="rgb(252,252,252)"/><rect x="80" y="320" width="10" height="10" fill="rgb(252,252,252)"/><rect x="90" y="320" width="10" height="10" fill="rgb(3,3,3)"/><rect x="0" y="330" width="10" height="10" fill="rgb(3,3,3)"/><rect x="10" y="330" width="10" height="10" fill="rgb(252,252,252)"/><rect x="20" y="330" width="10" height="10" fill="rgb(252,252,252)"/><rect x="30" y="330" width="10" height="10" fill="rgb(3,3,3)"/><rect x="40" y="330" width="10" height="10" fill="rgb(3,3,3)"/><rect x="50" y="330" width="10" height="10" fill="rgb(2,2,2)"/><rect x="60" y="330" width="10" height="10" fill="rgb(2,2,2)"/><rect x="70" y="330" width="10" height="10" fill="rgb(2,2,2)"/><rect x="80" y="330" width="10" height="10" fill="rgb(2,2,2)"/><rect x="90" y="330" width="10" height="10" fill="rgb(2,2,2)"/><rect x="0" y="340" width="10" height="10" fill="rgb(2,2,2)"/><rect x="10" y="340" width="10" height="10" fill="rgb(2,2,2)"/><rect x="20" y="340" width="10" height="10" fill="rgb(2,2,2)"/><rect x="30" y="340" width="10" height="10" fill="rgb(2,2,2)"/><rect x="40" y="340" width="10" height="10" fill="rgb(2,2,2)"/><rect x="50" y="340" width="10" height="10" fill="rgb(2,2,2)"/><rect x="60" y="340" width="10" height="10" fill="rgb(2,2,2)"/><rect x="70" y="340" width="10" height="10" fill="rgb(2,2,2)"/><rect x="80" y="340" width="10" height="10" fill="rgb(2,2,2)"/><rect x="90" y="340" width="10" height="10" fill="rgb(2,2,2)"/><rect x="0" y="350" width="10" height="10" fill="rgb(2,2,2)"/><rect x="10" y="350" width="10" height="10" fill="rgb(2,2,2)"/><rect x="20" y="350" width="10" height="10" fill="rgb(2,2,2)"/><rect x="30" y="350" width="10" height="10" fill="rgb(2,2,2)"/><rect x="40" y="350" width="10" height="10" fill="rgb(2,2,2)"/><rect x="50" y="350" width="10" height="10" fill="rgb(2,2,2)"/><rect x="60" y="350" width="10" height="10" fill="rgb(2,2,2)"/><rect x="70" y="350" width="10" height="10" fill="rgb(2,2,2)"/><rect x="80" y="350" width="10" height="10" fill="rgb(2,2,2)"/><rect x="90" y="350" width="10" height="10" fill="rgb(2,2,2)"/><rect x="0" y="360" width="10" height="10" fill="rgb(2,2,2)"/><rect x="10" y="360" width="10" height="10" fill="rgb(2,2,2)"/><rect x="20" y="360" width="10" height="10" fill="rgb(2,2,2)"/><rect x="30" y="360" width="10" height="10" fill="rgb(1,1,1)"/><rect x="40" y="360" width="10" height="10" fill="rgb(1,1,1)"/><rect x="50" y="360" width="10" height="10" fill="rgb(1,1,1)"/><rect x="60" y="360" width="10" height="10" fill="rgb(1,1,1)"/><rect x="70" y="360" width="10" height="10" fill="rgb(1,1,1)"/><rect x="80" y="360" width="10" height="10" fill="rgb(1,1,1)"/><rect x="90" y="360" width="10" height="10" fill="rgb(1,1,1)"/><rect x="0" y="370" width="10" height="10" fill="rgb(1,1,1)"/><rect x="10" y="370" width="10" height="10" fill="rgb(1,1,1)"/><rect x="20" y="370" width="10" height="10" fill="rgb(1,1,1)"/><rect x="30" y="370" width="10" height="10" fill="rgb(1,1,1)"/><rect x="40" y="370" width="10" height="10" fill="rgb(1,1,1)"/><rect x="50" y="370" width="10" height="10" fill="rgb(1,1,1)"/><rect x="60" y="370" width="10" height="10" fill="rgb(1,1,1)"/><rect x="70" y="370" width="10" height="10" fill="rgb(1,1,1)"/><rect x="80" y="370" width="10" height="10" fill="rgb(1,1,1)"/><rect x="90" y="370" width="10" height="10" fill="rgb(1,1,1)"/><rect x="0" y="380" width="10" height="10" fill="rgb(1,1,1)"/><rect x="10" y="380" width="10" height="10" fill="rgb(1,1,1)"/><rect x="20" y="380" width="10" height="10" fill="rgb(1,1,1)"/><rect x="30" y="380" width="10" height="10" fill="rgb(1,1,1)"/><rect x="40" y="380" width="10" height="10" fill="rgb(1,1,1)"/><rect x="50" y="380" width="10" height="10" fill="rgb(1,1,1)"/><rect x="60" y="380" width="10" height="10" fill="rgb(1,1,1)"/><rect x="70" y="380" width="10" height="10" fill="rgb(1,1,1)"/><rect x="80" y="380" width="10" height="10" fill="rgb(1,1,1)"/><rect x="90" y="380" width="10" height="10" fill="rgb(1,1,1)"/><rect x="0" y="390" width="10" height="10" fill="rgb(1,1,1)"/><rect x="10" y="390" width="10" height="10" fill="rgb(1,1,1)"/><rect x="20" y="390" width="10" height="10" fill="rgb(1,1,1)"/><rect x="30" y="390" width="10" height="10" fill="rgb(1,1,1)"/><rect x="40" y="390" width="10" height="10" fill="rgb(1,1,1)"/><rect x="50" y="390" width="10" height="10" fill="rgb(1,1,1)"/><rect x="60" y="390" width="10" height="10" fill="rgb(1,1,1)"/><rect x="70" y="390" width="10" height="10" fill="rgb(1,1,1)"/><rect x="80" y="390" width="10" height="10" fill="rgb(1,1,1)"/><rect x="90" y="390" width="10" height="10" fill="rgb(1,1,1)"/><rect x="0" y="400" width="10" height="10" fill="rgb(1,1,1)"/><rect x="10" y="400" width="10" height="10" fill="rgb(1,1,1)"/><rect x="20" y="400" width="10" height="10" fill="rgb(1,1,1)"/><rect x="30" y="400" width="10" height="10" fill="rgb(1,1,1)"/><rect x="40" y="400" width="10" height="10" fill="rgb(1,1,1)"/><rect x="50" y="400" width="10" height="10" fill="rgb(1,1,1)"/><rect x="60" y="400" width="10" height="10" fill="rgb(1,1,1)"/><rect x="70" y="400" width="10" height="10" fill="rgb(1,1,1)"/><rect x="80" y="400" width="10" height="10" fill="rgb(1,1,1)"/><rect x="90" y="400" width="10" height="10" fill="rgb(1,1,1)"/><rect x="0" y="410" width="10" height="10" fill="rgb(1,1,1)"/><rect x="10" y="410" width="10" height="10" fill="rgb(2,3,3)"/><rect x="20" y="410" width="10" height="10" fill="rgb(2,3,3)"/><rect x="30" y="410" width="10" height="10" fill="rgb(252,252,252)"/><rect x="40" y="410" width="10" height="10" fill="rgb(252,252,252)"/><rect x="50" y="410" width="10" height="10" fill="rgb(120,122,125)"/><rect x="60" y="410" width="10" height="10" fill="rgb(120,122,125)"/><rect x="70" y="410" width="10" height="10" fill="rgb(124,127,127)"/><rect x="80" y="410" width="10" height="10" fill="rgb(124,127,127)"/><rect x="90" y="410" width="10" height="10" fill="rgb(121,128,130)"/><rect x="0" y="420" width="10" height="10" fill="rgb(121,128,130)"/><rect x="10" y="420" width="10" height="10" fill="rgb(123,130,131)"/><rect x="20" y="420" width="10" height="10" fill="rgb(123,130,131)"/><rect x="30" y="420" width="10" height="10" fill="rgb(124,131,133)"/><rect x="40" y="420" width="10" height="10" fill="rgb(124,131,133)"/><rect x="50" y="420" width="10" height="10" fill="rgb(124,131,133)"/><rect x="60" y="420" width="10" height="10" fill="rgb(125,133,135)"/><rect x="70" y="420" width="10" height="10" fill="rgb(125,133,135)"/><rect x="80" y="420" width="10" height="10" fill="rgb(126,132,134)"/><rect x="90" y="420" width="10" height="10" fill="rgb(126,132,134)"/><rect x="0" y="430" width="10" height="10" fill="rgb(144,152,155)"/><rect x="10" y="430" width="10" height="10" fill="rgb(144,152,155)"/><rect x="20" y="430" width="10" height="10" fill="rgb(121,129,132)"/><rect x="30" y="430" width="10" height="10" fill="rgb(121,129,132)"/><rect x="40" y="430" width="10" height="10" fill="rgb(252,252,252)"/><rect x="50" y="430" width="10" height="10" fill="rgb(252,252,252)"/><rect x="60" y="430" width="10" height="10" fill="rgb(132,143,149)"/><rect x="70" y="430" width="10" height="10" fill="rgb(132,143,149)"/><rect x="80" y="430" width="10" height="10" fill="rgb(136,148,154)"/><rect x="90" y="430" width="10" height="10" fill="rgb(136,148,154)"/><rect x="0" y="440" width="10" height="10" fill="rgb(252,252,252)"/><rect x="10" y="440" width="10" height="10" fill="rgb(252,252,252)"/><rect x="20" y="440" width="10" height="10" fill="rgb(252,252,252)"/><rect x="30" y="440" width="10" height="10" fill="rgb(141,155,163)"/><rect x="40" y="440" width="10" height="10" fill="rgb(141,155,163)"/><rect x="50" y="440" width="10" height="10" fill="rgb(143,159,168)"/><rect x="60" y="440" width="10" height="10" fill="rgb(143,159,168)"/><rect x="70" y="440" width="10" height="10" fill="rgb(144,160,170)"/><rect x="80" y="440" width="10" height="10" fill="rgb(144,160,170)"/><rect x="90" y="440" width="10" height="10" fill="rgb(144,161,172)"/><rect x="0" y="450" width="10" height="10" fill="rgb(144,161,172)"/><rect x="10" y="450" width="10" height="10" fill="rgb(144,161,172)"/><rect x="20" y="450" width="10" height="10" fill="rgb(145,163,174)"/><rect x="30" y="450" width="10" height="10" fill="rgb(145,163,174)"/><rect x="40" y="450" width="10" height="10" fill="rgb(145,164,176)"/><rect x="50" y="450" width="10" height="10" fill="rgb(145,164,176)"/><rect x="60" y="450" width="10" height="10" fill="rgb(146,164,177)"/><rect x="70" y="450" width="10" height="10" fill="rgb(146,164,177)"/><rect x="80" y="450" width="10" height="10" fill="rgb(145,165,178)"/><rect x="90" y="450" width="10" height="10" fill="rgb(145,165,178)"/><rect x="0" y="460" width="10" height="10" fill="rgb(145,165,178)"/><rect x="10" y="460" width="10" height="10" fill="rgb(144,164,179)"/><rect x="20" y="460" width="10" height="10" fill="rgb(144,164,179)"/><rect x="30" y="460" width="10" height="10" fill="rgb(144,165,180)"/><rect x="40" y="460" width="10" height="10" fill="rgb(144,165,180)"/><rect x="50" y="460" width="10" height="10" fill="rgb(144,166,183)"/><rect x="60" y="460" width="10" height="10" fill="rgb(144,166,183)"/><rect x="70" y="460" width="10" height="10" fill="rgb(144,167,183)"/><rect x="80" y="460" width="10" height="10" fill="rgb(144,167,183)"/><rect x="90" y="460" width="10" height="10" fill="rgb(144,167,185)"/><rect x="0" y="470" width="10" height="10" fill="rgb(144,167,185)"/><rect x="10" y="470" width="10" height="10" fill="rgb(143,167,185)"/><rect x="20" y="470" width="10" height="10" fill="rgb(143,167,185)"/><rect x="30" y="470" width="10" height="10" fill="rgb(142,167,185)"/><rect x="40" y="470" width="10" height="10" fill="rgb(142,167,185)"/><rect x="50" y="470" width="10" height="10" fill="rgb(142,167,185)"/><rect x="60" y="470" width="10" height="10" fill="rgb(142,166,185)"/><rect x="70" y="470" width="10" height="10" fill="rgb(142,166,185)"/><rect x="80" y="470" width="10" height="10" fill="rgb(141,167,186)"/><rect x="90" y="470" width="10" height="10" fill="rgb(141,167,186)"/><rect x="0" y="480" width="10" height="10" fill="rgb(140,166,186)"/><rect x="10" y="480" width="10" height="10" fill="rgb(140,166,186)"/><rect x="20" y="480" width="10" height="10" fill="rgb(139,166,186)"/><rect x="30" y="480" width="10" height="10" fill="rgb(139,166,186)"/><rect x="40" y="480" width="10" height="10" fill="rgb(139,166,186)"/><rect x="50" y="480" width="10" height="10" fill="rgb(139,166,186)"/><rect x="60" y="480" width="10" height="10" fill="rgb(138,165,186)"/><rect x="70" y="480" width="10" height="10" fill="rgb(138,165,186)"/><rect x="80" y="480" width="10" height="10" fill="rgb(138,165,186)"/><rect x="90" y="480" width="10" height="10" fill="rgb(137,165,186)"/><rect x="0" y="490" width="10" height="10" fill="rgb(137,165,186)"/><rect x="10" y="490" width="10" height="10" fill="rgb(137,164,186)"/><rect x="20" y="490" width="10" height="10" fill="rgb(137,164,186)"/><rect x="30" y="490" width="10" height="10" fill="rgb(136,164,186)"/><rect x="40" y="490" width="10" height="10" fill="rgb(136,164,186)"/><rect x="50" y="490" width="10" height="10" fill="rgb(136,164,186)"/><rect x="60" y="490" width="10" height="10" fill="rgb(136,164,186)"/><rect x="70" y="490" width="10" height="10" fill="rgb(136,164,186)"/><rect x="80" y="490" width="10" height="10" fill="rgb(136,164,186)"/><rect x="90" y="490" width="10" height="10" fill="rgb(136,164,186)"/><rect x="0" y="500" width="10" height="10" fill="rgb(136,164,186)"/><rect x="10" y="500" width="10" height="10" fill="rgb(136,164,186)"/><rect x="20" y="500" width="10" height="10" fill="rgb(136,164,186)"/><rect x="30" y="500" width="10" height="10" fill="rgb(138,166,188)"/><rect x="40" y="500" width="10" height="10" fill="rgb(138,166,188)"/><rect x="50" y="500" width="10" height="10" fill="rgb(138,166,188)"/><rect x="60" y="500" width="10" height="10" fill="rgb(138,166,188)"/><rect x="70" y="500" width="10" height="10" fill="rgb(138,166,189)"/><rect x="80" y="500" width="10" height="10" fill="rgb(138,166,189)"/><rect x="90" y="500" width="10" height="10" fill="rgb(138,166,189)"/><rect x="0" y="510" width="10" height="10" fill="rgb(138,166,189)"/><rect x="10" y="510" width="10" height="10" fill="rgb(138,166,189)"/><rect x="20" y="510" width="10" height="10" fill="rgb(138,166,189)"/><rect x="30" y="510" width="10" height="10" fill="rgb(138,166,189)"/><rect x="40" y="510" width="10" height="10" fill="rgb(138,166,189)"/><rect x="50" y="510" width="10" height="10" fill="rgb(138,167,189)"/><rect x="60" y="510" width="10" height="10" fill="rgb(138,167,189)"/><rect x="70" y="510" width="10" height="10" fill="rgb(139,167,189)"/><rect x="80" y="510" width="10" height="10" fill="rgb(139,167,189)"/><rect x="90" y="510" width="10" height="10" fill="rgb(139,167,189)"/><rect x="0" y="520" width="10" height="10" fill="rgb(139,166,188)"/><rect x="10" y="520" width="10" height="10" fill="rgb(139,166,188)"/><rect x="20" y="520" width="10" height="10" fill="rgb(140,167,189)"/><rect x="30" y="520" width="10" height="10" fill="rgb(140,167,189)"/><rect x="40" y="520" width="10" height="10" fill="rgb(140,168,190)"/><rect x="50" y="520" width="10" height="10" fill="rgb(140,168,190)"/><rect x="60" y="520" width="10" height="10" fill="rgb(141,167,189)"/><rect x="70" y="520" width="10" height="10" fill="rgb(141,167,189)"/><rect x="80" y="520" width="10" height="10" fill="rgb(142,168,190)"/><rect x="90" y="520" width="10" height="10" fill="rgb(142,168,190)"/><rect x="0" y="530" width="10" height="10" fill="rgb(144,170,191)"/><rect x="10" y="530" width="10" height="10" fill="rgb(144,170,191)"/><rect x="20" y="530" width="10" height="10" fill="rgb(145,171,192)"/><rect x="30" y="530" width="10" height="10" fill="rgb(145,171,192)"/><rect x="40" y="530" width="10" height="10" fill="rgb(146,171,192)"/><rect x="50" y="530" width="10" height="10" fill="rgb(146,171,192)"/><rect x="60" y="530" width="10" height="10" fill="rgb(146,171,192)"/><rect x="70" y="530" width="10" height="10" fill="rgb(146,171,192)"/><rect x="80" y="530" width="10" height="10" fill="rgb(146,171,192)"/><rect x="90" y="530" width="10" height="10" fill="rgb(147,172,191)"/><rect x="0" y="540" width="10" height="10" fill="rgb(147,172,191)"/><rect x="10" y="540" width="10" height="10" fill="rgb(149,173,193)"/><rect x="20" y="540" width="10" height="10" fill="rgb(149,173,193)"/><rect x="30" y="540" width="10" height="10" fill="rgb(149,173,192)"/><rect x="40" y="540" width="10" height="10" fill="rgb(149,173,192)"/><rect x="50" y="540" width="10" height="10" fill="rgb(153,176,194)"/><rect x="60" y="540" width="10" height="10" fill="rgb(153,176,194)"/><rect x="70" y="540" width="10" height="10" fill="rgb(154,177,194)"/><rect x="80" y="540" width="10" height="10" fill="rgb(154,177,194)"/><rect x="90" y="540" width="10" height="10" fill="rgb(155,177,194)"/><rect x="0" y="550" width="10" height="10" fill="rgb(155,177,194)"/><rect x="10" y="550" width="10" height="10" fill="rgb(155,177,194)"/><rect x="20" y="550" width="10" height="10" fill="rgb(156,177,194)"/><rect x="30" y="550" width="10" height="10" fill="rgb(156,177,194)"/><rect x="40" y="550" width="10" height="10" fill="rgb(157,177,194)"/><rect x="50" y="550" width="10" height="10" fill="rgb(157,177,194)"/><rect x="60" y="550" width="10" height="10" fill="rgb(158,178,193)"/><rect x="70" y="550" width="10" height="10" fill="rgb(158,178,193)"/><rect x="80" y="550" width="10" height="10" fill="rgb(158,178,193)"/><rect x="90" y="550" width="10" height="10" fill="rgb(158,178,193)"/><rect x="0" y="560" width="10" height="10" fill="rgb(158,178,193)"/><rect x="10" y="560" width="10" height="10" fill="rgb(159,178,192)"/><rect x="20" y="560" width="10" height="10" fill="rgb(159,178,192)"/><rect x="30" y="560" width="10" height="10" fill="rgb(159,178,192)"/><rect x="40" y="560" width="10" height="10" fill="rgb(159,178,192)"/><rect x="50" y="560" width="10" height="10" fill="rgb(161,178,191)"/><rect x="60" y="560" width="10" height="10" fill="rgb(161,178,191)"/><rect x="70" y="560" width="10" height="10" fill="rgb(162,178,190)"/><rect x="80" y="560" width="10" height="10" fill="rgb(162,178,190)"/><rect x="90" y="560" width="10" height="10" fill="rgb(162,178,189)"/><rect x="0" y="570" width="10" height="10" fill="rgb(162,178,189)"/><rect x="10" y="570" width="10" height="10" fill="rgb(162,178,189)"/><rect x="20" y="570" width="10" height="10" fill="rgb(162,177,187)"/><rect x="30" y="570" width="10" height="10" fill="rgb(162,177,187)"/><rect x="40" y="570" width="10" height="10" fill="rgb(162,176,185)"/><rect x="50" y="570" width="10" height="10" fill="rgb(162,176,185)"/><rect x="60" y="570" width="10" height="10" fill="rgb(160,174,183)"/><rect x="70" y="570" width="10" height="10" fill="rgb(160,174,183)"/><rect x="80" y="570" width="10" height="10" fill="rgb(159,172,180)"/><rect x="90" y="570" width="10" height="10" fill="rgb(159,172,180)"/><rect x="0" y="580" width="10" height="10" fill="rgb(252,252,252)"/><rect x="10" y="580" width="10" height="10" fill="rgb(252,252,252)"/><rect x="20" y="580" width="10" height="10" fill="rgb(152,164,171)"/><rect x="30" y="580" width="10" height="10" fill="rgb(152,164,171)"/><rect x="40" y="580" width="10" height="10" fill="rgb(152,164,171)"/><rect x="50" y="580" width="10" height="10" fill="rgb(148,159,164)"/><rect x="60" y="580" width="10" height="10" fill="rgb(148,159,164)"/><rect x="70" y="580" width="10" height="10" fill="rgb(92,100,104)"/><rect x="80" y="580" width="10" height="10" fill="rgb(92,100,104)"/><rect x="90" y="580" width="10" height="10" fill="rgb(81,88,91)"/><rect x="0" y="590" width="10" height="10" fill="rgb(81,88,91)"/><rect x="10" y="590" width="10" height="10" fill="rgb(73,79,82)"/><rect x="20" y="590" width="10" height="10" fill="rgb(73,79,82)"/><rect x="30" y="590" width="10" height="10" fill="rgb(73,79,82)"/><rect x="40" y="590" width="10" height="10" fill="rgb(125,133,136)"/><rect x="50" y="590" width="10" height="10" fill="rgb(125,133,136)"/><rect x="60" y="590" width="10" height="10" fill="rgb(99,107,109)"/><rect x="70" y="590" width="10" height="10" fill="rgb(99,107,109)"/><rect x="80" y="590" width="10" height="10" fill="rgb(120,128,130)"/><rect x="90" y="590" width="10" height="10" fill="rgb(120,128,130)"/><rect x="0" y="600" width="10" height="10" fill="rgb(121,128,130)"/><rect x="10" y="600" width="10" height="10" fill="rgb(121,128,130)"/><rect x="20" y="600" width="10" height="10" fill="rgb(121,128,130)"/><rect x="30" y="600" width="10" height="10" fill="rgb(117,123,125)"/><rect x="40" y="600" width="10" height="10" fill="rgb(117,123,125)"/><rect x="50" y="600" width="10" height="10" fill="rgb(118,125,127)"/><rect x="60" y="600" width="10" height="10" fill="rgb(118,125,127)"/><rect x="70" y="600" width="10" height="10" fill="rgb(252,252,252)"/><rect x="80" y="600" width="10" height="10" fill="rgb(252,252,252)"/><rect x="90" y="600" width="10" height="10" fill="rgb(8,8,8)"/><rect x="0" y="610" width="10" height="10" fill="rgb(8,8,8)"/><rect x="10" y="610" width="10" height="10" fill="rgb(4,4,4)"/><rect x="20" y="610" width="10" height="10" fill="rgb(4,4,4)"/><rect x="30" y="610" width="10" height="10" fill="rgb(4,4,4)"/><rect x="40" y="610" width="10" height="10" fill="rgb(4,4,4)"/><rect x="50" y="610" width="10" height="10" fill="rgb(4,4,4)"/><rect x="60" y="610" width="10" height="10" fill="rgb(4,4,4)"/><rect x="70" y="610" width="10" height="10" fill="rgb(4,4,4)"/><rect x="80" y="610" width="10" height="10" fill="rgb(4,4,4)"/><rect x="90" y="610" width="10" height="10" fill="rgb(4,4,4)"/><rect x="0" y="620" width="10" height="10" fill="rgb(4,4,4)"/><rect x="10" y="620" width="10" height="10" fill="rgb(4,4,4)"/><rect x="20" y="620" width="10" height="10" fill="rgb(252,252,252)"/><rect x="30" y="620" width="10" height="10" fill="rgb(252,252,252)"/><rect x="40" y="620" width="10" height="10" fill="rgb(3,3,3)"/><rect x="50" y="620" width="10" height="10" fill="rgb(3,3,3)"/><rect x="60" y="620" width="10" height="10" fill="rgb(3,3,3)"/><rect x="70" y="620" width="10" height="10" fill="rgb(3,3,3)"/><rect x="80" y="620" width="10" height="10" fill="rgb(3,3,3)"/><rect x="90" y="620" width="10" height="10" fill="rgb(3,3,3)"/><rect x="0" y="630" width="10" height="10" fill="rgb(3,3,3)"/><rect x="10" y="630" width="10" height="10" fill="rgb(3,3,3)"/><rect x="20" y="630" width="10" height="10" fill="rgb(3,3,3)"/><rect x="30" y="630" width="10" height="10" fill="rgb(3,3,3)"/><rect x="40" y="630" width="10" height="10" fill="rgb(3,3,3)"/><rect x="50" y="630" width="10" height="10" fill="rgb(3,3,3)"/><rect x="60" y="630" width="10" height="10" fill="rgb(3,3,3)"/><rect x="70" y="630" width="10" height="10" fill="rgb(3,3,3)"/><rect x="80" y="630" width="10" height="10" fill="rgb(3,3,3)"/></svg>