<svg xmlns="http://www.w3.org/2000/svg" width="100" height="270"><rect x="0" y="0" width="10" height="10" fill="rgb(167,174,183)"/><rect x="10" y="0" width="10" height="10" fill="rgb(167,175,184)"/><rect x="20" y="0" width="10" height="10" fill="rgb(168,175,185)"/><rect x="30" y="0" width="10" height="10" fill="rgb(164,171,180)"/><rect x="40" y="0" width="10" height="10" fill="rgb(162,169,179)"/><rect x="50" y="0" width="10" height="10" fill="rgb(163,170,179)"/><rect x="60" y="0" width="10" height="10" fill="rgb(161,168,177)"/><rect x="70" y="0" width="10" height="10" fill="rgb(160,167,175)"/><rect x="80" y="0" width="10" height="10" fill="rgb(160,166,174)"/><rect x="90" y="0" width="10" height="10" fill="rgb(167,169,171)"/><rect x="0" y="10" width="10" height="10" fill="rgb(163,165,166)"/><rect x="10" y="10" width="10" height="10" fill="rgb(165,166,166)"/><rect x="20" y="10" width="10" height="10" fill="rgb(166,169,171)"/><rect x="30" y="10" width="10" height="10" fill="rgb(163,165,169)"/><rect x="40" y="10" width="10" height="10" fill="rgb(152,157,162)"/><rect x="50" y="10" width="10" height="10" fill="rgb(157,159,163)"/><rect x="60" y="10" width="10" height="10" fill="rgb(135,139,146)"/><rect x="70" y="10" width="10" height="10" fill="rgb(128,132,141)"/><rect x="80" y="10" width="10" height="10" fill="rgb(167,165,164)"/><rect x="90" y="10" width="10" height="10" fill="rgb(176,171,168)"/><rect x="0" y="20" width="10" height="10" fill="rgb(155,155,159)"/><rect x="10" y="20" width="10" height="10" fill="rgb(117,123,140)"/><rect x="20" y="20" width="10" height="10" fill="rgb(162,161,173)"/><rect x="30" y="20" width="10" height="10" fill="rgb(136,138,156)"/><rect x="40" y="20" width="10" height="10" fill="rgb(160,156,160)"/><rect x="50" y="20" width="10" height="10" fill="rgb(139,142,158)"/><rect x="60" y="20" width="10" height="10" fill="rgb(167,165,170)"/><rect x="70" y="20" width="10" height="10" fill="rgb(148,149,159)"/><rect x="80" y="20" width="10" height="10" fill="rgb(137,139,149)"/><rect x="90" y="20" width="10" height="10" fill="rgb(109,114,129)"/><rect x="0" y="30" width="10" height="10" fill="rgb(119,124,139)"/><rect x="10" y="30" width="10" height="10" fill="rgb(146,148,158)"/><rect x="20" y="30" width="10" height="10" fill="rgb(156,154,163)"/><rect x="30" y="30" width="10" height="10" fill="rgb(189,185,187)"/><rect x="40" y="30" width="10" height="10" fill="rgb(175,174,179)"/><rect x="50" y="30" width="10" height="10" fill="rgb(168,169,174)"/><rect x="60" y="30" width="10" height="10" fill="rgb(170,171,179)"/><rect x="70" y="30" width="10" height="10" fill="rgb(164,168,176)"/><rect x="80" y="30" width="10" height="10" fill="rgb(154,161,180)"/><rect x="90" y="30" width="10" height="10" fill="rgb(176,179,190)"/><rect x="0" y="40" width="10" height="10" fill="rgb(197,198,206)"/><rect x="10" y="40" width="10" height="10" fill="rgb(206,206,213)"/><rect x="20" y="40" width="10" height="10" fill="rgb(188,189,198)"/><rect x="30" y="40" width="10" height="10" fill="rgb(189,193,200)"/><rect x="40" y="40" width="10" height="10" fill="rgb(199,203,211)"/><rect x="50" y="40" width="10" height="10" fill="rgb(182,191,204)"/><rect x="60" y="40" width="10" height="10" fill="rgb(172,186,201)"/><rect x="70" y="40" width="10" height="10" fill="rgb(167,171,191)"/><rect x="80" y="40" width="10" height="10" fill="rgb(159,172,195)"/><rect x="90" y="40" width="10" height="10" fill="rgb(157,172,196)"/><rect x="0" y="50" width="10" height="10" fill="rgb(160,176,212)"/><rect x="10" y="50" width="10" height="10" fill="rgb(124,169,226)"/><rect x="20" y="50" width="10" height="10" fill="rgb(101,154,216)"/><rect x="30" y="50" width="10" height="10" fill="rgb(83,138,199)"/><rect x="40" y="50" width="10" height="10" fill="rgb(57,110,172)"/><rect x="50" y="50" width="10" height="10" fill="rgb(37,75,123)"/><rect x="60" y="50" width="10" height="10" fill="rgb(21,40,64)"/><rect x="70" y="50" width="10" height="10" fill="rgb(36,36,36)"/><rect x="80" y="50" width="10" height="10" fill="rgb(24,24,24)"/><rect x="90" y="50" width="10" height="10" fill="rgb(18,18,18)"/><rect x="0" y="60" width="10" height="10" fill="rgb(16,16,16)"/><rect x="10" y="60" width="10" height="10" fill="rgb(21,21,21)"/><rect x="20" y="60" width="10" height="10" fill="rgb(27,27,27)"/><rect x="30" y="60" width="10" height="10" fill="rgb(29,29,29)"/><rect x="40" y="60" width="10" height="10" fill="rgb(18,18,18)"/><rect x="50" y="60" width="10" height="10" fill="rgb(20,20,20)"/><rect x="60" y="60" width="10" height="10" fill="rgb(17,17,17)"/><rect x="70" y="60" width="10" height="10" fill="rgb(21,21,21)"/><rect x="80" y="60" width="10" height="10" fill="rgb(17,17,17)"/><rect x="90" y="60" width="10" height="10" fill="rgb(16,16,16)"/><rect x="0" y="70" width="10" height="10" fill="rgb(16,16,16)"/><rect x="10" y="70" width="10" height="10" fill="rgb(17,17,17)"/><rect x="20" y="70" width="10" height="10" fill="rgb(13,13,13)"/><rect x="30" y="70" width="10" height="10" fill="rgb(11,11,11)"/><rect x="40" y="70" width="10" height="10" fill="rgb(11,11,11)"/><rect x="50" y="70" width="10" height="10" fill="rgb(11,11,11)"/><rect x="60" y="70" width="10" height="10" fill="rgb(11,11,11)"/><rect x="70" y="70" width="10" height="10" fill="rgb(13,13,13)"/><rect x="80" y="70" width="10" height="10" fill="rgb(11,11,11)"/><rect x="90" y="70" width="10" height="10" fill="rgb(18,18,18)"/><rect x="0" y="80" width="10" height="10" fill="rgb(23,23,23)"/><rect x="10" y="80" width="10" height="10" fill="rgb(33,33,33)"/><rect x="20" y="80" width="10" height="10" fill="rgb(28,28,28)"/><rect x="30" y="80" width="10" height="10" fill="rgb(21,21,21)"/><rect x="40" y="80" width="10" height="10" fill="rgb(31,31,31)"/><rect x="50" y="80" width="10" height="10" fill="rgb(34,34,34)"/><rect x="60" y="80" width="10" height="10" fill="rgb(18,18,18)"/><rect x="70" y="80" width="10" height="10" fill="rgb(23,23,23)"/><rect x="80" y="80" width="10" height="10" fill="rgb(14,14,14)"/><rect x="90" y="80" width="10" height="10" fill="rgb(37,37,37)"/><rect x="0" y="90" width="10" height="10" fill="rgb(40,40,40)"/><rect x="10" y="90" width="10" height="10" fill="rgb(27,27,27)"/><rect x="20" y="90" width="10" height="10" fill="rgb(35,35,35)"/><rect x="30" y="90" width="10" height="10" fill="rgb(45,45,45)"/><rect x="40" y="90" width="10" height="10" fill="rgb(69,69,69)"/><rect x="50" y="90" width="10" height="10" fill="rgb(31,31,31)"/><rect x="60" y="90" width="10" height="10" fill="rgb(63,63,63)"/><rect x="70" y="90" width="10" height="10" fill="rgb(86,86,86)"/><rect x="80" y="90" width="10" height="10" fill="rgb(27,27,27)"/><rect x="90" y="90" width="10" height="10" fill="rgb(17,17,17)"/><rect x="0" y="100" width="10" height="10" fill="rgb(17,17,17)"/><rect x="10" y="100" width="10" height="10" fill="rgb(64,64,64)"/><rect x="20" y="100" width="10" height="10" fill="rgb(22,22,22)"/><rect x="30" y="100" width="10" height="10" fill="rgb(24,24,24)"/><rect x="40" y="100" width="10" height="10" fill="rgb(28,28,28)"/><rect x="50" y="100" width="10" height="10" fill="rgb(14,14,14)"/><rect x="60" y="100" width="10" height="10" fill="rgb(14,14,14)"/><rect x="70" y="100" width="10" height="10" fill="rgb(24,24,24)"/><rect x="80" y="100" width="10" height="10" fill="rgb(42,42,42)"/><rect x="90" y="100" width="10" height="10" fill="rgb(21,21,21)"/><rect x="0" y="110" width="10" height="10" fill="rgb(20,20,20)"/><rect x="10" y="110" width="10" height="10" fill="rgb(29,29,29)"/><rect x="20" y="110" width="10" height="10" fill="rgb(15,15,15)"/><rect x="30" y="110" width="10" height="10" fill="rgb(9,9,9)"/><rect x="40" y="110" width="10" height="10" fill="rgb(12,12,12)"/><rect x="50" y="110" width="10" height="10" fill="rgb(14,14,14)"/><rect x="60" y="110" width="10" height="10" fill="rgb(23,23,23)"/><rect x="70" y="110" width="10" height="10" fill="rgb(36,36,36)"/><rect x="80" y="110" width="10" height="10" fill="rgb(23,23,23)"/><rect x="90" y="110" width="10" height="10" fill="rgb(34,34,34)"/><rect x="0" y="120" width="10" height="10" fill="rgb(29,29,29)"/><rect x="10" y="120" width="10" height="10" fill="rgb(53,53,53)"/><rect x="20" y="120" width="10" height="10" fill="rgb(30,30,30)"/><rect x="30" y="120" width="10" height="10" fill="rgb(26,26,26)"/><rect x="40" y="120" width="10" height="10" fill="rgb(23,23,23)"/><rect x="50" y="120" width="10" height="10" fill="rgb(53,53,53)"/><rect x="60" y="120" width="10" height="10" fill="rgb(48,48,48)"/><rect x="70" y="120" width="10" height="10" fill="rgb(18,18,18)"/><rect x="80" y="120" width="10" height="10" fill="rgb(26,26,26)"/><rect x="90" y="120" width="10" height="10" fill="rgb(29,29,29)"/><rect x="0" y="130" width="10" height="10" fill="rgb(6,6,6)"/><rect x="10" y="130" width="10" height="10" fill="rgb(7,7,7)"/><rect x="20" y="130" width="10" height="10" fill="rgb(29,29,29)"/><rect x="30" y="130" width="10" height="10" fill="rgb(47,47,47)"/><rect x="40" y="130" width="10" height="10" fill="rgb(9,9,9)"/><rect x="50" y="130" width="10" height="10" fill="rgb(8,8,8)"/><rect x="60" y="130" width="10" height="10" fill="rgb(3,3,3)"/><rect x="70" y="130" width="10" height="10" fill="rgb(9,9,9)"/><rect x="80" y="130" width="10" height="10" fill="rgb(6,6,6)"/><rect x="90" y="130" width="10" height="10" fill="rgb(5,5,5)"/><rect x="0" y="140" width="10" height="10" fill="rgb(9,9,9)"/><rect x="10" y="140" width="10" height="10" fill="rgb(7,7,7)"/><rect x="20" y="140" width="10" height="10" fill="rgb(6,6,6)"/><rect x="30" y="140" width="10" height="10" fill="rgb(8,8,8)"/><rect x="40" y="140" width="10" height="10" fill="rgb(14,14,14)"/><rect x="50" y="140" width="10" height="10" fill="rgb(29,29,29)"/><rect x="60" y="140" width="10" height="10" fill="rgb(56,56,56)"/><rect x="70" y="140" width="10" height="10" fill="rgb(98,98,98)"/><rect x="80" y="140" width="10" height="10" fill="rgb(138,138,138)"/><rect x="90" y="140" width="10" height="10" fill="rgb(187,187,187)"/><rect x="0" y="150" width="10" height="10" fill="rgb(197,197,197)"/><rect x="10" y="150" width="10" height="10" fill="rgb(145,183,245)"/><rect x="20" y="150" width="10" height="10" fill="rgb(164,193,239)"/><rect x="30" y="150" width="10" height="10" fill="rgb(179,198,229)"/><rect x="40" y="150" width="10" height="10" fill="rgb(194,203,218)"/><rect x="50" y="150" width="10" height="10" fill="rgb(193,197,207)"/><rect x="60" y="150" width="10" height="10" fill="rgb(197,196,200)"/><rect x="70" y="150" width="10" height="10" fill="rgb(204,203,202)"/><rect x="80" y="150" width="10" height="10" fill="rgb(211,206,203)"/><rect x="90" y="150" width="10" height="10" fill="rgb(214,206,203)"/><rect x="0" y="160" width="10" height="10" fill="rgb(217,208,200)"/><rect x="10" y="160" width="10" height="10" fill="rgb(217,208,202)"/><rect x="20" y="160" width="10" height="10" fill="rgb(218,210,200)"/><rect x="30" y="160" width="10" height="10" fill="rgb(222,215,205)"/><rect x="40" y="160" width="10" height="10" fill="rgb(227,221,213)"/><rect x="50" y="160" width="10" height="10" fill="rgb(223,219,213)"/><rect x="60" y="160" width="10" height="10" fill="rgb(221,218,215)"/><rect x="70" y="160" width="10" height="10" fill="rgb(223,222,221)"/><rect x="80" y="160" width="10" height="10" fill="rgb(220,220,222)"/><rect x="90" y="160" width="10" height="10" fill="rgb(196,199,206)"/><rect x="0" y="170" width="10" height="10" fill="rgb(199,202,208)"/><rect x="10" y="170" width="10" height="10" fill="rgb(195,198,206)"/><rect x="20" y="170" width="10" height="10" fill="rgb(156,164,178)"/><rect x="30" y="170" width="10" height="10" fill="rgb(156,164,177)"/><rect x="40" y="170" width="10" height="10" fill="rgb(163,169,182)"/><rect x="50" y="170" width="10" height="10" fill="rgb(158,165,178)"/><rect x="60" y="170" width="10" height="10" fill="rgb(162,168,179)"/><rect x="70" y="170" width="10" height="10" fill="rgb(216,218,224)"/><rect x="80" y="170" width="10" height="10" fill="rgb(218,219,226)"/><rect x="90" y="170" width="10" height="10" fill="rgb(218,219,226)"/><rect x="0" y="180" width="10" height="10" fill="rgb(218,219,227)"/><rect x="10" y="180" width="10" height="10" fill="rgb(218,220,228)"/><rect x="20" y="180" width="10" height="10" fill="rgb(217,220,228)"/><rect x="30" y="180" width="10" height="10" fill="rgb(218,221,231)"/><rect x="40" y="180" width="10" height="10" fill="rgb(195,198,209)"/><rect x="50" y="180" width="10" height="10" fill="rgb(210,212,223)"/><rect x="60" y="180" width="10" height="10" fill="rgb(208,209,218)"/><rect x="70" y="180" width="10" height="10" fill="rgb(198,198,206)"/><rect x="80" y="180" width="10" height="10" fill="rgb(193,194,206)"/><rect x="90" y="180" width="10" height="10" fill="rgb(186,188,200)"/><rect x="0" y="190" width="10" height="10" fill="rgb(172,172,183)"/><rect x="10" y="190" width="10" height="10" fill="rgb(172,174,185)"/><rect x="20" y="190" width="10" height="10" fill="rgb(199,199,208)"/><rect x="30" y="190" width="10" height="10" fill="rgb(183,185,193)"/><rect x="40" y="190" width="10" height="10" fill="rgb(169,169,178)"/><rect x="50" y="190" width="10" height="10" fill="rgb(193,194,202)"/><rect x="60" y="190" width="10" height="10" fill="rgb(216,216,222)"/><rect x="70" y="190" width="10" height="10" fill="rgb(217,216,221)"/><rect x="80" y="190" width="10" height="10" fill="rgb(195,197,206)"/><rect x="90" y="190" width="10" height="10" fill="rgb(170,171,179)"/><rect x="0" y="200" width="10" height="10" fill="rgb(158,163,175)"/><rect x="10" y="200" width="10" height="10" fill="rgb(182,182,188)"/><rect x="20" y="200" width="10" height="10" fill="rgb(162,163,173)"/><rect x="30" y="200" width="10" height="10" fill="rgb(182,183,193)"/><rect x="40" y="200" width="10" height="10" fill="rgb(203,205,213)"/><rect x="50" y="200" width="10" height="10" fill="rgb(187,189,200)"/><rect x="60" y="200" width="10" height="10" fill="rgb(177,179,190)"/><rect x="70" y="200" width="10" height="10" fill="rgb(181,182,192)"/><rect x="80" y="200" width="10" height="10" fill="rgb(200,201,209)"/><rect x="90" y="200" width="10" height="10" fill="rgb(221,221,228)"/><rect x="0" y="210" width="10" height="10" fill="rgb(181,182,191)"/><rect x="10" y="210" width="10" height="10" fill="rgb(173,174,182)"/><rect x="20" y="210" width="10" height="10" fill="rgb(162,165,174)"/><rect x="30" y="210" width="10" height="10" fill="rgb(155,156,162)"/><rect x="40" y="210" width="10" height="10" fill="rgb(171,173,177)"/><rect x="50" y="210" width="10" height="10" fill="rgb(195,195,197)"/><rect x="60" y="210" width="10" height="10" fill="rgb(168,170,174)"/><rect x="70" y="210" width="10" height="10" fill="rgb(171,172,180)"/><rect x="80" y="210" width="10" height="10" fill="rgb(157,158,168)"/><rect x="90" y="210" width="10" height="10" fill="rgb(165,167,172)"/><rect x="0" y="220" width="10" height="10" fill="rgb(138,141,149)"/><rect x="10" y="220" width="10" height="10" fill="rgb(170,172,177)"/><rect x="20" y="220" width="10" height="10" fill="rgb(166,167,171)"/><rect x="30" y="220" width="10" height="10" fill="rgb(184,185,186)"/><rect x="40" y="220" width="10" height="10" fill="rgb(178,179,182)"/><rect x="50" y="220" width="10" height="10" fill="rgb(181,181,181)"/><rect x="60" y="220" width="10" height="10" fill="rgb(181,180,180)"/><rect x="70" y="220" width="10" height="10" fill="rgb(138,139,141)"/><rect x="80" y="220" width="10" height="10" fill="rgb(183,183,184)"/><rect x="90" y="220" width="10" height="10" fill="rgb(165,164,165)"/><rect x="0" y="230" width="10" height="10" fill="rgb(169,168,169)"/><rect x="10" y="230" width="10" height="10" fill="rgb(166,165,168)"/><rect x="20" y="230" width="10" height="10" fill="rgb(182,180,180)"/><rect x="30" y="230" width="10" height="10" fill="rgb(182,181,183)"/><rect x="40" y="230" width="10" height="10" fill="rgb(176,174,176)"/><rect x="50" y="230" width="10" height="10" fill="rgb(192,190,191)"/><rect x="60" y="230" width="10" height="10" fill="rgb(172,171,173)"/><rect x="70" y="230" width="10" height="10" fill="rgb(177,176,178)"/><rect x="80" y="230" width="10" height="10" fill="rgb(157,156,158)"/><rect x="90" y="230" width="10" height="10" fill="rgb(192,190,193)"/><rect x="0" y="240" width="10" height="10" fill="rgb(188,187,190)"/><rect x="10" y="240" width="10" height="10" fill="rgb(177,179,185)"/><rect x="20" y="240" width="10" height="10" fill="rgb(180,179,182)"/><rect x="30" y="240" width="10" height="10" fill="rgb(169,174,184)"/><rect x="40" y="240" width="10" height="10" fill="rgb(174,177,184)"/><rect x="50" y="240" width="10" height="10" fill="rgb(163,167,174)"/><rect x="60" y="240" width="10" height="10" fill="rgb(146,152,161)"/><rect x="70" y="240" width="10" height="10" fill="rgb(170,174,180)"/><rect x="80" y="240" width="10" height="10" fill="rgb(165,170,179)"/><rect x="90" y="240" width="10" height="10" fill="rgb(141,150,164)"/><rect x="0" y="250" width="10" height="10" fill="rgb(137,147,162)"/><rect x="10" y="250" width="10" height="10" fill="rgb(166,173,185)"/><rect x="20" y="250" width="10" height="10" fill="rgb(141,151,166)"/><rect x="30" y="250" width="10" height="10" fill="rgb(148,157,171)"/><rect x="40" y="250" width="10" height="10" fill="rgb(151,159,171)"/><rect x="50" y="250" width="10" height="10" fill="rgb(158,168,181)"/><rect x="60" y="250" width="10" height="10" fill="rgb(159,169,183)"/><rect x="70" y="250" width="10" height="10" fill="rgb(161,170,184)"/><rect x="80" y="250" width="10" height="10" fill="rgb(161,171,183)"/><rect x="90" y="250" width="10" height="10" fill="rgb(162,171,184)"/><rect x="0" y="260" width="10" height="10" fill="rgb(162,171,183)"/><rect x="10" y="260" width="10" height="10" fill="rgb(162,171,183)"/><rect x="20" y="260" width="10" height="10" fill="rgb(163,172,184)"/><rect x="30" y="260" width="10" height="10" fill="rgb(164,173,185)"/><rect x="40" y="260" width="10" height="10" fill="rgb(164,173,185)"/><rect x="50" y="260" width="10" height="10" fill="rgb(166,175,186)"/><rect x="60" y="260" width="10" height="10" fill="rgb(165,173,185)"/><rect x="70" y="260" width="10" height="10" fill="rgb(165,173,184)"/><rect x="80" y="260" width="10" height="10" fill="rgb(164,173,183)"/><rect x="90" y="260" width="10" height="10" fill="rgb(166,174,184)"/></svg>