<svg xmlns="http://www.w3.org/2000/svg" width="480" height="10"><rect x="0" y="0" width="10" height="10" fill="rgb(159,159,185)"/><rect x="10" y="0" width="10" height="10" fill="rgb(151,167,214)"/><rect x="20" y="0" width="10" height="10" fill="rgb(107,139,206)"/><rect x="30" y="0" width="10" height="10" fill="rgb(157,155,175)"/><rect x="40" y="0" width="10" height="10" fill="rgb(143,151,182)"/><rect x="50" y="0" width="10" height="10" fill="rgb(141,148,185)"/><rect x="60" y="0" width="10" height="10" fill="rgb(129,143,183)"/><rect x="70" y="0" width="10" height="10" fill="rgb(132,145,182)"/><rect x="80" y="0" width="10" height="10" fill="rgb(118,138,186)"/><rect x="90" y="0" width="10" height="10" fill="rgb(113,134,186)"/><rect x="100" y="0" width="10" height="10" fill="rgb(112,132,183)"/><rect x="110" y="0" width="10" height="10" fill="rgb(119,136,182)"/><rect x="120" y="0" width="10" height="10" fill="rgb(104,129,183)"/><rect x="130" y="0" width="10" height="10" fill="rgb(93,123,187)"/><rect x="140" y="0" width="10" height="10" fill="rgb(98,126,186)"/><rect x="150" y="0" width="10" height="10" fill="rgb(93,124,188)"/><rect x="160" y="0" width="10" height="10" fill="rgb(108,133,187)"/><rect x="170" y="0" width="10" height="10" fill="rgb(112,133,185)"/><rect x="180" y="0" width="10" height="10" fill="rgb(91,124,188)"/><rect x="190" y="0" width="10" height="10" fill="rgb(88,124,188)"/><rect x="200" y="0" width="10" height="10" fill="rgb(89,125,189)"/><rect x="210" y="0" width="10" height="10" fill="rgb(91,125,188)"/><rect x="220" y="0" width="10" height="10" fill="rgb(93,127,189)"/><rect x="230" y="0" width="10" height="10" fill="rgb(123,141,189)"/><rect x="240" y="0" width="10" height="10" fill="rgb(152,157,187)"/><rect x="250" y="0" width="10" height="10" fill="rgb(181,175,186)"/><rect x="260" y="0" width="10" height="10" fill="rgb(183,177,190)"/><rect x="270" y="0" width="10" height="10" fill="rgb(192,183,189)"/><rect x="280" y="0" width="10" height="10" fill="rgb(175,172,184)"/><rect x="290" y="0" width="10" height="10" fill="rgb(182,180,195)"/><rect x="300" y="0" width="10" height="10" fill="rgb(184,177,191)"/><rect x="310" y="0" width="10" height="10" fill="rgb(161,159,176)"/><rect x="320" y="0" width="10" height="10" fill="rgb(147,147,166)"/><rect x="330" y="0" width="10" height="10" fill="rgb(160,160,173)"/><rect x="340" y="0" width="10" height="10" fill="rgb(178,174,188)"/><rect x="350" y="0" width="10" height="10" fill="rgb(165,164,181)"/><rect x="360" y="0" width="10" height="10" fill="rgb(153,159,187)"/><rect x="370" y="0" width="10" height="10" fill="rgb(154,162,193)"/><rect x="380" y="0" width="10" height="10" fill="rgb(172,171,193)"/><rect x="390" y="0" width="10" height="10" fill="rgb(168,171,196)"/><rect x="400" y="0" width="10" height="10" fill="rgb(170,175,199)"/><rect x="410" y="0" width="10" height="10" fill="rgb(166,168,196)"/><rect x="420" y="0" width="10" height="10" fill="rgb(172,167,183)"/><rect x="430" y="0" width="10" height="10" fill="rgb(146,145,163)"/></svg>