<svg xmlns="http://www.w3.org/2000/svg" width="480" height="10"><rect x="0" y="0" width="10" height="10" fill="rgb(164,163,173)"/><rect x="10" y="0" width="10" height="10" fill="rgb(160,160,174)"/><rect x="20" y="0" width="10" height="10" fill="rgb(193,190,195)"/><rect x="30" y="0" width="10" height="10" fill="rgb(144,166,201)"/><rect x="40" y="0" width="10" height="10" fill="rgb(131,158,199)"/><rect x="50" y="0" width="10" height="10" fill="rgb(131,158,199)"/><rect x="60" y="0" width="10" height="10" fill="rgb(127,156,198)"/><rect x="70" y="0" width="10" height="10" fill="rgb(127,156,197)"/><rect x="80" y="0" width="10" height="10" fill="rgb(122,153,197)"/><rect x="90" y="0" width="10" height="10" fill="rgb(123,154,197)"/><rect x="100" y="0" width="10" height="10" fill="rgb(122,152,196)"/><rect x="110" y="0" width="10" height="10" fill="rgb(122,152,196)"/><rect x="120" y="0" width="10" height="10" fill="rgb(121,152,196)"/><rect x="130" y="0" width="10" height="10" fill="rgb(113,147,195)"/><rect x="140" y="0" width="10" height="10" fill="rgb(111,147,196)"/><rect x="150" y="0" width="10" height="10" fill="rgb(111,147,197)"/><rect x="160" y="0" width="10" height="10" fill="rgb(110,147,196)"/><rect x="170" y="0" width="10" height="10" fill="rgb(109,146,196)"/><rect x="180" y="0" width="10" height="10" fill="rgb(109,146,196)"/><rect x="190" y="0" width="10" height="10" fill="rgb(108,146,196)"/><rect x="200" y="0" width="10" height="10" fill="rgb(108,145,195)"/><rect x="210" y="0" width="10" height="10" fill="rgb(107,144,195)"/><rect x="220" y="0" width="10" height="10" fill="rgb(106,144,194)"/><rect x="230" y="0" width="10" height="10" fill="rgb(106,144,195)"/><rect x="240" y="0" width="10" height="10" fill="rgb(104,143,195)"/><rect x="250" y="0" width="10" height="10" fill="rgb(104,143,195)"/><rect x="260" y="0" width="10" height="10" fill="rgb(105,143,195)"/><rect x="270" y="0" width="10" height="10" fill="rgb(109,146,196)"/><rect x="280" y="0" width="10" height="10" fill="rgb(105,142,193)"/><rect x="290" y="0" width="10" height="10" fill="rgb(108,147,199)"/><rect x="300" y="0" width="10" height="10" fill="rgb(114,149,197)"/><rect x="310" y="0" width="10" height="10" fill="rgb(98,137,189)"/><rect x="320" y="0" width="10" height="10" fill="rgb(97,137,190)"/><rect x="330" y="0" width="10" height="10" fill="rgb(109,144,193)"/><rect x="340" y="0" width="10" height="10" fill="rgb(105,142,192)"/><rect x="350" y="0" width="10" height="10" fill="rgb(107,142,192)"/><rect x="360" y="0" width="10" height="10" fill="rgb(105,141,190)"/><rect x="370" y="0" width="10" height="10" fill="rgb(105,141,191)"/><rect x="380" y="0" width="10" height="10" fill="rgb(102,140,192)"/><rect x="390" y="0" width="10" height="10" fill="rgb(98,137,190)"/><rect x="400" y="0" width="10" height="10" fill="rgb(110,146,196)"/><rect x="410" y="0" width="10" height="10" fill="rgb(104,142,192)"/><rect x="420" y="0" width="10" height="10" fill="rgb(101,140,192)"/><rect x="430" y="0" width="10" height="10" fill="rgb(104,141,192)"/><rect x="440" y="0" width="10" height="10" fill="rgb(99,139,192)"/></svg>