<svg xmlns="http://www.w3.org/2000/svg" width="480" height="70"><rect x="0" y="0" width="10" height="10" fill="rgb(151,151,164)"/><rect x="10" y="0" width="10" height="10" fill="rgb(171,171,183)"/><rect x="20" y="0" width="10" height="10" fill="rgb(190,189,197)"/><rect x="30" y="0" width="10" height="10" fill="rgb(118,150,195)"/><rect x="40" y="0" width="10" height="10" fill="rgb(109,143,192)"/><rect x="50" y="0" width="10" height="10" fill="rgb(107,142,191)"/><rect x="60" y="0" width="10" height="10" fill="rgb(106,141,191)"/><rect x="70" y="0" width="10" height="10" fill="rgb(105,140,189)"/><rect x="80" y="0" width="10" height="10" fill="rgb(103,139,189)"/><rect x="90" y="0" width="10" height="10" fill="rgb(102,138,189)"/><rect x="100" y="0" width="10" height="10" fill="rgb(101,137,190)"/><rect x="110" y="0" width="10" height="10" fill="rgb(111,142,190)"/><rect x="120" y="0" width="10" height="10" fill="rgb(110,141,189)"/><rect x="130" y="0" width="10" height="10" fill="rgb(97,134,189)"/><rect x="140" y="0" width="10" height="10" fill="rgb(93,133,188)"/><rect x="150" y="0" width="10" height="10" fill="rgb(94,134,189)"/><rect x="160" y="0" width="10" height="10" fill="rgb(93,133,188)"/><rect x="170" y="0" width="10" height="10" fill="rgb(93,132,187)"/><rect x="180" y="0" width="10" height="10" fill="rgb(92,132,187)"/><rect x="190" y="0" width="10" height="10" fill="rgb(91,131,186)"/><rect x="200" y="0" width="10" height="10" fill="rgb(91,131,186)"/><rect x="210" y="0" width="10" height="10" fill="rgb(91,131,186)"/><rect x="220" y="0" width="10" height="10" fill="rgb(90,130,185)"/><rect x="230" y="0" width="10" height="10" fill="rgb(90,130,185)"/><rect x="240" y="0" width="10" height="10" fill="rgb(89,130,185)"/><rect x="250" y="0" width="10" height="10" fill="rgb(88,129,185)"/><rect x="260" y="0" width="10" height="10" fill="rgb(88,129,185)"/><rect x="270" y="0" width="10" height="10" fill="rgb(90,132,187)"/><rect x="280" y="0" width="10" height="10" fill="rgb(86,127,182)"/><rect x="290" y="0" width="10" height="10" fill="rgb(90,133,189)"/><rect x="300" y="0" width="10" height="10" fill="rgb(92,133,188)"/><rect x="310" y="0" width="10" height="10" fill="rgb(79,121,178)"/><rect x="320" y="0" width="10" height="10" fill="rgb(81,123,180)"/><rect x="330" y="0" width="10" height="10" fill="rgb(85,128,183)"/><rect x="340" y="0" width="10" height="10" fill="rgb(84,126,183)"/><rect x="350" y="0" width="10" height="10" fill="rgb(87,128,183)"/><rect x="360" y="0" width="10" height="10" fill="rgb(84,127,181)"/><rect x="370" y="0" width="10" height="10" fill="rgb(85,127,182)"/><rect x="380" y="0" width="10" height="10" fill="rgb(83,126,183)"/><rect x="390" y="0" width="10" height="10" fill="rgb(79,123,180)"/><rect x="400" y="0" width="10" height="10" fill="rgb(90,132,188)"/><rect x="410" y="0" width="10" height="10" fill="rgb(82,126,183)"/><rect x="420" y="0" width="10" height="10" fill="rgb(83,126,183)"/><rect x="430" y="0" width="10" height="10" fill="rgb(85,127,184)"/><rect x="440" y="0" width="10" height="10" fill="rgb(85,127,184)"/><rect x="450" y="0" width="10" height="10" fill="rgb(95,136,190)"/><rect x="460" y="0" width="10" height="10" fill="rgb(94,132,185)"/><rect x="470" y="0" width="10" height="10" fill="rgb(99,142,196)"/><rect x="0" y="10" width="10" height="10" fill="rgb(95,138,193)"/><rect x="10" y="10" width="10" height="10" fill="rgb(101,144,196)"/><rect x="20" y="10" width="10" height="10" fill="rgb(107,146,194)"/><rect x="30" y="10" width="10" height="10" fill="rgb(91,135,192)"/><rect x="40" y="10" width="10" height="10" fill="rgb(89,133,191)"/><rect x="50" y="10" width="10" height="10" fill="rgb(90,134,191)"/><rect x="60" y="10" width="10" height="10" fill="rgb(107,152,209)"/><rect x="70" y="10" width="10" height="10" fill="rgb(92,136,193)"/><rect x="80" y="10" width="10" height="10" fill="rgb(93,137,193)"/><rect x="90" y="10" width="10" height="10" fill="rgb(93,137,194)"/><rect x="100" y="10" width="10" height="10" fill="rgb(94,138,195)"/><rect x="110" y="10" width="10" height="10" fill="rgb(94,138,195)"/><rect x="120" y="10" width="10" height="10" fill="rgb(96,140,196)"/><rect x="130" y="10" width="10" height="10" fill="rgb(97,141,197)"/><rect x="140" y="10" width="10" height="10" fill="rgb(97,141,197)"/><rect x="150" y="10" width="10" height="10" fill="rgb(97,141,198)"/><rect x="160" y="10" width="10" height="10" fill="rgb(98,142,199)"/><rect x="170" y="10" width="10" height="10" fill="rgb(99,143,200)"/><rect x="180" y="10" width="10" height="10" fill="rgb(100,144,201)"/><rect x="190" y="10" width="10" height="10" fill="rgb(100,144,201)"/><rect x="200" y="10" width="10" height="10" fill="rgb(100,144,201)"/><rect x="210" y="10" width="10" height="10" fill="rgb(116,160,216)"/><rect x="220" y="10" width="10" height="10" fill="rgb(102,146,203)"/><rect x="230" y="10" width="10" height="10" fill="rgb(102,146,203)"/><rect x="240" y="10" width="10" height="10" fill="rgb(102,146,203)"/><rect x="250" y="10" width="10" height="10" fill="rgb(103,147,204)"/><rect x="260" y="10" width="10" height="10" fill="rgb(104,148,205)"/><rect x="270" y="10" width="10" height="10" fill="rgb(104,148,205)"/><rect x="280" y="10" width="10" height="10" fill="rgb(105,149,206)"/><rect x="290" y="10" width="10" height="10" fill="rgb(106,150,206)"/><rect x="300" y="10" width="10" height="10" fill="rgb(108,152,207)"/><rect x="310" y="10" width="10" height="10" fill="rgb(108,152,207)"/><rect x="320" y="10" width="10" height="10" fill="rgb(108,153,206)"/><rect x="330" y="10" width="10" height="10" fill="rgb(110,154,207)"/><rect x="340" y="10" width="10" height="10" fill="rgb(110,154,207)"/><rect x="350" y="10" width="10" height="10" fill="rgb(111,155,207)"/><rect x="360" y="10" width="10" height="10" fill="rgb(113,155,206)"/><rect x="370" y="10" width="10" height="10" fill="rgb(114,156,206)"/><rect x="380" y="10" width="10" height="10" fill="rgb(122,164,212)"/><rect x="390" y="10" width="10" height="10" fill="rgb(118,158,207)"/><rect x="400" y="10" width="10" height="10" fill="rgb(120,159,207)"/><rect x="410" y="10" width="10" height="10" fill="rgb(121,159,206)"/><rect x="420" y="10" width="10" height="10" fill="rgb(122,160,207)"/><rect x="430" y="10" width="10" height="10" fill="rgb(124,161,207)"/><rect x="440" y="10" width="10" height="10" fill="rgb(127,163,208)"/><rect x="450" y="10" width="10" height="10" fill="rgb(128,164,208)"/><rect x="460" y="10" width="10" height="10" fill="rgb(135,168,209)"/><rect x="470" y="10" width="10" height="10" fill="rgb(136,169,210)"/><rect x="0" y="20" width="10" height="10" fill="rgb(140,172,212)"/><rect x="10" y="20" width="10" height="10" fill="rgb(146,174,210)"/><rect x="20" y="20" width="10" height="10" fill="rgb(144,175,213)"/><rect x="30" y="20" width="10" height="10" fill="rgb(143,175,213)"/><rect x="40" y="20" width="10" height="10" fill="rgb(146,176,211)"/><rect x="50" y="20" width="10" height="10" fill="rgb(159,179,205)"/><rect x="60" y="20" width="10" height="10" fill="rgb(163,180,205)"/><rect x="70" y="20" width="10" height="10" fill="rgb(165,180,203)"/><rect x="80" y="20" width="10" height="10" fill="rgb(166,180,201)"/><rect x="90" y="20" width="10" height="10" fill="rgb(167,180,200)"/><rect x="100" y="20" width="10" height="10" fill="rgb(169,178,197)"/><rect x="110" y="20" width="10" height="10" fill="rgb(165,175,197)"/><rect x="120" y="20" width="10" height="10" fill="rgb(154,169,198)"/><rect x="130" y="20" width="10" height="10" fill="rgb(133,158,201)"/><rect x="140" y="20" width="10" height="10" fill="rgb(108,148,201)"/><rect x="150" y="20" width="10" height="10" fill="rgb(62,117,184)"/><rect x="160" y="20" width="10" height="10" fill="rgb(34,100,180)"/><rect x="170" y="20" width="10" height="10" fill="rgb(19,86,165)"/><rect x="180" y="20" width="10" height="10" fill="rgb(15,71,148)"/><rect x="190" y="20" width="10" height="10" fill="rgb(23,62,121)"/><rect x="200" y="20" width="10" height="10" fill="rgb(27,55,104)"/><rect x="210" y="20" width="10" height="10" fill="rgb(31,51,89)"/><rect x="220" y="20" width="10" height="10" fill="rgb(31,47,74)"/><rect x="230" y="20" width="10" height="10" fill="rgb(34,44,67)"/><rect x="240" y="20" width="10" height="10" fill="rgb(34,42,57)"/><rect x="250" y="20" width="10" height="10" fill="rgb(35,39,54)"/><rect x="260" y="20" width="10" height="10" fill="rgb(34,37,50)"/><rect x="270" y="20" width="10" height="10" fill="rgb(37,42,54)"/><rect x="280" y="20" width="10" height="10" fill="rgb(35,36,48)"/><rect x="290" y="20" width="10" height="10" fill="rgb(36,36,47)"/><rect x="300" y="20" width="10" height="10" fill="rgb(34,35,45)"/><rect x="310" y="20" width="10" height="10" fill="rgb(36,37,46)"/><rect x="320" y="20" width="10" height="10" fill="rgb(31,32,41)"/><rect x="330" y="20" width="10" height="10" fill="rgb(38,39,47)"/><rect x="340" y="20" width="10" height="10" fill="rgb(41,42,50)"/><rect x="350" y="20" width="10" height="10" fill="rgb(37,38,46)"/><rect x="360" y="20" width="10" height="10" fill="rgb(37,38,45)"/><rect x="370" y="20" width="10" height="10" fill="rgb(36,36,47)"/><rect x="380" y="20" width="10" height="10" fill="rgb(40,41,47)"/><rect x="390" y="20" width="10" height="10" fill="rgb(43,44,50)"/><rect x="400" y="20" width="10" height="10" fill="rgb(49,50,53)"/><rect x="410" y="20" width="10" height="10" fill="rgb(65,67,78)"/><rect x="420" y="20" width="10" height="10" fill="rgb(62,63,73)"/><rect x="430" y="20" width="10" height="10" fill="rgb(53,54,56)"/><rect x="440" y="20" width="10" height="10" fill="rgb(51,52,54)"/><rect x="450" y="20" width="10" height="10" fill="rgb(49,50,57)"/><rect x="460" y="20" width="10" height="10" fill="rgb(36,37,45)"/><rect x="470" y="20" width="10" height="10" fill="rgb(53,54,57)"/><rect x="0" y="30" width="10" height="10" fill="rgb(43,44,48)"/><rect x="10" y="30" width="10" height="10" fill="rgb(38,39,46)"/><rect x="20" y="30" width="10" height="10" fill="rgb(42,43,51)"/><rect x="30" y="30" width="10" height="10" fill="rgb(33,34,42)"/><rect x="40" y="30" width="10" height="10" fill="rgb(42,43,48)"/><rect x="50" y="30" width="10" height="10" fill="rgb(47,48,52)"/><rect x="60" y="30" width="10" height="10" fill="rgb(56,57,59)"/><rect x="70" y="30" width="10" height="10" fill="rgb(56,57,57)"/><rect x="80" y="30" width="10" height="10" fill="rgb(59,60,61)"/><rect x="90" y="30" width="10" height="10" fill="rgb(60,60,60)"/><rect x="100" y="30" width="10" height="10" fill="rgb(56,58,59)"/><rect x="110" y="30" width="10" height="10" fill="rgb(59,60,62)"/><rect x="120" y="30" width="10" height="10" fill="rgb(59,59,60)"/><rect x="130" y="30" width="10" height="10" fill="rgb(59,59,61)"/><rect x="140" y="30" width="10" height="10" fill="rgb(61,61,62)"/><rect x="150" y="30" width="10" height="10" fill="rgb(58,58,60)"/><rect x="160" y="30" width="10" height="10" fill="rgb(57,57,58)"/><rect x="170" y="30" width="10" height="10" fill="rgb(57,58,59)"/><rect x="180" y="30" width="10" height="10" fill="rgb(56,57,59)"/><rect x="190" y="30" width="10" height="10" fill="rgb(61,61,62)"/><rect x="200" y="30" width="10" height="10" fill="rgb(64,64,64)"/><rect x="210" y="30" width="10" height="10" fill="rgb(63,63,63)"/><rect x="220" y="30" width="10" height="10" fill="rgb(62,62,64)"/><rect x="230" y="30" width="10" height="10" fill="rgb(61,61,61)"/><rect x="240" y="30" width="10" height="10" fill="rgb(58,58,60)"/><rect x="250" y="30" width="10" height="10" fill="rgb(57,57,59)"/><rect x="260" y="30" width="10" height="10" fill="rgb(56,56,57)"/><rect x="270" y="30" width="10" height="10" fill="rgb(51,52,55)"/><rect x="280" y="30" width="10" height="10" fill="rgb(53,54,55)"/><rect x="290" y="30" width="10" height="10" fill="rgb(52,53,56)"/><rect x="300" y="30" width="10" height="10" fill="rgb(48,49,54)"/><rect x="310" y="30" width="10" height="10" fill="rgb(44,45,48)"/><rect x="320" y="30" width="10" height="10" fill="rgb(55,46,52)"/><rect x="330" y="30" width="10" height="10" fill="rgb(41,42,47)"/><rect x="340" y="30" width="10" height="10" fill="rgb(41,42,48)"/><rect x="350" y="30" width="10" height="10" fill="rgb(42,43,48)"/><rect x="360" y="30" width="10" height="10" fill="rgb(41,42,48)"/><rect x="370" y="30" width="10" height="10" fill="rgb(43,44,48)"/><rect x="380" y="30" width="10" height="10" fill="rgb(43,44,48)"/><rect x="390" y="30" width="10" height="10" fill="rgb(38,39,45)"/><rect x="400" y="30" width="10" height="10" fill="rgb(36,37,44)"/><rect x="410" y="30" width="10" height="10" fill="rgb(36,37,45)"/><rect x="420" y="30" width="10" height="10" fill="rgb(33,34,42)"/><rect x="430" y="30" width="10" height="10" fill="rgb(32,33,43)"/><rect x="440" y="30" width="10" height="10" fill="rgb(33,34,42)"/><rect x="450" y="30" width="10" height="10" fill="rgb(33,34,42)"/><rect x="460" y="30" width="10" height="10" fill="rgb(33,34,43)"/><rect x="470" y="30" width="10" height="10" fill="rgb(39,40,46)"/><rect x="0" y="40" width="10" height="10" fill="rgb(42,43,48)"/><rect x="10" y="40" width="10" height="10" fill="rgb(45,46,50)"/><rect x="20" y="40" width="10" height="10" fill="rgb(35,36,45)"/><rect x="30" y="40" width="10" height="10" fill="rgb(40,41,48)"/><rect x="40" y="40" width="10" height="10" fill="rgb(33,34,42)"/><rect x="50" y="40" width="10" height="10" fill="rgb(42,43,50)"/><rect x="60" y="40" width="10" height="10" fill="rgb(48,49,53)"/><rect x="70" y="40" width="10" height="10" fill="rgb(49,50,55)"/><rect x="80" y="40" width="10" height="10" fill="rgb(37,37,47)"/><rect x="90" y="40" width="10" height="10" fill="rgb(55,56,59)"/><rect x="100" y="40" width="10" height="10" fill="rgb(53,55,62)"/><rect x="110" y="40" width="10" height="10" fill="rgb(37,40,52)"/><rect x="120" y="40" width="10" height="10" fill="rgb(32,37,52)"/><rect x="130" y="40" width="10" height="10" fill="rgb(35,42,61)"/><rect x="140" y="40" width="10" height="10" fill="rgb(46,51,64)"/><rect x="150" y="40" width="10" height="10" fill="rgb(48,53,68)"/><rect x="160" y="40" width="10" height="10" fill="rgb(46,55,80)"/><rect x="170" y="40" width="10" height="10" fill="rgb(43,63,101)"/><rect x="180" y="40" width="10" height="10" fill="rgb(45,71,118)"/><rect x="190" y="40" width="10" height="10" fill="rgb(56,89,147)"/><rect x="200" y="40" width="10" height="10" fill="rgb(64,105,170)"/><rect x="210" y="40" width="10" height="10" fill="rgb(89,132,199)"/><rect x="220" y="40" width="10" height="10" fill="rgb(122,151,201)"/><rect x="230" y="40" width="10" height="10" fill="rgb(141,155,187)"/><rect x="240" y="40" width="10" height="10" fill="rgb(131,141,166)"/><rect x="250" y="40" width="10" height="10" fill="rgb(149,155,178)"/><rect x="260" y="40" width="10" height="10" fill="rgb(163,168,190)"/><rect x="270" y="40" width="10" height="10" fill="rgb(180,182,197)"/><rect x="280" y="40" width="10" height="10" fill="rgb(183,185,199)"/><rect x="290" y="40" width="10" height="10" fill="rgb(183,185,199)"/><rect x="300" y="40" width="10" height="10" fill="rgb(176,179,193)"/><rect x="310" y="40" width="10" height="10" fill="rgb(170,170,185)"/><rect x="320" y="40" width="10" height="10" fill="rgb(174,175,189)"/><rect x="330" y="40" width="10" height="10" fill="rgb(177,174,185)"/><rect x="340" y="40" width="10" height="10" fill="rgb(173,173,186)"/><rect x="350" y="40" width="10" height="10" fill="rgb(170,172,187)"/><rect x="360" y="40" width="10" height="10" fill="rgb(184,180,188)"/><rect x="370" y="40" width="10" height="10" fill="rgb(181,179,188)"/><rect x="380" y="40" width="10" height="10" fill="rgb(170,169,180)"/><rect x="390" y="40" width="10" height="10" fill="rgb(160,163,178)"/><rect x="400" y="40" width="10" height="10" fill="rgb(176,177,189)"/><rect x="410" y="40" width="10" height="10" fill="rgb(195,191,196)"/><rect x="420" y="40" width="10" height="10" fill="rgb(186,183,190)"/><rect x="430" y="40" width="10" height="10" fill="rgb(170,171,184)"/><rect x="440" y="40" width="10" height="10" fill="rgb(193,190,196)"/><rect x="450" y="40" width="10" height="10" fill="rgb(192,188,195)"/><rect x="460" y="40" width="10" height="10" fill="rgb(181,179,187)"/><rect x="470" y="40" width="10" height="10" fill="rgb(181,179,186)"/><rect x="0" y="50" width="10" height="10" fill="rgb(212,203,202)"/><rect x="10" y="50" width="10" height="10" fill="rgb(206,199,199)"/><rect x="20" y="50" width="10" height="10" fill="rgb(211,202,201)"/><rect x="30" y="50" width="10" height="10" fill="rgb(214,202,200)"/><rect x="40" y="50" width="10" height="10" fill="rgb(217,203,199)"/><rect x="50" y="50" width="10" height="10" fill="rgb(216,203,199)"/><rect x="60" y="50" width="10" height="10" fill="rgb(200,191,190)"/><rect x="70" y="50" width="10" height="10" fill="rgb(188,182,184)"/><rect x="80" y="50" width="10" height="10" fill="rgb(189,184,187)"/><rect x="90" y="50" width="10" height="10" fill="rgb(201,195,198)"/><rect x="100" y="50" width="10" height="10" fill="rgb(215,204,202)"/><rect x="110" y="50" width="10" height="10" fill="rgb(222,209,205)"/><rect x="120" y="50" width="10" height="10" fill="rgb(206,196,194)"/><rect x="130" y="50" width="10" height="10" fill="rgb(197,193,196)"/><rect x="140" y="50" width="10" height="10" fill="rgb(189,187,193)"/><rect x="150" y="50" width="10" height="10" fill="rgb(208,203,205)"/><rect x="160" y="50" width="10" height="10" fill="rgb(219,213,216)"/><rect x="170" y="50" width="10" height="10" fill="rgb(200,200,210)"/><rect x="180" y="50" width="10" height="10" fill="rgb(199,200,212)"/><rect x="190" y="50" width="10" height="10" fill="rgb(225,217,220)"/><rect x="200" y="50" width="10" height="10" fill="rgb(190,192,206)"/><rect x="210" y="50" width="10" height="10" fill="rgb(201,199,209)"/><rect x="220" y="50" width="10" height="10" fill="rgb(191,191,205)"/><rect x="230" y="50" width="10" height="10" fill="rgb(209,204,212)"/><rect x="240" y="50" width="10" height="10" fill="rgb(214,209,214)"/><rect x="250" y="50" width="10" height="10" fill="rgb(175,182,204)"/><rect x="260" y="50" width="10" height="10" fill="rgb(167,177,198)"/><rect x="270" y="50" width="10" height="10" fill="rgb(161,172,199)"/><rect x="280" y="50" width="10" height="10" fill="rgb(163,173,199)"/><rect x="290" y="50" width="10" height="10" fill="rgb(159,170,196)"/><rect x="300" y="50" width="10" height="10" fill="rgb(163,174,198)"/><rect x="310" y="50" width="10" height="10" fill="rgb(166,175,197)"/><rect x="320" y="50" width="10" height="10" fill="rgb(172,180,198)"/><rect x="330" y="50" width="10" height="10" fill="rgb(157,169,195)"/><rect x="340" y="50" width="10" height="10" fill="rgb(175,180,198)"/><rect x="350" y="50" width="10" height="10" fill="rgb(178,182,199)"/><rect x="360" y="50" width="10" height="10" fill="rgb(169,176,196)"/><rect x="370" y="50" width="10" height="10" fill="rgb(162,172,193)"/><rect x="380" y="50" width="10" height="10" fill="rgb(172,177,194)"/><rect x="390" y="50" width="10" height="10" fill="rgb(152,164,190)"/><rect x="400" y="50" width="10" height="10" fill="rgb(194,191,196)"/><rect x="410" y="50" width="10" height="10" fill="rgb(168,175,193)"/><rect x="420" y="50" width="10" height="10" fill="rgb(140,157,186)"/><rect x="430" y="50" width="10" height="10" fill="rgb(138,156,187)"/><rect x="440" y="50" width="10" height="10" fill="rgb(132,153,186)"/><rect x="450" y="50" width="10" height="10" fill="rgb(131,152,186)"/><rect x="460" y="50" width="10" height="10" fill="rgb(128,152,187)"/><rect x="470" y="50" width="10" height="10" fill="rgb(126,150,186)"/><rect x="0" y="60" width="10" height="10" fill="rgb(125,149,187)"/><rect x="10" y="60" width="10" height="10" fill="rgb(125,149,186)"/><rect x="20" y="60" width="10" height="10" fill="rgb(126,149,186)"/><rect x="30" y="60" width="10" height="10" fill="rgb(124,148,185)"/><rect x="40" y="60" width="10" height="10" fill="rgb(121,146,184)"/><rect x="50" y="60" width="10" height="10" fill="rgb(120,145,184)"/><rect x="60" y="60" width="10" height="10" fill="rgb(121,145,183)"/><rect x="70" y="60" width="10" height="10" fill="rgb(121,145,183)"/><rect x="80" y="60" width="10" height="10" fill="rgb(120,143,182)"/><rect x="90" y="60" width="10" height="10" fill="rgb(120,145,182)"/><rect x="100" y="60" width="10" height="10" fill="rgb(124,147,182)"/><rect x="110" y="60" width="10" height="10" fill="rgb(124,147,182)"/><rect x="120" y="60" width="10" height="10" fill="rgb(119,143,182)"/><rect x="130" y="60" width="10" height="10" fill="rgb(120,145,181)"/><rect x="140" y="60" width="10" height="10" fill="rgb(121,145,181)"/><rect x="150" y="60" width="10" height="10" fill="rgb(121,145,181)"/><rect x="160" y="60" width="10" height="10" fill="rgb(121,145,180)"/><rect x="170" y="60" width="10" height="10" fill="rgb(121,145,180)"/><rect x="180" y="60" width="10" height="10" fill="rgb(123,146,179)"/><rect x="190" y="60" width="10" height="10" fill="rgb(128,147,178)"/><rect x="200" y="60" width="10" height="10" fill="rgb(118,142,179)"/><rect x="210" y="60" width="10" height="10" fill="rgb(115,139,177)"/><rect x="220" y="60" width="10" height="10" fill="rgb(117,141,176)"/><rect x="230" y="60" width="10" height="10" fill="rgb(125,145,175)"/><rect x="240" y="60" width="10" height="10" fill="rgb(130,148,176)"/><rect x="250" y="60" width="10" height="10" fill="rgb(131,148,176)"/></svg>