<svg xmlns="http://www.w3.org/2000/svg" width="480" height="70"><rect x="0" y="0" width="10" height="10" fill="rgb(255,255,255)"/><rect x="10" y="0" width="10" height="10" fill="rgb(249,252,254)"/><rect x="20" y="0" width="10" height="10" fill="rgb(247,246,254)"/><rect x="30" y="0" width="10" height="10" fill="rgb(218,225,251)"/><rect x="40" y="0" width="10" height="10" fill="rgb(253,255,255)"/><rect x="50" y="0" width="10" height="10" fill="rgb(253,255,255)"/><rect x="60" y="0" width="10" height="10" fill="rgb(251,254,255)"/><rect x="70" y="0" width="10" height="10" fill="rgb(180,188,210)"/><rect x="80" y="0" width="10" height="10" fill="rgb(253,255,255)"/><rect x="90" y="0" width="10" height="10" fill="rgb(181,189,206)"/><rect x="100" y="0" width="10" height="10" fill="rgb(253,255,255)"/><rect x="110" y="0" width="10" height="10" fill="rgb(253,255,255)"/><rect x="120" y="0" width="10" height="10" fill="rgb(248,252,255)"/><rect x="130" y="0" width="10" height="10" fill="rgb(251,254,255)"/><rect x="140" y="0" width="10" height="10" fill="rgb(253,255,255)"/><rect x="150" y="0" width="10" height="10" fill="rgb(253,255,255)"/><rect x="160" y="0" width="10" height="10" fill="rgb(252,255,255)"/><rect x="170" y="0" width="10" height="10" fill="rgb(249,252,254)"/><rect x="180" y="0" width="10" height="10" fill="rgb(254,255,255)"/><rect x="190" y="0" width="10" height="10" fill="rgb(249,251,254)"/><rect x="200" y="0" width="10" height="10" fill="rgb(156,189,244)"/><rect x="210" y="0" width="10" height="10" fill="rgb(132,168,227)"/><rect x="220" y="0" width="10" height="10" fill="rgb(249,253,255)"/><rect x="230" y="0" width="10" height="10" fill="rgb(250,253,255)"/><rect x="240" y="0" width="10" height="10" fill="rgb(131,169,236)"/><rect x="250" y="0" width="10" height="10" fill="rgb(131,169,237)"/><rect x="260" y="0" width="10" height="10" fill="rgb(129,167,233)"/><rect x="270" y="0" width="10" height="10" fill="rgb(127,165,228)"/><rect x="280" y="0" width="10" height="10" fill="rgb(124,162,224)"/><rect x="290" y="0" width="10" height="10" fill="rgb(124,162,222)"/><rect x="300" y="0" width="10" height="10" fill="rgb(117,153,212)"/><rect x="310" y="0" width="10" height="10" fill="rgb(114,150,206)"/><rect x="320" y="0" width="10" height="10" fill="rgb(120,155,209)"/><rect x="330" y="0" width="10" height="10" fill="rgb(120,157,213)"/><rect x="340" y="0" width="10" height="10" fill="rgb(117,153,208)"/><rect x="350" y="0" width="10" height="10" fill="rgb(106,141,194)"/><rect x="360" y="0" width="10" height="10" fill="rgb(168,187,221)"/><rect x="370" y="0" width="10" height="10" fill="rgb(222,228,249)"/><rect x="380" y="0" width="10" height="10" fill="rgb(157,176,218)"/><rect x="390" y="0" width="10" height="10" fill="rgb(108,140,188)"/><rect x="400" y="0" width="10" height="10" fill="rgb(111,141,187)"/><rect x="410" y="0" width="10" height="10" fill="rgb(97,132,182)"/><rect x="420" y="0" width="10" height="10" fill="rgb(93,128,178)"/><rect x="430" y="0" width="10" height="10" fill="rgb(91,125,174)"/><rect x="440" y="0" width="10" height="10" fill="rgb(99,132,180)"/><rect x="450" y="0" width="10" height="10" fill="rgb(100,134,184)"/><rect x="460" y="0" width="10" height="10" fill="rgb(103,134,180)"/><rect x="470" y="0" width="10" height="10" fill="rgb(249,252,254)"/><rect x="0" y="10" width="10" height="10" fill="rgb(246,245,254)"/><rect x="10" y="10" width="10" height="10" fill="rgb(231,232,250)"/><rect x="20" y="10" width="10" height="10" fill="rgb(209,215,233)"/><rect x="30" y="10" width="10" height="10" fill="rgb(199,207,226)"/><rect x="40" y="10" width="10" height="10" fill="rgb(175,185,209)"/><rect x="50" y="10" width="10" height="10" fill="rgb(169,182,212)"/><rect x="60" y="10" width="10" height="10" fill="rgb(172,184,215)"/><rect x="70" y="10" width="10" height="10" fill="rgb(148,168,204)"/><rect x="80" y="10" width="10" height="10" fill="rgb(196,205,228)"/><rect x="90" y="10" width="10" height="10" fill="rgb(229,230,244)"/><rect x="100" y="10" width="10" height="10" fill="rgb(191,196,214)"/><rect x="110" y="10" width="10" height="10" fill="rgb(191,195,212)"/><rect x="120" y="10" width="10" height="10" fill="rgb(184,191,212)"/><rect x="130" y="10" width="10" height="10" fill="rgb(167,173,188)"/><rect x="140" y="10" width="10" height="10" fill="rgb(152,160,174)"/><rect x="150" y="10" width="10" height="10" fill="rgb(186,192,208)"/><rect x="160" y="10" width="10" height="10" fill="rgb(214,212,226)"/><rect x="170" y="10" width="10" height="10" fill="rgb(94,118,151)"/><rect x="180" y="10" width="10" height="10" fill="rgb(106,125,153)"/><rect x="190" y="10" width="10" height="10" fill="rgb(111,124,145)"/><rect x="200" y="10" width="10" height="10" fill="rgb(120,131,151)"/><rect x="210" y="10" width="10" height="10" fill="rgb(140,148,160)"/><rect x="220" y="10" width="10" height="10" fill="rgb(134,142,156)"/><rect x="230" y="10" width="10" height="10" fill="rgb(92,105,122)"/><rect x="240" y="10" width="10" height="10" fill="rgb(130,130,130)"/><rect x="250" y="10" width="10" height="10" fill="rgb(136,146,164)"/><rect x="260" y="10" width="10" height="10" fill="rgb(64,97,142)"/><rect x="270" y="10" width="10" height="10" fill="rgb(90,111,143)"/><rect x="280" y="10" width="10" height="10" fill="rgb(139,144,157)"/><rect x="290" y="10" width="10" height="10" fill="rgb(212,207,218)"/><rect x="300" y="10" width="10" height="10" fill="rgb(97,130,173)"/><rect x="310" y="10" width="10" height="10" fill="rgb(125,148,186)"/><rect x="320" y="10" width="10" height="10" fill="rgb(87,126,176)"/><rect x="330" y="10" width="10" height="10" fill="rgb(99,134,182)"/><rect x="340" y="10" width="10" height="10" fill="rgb(70,110,160)"/><rect x="350" y="10" width="10" height="10" fill="rgb(164,177,209)"/><rect x="360" y="10" width="10" height="10" fill="rgb(105,138,184)"/><rect x="370" y="10" width="10" height="10" fill="rgb(71,109,156)"/><rect x="380" y="10" width="10" height="10" fill="rgb(70,109,157)"/><rect x="390" y="10" width="10" height="10" fill="rgb(73,113,162)"/><rect x="400" y="10" width="10" height="10" fill="rgb(174,180,204)"/><rect x="410" y="10" width="10" height="10" fill="rgb(140,159,192)"/><rect x="420" y="10" width="10" height="10" fill="rgb(162,169,183)"/><rect x="430" y="10" width="10" height="10" fill="rgb(143,160,191)"/><rect x="440" y="10" width="10" height="10" fill="rgb(130,151,187)"/><rect x="450" y="10" width="10" height="10" fill="rgb(105,136,177)"/><rect x="460" y="10" width="10" height="10" fill="rgb(120,144,181)"/><rect x="470" y="10" width="10" height="10" fill="rgb(111,133,166)"/><rect x="0" y="20" width="10" height="10" fill="rgb(142,164,202)"/><rect x="10" y="20" width="10" height="10" fill="rgb(150,169,204)"/><rect x="20" y="20" width="10" height="10" fill="rgb(138,167,211)"/><rect x="30" y="20" width="10" height="10" fill="rgb(145,176,225)"/><rect x="40" y="20" width="10" height="10" fill="rgb(149,181,231)"/><rect x="50" y="20" width="10" height="10" fill="rgb(152,183,232)"/><rect x="60" y="20" width="10" height="10" fill="rgb(153,184,234)"/><rect x="70" y="20" width="10" height="10" fill="rgb(152,184,234)"/><rect x="80" y="20" width="10" height="10" fill="rgb(150,184,235)"/><rect x="90" y="20" width="10" height="10" fill="rgb(151,185,237)"/><rect x="100" y="20" width="10" height="10" fill="rgb(155,187,238)"/><rect x="110" y="20" width="10" height="10" fill="rgb(154,186,240)"/><rect x="120" y="20" width="10" height="10" fill="rgb(143,175,228)"/><rect x="130" y="20" width="10" height="10" fill="rgb(130,171,227)"/><rect x="140" y="20" width="10" height="10" fill="rgb(122,165,226)"/><rect x="150" y="20" width="10" height="10" fill="rgb(114,162,223)"/><rect x="160" y="20" width="10" height="10" fill="rgb(103,144,197)"/><rect x="170" y="20" width="10" height="10" fill="rgb(84,129,183)"/><rect x="180" y="20" width="10" height="10" fill="rgb(75,116,168)"/><rect x="190" y="20" width="10" height="10" fill="rgb(56,92,139)"/><rect x="200" y="20" width="10" height="10" fill="rgb(46,69,102)"/><rect x="210" y="20" width="10" height="10" fill="rgb(40,40,40)"/><rect x="220" y="20" width="10" height="10" fill="rgb(37,37,37)"/><rect x="230" y="20" width="10" height="10" fill="rgb(32,32,32)"/><rect x="240" y="20" width="10" height="10" fill="rgb(30,30,30)"/><rect x="250" y="20" width="10" height="10" fill="rgb(28,28,28)"/><rect x="260" y="20" width="10" height="10" fill="rgb(28,28,28)"/><rect x="270" y="20" width="10" height="10" fill="rgb(28,28,28)"/><rect x="280" y="20" width="10" height="10" fill="rgb(28,28,28)"/><rect x="290" y="20" width="10" height="10" fill="rgb(29,29,29)"/><rect x="300" y="20" width="10" height="10" fill="rgb(29,29,29)"/><rect x="310" y="20" width="10" height="10" fill="rgb(30,30,30)"/><rect x="320" y="20" width="10" height="10" fill="rgb(29,29,29)"/><rect x="330" y="20" width="10" height="10" fill="rgb(26,26,26)"/><rect x="340" y="20" width="10" height="10" fill="rgb(26,26,26)"/><rect x="350" y="20" width="10" height="10" fill="rgb(28,28,28)"/><rect x="360" y="20" width="10" height="10" fill="rgb(27,27,27)"/><rect x="370" y="20" width="10" height="10" fill="rgb(30,30,30)"/><rect x="380" y="20" width="10" height="10" fill="rgb(30,30,30)"/><rect x="390" y="20" width="10" height="10" fill="rgb(28,28,28)"/><rect x="400" y="20" width="10" height="10" fill="rgb(31,31,31)"/><rect x="410" y="20" width="10" height="10" fill="rgb(30,30,30)"/><rect x="420" y="20" width="10" height="10" fill="rgb(29,29,29)"/><rect x="430" y="20" width="10" height="10" fill="rgb(29,29,29)"/><rect x="440" y="20" width="10" height="10" fill="rgb(30,30,30)"/><rect x="450" y="20" width="10" height="10" fill="rgb(30,30,30)"/><rect x="460" y="20" width="10" height="10" fill="rgb(27,27,27)"/><rect x="470" y="20" width="10" height="10" fill="rgb(27,27,27)"/><rect x="0" y="30" width="10" height="10" fill="rgb(28,28,28)"/><rect x="10" y="30" width="10" height="10" fill="rgb(28,28,28)"/><rect x="20" y="30" width="10" height="10" fill="rgb(28,28,28)"/><rect x="30" y="30" width="10" height="10" fill="rgb(27,27,27)"/><rect x="40" y="30" width="10" height="10" fill="rgb(27,27,27)"/><rect x="50" y="30" width="10" height="10" fill="rgb(29,29,29)"/><rect x="60" y="30" width="10" height="10" fill="rgb(29,29,29)"/><rect x="70" y="30" width="10" height="10" fill="rgb(27,27,27)"/><rect x="80" y="30" width="10" height="10" fill="rgb(29,29,29)"/><rect x="90" y="30" width="10" height="10" fill="rgb(27,27,27)"/><rect x="100" y="30" width="10" height="10" fill="rgb(28,28,28)"/><rect x="110" y="30" width="10" height="10" fill="rgb(31,31,31)"/><rect x="120" y="30" width="10" height="10" fill="rgb(29,29,29)"/><rect x="130" y="30" width="10" height="10" fill="rgb(30,30,30)"/><rect x="140" y="30" width="10" height="10" fill="rgb(29,29,29)"/><rect x="150" y="30" width="10" height="10" fill="rgb(28,28,28)"/><rect x="160" y="30" width="10" height="10" fill="rgb(28,28,28)"/><rect x="170" y="30" width="10" height="10" fill="rgb(26,26,26)"/><rect x="180" y="30" width="10" height="10" fill="rgb(25,25,25)"/><rect x="190" y="30" width="10" height="10" fill="rgb(25,25,25)"/><rect x="200" y="30" width="10" height="10" fill="rgb(24,24,24)"/><rect x="210" y="30" width="10" height="10" fill="rgb(25,25,25)"/><rect x="220" y="30" width="10" height="10" fill="rgb(25,25,25)"/><rect x="230" y="30" width="10" height="10" fill="rgb(25,25,25)"/><rect x="240" y="30" width="10" height="10" fill="rgb(27,27,27)"/><rect x="250" y="30" width="10" height="10" fill="rgb(131,131,131)"/><rect x="260" y="30" width="10" height="10" fill="rgb(27,27,27)"/><rect x="270" y="30" width="10" height="10" fill="rgb(28,28,28)"/><rect x="280" y="30" width="10" height="10" fill="rgb(28,28,28)"/><rect x="290" y="30" width="10" height="10" fill="rgb(29,29,29)"/><rect x="300" y="30" width="10" height="10" fill="rgb(28,28,28)"/><rect x="310" y="30" width="10" height="10" fill="rgb(32,32,32)"/><rect x="320" y="30" width="10" height="10" fill="rgb(29,29,29)"/><rect x="330" y="30" width="10" height="10" fill="rgb(29,29,29)"/><rect x="340" y="30" width="10" height="10" fill="rgb(28,28,28)"/><rect x="350" y="30" width="10" height="10" fill="rgb(25,25,25)"/><rect x="360" y="30" width="10" height="10" fill="rgb(26,26,26)"/><rect x="370" y="30" width="10" height="10" fill="rgb(26,26,26)"/><rect x="380" y="30" width="10" height="10" fill="rgb(26,26,26)"/><rect x="390" y="30" width="10" height="10" fill="rgb(26,26,26)"/><rect x="400" y="30" width="10" height="10" fill="rgb(26,26,26)"/><rect x="410" y="30" width="10" height="10" fill="rgb(26,26,26)"/><rect x="420" y="30" width="10" height="10" fill="rgb(26,26,26)"/><rect x="430" y="30" width="10" height="10" fill="rgb(26,26,26)"/><rect x="440" y="30" width="10" height="10" fill="rgb(27,27,27)"/><rect x="450" y="30" width="10" height="10" fill="rgb(27,27,27)"/><rect x="460" y="30" width="10" height="10" fill="rgb(27,27,27)"/><rect x="470" y="30" width="10" height="10" fill="rgb(27,27,27)"/><rect x="0" y="40" width="10" height="10" fill="rgb(27,27,27)"/><rect x="10" y="40" width="10" height="10" fill="rgb(27,27,27)"/><rect x="20" y="40" width="10" height="10" fill="rgb(27,27,27)"/><rect x="30" y="40" width="10" height="10" fill="rgb(27,27,27)"/><rect x="40" y="40" width="10" height="10" fill="rgb(27,27,27)"/><rect x="50" y="40" width="10" height="10" fill="rgb(27,27,27)"/><rect x="60" y="40" width="10" height="10" fill="rgb(27,27,27)"/><rect x="70" y="40" width="10" height="10" fill="rgb(26,26,26)"/><rect x="80" y="40" width="10" height="10" fill="rgb(26,26,26)"/><rect x="90" y="40" width="10" height="10" fill="rgb(26,26,26)"/><rect x="100" y="40" width="10" height="10" fill="rgb(26,26,26)"/><rect x="110" y="40" width="10" height="10" fill="rgb(26,26,26)"/><rect x="120" y="40" width="10" height="10" fill="rgb(28,28,28)"/><rect x="130" y="40" width="10" height="10" fill="rgb(29,29,29)"/><rect x="140" y="40" width="10" height="10" fill="rgb(33,33,33)"/><rect x="150" y="40" width="10" height="10" fill="rgb(37,37,37)"/><rect x="160" y="40" width="10" height="10" fill="rgb(44,44,44)"/><rect x="170" y="40" width="10" height="10" fill="rgb(54,54,54)"/><rect x="180" y="40" width="10" height="10" fill="rgb(73,73,73)"/><rect x="190" y="40" width="10" height="10" fill="rgb(110,110,110)"/><rect x="200" y="40" width="10" height="10" fill="rgb(163,163,163)"/><rect x="210" y="40" width="10" height="10" fill="rgb(198,198,198)"/><rect x="220" y="40" width="10" height="10" fill="rgb(216,216,216)"/><rect x="230" y="40" width="10" height="10" fill="rgb(203,230,254)"/><rect x="240" y="40" width="10" height="10" fill="rgb(200,221,254)"/><rect x="250" y="40" width="10" height="10" fill="rgb(187,207,253)"/><rect x="260" y="40" width="10" height="10" fill="rgb(182,202,246)"/><rect x="270" y="40" width="10" height="10" fill="rgb(196,215,250)"/><rect x="280" y="40" width="10" height="10" fill="rgb(169,185,230)"/><rect x="290" y="40" width="10" height="10" fill="rgb(189,200,240)"/><rect x="300" y="40" width="10" height="10" fill="rgb(199,208,243)"/><rect x="310" y="40" width="10" height="10" fill="rgb(210,221,250)"/><rect x="320" y="40" width="10" height="10" fill="rgb(217,227,251)"/><rect x="330" y="40" width="10" height="10" fill="rgb(227,231,251)"/><rect x="340" y="40" width="10" height="10" fill="rgb(220,228,252)"/><rect x="350" y="40" width="10" height="10" fill="rgb(217,227,254)"/><rect x="360" y="40" width="10" height="10" fill="rgb(221,230,254)"/><rect x="370" y="40" width="10" height="10" fill="rgb(213,224,254)"/><rect x="380" y="40" width="10" height="10" fill="rgb(199,218,254)"/><rect x="390" y="40" width="10" height="10" fill="rgb(202,221,254)"/><rect x="400" y="40" width="10" height="10" fill="rgb(206,226,254)"/><rect x="410" y="40" width="10" height="10" fill="rgb(211,230,254)"/><rect x="420" y="40" width="10" height="10" fill="rgb(220,237,254)"/><rect x="430" y="40" width="10" height="10" fill="rgb(210,230,254)"/><rect x="440" y="40" width="10" height="10" fill="rgb(201,222,254)"/><rect x="450" y="40" width="10" height="10" fill="rgb(190,215,254)"/><rect x="460" y="40" width="10" height="10" fill="rgb(188,215,254)"/><rect x="470" y="40" width="10" height="10" fill="rgb(179,211,254)"/><rect x="0" y="50" width="10" height="10" fill="rgb(180,210,254)"/><rect x="10" y="50" width="10" height="10" fill="rgb(169,202,254)"/><rect x="20" y="50" width="10" height="10" fill="rgb(155,191,251)"/><rect x="30" y="50" width="10" height="10" fill="rgb(147,184,246)"/><rect x="40" y="50" width="10" height="10" fill="rgb(144,182,245)"/><rect x="50" y="50" width="10" height="10" fill="rgb(142,180,246)"/><rect x="60" y="50" width="10" height="10" fill="rgb(142,180,247)"/><rect x="70" y="50" width="10" height="10" fill="rgb(139,178,244)"/><rect x="80" y="50" width="10" height="10" fill="rgb(138,176,241)"/><rect x="90" y="50" width="10" height="10" fill="rgb(139,177,241)"/><rect x="100" y="50" width="10" height="10" fill="rgb(142,180,243)"/><rect x="110" y="50" width="10" height="10" fill="rgb(144,181,244)"/><rect x="120" y="50" width="10" height="10" fill="rgb(144,182,246)"/><rect x="130" y="50" width="10" height="10" fill="rgb(141,180,245)"/><rect x="140" y="50" width="10" height="10" fill="rgb(141,179,245)"/><rect x="150" y="50" width="10" height="10" fill="rgb(144,182,247)"/><rect x="160" y="50" width="10" height="10" fill="rgb(145,183,248)"/><rect x="170" y="50" width="10" height="10" fill="rgb(147,184,250)"/><rect x="180" y="50" width="10" height="10" fill="rgb(145,183,249)"/><rect x="190" y="50" width="10" height="10" fill="rgb(145,183,250)"/><rect x="200" y="50" width="10" height="10" fill="rgb(147,185,252)"/><rect x="210" y="50" width="10" height="10" fill="rgb(148,186,253)"/><rect x="220" y="50" width="10" height="10" fill="rgb(150,188,253)"/><rect x="230" y="50" width="10" height="10" fill="rgb(153,191,254)"/><rect x="240" y="50" width="10" height="10" fill="rgb(154,193,254)"/><rect x="250" y="50" width="10" height="10" fill="rgb(158,195,254)"/><rect x="260" y="50" width="10" height="10" fill="rgb(160,197,254)"/><rect x="270" y="50" width="10" height="10" fill="rgb(164,200,254)"/><rect x="280" y="50" width="10" height="10" fill="rgb(167,203,254)"/><rect x="290" y="50" width="10" height="10" fill="rgb(167,202,254)"/><rect x="300" y="50" width="10" height="10" fill="rgb(171,206,254)"/><rect x="310" y="50" width="10" height="10" fill="rgb(175,209,254)"/><rect x="320" y="50" width="10" height="10" fill="rgb(176,210,254)"/><rect x="330" y="50" width="10" height="10" fill="rgb(182,214,254)"/><rect x="340" y="50" width="10" height="10" fill="rgb(188,217,254)"/><rect x="350" y="50" width="10" height="10" fill="rgb(196,223,254)"/><rect x="360" y="50" width="10" height="10" fill="rgb(198,224,254)"/><rect x="370" y="50" width="10" height="10" fill="rgb(197,223,254)"/><rect x="380" y="50" width="10" height="10" fill="rgb(205,229,254)"/><rect x="390" y="50" width="10" height="10" fill="rgb(209,233,254)"/><rect x="400" y="50" width="10" height="10" fill="rgb(218,238,254)"/><rect x="410" y="50" width="10" height="10" fill="rgb(221,241,254)"/><rect x="420" y="50" width="10" height="10" fill="rgb(227,244,254)"/><rect x="430" y="50" width="10" height="10" fill="rgb(221,240,254)"/><rect x="440" y="50" width="10" height="10" fill="rgb(234,246,254)"/><rect x="450" y="50" width="10" height="10" fill="rgb(238,248,254)"/><rect x="460" y="50" width="10" height="10" fill="rgb(241,249,254)"/><rect x="470" y="50" width="10" height="10" fill="rgb(232,245,254)"/><rect x="0" y="60" width="10" height="10" fill="rgb(238,247,254)"/><rect x="10" y="60" width="10" height="10" fill="rgb(233,244,254)"/><rect x="20" y="60" width="10" height="10" fill="rgb(245,253,255)"/><rect x="30" y="60" width="10" height="10" fill="rgb(250,254,253)"/><rect x="40" y="60" width="10" height="10" fill="rgb(130,130,130)"/><rect x="50" y="60" width="10" height="10" fill="rgb(130,130,130)"/><rect x="60" y="60" width="10" height="10" fill="rgb(251,255,254)"/><rect x="70" y="60" width="10" height="10" fill="rgb(248,253,254)"/><rect x="80" y="60" width="10" height="10" fill="rgb(242,252,254)"/><rect x="90" y="60" width="10" height="10" fill="rgb(250,254,254)"/><rect x="100" y="60" width="10" height="10" fill="rgb(253,255,255)"/><rect x="110" y="60" width="10" height="10" fill="rgb(250,254,253)"/><rect x="120" y="60" width="10" height="10" fill="rgb(253,255,255)"/><rect x="130" y="60" width="10" height="10" fill="rgb(253,255,255)"/><rect x="140" y="60" width="10" height="10" fill="rgb(253,255,255)"/><rect x="150" y="60" width="10" height="10" fill="rgb(252,255,254)"/><rect x="160" y="60" width="10" height="10" fill="rgb(253,255,255)"/><rect x="170" y="60" width="10" height="10" fill="rgb(251,255,254)"/><rect x="180" y="60" width="10" height="10" fill="rgb(253,255,255)"/><rect x="190" y="60" width="10" height="10" fill="rgb(252,255,254)"/><rect x="200" y="60" width="10" height="10" fill="rgb(250,254,253)"/></svg>