<svg xmlns="http://www.w3.org/2000/svg" width="100" height="260"><rect x="0" y="0" width="10" height="10" fill="rgb(140,147,147)"/><rect x="10" y="0" width="10" height="10" fill="rgb(140,147,147)"/><rect x="20" y="0" width="10" height="10" fill="rgb(122,128,127)"/><rect x="30" y="0" width="10" height="10" fill="rgb(122,128,127)"/><rect x="40" y="0" width="10" height="10" fill="rgb(127,132,131)"/><rect x="50" y="0" width="10" height="10" fill="rgb(127,132,131)"/><rect x="60" y="0" width="10" height="10" fill="rgb(127,132,131)"/><rect x="70" y="0" width="10" height="10" fill="rgb(132,137,136)"/><rect x="80" y="0" width="10" height="10" fill="rgb(132,137,136)"/><rect x="90" y="0" width="10" height="10" fill="rgb(138,143,141)"/><rect x="0" y="10" width="10" height="10" fill="rgb(138,143,141)"/><rect x="10" y="10" width="10" height="10" fill="rgb(141,145,143)"/><rect x="20" y="10" width="10" height="10" fill="rgb(141,145,143)"/><rect x="30" y="10" width="10" height="10" fill="rgb(137,142,140)"/><rect x="40" y="10" width="10" height="10" fill="rgb(137,142,140)"/><rect x="50" y="10" width="10" height="10" fill="rgb(137,142,139)"/><rect x="60" y="10" width="10" height="10" fill="rgb(137,142,139)"/><rect x="70" y="10" width="10" height="10" fill="rgb(137,142,139)"/><rect x="80" y="10" width="10" height="10" fill="rgb(113,116,113)"/><rect x="90" y="10" width="10" height="10" fill="rgb(113,116,113)"/><rect x="0" y="20" width="10" height="10" fill="rgb(119,123,122)"/><rect x="10" y="20" width="10" height="10" fill="rgb(119,123,122)"/><rect x="20" y="20" width="10" height="10" fill="rgb(103,106,105)"/><rect x="30" y="20" width="10" height="10" fill="rgb(103,106,105)"/><rect x="40" y="20" width="10" height="10" fill="rgb(103,106,105)"/><rect x="50" y="20" width="10" height="10" fill="rgb(109,112,112)"/><rect x="60" y="20" width="10" height="10" fill="rgb(109,112,112)"/><rect x="70" y="20" width="10" height="10" fill="rgb(117,121,120)"/><rect x="80" y="20" width="10" height="10" fill="rgb(117,121,120)"/><rect x="90" y="20" width="10" height="10" fill="rgb(115,118,117)"/><rect x="0" y="30" width="10" height="10" fill="rgb(115,118,117)"/><rect x="10" y="30" width="10" height="10" fill="rgb(105,110,112)"/><rect x="20" y="30" width="10" height="10" fill="rgb(105,110,112)"/><rect x="30" y="30" width="10" height="10" fill="rgb(110,115,115)"/><rect x="40" y="30" width="10" height="10" fill="rgb(110,115,115)"/><rect x="50" y="30" width="10" height="10" fill="rgb(110,115,115)"/><rect x="60" y="30" width="10" height="10" fill="rgb(81,89,95)"/><rect x="70" y="30" width="10" height="10" fill="rgb(81,89,95)"/><rect x="80" y="30" width="10" height="10" fill="rgb(99,104,105)"/><rect x="90" y="30" width="10" height="10" fill="rgb(99,104,105)"/><rect x="0" y="40" width="10" height="10" fill="rgb(123,125,124)"/><rect x="10" y="40" width="10" height="10" fill="rgb(123,125,124)"/><rect x="20" y="40" width="10" height="10" fill="rgb(117,119,118)"/><rect x="30" y="40" width="10" height="10" fill="rgb(117,119,118)"/><rect x="40" y="40" width="10" height="10" fill="rgb(115,120,123)"/><rect x="50" y="40" width="10" height="10" fill="rgb(115,120,123)"/><rect x="60" y="40" width="10" height="10" fill="rgb(115,120,123)"/><rect x="70" y="40" width="10" height="10" fill="rgb(101,107,114)"/><rect x="80" y="40" width="10" height="10" fill="rgb(101,107,114)"/><rect x="90" y="40" width="10" height="10" fill="rgb(104,110,121)"/><rect x="0" y="50" width="10" height="10" fill="rgb(104,110,121)"/><rect x="10" y="50" width="10" height="10" fill="rgb(95,104,113)"/><rect x="20" y="50" width="10" height="10" fill="rgb(95,104,113)"/><rect x="30" y="50" width="10" height="10" fill="rgb(58,71,81)"/><rect x="40" y="50" width="10" height="10" fill="rgb(58,71,81)"/><rect x="50" y="50" width="10" height="10" fill="rgb(58,71,81)"/><rect x="60" y="50" width="10" height="10" fill="rgb(18,27,39)"/><rect x="70" y="50" width="10" height="10" fill="rgb(18,27,39)"/><rect x="80" y="50" width="10" height="10" fill="rgb(4,4,5)"/><rect x="90" y="50" width="10" height="10" fill="rgb(4,4,5)"/><rect x="0" y="60" width="10" height="10" fill="rgb(3,4,4)"/><rect x="10" y="60" width="10" height="10" fill="rgb(3,4,4)"/><rect x="20" y="60" width="10" height="10" fill="rgb(5,5,5)"/><rect x="30" y="60" width="10" height="10" fill="rgb(5,5,5)"/><rect x="40" y="60" width="10" height="10" fill="rgb(4,4,4)"/><rect x="50" y="60" width="10" height="10" fill="rgb(4,4,4)"/><rect x="60" y="60" width="10" height="10" fill="rgb(4,4,4)"/><rect x="70" y="60" width="10" height="10" fill="rgb(5,5,5)"/><rect x="80" y="60" width="10" height="10" fill="rgb(5,5,5)"/><rect x="90" y="60" width="10" height="10" fill="rgb(3,3,3)"/><rect x="0" y="70" width="10" height="10" fill="rgb(3,3,3)"/><rect x="10" y="70" width="10" height="10" fill="rgb(4,4,4)"/><rect x="20" y="70" width="10" height="10" fill="rgb(4,4,4)"/><rect x="30" y="70" width="10" height="10" fill="rgb(3,3,3)"/><rect x="40" y="70" width="10" height="10" fill="rgb(3,3,3)"/><rect x="50" y="70" width="10" height="10" fill="rgb(3,3,3)"/><rect x="60" y="70" width="10" height="10" fill="rgb(3,3,3)"/><rect x="70" y="70" width="10" height="10" fill="rgb(3,3,3)"/><rect x="80" y="70" width="10" height="10" fill="rgb(3,4,4)"/><rect x="90" y="70" width="10" height="10" fill="rgb(3,4,4)"/><rect x="0" y="80" width="10" height="10" fill="rgb(2,3,3)"/><rect x="10" y="80" width="10" height="10" fill="rgb(2,3,3)"/><rect x="20" y="80" width="10" height="10" fill="rgb(2,3,3)"/><rect x="30" y="80" width="10" height="10" fill="rgb(2,3,3)"/><rect x="40" y="80" width="10" height="10" fill="rgb(2,3,3)"/><rect x="50" y="80" width="10" height="10" fill="rgb(2,3,3)"/><rect x="60" y="80" width="10" height="10" fill="rgb(2,3,3)"/><rect x="70" y="80" width="10" height="10" fill="rgb(3,3,3)"/><rect x="80" y="80" width="10" height="10" fill="rgb(3,3,3)"/><rect x="90" y="80" width="10" height="10" fill="rgb(3,3,3)"/><rect x="0" y="90" width="10" height="10" fill="rgb(3,3,3)"/><rect x="10" y="90" width="10" height="10" fill="rgb(4,4,4)"/><rect x="20" y="90" width="10" height="10" fill="rgb(4,4,4)"/><rect x="30" y="90" width="10" height="10" fill="rgb(7,7,7)"/><rect x="40" y="90" width="10" height="10" fill="rgb(7,7,7)"/><rect x="50" y="90" width="10" height="10" fill="rgb(4,4,4)"/><rect x="60" y="90" width="10" height="10" fill="rgb(4,4,4)"/><rect x="70" y="90" width="10" height="10" fill="rgb(4,4,4)"/><rect x="80" y="90" width="10" height="10" fill="rgb(4,4,4)"/><rect x="90" y="90" width="10" height="10" fill="rgb(5,5,5)"/><rect x="0" y="100" width="10" height="10" fill="rgb(5,5,5)"/><rect x="10" y="100" width="10" height="10" fill="rgb(10,10,10)"/><rect x="20" y="100" width="10" height="10" fill="rgb(10,10,10)"/><rect x="30" y="100" width="10" height="10" fill="rgb(7,7,7)"/><rect x="40" y="100" width="10" height="10" fill="rgb(7,7,7)"/><rect x="50" y="100" width="10" height="10" fill="rgb(11,11,9)"/><rect x="60" y="100" width="10" height="10" fill="rgb(11,11,9)"/><rect x="70" y="100" width="10" height="10" fill="rgb(11,11,9)"/><rect x="80" y="100" width="10" height="10" fill="rgb(9,9,8)"/><rect x="90" y="100" width="10" height="10" fill="rgb(9,9,8)"/><rect x="0" y="110" width="10" height="10" fill="rgb(8,8,8)"/><rect x="10" y="110" width="10" height="10" fill="rgb(8,8,8)"/><rect x="20" y="110" width="10" height="10" fill="rgb(12,13,10)"/><rect x="30" y="110" width="10" height="10" fill="rgb(12,13,10)"/><rect x="40" y="110" width="10" height="10" fill="rgb(5,5,5)"/><rect x="50" y="110" width="10" height="10" fill="rgb(5,5,5)"/><rect x="60" y="110" width="10" height="10" fill="rgb(3,3,3)"/><rect x="70" y="110" width="10" height="10" fill="rgb(3,3,3)"/><rect x="80" y="110" width="10" height="10" fill="rgb(1,1,1)"/><rect x="90" y="110" width="10" height="10" fill="rgb(1,1,1)"/><rect x="0" y="120" width="10" height="10" fill="rgb(3,3,3)"/><rect x="10" y="120" width="10" height="10" fill="rgb(3,3,3)"/><rect x="20" y="120" width="10" height="10" fill="rgb(2,2,2)"/><rect x="30" y="120" width="10" height="10" fill="rgb(2,2,2)"/><rect x="40" y="120" width="10" height="10" fill="rgb(1,1,1)"/><rect x="50" y="120" width="10" height="10" fill="rgb(1,1,1)"/><rect x="60" y="120" width="10" height="10" fill="rgb(1,1,1)"/><rect x="70" y="120" width="10" height="10" fill="rgb(1,1,1)"/><rect x="80" y="120" width="10" height="10" fill="rgb(1,1,1)"/><rect x="90" y="120" width="10" height="10" fill="rgb(1,1,1)"/><rect x="0" y="130" width="10" height="10" fill="rgb(1,1,1)"/><rect x="10" y="130" width="10" height="10" fill="rgb(1,1,1)"/><rect x="20" y="130" width="10" height="10" fill="rgb(1,1,1)"/><rect x="30" y="130" width="10" height="10" fill="rgb(1,1,1)"/><rect x="40" y="130" width="10" height="10" fill="rgb(1,1,1)"/><rect x="50" y="130" width="10" height="10" fill="rgb(1,1,1)"/><rect x="60" y="130" width="10" height="10" fill="rgb(1,1,1)"/><rect x="70" y="130" width="10" height="10" fill="rgb(1,1,1)"/><rect x="80" y="130" width="10" height="10" fill="rgb(1,1,1)"/><rect x="90" y="130" width="10" height="10" fill="rgb(1,1,1)"/><rect x="0" y="140" width="10" height="10" fill="rgb(1,1,1)"/><rect x="10" y="140" width="10" height="10" fill="rgb(1,1,1)"/><rect x="20" y="140" width="10" height="10" fill="rgb(1,1,1)"/><rect x="30" y="140" width="10" height="10" fill="rgb(1,1,1)"/><rect x="40" y="140" width="10" height="10" fill="rgb(1,1,1)"/><rect x="50" y="140" width="10" height="10" fill="rgb(1,1,1)"/><rect x="60" y="140" width="10" height="10" fill="rgb(1,1,1)"/><rect x="70" y="140" width="10" height="10" fill="rgb(1,1,1)"/><rect x="80" y="140" width="10" height="10" fill="rgb(1,2,7)"/><rect x="90" y="140" width="10" height="10" fill="rgb(1,2,7)"/><rect x="0" y="150" width="10" height="10" fill="rgb(1,2,7)"/><rect x="10" y="150" width="10" height="10" fill="rgb(3,12,29)"/><rect x="20" y="150" width="10" height="10" fill="rgb(3,12,29)"/><rect x="30" y="150" width="10" height="10" fill="rgb(23,36,52)"/><rect x="40" y="150" width="10" height="10" fill="rgb(23,36,52)"/><rect x="50" y="150" width="10" height="10" fill="rgb(95,106,132)"/><rect x="60" y="150" width="10" height="10" fill="rgb(95,106,132)"/><rect x="70" y="150" width="10" height="10" fill="rgb(95,106,132)"/><rect x="80" y="150" width="10" height="10" fill="rgb(120,124,138)"/><rect x="90" y="150" width="10" height="10" fill="rgb(120,124,138)"/><rect x="0" y="160" width="10" height="10" fill="rgb(156,154,158)"/><rect x="10" y="160" width="10" height="10" fill="rgb(156,154,158)"/><rect x="20" y="160" width="10" height="10" fill="rgb(181,180,170)"/><rect x="30" y="160" width="10" height="10" fill="rgb(181,180,170)"/><rect x="40" y="160" width="10" height="10" fill="rgb(135,137,130)"/><rect x="50" y="160" width="10" height="10" fill="rgb(135,137,130)"/><rect x="60" y="160" width="10" height="10" fill="rgb(131,136,132)"/><rect x="70" y="160" width="10" height="10" fill="rgb(131,136,132)"/><rect x="80" y="160" width="10" height="10" fill="rgb(131,136,132)"/><rect x="90" y="160" width="10" height="10" fill="rgb(126,131,129)"/><rect x="0" y="170" width="10" height="10" fill="rgb(126,131,129)"/><rect x="10" y="170" width="10" height="10" fill="rgb(124,130,132)"/><rect x="20" y="170" width="10" height="10" fill="rgb(124,130,132)"/><rect x="30" y="170" width="10" height="10" fill="rgb(118,124,125)"/><rect x="40" y="170" width="10" height="10" fill="rgb(118,124,125)"/><rect x="50" y="170" width="10" height="10" fill="rgb(104,114,120)"/><rect x="60" y="170" width="10" height="10" fill="rgb(104,114,120)"/><rect x="70" y="170" width="10" height="10" fill="rgb(103,112,117)"/><rect x="80" y="170" width="10" height="10" fill="rgb(103,112,117)"/><rect x="90" y="170" width="10" height="10" fill="rgb(103,112,117)"/><rect x="0" y="180" width="10" height="10" fill="rgb(111,118,120)"/><rect x="10" y="180" width="10" height="10" fill="rgb(111,118,120)"/><rect x="20" y="180" width="10" height="10" fill="rgb(124,129,130)"/><rect x="30" y="180" width="10" height="10" fill="rgb(124,129,130)"/><rect x="40" y="180" width="10" height="10" fill="rgb(107,115,120)"/><rect x="50" y="180" width="10" height="10" fill="rgb(107,115,120)"/><rect x="60" y="180" width="10" height="10" fill="rgb(110,115,116)"/><rect x="70" y="180" width="10" height="10" fill="rgb(110,115,116)"/><rect x="80" y="180" width="10" height="10" fill="rgb(113,120,124)"/><rect x="90" y="180" width="10" height="10" fill="rgb(113,120,124)"/><rect x="0" y="190" width="10" height="10" fill="rgb(113,120,124)"/><rect x="10" y="190" width="10" height="10" fill="rgb(104,111,116)"/><rect x="20" y="190" width="10" height="10" fill="rgb(104,111,116)"/><rect x="30" y="190" width="10" height="10" fill="rgb(104,111,115)"/><rect x="40" y="190" width="10" height="10" fill="rgb(104,111,115)"/><rect x="50" y="190" width="10" height="10" fill="rgb(105,112,115)"/><rect x="60" y="190" width="10" height="10" fill="rgb(105,112,115)"/><rect x="70" y="190" width="10" height="10" fill="rgb(100,109,114)"/><rect x="80" y="190" width="10" height="10" fill="rgb(100,109,114)"/><rect x="90" y="190" width="10" height="10" fill="rgb(98,108,116)"/><rect x="0" y="200" width="10" height="10" fill="rgb(98,108,116)"/><rect x="10" y="200" width="10" height="10" fill="rgb(97,109,118)"/><rect x="20" y="200" width="10" height="10" fill="rgb(97,109,118)"/><rect x="30" y="200" width="10" height="10" fill="rgb(96,107,117)"/><rect x="40" y="200" width="10" height="10" fill="rgb(96,107,117)"/><rect x="50" y="200" width="10" height="10" fill="rgb(105,114,120)"/><rect x="60" y="200" width="10" height="10" fill="rgb(105,114,120)"/><rect x="70" y="200" width="10" height="10" fill="rgb(102,114,122)"/><rect x="80" y="200" width="10" height="10" fill="rgb(102,114,122)"/><rect x="90" y="200" width="10" height="10" fill="rgb(99,113,125)"/><rect x="0" y="210" width="10" height="10" fill="rgb(99,113,125)"/><rect x="10" y="210" width="10" height="10" fill="rgb(97,111,121)"/><rect x="20" y="210" width="10" height="10" fill="rgb(97,111,121)"/><rect x="30" y="210" width="10" height="10" fill="rgb(99,113,124)"/><rect x="40" y="210" width="10" height="10" fill="rgb(99,113,124)"/><rect x="50" y="210" width="10" height="10" fill="rgb(99,113,124)"/><rect x="60" y="210" width="10" height="10" fill="rgb(101,115,126)"/><rect x="70" y="210" width="10" height="10" fill="rgb(101,115,126)"/><rect x="80" y="210" width="10" height="10" fill="rgb(103,116,126)"/><rect x="90" y="210" width="10" height="10" fill="rgb(103,116,126)"/><rect x="0" y="220" width="10" height="10" fill="rgb(99,111,119)"/><rect x="10" y="220" width="10" height="10" fill="rgb(99,111,119)"/><rect x="20" y="220" width="10" height="10" fill="rgb(95,107,116)"/><rect x="30" y="220" width="10" height="10" fill="rgb(95,107,116)"/><rect x="40" y="220" width="10" height="10" fill="rgb(95,108,117)"/><rect x="50" y="220" width="10" height="10" fill="rgb(95,108,117)"/><rect x="60" y="220" width="10" height="10" fill="rgb(95,108,117)"/><rect x="70" y="220" width="10" height="10" fill="rgb(95,108,117)"/><rect x="80" y="220" width="10" height="10" fill="rgb(95,108,117)"/><rect x="90" y="220" width="10" height="10" fill="rgb(96,108,117)"/><rect x="0" y="230" width="10" height="10" fill="rgb(96,108,117)"/><rect x="10" y="230" width="10" height="10" fill="rgb(98,110,117)"/><rect x="20" y="230" width="10" height="10" fill="rgb(98,110,117)"/><rect x="30" y="230" width="10" height="10" fill="rgb(100,111,118)"/><rect x="40" y="230" width="10" height="10" fill="rgb(100,111,118)"/><rect x="50" y="230" width="10" height="10" fill="rgb(100,111,118)"/><rect x="60" y="230" width="10" height="10" fill="rgb(103,114,121)"/><rect x="70" y="230" width="10" height="10" fill="rgb(103,114,121)"/><rect x="80" y="230" width="10" height="10" fill="rgb(109,119,125)"/><rect x="90" y="230" width="10" height="10" fill="rgb(109,119,125)"/><rect x="0" y="240" width="10" height="10" fill="rgb(107,118,125)"/><rect x="10" y="240" width="10" height="10" fill="rgb(107,118,125)"/><rect x="20" y="240" width="10" height="10" fill="rgb(107,118,125)"/><rect x="30" y="240" width="10" height="10" fill="rgb(107,118,125)"/><rect x="40" y="240" width="10" height="10" fill="rgb(110,120,127)"/><rect x="50" y="240" width="10" height="10" fill="rgb(110,120,127)"/><rect x="60" y="240" width="10" height="10" fill="rgb(110,120,127)"/><rect x="70" y="240" width="10" height="10" fill="rgb(112,122,128)"/><rect x="80" y="240" width="10" height="10" fill="rgb(112,122,128)"/><rect x="90" y="240" width="10" height="10" fill="rgb(114,124,130)"/><rect x="0" y="250" width="10" height="10" fill="rgb(114,124,130)"/><rect x="10" y="250" width="10" height="10" fill="rgb(117,126,131)"/><rect x="20" y="250" width="10" height="10" fill="rgb(117,126,131)"/><rect x="30" y="250" width="10" height="10" fill="rgb(117,126,131)"/><rect x="40" y="250" width="10" height="10" fill="rgb(122,130,134)"/><rect x="50" y="250" width="10" height="10" fill="rgb(122,130,134)"/><rect x="60" y="250" width="10" height="10" fill="rgb(128,135,135)"/><rect x="70" y="250" width="10" height="10" fill="rgb(133,140,140)"/><rect x="80" y="250" width="10" height="10" fill="rgb(133,140,140)"/></svg>