<svg xmlns="http://www.w3.org/2000/svg" width="480" height="20"><rect x="0" y="0" width="10" height="10" fill="rgb(175,179,196)"/><rect x="10" y="0" width="10" height="10" fill="rgb(183,184,200)"/><rect x="20" y="0" width="10" height="10" fill="rgb(176,180,197)"/><rect x="30" y="0" width="10" height="10" fill="rgb(113,154,199)"/><rect x="40" y="0" width="10" height="10" fill="rgb(118,158,203)"/><rect x="50" y="0" width="10" height="10" fill="rgb(119,158,203)"/><rect x="60" y="0" width="10" height="10" fill="rgb(120,159,204)"/><rect x="70" y="0" width="10" height="10" fill="rgb(121,160,205)"/><rect x="80" y="0" width="10" height="10" fill="rgb(122,161,205)"/><rect x="90" y="0" width="10" height="10" fill="rgb(123,161,206)"/><rect x="100" y="0" width="10" height="10" fill="rgb(123,162,207)"/><rect x="110" y="0" width="10" height="10" fill="rgb(123,162,207)"/><rect x="120" y="0" width="10" height="10" fill="rgb(124,163,207)"/><rect x="130" y="0" width="10" height="10" fill="rgb(124,163,208)"/><rect x="140" y="0" width="10" height="10" fill="rgb(125,163,208)"/><rect x="150" y="0" width="10" height="10" fill="rgb(126,164,207)"/><rect x="160" y="0" width="10" height="10" fill="rgb(126,164,208)"/><rect x="170" y="0" width="10" height="10" fill="rgb(130,165,208)"/><rect x="180" y="0" width="10" height="10" fill="rgb(134,166,207)"/><rect x="190" y="0" width="10" height="10" fill="rgb(131,165,207)"/><rect x="200" y="0" width="10" height="10" fill="rgb(131,165,207)"/><rect x="210" y="0" width="10" height="10" fill="rgb(129,164,207)"/><rect x="220" y="0" width="10" height="10" fill="rgb(130,165,207)"/><rect x="230" y="0" width="10" height="10" fill="rgb(131,166,208)"/><rect x="240" y="0" width="10" height="10" fill="rgb(133,167,209)"/><rect x="250" y="0" width="10" height="10" fill="rgb(134,168,209)"/><rect x="260" y="0" width="10" height="10" fill="rgb(136,168,209)"/><rect x="270" y="0" width="10" height="10" fill="rgb(138,170,210)"/><rect x="280" y="0" width="10" height="10" fill="rgb(135,168,209)"/><rect x="290" y="0" width="10" height="10" fill="rgb(136,169,209)"/><rect x="300" y="0" width="10" height="10" fill="rgb(137,170,211)"/><rect x="310" y="0" width="10" height="10" fill="rgb(138,169,209)"/><rect x="320" y="0" width="10" height="10" fill="rgb(137,169,209)"/><rect x="330" y="0" width="10" height="10" fill="rgb(139,170,210)"/><rect x="340" y="0" width="10" height="10" fill="rgb(138,168,207)"/><rect x="350" y="0" width="10" height="10" fill="rgb(142,170,207)"/><rect x="360" y="0" width="10" height="10" fill="rgb(142,170,206)"/><rect x="370" y="0" width="10" height="10" fill="rgb(140,169,207)"/><rect x="380" y="0" width="10" height="10" fill="rgb(140,169,206)"/><rect x="390" y="0" width="10" height="10" fill="rgb(143,172,209)"/><rect x="400" y="0" width="10" height="10" fill="rgb(140,169,207)"/><rect x="410" y="0" width="10" height="10" fill="rgb(141,169,207)"/><rect x="420" y="0" width="10" height="10" fill="rgb(141,170,208)"/><rect x="430" y="0" width="10" height="10" fill="rgb(141,170,208)"/><rect x="440" y="0" width="10" height="10" fill="rgb(142,171,207)"/><rect x="450" y="0" width="10" height="10" fill="rgb(142,171,209)"/><rect x="460" y="0" width="10" height="10" fill="rgb(140,170,208)"/><rect x="470" y="0" width="10" height="10" fill="rgb(157,176,205)"/><rect x="0" y="10" width="10" height="10" fill="rgb(155,175,204)"/><rect x="10" y="10" width="10" height="10" fill="rgb(152,175,205)"/><rect x="20" y="10" width="10" height="10" fill="rgb(150,174,205)"/></svg>