<svg xmlns="http://www.w3.org/2000/svg" width="480" height="70"><rect x="0" y="0" width="10" height="10" fill="rgb(166,174,192)"/><rect x="10" y="0" width="10" height="10" fill="rgb(173,176,191)"/><rect x="20" y="0" width="10" height="10" fill="rgb(178,179,191)"/><rect x="30" y="0" width="10" height="10" fill="rgb(111,153,196)"/><rect x="40" y="0" width="10" height="10" fill="rgb(118,158,201)"/><rect x="50" y="0" width="10" height="10" fill="rgb(119,158,201)"/><rect x="60" y="0" width="10" height="10" fill="rgb(120,159,202)"/><rect x="70" y="0" width="10" height="10" fill="rgb(121,159,202)"/><rect x="80" y="0" width="10" height="10" fill="rgb(122,160,203)"/><rect x="90" y="0" width="10" height="10" fill="rgb(123,161,203)"/><rect x="100" y="0" width="10" height="10" fill="rgb(123,161,204)"/><rect x="110" y="0" width="10" height="10" fill="rgb(123,162,205)"/><rect x="120" y="0" width="10" height="10" fill="rgb(124,162,205)"/><rect x="130" y="0" width="10" height="10" fill="rgb(124,163,205)"/><rect x="140" y="0" width="10" height="10" fill="rgb(124,163,205)"/><rect x="150" y="0" width="10" height="10" fill="rgb(126,163,204)"/><rect x="160" y="0" width="10" height="10" fill="rgb(126,163,204)"/><rect x="170" y="0" width="10" height="10" fill="rgb(130,164,205)"/><rect x="180" y="0" width="10" height="10" fill="rgb(134,165,203)"/><rect x="190" y="0" width="10" height="10" fill="rgb(137,166,203)"/><rect x="200" y="0" width="10" height="10" fill="rgb(128,163,204)"/><rect x="210" y="0" width="10" height="10" fill="rgb(129,163,203)"/><rect x="220" y="0" width="10" height="10" fill="rgb(128,163,203)"/><rect x="230" y="0" width="10" height="10" fill="rgb(129,163,204)"/><rect x="240" y="0" width="10" height="10" fill="rgb(132,165,205)"/><rect x="250" y="0" width="10" height="10" fill="rgb(131,164,205)"/><rect x="260" y="0" width="10" height="10" fill="rgb(151,172,203)"/><rect x="270" y="0" width="10" height="10" fill="rgb(158,176,203)"/><rect x="280" y="0" width="10" height="10" fill="rgb(131,164,204)"/><rect x="290" y="0" width="10" height="10" fill="rgb(137,166,204)"/><rect x="300" y="0" width="10" height="10" fill="rgb(134,166,205)"/><rect x="310" y="0" width="10" height="10" fill="rgb(135,164,203)"/><rect x="320" y="0" width="10" height="10" fill="rgb(131,162,202)"/><rect x="330" y="0" width="10" height="10" fill="rgb(133,164,203)"/><rect x="340" y="0" width="10" height="10" fill="rgb(130,160,199)"/><rect x="350" y="0" width="10" height="10" fill="rgb(130,160,199)"/><rect x="360" y="0" width="10" height="10" fill="rgb(132,161,198)"/><rect x="370" y="0" width="10" height="10" fill="rgb(131,160,198)"/><rect x="380" y="0" width="10" height="10" fill="rgb(132,161,197)"/><rect x="390" y="0" width="10" height="10" fill="rgb(135,164,200)"/><rect x="400" y="0" width="10" height="10" fill="rgb(132,161,197)"/><rect x="410" y="0" width="10" height="10" fill="rgb(132,160,197)"/><rect x="420" y="0" width="10" height="10" fill="rgb(132,160,197)"/><rect x="430" y="0" width="10" height="10" fill="rgb(132,161,197)"/><rect x="440" y="0" width="10" height="10" fill="rgb(132,161,196)"/><rect x="450" y="0" width="10" height="10" fill="rgb(132,161,197)"/><rect x="460" y="0" width="10" height="10" fill="rgb(129,159,196)"/><rect x="470" y="0" width="10" height="10" fill="rgb(135,161,195)"/><rect x="0" y="10" width="10" height="10" fill="rgb(129,158,194)"/><rect x="10" y="10" width="10" height="10" fill="rgb(129,158,193)"/><rect x="20" y="10" width="10" height="10" fill="rgb(129,159,192)"/><rect x="30" y="10" width="10" height="10" fill="rgb(128,157,190)"/><rect x="40" y="10" width="10" height="10" fill="rgb(131,159,190)"/><rect x="50" y="10" width="10" height="10" fill="rgb(127,155,188)"/><rect x="60" y="10" width="10" height="10" fill="rgb(128,156,187)"/><rect x="70" y="10" width="10" height="10" fill="rgb(131,157,186)"/><rect x="80" y="10" width="10" height="10" fill="rgb(128,156,186)"/><rect x="90" y="10" width="10" height="10" fill="rgb(126,154,185)"/><rect x="100" y="10" width="10" height="10" fill="rgb(125,153,185)"/><rect x="110" y="10" width="10" height="10" fill="rgb(125,153,185)"/><rect x="120" y="10" width="10" height="10" fill="rgb(126,154,186)"/><rect x="130" y="10" width="10" height="10" fill="rgb(123,152,185)"/><rect x="140" y="10" width="10" height="10" fill="rgb(123,152,185)"/><rect x="150" y="10" width="10" height="10" fill="rgb(124,153,186)"/><rect x="160" y="10" width="10" height="10" fill="rgb(124,153,186)"/><rect x="170" y="10" width="10" height="10" fill="rgb(121,150,184)"/><rect x="180" y="10" width="10" height="10" fill="rgb(121,150,183)"/><rect x="190" y="10" width="10" height="10" fill="rgb(121,150,183)"/><rect x="200" y="10" width="10" height="10" fill="rgb(121,150,183)"/><rect x="210" y="10" width="10" height="10" fill="rgb(120,150,182)"/><rect x="220" y="10" width="10" height="10" fill="rgb(120,149,182)"/><rect x="230" y="10" width="10" height="10" fill="rgb(119,148,182)"/><rect x="240" y="10" width="10" height="10" fill="rgb(118,148,181)"/><rect x="250" y="10" width="10" height="10" fill="rgb(120,150,183)"/><rect x="260" y="10" width="10" height="10" fill="rgb(117,147,180)"/><rect x="270" y="10" width="10" height="10" fill="rgb(116,146,181)"/><rect x="280" y="10" width="10" height="10" fill="rgb(116,146,181)"/><rect x="290" y="10" width="10" height="10" fill="rgb(116,147,182)"/><rect x="300" y="10" width="10" height="10" fill="rgb(116,147,182)"/><rect x="310" y="10" width="10" height="10" fill="rgb(116,147,182)"/><rect x="320" y="10" width="10" height="10" fill="rgb(117,148,183)"/><rect x="330" y="10" width="10" height="10" fill="rgb(117,148,183)"/><rect x="340" y="10" width="10" height="10" fill="rgb(117,148,184)"/><rect x="350" y="10" width="10" height="10" fill="rgb(117,149,184)"/><rect x="360" y="10" width="10" height="10" fill="rgb(119,149,184)"/><rect x="370" y="10" width="10" height="10" fill="rgb(120,151,185)"/><rect x="380" y="10" width="10" height="10" fill="rgb(121,151,185)"/><rect x="390" y="10" width="10" height="10" fill="rgb(122,152,185)"/><rect x="400" y="10" width="10" height="10" fill="rgb(123,153,186)"/><rect x="410" y="10" width="10" height="10" fill="rgb(125,155,187)"/><rect x="420" y="10" width="10" height="10" fill="rgb(126,155,186)"/><rect x="430" y="10" width="10" height="10" fill="rgb(129,157,186)"/><rect x="440" y="10" width="10" height="10" fill="rgb(131,158,186)"/><rect x="450" y="10" width="10" height="10" fill="rgb(134,160,186)"/><rect x="460" y="10" width="10" height="10" fill="rgb(140,163,187)"/><rect x="470" y="10" width="10" height="10" fill="rgb(143,165,188)"/><rect x="0" y="20" width="10" height="10" fill="rgb(145,165,187)"/><rect x="10" y="20" width="10" height="10" fill="rgb(146,167,187)"/><rect x="20" y="20" width="10" height="10" fill="rgb(151,168,185)"/><rect x="30" y="20" width="10" height="10" fill="rgb(151,168,184)"/><rect x="40" y="20" width="10" height="10" fill="rgb(155,170,182)"/><rect x="50" y="20" width="10" height="10" fill="rgb(162,171,179)"/><rect x="60" y="20" width="10" height="10" fill="rgb(162,171,180)"/><rect x="70" y="20" width="10" height="10" fill="rgb(162,171,180)"/><rect x="80" y="20" width="10" height="10" fill="rgb(160,170,180)"/><rect x="90" y="20" width="10" height="10" fill="rgb(158,168,180)"/><rect x="100" y="20" width="10" height="10" fill="rgb(155,165,179)"/><rect x="110" y="20" width="10" height="10" fill="rgb(151,161,177)"/><rect x="120" y="20" width="10" height="10" fill="rgb(140,154,175)"/><rect x="130" y="20" width="10" height="10" fill="rgb(124,147,173)"/><rect x="140" y="20" width="10" height="10" fill="rgb(109,138,171)"/><rect x="150" y="20" width="10" height="10" fill="rgb(86,123,175)"/><rect x="160" y="20" width="10" height="10" fill="rgb(66,105,163)"/><rect x="170" y="20" width="10" height="10" fill="rgb(48,84,139)"/><rect x="180" y="20" width="10" height="10" fill="rgb(46,70,113)"/><rect x="190" y="20" width="10" height="10" fill="rgb(44,57,86)"/><rect x="200" y="20" width="10" height="10" fill="rgb(43,50,76)"/><rect x="210" y="20" width="10" height="10" fill="rgb(45,48,67)"/><rect x="220" y="20" width="10" height="10" fill="rgb(45,45,59)"/><rect x="230" y="20" width="10" height="10" fill="rgb(45,46,55)"/><rect x="240" y="20" width="10" height="10" fill="rgb(44,45,52)"/><rect x="250" y="20" width="10" height="10" fill="rgb(43,44,50)"/><rect x="260" y="20" width="10" height="10" fill="rgb(43,44,49)"/><rect x="270" y="20" width="10" height="10" fill="rgb(43,44,48)"/><rect x="280" y="20" width="10" height="10" fill="rgb(43,44,48)"/><rect x="290" y="20" width="10" height="10" fill="rgb(43,44,48)"/><rect x="300" y="20" width="10" height="10" fill="rgb(44,44,48)"/><rect x="310" y="20" width="10" height="10" fill="rgb(44,44,48)"/><rect x="320" y="20" width="10" height="10" fill="rgb(44,45,49)"/><rect x="330" y="20" width="10" height="10" fill="rgb(46,47,50)"/><rect x="340" y="20" width="10" height="10" fill="rgb(43,44,48)"/><rect x="350" y="20" width="10" height="10" fill="rgb(43,44,48)"/><rect x="360" y="20" width="10" height="10" fill="rgb(45,46,50)"/><rect x="370" y="20" width="10" height="10" fill="rgb(45,46,50)"/><rect x="380" y="20" width="10" height="10" fill="rgb(43,44,48)"/><rect x="390" y="20" width="10" height="10" fill="rgb(44,45,49)"/><rect x="400" y="20" width="10" height="10" fill="rgb(49,49,53)"/><rect x="410" y="20" width="10" height="10" fill="rgb(47,47,51)"/><rect x="420" y="20" width="10" height="10" fill="rgb(47,47,50)"/><rect x="430" y="20" width="10" height="10" fill="rgb(47,48,52)"/><rect x="440" y="20" width="10" height="10" fill="rgb(47,48,51)"/><rect x="450" y="20" width="10" height="10" fill="rgb(45,45,49)"/><rect x="460" y="20" width="10" height="10" fill="rgb(44,45,48)"/><rect x="470" y="20" width="10" height="10" fill="rgb(49,50,52)"/><rect x="0" y="30" width="10" height="10" fill="rgb(48,49,51)"/><rect x="10" y="30" width="10" height="10" fill="rgb(49,49,53)"/><rect x="20" y="30" width="10" height="10" fill="rgb(52,52,55)"/><rect x="30" y="30" width="10" height="10" fill="rgb(51,51,54)"/><rect x="40" y="30" width="10" height="10" fill="rgb(48,48,52)"/><rect x="50" y="30" width="10" height="10" fill="rgb(45,46,50)"/><rect x="60" y="30" width="10" height="10" fill="rgb(42,43,46)"/><rect x="70" y="30" width="10" height="10" fill="rgb(42,43,46)"/><rect x="80" y="30" width="10" height="10" fill="rgb(43,43,47)"/><rect x="90" y="30" width="10" height="10" fill="rgb(46,47,50)"/><rect x="100" y="30" width="10" height="10" fill="rgb(52,52,54)"/><rect x="110" y="30" width="10" height="10" fill="rgb(53,53,55)"/><rect x="120" y="30" width="10" height="10" fill="rgb(54,54,56)"/><rect x="130" y="30" width="10" height="10" fill="rgb(53,53,56)"/><rect x="140" y="30" width="10" height="10" fill="rgb(54,54,56)"/><rect x="150" y="30" width="10" height="10" fill="rgb(55,55,57)"/><rect x="160" y="30" width="10" height="10" fill="rgb(54,54,55)"/><rect x="170" y="30" width="10" height="10" fill="rgb(54,54,56)"/><rect x="180" y="30" width="10" height="10" fill="rgb(53,53,56)"/><rect x="190" y="30" width="10" height="10" fill="rgb(54,53,56)"/><rect x="200" y="30" width="10" height="10" fill="rgb(54,53,57)"/><rect x="210" y="30" width="10" height="10" fill="rgb(53,53,56)"/><rect x="220" y="30" width="10" height="10" fill="rgb(54,53,57)"/><rect x="230" y="30" width="10" height="10" fill="rgb(54,53,56)"/><rect x="240" y="30" width="10" height="10" fill="rgb(55,54,57)"/><rect x="250" y="30" width="10" height="10" fill="rgb(54,53,57)"/><rect x="260" y="30" width="10" height="10" fill="rgb(55,53,57)"/><rect x="270" y="30" width="10" height="10" fill="rgb(54,53,56)"/><rect x="280" y="30" width="10" height="10" fill="rgb(54,53,56)"/><rect x="290" y="30" width="10" height="10" fill="rgb(54,53,56)"/><rect x="300" y="30" width="10" height="10" fill="rgb(53,53,56)"/><rect x="310" y="30" width="10" height="10" fill="rgb(54,54,56)"/><rect x="320" y="30" width="10" height="10" fill="rgb(54,54,57)"/><rect x="330" y="30" width="10" height="10" fill="rgb(55,54,57)"/><rect x="340" y="30" width="10" height="10" fill="rgb(54,54,56)"/><rect x="350" y="30" width="10" height="10" fill="rgb(54,54,57)"/><rect x="360" y="30" width="10" height="10" fill="rgb(54,53,57)"/><rect x="370" y="30" width="10" height="10" fill="rgb(53,53,56)"/><rect x="380" y="30" width="10" height="10" fill="rgb(53,53,55)"/><rect x="390" y="30" width="10" height="10" fill="rgb(54,53,56)"/><rect x="400" y="30" width="10" height="10" fill="rgb(52,52,56)"/><rect x="410" y="30" width="10" height="10" fill="rgb(51,51,55)"/><rect x="420" y="30" width="10" height="10" fill="rgb(49,49,53)"/><rect x="430" y="30" width="10" height="10" fill="rgb(47,47,52)"/><rect x="440" y="30" width="10" height="10" fill="rgb(50,49,54)"/><rect x="450" y="30" width="10" height="10" fill="rgb(49,49,53)"/><rect x="460" y="30" width="10" height="10" fill="rgb(51,50,55)"/><rect x="470" y="30" width="10" height="10" fill="rgb(48,48,53)"/><rect x="0" y="40" width="10" height="10" fill="rgb(48,48,53)"/><rect x="10" y="40" width="10" height="10" fill="rgb(48,48,52)"/><rect x="20" y="40" width="10" height="10" fill="rgb(46,46,51)"/><rect x="30" y="40" width="10" height="10" fill="rgb(46,46,51)"/><rect x="40" y="40" width="10" height="10" fill="rgb(46,46,51)"/><rect x="50" y="40" width="10" height="10" fill="rgb(46,46,51)"/><rect x="60" y="40" width="10" height="10" fill="rgb(46,46,50)"/><rect x="70" y="40" width="10" height="10" fill="rgb(46,46,51)"/><rect x="80" y="40" width="10" height="10" fill="rgb(46,46,50)"/><rect x="90" y="40" width="10" height="10" fill="rgb(46,46,50)"/><rect x="100" y="40" width="10" height="10" fill="rgb(46,47,51)"/><rect x="110" y="40" width="10" height="10" fill="rgb(45,46,51)"/><rect x="120" y="40" width="10" height="10" fill="rgb(46,47,53)"/><rect x="130" y="40" width="10" height="10" fill="rgb(48,48,56)"/><rect x="140" y="40" width="10" height="10" fill="rgb(51,52,58)"/><rect x="150" y="40" width="10" height="10" fill="rgb(53,53,61)"/><rect x="160" y="40" width="10" height="10" fill="rgb(54,55,64)"/><rect x="170" y="40" width="10" height="10" fill="rgb(53,55,71)"/><rect x="180" y="40" width="10" height="10" fill="rgb(53,58,79)"/><rect x="190" y="40" width="10" height="10" fill="rgb(55,63,91)"/><rect x="200" y="40" width="10" height="10" fill="rgb(58,74,111)"/><rect x="210" y="40" width="10" height="10" fill="rgb(65,90,141)"/><rect x="220" y="40" width="10" height="10" fill="rgb(87,114,168)"/><rect x="230" y="40" width="10" height="10" fill="rgb(108,136,184)"/><rect x="240" y="40" width="10" height="10" fill="rgb(126,148,189)"/><rect x="250" y="40" width="10" height="10" fill="rgb(143,160,192)"/><rect x="260" y="40" width="10" height="10" fill="rgb(155,164,191)"/><rect x="270" y="40" width="10" height="10" fill="rgb(158,165,189)"/><rect x="280" y="40" width="10" height="10" fill="rgb(161,165,185)"/><rect x="290" y="40" width="10" height="10" fill="rgb(163,165,182)"/><rect x="300" y="40" width="10" height="10" fill="rgb(166,170,185)"/><rect x="310" y="40" width="10" height="10" fill="rgb(170,176,191)"/><rect x="320" y="40" width="10" height="10" fill="rgb(167,175,192)"/><rect x="330" y="40" width="10" height="10" fill="rgb(164,174,194)"/><rect x="340" y="40" width="10" height="10" fill="rgb(164,173,191)"/><rect x="350" y="40" width="10" height="10" fill="rgb(170,176,191)"/><rect x="360" y="40" width="10" height="10" fill="rgb(170,176,193)"/><rect x="370" y="40" width="10" height="10" fill="rgb(166,175,193)"/><rect x="380" y="40" width="10" height="10" fill="rgb(168,176,194)"/><rect x="390" y="40" width="10" height="10" fill="rgb(165,173,191)"/><rect x="400" y="40" width="10" height="10" fill="rgb(174,179,194)"/><rect x="410" y="40" width="10" height="10" fill="rgb(174,179,194)"/><rect x="420" y="40" width="10" height="10" fill="rgb(173,179,196)"/><rect x="430" y="40" width="10" height="10" fill="rgb(173,182,200)"/><rect x="440" y="40" width="10" height="10" fill="rgb(168,178,199)"/><rect x="450" y="40" width="10" height="10" fill="rgb(168,177,197)"/><rect x="460" y="40" width="10" height="10" fill="rgb(167,176,195)"/><rect x="470" y="40" width="10" height="10" fill="rgb(165,175,195)"/><rect x="0" y="50" width="10" height="10" fill="rgb(153,165,188)"/><rect x="10" y="50" width="10" height="10" fill="rgb(144,159,186)"/><rect x="20" y="50" width="10" height="10" fill="rgb(138,154,181)"/><rect x="30" y="50" width="10" height="10" fill="rgb(144,160,187)"/><rect x="40" y="50" width="10" height="10" fill="rgb(151,165,191)"/><rect x="50" y="50" width="10" height="10" fill="rgb(156,168,191)"/><rect x="60" y="50" width="10" height="10" fill="rgb(155,169,194)"/><rect x="70" y="50" width="10" height="10" fill="rgb(148,169,198)"/><rect x="80" y="50" width="10" height="10" fill="rgb(153,170,196)"/><rect x="90" y="50" width="10" height="10" fill="rgb(143,162,190)"/><rect x="100" y="50" width="10" height="10" fill="rgb(145,165,193)"/><rect x="110" y="50" width="10" height="10" fill="rgb(151,167,193)"/><rect x="120" y="50" width="10" height="10" fill="rgb(146,166,195)"/><rect x="130" y="50" width="10" height="10" fill="rgb(150,168,195)"/><rect x="140" y="50" width="10" height="10" fill="rgb(156,171,196)"/><rect x="150" y="50" width="10" height="10" fill="rgb(163,172,193)"/><rect x="160" y="50" width="10" height="10" fill="rgb(169,174,190)"/><rect x="170" y="50" width="10" height="10" fill="rgb(160,170,192)"/><rect x="180" y="50" width="10" height="10" fill="rgb(155,163,183)"/><rect x="190" y="50" width="10" height="10" fill="rgb(139,151,175)"/><rect x="200" y="50" width="10" height="10" fill="rgb(147,158,180)"/><rect x="210" y="50" width="10" height="10" fill="rgb(148,160,183)"/><rect x="220" y="50" width="10" height="10" fill="rgb(131,143,167)"/><rect x="230" y="50" width="10" height="10" fill="rgb(150,155,171)"/><rect x="240" y="50" width="10" height="10" fill="rgb(155,159,175)"/><rect x="250" y="50" width="10" height="10" fill="rgb(172,173,184)"/><rect x="260" y="50" width="10" height="10" fill="rgb(165,168,183)"/><rect x="270" y="50" width="10" height="10" fill="rgb(173,174,187)"/><rect x="280" y="50" width="10" height="10" fill="rgb(172,174,189)"/><rect x="290" y="50" width="10" height="10" fill="rgb(160,174,198)"/><rect x="300" y="50" width="10" height="10" fill="rgb(173,177,192)"/><rect x="310" y="50" width="10" height="10" fill="rgb(170,175,191)"/><rect x="320" y="50" width="10" height="10" fill="rgb(167,176,195)"/><rect x="330" y="50" width="10" height="10" fill="rgb(164,176,198)"/><rect x="340" y="50" width="10" height="10" fill="rgb(136,163,199)"/><rect x="350" y="50" width="10" height="10" fill="rgb(146,173,206)"/><rect x="360" y="50" width="10" height="10" fill="rgb(160,176,201)"/><rect x="370" y="50" width="10" height="10" fill="rgb(147,163,191)"/><rect x="380" y="50" width="10" height="10" fill="rgb(153,166,190)"/><rect x="390" y="50" width="10" height="10" fill="rgb(153,170,196)"/><rect x="400" y="50" width="10" height="10" fill="rgb(147,172,201)"/><rect x="410" y="50" width="10" height="10" fill="rgb(125,155,193)"/><rect x="420" y="50" width="10" height="10" fill="rgb(141,167,201)"/><rect x="430" y="50" width="10" height="10" fill="rgb(128,159,196)"/><rect x="440" y="50" width="10" height="10" fill="rgb(129,159,197)"/><rect x="450" y="50" width="10" height="10" fill="rgb(129,160,197)"/><rect x="460" y="50" width="10" height="10" fill="rgb(129,160,197)"/><rect x="470" y="50" width="10" height="10" fill="rgb(129,159,196)"/><rect x="0" y="60" width="10" height="10" fill="rgb(130,160,197)"/><rect x="10" y="60" width="10" height="10" fill="rgb(131,161,197)"/><rect x="20" y="60" width="10" height="10" fill="rgb(133,162,197)"/><rect x="30" y="60" width="10" height="10" fill="rgb(134,163,198)"/><rect x="40" y="60" width="10" height="10" fill="rgb(136,164,197)"/><rect x="50" y="60" width="10" height="10" fill="rgb(137,164,197)"/><rect x="60" y="60" width="10" height="10" fill="rgb(137,164,198)"/><rect x="70" y="60" width="10" height="10" fill="rgb(137,164,196)"/><rect x="80" y="60" width="10" height="10" fill="rgb(137,164,197)"/><rect x="90" y="60" width="10" height="10" fill="rgb(138,166,198)"/><rect x="100" y="60" width="10" height="10" fill="rgb(139,166,198)"/><rect x="110" y="60" width="10" height="10" fill="rgb(141,167,198)"/><rect x="120" y="60" width="10" height="10" fill="rgb(143,168,199)"/><rect x="130" y="60" width="10" height="10" fill="rgb(143,168,198)"/><rect x="140" y="60" width="10" height="10" fill="rgb(148,169,197)"/><rect x="150" y="60" width="10" height="10" fill="rgb(152,171,198)"/><rect x="160" y="60" width="10" height="10" fill="rgb(153,172,198)"/><rect x="170" y="60" width="10" height="10" fill="rgb(156,171,195)"/><rect x="180" y="60" width="10" height="10" fill="rgb(158,172,196)"/><rect x="190" y="60" width="10" height="10" fill="rgb(160,173,196)"/><rect x="200" y="60" width="10" height="10" fill="rgb(161,173,195)"/><rect x="210" y="60" width="10" height="10" fill="rgb(165,174,194)"/><rect x="220" y="60" width="10" height="10" fill="rgb(166,175,193)"/></svg>