<svg xmlns="http://www.w3.org/2000/svg" width="100" height="270"><rect x="0" y="0" width="10" height="10" fill="rgb(187,184,192)"/><rect x="10" y="0" width="10" height="10" fill="rgb(168,161,174)"/><rect x="20" y="0" width="10" height="10" fill="rgb(132,127,146)"/><rect x="30" y="0" width="10" height="10" fill="rgb(132,136,156)"/><rect x="40" y="0" width="10" height="10" fill="rgb(102,124,167)"/><rect x="50" y="0" width="10" height="10" fill="rgb(80,100,163)"/><rect x="60" y="0" width="10" height="10" fill="rgb(64,79,136)"/><rect x="70" y="0" width="10" height="10" fill="rgb(48,59,101)"/><rect x="80" y="0" width="10" height="10" fill="rgb(31,37,56)"/><rect x="90" y="0" width="10" height="10" fill="rgb(27,27,27)"/><rect x="0" y="10" width="10" height="10" fill="rgb(16,16,16)"/><rect x="10" y="10" width="10" height="10" fill="rgb(11,11,11)"/><rect x="20" y="10" width="10" height="10" fill="rgb(10,10,10)"/><rect x="30" y="10" width="10" height="10" fill="rgb(9,9,9)"/><rect x="40" y="10" width="10" height="10" fill="rgb(14,14,14)"/><rect x="50" y="10" width="10" height="10" fill="rgb(13,13,13)"/><rect x="60" y="10" width="10" height="10" fill="rgb(12,12,12)"/><rect x="70" y="10" width="10" height="10" fill="rgb(13,13,13)"/><rect x="80" y="10" width="10" height="10" fill="rgb(14,14,14)"/><rect x="90" y="10" width="10" height="10" fill="rgb(14,14,14)"/><rect x="0" y="20" width="10" height="10" fill="rgb(15,15,15)"/><rect x="10" y="20" width="10" height="10" fill="rgb(11,11,11)"/><rect x="20" y="20" width="10" height="10" fill="rgb(10,10,10)"/><rect x="30" y="20" width="10" height="10" fill="rgb(12,12,12)"/><rect x="40" y="20" width="10" height="10" fill="rgb(11,11,11)"/><rect x="50" y="20" width="10" height="10" fill="rgb(13,13,13)"/><rect x="60" y="20" width="10" height="10" fill="rgb(28,28,28)"/><rect x="70" y="20" width="10" height="10" fill="rgb(16,16,16)"/><rect x="80" y="20" width="10" height="10" fill="rgb(12,12,12)"/><rect x="90" y="20" width="10" height="10" fill="rgb(12,12,12)"/><rect x="0" y="30" width="10" height="10" fill="rgb(13,13,13)"/><rect x="10" y="30" width="10" height="10" fill="rgb(14,14,14)"/><rect x="20" y="30" width="10" height="10" fill="rgb(19,19,19)"/><rect x="30" y="30" width="10" height="10" fill="rgb(15,15,15)"/><rect x="40" y="30" width="10" height="10" fill="rgb(13,13,13)"/><rect x="50" y="30" width="10" height="10" fill="rgb(14,14,14)"/><rect x="60" y="30" width="10" height="10" fill="rgb(14,14,14)"/><rect x="70" y="30" width="10" height="10" fill="rgb(16,16,16)"/><rect x="80" y="30" width="10" height="10" fill="rgb(18,18,18)"/><rect x="90" y="30" width="10" height="10" fill="rgb(13,13,13)"/><rect x="0" y="40" width="10" height="10" fill="rgb(13,13,13)"/><rect x="10" y="40" width="10" height="10" fill="rgb(12,12,12)"/><rect x="20" y="40" width="10" height="10" fill="rgb(12,12,12)"/><rect x="30" y="40" width="10" height="10" fill="rgb(12,12,12)"/><rect x="40" y="40" width="10" height="10" fill="rgb(12,12,12)"/><rect x="50" y="40" width="10" height="10" fill="rgb(13,13,13)"/><rect x="60" y="40" width="10" height="10" fill="rgb(14,14,14)"/><rect x="70" y="40" width="10" height="10" fill="rgb(13,13,13)"/><rect x="80" y="40" width="10" height="10" fill="rgb(13,13,13)"/><rect x="90" y="40" width="10" height="10" fill="rgb(13,13,13)"/><rect x="0" y="50" width="10" height="10" fill="rgb(15,15,15)"/><rect x="10" y="50" width="10" height="10" fill="rgb(14,14,14)"/><rect x="20" y="50" width="10" height="10" fill="rgb(15,15,15)"/><rect x="30" y="50" width="10" height="10" fill="rgb(15,15,15)"/><rect x="40" y="50" width="10" height="10" fill="rgb(14,14,14)"/><rect x="50" y="50" width="10" height="10" fill="rgb(15,15,15)"/><rect x="60" y="50" width="10" height="10" fill="rgb(15,15,15)"/><rect x="70" y="50" width="10" height="10" fill="rgb(17,17,17)"/><rect x="80" y="50" width="10" height="10" fill="rgb(16,16,16)"/><rect x="90" y="50" width="10" height="10" fill="rgb(18,18,18)"/><rect x="0" y="60" width="10" height="10" fill="rgb(19,19,19)"/><rect x="10" y="60" width="10" height="10" fill="rgb(19,19,19)"/><rect x="20" y="60" width="10" height="10" fill="rgb(20,20,20)"/><rect x="30" y="60" width="10" height="10" fill="rgb(22,22,22)"/><rect x="40" y="60" width="10" height="10" fill="rgb(25,25,25)"/><rect x="50" y="60" width="10" height="10" fill="rgb(27,27,27)"/><rect x="60" y="60" width="10" height="10" fill="rgb(26,26,26)"/><rect x="70" y="60" width="10" height="10" fill="rgb(24,24,24)"/><rect x="80" y="60" width="10" height="10" fill="rgb(26,26,26)"/><rect x="90" y="60" width="10" height="10" fill="rgb(27,27,27)"/><rect x="0" y="70" width="10" height="10" fill="rgb(26,26,26)"/><rect x="10" y="70" width="10" height="10" fill="rgb(24,24,24)"/><rect x="20" y="70" width="10" height="10" fill="rgb(25,25,25)"/><rect x="30" y="70" width="10" height="10" fill="rgb(26,26,26)"/><rect x="40" y="70" width="10" height="10" fill="rgb(26,26,26)"/><rect x="50" y="70" width="10" height="10" fill="rgb(25,25,25)"/><rect x="60" y="70" width="10" height="10" fill="rgb(24,24,24)"/><rect x="70" y="70" width="10" height="10" fill="rgb(24,24,24)"/><rect x="80" y="70" width="10" height="10" fill="rgb(24,24,24)"/><rect x="90" y="70" width="10" height="10" fill="rgb(23,23,23)"/><rect x="0" y="80" width="10" height="10" fill="rgb(25,25,25)"/><rect x="10" y="80" width="10" height="10" fill="rgb(25,25,25)"/><rect x="20" y="80" width="10" height="10" fill="rgb(25,25,25)"/><rect x="30" y="80" width="10" height="10" fill="rgb(26,26,26)"/><rect x="40" y="80" width="10" height="10" fill="rgb(29,29,29)"/><rect x="50" y="80" width="10" height="10" fill="rgb(29,29,29)"/><rect x="60" y="80" width="10" height="10" fill="rgb(30,30,30)"/><rect x="70" y="80" width="10" height="10" fill="rgb(29,29,29)"/><rect x="80" y="80" width="10" height="10" fill="rgb(26,26,26)"/><rect x="90" y="80" width="10" height="10" fill="rgb(22,22,22)"/><rect x="0" y="90" width="10" height="10" fill="rgb(22,22,22)"/><rect x="10" y="90" width="10" height="10" fill="rgb(19,19,19)"/><rect x="20" y="90" width="10" height="10" fill="rgb(19,19,19)"/><rect x="30" y="90" width="10" height="10" fill="rgb(18,18,18)"/><rect x="40" y="90" width="10" height="10" fill="rgb(19,19,19)"/><rect x="50" y="90" width="10" height="10" fill="rgb(16,16,16)"/><rect x="60" y="90" width="10" height="10" fill="rgb(19,19,19)"/><rect x="70" y="90" width="10" height="10" fill="rgb(18,18,18)"/><rect x="80" y="90" width="10" height="10" fill="rgb(18,18,18)"/><rect x="90" y="90" width="10" height="10" fill="rgb(15,15,15)"/><rect x="0" y="100" width="10" height="10" fill="rgb(14,14,14)"/><rect x="10" y="100" width="10" height="10" fill="rgb(15,15,15)"/><rect x="20" y="100" width="10" height="10" fill="rgb(13,13,13)"/><rect x="30" y="100" width="10" height="10" fill="rgb(13,13,13)"/><rect x="40" y="100" width="10" height="10" fill="rgb(17,17,17)"/><rect x="50" y="100" width="10" height="10" fill="rgb(23,23,23)"/><rect x="60" y="100" width="10" height="10" fill="rgb(35,35,35)"/><rect x="70" y="100" width="10" height="10" fill="rgb(45,45,45)"/><rect x="80" y="100" width="10" height="10" fill="rgb(81,81,81)"/><rect x="90" y="100" width="10" height="10" fill="rgb(108,108,108)"/><rect x="0" y="110" width="10" height="10" fill="rgb(114,124,153)"/><rect x="10" y="110" width="10" height="10" fill="rgb(125,128,153)"/><rect x="20" y="110" width="10" height="10" fill="rgb(145,143,160)"/><rect x="30" y="110" width="10" height="10" fill="rgb(149,147,157)"/><rect x="40" y="110" width="10" height="10" fill="rgb(171,171,175)"/><rect x="50" y="110" width="10" height="10" fill="rgb(194,193,198)"/><rect x="60" y="110" width="10" height="10" fill="rgb(195,195,199)"/><rect x="70" y="110" width="10" height="10" fill="rgb(206,205,209)"/><rect x="80" y="110" width="10" height="10" fill="rgb(225,225,228)"/><rect x="90" y="110" width="10" height="10" fill="rgb(227,226,229)"/><rect x="0" y="120" width="10" height="10" fill="rgb(229,228,231)"/><rect x="10" y="120" width="10" height="10" fill="rgb(233,232,234)"/><rect x="20" y="120" width="10" height="10" fill="rgb(232,232,234)"/><rect x="30" y="120" width="10" height="10" fill="rgb(235,235,237)"/><rect x="40" y="120" width="10" height="10" fill="rgb(232,232,234)"/><rect x="50" y="120" width="10" height="10" fill="rgb(233,233,235)"/><rect x="60" y="120" width="10" height="10" fill="rgb(234,234,236)"/><rect x="70" y="120" width="10" height="10" fill="rgb(232,232,234)"/><rect x="80" y="120" width="10" height="10" fill="rgb(225,225,229)"/><rect x="90" y="120" width="10" height="10" fill="rgb(231,231,233)"/><rect x="0" y="130" width="10" height="10" fill="rgb(227,227,229)"/><rect x="10" y="130" width="10" height="10" fill="rgb(235,235,237)"/><rect x="20" y="130" width="10" height="10" fill="rgb(233,233,236)"/><rect x="30" y="130" width="10" height="10" fill="rgb(239,239,241)"/><rect x="40" y="130" width="10" height="10" fill="rgb(241,241,242)"/><rect x="50" y="130" width="10" height="10" fill="rgb(232,232,233)"/><rect x="60" y="130" width="10" height="10" fill="rgb(237,237,239)"/><rect x="70" y="130" width="10" height="10" fill="rgb(232,232,233)"/><rect x="80" y="130" width="10" height="10" fill="rgb(239,239,240)"/><rect x="90" y="130" width="10" height="10" fill="rgb(230,230,232)"/><rect x="0" y="140" width="10" height="10" fill="rgb(232,232,235)"/><rect x="10" y="140" width="10" height="10" fill="rgb(232,231,232)"/><rect x="20" y="140" width="10" height="10" fill="rgb(232,231,233)"/><rect x="30" y="140" width="10" height="10" fill="rgb(231,231,232)"/><rect x="40" y="140" width="10" height="10" fill="rgb(226,226,228)"/><rect x="50" y="140" width="10" height="10" fill="rgb(229,229,230)"/><rect x="60" y="140" width="10" height="10" fill="rgb(225,225,227)"/><rect x="70" y="140" width="10" height="10" fill="rgb(231,231,233)"/><rect x="80" y="140" width="10" height="10" fill="rgb(225,225,227)"/><rect x="90" y="140" width="10" height="10" fill="rgb(227,227,229)"/><rect x="0" y="150" width="10" height="10" fill="rgb(221,221,222)"/><rect x="10" y="150" width="10" height="10" fill="rgb(227,226,228)"/><rect x="20" y="150" width="10" height="10" fill="rgb(230,230,232)"/><rect x="30" y="150" width="10" height="10" fill="rgb(223,223,225)"/><rect x="40" y="150" width="10" height="10" fill="rgb(227,227,229)"/><rect x="50" y="150" width="10" height="10" fill="rgb(224,224,226)"/><rect x="60" y="150" width="10" height="10" fill="rgb(227,227,229)"/><rect x="70" y="150" width="10" height="10" fill="rgb(227,227,229)"/><rect x="80" y="150" width="10" height="10" fill="rgb(225,225,227)"/><rect x="90" y="150" width="10" height="10" fill="rgb(232,232,234)"/><rect x="0" y="160" width="10" height="10" fill="rgb(232,232,234)"/><rect x="10" y="160" width="10" height="10" fill="rgb(228,228,229)"/><rect x="20" y="160" width="10" height="10" fill="rgb(226,226,228)"/><rect x="30" y="160" width="10" height="10" fill="rgb(230,229,232)"/><rect x="40" y="160" width="10" height="10" fill="rgb(231,231,233)"/><rect x="50" y="160" width="10" height="10" fill="rgb(239,239,241)"/><rect x="60" y="160" width="10" height="10" fill="rgb(227,227,230)"/><rect x="70" y="160" width="10" height="10" fill="rgb(234,234,236)"/><rect x="80" y="160" width="10" height="10" fill="rgb(231,231,233)"/><rect x="90" y="160" width="10" height="10" fill="rgb(229,228,231)"/><rect x="0" y="170" width="10" height="10" fill="rgb(229,228,232)"/><rect x="10" y="170" width="10" height="10" fill="rgb(227,227,229)"/><rect x="20" y="170" width="10" height="10" fill="rgb(228,228,229)"/><rect x="30" y="170" width="10" height="10" fill="rgb(228,228,230)"/><rect x="40" y="170" width="10" height="10" fill="rgb(233,232,234)"/><rect x="50" y="170" width="10" height="10" fill="rgb(228,228,230)"/><rect x="60" y="170" width="10" height="10" fill="rgb(229,229,231)"/><rect x="70" y="170" width="10" height="10" fill="rgb(229,229,231)"/><rect x="80" y="170" width="10" height="10" fill="rgb(239,239,240)"/><rect x="90" y="170" width="10" height="10" fill="rgb(230,230,231)"/><rect x="0" y="180" width="10" height="10" fill="rgb(236,236,238)"/><rect x="10" y="180" width="10" height="10" fill="rgb(237,237,240)"/><rect x="20" y="180" width="10" height="10" fill="rgb(227,227,229)"/><rect x="30" y="180" width="10" height="10" fill="rgb(235,235,237)"/><rect x="40" y="180" width="10" height="10" fill="rgb(222,221,222)"/><rect x="50" y="180" width="10" height="10" fill="rgb(228,228,228)"/><rect x="60" y="180" width="10" height="10" fill="rgb(227,226,227)"/><rect x="70" y="180" width="10" height="10" fill="rgb(229,228,229)"/><rect x="80" y="180" width="10" height="10" fill="rgb(223,222,224)"/><rect x="90" y="180" width="10" height="10" fill="rgb(231,230,231)"/><rect x="0" y="190" width="10" height="10" fill="rgb(218,217,219)"/><rect x="10" y="190" width="10" height="10" fill="rgb(225,225,225)"/><rect x="20" y="190" width="10" height="10" fill="rgb(232,231,231)"/><rect x="30" y="190" width="10" height="10" fill="rgb(233,233,235)"/><rect x="40" y="190" width="10" height="10" fill="rgb(227,227,229)"/><rect x="50" y="190" width="10" height="10" fill="rgb(226,225,226)"/><rect x="60" y="190" width="10" height="10" fill="rgb(229,229,229)"/><rect x="70" y="190" width="10" height="10" fill="rgb(220,219,220)"/><rect x="80" y="190" width="10" height="10" fill="rgb(220,220,220)"/><rect x="90" y="190" width="10" height="10" fill="rgb(209,209,210)"/><rect x="0" y="200" width="10" height="10" fill="rgb(197,197,198)"/><rect x="10" y="200" width="10" height="10" fill="rgb(225,225,225)"/><rect x="20" y="200" width="10" height="10" fill="rgb(198,198,198)"/><rect x="30" y="200" width="10" height="10" fill="rgb(195,195,195)"/><rect x="40" y="200" width="10" height="10" fill="rgb(214,214,215)"/><rect x="50" y="200" width="10" height="10" fill="rgb(219,219,220)"/><rect x="60" y="200" width="10" height="10" fill="rgb(191,190,193)"/><rect x="70" y="200" width="10" height="10" fill="rgb(204,204,206)"/><rect x="80" y="200" width="10" height="10" fill="rgb(221,221,222)"/><rect x="90" y="200" width="10" height="10" fill="rgb(208,209,214)"/><rect x="0" y="210" width="10" height="10" fill="rgb(221,221,223)"/><rect x="10" y="210" width="10" height="10" fill="rgb(218,219,221)"/><rect x="20" y="210" width="10" height="10" fill="rgb(150,151,155)"/><rect x="30" y="210" width="10" height="10" fill="rgb(217,218,221)"/><rect x="40" y="210" width="10" height="10" fill="rgb(217,217,219)"/><rect x="50" y="210" width="10" height="10" fill="rgb(228,227,230)"/><rect x="60" y="210" width="10" height="10" fill="rgb(207,207,208)"/><rect x="70" y="210" width="10" height="10" fill="rgb(214,214,215)"/><rect x="80" y="210" width="10" height="10" fill="rgb(203,203,204)"/><rect x="90" y="210" width="10" height="10" fill="rgb(199,200,202)"/><rect x="0" y="220" width="10" height="10" fill="rgb(202,203,206)"/><rect x="10" y="220" width="10" height="10" fill="rgb(200,200,202)"/><rect x="20" y="220" width="10" height="10" fill="rgb(196,196,198)"/><rect x="30" y="220" width="10" height="10" fill="rgb(199,199,201)"/><rect x="40" y="220" width="10" height="10" fill="rgb(203,203,205)"/><rect x="50" y="220" width="10" height="10" fill="rgb(207,206,206)"/><rect x="60" y="220" width="10" height="10" fill="rgb(220,219,219)"/><rect x="70" y="220" width="10" height="10" fill="rgb(223,222,223)"/><rect x="80" y="220" width="10" height="10" fill="rgb(211,211,213)"/><rect x="90" y="220" width="10" height="10" fill="rgb(215,215,217)"/><rect x="0" y="230" width="10" height="10" fill="rgb(217,217,218)"/><rect x="10" y="230" width="10" height="10" fill="rgb(206,207,209)"/><rect x="20" y="230" width="10" height="10" fill="rgb(208,207,208)"/><rect x="30" y="230" width="10" height="10" fill="rgb(202,202,202)"/><rect x="40" y="230" width="10" height="10" fill="rgb(199,199,201)"/><rect x="50" y="230" width="10" height="10" fill="rgb(212,212,214)"/><rect x="60" y="230" width="10" height="10" fill="rgb(193,193,195)"/><rect x="70" y="230" width="10" height="10" fill="rgb(187,187,189)"/><rect x="80" y="230" width="10" height="10" fill="rgb(197,196,197)"/><rect x="90" y="230" width="10" height="10" fill="rgb(199,198,198)"/><rect x="0" y="240" width="10" height="10" fill="rgb(184,184,186)"/><rect x="10" y="240" width="10" height="10" fill="rgb(190,190,191)"/><rect x="20" y="240" width="10" height="10" fill="rgb(205,204,204)"/><rect x="30" y="240" width="10" height="10" fill="rgb(195,195,197)"/><rect x="40" y="240" width="10" height="10" fill="rgb(206,206,207)"/><rect x="50" y="240" width="10" height="10" fill="rgb(195,195,197)"/><rect x="60" y="240" width="10" height="10" fill="rgb(212,211,215)"/><rect x="70" y="240" width="10" height="10" fill="rgb(228,228,231)"/><rect x="80" y="240" width="10" height="10" fill="rgb(209,209,210)"/><rect x="90" y="240" width="10" height="10" fill="rgb(201,201,203)"/><rect x="0" y="250" width="10" height="10" fill="rgb(211,212,214)"/><rect x="10" y="250" width="10" height="10" fill="rgb(196,196,199)"/><rect x="20" y="250" width="10" height="10" fill="rgb(181,183,187)"/><rect x="30" y="250" width="10" height="10" fill="rgb(185,187,194)"/><rect x="40" y="250" width="10" height="10" fill="rgb(179,179,183)"/><rect x="50" y="250" width="10" height="10" fill="rgb(215,214,216)"/><rect x="60" y="250" width="10" height="10" fill="rgb(236,236,236)"/><rect x="70" y="250" width="10" height="10" fill="rgb(236,235,235)"/><rect x="80" y="250" width="10" height="10" fill="rgb(210,210,214)"/><rect x="90" y="250" width="10" height="10" fill="rgb(222,222,227)"/><rect x="0" y="260" width="10" height="10" fill="rgb(224,224,228)"/><rect x="10" y="260" width="10" height="10" fill="rgb(204,203,207)"/><rect x="20" y="260" width="10" height="10" fill="rgb(232,231,235)"/><rect x="30" y="260" width="10" height="10" fill="rgb(215,214,218)"/><rect x="40" y="260" width="10" height="10" fill="rgb(213,210,216)"/></svg>