<svg xmlns="http://www.w3.org/2000/svg" width="480" height="70"><rect x="0" y="0" width="10" height="10" fill="rgb(171,184,201)"/><rect x="10" y="0" width="10" height="10" fill="rgb(153,159,174)"/><rect x="20" y="0" width="10" height="10" fill="rgb(181,190,203)"/><rect x="30" y="0" width="10" height="10" fill="rgb(165,177,193)"/><rect x="40" y="0" width="10" height="10" fill="rgb(164,175,189)"/><rect x="50" y="0" width="10" height="10" fill="rgb(184,194,208)"/><rect x="60" y="0" width="10" height="10" fill="rgb(174,184,199)"/><rect x="70" y="0" width="10" height="10" fill="rgb(170,181,194)"/><rect x="80" y="0" width="10" height="10" fill="rgb(139,149,163)"/><rect x="90" y="0" width="10" height="10" fill="rgb(173,183,197)"/><rect x="100" y="0" width="10" height="10" fill="rgb(141,152,166)"/><rect x="110" y="0" width="10" height="10" fill="rgb(136,148,163)"/><rect x="120" y="0" width="10" height="10" fill="rgb(165,176,190)"/><rect x="130" y="0" width="10" height="10" fill="rgb(180,192,208)"/><rect x="140" y="0" width="10" height="10" fill="rgb(165,174,188)"/><rect x="150" y="0" width="10" height="10" fill="rgb(147,158,174)"/><rect x="160" y="0" width="10" height="10" fill="rgb(174,181,195)"/><rect x="170" y="0" width="10" height="10" fill="rgb(174,183,197)"/><rect x="180" y="0" width="10" height="10" fill="rgb(178,189,203)"/><rect x="190" y="0" width="10" height="10" fill="rgb(179,188,203)"/><rect x="200" y="0" width="10" height="10" fill="rgb(151,160,175)"/><rect x="210" y="0" width="10" height="10" fill="rgb(177,186,200)"/><rect x="220" y="0" width="10" height="10" fill="rgb(140,149,163)"/><rect x="230" y="0" width="10" height="10" fill="rgb(194,201,215)"/><rect x="240" y="0" width="10" height="10" fill="rgb(173,181,196)"/><rect x="250" y="0" width="10" height="10" fill="rgb(145,153,167)"/><rect x="260" y="0" width="10" height="10" fill="rgb(193,202,216)"/><rect x="270" y="0" width="10" height="10" fill="rgb(184,193,209)"/><rect x="280" y="0" width="10" height="10" fill="rgb(191,199,213)"/><rect x="290" y="0" width="10" height="10" fill="rgb(175,184,198)"/><rect x="300" y="0" width="10" height="10" fill="rgb(147,155,171)"/><rect x="310" y="0" width="10" height="10" fill="rgb(175,184,198)"/><rect x="320" y="0" width="10" height="10" fill="rgb(147,156,170)"/><rect x="330" y="0" width="10" height="10" fill="rgb(164,174,188)"/><rect x="340" y="0" width="10" height="10" fill="rgb(165,173,187)"/><rect x="350" y="0" width="10" height="10" fill="rgb(202,211,225)"/><rect x="360" y="0" width="10" height="10" fill="rgb(195,203,217)"/><rect x="370" y="0" width="10" height="10" fill="rgb(132,139,154)"/><rect x="380" y="0" width="10" height="10" fill="rgb(203,211,227)"/><rect x="390" y="0" width="10" height="10" fill="rgb(179,188,205)"/><rect x="400" y="0" width="10" height="10" fill="rgb(157,166,186)"/><rect x="410" y="0" width="10" height="10" fill="rgb(145,151,165)"/><rect x="420" y="0" width="10" height="10" fill="rgb(171,177,191)"/><rect x="430" y="0" width="10" height="10" fill="rgb(137,141,156)"/><rect x="440" y="0" width="10" height="10" fill="rgb(157,165,181)"/><rect x="450" y="0" width="10" height="10" fill="rgb(178,184,199)"/><rect x="460" y="0" width="10" height="10" fill="rgb(175,183,200)"/><rect x="470" y="0" width="10" height="10" fill="rgb(155,164,181)"/><rect x="0" y="10" width="10" height="10" fill="rgb(189,197,212)"/><rect x="10" y="10" width="10" height="10" fill="rgb(174,183,203)"/><rect x="20" y="10" width="10" height="10" fill="rgb(154,162,176)"/><rect x="30" y="10" width="10" height="10" fill="rgb(148,153,167)"/><rect x="40" y="10" width="10" height="10" fill="rgb(111,121,143)"/><rect x="50" y="10" width="10" height="10" fill="rgb(145,153,168)"/><rect x="60" y="10" width="10" height="10" fill="rgb(128,136,154)"/><rect x="70" y="10" width="10" height="10" fill="rgb(148,155,171)"/><rect x="80" y="10" width="10" height="10" fill="rgb(169,177,196)"/><rect x="90" y="10" width="10" height="10" fill="rgb(118,130,163)"/><rect x="100" y="10" width="10" height="10" fill="rgb(133,140,162)"/><rect x="110" y="10" width="10" height="10" fill="rgb(129,137,151)"/><rect x="120" y="10" width="10" height="10" fill="rgb(135,148,181)"/><rect x="130" y="10" width="10" height="10" fill="rgb(119,135,175)"/><rect x="140" y="10" width="10" height="10" fill="rgb(147,153,175)"/><rect x="150" y="10" width="10" height="10" fill="rgb(109,116,137)"/><rect x="160" y="10" width="10" height="10" fill="rgb(153,154,161)"/><rect x="170" y="10" width="10" height="10" fill="rgb(144,148,164)"/><rect x="180" y="10" width="10" height="10" fill="rgb(184,184,198)"/><rect x="190" y="10" width="10" height="10" fill="rgb(170,173,187)"/><rect x="200" y="10" width="10" height="10" fill="rgb(172,172,186)"/><rect x="210" y="10" width="10" height="10" fill="rgb(127,129,142)"/><rect x="220" y="10" width="10" height="10" fill="rgb(120,123,141)"/><rect x="230" y="10" width="10" height="10" fill="rgb(148,158,189)"/><rect x="240" y="10" width="10" height="10" fill="rgb(123,143,189)"/><rect x="250" y="10" width="10" height="10" fill="rgb(161,159,166)"/><rect x="260" y="10" width="10" height="10" fill="rgb(117,117,129)"/><rect x="270" y="10" width="10" height="10" fill="rgb(140,137,142)"/><rect x="280" y="10" width="10" height="10" fill="rgb(146,150,173)"/><rect x="290" y="10" width="10" height="10" fill="rgb(79,111,173)"/><rect x="300" y="10" width="10" height="10" fill="rgb(123,151,207)"/><rect x="310" y="10" width="10" height="10" fill="rgb(97,124,174)"/><rect x="320" y="10" width="10" height="10" fill="rgb(140,154,188)"/><rect x="330" y="10" width="10" height="10" fill="rgb(159,160,174)"/><rect x="340" y="10" width="10" height="10" fill="rgb(120,140,185)"/><rect x="350" y="10" width="10" height="10" fill="rgb(167,172,190)"/><rect x="360" y="10" width="10" height="10" fill="rgb(205,194,187)"/><rect x="370" y="10" width="10" height="10" fill="rgb(163,163,168)"/><rect x="380" y="10" width="10" height="10" fill="rgb(123,128,143)"/><rect x="390" y="10" width="10" height="10" fill="rgb(128,135,154)"/><rect x="400" y="10" width="10" height="10" fill="rgb(169,173,188)"/><rect x="410" y="10" width="10" height="10" fill="rgb(148,156,174)"/><rect x="420" y="10" width="10" height="10" fill="rgb(157,163,178)"/><rect x="430" y="10" width="10" height="10" fill="rgb(120,124,136)"/><rect x="440" y="10" width="10" height="10" fill="rgb(161,170,195)"/><rect x="450" y="10" width="10" height="10" fill="rgb(157,164,185)"/><rect x="460" y="10" width="10" height="10" fill="rgb(145,149,165)"/><rect x="470" y="10" width="10" height="10" fill="rgb(172,172,183)"/><rect x="0" y="20" width="10" height="10" fill="rgb(191,189,192)"/><rect x="10" y="20" width="10" height="10" fill="rgb(233,216,200)"/><rect x="20" y="20" width="10" height="10" fill="rgb(178,193,217)"/><rect x="30" y="20" width="10" height="10" fill="rgb(179,182,195)"/><rect x="40" y="20" width="10" height="10" fill="rgb(188,186,193)"/><rect x="50" y="20" width="10" height="10" fill="rgb(166,168,184)"/><rect x="60" y="20" width="10" height="10" fill="rgb(193,195,203)"/><rect x="70" y="20" width="10" height="10" fill="rgb(194,199,211)"/><rect x="80" y="20" width="10" height="10" fill="rgb(177,177,190)"/><rect x="90" y="20" width="10" height="10" fill="rgb(186,184,196)"/><rect x="100" y="20" width="10" height="10" fill="rgb(158,158,189)"/><rect x="110" y="20" width="10" height="10" fill="rgb(170,170,200)"/><rect x="120" y="20" width="10" height="10" fill="rgb(176,178,209)"/><rect x="130" y="20" width="10" height="10" fill="rgb(162,164,208)"/><rect x="140" y="20" width="10" height="10" fill="rgb(154,165,211)"/><rect x="150" y="20" width="10" height="10" fill="rgb(98,134,196)"/><rect x="160" y="20" width="10" height="10" fill="rgb(53,83,152)"/><rect x="170" y="20" width="10" height="10" fill="rgb(29,58,149)"/><rect x="180" y="20" width="10" height="10" fill="rgb(16,47,129)"/><rect x="190" y="20" width="10" height="10" fill="rgb(12,37,110)"/><rect x="200" y="20" width="10" height="10" fill="rgb(2,5,39)"/><rect x="210" y="20" width="10" height="10" fill="rgb(1,2,34)"/><rect x="220" y="20" width="10" height="10" fill="rgb(0,0,4)"/><rect x="230" y="20" width="10" height="10" fill="rgb(1,0,3)"/><rect x="240" y="20" width="10" height="10" fill="rgb(0,0,1)"/><rect x="250" y="20" width="10" height="10" fill="rgb(0,0,2)"/><rect x="260" y="20" width="10" height="10" fill="rgb(0,0,1)"/><rect x="270" y="20" width="10" height="10" fill="rgb(0,0,1)"/><rect x="280" y="20" width="10" height="10" fill="rgb(0,0,1)"/><rect x="290" y="20" width="10" height="10" fill="rgb(0,0,1)"/><rect x="300" y="20" width="10" height="10" fill="rgb(0,0,2)"/><rect x="310" y="20" width="10" height="10" fill="rgb(0,0,2)"/><rect x="320" y="20" width="10" height="10" fill="rgb(0,0,1)"/><rect x="330" y="20" width="10" height="10" fill="rgb(0,0,2)"/><rect x="340" y="20" width="10" height="10" fill="rgb(0,0,0)"/><rect x="350" y="20" width="10" height="10" fill="rgb(0,0,2)"/><rect x="360" y="20" width="10" height="10" fill="rgb(0,0,2)"/><rect x="370" y="20" width="10" height="10" fill="rgb(0,0,1)"/><rect x="380" y="20" width="10" height="10" fill="rgb(0,0,2)"/><rect x="390" y="20" width="10" height="10" fill="rgb(0,0,1)"/><rect x="400" y="20" width="10" height="10" fill="rgb(0,0,2)"/><rect x="410" y="20" width="10" height="10" fill="rgb(0,0,1)"/><rect x="420" y="20" width="10" height="10" fill="rgb(0,0,1)"/><rect x="430" y="20" width="10" height="10" fill="rgb(0,0,1)"/><rect x="440" y="20" width="10" height="10" fill="rgb(0,0,2)"/><rect x="450" y="20" width="10" height="10" fill="rgb(0,0,2)"/><rect x="460" y="20" width="10" height="10" fill="rgb(0,0,1)"/><rect x="470" y="20" width="10" height="10" fill="rgb(0,0,2)"/><rect x="0" y="30" width="10" height="10" fill="rgb(0,0,2)"/><rect x="10" y="30" width="10" height="10" fill="rgb(0,0,2)"/><rect x="20" y="30" width="10" height="10" fill="rgb(0,0,1)"/><rect x="30" y="30" width="10" height="10" fill="rgb(0,0,1)"/><rect x="40" y="30" width="10" height="10" fill="rgb(0,0,2)"/><rect x="50" y="30" width="10" height="10" fill="rgb(0,0,2)"/><rect x="60" y="30" width="10" height="10" fill="rgb(0,0,2)"/><rect x="70" y="30" width="10" height="10" fill="rgb(0,0,1)"/><rect x="80" y="30" width="10" height="10" fill="rgb(0,0,2)"/><rect x="90" y="30" width="10" height="10" fill="rgb(0,0,1)"/><rect x="100" y="30" width="10" height="10" fill="rgb(0,0,1)"/><rect x="110" y="30" width="10" height="10" fill="rgb(0,0,2)"/><rect x="120" y="30" width="10" height="10" fill="rgb(0,0,1)"/><rect x="130" y="30" width="10" height="10" fill="rgb(0,0,1)"/><rect x="140" y="30" width="10" height="10" fill="rgb(0,0,1)"/><rect x="150" y="30" width="10" height="10" fill="rgb(0,0,1)"/><rect x="160" y="30" width="10" height="10" fill="rgb(0,0,1)"/><rect x="170" y="30" width="10" height="10" fill="rgb(0,0,2)"/><rect x="180" y="30" width="10" height="10" fill="rgb(0,0,2)"/><rect x="190" y="30" width="10" height="10" fill="rgb(0,0,1)"/><rect x="200" y="30" width="10" height="10" fill="rgb(0,0,1)"/><rect x="210" y="30" width="10" height="10" fill="rgb(0,0,1)"/><rect x="220" y="30" width="10" height="10" fill="rgb(0,0,1)"/><rect x="230" y="30" width="10" height="10" fill="rgb(0,0,2)"/><rect x="240" y="30" width="10" height="10" fill="rgb(0,0,1)"/><rect x="250" y="30" width="10" height="10" fill="rgb(0,0,1)"/><rect x="260" y="30" width="10" height="10" fill="rgb(0,0,0)"/><rect x="270" y="30" width="10" height="10" fill="rgb(0,0,2)"/><rect x="280" y="30" width="10" height="10" fill="rgb(0,0,1)"/><rect x="290" y="30" width="10" height="10" fill="rgb(0,0,1)"/><rect x="300" y="30" width="10" height="10" fill="rgb(0,0,1)"/><rect x="310" y="30" width="10" height="10" fill="rgb(0,0,2)"/><rect x="320" y="30" width="10" height="10" fill="rgb(0,0,2)"/><rect x="330" y="30" width="10" height="10" fill="rgb(0,0,1)"/><rect x="340" y="30" width="10" height="10" fill="rgb(0,0,1)"/><rect x="350" y="30" width="10" height="10" fill="rgb(0,0,1)"/><rect x="360" y="30" width="10" height="10" fill="rgb(0,0,1)"/><rect x="370" y="30" width="10" height="10" fill="rgb(0,0,1)"/><rect x="380" y="30" width="10" height="10" fill="rgb(0,0,1)"/><rect x="390" y="30" width="10" height="10" fill="rgb(0,0,2)"/><rect x="400" y="30" width="10" height="10" fill="rgb(0,0,1)"/><rect x="410" y="30" width="10" height="10" fill="rgb(0,0,1)"/><rect x="420" y="30" width="10" height="10" fill="rgb(0,0,1)"/><rect x="430" y="30" width="10" height="10" fill="rgb(0,0,2)"/><rect x="440" y="30" width="10" height="10" fill="rgb(0,0,1)"/><rect x="450" y="30" width="10" height="10" fill="rgb(0,0,2)"/><rect x="460" y="30" width="10" height="10" fill="rgb(0,0,1)"/><rect x="470" y="30" width="10" height="10" fill="rgb(0,0,2)"/><rect x="0" y="40" width="10" height="10" fill="rgb(0,0,1)"/><rect x="10" y="40" width="10" height="10" fill="rgb(0,0,1)"/><rect x="20" y="40" width="10" height="10" fill="rgb(0,0,1)"/><rect x="30" y="40" width="10" height="10" fill="rgb(0,0,1)"/><rect x="40" y="40" width="10" height="10" fill="rgb(0,0,2)"/><rect x="50" y="40" width="10" height="10" fill="rgb(0,0,2)"/><rect x="60" y="40" width="10" height="10" fill="rgb(0,0,1)"/><rect x="70" y="40" width="10" height="10" fill="rgb(0,0,1)"/><rect x="80" y="40" width="10" height="10" fill="rgb(0,0,2)"/><rect x="90" y="40" width="10" height="10" fill="rgb(0,0,1)"/><rect x="100" y="40" width="10" height="10" fill="rgb(0,0,2)"/><rect x="110" y="40" width="10" height="10" fill="rgb(0,0,1)"/><rect x="120" y="40" width="10" height="10" fill="rgb(0,0,3)"/><rect x="130" y="40" width="10" height="10" fill="rgb(0,0,2)"/><rect x="140" y="40" width="10" height="10" fill="rgb(0,0,2)"/><rect x="150" y="40" width="10" height="10" fill="rgb(0,0,3)"/><rect x="160" y="40" width="10" height="10" fill="rgb(2,0,16)"/><rect x="170" y="40" width="10" height="10" fill="rgb(3,3,37)"/><rect x="180" y="40" width="10" height="10" fill="rgb(5,22,83)"/><rect x="190" y="40" width="10" height="10" fill="rgb(30,55,141)"/><rect x="200" y="40" width="10" height="10" fill="rgb(69,101,171)"/><rect x="210" y="40" width="10" height="10" fill="rgb(84,116,179)"/><rect x="220" y="40" width="10" height="10" fill="rgb(126,154,214)"/><rect x="230" y="40" width="10" height="10" fill="rgb(137,152,197)"/><rect x="240" y="40" width="10" height="10" fill="rgb(141,152,194)"/><rect x="250" y="40" width="10" height="10" fill="rgb(118,127,152)"/><rect x="260" y="40" width="10" height="10" fill="rgb(135,150,179)"/><rect x="270" y="40" width="10" height="10" fill="rgb(120,135,165)"/><rect x="280" y="40" width="10" height="10" fill="rgb(112,124,151)"/><rect x="290" y="40" width="10" height="10" fill="rgb(123,138,164)"/><rect x="300" y="40" width="10" height="10" fill="rgb(132,140,164)"/><rect x="310" y="40" width="10" height="10" fill="rgb(104,108,125)"/><rect x="320" y="40" width="10" height="10" fill="rgb(125,136,177)"/><rect x="330" y="40" width="10" height="10" fill="rgb(61,86,149)"/><rect x="340" y="40" width="10" height="10" fill="rgb(66,85,142)"/><rect x="350" y="40" width="10" height="10" fill="rgb(53,78,137)"/><rect x="360" y="40" width="10" height="10" fill="rgb(54,79,139)"/><rect x="370" y="40" width="10" height="10" fill="rgb(52,79,136)"/><rect x="380" y="40" width="10" height="10" fill="rgb(50,77,134)"/><rect x="390" y="40" width="10" height="10" fill="rgb(51,75,131)"/><rect x="400" y="40" width="10" height="10" fill="rgb(48,73,130)"/><rect x="410" y="40" width="10" height="10" fill="rgb(50,74,130)"/><rect x="420" y="40" width="10" height="10" fill="rgb(46,72,131)"/><rect x="430" y="40" width="10" height="10" fill="rgb(56,81,138)"/><rect x="440" y="40" width="10" height="10" fill="rgb(50,71,123)"/><rect x="450" y="40" width="10" height="10" fill="rgb(43,68,125)"/><rect x="460" y="40" width="10" height="10" fill="rgb(43,69,130)"/><rect x="470" y="40" width="10" height="10" fill="rgb(67,87,140)"/><rect x="0" y="50" width="10" height="10" fill="rgb(49,67,114)"/><rect x="10" y="50" width="10" height="10" fill="rgb(67,80,117)"/><rect x="20" y="50" width="10" height="10" fill="rgb(98,118,155)"/><rect x="30" y="50" width="10" height="10" fill="rgb(120,116,122)"/><rect x="40" y="50" width="10" height="10" fill="rgb(97,107,136)"/><rect x="50" y="50" width="10" height="10" fill="rgb(99,114,149)"/><rect x="60" y="50" width="10" height="10" fill="rgb(87,92,107)"/><rect x="70" y="50" width="10" height="10" fill="rgb(85,91,110)"/><rect x="80" y="50" width="10" height="10" fill="rgb(52,75,137)"/><rect x="90" y="50" width="10" height="10" fill="rgb(47,71,129)"/><rect x="100" y="50" width="10" height="10" fill="rgb(73,87,129)"/><rect x="110" y="50" width="10" height="10" fill="rgb(51,72,120)"/><rect x="120" y="50" width="10" height="10" fill="rgb(41,68,129)"/><rect x="130" y="50" width="10" height="10" fill="rgb(56,89,161)"/><rect x="140" y="50" width="10" height="10" fill="rgb(85,104,154)"/><rect x="150" y="50" width="10" height="10" fill="rgb(60,89,159)"/><rect x="160" y="50" width="10" height="10" fill="rgb(58,88,158)"/><rect x="170" y="50" width="10" height="10" fill="rgb(55,85,155)"/><rect x="180" y="50" width="10" height="10" fill="rgb(82,105,158)"/><rect x="190" y="50" width="10" height="10" fill="rgb(102,122,171)"/><rect x="200" y="50" width="10" height="10" fill="rgb(111,122,149)"/><rect x="210" y="50" width="10" height="10" fill="rgb(111,119,139)"/><rect x="220" y="50" width="10" height="10" fill="rgb(112,117,138)"/><rect x="230" y="50" width="10" height="10" fill="rgb(84,106,162)"/><rect x="240" y="50" width="10" height="10" fill="rgb(103,118,158)"/><rect x="250" y="50" width="10" height="10" fill="rgb(118,127,155)"/><rect x="260" y="50" width="10" height="10" fill="rgb(122,129,148)"/><rect x="270" y="50" width="10" height="10" fill="rgb(108,120,146)"/><rect x="280" y="50" width="10" height="10" fill="rgb(110,122,150)"/><rect x="290" y="50" width="10" height="10" fill="rgb(155,160,180)"/><rect x="300" y="50" width="10" height="10" fill="rgb(208,212,226)"/><rect x="310" y="50" width="10" height="10" fill="rgb(190,198,215)"/><rect x="320" y="50" width="10" height="10" fill="rgb(149,158,174)"/><rect x="330" y="50" width="10" height="10" fill="rgb(189,201,227)"/><rect x="340" y="50" width="10" height="10" fill="rgb(171,183,202)"/><rect x="350" y="50" width="10" height="10" fill="rgb(163,170,185)"/><rect x="360" y="50" width="10" height="10" fill="rgb(161,169,184)"/><rect x="370" y="50" width="10" height="10" fill="rgb(126,134,152)"/><rect x="380" y="50" width="10" height="10" fill="rgb(162,170,187)"/><rect x="390" y="50" width="10" height="10" fill="rgb(216,221,236)"/><rect x="400" y="50" width="10" height="10" fill="rgb(201,209,223)"/><rect x="410" y="50" width="10" height="10" fill="rgb(177,185,204)"/><rect x="420" y="50" width="10" height="10" fill="rgb(141,149,166)"/><rect x="430" y="50" width="10" height="10" fill="rgb(128,137,154)"/><rect x="440" y="50" width="10" height="10" fill="rgb(163,168,183)"/><rect x="450" y="50" width="10" height="10" fill="rgb(193,201,221)"/><rect x="460" y="50" width="10" height="10" fill="rgb(188,199,221)"/><rect x="470" y="50" width="10" height="10" fill="rgb(162,174,198)"/><rect x="0" y="60" width="10" height="10" fill="rgb(138,146,168)"/><rect x="10" y="60" width="10" height="10" fill="rgb(181,189,205)"/><rect x="20" y="60" width="10" height="10" fill="rgb(203,211,228)"/><rect x="30" y="60" width="10" height="10" fill="rgb(168,177,196)"/><rect x="40" y="60" width="10" height="10" fill="rgb(169,178,200)"/><rect x="50" y="60" width="10" height="10" fill="rgb(199,207,223)"/><rect x="60" y="60" width="10" height="10" fill="rgb(188,196,217)"/><rect x="70" y="60" width="10" height="10" fill="rgb(174,183,203)"/><rect x="80" y="60" width="10" height="10" fill="rgb(184,194,212)"/><rect x="90" y="60" width="10" height="10" fill="rgb(182,192,208)"/><rect x="100" y="60" width="10" height="10" fill="rgb(168,180,196)"/><rect x="110" y="60" width="10" height="10" fill="rgb(199,210,225)"/><rect x="120" y="60" width="10" height="10" fill="rgb(192,201,218)"/><rect x="130" y="60" width="10" height="10" fill="rgb(190,199,217)"/><rect x="140" y="60" width="10" height="10" fill="rgb(174,186,203)"/><rect x="150" y="60" width="10" height="10" fill="rgb(192,202,219)"/><rect x="160" y="60" width="10" height="10" fill="rgb(177,185,200)"/><rect x="170" y="60" width="10" height="10" fill="rgb(180,192,208)"/><rect x="180" y="60" width="10" height="10" fill="rgb(181,193,209)"/><rect x="190" y="60" width="10" height="10" fill="rgb(208,217,232)"/></svg>