<svg xmlns="http://www.w3.org/2000/svg" width="480" height="20"><rect x="0" y="0" width="10" height="10" fill="rgb(166,173,191)"/><rect x="10" y="0" width="10" height="10" fill="rgb(185,190,207)"/><rect x="20" y="0" width="10" height="10" fill="rgb(203,208,226)"/><rect x="30" y="0" width="10" height="10" fill="rgb(162,165,181)"/><rect x="40" y="0" width="10" height="10" fill="rgb(162,166,183)"/><rect x="50" y="0" width="10" height="10" fill="rgb(162,166,181)"/><rect x="60" y="0" width="10" height="10" fill="rgb(161,164,180)"/><rect x="70" y="0" width="10" height="10" fill="rgb(161,164,179)"/><rect x="80" y="0" width="10" height="10" fill="rgb(159,163,179)"/><rect x="90" y="0" width="10" height="10" fill="rgb(162,165,180)"/><rect x="100" y="0" width="10" height="10" fill="rgb(161,164,180)"/><rect x="110" y="0" width="10" height="10" fill="rgb(154,159,177)"/><rect x="120" y="0" width="10" height="10" fill="rgb(146,154,175)"/><rect x="130" y="0" width="10" height="10" fill="rgb(143,152,175)"/><rect x="140" y="0" width="10" height="10" fill="rgb(143,152,174)"/><rect x="150" y="0" width="10" height="10" fill="rgb(143,152,174)"/><rect x="160" y="0" width="10" height="10" fill="rgb(142,151,174)"/><rect x="170" y="0" width="10" height="10" fill="rgb(146,153,174)"/><rect x="180" y="0" width="10" height="10" fill="rgb(150,157,177)"/><rect x="190" y="0" width="10" height="10" fill="rgb(160,163,180)"/><rect x="200" y="0" width="10" height="10" fill="rgb(160,164,180)"/><rect x="210" y="0" width="10" height="10" fill="rgb(155,160,179)"/><rect x="220" y="0" width="10" height="10" fill="rgb(147,154,174)"/><rect x="230" y="0" width="10" height="10" fill="rgb(144,152,174)"/><rect x="240" y="0" width="10" height="10" fill="rgb(146,153,175)"/><rect x="250" y="0" width="10" height="10" fill="rgb(153,159,178)"/><rect x="260" y="0" width="10" height="10" fill="rgb(161,164,180)"/><rect x="270" y="0" width="10" height="10" fill="rgb(164,165,179)"/><rect x="280" y="0" width="10" height="10" fill="rgb(165,166,180)"/><rect x="290" y="0" width="10" height="10" fill="rgb(163,164,177)"/><rect x="300" y="0" width="10" height="10" fill="rgb(163,164,177)"/><rect x="310" y="0" width="10" height="10" fill="rgb(160,162,175)"/><rect x="320" y="0" width="10" height="10" fill="rgb(158,159,173)"/><rect x="330" y="0" width="10" height="10" fill="rgb(161,162,175)"/><rect x="340" y="0" width="10" height="10" fill="rgb(158,160,174)"/><rect x="350" y="0" width="10" height="10" fill="rgb(155,159,175)"/><rect x="360" y="0" width="10" height="10" fill="rgb(150,156,175)"/><rect x="370" y="0" width="10" height="10" fill="rgb(146,153,173)"/><rect x="380" y="0" width="10" height="10" fill="rgb(140,148,170)"/><rect x="390" y="0" width="10" height="10" fill="rgb(133,144,167)"/><rect x="400" y="0" width="10" height="10" fill="rgb(130,146,173)"/><rect x="410" y="0" width="10" height="10" fill="rgb(132,145,171)"/><rect x="420" y="0" width="10" height="10" fill="rgb(135,145,169)"/><rect x="430" y="0" width="10" height="10" fill="rgb(127,142,169)"/><rect x="440" y="0" width="10" height="10" fill="rgb(123,140,169)"/><rect x="450" y="0" width="10" height="10" fill="rgb(122,138,167)"/><rect x="460" y="0" width="10" height="10" fill="rgb(121,138,167)"/><rect x="470" y="0" width="10" height="10" fill="rgb(127,140,166)"/><rect x="0" y="10" width="10" height="10" fill="rgb(127,140,165)"/><rect x="10" y="10" width="10" height="10" fill="rgb(126,140,165)"/><rect x="20" y="10" width="10" height="10" fill="rgb(125,139,165)"/></svg>