<svg xmlns="http://www.w3.org/2000/svg" width="480" height="70"><rect x="0" y="0" width="10" height="10" fill="rgb(160,157,168)"/><rect x="10" y="0" width="10" height="10" fill="rgb(201,200,215)"/><rect x="20" y="0" width="10" height="10" fill="rgb(230,229,245)"/><rect x="30" y="0" width="10" height="10" fill="rgb(231,225,235)"/><rect x="40" y="0" width="10" height="10" fill="rgb(241,234,245)"/><rect x="50" y="0" width="10" height="10" fill="rgb(232,225,236)"/><rect x="60" y="0" width="10" height="10" fill="rgb(226,220,229)"/><rect x="70" y="0" width="10" height="10" fill="rgb(226,218,227)"/><rect x="80" y="0" width="10" height="10" fill="rgb(232,223,231)"/><rect x="90" y="0" width="10" height="10" fill="rgb(242,233,243)"/><rect x="100" y="0" width="10" height="10" fill="rgb(237,229,237)"/><rect x="110" y="0" width="10" height="10" fill="rgb(236,228,235)"/><rect x="120" y="0" width="10" height="10" fill="rgb(231,222,231)"/><rect x="130" y="0" width="10" height="10" fill="rgb(233,222,232)"/><rect x="140" y="0" width="10" height="10" fill="rgb(238,227,238)"/><rect x="150" y="0" width="10" height="10" fill="rgb(219,212,224)"/><rect x="160" y="0" width="10" height="10" fill="rgb(142,155,183)"/><rect x="170" y="0" width="10" height="10" fill="rgb(208,204,218)"/><rect x="180" y="0" width="10" height="10" fill="rgb(215,210,225)"/><rect x="190" y="0" width="10" height="10" fill="rgb(228,220,233)"/><rect x="200" y="0" width="10" height="10" fill="rgb(214,209,222)"/><rect x="210" y="0" width="10" height="10" fill="rgb(143,153,179)"/><rect x="220" y="0" width="10" height="10" fill="rgb(118,134,164)"/><rect x="230" y="0" width="10" height="10" fill="rgb(153,161,184)"/><rect x="240" y="0" width="10" height="10" fill="rgb(196,190,204)"/><rect x="250" y="0" width="10" height="10" fill="rgb(175,176,194)"/><rect x="260" y="0" width="10" height="10" fill="rgb(215,209,220)"/><rect x="270" y="0" width="10" height="10" fill="rgb(201,195,206)"/><rect x="280" y="0" width="10" height="10" fill="rgb(195,189,200)"/><rect x="290" y="0" width="10" height="10" fill="rgb(169,166,176)"/><rect x="300" y="0" width="10" height="10" fill="rgb(159,157,168)"/><rect x="310" y="0" width="10" height="10" fill="rgb(152,151,162)"/><rect x="320" y="0" width="10" height="10" fill="rgb(169,166,176)"/><rect x="330" y="0" width="10" height="10" fill="rgb(172,168,177)"/><rect x="340" y="0" width="10" height="10" fill="rgb(155,152,161)"/><rect x="350" y="0" width="10" height="10" fill="rgb(183,177,186)"/><rect x="360" y="0" width="10" height="10" fill="rgb(178,174,186)"/><rect x="370" y="0" width="10" height="10" fill="rgb(178,173,186)"/><rect x="380" y="0" width="10" height="10" fill="rgb(177,173,186)"/><rect x="390" y="0" width="10" height="10" fill="rgb(165,163,178)"/><rect x="400" y="0" width="10" height="10" fill="rgb(143,149,171)"/><rect x="410" y="0" width="10" height="10" fill="rgb(173,166,180)"/><rect x="420" y="0" width="10" height="10" fill="rgb(164,160,174)"/><rect x="430" y="0" width="10" height="10" fill="rgb(103,119,147)"/><rect x="440" y="0" width="10" height="10" fill="rgb(103,119,148)"/><rect x="450" y="0" width="10" height="10" fill="rgb(99,115,144)"/><rect x="460" y="0" width="10" height="10" fill="rgb(96,112,142)"/><rect x="470" y="0" width="10" height="10" fill="rgb(84,100,130)"/><rect x="0" y="10" width="10" height="10" fill="rgb(82,99,127)"/><rect x="10" y="10" width="10" height="10" fill="rgb(83,99,128)"/><rect x="20" y="10" width="10" height="10" fill="rgb(83,100,128)"/><rect x="30" y="10" width="10" height="10" fill="rgb(83,99,127)"/><rect x="40" y="10" width="10" height="10" fill="rgb(81,97,125)"/><rect x="50" y="10" width="10" height="10" fill="rgb(77,94,123)"/><rect x="60" y="10" width="10" height="10" fill="rgb(75,92,122)"/><rect x="70" y="10" width="10" height="10" fill="rgb(74,91,121)"/><rect x="80" y="10" width="10" height="10" fill="rgb(74,91,120)"/><rect x="90" y="10" width="10" height="10" fill="rgb(79,96,124)"/><rect x="100" y="10" width="10" height="10" fill="rgb(80,96,124)"/><rect x="110" y="10" width="10" height="10" fill="rgb(78,95,123)"/><rect x="120" y="10" width="10" height="10" fill="rgb(78,94,123)"/><rect x="130" y="10" width="10" height="10" fill="rgb(80,96,124)"/><rect x="140" y="10" width="10" height="10" fill="rgb(77,93,121)"/><rect x="150" y="10" width="10" height="10" fill="rgb(71,89,117)"/><rect x="160" y="10" width="10" height="10" fill="rgb(68,86,117)"/><rect x="170" y="10" width="10" height="10" fill="rgb(70,88,118)"/><rect x="180" y="10" width="10" height="10" fill="rgb(71,89,120)"/><rect x="190" y="10" width="10" height="10" fill="rgb(73,91,123)"/><rect x="200" y="10" width="10" height="10" fill="rgb(70,88,119)"/><rect x="210" y="10" width="10" height="10" fill="rgb(77,98,131)"/><rect x="220" y="10" width="10" height="10" fill="rgb(90,105,132)"/><rect x="230" y="10" width="10" height="10" fill="rgb(101,111,134)"/><rect x="240" y="10" width="10" height="10" fill="rgb(77,93,121)"/><rect x="250" y="10" width="10" height="10" fill="rgb(94,105,130)"/><rect x="260" y="10" width="10" height="10" fill="rgb(90,101,126)"/><rect x="270" y="10" width="10" height="10" fill="rgb(105,113,133)"/><rect x="280" y="10" width="10" height="10" fill="rgb(99,108,130)"/><rect x="290" y="10" width="10" height="10" fill="rgb(95,108,132)"/><rect x="300" y="10" width="10" height="10" fill="rgb(103,115,139)"/><rect x="310" y="10" width="10" height="10" fill="rgb(87,102,129)"/><rect x="320" y="10" width="10" height="10" fill="rgb(84,99,126)"/><rect x="330" y="10" width="10" height="10" fill="rgb(76,93,121)"/><rect x="340" y="10" width="10" height="10" fill="rgb(77,93,121)"/><rect x="350" y="10" width="10" height="10" fill="rgb(88,103,129)"/><rect x="360" y="10" width="10" height="10" fill="rgb(113,120,139)"/><rect x="370" y="10" width="10" height="10" fill="rgb(103,113,137)"/><rect x="380" y="10" width="10" height="10" fill="rgb(84,101,129)"/><rect x="390" y="10" width="10" height="10" fill="rgb(108,121,146)"/><rect x="400" y="10" width="10" height="10" fill="rgb(86,104,134)"/><rect x="410" y="10" width="10" height="10" fill="rgb(88,105,133)"/><rect x="420" y="10" width="10" height="10" fill="rgb(95,111,138)"/><rect x="430" y="10" width="10" height="10" fill="rgb(101,116,142)"/><rect x="440" y="10" width="10" height="10" fill="rgb(94,110,138)"/><rect x="450" y="10" width="10" height="10" fill="rgb(104,119,146)"/><rect x="460" y="10" width="10" height="10" fill="rgb(96,113,141)"/><rect x="470" y="10" width="10" height="10" fill="rgb(113,124,147)"/><rect x="0" y="20" width="10" height="10" fill="rgb(108,123,148)"/><rect x="10" y="20" width="10" height="10" fill="rgb(100,118,145)"/><rect x="20" y="20" width="10" height="10" fill="rgb(99,118,146)"/><rect x="30" y="20" width="10" height="10" fill="rgb(99,119,149)"/><rect x="40" y="20" width="10" height="10" fill="rgb(102,122,151)"/><rect x="50" y="20" width="10" height="10" fill="rgb(104,120,146)"/><rect x="60" y="20" width="10" height="10" fill="rgb(113,130,157)"/><rect x="70" y="20" width="10" height="10" fill="rgb(106,134,168)"/><rect x="80" y="20" width="10" height="10" fill="rgb(95,136,183)"/><rect x="90" y="20" width="10" height="10" fill="rgb(86,128,167)"/><rect x="100" y="20" width="10" height="10" fill="rgb(98,126,163)"/><rect x="110" y="20" width="10" height="10" fill="rgb(105,125,156)"/><rect x="120" y="20" width="10" height="10" fill="rgb(101,130,169)"/><rect x="130" y="20" width="10" height="10" fill="rgb(105,133,168)"/><rect x="140" y="20" width="10" height="10" fill="rgb(104,132,168)"/><rect x="150" y="20" width="10" height="10" fill="rgb(99,129,170)"/><rect x="160" y="20" width="10" height="10" fill="rgb(92,129,171)"/><rect x="170" y="20" width="10" height="10" fill="rgb(85,128,173)"/><rect x="180" y="20" width="10" height="10" fill="rgb(88,126,168)"/><rect x="190" y="20" width="10" height="10" fill="rgb(90,120,157)"/><rect x="200" y="20" width="10" height="10" fill="rgb(100,121,150)"/><rect x="210" y="20" width="10" height="10" fill="rgb(88,102,124)"/><rect x="220" y="20" width="10" height="10" fill="rgb(48,61,82)"/><rect x="230" y="20" width="10" height="10" fill="rgb(26,29,43)"/><rect x="240" y="20" width="10" height="10" fill="rgb(22,25,34)"/><rect x="250" y="20" width="10" height="10" fill="rgb(14,14,14)"/><rect x="260" y="20" width="10" height="10" fill="rgb(15,15,15)"/><rect x="270" y="20" width="10" height="10" fill="rgb(8,8,8)"/><rect x="280" y="20" width="10" height="10" fill="rgb(6,6,6)"/><rect x="290" y="20" width="10" height="10" fill="rgb(5,5,5)"/><rect x="300" y="20" width="10" height="10" fill="rgb(5,5,5)"/><rect x="310" y="20" width="10" height="10" fill="rgb(3,3,3)"/><rect x="320" y="20" width="10" height="10" fill="rgb(1,1,1)"/><rect x="330" y="20" width="10" height="10" fill="rgb(1,1,1)"/><rect x="340" y="20" width="10" height="10" fill="rgb(1,1,1)"/><rect x="350" y="20" width="10" height="10" fill="rgb(1,1,1)"/><rect x="360" y="20" width="10" height="10" fill="rgb(1,1,1)"/><rect x="370" y="20" width="10" height="10" fill="rgb(1,1,1)"/><rect x="380" y="20" width="10" height="10" fill="rgb(1,1,1)"/><rect x="390" y="20" width="10" height="10" fill="rgb(1,1,1)"/><rect x="400" y="20" width="10" height="10" fill="rgb(1,1,1)"/><rect x="410" y="20" width="10" height="10" fill="rgb(1,1,1)"/><rect x="420" y="20" width="10" height="10" fill="rgb(1,1,1)"/><rect x="430" y="20" width="10" height="10" fill="rgb(1,1,1)"/><rect x="440" y="20" width="10" height="10" fill="rgb(1,1,1)"/><rect x="450" y="20" width="10" height="10" fill="rgb(1,1,1)"/><rect x="460" y="20" width="10" height="10" fill="rgb(1,1,1)"/><rect x="470" y="20" width="10" height="10" fill="rgb(1,1,1)"/><rect x="0" y="30" width="10" height="10" fill="rgb(1,1,1)"/><rect x="10" y="30" width="10" height="10" fill="rgb(1,1,1)"/><rect x="20" y="30" width="10" height="10" fill="rgb(1,1,1)"/><rect x="30" y="30" width="10" height="10" fill="rgb(1,1,1)"/><rect x="40" y="30" width="10" height="10" fill="rgb(1,1,1)"/><rect x="50" y="30" width="10" height="10" fill="rgb(1,1,1)"/><rect x="60" y="30" width="10" height="10" fill="rgb(1,1,1)"/><rect x="70" y="30" width="10" height="10" fill="rgb(1,1,1)"/><rect x="80" y="30" width="10" height="10" fill="rgb(1,1,1)"/><rect x="90" y="30" width="10" height="10" fill="rgb(1,1,1)"/><rect x="100" y="30" width="10" height="10" fill="rgb(1,1,1)"/><rect x="110" y="30" width="10" height="10" fill="rgb(1,1,1)"/><rect x="120" y="30" width="10" height="10" fill="rgb(1,1,1)"/><rect x="130" y="30" width="10" height="10" fill="rgb(1,1,1)"/><rect x="140" y="30" width="10" height="10" fill="rgb(1,1,1)"/><rect x="150" y="30" width="10" height="10" fill="rgb(1,1,1)"/><rect x="160" y="30" width="10" height="10" fill="rgb(1,1,1)"/><rect x="170" y="30" width="10" height="10" fill="rgb(1,1,1)"/><rect x="180" y="30" width="10" height="10" fill="rgb(1,1,1)"/><rect x="190" y="30" width="10" height="10" fill="rgb(1,1,1)"/><rect x="200" y="30" width="10" height="10" fill="rgb(1,1,1)"/><rect x="210" y="30" width="10" height="10" fill="rgb(1,1,1)"/><rect x="220" y="30" width="10" height="10" fill="rgb(1,1,1)"/><rect x="230" y="30" width="10" height="10" fill="rgb(1,1,1)"/><rect x="240" y="30" width="10" height="10" fill="rgb(1,1,1)"/><rect x="250" y="30" width="10" height="10" fill="rgb(1,1,1)"/><rect x="260" y="30" width="10" height="10" fill="rgb(1,1,1)"/><rect x="270" y="30" width="10" height="10" fill="rgb(1,1,1)"/><rect x="280" y="30" width="10" height="10" fill="rgb(1,1,1)"/><rect x="290" y="30" width="10" height="10" fill="rgb(1,1,1)"/><rect x="300" y="30" width="10" height="10" fill="rgb(1,1,1)"/><rect x="310" y="30" width="10" height="10" fill="rgb(1,1,1)"/><rect x="320" y="30" width="10" height="10" fill="rgb(1,1,1)"/><rect x="330" y="30" width="10" height="10" fill="rgb(1,1,1)"/><rect x="340" y="30" width="10" height="10" fill="rgb(1,1,1)"/><rect x="350" y="30" width="10" height="10" fill="rgb(1,1,1)"/><rect x="360" y="30" width="10" height="10" fill="rgb(1,1,1)"/><rect x="370" y="30" width="10" height="10" fill="rgb(1,1,1)"/><rect x="380" y="30" width="10" height="10" fill="rgb(1,1,1)"/><rect x="390" y="30" width="10" height="10" fill="rgb(1,1,1)"/><rect x="400" y="30" width="10" height="10" fill="rgb(1,1,1)"/><rect x="410" y="30" width="10" height="10" fill="rgb(1,1,1)"/><rect x="420" y="30" width="10" height="10" fill="rgb(1,1,1)"/><rect x="430" y="30" width="10" height="10" fill="rgb(1,1,1)"/><rect x="440" y="30" width="10" height="10" fill="rgb(1,1,1)"/><rect x="450" y="30" width="10" height="10" fill="rgb(1,1,1)"/><rect x="460" y="30" width="10" height="10" fill="rgb(1,1,1)"/><rect x="470" y="30" width="10" height="10" fill="rgb(1,1,1)"/><rect x="0" y="40" width="10" height="10" fill="rgb(1,1,1)"/><rect x="10" y="40" width="10" height="10" fill="rgb(1,1,1)"/><rect x="20" y="40" width="10" height="10" fill="rgb(1,1,1)"/><rect x="30" y="40" width="10" height="10" fill="rgb(1,1,1)"/><rect x="40" y="40" width="10" height="10" fill="rgb(1,1,1)"/><rect x="50" y="40" width="10" height="10" fill="rgb(1,1,1)"/><rect x="60" y="40" width="10" height="10" fill="rgb(1,1,1)"/><rect x="70" y="40" width="10" height="10" fill="rgb(1,1,1)"/><rect x="80" y="40" width="10" height="10" fill="rgb(1,1,1)"/><rect x="90" y="40" width="10" height="10" fill="rgb(1,1,1)"/><rect x="100" y="40" width="10" height="10" fill="rgb(1,1,1)"/><rect x="110" y="40" width="10" height="10" fill="rgb(1,1,1)"/><rect x="120" y="40" width="10" height="10" fill="rgb(1,1,1)"/><rect x="130" y="40" width="10" height="10" fill="rgb(2,2,2)"/><rect x="140" y="40" width="10" height="10" fill="rgb(2,2,2)"/><rect x="150" y="40" width="10" height="10" fill="rgb(4,4,4)"/><rect x="160" y="40" width="10" height="10" fill="rgb(11,11,11)"/><rect x="170" y="40" width="10" height="10" fill="rgb(29,29,29)"/><rect x="180" y="40" width="10" height="10" fill="rgb(62,62,62)"/><rect x="190" y="40" width="10" height="10" fill="rgb(67,67,67)"/><rect x="200" y="40" width="10" height="10" fill="rgb(87,87,87)"/><rect x="210" y="40" width="10" height="10" fill="rgb(128,128,128)"/><rect x="220" y="40" width="10" height="10" fill="rgb(155,155,155)"/><rect x="230" y="40" width="10" height="10" fill="rgb(81,173,255)"/><rect x="240" y="40" width="10" height="10" fill="rgb(143,161,209)"/><rect x="250" y="40" width="10" height="10" fill="rgb(158,163,198)"/><rect x="260" y="40" width="10" height="10" fill="rgb(166,169,194)"/><rect x="270" y="40" width="10" height="10" fill="rgb(185,185,207)"/><rect x="280" y="40" width="10" height="10" fill="rgb(178,179,196)"/><rect x="290" y="40" width="10" height="10" fill="rgb(185,185,201)"/><rect x="300" y="40" width="10" height="10" fill="rgb(190,190,206)"/><rect x="310" y="40" width="10" height="10" fill="rgb(183,184,200)"/><rect x="320" y="40" width="10" height="10" fill="rgb(184,186,202)"/><rect x="330" y="40" width="10" height="10" fill="rgb(191,190,206)"/><rect x="340" y="40" width="10" height="10" fill="rgb(201,201,217)"/><rect x="350" y="40" width="10" height="10" fill="rgb(216,216,232)"/><rect x="360" y="40" width="10" height="10" fill="rgb(234,234,251)"/><rect x="370" y="40" width="10" height="10" fill="rgb(235,235,252)"/><rect x="380" y="40" width="10" height="10" fill="rgb(232,231,247)"/><rect x="390" y="40" width="10" height="10" fill="rgb(242,240,254)"/><rect x="400" y="40" width="10" height="10" fill="rgb(236,235,251)"/><rect x="410" y="40" width="10" height="10" fill="rgb(230,233,252)"/><rect x="420" y="40" width="10" height="10" fill="rgb(215,218,236)"/><rect x="430" y="40" width="10" height="10" fill="rgb(218,219,237)"/><rect x="440" y="40" width="10" height="10" fill="rgb(235,232,245)"/><rect x="450" y="40" width="10" height="10" fill="rgb(214,214,230)"/><rect x="460" y="40" width="10" height="10" fill="rgb(197,200,217)"/><rect x="470" y="40" width="10" height="10" fill="rgb(194,197,214)"/><rect x="0" y="50" width="10" height="10" fill="rgb(200,201,217)"/><rect x="10" y="50" width="10" height="10" fill="rgb(212,212,228)"/><rect x="20" y="50" width="10" height="10" fill="rgb(214,213,230)"/><rect x="30" y="50" width="10" height="10" fill="rgb(191,191,207)"/><rect x="40" y="50" width="10" height="10" fill="rgb(183,182,198)"/><rect x="50" y="50" width="10" height="10" fill="rgb(172,172,188)"/><rect x="60" y="50" width="10" height="10" fill="rgb(168,169,185)"/><rect x="70" y="50" width="10" height="10" fill="rgb(205,205,223)"/><rect x="80" y="50" width="10" height="10" fill="rgb(223,216,228)"/><rect x="90" y="50" width="10" height="10" fill="rgb(193,192,207)"/><rect x="100" y="50" width="10" height="10" fill="rgb(187,185,197)"/><rect x="110" y="50" width="10" height="10" fill="rgb(193,191,202)"/><rect x="120" y="50" width="10" height="10" fill="rgb(195,193,204)"/><rect x="130" y="50" width="10" height="10" fill="rgb(202,199,209)"/><rect x="140" y="50" width="10" height="10" fill="rgb(215,212,226)"/><rect x="150" y="50" width="10" height="10" fill="rgb(183,183,199)"/><rect x="160" y="50" width="10" height="10" fill="rgb(193,192,206)"/><rect x="170" y="50" width="10" height="10" fill="rgb(229,224,235)"/><rect x="180" y="50" width="10" height="10" fill="rgb(201,200,215)"/><rect x="190" y="50" width="10" height="10" fill="rgb(204,203,217)"/><rect x="200" y="50" width="10" height="10" fill="rgb(203,200,212)"/><rect x="210" y="50" width="10" height="10" fill="rgb(233,228,237)"/><rect x="220" y="50" width="10" height="10" fill="rgb(166,166,177)"/><rect x="230" y="50" width="10" height="10" fill="rgb(213,208,219)"/><rect x="240" y="50" width="10" height="10" fill="rgb(210,207,220)"/><rect x="250" y="50" width="10" height="10" fill="rgb(227,219,229)"/><rect x="260" y="50" width="10" height="10" fill="rgb(219,212,220)"/><rect x="270" y="50" width="10" height="10" fill="rgb(225,215,222)"/><rect x="280" y="50" width="10" height="10" fill="rgb(168,172,191)"/><rect x="290" y="50" width="10" height="10" fill="rgb(164,168,185)"/><rect x="300" y="50" width="10" height="10" fill="rgb(196,192,203)"/><rect x="310" y="50" width="10" height="10" fill="rgb(203,193,199)"/><rect x="320" y="50" width="10" height="10" fill="rgb(200,191,198)"/><rect x="330" y="50" width="10" height="10" fill="rgb(216,207,215)"/><rect x="340" y="50" width="10" height="10" fill="rgb(189,181,188)"/><rect x="350" y="50" width="10" height="10" fill="rgb(188,180,186)"/><rect x="360" y="50" width="10" height="10" fill="rgb(210,203,211)"/><rect x="370" y="50" width="10" height="10" fill="rgb(211,205,215)"/><rect x="380" y="50" width="10" height="10" fill="rgb(207,199,207)"/><rect x="390" y="50" width="10" height="10" fill="rgb(229,219,228)"/><rect x="400" y="50" width="10" height="10" fill="rgb(229,216,219)"/><rect x="410" y="50" width="10" height="10" fill="rgb(222,210,216)"/><rect x="420" y="50" width="10" height="10" fill="rgb(221,210,216)"/><rect x="430" y="50" width="10" height="10" fill="rgb(192,190,204)"/><rect x="440" y="50" width="10" height="10" fill="rgb(197,193,205)"/><rect x="450" y="50" width="10" height="10" fill="rgb(195,190,202)"/><rect x="460" y="50" width="10" height="10" fill="rgb(194,191,205)"/><rect x="470" y="50" width="10" height="10" fill="rgb(221,210,219)"/><rect x="0" y="60" width="10" height="10" fill="rgb(203,197,209)"/><rect x="10" y="60" width="10" height="10" fill="rgb(231,218,225)"/><rect x="20" y="60" width="10" height="10" fill="rgb(202,197,212)"/><rect x="30" y="60" width="10" height="10" fill="rgb(202,196,211)"/><rect x="40" y="60" width="10" height="10" fill="rgb(208,201,214)"/><rect x="50" y="60" width="10" height="10" fill="rgb(200,194,208)"/><rect x="60" y="60" width="10" height="10" fill="rgb(190,188,204)"/><rect x="70" y="60" width="10" height="10" fill="rgb(176,179,199)"/><rect x="80" y="60" width="10" height="10" fill="rgb(174,177,198)"/><rect x="90" y="60" width="10" height="10" fill="rgb(181,182,202)"/><rect x="100" y="60" width="10" height="10" fill="rgb(174,177,197)"/><rect x="110" y="60" width="10" height="10" fill="rgb(177,179,198)"/><rect x="120" y="60" width="10" height="10" fill="rgb(186,185,202)"/><rect x="130" y="60" width="10" height="10" fill="rgb(191,188,204)"/><rect x="140" y="60" width="10" height="10" fill="rgb(189,188,204)"/><rect x="150" y="60" width="10" height="10" fill="rgb(180,180,197)"/><rect x="160" y="60" width="10" height="10" fill="rgb(179,180,197)"/><rect x="170" y="60" width="10" height="10" fill="rgb(175,176,194)"/><rect x="180" y="60" width="10" height="10" fill="rgb(184,183,199)"/><rect x="190" y="60" width="10" height="10" fill="rgb(185,183,199)"/><rect x="200" y="60" width="10" height="10" fill="rgb(182,180,196)"/><rect x="210" y="60" width="10" height="10" fill="rgb(179,178,194)"/><rect x="220" y="60" width="10" height="10" fill="rgb(182,180,196)"/><rect x="230" y="60" width="10" height="10" fill="rgb(183,181,196)"/></svg>