<svg xmlns="http://www.w3.org/2000/svg" width="100" height="260"><rect x="0" y="0" width="10" height="10" fill="rgb(125,128,127)"/><rect x="10" y="0" width="10" height="10" fill="rgb(125,128,127)"/><rect x="20" y="0" width="10" height="10" fill="rgb(138,141,140)"/><rect x="30" y="0" width="10" height="10" fill="rgb(138,141,140)"/><rect x="40" y="0" width="10" height="10" fill="rgb(128,131,129)"/><rect x="50" y="0" width="10" height="10" fill="rgb(128,131,129)"/><rect x="60" y="0" width="10" height="10" fill="rgb(128,131,129)"/><rect x="70" y="0" width="10" height="10" fill="rgb(255,255,255)"/><rect x="80" y="0" width="10" height="10" fill="rgb(255,255,255)"/><rect x="90" y="0" width="10" height="10" fill="rgb(255,255,255)"/><rect x="0" y="10" width="10" height="10" fill="rgb(255,255,255)"/><rect x="10" y="10" width="10" height="10" fill="rgb(134,139,138)"/><rect x="20" y="10" width="10" height="10" fill="rgb(134,139,138)"/><rect x="30" y="10" width="10" height="10" fill="rgb(124,127,126)"/><rect x="40" y="10" width="10" height="10" fill="rgb(124,127,126)"/><rect x="50" y="10" width="10" height="10" fill="rgb(135,139,137)"/><rect x="60" y="10" width="10" height="10" fill="rgb(135,139,137)"/><rect x="70" y="10" width="10" height="10" fill="rgb(123,128,127)"/><rect x="80" y="10" width="10" height="10" fill="rgb(123,128,127)"/><rect x="90" y="10" width="10" height="10" fill="rgb(123,128,127)"/><rect x="0" y="20" width="10" height="10" fill="rgb(142,144,143)"/><rect x="10" y="20" width="10" height="10" fill="rgb(142,144,143)"/><rect x="20" y="20" width="10" height="10" fill="rgb(119,123,121)"/><rect x="30" y="20" width="10" height="10" fill="rgb(119,123,121)"/><rect x="40" y="20" width="10" height="10" fill="rgb(255,255,255)"/><rect x="50" y="20" width="10" height="10" fill="rgb(255,255,255)"/><rect x="60" y="20" width="10" height="10" fill="rgb(141,146,144)"/><rect x="70" y="20" width="10" height="10" fill="rgb(141,146,144)"/><rect x="80" y="20" width="10" height="10" fill="rgb(130,136,135)"/><rect x="90" y="20" width="10" height="10" fill="rgb(130,136,135)"/><rect x="0" y="30" width="10" height="10" fill="rgb(135,139,137)"/><rect x="10" y="30" width="10" height="10" fill="rgb(135,139,137)"/><rect x="20" y="30" width="10" height="10" fill="rgb(135,139,137)"/><rect x="30" y="30" width="10" height="10" fill="rgb(255,255,255)"/><rect x="40" y="30" width="10" height="10" fill="rgb(255,255,255)"/><rect x="50" y="30" width="10" height="10" fill="rgb(124,128,126)"/><rect x="60" y="30" width="10" height="10" fill="rgb(124,128,126)"/><rect x="70" y="30" width="10" height="10" fill="rgb(132,138,136)"/><rect x="80" y="30" width="10" height="10" fill="rgb(132,138,136)"/><rect x="90" y="30" width="10" height="10" fill="rgb(130,135,134)"/><rect x="0" y="40" width="10" height="10" fill="rgb(130,135,134)"/><rect x="10" y="40" width="10" height="10" fill="rgb(255,255,255)"/><rect x="20" y="40" width="10" height="10" fill="rgb(255,255,255)"/><rect x="30" y="40" width="10" height="10" fill="rgb(132,137,136)"/><rect x="40" y="40" width="10" height="10" fill="rgb(132,137,136)"/><rect x="50" y="40" width="10" height="10" fill="rgb(132,136,135)"/><rect x="60" y="40" width="10" height="10" fill="rgb(132,136,135)"/><rect x="70" y="40" width="10" height="10" fill="rgb(128,132,131)"/><rect x="80" y="40" width="10" height="10" fill="rgb(128,132,131)"/><rect x="90" y="40" width="10" height="10" fill="rgb(126,131,130)"/><rect x="0" y="50" width="10" height="10" fill="rgb(126,131,130)"/><rect x="10" y="50" width="10" height="10" fill="rgb(133,137,135)"/><rect x="20" y="50" width="10" height="10" fill="rgb(133,137,135)"/><rect x="30" y="50" width="10" height="10" fill="rgb(133,137,135)"/><rect x="40" y="50" width="10" height="10" fill="rgb(151,155,154)"/><rect x="50" y="50" width="10" height="10" fill="rgb(151,155,154)"/><rect x="60" y="50" width="10" height="10" fill="rgb(134,139,137)"/><rect x="70" y="50" width="10" height="10" fill="rgb(134,139,137)"/><rect x="80" y="50" width="10" height="10" fill="rgb(109,112,110)"/><rect x="90" y="50" width="10" height="10" fill="rgb(109,112,110)"/><rect x="0" y="60" width="10" height="10" fill="rgb(74,79,78)"/><rect x="10" y="60" width="10" height="10" fill="rgb(74,79,78)"/><rect x="20" y="60" width="10" height="10" fill="rgb(255,255,255)"/><rect x="30" y="60" width="10" height="10" fill="rgb(255,255,255)"/><rect x="40" y="60" width="10" height="10" fill="rgb(123,129,136)"/><rect x="50" y="60" width="10" height="10" fill="rgb(123,129,136)"/><rect x="60" y="60" width="10" height="10" fill="rgb(123,129,136)"/><rect x="70" y="60" width="10" height="10" fill="rgb(129,133,146)"/><rect x="80" y="60" width="10" height="10" fill="rgb(129,133,146)"/><rect x="90" y="60" width="10" height="10" fill="rgb(121,126,139)"/><rect x="0" y="70" width="10" height="10" fill="rgb(121,126,139)"/><rect x="10" y="70" width="10" height="10" fill="rgb(120,124,139)"/><rect x="20" y="70" width="10" height="10" fill="rgb(120,124,139)"/><rect x="30" y="70" width="10" height="10" fill="rgb(112,117,138)"/><rect x="40" y="70" width="10" height="10" fill="rgb(112,117,138)"/><rect x="50" y="70" width="10" height="10" fill="rgb(98,104,128)"/><rect x="60" y="70" width="10" height="10" fill="rgb(98,104,128)"/><rect x="70" y="70" width="10" height="10" fill="rgb(111,115,146)"/><rect x="80" y="70" width="10" height="10" fill="rgb(111,115,146)"/><rect x="90" y="70" width="10" height="10" fill="rgb(111,115,146)"/><rect x="0" y="80" width="10" height="10" fill="rgb(132,134,167)"/><rect x="10" y="80" width="10" height="10" fill="rgb(132,134,167)"/><rect x="20" y="80" width="10" height="10" fill="rgb(125,128,146)"/><rect x="30" y="80" width="10" height="10" fill="rgb(125,128,146)"/><rect x="40" y="80" width="10" height="10" fill="rgb(255,255,255)"/><rect x="50" y="80" width="10" height="10" fill="rgb(255,255,255)"/><rect x="60" y="80" width="10" height="10" fill="rgb(20,23,30)"/><rect x="70" y="80" width="10" height="10" fill="rgb(20,23,30)"/><rect x="80" y="80" width="10" height="10" fill="rgb(8,9,14)"/><rect x="90" y="80" width="10" height="10" fill="rgb(8,9,14)"/><rect x="0" y="90" width="10" height="10" fill="rgb(4,5,6)"/><rect x="10" y="90" width="10" height="10" fill="rgb(4,5,6)"/><rect x="20" y="90" width="10" height="10" fill="rgb(2,2,3)"/><rect x="30" y="90" width="10" height="10" fill="rgb(2,2,3)"/><rect x="40" y="90" width="10" height="10" fill="rgb(2,2,3)"/><rect x="50" y="90" width="10" height="10" fill="rgb(2,2,2)"/><rect x="60" y="90" width="10" height="10" fill="rgb(2,2,2)"/><rect x="70" y="90" width="10" height="10" fill="rgb(2,2,2)"/><rect x="80" y="90" width="10" height="10" fill="rgb(2,2,2)"/><rect x="90" y="90" width="10" height="10" fill="rgb(2,2,2)"/><rect x="0" y="100" width="10" height="10" fill="rgb(2,2,2)"/><rect x="10" y="100" width="10" height="10" fill="rgb(255,255,255)"/><rect x="20" y="100" width="10" height="10" fill="rgb(255,255,255)"/><rect x="30" y="100" width="10" height="10" fill="rgb(255,255,255)"/><rect x="40" y="100" width="10" height="10" fill="rgb(255,255,255)"/><rect x="50" y="100" width="10" height="10" fill="rgb(1,1,1)"/><rect x="60" y="100" width="10" height="10" fill="rgb(1,1,1)"/><rect x="70" y="100" width="10" height="10" fill="rgb(1,1,1)"/><rect x="80" y="100" width="10" height="10" fill="rgb(1,1,1)"/><rect x="90" y="100" width="10" height="10" fill="rgb(1,1,1)"/><rect x="0" y="110" width="10" height="10" fill="rgb(1,1,1)"/><rect x="10" y="110" width="10" height="10" fill="rgb(1,1,1)"/><rect x="20" y="110" width="10" height="10" fill="rgb(1,1,1)"/><rect x="30" y="110" width="10" height="10" fill="rgb(2,2,2)"/><rect x="40" y="110" width="10" height="10" fill="rgb(2,2,2)"/><rect x="50" y="110" width="10" height="10" fill="rgb(2,2,2)"/><rect x="60" y="110" width="10" height="10" fill="rgb(1,1,1)"/><rect x="70" y="110" width="10" height="10" fill="rgb(1,1,1)"/><rect x="80" y="110" width="10" height="10" fill="rgb(1,1,1)"/><rect x="90" y="110" width="10" height="10" fill="rgb(1,1,1)"/><rect x="0" y="120" width="10" height="10" fill="rgb(1,1,1)"/><rect x="10" y="120" width="10" height="10" fill="rgb(1,1,1)"/><rect x="20" y="120" width="10" height="10" fill="rgb(1,1,1)"/><rect x="30" y="120" width="10" height="10" fill="rgb(1,1,1)"/><rect x="40" y="120" width="10" height="10" fill="rgb(1,1,1)"/><rect x="50" y="120" width="10" height="10" fill="rgb(1,1,1)"/><rect x="60" y="120" width="10" height="10" fill="rgb(1,1,1)"/><rect x="70" y="120" width="10" height="10" fill="rgb(1,1,1)"/><rect x="80" y="120" width="10" height="10" fill="rgb(1,1,1)"/><rect x="90" y="120" width="10" height="10" fill="rgb(1,1,1)"/><rect x="0" y="130" width="10" height="10" fill="rgb(1,1,1)"/><rect x="10" y="130" width="10" height="10" fill="rgb(1,1,1)"/><rect x="20" y="130" width="10" height="10" fill="rgb(1,1,1)"/><rect x="30" y="130" width="10" height="10" fill="rgb(1,1,1)"/><rect x="40" y="130" width="10" height="10" fill="rgb(1,1,1)"/><rect x="50" y="130" width="10" height="10" fill="rgb(2,2,2)"/><rect x="60" y="130" width="10" height="10" fill="rgb(2,2,2)"/><rect x="70" y="130" width="10" height="10" fill="rgb(3,4,6)"/><rect x="80" y="130" width="10" height="10" fill="rgb(3,4,6)"/><rect x="90" y="130" width="10" height="10" fill="rgb(3,4,6)"/><rect x="0" y="140" width="10" height="10" fill="rgb(8,10,16)"/><rect x="10" y="140" width="10" height="10" fill="rgb(8,10,16)"/><rect x="20" y="140" width="10" height="10" fill="rgb(21,26,35)"/><rect x="30" y="140" width="10" height="10" fill="rgb(21,26,35)"/><rect x="40" y="140" width="10" height="10" fill="rgb(255,255,255)"/><rect x="50" y="140" width="10" height="10" fill="rgb(255,255,255)"/><rect x="60" y="140" width="10" height="10" fill="rgb(255,255,255)"/><rect x="70" y="140" width="10" height="10" fill="rgb(255,255,255)"/><rect x="80" y="140" width="10" height="10" fill="rgb(89,93,104)"/><rect x="90" y="140" width="10" height="10" fill="rgb(89,93,104)"/><rect x="0" y="150" width="10" height="10" fill="rgb(89,93,104)"/><rect x="10" y="150" width="10" height="10" fill="rgb(98,102,111)"/><rect x="20" y="150" width="10" height="10" fill="rgb(98,102,111)"/><rect x="30" y="150" width="10" height="10" fill="rgb(255,255,255)"/><rect x="40" y="150" width="10" height="10" fill="rgb(255,255,255)"/><rect x="50" y="150" width="10" height="10" fill="rgb(95,103,108)"/><rect x="60" y="150" width="10" height="10" fill="rgb(95,103,108)"/><rect x="70" y="150" width="10" height="10" fill="rgb(95,103,108)"/><rect x="80" y="150" width="10" height="10" fill="rgb(255,255,255)"/><rect x="90" y="150" width="10" height="10" fill="rgb(255,255,255)"/><rect x="0" y="160" width="10" height="10" fill="rgb(115,123,126)"/><rect x="10" y="160" width="10" height="10" fill="rgb(115,123,126)"/><rect x="20" y="160" width="10" height="10" fill="rgb(92,101,105)"/><rect x="30" y="160" width="10" height="10" fill="rgb(92,101,105)"/><rect x="40" y="160" width="10" height="10" fill="rgb(93,102,106)"/><rect x="50" y="160" width="10" height="10" fill="rgb(93,102,106)"/><rect x="60" y="160" width="10" height="10" fill="rgb(255,255,255)"/><rect x="70" y="160" width="10" height="10" fill="rgb(255,255,255)"/><rect x="80" y="160" width="10" height="10" fill="rgb(255,255,255)"/><rect x="90" y="160" width="10" height="10" fill="rgb(255,255,255)"/><rect x="0" y="170" width="10" height="10" fill="rgb(255,255,255)"/><rect x="10" y="170" width="10" height="10" fill="rgb(87,98,104)"/><rect x="20" y="170" width="10" height="10" fill="rgb(87,98,104)"/><rect x="30" y="170" width="10" height="10" fill="rgb(89,101,107)"/><rect x="40" y="170" width="10" height="10" fill="rgb(89,101,107)"/><rect x="50" y="170" width="10" height="10" fill="rgb(255,255,255)"/><rect x="60" y="170" width="10" height="10" fill="rgb(255,255,255)"/><rect x="70" y="170" width="10" height="10" fill="rgb(95,105,111)"/><rect x="80" y="170" width="10" height="10" fill="rgb(95,105,111)"/><rect x="90" y="170" width="10" height="10" fill="rgb(95,105,111)"/><rect x="0" y="180" width="10" height="10" fill="rgb(255,255,255)"/><rect x="10" y="180" width="10" height="10" fill="rgb(255,255,255)"/><rect x="20" y="180" width="10" height="10" fill="rgb(101,110,116)"/><rect x="30" y="180" width="10" height="10" fill="rgb(101,110,116)"/><rect x="40" y="180" width="10" height="10" fill="rgb(102,111,118)"/><rect x="50" y="180" width="10" height="10" fill="rgb(102,111,118)"/><rect x="60" y="180" width="10" height="10" fill="rgb(100,109,115)"/><rect x="70" y="180" width="10" height="10" fill="rgb(100,109,115)"/><rect x="80" y="180" width="10" height="10" fill="rgb(100,110,116)"/><rect x="90" y="180" width="10" height="10" fill="rgb(100,110,116)"/><rect x="0" y="190" width="10" height="10" fill="rgb(100,110,116)"/><rect x="10" y="190" width="10" height="10" fill="rgb(101,111,118)"/><rect x="20" y="190" width="10" height="10" fill="rgb(101,111,118)"/><rect x="30" y="190" width="10" height="10" fill="rgb(101,111,118)"/><rect x="40" y="190" width="10" height="10" fill="rgb(101,111,118)"/><rect x="50" y="190" width="10" height="10" fill="rgb(94,104,111)"/><rect x="60" y="190" width="10" height="10" fill="rgb(94,104,111)"/><rect x="70" y="190" width="10" height="10" fill="rgb(93,104,111)"/><rect x="80" y="190" width="10" height="10" fill="rgb(93,104,111)"/><rect x="90" y="190" width="10" height="10" fill="rgb(88,100,108)"/><rect x="0" y="200" width="10" height="10" fill="rgb(88,100,108)"/><rect x="10" y="200" width="10" height="10" fill="rgb(85,97,106)"/><rect x="20" y="200" width="10" height="10" fill="rgb(85,97,106)"/><rect x="30" y="200" width="10" height="10" fill="rgb(87,100,109)"/><rect x="40" y="200" width="10" height="10" fill="rgb(87,100,109)"/><rect x="50" y="200" width="10" height="10" fill="rgb(93,105,114)"/><rect x="60" y="200" width="10" height="10" fill="rgb(93,105,114)"/><rect x="70" y="200" width="10" height="10" fill="rgb(92,104,114)"/><rect x="80" y="200" width="10" height="10" fill="rgb(92,104,114)"/><rect x="90" y="200" width="10" height="10" fill="rgb(92,104,114)"/><rect x="0" y="210" width="10" height="10" fill="rgb(84,97,107)"/><rect x="10" y="210" width="10" height="10" fill="rgb(84,97,107)"/><rect x="20" y="210" width="10" height="10" fill="rgb(100,109,114)"/><rect x="30" y="210" width="10" height="10" fill="rgb(100,109,114)"/><rect x="40" y="210" width="10" height="10" fill="rgb(94,104,109)"/><rect x="50" y="210" width="10" height="10" fill="rgb(94,104,109)"/><rect x="60" y="210" width="10" height="10" fill="rgb(103,111,116)"/><rect x="70" y="210" width="10" height="10" fill="rgb(103,111,116)"/><rect x="80" y="210" width="10" height="10" fill="rgb(84,96,105)"/><rect x="90" y="210" width="10" height="10" fill="rgb(84,96,105)"/><rect x="0" y="220" width="10" height="10" fill="rgb(99,109,116)"/><rect x="10" y="220" width="10" height="10" fill="rgb(99,109,116)"/><rect x="20" y="220" width="10" height="10" fill="rgb(91,103,113)"/><rect x="30" y="220" width="10" height="10" fill="rgb(91,103,113)"/><rect x="40" y="220" width="10" height="10" fill="rgb(74,89,103)"/><rect x="50" y="220" width="10" height="10" fill="rgb(74,89,103)"/><rect x="60" y="220" width="10" height="10" fill="rgb(74,89,103)"/><rect x="70" y="220" width="10" height="10" fill="rgb(83,96,107)"/><rect x="80" y="220" width="10" height="10" fill="rgb(83,96,107)"/><rect x="90" y="220" width="10" height="10" fill="rgb(84,98,112)"/><rect x="0" y="230" width="10" height="10" fill="rgb(84,98,112)"/><rect x="10" y="230" width="10" height="10" fill="rgb(74,89,104)"/><rect x="20" y="230" width="10" height="10" fill="rgb(74,89,104)"/><rect x="30" y="230" width="10" height="10" fill="rgb(70,88,105)"/><rect x="40" y="230" width="10" height="10" fill="rgb(70,88,105)"/><rect x="50" y="230" width="10" height="10" fill="rgb(70,88,105)"/><rect x="60" y="230" width="10" height="10" fill="rgb(71,88,104)"/><rect x="70" y="230" width="10" height="10" fill="rgb(71,88,104)"/><rect x="80" y="230" width="10" height="10" fill="rgb(76,93,111)"/><rect x="90" y="230" width="10" height="10" fill="rgb(76,93,111)"/><rect x="0" y="240" width="10" height="10" fill="rgb(103,111,117)"/><rect x="10" y="240" width="10" height="10" fill="rgb(103,111,117)"/><rect x="20" y="240" width="10" height="10" fill="rgb(97,108,117)"/><rect x="30" y="240" width="10" height="10" fill="rgb(97,108,117)"/><rect x="40" y="240" width="10" height="10" fill="rgb(103,112,119)"/><rect x="50" y="240" width="10" height="10" fill="rgb(103,112,119)"/><rect x="60" y="240" width="10" height="10" fill="rgb(103,112,119)"/><rect x="70" y="240" width="10" height="10" fill="rgb(84,95,105)"/><rect x="80" y="240" width="10" height="10" fill="rgb(84,95,105)"/><rect x="90" y="240" width="10" height="10" fill="rgb(81,93,105)"/><rect x="0" y="250" width="10" height="10" fill="rgb(81,93,105)"/><rect x="10" y="250" width="10" height="10" fill="rgb(72,86,101)"/><rect x="20" y="250" width="10" height="10" fill="rgb(72,86,101)"/><rect x="30" y="250" width="10" height="10" fill="rgb(75,90,106)"/><rect x="40" y="250" width="10" height="10" fill="rgb(75,90,106)"/><rect x="50" y="250" width="10" height="10" fill="rgb(75,90,106)"/><rect x="60" y="250" width="10" height="10" fill="rgb(130,135,134)"/><rect x="70" y="250" width="10" height="10" fill="rgb(130,135,134)"/><rect x="80" y="250" width="10" height="10" fill="rgb(135,139,137)"/><rect x="90" y="250" width="10" height="10" fill="rgb(135,139,137)"/></svg>