<svg xmlns="http://www.w3.org/2000/svg" width="100" height="270"><rect x="0" y="0" width="10" height="10" fill="rgb(168,175,193)"/><rect x="10" y="0" width="10" height="10" fill="rgb(168,175,193)"/><rect x="20" y="0" width="10" height="10" fill="rgb(159,173,204)"/><rect x="30" y="0" width="10" height="10" fill="rgb(159,173,204)"/><rect x="40" y="0" width="10" height="10" fill="rgb(159,173,204)"/><rect x="50" y="0" width="10" height="10" fill="rgb(159,173,204)"/><rect x="60" y="0" width="10" height="10" fill="rgb(153,161,198)"/><rect x="70" y="0" width="10" height="10" fill="rgb(153,161,198)"/><rect x="80" y="0" width="10" height="10" fill="rgb(153,161,198)"/><rect x="90" y="0" width="10" height="10" fill="rgb(153,161,198)"/><rect x="0" y="10" width="10" height="10" fill="rgb(121,129,144)"/><rect x="10" y="10" width="10" height="10" fill="rgb(121,129,144)"/><rect x="20" y="10" width="10" height="10" fill="rgb(121,129,144)"/><rect x="30" y="10" width="10" height="10" fill="rgb(121,129,144)"/><rect x="40" y="10" width="10" height="10" fill="rgb(110,113,108)"/><rect x="50" y="10" width="10" height="10" fill="rgb(110,113,108)"/><rect x="60" y="10" width="10" height="10" fill="rgb(110,113,108)"/><rect x="70" y="10" width="10" height="10" fill="rgb(110,113,108)"/><rect x="80" y="10" width="10" height="10" fill="rgb(108,110,104)"/><rect x="90" y="10" width="10" height="10" fill="rgb(108,110,104)"/><rect x="0" y="20" width="10" height="10" fill="rgb(108,110,104)"/><rect x="10" y="20" width="10" height="10" fill="rgb(108,110,104)"/><rect x="20" y="20" width="10" height="10" fill="rgb(105,107,100)"/><rect x="30" y="20" width="10" height="10" fill="rgb(105,107,100)"/><rect x="40" y="20" width="10" height="10" fill="rgb(105,107,100)"/><rect x="50" y="20" width="10" height="10" fill="rgb(105,107,100)"/><rect x="60" y="20" width="10" height="10" fill="rgb(97,102,94)"/><rect x="70" y="20" width="10" height="10" fill="rgb(97,102,94)"/><rect x="80" y="20" width="10" height="10" fill="rgb(97,102,94)"/><rect x="90" y="20" width="10" height="10" fill="rgb(97,102,94)"/><rect x="0" y="30" width="10" height="10" fill="rgb(88,92,85)"/><rect x="10" y="30" width="10" height="10" fill="rgb(88,92,85)"/><rect x="20" y="30" width="10" height="10" fill="rgb(88,92,85)"/><rect x="30" y="30" width="10" height="10" fill="rgb(88,92,85)"/><rect x="40" y="30" width="10" height="10" fill="rgb(89,95,94)"/><rect x="50" y="30" width="10" height="10" fill="rgb(89,95,94)"/><rect x="60" y="30" width="10" height="10" fill="rgb(89,95,94)"/><rect x="70" y="30" width="10" height="10" fill="rgb(89,95,94)"/><rect x="80" y="30" width="10" height="10" fill="rgb(84,85,72)"/><rect x="90" y="30" width="10" height="10" fill="rgb(84,85,72)"/><rect x="0" y="40" width="10" height="10" fill="rgb(84,85,72)"/><rect x="10" y="40" width="10" height="10" fill="rgb(84,85,72)"/><rect x="20" y="40" width="10" height="10" fill="rgb(72,74,65)"/><rect x="30" y="40" width="10" height="10" fill="rgb(72,74,65)"/><rect x="40" y="40" width="10" height="10" fill="rgb(72,74,65)"/><rect x="50" y="40" width="10" height="10" fill="rgb(72,74,65)"/><rect x="60" y="40" width="10" height="10" fill="rgb(70,72,61)"/><rect x="70" y="40" width="10" height="10" fill="rgb(70,72,61)"/><rect x="80" y="40" width="10" height="10" fill="rgb(70,72,61)"/><rect x="90" y="40" width="10" height="10" fill="rgb(70,72,61)"/><rect x="0" y="50" width="10" height="10" fill="rgb(77,80,65)"/><rect x="10" y="50" width="10" height="10" fill="rgb(77,80,65)"/><rect x="20" y="50" width="10" height="10" fill="rgb(77,80,65)"/><rect x="30" y="50" width="10" height="10" fill="rgb(77,80,65)"/><rect x="40" y="50" width="10" height="10" fill="rgb(90,93,78)"/><rect x="50" y="50" width="10" height="10" fill="rgb(90,93,78)"/><rect x="60" y="50" width="10" height="10" fill="rgb(90,93,78)"/><rect x="70" y="50" width="10" height="10" fill="rgb(90,93,78)"/><rect x="80" y="50" width="10" height="10" fill="rgb(83,86,70)"/><rect x="90" y="50" width="10" height="10" fill="rgb(83,86,70)"/><rect x="0" y="60" width="10" height="10" fill="rgb(83,86,70)"/><rect x="10" y="60" width="10" height="10" fill="rgb(83,86,70)"/><rect x="20" y="60" width="10" height="10" fill="rgb(87,90,72)"/><rect x="30" y="60" width="10" height="10" fill="rgb(87,90,72)"/><rect x="40" y="60" width="10" height="10" fill="rgb(87,90,72)"/><rect x="50" y="60" width="10" height="10" fill="rgb(87,90,72)"/><rect x="60" y="60" width="10" height="10" fill="rgb(87,90,71)"/><rect x="70" y="60" width="10" height="10" fill="rgb(87,90,71)"/><rect x="80" y="60" width="10" height="10" fill="rgb(87,90,71)"/><rect x="90" y="60" width="10" height="10" fill="rgb(87,90,71)"/><rect x="0" y="70" width="10" height="10" fill="rgb(90,93,73)"/><rect x="10" y="70" width="10" height="10" fill="rgb(90,93,73)"/><rect x="20" y="70" width="10" height="10" fill="rgb(90,93,73)"/><rect x="30" y="70" width="10" height="10" fill="rgb(90,93,73)"/><rect x="40" y="70" width="10" height="10" fill="rgb(88,91,72)"/><rect x="50" y="70" width="10" height="10" fill="rgb(88,91,72)"/><rect x="60" y="70" width="10" height="10" fill="rgb(88,91,72)"/><rect x="70" y="70" width="10" height="10" fill="rgb(88,91,72)"/><rect x="80" y="70" width="10" height="10" fill="rgb(87,90,72)"/><rect x="90" y="70" width="10" height="10" fill="rgb(87,90,72)"/><rect x="0" y="80" width="10" height="10" fill="rgb(87,90,72)"/><rect x="10" y="80" width="10" height="10" fill="rgb(87,90,72)"/><rect x="20" y="80" width="10" height="10" fill="rgb(86,89,72)"/><rect x="30" y="80" width="10" height="10" fill="rgb(86,89,72)"/><rect x="40" y="80" width="10" height="10" fill="rgb(86,89,72)"/><rect x="50" y="80" width="10" height="10" fill="rgb(86,89,72)"/><rect x="60" y="80" width="10" height="10" fill="rgb(81,84,68)"/><rect x="70" y="80" width="10" height="10" fill="rgb(81,84,68)"/><rect x="80" y="80" width="10" height="10" fill="rgb(81,84,68)"/><rect x="90" y="80" width="10" height="10" fill="rgb(81,84,68)"/><rect x="0" y="90" width="10" height="10" fill="rgb(69,72,62)"/><rect x="10" y="90" width="10" height="10" fill="rgb(69,72,62)"/><rect x="20" y="90" width="10" height="10" fill="rgb(69,72,62)"/><rect x="30" y="90" width="10" height="10" fill="rgb(69,72,62)"/><rect x="40" y="90" width="10" height="10" fill="rgb(66,68,60)"/><rect x="50" y="90" width="10" height="10" fill="rgb(66,68,60)"/><rect x="60" y="90" width="10" height="10" fill="rgb(66,68,60)"/><rect x="70" y="90" width="10" height="10" fill="rgb(66,68,60)"/><rect x="80" y="90" width="10" height="10" fill="rgb(67,69,63)"/><rect x="90" y="90" width="10" height="10" fill="rgb(67,69,63)"/><rect x="0" y="100" width="10" height="10" fill="rgb(67,69,63)"/><rect x="10" y="100" width="10" height="10" fill="rgb(67,69,63)"/><rect x="20" y="100" width="10" height="10" fill="rgb(73,76,70)"/><rect x="30" y="100" width="10" height="10" fill="rgb(73,76,70)"/><rect x="40" y="100" width="10" height="10" fill="rgb(73,76,70)"/><rect x="50" y="100" width="10" height="10" fill="rgb(73,76,70)"/><rect x="60" y="100" width="10" height="10" fill="rgb(110,114,121)"/><rect x="70" y="100" width="10" height="10" fill="rgb(110,114,121)"/><rect x="80" y="100" width="10" height="10" fill="rgb(110,114,121)"/><rect x="90" y="100" width="10" height="10" fill="rgb(110,114,121)"/><rect x="0" y="110" width="10" height="10" fill="rgb(134,149,196)"/><rect x="10" y="110" width="10" height="10" fill="rgb(134,149,196)"/><rect x="20" y="110" width="10" height="10" fill="rgb(134,149,196)"/><rect x="30" y="110" width="10" height="10" fill="rgb(134,149,196)"/><rect x="40" y="110" width="10" height="10" fill="rgb(162,177,209)"/><rect x="50" y="110" width="10" height="10" fill="rgb(162,177,209)"/><rect x="60" y="110" width="10" height="10" fill="rgb(162,177,209)"/><rect x="70" y="110" width="10" height="10" fill="rgb(162,177,209)"/><rect x="80" y="110" width="10" height="10" fill="rgb(162,177,205)"/><rect x="90" y="110" width="10" height="10" fill="rgb(162,177,205)"/><rect x="0" y="120" width="10" height="10" fill="rgb(162,177,205)"/><rect x="10" y="120" width="10" height="10" fill="rgb(162,177,205)"/><rect x="20" y="120" width="10" height="10" fill="rgb(169,178,196)"/><rect x="30" y="120" width="10" height="10" fill="rgb(169,178,196)"/><rect x="40" y="120" width="10" height="10" fill="rgb(169,178,196)"/><rect x="50" y="120" width="10" height="10" fill="rgb(169,178,196)"/><rect x="60" y="120" width="10" height="10" fill="rgb(167,177,194)"/><rect x="70" y="120" width="10" height="10" fill="rgb(167,177,194)"/><rect x="80" y="120" width="10" height="10" fill="rgb(167,177,194)"/><rect x="90" y="120" width="10" height="10" fill="rgb(167,177,194)"/><rect x="0" y="130" width="10" height="10" fill="rgb(170,177,193)"/><rect x="10" y="130" width="10" height="10" fill="rgb(170,177,193)"/><rect x="20" y="130" width="10" height="10" fill="rgb(170,177,193)"/><rect x="30" y="130" width="10" height="10" fill="rgb(170,177,193)"/><rect x="40" y="130" width="10" height="10" fill="rgb(170,179,196)"/><rect x="50" y="130" width="10" height="10" fill="rgb(170,179,196)"/><rect x="60" y="130" width="10" height="10" fill="rgb(170,179,196)"/><rect x="70" y="130" width="10" height="10" fill="rgb(170,179,196)"/><rect x="80" y="130" width="10" height="10" fill="rgb(165,173,189)"/><rect x="90" y="130" width="10" height="10" fill="rgb(165,173,189)"/><rect x="0" y="140" width="10" height="10" fill="rgb(165,173,189)"/><rect x="10" y="140" width="10" height="10" fill="rgb(165,173,189)"/><rect x="20" y="140" width="10" height="10" fill="rgb(169,176,190)"/><rect x="30" y="140" width="10" height="10" fill="rgb(169,176,190)"/><rect x="40" y="140" width="10" height="10" fill="rgb(169,176,190)"/><rect x="50" y="140" width="10" height="10" fill="rgb(169,176,190)"/><rect x="60" y="140" width="10" height="10" fill="rgb(165,172,188)"/><rect x="70" y="140" width="10" height="10" fill="rgb(165,172,188)"/><rect x="80" y="140" width="10" height="10" fill="rgb(165,172,188)"/><rect x="90" y="140" width="10" height="10" fill="rgb(165,172,188)"/><rect x="0" y="150" width="10" height="10" fill="rgb(169,176,191)"/><rect x="10" y="150" width="10" height="10" fill="rgb(169,176,191)"/><rect x="20" y="150" width="10" height="10" fill="rgb(169,176,191)"/><rect x="30" y="150" width="10" height="10" fill="rgb(169,176,191)"/><rect x="40" y="150" width="10" height="10" fill="rgb(166,174,189)"/><rect x="50" y="150" width="10" height="10" fill="rgb(166,174,189)"/><rect x="60" y="150" width="10" height="10" fill="rgb(166,174,189)"/><rect x="70" y="150" width="10" height="10" fill="rgb(166,174,189)"/><rect x="80" y="150" width="10" height="10" fill="rgb(168,176,190)"/><rect x="90" y="150" width="10" height="10" fill="rgb(168,176,190)"/><rect x="0" y="160" width="10" height="10" fill="rgb(168,176,190)"/><rect x="10" y="160" width="10" height="10" fill="rgb(168,176,190)"/><rect x="20" y="160" width="10" height="10" fill="rgb(167,175,192)"/><rect x="30" y="160" width="10" height="10" fill="rgb(167,175,192)"/><rect x="40" y="160" width="10" height="10" fill="rgb(167,175,192)"/><rect x="50" y="160" width="10" height="10" fill="rgb(167,175,192)"/><rect x="60" y="160" width="10" height="10" fill="rgb(169,176,190)"/><rect x="70" y="160" width="10" height="10" fill="rgb(169,176,190)"/><rect x="80" y="160" width="10" height="10" fill="rgb(169,176,190)"/><rect x="90" y="160" width="10" height="10" fill="rgb(169,176,190)"/><rect x="0" y="170" width="10" height="10" fill="rgb(166,173,190)"/><rect x="10" y="170" width="10" height="10" fill="rgb(166,173,190)"/><rect x="20" y="170" width="10" height="10" fill="rgb(166,173,190)"/><rect x="30" y="170" width="10" height="10" fill="rgb(166,173,190)"/><rect x="40" y="170" width="10" height="10" fill="rgb(167,174,190)"/><rect x="50" y="170" width="10" height="10" fill="rgb(167,174,190)"/><rect x="60" y="170" width="10" height="10" fill="rgb(167,174,190)"/><rect x="70" y="170" width="10" height="10" fill="rgb(167,174,190)"/><rect x="80" y="170" width="10" height="10" fill="rgb(169,176,192)"/><rect x="90" y="170" width="10" height="10" fill="rgb(169,176,192)"/><rect x="0" y="180" width="10" height="10" fill="rgb(169,176,192)"/><rect x="10" y="180" width="10" height="10" fill="rgb(169,176,192)"/><rect x="20" y="180" width="10" height="10" fill="rgb(169,176,192)"/><rect x="30" y="180" width="10" height="10" fill="rgb(169,176,192)"/><rect x="40" y="180" width="10" height="10" fill="rgb(169,176,192)"/><rect x="50" y="180" width="10" height="10" fill="rgb(169,176,192)"/><rect x="60" y="180" width="10" height="10" fill="rgb(167,175,192)"/><rect x="70" y="180" width="10" height="10" fill="rgb(167,175,192)"/><rect x="80" y="180" width="10" height="10" fill="rgb(167,175,192)"/><rect x="90" y="180" width="10" height="10" fill="rgb(167,175,192)"/><rect x="0" y="190" width="10" height="10" fill="rgb(166,173,190)"/><rect x="10" y="190" width="10" height="10" fill="rgb(166,173,190)"/><rect x="20" y="190" width="10" height="10" fill="rgb(166,173,190)"/><rect x="30" y="190" width="10" height="10" fill="rgb(166,173,190)"/><rect x="40" y="190" width="10" height="10" fill="rgb(170,178,195)"/><rect x="50" y="190" width="10" height="10" fill="rgb(170,178,195)"/><rect x="60" y="190" width="10" height="10" fill="rgb(170,178,195)"/><rect x="70" y="190" width="10" height="10" fill="rgb(170,178,195)"/><rect x="80" y="190" width="10" height="10" fill="rgb(165,173,190)"/><rect x="90" y="190" width="10" height="10" fill="rgb(165,173,190)"/><rect x="0" y="200" width="10" height="10" fill="rgb(165,173,190)"/><rect x="10" y="200" width="10" height="10" fill="rgb(165,173,190)"/><rect x="20" y="200" width="10" height="10" fill="rgb(170,178,196)"/><rect x="30" y="200" width="10" height="10" fill="rgb(170,178,196)"/><rect x="40" y="200" width="10" height="10" fill="rgb(170,178,196)"/><rect x="50" y="200" width="10" height="10" fill="rgb(170,178,196)"/><rect x="60" y="200" width="10" height="10" fill="rgb(166,175,195)"/><rect x="70" y="200" width="10" height="10" fill="rgb(166,175,195)"/><rect x="80" y="200" width="10" height="10" fill="rgb(166,175,195)"/><rect x="90" y="200" width="10" height="10" fill="rgb(166,175,195)"/><rect x="0" y="210" width="10" height="10" fill="rgb(167,175,194)"/><rect x="10" y="210" width="10" height="10" fill="rgb(167,175,194)"/><rect x="20" y="210" width="10" height="10" fill="rgb(167,175,194)"/><rect x="30" y="210" width="10" height="10" fill="rgb(167,175,194)"/><rect x="40" y="210" width="10" height="10" fill="rgb(167,174,192)"/><rect x="50" y="210" width="10" height="10" fill="rgb(167,174,192)"/><rect x="60" y="210" width="10" height="10" fill="rgb(167,174,192)"/><rect x="70" y="210" width="10" height="10" fill="rgb(167,174,192)"/><rect x="80" y="210" width="10" height="10" fill="rgb(152,164,188)"/><rect x="90" y="210" width="10" height="10" fill="rgb(152,164,188)"/><rect x="0" y="220" width="10" height="10" fill="rgb(152,164,188)"/><rect x="10" y="220" width="10" height="10" fill="rgb(152,164,188)"/><rect x="20" y="220" width="10" height="10" fill="rgb(166,173,191)"/><rect x="30" y="220" width="10" height="10" fill="rgb(166,173,191)"/><rect x="40" y="220" width="10" height="10" fill="rgb(166,173,191)"/><rect x="50" y="220" width="10" height="10" fill="rgb(166,173,191)"/><rect x="60" y="220" width="10" height="10" fill="rgb(156,168,191)"/><rect x="70" y="220" width="10" height="10" fill="rgb(156,168,191)"/><rect x="80" y="220" width="10" height="10" fill="rgb(156,168,191)"/><rect x="90" y="220" width="10" height="10" fill="rgb(156,168,191)"/><rect x="0" y="230" width="10" height="10" fill="rgb(131,161,204)"/><rect x="10" y="230" width="10" height="10" fill="rgb(131,161,204)"/><rect x="20" y="230" width="10" height="10" fill="rgb(131,161,204)"/><rect x="30" y="230" width="10" height="10" fill="rgb(131,161,204)"/><rect x="40" y="230" width="10" height="10" fill="rgb(137,163,202)"/><rect x="50" y="230" width="10" height="10" fill="rgb(137,163,202)"/><rect x="60" y="230" width="10" height="10" fill="rgb(137,163,202)"/><rect x="70" y="230" width="10" height="10" fill="rgb(137,163,202)"/><rect x="80" y="230" width="10" height="10" fill="rgb(162,174,198)"/><rect x="90" y="230" width="10" height="10" fill="rgb(162,174,198)"/><rect x="0" y="240" width="10" height="10" fill="rgb(162,174,198)"/><rect x="10" y="240" width="10" height="10" fill="rgb(162,174,198)"/><rect x="20" y="240" width="10" height="10" fill="rgb(157,170,194)"/><rect x="30" y="240" width="10" height="10" fill="rgb(157,170,194)"/><rect x="40" y="240" width="10" height="10" fill="rgb(157,170,194)"/><rect x="50" y="240" width="10" height="10" fill="rgb(157,170,194)"/><rect x="60" y="240" width="10" height="10" fill="rgb(167,178,198)"/><rect x="70" y="240" width="10" height="10" fill="rgb(167,178,198)"/><rect x="80" y="240" width="10" height="10" fill="rgb(167,178,198)"/><rect x="90" y="240" width="10" height="10" fill="rgb(167,178,198)"/><rect x="0" y="250" width="10" height="10" fill="rgb(169,175,192)"/><rect x="10" y="250" width="10" height="10" fill="rgb(169,175,192)"/><rect x="20" y="250" width="10" height="10" fill="rgb(169,175,192)"/><rect x="30" y="250" width="10" height="10" fill="rgb(169,175,192)"/><rect x="40" y="250" width="10" height="10" fill="rgb(170,177,194)"/><rect x="50" y="250" width="10" height="10" fill="rgb(170,177,194)"/><rect x="60" y="250" width="10" height="10" fill="rgb(156,171,205)"/><rect x="70" y="250" width="10" height="10" fill="rgb(156,171,205)"/><rect x="80" y="250" width="10" height="10" fill="rgb(156,171,205)"/><rect x="90" y="250" width="10" height="10" fill="rgb(156,171,205)"/><rect x="0" y="260" width="10" height="10" fill="rgb(167,179,203)"/><rect x="10" y="260" width="10" height="10" fill="rgb(167,179,203)"/><rect x="20" y="260" width="10" height="10" fill="rgb(167,179,203)"/><rect x="30" y="260" width="10" height="10" fill="rgb(167,179,203)"/><rect x="40" y="260" width="10" height="10" fill="rgb(168,175,193)"/><rect x="50" y="260" width="10" height="10" fill="rgb(168,175,193)"/></svg>