<svg xmlns="http://www.w3.org/2000/svg" width="480" height="20"><rect x="0" y="0" width="10" height="10" fill="rgb(158,175,215)"/><rect x="10" y="0" width="10" height="10" fill="rgb(160,177,219)"/><rect x="20" y="0" width="10" height="10" fill="rgb(161,179,222)"/><rect x="30" y="0" width="10" height="10" fill="rgb(208,220,239)"/><rect x="40" y="0" width="10" height="10" fill="rgb(229,239,251)"/><rect x="50" y="0" width="10" height="10" fill="rgb(229,239,251)"/><rect x="60" y="0" width="10" height="10" fill="rgb(229,238,250)"/><rect x="70" y="0" width="10" height="10" fill="rgb(230,240,251)"/><rect x="80" y="0" width="10" height="10" fill="rgb(231,240,250)"/><rect x="90" y="0" width="10" height="10" fill="rgb(232,240,249)"/><rect x="100" y="0" width="10" height="10" fill="rgb(235,243,250)"/><rect x="110" y="0" width="10" height="10" fill="rgb(238,245,250)"/><rect x="120" y="0" width="10" height="10" fill="rgb(243,248,251)"/><rect x="130" y="0" width="10" height="10" fill="rgb(246,249,250)"/><rect x="140" y="0" width="10" height="10" fill="rgb(250,251,250)"/><rect x="150" y="0" width="10" height="10" fill="rgb(250,251,251)"/><rect x="160" y="0" width="10" height="10" fill="rgb(249,250,251)"/><rect x="170" y="0" width="10" height="10" fill="rgb(245,248,249)"/><rect x="180" y="0" width="10" height="10" fill="rgb(235,241,248)"/><rect x="190" y="0" width="10" height="10" fill="rgb(230,237,247)"/><rect x="200" y="0" width="10" height="10" fill="rgb(216,225,244)"/><rect x="210" y="0" width="10" height="10" fill="rgb(219,232,253)"/><rect x="220" y="0" width="10" height="10" fill="rgb(174,200,249)"/><rect x="230" y="0" width="10" height="10" fill="rgb(161,193,246)"/><rect x="240" y="0" width="10" height="10" fill="rgb(140,183,246)"/><rect x="250" y="0" width="10" height="10" fill="rgb(117,157,223)"/><rect x="260" y="0" width="10" height="10" fill="rgb(85,123,186)"/><rect x="270" y="0" width="10" height="10" fill="rgb(56,85,142)"/><rect x="280" y="0" width="10" height="10" fill="rgb(39,62,109)"/><rect x="290" y="0" width="10" height="10" fill="rgb(38,54,93)"/><rect x="300" y="0" width="10" height="10" fill="rgb(20,30,63)"/><rect x="310" y="0" width="10" height="10" fill="rgb(19,22,52)"/><rect x="320" y="0" width="10" height="10" fill="rgb(15,16,38)"/><rect x="330" y="0" width="10" height="10" fill="rgb(19,17,36)"/><rect x="340" y="0" width="10" height="10" fill="rgb(17,15,31)"/><rect x="350" y="0" width="10" height="10" fill="rgb(18,16,30)"/><rect x="360" y="0" width="10" height="10" fill="rgb(23,19,38)"/><rect x="370" y="0" width="10" height="10" fill="rgb(11,9,18)"/><rect x="380" y="0" width="10" height="10" fill="rgb(21,17,35)"/><rect x="390" y="0" width="10" height="10" fill="rgb(16,13,26)"/><rect x="400" y="0" width="10" height="10" fill="rgb(16,13,28)"/><rect x="410" y="0" width="10" height="10" fill="rgb(14,12,24)"/><rect x="420" y="0" width="10" height="10" fill="rgb(15,12,24)"/><rect x="430" y="0" width="10" height="10" fill="rgb(18,15,28)"/><rect x="440" y="0" width="10" height="10" fill="rgb(14,11,22)"/><rect x="450" y="0" width="10" height="10" fill="rgb(15,12,23)"/><rect x="460" y="0" width="10" height="10" fill="rgb(13,11,22)"/><rect x="470" y="0" width="10" height="10" fill="rgb(15,12,24)"/><rect x="0" y="10" width="10" height="10" fill="rgb(13,10,21)"/><rect x="10" y="10" width="10" height="10" fill="rgb(12,10,20)"/></svg>