<svg xmlns="http://www.w3.org/2000/svg" width="480" height="70"><rect x="0" y="0" width="10" height="10" fill="rgb(112,141,197)"/><rect x="10" y="0" width="10" height="10" fill="rgb(126,153,209)"/><rect x="20" y="0" width="10" height="10" fill="rgb(130,157,215)"/><rect x="30" y="0" width="10" height="10" fill="rgb(164,189,220)"/><rect x="40" y="0" width="10" height="10" fill="rgb(190,212,239)"/><rect x="50" y="0" width="10" height="10" fill="rgb(191,213,240)"/><rect x="60" y="0" width="10" height="10" fill="rgb(191,213,239)"/><rect x="70" y="0" width="10" height="10" fill="rgb(192,214,241)"/><rect x="80" y="0" width="10" height="10" fill="rgb(193,215,241)"/><rect x="90" y="0" width="10" height="10" fill="rgb(195,217,240)"/><rect x="100" y="0" width="10" height="10" fill="rgb(200,222,245)"/><rect x="110" y="0" width="10" height="10" fill="rgb(204,225,250)"/><rect x="120" y="0" width="10" height="10" fill="rgb(213,234,254)"/><rect x="130" y="0" width="10" height="10" fill="rgb(221,239,255)"/><rect x="140" y="0" width="10" height="10" fill="rgb(231,248,255)"/><rect x="150" y="0" width="10" height="10" fill="rgb(236,251,255)"/><rect x="160" y="0" width="10" height="10" fill="rgb(233,251,255)"/><rect x="170" y="0" width="10" height="10" fill="rgb(227,248,255)"/><rect x="180" y="0" width="10" height="10" fill="rgb(217,236,255)"/><rect x="190" y="0" width="10" height="10" fill="rgb(214,228,250)"/><rect x="200" y="0" width="10" height="10" fill="rgb(193,209,237)"/><rect x="210" y="0" width="10" height="10" fill="rgb(192,213,250)"/><rect x="220" y="0" width="10" height="10" fill="rgb(156,187,243)"/><rect x="230" y="0" width="10" height="10" fill="rgb(145,182,240)"/><rect x="240" y="0" width="10" height="10" fill="rgb(122,167,234)"/><rect x="250" y="0" width="10" height="10" fill="rgb(98,140,203)"/><rect x="260" y="0" width="10" height="10" fill="rgb(70,107,164)"/><rect x="270" y="0" width="10" height="10" fill="rgb(48,75,120)"/><rect x="280" y="0" width="10" height="10" fill="rgb(38,61,93)"/><rect x="290" y="0" width="10" height="10" fill="rgb(42,60,84)"/><rect x="300" y="0" width="10" height="10" fill="rgb(26,42,60)"/><rect x="310" y="0" width="10" height="10" fill="rgb(24,38,52)"/><rect x="320" y="0" width="10" height="10" fill="rgb(22,32,41)"/><rect x="330" y="0" width="10" height="10" fill="rgb(26,35,41)"/><rect x="340" y="0" width="10" height="10" fill="rgb(25,33,36)"/><rect x="350" y="0" width="10" height="10" fill="rgb(26,35,36)"/><rect x="360" y="0" width="10" height="10" fill="rgb(32,38,45)"/><rect x="370" y="0" width="10" height="10" fill="rgb(18,23,24)"/><rect x="380" y="0" width="10" height="10" fill="rgb(32,36,42)"/><rect x="390" y="0" width="10" height="10" fill="rgb(24,33,33)"/><rect x="400" y="0" width="10" height="10" fill="rgb(25,33,35)"/><rect x="410" y="0" width="10" height="10" fill="rgb(22,30,30)"/><rect x="420" y="0" width="10" height="10" fill="rgb(25,32,33)"/><rect x="430" y="0" width="10" height="10" fill="rgb(27,34,36)"/><rect x="440" y="0" width="10" height="10" fill="rgb(22,30,29)"/><rect x="450" y="0" width="10" height="10" fill="rgb(23,31,31)"/><rect x="460" y="0" width="10" height="10" fill="rgb(22,30,30)"/><rect x="470" y="0" width="10" height="10" fill="rgb(24,32,32)"/><rect x="0" y="10" width="10" height="10" fill="rgb(21,30,30)"/><rect x="10" y="10" width="10" height="10" fill="rgb(20,28,26)"/><rect x="20" y="10" width="10" height="10" fill="rgb(20,28,27)"/><rect x="30" y="10" width="10" height="10" fill="rgb(27,36,39)"/><rect x="40" y="10" width="10" height="10" fill="rgb(28,37,40)"/><rect x="50" y="10" width="10" height="10" fill="rgb(29,38,40)"/><rect x="60" y="10" width="10" height="10" fill="rgb(53,59,73)"/><rect x="70" y="10" width="10" height="10" fill="rgb(53,57,75)"/><rect x="80" y="10" width="10" height="10" fill="rgb(52,58,75)"/><rect x="90" y="10" width="10" height="10" fill="rgb(55,58,74)"/><rect x="100" y="10" width="10" height="10" fill="rgb(54,57,72)"/><rect x="110" y="10" width="10" height="10" fill="rgb(43,48,55)"/><rect x="120" y="10" width="10" height="10" fill="rgb(40,46,55)"/><rect x="130" y="10" width="10" height="10" fill="rgb(39,45,52)"/><rect x="140" y="10" width="10" height="10" fill="rgb(40,47,56)"/><rect x="150" y="10" width="10" height="10" fill="rgb(39,47,55)"/><rect x="160" y="10" width="10" height="10" fill="rgb(41,47,55)"/><rect x="170" y="10" width="10" height="10" fill="rgb(38,45,54)"/><rect x="180" y="10" width="10" height="10" fill="rgb(40,46,56)"/><rect x="190" y="10" width="10" height="10" fill="rgb(39,45,53)"/><rect x="200" y="10" width="10" height="10" fill="rgb(39,45,55)"/><rect x="210" y="10" width="10" height="10" fill="rgb(38,45,54)"/><rect x="220" y="10" width="10" height="10" fill="rgb(38,46,54)"/><rect x="230" y="10" width="10" height="10" fill="rgb(42,47,58)"/><rect x="240" y="10" width="10" height="10" fill="rgb(37,45,54)"/><rect x="250" y="10" width="10" height="10" fill="rgb(38,44,52)"/><rect x="260" y="10" width="10" height="10" fill="rgb(38,45,54)"/><rect x="270" y="10" width="10" height="10" fill="rgb(39,46,57)"/><rect x="280" y="10" width="10" height="10" fill="rgb(40,46,53)"/><rect x="290" y="10" width="10" height="10" fill="rgb(38,45,51)"/><rect x="300" y="10" width="10" height="10" fill="rgb(39,45,56)"/><rect x="310" y="10" width="10" height="10" fill="rgb(40,46,53)"/><rect x="320" y="10" width="10" height="10" fill="rgb(38,45,55)"/><rect x="330" y="10" width="10" height="10" fill="rgb(40,46,52)"/><rect x="340" y="10" width="10" height="10" fill="rgb(39,45,56)"/><rect x="350" y="10" width="10" height="10" fill="rgb(39,45,53)"/><rect x="360" y="10" width="10" height="10" fill="rgb(39,46,56)"/><rect x="370" y="10" width="10" height="10" fill="rgb(39,46,56)"/><rect x="380" y="10" width="10" height="10" fill="rgb(41,47,54)"/><rect x="390" y="10" width="10" height="10" fill="rgb(39,45,51)"/><rect x="400" y="10" width="10" height="10" fill="rgb(40,46,58)"/><rect x="410" y="10" width="10" height="10" fill="rgb(40,46,57)"/><rect x="420" y="10" width="10" height="10" fill="rgb(40,47,57)"/><rect x="430" y="10" width="10" height="10" fill="rgb(42,46,57)"/><rect x="440" y="10" width="10" height="10" fill="rgb(40,47,56)"/><rect x="450" y="10" width="10" height="10" fill="rgb(39,44,52)"/><rect x="460" y="10" width="10" height="10" fill="rgb(39,46,54)"/><rect x="470" y="10" width="10" height="10" fill="rgb(39,46,54)"/><rect x="0" y="20" width="10" height="10" fill="rgb(39,47,55)"/><rect x="10" y="20" width="10" height="10" fill="rgb(40,46,55)"/><rect x="20" y="20" width="10" height="10" fill="rgb(38,45,56)"/><rect x="30" y="20" width="10" height="10" fill="rgb(39,47,55)"/><rect x="40" y="20" width="10" height="10" fill="rgb(38,46,56)"/><rect x="50" y="20" width="10" height="10" fill="rgb(41,47,57)"/><rect x="60" y="20" width="10" height="10" fill="rgb(40,47,56)"/><rect x="70" y="20" width="10" height="10" fill="rgb(40,47,56)"/><rect x="80" y="20" width="10" height="10" fill="rgb(40,48,57)"/><rect x="90" y="20" width="10" height="10" fill="rgb(40,49,59)"/><rect x="100" y="20" width="10" height="10" fill="rgb(43,53,68)"/><rect x="110" y="20" width="10" height="10" fill="rgb(45,56,72)"/><rect x="120" y="20" width="10" height="10" fill="rgb(47,63,84)"/><rect x="130" y="20" width="10" height="10" fill="rgb(55,75,106)"/><rect x="140" y="20" width="10" height="10" fill="rgb(67,95,129)"/><rect x="150" y="20" width="10" height="10" fill="rgb(68,103,149)"/><rect x="160" y="20" width="10" height="10" fill="rgb(104,145,204)"/><rect x="170" y="20" width="10" height="10" fill="rgb(138,178,229)"/><rect x="180" y="20" width="10" height="10" fill="rgb(189,221,255)"/><rect x="190" y="20" width="10" height="10" fill="rgb(212,241,255)"/><rect x="200" y="20" width="10" height="10" fill="rgb(237,250,255)"/><rect x="210" y="20" width="10" height="10" fill="rgb(233,248,255)"/><rect x="220" y="20" width="10" height="10" fill="rgb(238,251,255)"/><rect x="230" y="20" width="10" height="10" fill="rgb(242,252,255)"/><rect x="240" y="20" width="10" height="10" fill="rgb(230,247,255)"/><rect x="250" y="20" width="10" height="10" fill="rgb(245,252,255)"/><rect x="260" y="20" width="10" height="10" fill="rgb(237,248,255)"/><rect x="270" y="20" width="10" height="10" fill="rgb(248,253,255)"/><rect x="280" y="20" width="10" height="10" fill="rgb(245,251,255)"/><rect x="290" y="20" width="10" height="10" fill="rgb(240,250,255)"/><rect x="300" y="20" width="10" height="10" fill="rgb(236,247,255)"/><rect x="310" y="20" width="10" height="10" fill="rgb(221,237,255)"/><rect x="320" y="20" width="10" height="10" fill="rgb(214,230,253)"/><rect x="330" y="20" width="10" height="10" fill="rgb(196,213,240)"/><rect x="340" y="20" width="10" height="10" fill="rgb(181,197,225)"/><rect x="350" y="20" width="10" height="10" fill="rgb(176,193,221)"/><rect x="360" y="20" width="10" height="10" fill="rgb(174,190,218)"/><rect x="370" y="20" width="10" height="10" fill="rgb(167,182,210)"/><rect x="380" y="20" width="10" height="10" fill="rgb(161,174,202)"/><rect x="390" y="20" width="10" height="10" fill="rgb(161,175,201)"/><rect x="400" y="20" width="10" height="10" fill="rgb(161,174,201)"/><rect x="410" y="20" width="10" height="10" fill="rgb(162,175,201)"/><rect x="420" y="20" width="10" height="10" fill="rgb(165,177,202)"/><rect x="430" y="20" width="10" height="10" fill="rgb(167,179,204)"/><rect x="440" y="20" width="10" height="10" fill="rgb(167,180,205)"/><rect x="450" y="20" width="10" height="10" fill="rgb(170,182,206)"/><rect x="460" y="20" width="10" height="10" fill="rgb(165,176,200)"/><rect x="470" y="20" width="10" height="10" fill="rgb(165,174,199)"/><rect x="0" y="30" width="10" height="10" fill="rgb(167,177,201)"/><rect x="10" y="30" width="10" height="10" fill="rgb(169,180,203)"/><rect x="20" y="30" width="10" height="10" fill="rgb(170,179,201)"/><rect x="30" y="30" width="10" height="10" fill="rgb(171,180,202)"/><rect x="40" y="30" width="10" height="10" fill="rgb(174,182,206)"/><rect x="50" y="30" width="10" height="10" fill="rgb(177,185,209)"/><rect x="60" y="30" width="10" height="10" fill="rgb(179,187,212)"/><rect x="70" y="30" width="10" height="10" fill="rgb(183,192,214)"/><rect x="80" y="30" width="10" height="10" fill="rgb(186,194,217)"/><rect x="90" y="30" width="10" height="10" fill="rgb(190,198,221)"/><rect x="100" y="30" width="10" height="10" fill="rgb(194,202,223)"/><rect x="110" y="30" width="10" height="10" fill="rgb(198,206,228)"/><rect x="120" y="30" width="10" height="10" fill="rgb(202,210,232)"/><rect x="130" y="30" width="10" height="10" fill="rgb(204,212,236)"/><rect x="140" y="30" width="10" height="10" fill="rgb(208,216,238)"/><rect x="150" y="30" width="10" height="10" fill="rgb(209,217,240)"/><rect x="160" y="30" width="10" height="10" fill="rgb(213,221,244)"/><rect x="170" y="30" width="10" height="10" fill="rgb(214,222,245)"/><rect x="180" y="30" width="10" height="10" fill="rgb(212,224,246)"/><rect x="190" y="30" width="10" height="10" fill="rgb(213,224,248)"/><rect x="200" y="30" width="10" height="10" fill="rgb(217,226,249)"/><rect x="210" y="30" width="10" height="10" fill="rgb(218,226,250)"/><rect x="220" y="30" width="10" height="10" fill="rgb(220,228,252)"/><rect x="230" y="30" width="10" height="10" fill="rgb(218,229,252)"/><rect x="240" y="30" width="10" height="10" fill="rgb(223,231,254)"/><rect x="250" y="30" width="10" height="10" fill="rgb(226,234,255)"/><rect x="260" y="30" width="10" height="10" fill="rgb(224,233,253)"/><rect x="270" y="30" width="10" height="10" fill="rgb(224,232,252)"/><rect x="280" y="30" width="10" height="10" fill="rgb(224,232,254)"/><rect x="290" y="30" width="10" height="10" fill="rgb(209,217,241)"/><rect x="300" y="30" width="10" height="10" fill="rgb(211,219,243)"/><rect x="310" y="30" width="10" height="10" fill="rgb(212,220,244)"/><rect x="320" y="30" width="10" height="10" fill="rgb(211,219,243)"/><rect x="330" y="30" width="10" height="10" fill="rgb(205,217,240)"/><rect x="340" y="30" width="10" height="10" fill="rgb(203,211,230)"/><rect x="350" y="30" width="10" height="10" fill="rgb(195,207,230)"/><rect x="360" y="30" width="10" height="10" fill="rgb(191,204,227)"/><rect x="370" y="30" width="10" height="10" fill="rgb(191,204,228)"/><rect x="380" y="30" width="10" height="10" fill="rgb(188,201,226)"/><rect x="390" y="30" width="10" height="10" fill="rgb(185,198,221)"/><rect x="400" y="30" width="10" height="10" fill="rgb(183,196,219)"/><rect x="410" y="30" width="10" height="10" fill="rgb(181,192,217)"/><rect x="420" y="30" width="10" height="10" fill="rgb(176,190,216)"/><rect x="430" y="30" width="10" height="10" fill="rgb(174,187,214)"/><rect x="440" y="30" width="10" height="10" fill="rgb(172,188,214)"/><rect x="450" y="30" width="10" height="10" fill="rgb(172,188,214)"/><rect x="460" y="30" width="10" height="10" fill="rgb(169,180,201)"/><rect x="470" y="30" width="10" height="10" fill="rgb(159,172,201)"/><rect x="0" y="40" width="10" height="10" fill="rgb(156,169,198)"/><rect x="10" y="40" width="10" height="10" fill="rgb(150,164,193)"/><rect x="20" y="40" width="10" height="10" fill="rgb(147,163,191)"/><rect x="30" y="40" width="10" height="10" fill="rgb(160,176,204)"/><rect x="40" y="40" width="10" height="10" fill="rgb(157,173,202)"/><rect x="50" y="40" width="10" height="10" fill="rgb(157,172,203)"/><rect x="60" y="40" width="10" height="10" fill="rgb(144,159,191)"/><rect x="70" y="40" width="10" height="10" fill="rgb(145,161,194)"/><rect x="80" y="40" width="10" height="10" fill="rgb(144,159,192)"/><rect x="90" y="40" width="10" height="10" fill="rgb(142,158,191)"/><rect x="100" y="40" width="10" height="10" fill="rgb(140,157,192)"/><rect x="110" y="40" width="10" height="10" fill="rgb(141,158,196)"/><rect x="120" y="40" width="10" height="10" fill="rgb(136,153,191)"/><rect x="130" y="40" width="10" height="10" fill="rgb(135,150,183)"/><rect x="140" y="40" width="10" height="10" fill="rgb(130,148,188)"/><rect x="150" y="40" width="10" height="10" fill="rgb(126,144,186)"/><rect x="160" y="40" width="10" height="10" fill="rgb(125,143,185)"/><rect x="170" y="40" width="10" height="10" fill="rgb(124,142,186)"/><rect x="180" y="40" width="10" height="10" fill="rgb(123,144,188)"/><rect x="190" y="40" width="10" height="10" fill="rgb(122,142,186)"/><rect x="200" y="40" width="10" height="10" fill="rgb(130,150,194)"/><rect x="210" y="40" width="10" height="10" fill="rgb(130,151,195)"/><rect x="220" y="40" width="10" height="10" fill="rgb(118,139,183)"/><rect x="230" y="40" width="10" height="10" fill="rgb(119,141,185)"/><rect x="240" y="40" width="10" height="10" fill="rgb(119,142,188)"/><rect x="250" y="40" width="10" height="10" fill="rgb(120,143,188)"/><rect x="260" y="40" width="10" height="10" fill="rgb(119,141,185)"/><rect x="270" y="40" width="10" height="10" fill="rgb(117,140,185)"/><rect x="280" y="40" width="10" height="10" fill="rgb(115,138,183)"/><rect x="290" y="40" width="10" height="10" fill="rgb(114,137,182)"/><rect x="300" y="40" width="10" height="10" fill="rgb(115,139,184)"/><rect x="310" y="40" width="10" height="10" fill="rgb(116,143,191)"/><rect x="320" y="40" width="10" height="10" fill="rgb(114,141,190)"/><rect x="330" y="40" width="10" height="10" fill="rgb(116,143,193)"/><rect x="340" y="40" width="10" height="10" fill="rgb(122,142,186)"/><rect x="350" y="40" width="10" height="10" fill="rgb(116,144,197)"/><rect x="360" y="40" width="10" height="10" fill="rgb(116,144,199)"/><rect x="370" y="40" width="10" height="10" fill="rgb(114,142,194)"/><rect x="380" y="40" width="10" height="10" fill="rgb(115,143,198)"/><rect x="390" y="40" width="10" height="10" fill="rgb(109,135,185)"/><rect x="400" y="40" width="10" height="10" fill="rgb(109,134,184)"/><rect x="410" y="40" width="10" height="10" fill="rgb(107,133,184)"/><rect x="420" y="40" width="10" height="10" fill="rgb(103,128,176)"/><rect x="430" y="40" width="10" height="10" fill="rgb(106,132,184)"/><rect x="440" y="40" width="10" height="10" fill="rgb(105,130,182)"/><rect x="450" y="40" width="10" height="10" fill="rgb(104,129,183)"/><rect x="460" y="40" width="10" height="10" fill="rgb(102,127,180)"/><rect x="470" y="40" width="10" height="10" fill="rgb(105,129,180)"/><rect x="0" y="50" width="10" height="10" fill="rgb(106,129,181)"/><rect x="10" y="50" width="10" height="10" fill="rgb(102,125,175)"/><rect x="20" y="50" width="10" height="10" fill="rgb(103,126,177)"/><rect x="30" y="50" width="10" height="10" fill="rgb(102,125,172)"/><rect x="40" y="50" width="10" height="10" fill="rgb(94,117,160)"/><rect x="50" y="50" width="10" height="10" fill="rgb(105,130,181)"/><rect x="60" y="50" width="10" height="10" fill="rgb(106,131,183)"/><rect x="70" y="50" width="10" height="10" fill="rgb(104,130,182)"/><rect x="80" y="50" width="10" height="10" fill="rgb(104,129,181)"/><rect x="90" y="50" width="10" height="10" fill="rgb(105,131,183)"/><rect x="100" y="50" width="10" height="10" fill="rgb(109,136,189)"/><rect x="110" y="50" width="10" height="10" fill="rgb(106,132,183)"/><rect x="120" y="50" width="10" height="10" fill="rgb(109,135,186)"/><rect x="130" y="50" width="10" height="10" fill="rgb(109,131,174)"/><rect x="140" y="50" width="10" height="10" fill="rgb(110,135,183)"/><rect x="150" y="50" width="10" height="10" fill="rgb(109,135,185)"/><rect x="160" y="50" width="10" height="10" fill="rgb(111,136,184)"/><rect x="170" y="50" width="10" height="10" fill="rgb(112,137,186)"/><rect x="180" y="50" width="10" height="10" fill="rgb(115,140,185)"/><rect x="190" y="50" width="10" height="10" fill="rgb(129,157,212)"/><rect x="200" y="50" width="10" height="10" fill="rgb(130,158,211)"/><rect x="210" y="50" width="10" height="10" fill="rgb(134,162,215)"/><rect x="220" y="50" width="10" height="10" fill="rgb(133,161,212)"/><rect x="230" y="50" width="10" height="10" fill="rgb(135,163,214)"/><rect x="240" y="50" width="10" height="10" fill="rgb(135,162,213)"/><rect x="250" y="50" width="10" height="10" fill="rgb(136,164,210)"/><rect x="260" y="50" width="10" height="10" fill="rgb(136,164,210)"/><rect x="270" y="50" width="10" height="10" fill="rgb(140,165,210)"/><rect x="280" y="50" width="10" height="10" fill="rgb(142,167,211)"/><rect x="290" y="50" width="10" height="10" fill="rgb(145,170,213)"/><rect x="300" y="50" width="10" height="10" fill="rgb(146,169,213)"/><rect x="310" y="50" width="10" height="10" fill="rgb(142,162,204)"/><rect x="320" y="50" width="10" height="10" fill="rgb(148,171,214)"/><rect x="330" y="50" width="10" height="10" fill="rgb(149,172,212)"/><rect x="340" y="50" width="10" height="10" fill="rgb(153,175,214)"/><rect x="350" y="50" width="10" height="10" fill="rgb(157,177,215)"/><rect x="360" y="50" width="10" height="10" fill="rgb(145,167,210)"/><rect x="370" y="50" width="10" height="10" fill="rgb(149,175,217)"/><rect x="380" y="50" width="10" height="10" fill="rgb(152,176,212)"/><rect x="390" y="50" width="10" height="10" fill="rgb(163,185,218)"/><rect x="400" y="50" width="10" height="10" fill="rgb(163,184,216)"/><rect x="410" y="50" width="10" height="10" fill="rgb(167,188,220)"/><rect x="420" y="50" width="10" height="10" fill="rgb(177,198,227)"/><rect x="430" y="50" width="10" height="10" fill="rgb(178,198,227)"/><rect x="440" y="50" width="10" height="10" fill="rgb(182,202,228)"/><rect x="450" y="50" width="10" height="10" fill="rgb(193,215,242)"/><rect x="460" y="50" width="10" height="10" fill="rgb(197,217,244)"/><rect x="470" y="50" width="10" height="10" fill="rgb(193,218,244)"/><rect x="0" y="60" width="10" height="10" fill="rgb(197,218,245)"/><rect x="10" y="60" width="10" height="10" fill="rgb(198,218,244)"/><rect x="20" y="60" width="10" height="10" fill="rgb(198,220,246)"/><rect x="30" y="60" width="10" height="10" fill="rgb(201,221,247)"/><rect x="40" y="60" width="10" height="10" fill="rgb(200,223,247)"/><rect x="50" y="60" width="10" height="10" fill="rgb(205,228,251)"/><rect x="60" y="60" width="10" height="10" fill="rgb(209,231,253)"/><rect x="70" y="60" width="10" height="10" fill="rgb(215,235,255)"/><rect x="80" y="60" width="10" height="10" fill="rgb(220,239,255)"/><rect x="90" y="60" width="10" height="10" fill="rgb(226,245,255)"/><rect x="100" y="60" width="10" height="10" fill="rgb(233,248,255)"/><rect x="110" y="60" width="10" height="10" fill="rgb(238,251,255)"/><rect x="120" y="60" width="10" height="10" fill="rgb(239,250,255)"/><rect x="130" y="60" width="10" height="10" fill="rgb(238,247,255)"/><rect x="140" y="60" width="10" height="10" fill="rgb(226,234,255)"/><rect x="150" y="60" width="10" height="10" fill="rgb(213,224,247)"/><rect x="160" y="60" width="10" height="10" fill="rgb(194,210,238)"/><rect x="170" y="60" width="10" height="10" fill="rgb(188,206,240)"/><rect x="180" y="60" width="10" height="10" fill="rgb(173,194,241)"/></svg>