<svg xmlns="http://www.w3.org/2000/svg" width="480" height="20"><rect x="0" y="0" width="10" height="10" fill="rgb(185,185,199)"/><rect x="10" y="0" width="10" height="10" fill="rgb(171,172,195)"/><rect x="20" y="0" width="10" height="10" fill="rgb(146,159,191)"/><rect x="30" y="0" width="10" height="10" fill="rgb(127,154,200)"/><rect x="40" y="0" width="10" height="10" fill="rgb(130,157,201)"/><rect x="50" y="0" width="10" height="10" fill="rgb(130,158,202)"/><rect x="60" y="0" width="10" height="10" fill="rgb(130,158,202)"/><rect x="70" y="0" width="10" height="10" fill="rgb(132,159,204)"/><rect x="80" y="0" width="10" height="10" fill="rgb(134,162,205)"/><rect x="90" y="0" width="10" height="10" fill="rgb(134,161,204)"/><rect x="100" y="0" width="10" height="10" fill="rgb(133,160,204)"/><rect x="110" y="0" width="10" height="10" fill="rgb(135,161,204)"/><rect x="120" y="0" width="10" height="10" fill="rgb(135,162,204)"/><rect x="130" y="0" width="10" height="10" fill="rgb(139,165,207)"/><rect x="140" y="0" width="10" height="10" fill="rgb(138,164,205)"/><rect x="150" y="0" width="10" height="10" fill="rgb(138,163,206)"/><rect x="160" y="0" width="10" height="10" fill="rgb(142,165,206)"/><rect x="170" y="0" width="10" height="10" fill="rgb(147,166,204)"/><rect x="180" y="0" width="10" height="10" fill="rgb(155,171,204)"/><rect x="190" y="0" width="10" height="10" fill="rgb(156,170,203)"/><rect x="200" y="0" width="10" height="10" fill="rgb(151,170,206)"/><rect x="210" y="0" width="10" height="10" fill="rgb(147,169,207)"/><rect x="220" y="0" width="10" height="10" fill="rgb(145,168,208)"/><rect x="230" y="0" width="10" height="10" fill="rgb(145,168,209)"/><rect x="240" y="0" width="10" height="10" fill="rgb(149,171,210)"/><rect x="250" y="0" width="10" height="10" fill="rgb(147,170,211)"/><rect x="260" y="0" width="10" height="10" fill="rgb(150,171,211)"/><rect x="270" y="0" width="10" height="10" fill="rgb(162,179,213)"/><rect x="280" y="0" width="10" height="10" fill="rgb(176,184,211)"/><rect x="290" y="0" width="10" height="10" fill="rgb(176,186,213)"/><rect x="300" y="0" width="10" height="10" fill="rgb(193,192,212)"/><rect x="310" y="0" width="10" height="10" fill="rgb(180,184,208)"/><rect x="320" y="0" width="10" height="10" fill="rgb(177,183,206)"/><rect x="330" y="0" width="10" height="10" fill="rgb(193,192,208)"/><rect x="340" y="0" width="10" height="10" fill="rgb(186,189,210)"/><rect x="350" y="0" width="10" height="10" fill="rgb(185,189,212)"/><rect x="360" y="0" width="10" height="10" fill="rgb(181,188,213)"/><rect x="370" y="0" width="10" height="10" fill="rgb(176,186,214)"/><rect x="380" y="0" width="10" height="10" fill="rgb(166,181,214)"/><rect x="390" y="0" width="10" height="10" fill="rgb(156,177,214)"/><rect x="400" y="0" width="10" height="10" fill="rgb(163,182,215)"/><rect x="410" y="0" width="10" height="10" fill="rgb(158,180,216)"/><rect x="420" y="0" width="10" height="10" fill="rgb(159,179,218)"/><rect x="430" y="0" width="10" height="10" fill="rgb(162,181,219)"/><rect x="440" y="0" width="10" height="10" fill="rgb(163,181,216)"/><rect x="450" y="0" width="10" height="10" fill="rgb(170,186,215)"/><rect x="460" y="0" width="10" height="10" fill="rgb(165,181,213)"/><rect x="470" y="0" width="10" height="10" fill="rgb(191,195,214)"/><rect x="0" y="10" width="10" height="10" fill="rgb(188,195,218)"/><rect x="10" y="10" width="10" height="10" fill="rgb(192,198,220)"/><rect x="20" y="10" width="10" height="10" fill="rgb(192,199,220)"/></svg>