<svg xmlns="http://www.w3.org/2000/svg" width="480" height="70"><rect x="0" y="0" width="10" height="10" fill="rgb(198,192,204)"/><rect x="10" y="0" width="10" height="10" fill="rgb(189,182,196)"/><rect x="20" y="0" width="10" height="10" fill="rgb(172,170,186)"/><rect x="30" y="0" width="10" height="10" fill="rgb(116,152,210)"/><rect x="40" y="0" width="10" height="10" fill="rgb(125,158,211)"/><rect x="50" y="0" width="10" height="10" fill="rgb(124,158,214)"/><rect x="60" y="0" width="10" height="10" fill="rgb(125,159,215)"/><rect x="70" y="0" width="10" height="10" fill="rgb(127,160,216)"/><rect x="80" y="0" width="10" height="10" fill="rgb(130,163,218)"/><rect x="90" y="0" width="10" height="10" fill="rgb(130,163,218)"/><rect x="100" y="0" width="10" height="10" fill="rgb(127,158,211)"/><rect x="110" y="0" width="10" height="10" fill="rgb(129,162,217)"/><rect x="120" y="0" width="10" height="10" fill="rgb(127,159,213)"/><rect x="130" y="0" width="10" height="10" fill="rgb(132,165,221)"/><rect x="140" y="0" width="10" height="10" fill="rgb(132,164,219)"/><rect x="150" y="0" width="10" height="10" fill="rgb(130,164,221)"/><rect x="160" y="0" width="10" height="10" fill="rgb(129,163,221)"/><rect x="170" y="0" width="10" height="10" fill="rgb(131,163,219)"/><rect x="180" y="0" width="10" height="10" fill="rgb(133,165,218)"/><rect x="190" y="0" width="10" height="10" fill="rgb(105,123,165)"/><rect x="200" y="0" width="10" height="10" fill="rgb(132,164,220)"/><rect x="210" y="0" width="10" height="10" fill="rgb(147,172,220)"/><rect x="220" y="0" width="10" height="10" fill="rgb(125,151,201)"/><rect x="230" y="0" width="10" height="10" fill="rgb(136,165,221)"/><rect x="240" y="0" width="10" height="10" fill="rgb(135,166,223)"/><rect x="250" y="0" width="10" height="10" fill="rgb(133,166,223)"/><rect x="260" y="0" width="10" height="10" fill="rgb(133,165,222)"/><rect x="270" y="0" width="10" height="10" fill="rgb(136,168,225)"/><rect x="280" y="0" width="10" height="10" fill="rgb(137,168,225)"/><rect x="290" y="0" width="10" height="10" fill="rgb(137,170,230)"/><rect x="300" y="0" width="10" height="10" fill="rgb(152,176,228)"/><rect x="310" y="0" width="10" height="10" fill="rgb(130,164,223)"/><rect x="320" y="0" width="10" height="10" fill="rgb(134,166,223)"/><rect x="330" y="0" width="10" height="10" fill="rgb(207,203,218)"/><rect x="340" y="0" width="10" height="10" fill="rgb(210,204,216)"/><rect x="350" y="0" width="10" height="10" fill="rgb(193,196,220)"/><rect x="360" y="0" width="10" height="10" fill="rgb(203,201,218)"/><rect x="370" y="0" width="10" height="10" fill="rgb(212,204,217)"/><rect x="380" y="0" width="10" height="10" fill="rgb(173,184,220)"/><rect x="390" y="0" width="10" height="10" fill="rgb(136,166,220)"/><rect x="400" y="0" width="10" height="10" fill="rgb(144,172,220)"/><rect x="410" y="0" width="10" height="10" fill="rgb(137,167,220)"/><rect x="420" y="0" width="10" height="10" fill="rgb(136,167,222)"/><rect x="430" y="0" width="10" height="10" fill="rgb(139,169,224)"/><rect x="440" y="0" width="10" height="10" fill="rgb(140,170,225)"/><rect x="450" y="0" width="10" height="10" fill="rgb(141,171,224)"/><rect x="460" y="0" width="10" height="10" fill="rgb(144,172,225)"/><rect x="470" y="0" width="10" height="10" fill="rgb(179,190,223)"/><rect x="0" y="10" width="10" height="10" fill="rgb(173,184,216)"/><rect x="10" y="10" width="10" height="10" fill="rgb(195,196,215)"/><rect x="20" y="10" width="10" height="10" fill="rgb(184,189,214)"/><rect x="30" y="10" width="10" height="10" fill="rgb(153,172,210)"/><rect x="40" y="10" width="10" height="10" fill="rgb(154,172,210)"/><rect x="50" y="10" width="10" height="10" fill="rgb(152,170,209)"/><rect x="60" y="10" width="10" height="10" fill="rgb(156,177,219)"/><rect x="70" y="10" width="10" height="10" fill="rgb(138,165,212)"/><rect x="80" y="10" width="10" height="10" fill="rgb(137,164,213)"/><rect x="90" y="10" width="10" height="10" fill="rgb(135,163,212)"/><rect x="100" y="10" width="10" height="10" fill="rgb(134,162,209)"/><rect x="110" y="10" width="10" height="10" fill="rgb(133,161,208)"/><rect x="120" y="10" width="10" height="10" fill="rgb(132,160,207)"/><rect x="130" y="10" width="10" height="10" fill="rgb(130,158,205)"/><rect x="140" y="10" width="10" height="10" fill="rgb(129,158,204)"/><rect x="150" y="10" width="10" height="10" fill="rgb(128,157,203)"/><rect x="160" y="10" width="10" height="10" fill="rgb(127,154,201)"/><rect x="170" y="10" width="10" height="10" fill="rgb(127,155,201)"/><rect x="180" y="10" width="10" height="10" fill="rgb(126,155,200)"/><rect x="190" y="10" width="10" height="10" fill="rgb(126,154,200)"/><rect x="200" y="10" width="10" height="10" fill="rgb(125,152,198)"/><rect x="210" y="10" width="10" height="10" fill="rgb(128,157,204)"/><rect x="220" y="10" width="10" height="10" fill="rgb(122,150,197)"/><rect x="230" y="10" width="10" height="10" fill="rgb(123,149,196)"/><rect x="240" y="10" width="10" height="10" fill="rgb(121,147,196)"/><rect x="250" y="10" width="10" height="10" fill="rgb(118,147,195)"/><rect x="260" y="10" width="10" height="10" fill="rgb(119,144,191)"/><rect x="270" y="10" width="10" height="10" fill="rgb(117,144,192)"/><rect x="280" y="10" width="10" height="10" fill="rgb(116,144,189)"/><rect x="290" y="10" width="10" height="10" fill="rgb(117,141,189)"/><rect x="300" y="10" width="10" height="10" fill="rgb(114,140,189)"/><rect x="310" y="10" width="10" height="10" fill="rgb(113,139,189)"/><rect x="320" y="10" width="10" height="10" fill="rgb(111,138,189)"/><rect x="330" y="10" width="10" height="10" fill="rgb(110,137,189)"/><rect x="340" y="10" width="10" height="10" fill="rgb(109,136,187)"/><rect x="350" y="10" width="10" height="10" fill="rgb(106,133,183)"/><rect x="360" y="10" width="10" height="10" fill="rgb(104,132,181)"/><rect x="370" y="10" width="10" height="10" fill="rgb(103,129,179)"/><rect x="380" y="10" width="10" height="10" fill="rgb(101,129,176)"/><rect x="390" y="10" width="10" height="10" fill="rgb(101,127,174)"/><rect x="400" y="10" width="10" height="10" fill="rgb(100,126,172)"/><rect x="410" y="10" width="10" height="10" fill="rgb(98,125,171)"/><rect x="420" y="10" width="10" height="10" fill="rgb(96,122,169)"/><rect x="430" y="10" width="10" height="10" fill="rgb(95,121,166)"/><rect x="440" y="10" width="10" height="10" fill="rgb(93,118,163)"/><rect x="450" y="10" width="10" height="10" fill="rgb(94,121,164)"/><rect x="460" y="10" width="10" height="10" fill="rgb(101,125,167)"/><rect x="470" y="10" width="10" height="10" fill="rgb(96,124,167)"/><rect x="0" y="20" width="10" height="10" fill="rgb(100,128,174)"/><rect x="10" y="20" width="10" height="10" fill="rgb(109,134,175)"/><rect x="20" y="20" width="10" height="10" fill="rgb(106,134,178)"/><rect x="30" y="20" width="10" height="10" fill="rgb(107,135,178)"/><rect x="40" y="20" width="10" height="10" fill="rgb(123,147,181)"/><rect x="50" y="20" width="10" height="10" fill="rgb(135,152,181)"/><rect x="60" y="20" width="10" height="10" fill="rgb(137,154,181)"/><rect x="70" y="20" width="10" height="10" fill="rgb(138,154,182)"/><rect x="80" y="20" width="10" height="10" fill="rgb(139,155,182)"/><rect x="90" y="20" width="10" height="10" fill="rgb(142,156,183)"/><rect x="100" y="20" width="10" height="10" fill="rgb(139,153,180)"/><rect x="110" y="20" width="10" height="10" fill="rgb(129,143,172)"/><rect x="120" y="20" width="10" height="10" fill="rgb(112,129,163)"/><rect x="130" y="20" width="10" height="10" fill="rgb(92,111,148)"/><rect x="140" y="20" width="10" height="10" fill="rgb(62,90,132)"/><rect x="150" y="20" width="10" height="10" fill="rgb(40,67,110)"/><rect x="160" y="20" width="10" height="10" fill="rgb(20,47,93)"/><rect x="170" y="20" width="10" height="10" fill="rgb(5,29,69)"/><rect x="180" y="20" width="10" height="10" fill="rgb(14,14,14)"/><rect x="190" y="20" width="10" height="10" fill="rgb(6,6,6)"/><rect x="200" y="20" width="10" height="10" fill="rgb(3,3,3)"/><rect x="210" y="20" width="10" height="10" fill="rgb(2,2,2)"/><rect x="220" y="20" width="10" height="10" fill="rgb(1,1,1)"/><rect x="230" y="20" width="10" height="10" fill="rgb(1,1,1)"/><rect x="240" y="20" width="10" height="10" fill="rgb(2,2,2)"/><rect x="250" y="20" width="10" height="10" fill="rgb(0,0,0)"/><rect x="260" y="20" width="10" height="10" fill="rgb(0,0,0)"/><rect x="270" y="20" width="10" height="10" fill="rgb(0,0,0)"/><rect x="280" y="20" width="10" height="10" fill="rgb(0,0,0)"/><rect x="290" y="20" width="10" height="10" fill="rgb(0,0,0)"/><rect x="300" y="20" width="10" height="10" fill="rgb(0,0,0)"/><rect x="310" y="20" width="10" height="10" fill="rgb(0,0,0)"/><rect x="320" y="20" width="10" height="10" fill="rgb(0,0,0)"/><rect x="330" y="20" width="10" height="10" fill="rgb(0,0,0)"/><rect x="340" y="20" width="10" height="10" fill="rgb(0,0,0)"/><rect x="350" y="20" width="10" height="10" fill="rgb(0,0,0)"/><rect x="360" y="20" width="10" height="10" fill="rgb(0,0,0)"/><rect x="370" y="20" width="10" height="10" fill="rgb(0,0,0)"/><rect x="380" y="20" width="10" height="10" fill="rgb(0,0,0)"/><rect x="390" y="20" width="10" height="10" fill="rgb(0,0,0)"/><rect x="400" y="20" width="10" height="10" fill="rgb(0,0,0)"/><rect x="410" y="20" width="10" height="10" fill="rgb(0,0,0)"/><rect x="420" y="20" width="10" height="10" fill="rgb(0,0,0)"/><rect x="430" y="20" width="10" height="10" fill="rgb(0,0,0)"/><rect x="440" y="20" width="10" height="10" fill="rgb(0,0,0)"/><rect x="450" y="20" width="10" height="10" fill="rgb(0,0,0)"/><rect x="460" y="20" width="10" height="10" fill="rgb(0,0,0)"/><rect x="470" y="20" width="10" height="10" fill="rgb(0,0,0)"/><rect x="0" y="30" width="10" height="10" fill="rgb(0,0,0)"/><rect x="10" y="30" width="10" height="10" fill="rgb(0,0,0)"/><rect x="20" y="30" width="10" height="10" fill="rgb(0,0,0)"/><rect x="30" y="30" width="10" height="10" fill="rgb(0,0,0)"/><rect x="40" y="30" width="10" height="10" fill="rgb(0,0,0)"/><rect x="50" y="30" width="10" height="10" fill="rgb(0,0,0)"/><rect x="60" y="30" width="10" height="10" fill="rgb(0,0,0)"/><rect x="70" y="30" width="10" height="10" fill="rgb(0,0,0)"/><rect x="80" y="30" width="10" height="10" fill="rgb(0,0,0)"/><rect x="90" y="30" width="10" height="10" fill="rgb(0,0,0)"/><rect x="100" y="30" width="10" height="10" fill="rgb(0,0,0)"/><rect x="110" y="30" width="10" height="10" fill="rgb(0,0,0)"/><rect x="120" y="30" width="10" height="10" fill="rgb(0,0,0)"/><rect x="130" y="30" width="10" height="10" fill="rgb(0,0,0)"/><rect x="140" y="30" width="10" height="10" fill="rgb(0,0,0)"/><rect x="150" y="30" width="10" height="10" fill="rgb(0,0,0)"/><rect x="160" y="30" width="10" height="10" fill="rgb(0,0,0)"/><rect x="170" y="30" width="10" height="10" fill="rgb(0,0,0)"/><rect x="180" y="30" width="10" height="10" fill="rgb(0,0,0)"/><rect x="190" y="30" width="10" height="10" fill="rgb(0,0,0)"/><rect x="200" y="30" width="10" height="10" fill="rgb(0,0,0)"/><rect x="210" y="30" width="10" height="10" fill="rgb(0,0,0)"/><rect x="220" y="30" width="10" height="10" fill="rgb(0,0,0)"/><rect x="230" y="30" width="10" height="10" fill="rgb(0,0,0)"/><rect x="240" y="30" width="10" height="10" fill="rgb(0,0,0)"/><rect x="250" y="30" width="10" height="10" fill="rgb(0,0,0)"/><rect x="260" y="30" width="10" height="10" fill="rgb(0,0,0)"/><rect x="270" y="30" width="10" height="10" fill="rgb(0,0,0)"/><rect x="280" y="30" width="10" height="10" fill="rgb(0,0,0)"/><rect x="290" y="30" width="10" height="10" fill="rgb(0,0,0)"/><rect x="300" y="30" width="10" height="10" fill="rgb(0,0,0)"/><rect x="310" y="30" width="10" height="10" fill="rgb(0,0,0)"/><rect x="320" y="30" width="10" height="10" fill="rgb(0,0,0)"/><rect x="330" y="30" width="10" height="10" fill="rgb(0,0,0)"/><rect x="340" y="30" width="10" height="10" fill="rgb(0,0,0)"/><rect x="350" y="30" width="10" height="10" fill="rgb(0,0,0)"/><rect x="360" y="30" width="10" height="10" fill="rgb(0,0,0)"/><rect x="370" y="30" width="10" height="10" fill="rgb(0,0,0)"/><rect x="380" y="30" width="10" height="10" fill="rgb(0,0,0)"/><rect x="390" y="30" width="10" height="10" fill="rgb(0,0,0)"/><rect x="400" y="30" width="10" height="10" fill="rgb(0,0,0)"/><rect x="410" y="30" width="10" height="10" fill="rgb(0,0,0)"/><rect x="420" y="30" width="10" height="10" fill="rgb(0,0,0)"/><rect x="430" y="30" width="10" height="10" fill="rgb(0,0,0)"/><rect x="440" y="30" width="10" height="10" fill="rgb(0,0,0)"/><rect x="450" y="30" width="10" height="10" fill="rgb(0,0,0)"/><rect x="460" y="30" width="10" height="10" fill="rgb(0,0,0)"/><rect x="470" y="30" width="10" height="10" fill="rgb(0,0,0)"/><rect x="0" y="40" width="10" height="10" fill="rgb(0,0,0)"/><rect x="10" y="40" width="10" height="10" fill="rgb(0,0,0)"/><rect x="20" y="40" width="10" height="10" fill="rgb(0,0,0)"/><rect x="30" y="40" width="10" height="10" fill="rgb(0,0,0)"/><rect x="40" y="40" width="10" height="10" fill="rgb(0,0,0)"/><rect x="50" y="40" width="10" height="10" fill="rgb(0,0,0)"/><rect x="60" y="40" width="10" height="10" fill="rgb(0,0,0)"/><rect x="70" y="40" width="10" height="10" fill="rgb(0,0,0)"/><rect x="80" y="40" width="10" height="10" fill="rgb(0,0,0)"/><rect x="90" y="40" width="10" height="10" fill="rgb(0,0,0)"/><rect x="100" y="40" width="10" height="10" fill="rgb(0,0,0)"/><rect x="110" y="40" width="10" height="10" fill="rgb(0,0,0)"/><rect x="120" y="40" width="10" height="10" fill="rgb(0,0,0)"/><rect x="130" y="40" width="10" height="10" fill="rgb(0,0,0)"/><rect x="140" y="40" width="10" height="10" fill="rgb(0,0,0)"/><rect x="150" y="40" width="10" height="10" fill="rgb(0,0,0)"/><rect x="160" y="40" width="10" height="10" fill="rgb(0,0,0)"/><rect x="170" y="40" width="10" height="10" fill="rgb(0,0,0)"/><rect x="180" y="40" width="10" height="10" fill="rgb(3,3,3)"/><rect x="190" y="40" width="10" height="10" fill="rgb(14,14,14)"/><rect x="200" y="40" width="10" height="10" fill="rgb(36,36,36)"/><rect x="210" y="40" width="10" height="10" fill="rgb(75,75,75)"/><rect x="220" y="40" width="10" height="10" fill="rgb(89,89,89)"/><rect x="230" y="40" width="10" height="10" fill="rgb(109,109,109)"/><rect x="240" y="40" width="10" height="10" fill="rgb(137,137,137)"/><rect x="250" y="40" width="10" height="10" fill="rgb(153,153,153)"/><rect x="260" y="40" width="10" height="10" fill="rgb(166,166,166)"/><rect x="270" y="40" width="10" height="10" fill="rgb(173,173,173)"/><rect x="280" y="40" width="10" height="10" fill="rgb(173,173,173)"/><rect x="290" y="40" width="10" height="10" fill="rgb(165,165,184)"/><rect x="300" y="40" width="10" height="10" fill="rgb(179,179,202)"/><rect x="310" y="40" width="10" height="10" fill="rgb(186,185,202)"/><rect x="320" y="40" width="10" height="10" fill="rgb(191,187,202)"/><rect x="330" y="40" width="10" height="10" fill="rgb(182,182,202)"/><rect x="340" y="40" width="10" height="10" fill="rgb(179,179,198)"/><rect x="350" y="40" width="10" height="10" fill="rgb(173,175,197)"/><rect x="360" y="40" width="10" height="10" fill="rgb(169,174,198)"/><rect x="370" y="40" width="10" height="10" fill="rgb(172,175,197)"/><rect x="380" y="40" width="10" height="10" fill="rgb(171,173,196)"/><rect x="390" y="40" width="10" height="10" fill="rgb(171,173,196)"/><rect x="400" y="40" width="10" height="10" fill="rgb(165,169,192)"/><rect x="410" y="40" width="10" height="10" fill="rgb(164,167,188)"/><rect x="420" y="40" width="10" height="10" fill="rgb(163,166,188)"/><rect x="430" y="40" width="10" height="10" fill="rgb(168,170,191)"/><rect x="440" y="40" width="10" height="10" fill="rgb(170,171,189)"/><rect x="450" y="40" width="10" height="10" fill="rgb(170,170,187)"/><rect x="460" y="40" width="10" height="10" fill="rgb(171,171,191)"/><rect x="470" y="40" width="10" height="10" fill="rgb(162,166,189)"/><rect x="0" y="50" width="10" height="10" fill="rgb(168,169,190)"/><rect x="10" y="50" width="10" height="10" fill="rgb(171,171,191)"/><rect x="20" y="50" width="10" height="10" fill="rgb(167,169,188)"/><rect x="30" y="50" width="10" height="10" fill="rgb(160,163,186)"/><rect x="40" y="50" width="10" height="10" fill="rgb(170,169,186)"/><rect x="50" y="50" width="10" height="10" fill="rgb(171,168,184)"/><rect x="60" y="50" width="10" height="10" fill="rgb(174,171,184)"/><rect x="70" y="50" width="10" height="10" fill="rgb(174,171,186)"/><rect x="80" y="50" width="10" height="10" fill="rgb(166,165,183)"/><rect x="90" y="50" width="10" height="10" fill="rgb(158,159,182)"/><rect x="100" y="50" width="10" height="10" fill="rgb(166,165,183)"/><rect x="110" y="50" width="10" height="10" fill="rgb(171,168,183)"/><rect x="120" y="50" width="10" height="10" fill="rgb(172,169,184)"/><rect x="130" y="50" width="10" height="10" fill="rgb(139,152,190)"/><rect x="140" y="50" width="10" height="10" fill="rgb(138,154,192)"/><rect x="150" y="50" width="10" height="10" fill="rgb(138,153,190)"/><rect x="160" y="50" width="10" height="10" fill="rgb(120,148,199)"/><rect x="170" y="50" width="10" height="10" fill="rgb(120,148,198)"/><rect x="180" y="50" width="10" height="10" fill="rgb(118,145,197)"/><rect x="190" y="50" width="10" height="10" fill="rgb(120,146,194)"/><rect x="200" y="50" width="10" height="10" fill="rgb(121,147,194)"/><rect x="210" y="50" width="10" height="10" fill="rgb(122,146,193)"/><rect x="220" y="50" width="10" height="10" fill="rgb(120,147,194)"/><rect x="230" y="50" width="10" height="10" fill="rgb(141,153,186)"/><rect x="240" y="50" width="10" height="10" fill="rgb(139,152,188)"/><rect x="250" y="50" width="10" height="10" fill="rgb(162,162,180)"/><rect x="260" y="50" width="10" height="10" fill="rgb(146,155,185)"/><rect x="270" y="50" width="10" height="10" fill="rgb(146,155,185)"/><rect x="280" y="50" width="10" height="10" fill="rgb(141,158,194)"/><rect x="290" y="50" width="10" height="10" fill="rgb(136,153,192)"/><rect x="300" y="50" width="10" height="10" fill="rgb(127,151,196)"/><rect x="310" y="50" width="10" height="10" fill="rgb(136,153,193)"/><rect x="320" y="50" width="10" height="10" fill="rgb(131,152,193)"/><rect x="330" y="50" width="10" height="10" fill="rgb(175,173,185)"/><rect x="340" y="50" width="10" height="10" fill="rgb(196,184,187)"/><rect x="350" y="50" width="10" height="10" fill="rgb(188,181,189)"/><rect x="360" y="50" width="10" height="10" fill="rgb(149,161,194)"/><rect x="370" y="50" width="10" height="10" fill="rgb(127,153,197)"/><rect x="380" y="50" width="10" height="10" fill="rgb(129,154,198)"/><rect x="390" y="50" width="10" height="10" fill="rgb(133,157,199)"/><rect x="400" y="50" width="10" height="10" fill="rgb(131,156,199)"/><rect x="410" y="50" width="10" height="10" fill="rgb(134,157,199)"/><rect x="420" y="50" width="10" height="10" fill="rgb(134,157,199)"/><rect x="430" y="50" width="10" height="10" fill="rgb(137,159,201)"/><rect x="440" y="50" width="10" height="10" fill="rgb(136,159,201)"/><rect x="450" y="50" width="10" height="10" fill="rgb(137,159,202)"/><rect x="460" y="50" width="10" height="10" fill="rgb(138,160,202)"/><rect x="470" y="50" width="10" height="10" fill="rgb(137,160,202)"/><rect x="0" y="60" width="10" height="10" fill="rgb(140,161,202)"/><rect x="10" y="60" width="10" height="10" fill="rgb(142,162,203)"/><rect x="20" y="60" width="10" height="10" fill="rgb(145,164,204)"/><rect x="30" y="60" width="10" height="10" fill="rgb(146,165,205)"/><rect x="40" y="60" width="10" height="10" fill="rgb(145,165,205)"/><rect x="50" y="60" width="10" height="10" fill="rgb(148,166,206)"/><rect x="60" y="60" width="10" height="10" fill="rgb(152,168,207)"/><rect x="70" y="60" width="10" height="10" fill="rgb(155,171,208)"/><rect x="80" y="60" width="10" height="10" fill="rgb(155,170,207)"/><rect x="90" y="60" width="10" height="10" fill="rgb(154,170,207)"/><rect x="100" y="60" width="10" height="10" fill="rgb(154,170,207)"/><rect x="110" y="60" width="10" height="10" fill="rgb(154,170,208)"/><rect x="120" y="60" width="10" height="10" fill="rgb(157,172,208)"/><rect x="130" y="60" width="10" height="10" fill="rgb(165,177,209)"/><rect x="140" y="60" width="10" height="10" fill="rgb(175,183,211)"/><rect x="150" y="60" width="10" height="10" fill="rgb(181,184,208)"/><rect x="160" y="60" width="10" height="10" fill="rgb(182,185,208)"/><rect x="170" y="60" width="10" height="10" fill="rgb(185,187,207)"/><rect x="180" y="60" width="10" height="10" fill="rgb(194,193,208)"/><rect x="190" y="60" width="10" height="10" fill="rgb(197,194,208)"/><rect x="200" y="60" width="10" height="10" fill="rgb(198,195,209)"/><rect x="210" y="60" width="10" height="10" fill="rgb(198,195,209)"/><rect x="220" y="60" width="10" height="10" fill="rgb(191,192,209)"/></svg>