<svg xmlns="http://www.w3.org/2000/svg" width="100" height="270"><rect x="0" y="0" width="10" height="10" fill="rgb(185,225,254)"/><rect x="10" y="0" width="10" height="10" fill="rgb(190,231,254)"/><rect x="20" y="0" width="10" height="10" fill="rgb(193,235,254)"/><rect x="30" y="0" width="10" height="10" fill="rgb(193,235,254)"/><rect x="40" y="0" width="10" height="10" fill="rgb(195,238,254)"/><rect x="50" y="0" width="10" height="10" fill="rgb(200,243,254)"/><rect x="60" y="0" width="10" height="10" fill="rgb(202,245,254)"/><rect x="70" y="0" width="10" height="10" fill="rgb(201,245,254)"/><rect x="80" y="0" width="10" height="10" fill="rgb(206,249,254)"/><rect x="90" y="0" width="10" height="10" fill="rgb(207,249,254)"/><rect x="0" y="10" width="10" height="10" fill="rgb(212,252,254)"/><rect x="10" y="10" width="10" height="10" fill="rgb(212,251,254)"/><rect x="20" y="10" width="10" height="10" fill="rgb(216,254,254)"/><rect x="30" y="10" width="10" height="10" fill="rgb(217,254,254)"/><rect x="40" y="10" width="10" height="10" fill="rgb(215,255,254)"/><rect x="50" y="10" width="10" height="10" fill="rgb(216,255,254)"/><rect x="60" y="10" width="10" height="10" fill="rgb(220,255,254)"/><rect x="70" y="10" width="10" height="10" fill="rgb(224,255,255)"/><rect x="80" y="10" width="10" height="10" fill="rgb(232,255,255)"/><rect x="90" y="10" width="10" height="10" fill="rgb(238,255,255)"/><rect x="0" y="20" width="10" height="10" fill="rgb(245,255,255)"/><rect x="10" y="20" width="10" height="10" fill="rgb(248,255,255)"/><rect x="20" y="20" width="10" height="10" fill="rgb(252,255,255)"/><rect x="30" y="20" width="10" height="10" fill="rgb(254,255,255)"/><rect x="40" y="20" width="10" height="10" fill="rgb(255,255,255)"/><rect x="50" y="20" width="10" height="10" fill="rgb(255,255,255)"/><rect x="60" y="20" width="10" height="10" fill="rgb(255,255,255)"/><rect x="70" y="20" width="10" height="10" fill="rgb(255,255,255)"/><rect x="80" y="20" width="10" height="10" fill="rgb(255,255,255)"/><rect x="90" y="20" width="10" height="10" fill="rgb(255,254,255)"/><rect x="0" y="30" width="10" height="10" fill="rgb(251,252,254)"/><rect x="10" y="30" width="10" height="10" fill="rgb(248,249,254)"/><rect x="20" y="30" width="10" height="10" fill="rgb(230,249,254)"/><rect x="30" y="30" width="10" height="10" fill="rgb(215,245,254)"/><rect x="40" y="30" width="10" height="10" fill="rgb(205,232,250)"/><rect x="50" y="30" width="10" height="10" fill="rgb(193,216,238)"/><rect x="60" y="30" width="10" height="10" fill="rgb(194,215,234)"/><rect x="70" y="30" width="10" height="10" fill="rgb(196,213,234)"/><rect x="80" y="30" width="10" height="10" fill="rgb(191,211,232)"/><rect x="90" y="30" width="10" height="10" fill="rgb(181,208,230)"/><rect x="0" y="40" width="10" height="10" fill="rgb(174,174,174)"/><rect x="10" y="40" width="10" height="10" fill="rgb(166,166,166)"/><rect x="20" y="40" width="10" height="10" fill="rgb(151,151,151)"/><rect x="30" y="40" width="10" height="10" fill="rgb(131,131,131)"/><rect x="40" y="40" width="10" height="10" fill="rgb(44,44,44)"/><rect x="50" y="40" width="10" height="10" fill="rgb(76,76,76)"/><rect x="60" y="40" width="10" height="10" fill="rgb(70,70,70)"/><rect x="70" y="40" width="10" height="10" fill="rgb(61,61,61)"/><rect x="80" y="40" width="10" height="10" fill="rgb(57,57,57)"/><rect x="90" y="40" width="10" height="10" fill="rgb(55,55,55)"/><rect x="0" y="50" width="10" height="10" fill="rgb(55,55,55)"/><rect x="10" y="50" width="10" height="10" fill="rgb(55,55,55)"/><rect x="20" y="50" width="10" height="10" fill="rgb(54,54,54)"/><rect x="30" y="50" width="10" height="10" fill="rgb(84,84,84)"/><rect x="40" y="50" width="10" height="10" fill="rgb(53,53,53)"/><rect x="50" y="50" width="10" height="10" fill="rgb(61,61,61)"/><rect x="60" y="50" width="10" height="10" fill="rgb(53,53,53)"/><rect x="70" y="50" width="10" height="10" fill="rgb(53,53,53)"/><rect x="80" y="50" width="10" height="10" fill="rgb(52,52,52)"/><rect x="90" y="50" width="10" height="10" fill="rgb(53,53,53)"/><rect x="0" y="60" width="10" height="10" fill="rgb(53,53,53)"/><rect x="10" y="60" width="10" height="10" fill="rgb(53,53,53)"/><rect x="20" y="60" width="10" height="10" fill="rgb(72,72,72)"/><rect x="30" y="60" width="10" height="10" fill="rgb(52,52,52)"/><rect x="40" y="60" width="10" height="10" fill="rgb(52,52,52)"/><rect x="50" y="60" width="10" height="10" fill="rgb(51,51,51)"/><rect x="60" y="60" width="10" height="10" fill="rgb(52,52,52)"/><rect x="70" y="60" width="10" height="10" fill="rgb(52,52,52)"/><rect x="80" y="60" width="10" height="10" fill="rgb(51,51,51)"/><rect x="90" y="60" width="10" height="10" fill="rgb(53,53,53)"/><rect x="0" y="70" width="10" height="10" fill="rgb(52,52,52)"/><rect x="10" y="70" width="10" height="10" fill="rgb(52,52,52)"/><rect x="20" y="70" width="10" height="10" fill="rgb(51,51,51)"/><rect x="30" y="70" width="10" height="10" fill="rgb(134,134,134)"/><rect x="40" y="70" width="10" height="10" fill="rgb(52,52,52)"/><rect x="50" y="70" width="10" height="10" fill="rgb(52,52,52)"/><rect x="60" y="70" width="10" height="10" fill="rgb(51,51,51)"/><rect x="70" y="70" width="10" height="10" fill="rgb(52,52,52)"/><rect x="80" y="70" width="10" height="10" fill="rgb(51,51,51)"/><rect x="90" y="70" width="10" height="10" fill="rgb(51,51,51)"/><rect x="0" y="80" width="10" height="10" fill="rgb(51,51,51)"/><rect x="10" y="80" width="10" height="10" fill="rgb(51,51,51)"/><rect x="20" y="80" width="10" height="10" fill="rgb(51,51,51)"/><rect x="30" y="80" width="10" height="10" fill="rgb(51,51,51)"/><rect x="40" y="80" width="10" height="10" fill="rgb(51,51,51)"/><rect x="50" y="80" width="10" height="10" fill="rgb(51,51,51)"/><rect x="60" y="80" width="10" height="10" fill="rgb(51,51,51)"/><rect x="70" y="80" width="10" height="10" fill="rgb(51,51,51)"/><rect x="80" y="80" width="10" height="10" fill="rgb(52,52,52)"/><rect x="90" y="80" width="10" height="10" fill="rgb(51,51,51)"/><rect x="0" y="90" width="10" height="10" fill="rgb(50,50,50)"/><rect x="10" y="90" width="10" height="10" fill="rgb(111,111,111)"/><rect x="20" y="90" width="10" height="10" fill="rgb(49,49,49)"/><rect x="30" y="90" width="10" height="10" fill="rgb(49,49,49)"/><rect x="40" y="90" width="10" height="10" fill="rgb(49,49,49)"/><rect x="50" y="90" width="10" height="10" fill="rgb(49,49,49)"/><rect x="60" y="90" width="10" height="10" fill="rgb(49,49,49)"/><rect x="70" y="90" width="10" height="10" fill="rgb(49,49,49)"/><rect x="80" y="90" width="10" height="10" fill="rgb(49,49,49)"/><rect x="90" y="90" width="10" height="10" fill="rgb(49,49,49)"/><rect x="0" y="100" width="10" height="10" fill="rgb(48,48,48)"/><rect x="10" y="100" width="10" height="10" fill="rgb(48,48,48)"/><rect x="20" y="100" width="10" height="10" fill="rgb(48,48,48)"/><rect x="30" y="100" width="10" height="10" fill="rgb(48,48,48)"/><rect x="40" y="100" width="10" height="10" fill="rgb(47,47,47)"/><rect x="50" y="100" width="10" height="10" fill="rgb(47,47,47)"/><rect x="60" y="100" width="10" height="10" fill="rgb(49,49,49)"/><rect x="70" y="100" width="10" height="10" fill="rgb(47,47,47)"/><rect x="80" y="100" width="10" height="10" fill="rgb(47,47,47)"/><rect x="90" y="100" width="10" height="10" fill="rgb(47,47,47)"/><rect x="0" y="110" width="10" height="10" fill="rgb(47,47,47)"/><rect x="10" y="110" width="10" height="10" fill="rgb(47,47,47)"/><rect x="20" y="110" width="10" height="10" fill="rgb(47,47,47)"/><rect x="30" y="110" width="10" height="10" fill="rgb(47,47,47)"/><rect x="40" y="110" width="10" height="10" fill="rgb(60,60,60)"/><rect x="50" y="110" width="10" height="10" fill="rgb(48,48,48)"/><rect x="60" y="110" width="10" height="10" fill="rgb(47,47,47)"/><rect x="70" y="110" width="10" height="10" fill="rgb(48,48,48)"/><rect x="80" y="110" width="10" height="10" fill="rgb(49,49,49)"/><rect x="90" y="110" width="10" height="10" fill="rgb(49,49,49)"/><rect x="0" y="120" width="10" height="10" fill="rgb(50,50,50)"/><rect x="10" y="120" width="10" height="10" fill="rgb(50,50,50)"/><rect x="20" y="120" width="10" height="10" fill="rgb(53,53,53)"/><rect x="30" y="120" width="10" height="10" fill="rgb(57,57,57)"/><rect x="40" y="120" width="10" height="10" fill="rgb(63,63,63)"/><rect x="50" y="120" width="10" height="10" fill="rgb(75,75,75)"/><rect x="60" y="120" width="10" height="10" fill="rgb(94,94,94)"/><rect x="70" y="120" width="10" height="10" fill="rgb(121,121,121)"/><rect x="80" y="120" width="10" height="10" fill="rgb(158,158,158)"/><rect x="90" y="120" width="10" height="10" fill="rgb(191,191,191)"/><rect x="0" y="130" width="10" height="10" fill="rgb(204,204,204)"/><rect x="10" y="130" width="10" height="10" fill="rgb(205,205,205)"/><rect x="20" y="130" width="10" height="10" fill="rgb(210,210,210)"/><rect x="30" y="130" width="10" height="10" fill="rgb(212,212,212)"/><rect x="40" y="130" width="10" height="10" fill="rgb(235,250,253)"/><rect x="50" y="130" width="10" height="10" fill="rgb(241,254,254)"/><rect x="60" y="130" width="10" height="10" fill="rgb(247,255,255)"/><rect x="70" y="130" width="10" height="10" fill="rgb(251,255,255)"/><rect x="80" y="130" width="10" height="10" fill="rgb(252,255,255)"/><rect x="90" y="130" width="10" height="10" fill="rgb(253,255,255)"/><rect x="0" y="140" width="10" height="10" fill="rgb(252,255,255)"/><rect x="10" y="140" width="10" height="10" fill="rgb(253,255,255)"/><rect x="20" y="140" width="10" height="10" fill="rgb(254,255,255)"/><rect x="30" y="140" width="10" height="10" fill="rgb(254,255,255)"/><rect x="40" y="140" width="10" height="10" fill="rgb(254,255,255)"/><rect x="50" y="140" width="10" height="10" fill="rgb(255,255,255)"/><rect x="60" y="140" width="10" height="10" fill="rgb(254,255,255)"/><rect x="70" y="140" width="10" height="10" fill="rgb(250,255,255)"/><rect x="80" y="140" width="10" height="10" fill="rgb(254,255,255)"/><rect x="90" y="140" width="10" height="10" fill="rgb(255,255,255)"/><rect x="0" y="150" width="10" height="10" fill="rgb(255,255,255)"/><rect x="10" y="150" width="10" height="10" fill="rgb(255,255,255)"/><rect x="20" y="150" width="10" height="10" fill="rgb(255,255,255)"/><rect x="30" y="150" width="10" height="10" fill="rgb(255,255,255)"/><rect x="40" y="150" width="10" height="10" fill="rgb(253,255,255)"/><rect x="50" y="150" width="10" height="10" fill="rgb(252,255,255)"/><rect x="60" y="150" width="10" height="10" fill="rgb(251,255,255)"/><rect x="70" y="150" width="10" height="10" fill="rgb(250,255,255)"/><rect x="80" y="150" width="10" height="10" fill="rgb(248,255,255)"/><rect x="90" y="150" width="10" height="10" fill="rgb(246,255,255)"/><rect x="0" y="160" width="10" height="10" fill="rgb(245,255,255)"/><rect x="10" y="160" width="10" height="10" fill="rgb(242,255,255)"/><rect x="20" y="160" width="10" height="10" fill="rgb(242,255,255)"/><rect x="30" y="160" width="10" height="10" fill="rgb(240,255,255)"/><rect x="40" y="160" width="10" height="10" fill="rgb(240,255,255)"/><rect x="50" y="160" width="10" height="10" fill="rgb(239,255,255)"/><rect x="60" y="160" width="10" height="10" fill="rgb(236,255,255)"/><rect x="70" y="160" width="10" height="10" fill="rgb(238,255,255)"/><rect x="80" y="160" width="10" height="10" fill="rgb(236,255,255)"/><rect x="90" y="160" width="10" height="10" fill="rgb(237,255,255)"/><rect x="0" y="170" width="10" height="10" fill="rgb(236,255,255)"/><rect x="10" y="170" width="10" height="10" fill="rgb(235,255,255)"/><rect x="20" y="170" width="10" height="10" fill="rgb(234,255,255)"/><rect x="30" y="170" width="10" height="10" fill="rgb(236,255,255)"/><rect x="40" y="170" width="10" height="10" fill="rgb(235,255,255)"/><rect x="50" y="170" width="10" height="10" fill="rgb(235,255,255)"/><rect x="60" y="170" width="10" height="10" fill="rgb(235,255,255)"/><rect x="70" y="170" width="10" height="10" fill="rgb(236,255,255)"/><rect x="80" y="170" width="10" height="10" fill="rgb(236,255,255)"/><rect x="90" y="170" width="10" height="10" fill="rgb(235,254,255)"/><rect x="0" y="180" width="10" height="10" fill="rgb(235,254,255)"/><rect x="10" y="180" width="10" height="10" fill="rgb(236,254,255)"/><rect x="20" y="180" width="10" height="10" fill="rgb(235,254,255)"/><rect x="30" y="180" width="10" height="10" fill="rgb(234,254,255)"/><rect x="40" y="180" width="10" height="10" fill="rgb(235,254,255)"/><rect x="50" y="180" width="10" height="10" fill="rgb(235,254,255)"/><rect x="60" y="180" width="10" height="10" fill="rgb(235,253,255)"/><rect x="70" y="180" width="10" height="10" fill="rgb(235,253,255)"/><rect x="80" y="180" width="10" height="10" fill="rgb(236,253,255)"/><rect x="90" y="180" width="10" height="10" fill="rgb(235,253,255)"/><rect x="0" y="190" width="10" height="10" fill="rgb(235,253,255)"/><rect x="10" y="190" width="10" height="10" fill="rgb(235,253,255)"/><rect x="20" y="190" width="10" height="10" fill="rgb(235,253,255)"/><rect x="30" y="190" width="10" height="10" fill="rgb(234,253,255)"/><rect x="40" y="190" width="10" height="10" fill="rgb(235,253,255)"/><rect x="50" y="190" width="10" height="10" fill="rgb(234,253,254)"/><rect x="60" y="190" width="10" height="10" fill="rgb(233,253,255)"/><rect x="70" y="190" width="10" height="10" fill="rgb(232,253,255)"/><rect x="80" y="190" width="10" height="10" fill="rgb(234,253,255)"/><rect x="90" y="190" width="10" height="10" fill="rgb(233,253,255)"/><rect x="0" y="200" width="10" height="10" fill="rgb(230,253,254)"/><rect x="10" y="200" width="10" height="10" fill="rgb(230,253,254)"/><rect x="20" y="200" width="10" height="10" fill="rgb(230,253,255)"/><rect x="30" y="200" width="10" height="10" fill="rgb(230,253,254)"/><rect x="40" y="200" width="10" height="10" fill="rgb(230,253,254)"/><rect x="50" y="200" width="10" height="10" fill="rgb(230,253,254)"/><rect x="60" y="200" width="10" height="10" fill="rgb(231,253,254)"/><rect x="70" y="200" width="10" height="10" fill="rgb(230,253,254)"/><rect x="80" y="200" width="10" height="10" fill="rgb(231,253,254)"/><rect x="90" y="200" width="10" height="10" fill="rgb(232,253,254)"/><rect x="0" y="210" width="10" height="10" fill="rgb(231,253,254)"/><rect x="10" y="210" width="10" height="10" fill="rgb(230,253,254)"/><rect x="20" y="210" width="10" height="10" fill="rgb(230,253,254)"/><rect x="30" y="210" width="10" height="10" fill="rgb(230,253,254)"/><rect x="40" y="210" width="10" height="10" fill="rgb(230,253,254)"/><rect x="50" y="210" width="10" height="10" fill="rgb(229,253,254)"/><rect x="60" y="210" width="10" height="10" fill="rgb(229,252,254)"/><rect x="70" y="210" width="10" height="10" fill="rgb(226,251,254)"/><rect x="80" y="210" width="10" height="10" fill="rgb(227,252,254)"/><rect x="90" y="210" width="10" height="10" fill="rgb(224,250,254)"/><rect x="0" y="220" width="10" height="10" fill="rgb(222,249,254)"/><rect x="10" y="220" width="10" height="10" fill="rgb(222,249,254)"/><rect x="20" y="220" width="10" height="10" fill="rgb(222,248,254)"/><rect x="30" y="220" width="10" height="10" fill="rgb(221,248,254)"/><rect x="40" y="220" width="10" height="10" fill="rgb(220,247,254)"/><rect x="50" y="220" width="10" height="10" fill="rgb(219,245,254)"/><rect x="60" y="220" width="10" height="10" fill="rgb(217,244,254)"/><rect x="70" y="220" width="10" height="10" fill="rgb(216,243,254)"/><rect x="80" y="220" width="10" height="10" fill="rgb(215,245,254)"/><rect x="90" y="220" width="10" height="10" fill="rgb(213,243,254)"/><rect x="0" y="230" width="10" height="10" fill="rgb(212,242,254)"/><rect x="10" y="230" width="10" height="10" fill="rgb(212,241,254)"/><rect x="20" y="230" width="10" height="10" fill="rgb(209,239,254)"/><rect x="30" y="230" width="10" height="10" fill="rgb(206,236,253)"/><rect x="40" y="230" width="10" height="10" fill="rgb(205,234,252)"/><rect x="50" y="230" width="10" height="10" fill="rgb(205,235,253)"/><rect x="60" y="230" width="10" height="10" fill="rgb(205,233,253)"/><rect x="70" y="230" width="10" height="10" fill="rgb(204,233,252)"/><rect x="80" y="230" width="10" height="10" fill="rgb(202,231,252)"/><rect x="90" y="230" width="10" height="10" fill="rgb(203,231,252)"/><rect x="0" y="240" width="10" height="10" fill="rgb(202,230,252)"/><rect x="10" y="240" width="10" height="10" fill="rgb(199,231,252)"/><rect x="20" y="240" width="10" height="10" fill="rgb(198,230,252)"/><rect x="30" y="240" width="10" height="10" fill="rgb(197,229,251)"/><rect x="40" y="240" width="10" height="10" fill="rgb(195,227,252)"/><rect x="50" y="240" width="10" height="10" fill="rgb(195,227,252)"/><rect x="60" y="240" width="10" height="10" fill="rgb(194,226,251)"/><rect x="70" y="240" width="10" height="10" fill="rgb(194,226,252)"/><rect x="80" y="240" width="10" height="10" fill="rgb(194,227,252)"/><rect x="90" y="240" width="10" height="10" fill="rgb(193,226,252)"/><rect x="0" y="250" width="10" height="10" fill="rgb(192,226,252)"/><rect x="10" y="250" width="10" height="10" fill="rgb(192,225,252)"/><rect x="20" y="250" width="10" height="10" fill="rgb(189,223,251)"/><rect x="30" y="250" width="10" height="10" fill="rgb(190,223,251)"/><rect x="40" y="250" width="10" height="10" fill="rgb(189,222,252)"/><rect x="50" y="250" width="10" height="10" fill="rgb(190,223,253)"/><rect x="60" y="250" width="10" height="10" fill="rgb(180,219,254)"/><rect x="70" y="250" width="10" height="10" fill="rgb(186,226,254)"/><rect x="80" y="250" width="10" height="10" fill="rgb(185,225,254)"/><rect x="90" y="250" width="10" height="10" fill="rgb(183,222,254)"/><rect x="0" y="260" width="10" height="10" fill="rgb(175,214,254)"/><rect x="10" y="260" width="10" height="10" fill="rgb(175,214,254)"/><rect x="20" y="260" width="10" height="10" fill="rgb(173,215,254)"/><rect x="30" y="260" width="10" height="10" fill="rgb(171,213,254)"/><rect x="40" y="260" width="10" height="10" fill="rgb(190,228,254)"/><rect x="50" y="260" width="10" height="10" fill="rgb(182,222,254)"/><rect x="60" y="260" width="10" height="10" fill="rgb(183,223,254)"/></svg>