<svg xmlns="http://www.w3.org/2000/svg" width="480" height="10"><rect x="0" y="0" width="10" height="10" fill="rgb(240,239,240)"/><rect x="10" y="0" width="10" height="10" fill="rgb(223,222,227)"/><rect x="20" y="0" width="10" height="10" fill="rgb(248,246,250)"/><rect x="30" y="0" width="10" height="10" fill="rgb(246,246,247)"/><rect x="40" y="0" width="10" height="10" fill="rgb(243,244,247)"/><rect x="50" y="0" width="10" height="10" fill="rgb(242,241,244)"/><rect x="60" y="0" width="10" height="10" fill="rgb(243,243,245)"/><rect x="70" y="0" width="10" height="10" fill="rgb(244,244,249)"/><rect x="80" y="0" width="10" height="10" fill="rgb(244,244,246)"/><rect x="90" y="0" width="10" height="10" fill="rgb(248,248,249)"/><rect x="100" y="0" width="10" height="10" fill="rgb(248,248,251)"/><rect x="110" y="0" width="10" height="10" fill="rgb(248,248,250)"/><rect x="120" y="0" width="10" height="10" fill="rgb(238,238,243)"/><rect x="130" y="0" width="10" height="10" fill="rgb(229,229,235)"/><rect x="140" y="0" width="10" height="10" fill="rgb(229,230,235)"/><rect x="150" y="0" width="10" height="10" fill="rgb(240,239,243)"/><rect x="160" y="0" width="10" height="10" fill="rgb(236,236,239)"/><rect x="170" y="0" width="10" height="10" fill="rgb(226,226,233)"/><rect x="180" y="0" width="10" height="10" fill="rgb(216,217,226)"/><rect x="190" y="0" width="10" height="10" fill="rgb(221,222,230)"/><rect x="200" y="0" width="10" height="10" fill="rgb(223,224,231)"/><rect x="210" y="0" width="10" height="10" fill="rgb(227,227,233)"/><rect x="220" y="0" width="10" height="10" fill="rgb(235,236,239)"/><rect x="230" y="0" width="10" height="10" fill="rgb(231,232,236)"/><rect x="240" y="0" width="10" height="10" fill="rgb(227,228,235)"/><rect x="250" y="0" width="10" height="10" fill="rgb(221,223,230)"/><rect x="260" y="0" width="10" height="10" fill="rgb(237,239,242)"/><rect x="270" y="0" width="10" height="10" fill="rgb(235,235,239)"/><rect x="280" y="0" width="10" height="10" fill="rgb(219,220,226)"/><rect x="290" y="0" width="10" height="10" fill="rgb(217,218,225)"/><rect x="300" y="0" width="10" height="10" fill="rgb(216,217,225)"/><rect x="310" y="0" width="10" height="10" fill="rgb(216,218,227)"/><rect x="320" y="0" width="10" height="10" fill="rgb(228,229,236)"/><rect x="330" y="0" width="10" height="10" fill="rgb(243,242,248)"/><rect x="340" y="0" width="10" height="10" fill="rgb(244,244,246)"/><rect x="350" y="0" width="10" height="10" fill="rgb(246,246,248)"/><rect x="360" y="0" width="10" height="10" fill="rgb(246,246,249)"/><rect x="370" y="0" width="10" height="10" fill="rgb(227,229,239)"/><rect x="380" y="0" width="10" height="10" fill="rgb(224,226,236)"/><rect x="390" y="0" width="10" height="10" fill="rgb(226,228,238)"/><rect x="400" y="0" width="10" height="10" fill="rgb(215,217,227)"/><rect x="410" y="0" width="10" height="10" fill="rgb(213,216,230)"/><rect x="420" y="0" width="10" height="10" fill="rgb(219,222,234)"/><rect x="430" y="0" width="10" height="10" fill="rgb(225,227,239)"/><rect x="440" y="0" width="10" height="10" fill="rgb(223,228,242)"/></svg>