<svg xmlns="http://www.w3.org/2000/svg" width="100" height="630"><rect x="0" y="0" width="10" height="10" fill="rgb(151,154,164)"/><rect x="10" y="0" width="10" height="10" fill="rgb(148,147,150)"/><rect x="20" y="0" width="10" height="10" fill="rgb(142,143,151)"/><rect x="30" y="0" width="10" height="10" fill="rgb(120,127,142)"/><rect x="40" y="0" width="10" height="10" fill="rgb(112,121,140)"/><rect x="50" y="0" width="10" height="10" fill="rgb(105,112,132)"/><rect x="60" y="0" width="10" height="10" fill="rgb(100,113,141)"/><rect x="70" y="0" width="10" height="10" fill="rgb(91,98,113)"/><rect x="80" y="0" width="10" height="10" fill="rgb(90,98,116)"/><rect x="90" y="0" width="10" height="10" fill="rgb(78,85,107)"/><rect x="0" y="10" width="10" height="10" fill="rgb(74,71,76)"/><rect x="10" y="10" width="10" height="10" fill="rgb(76,72,70)"/><rect x="20" y="10" width="10" height="10" fill="rgb(84,78,70)"/><rect x="30" y="10" width="10" height="10" fill="rgb(85,77,69)"/><rect x="40" y="10" width="10" height="10" fill="rgb(75,69,61)"/><rect x="50" y="10" width="10" height="10" fill="rgb(67,63,58)"/><rect x="60" y="10" width="10" height="10" fill="rgb(63,60,55)"/><rect x="70" y="10" width="10" height="10" fill="rgb(65,61,56)"/><rect x="80" y="10" width="10" height="10" fill="rgb(79,72,62)"/><rect x="90" y="10" width="10" height="10" fill="rgb(73,68,58)"/><rect x="0" y="20" width="10" height="10" fill="rgb(78,71,62)"/><rect x="10" y="20" width="10" height="10" fill="rgb(69,64,57)"/><rect x="20" y="20" width="10" height="10" fill="rgb(74,69,60)"/><rect x="30" y="20" width="10" height="10" fill="rgb(66,63,56)"/><rect x="40" y="20" width="10" height="10" fill="rgb(74,69,60)"/><rect x="50" y="20" width="10" height="10" fill="rgb(80,74,64)"/><rect x="60" y="20" width="10" height="10" fill="rgb(82,76,68)"/><rect x="70" y="20" width="10" height="10" fill="rgb(81,75,66)"/><rect x="80" y="20" width="10" height="10" fill="rgb(74,69,61)"/><rect x="90" y="20" width="10" height="10" fill="rgb(70,64,55)"/><rect x="0" y="30" width="10" height="10" fill="rgb(67,63,54)"/><rect x="10" y="30" width="10" height="10" fill="rgb(70,63,54)"/><rect x="20" y="30" width="10" height="10" fill="rgb(66,61,52)"/><rect x="30" y="30" width="10" height="10" fill="rgb(63,60,53)"/><rect x="40" y="30" width="10" height="10" fill="rgb(60,57,51)"/><rect x="50" y="30" width="10" height="10" fill="rgb(55,54,50)"/><rect x="60" y="30" width="10" height="10" fill="rgb(60,56,50)"/><rect x="70" y="30" width="10" height="10" fill="rgb(63,58,50)"/><rect x="80" y="30" width="10" height="10" fill="rgb(55,54,51)"/><rect x="90" y="30" width="10" height="10" fill="rgb(46,47,46)"/><rect x="0" y="40" width="10" height="10" fill="rgb(44,45,45)"/><rect x="10" y="40" width="10" height="10" fill="rgb(44,45,44)"/><rect x="20" y="40" width="10" height="10" fill="rgb(42,44,42)"/><rect x="30" y="40" width="10" height="10" fill="rgb(46,47,46)"/><rect x="40" y="40" width="10" height="10" fill="rgb(47,48,46)"/><rect x="50" y="40" width="10" height="10" fill="rgb(50,50,48)"/><rect x="60" y="40" width="10" height="10" fill="rgb(49,50,49)"/><rect x="70" y="40" width="10" height="10" fill="rgb(51,51,50)"/><rect x="80" y="40" width="10" height="10" fill="rgb(50,51,48)"/><rect x="90" y="40" width="10" height="10" fill="rgb(50,51,48)"/><rect x="0" y="50" width="10" height="10" fill="rgb(56,56,53)"/><rect x="10" y="50" width="10" height="10" fill="rgb(51,52,50)"/><rect x="20" y="50" width="10" height="10" fill="rgb(53,53,50)"/><rect x="30" y="50" width="10" height="10" fill="rgb(50,50,48)"/><rect x="40" y="50" width="10" height="10" fill="rgb(49,50,48)"/><rect x="50" y="50" width="10" height="10" fill="rgb(46,47,46)"/><rect x="60" y="50" width="10" height="10" fill="rgb(48,49,46)"/><rect x="70" y="50" width="10" height="10" fill="rgb(48,49,47)"/><rect x="80" y="50" width="10" height="10" fill="rgb(48,49,47)"/><rect x="90" y="50" width="10" height="10" fill="rgb(49,50,47)"/><rect x="0" y="60" width="10" height="10" fill="rgb(50,50,48)"/><rect x="10" y="60" width="10" height="10" fill="rgb(49,50,47)"/><rect x="20" y="60" width="10" height="10" fill="rgb(49,49,47)"/><rect x="30" y="60" width="10" height="10" fill="rgb(48,49,47)"/><rect x="40" y="60" width="10" height="10" fill="rgb(48,48,46)"/><rect x="50" y="60" width="10" height="10" fill="rgb(49,50,48)"/><rect x="60" y="60" width="10" height="10" fill="rgb(48,49,46)"/><rect x="70" y="60" width="10" height="10" fill="rgb(49,49,47)"/><rect x="80" y="60" width="10" height="10" fill="rgb(47,48,46)"/><rect x="90" y="60" width="10" height="10" fill="rgb(47,47,45)"/><rect x="0" y="70" width="10" height="10" fill="rgb(47,47,45)"/><rect x="10" y="70" width="10" height="10" fill="rgb(47,47,45)"/><rect x="20" y="70" width="10" height="10" fill="rgb(43,44,42)"/><rect x="30" y="70" width="10" height="10" fill="rgb(45,45,43)"/><rect x="40" y="70" width="10" height="10" fill="rgb(44,44,43)"/><rect x="50" y="70" width="10" height="10" fill="rgb(44,44,42)"/><rect x="60" y="70" width="10" height="10" fill="rgb(45,45,43)"/><rect x="70" y="70" width="10" height="10" fill="rgb(43,44,42)"/><rect x="80" y="70" width="10" height="10" fill="rgb(44,44,42)"/><rect x="90" y="70" width="10" height="10" fill="rgb(45,45,43)"/><rect x="0" y="80" width="10" height="10" fill="rgb(46,47,44)"/><rect x="10" y="80" width="10" height="10" fill="rgb(44,45,43)"/><rect x="20" y="80" width="10" height="10" fill="rgb(42,43,42)"/><rect x="30" y="80" width="10" height="10" fill="rgb(40,41,40)"/><rect x="40" y="80" width="10" height="10" fill="rgb(39,40,40)"/><rect x="50" y="80" width="10" height="10" fill="rgb(39,40,40)"/><rect x="60" y="80" width="10" height="10" fill="rgb(40,41,41)"/><rect x="70" y="80" width="10" height="10" fill="rgb(39,40,40)"/><rect x="80" y="80" width="10" height="10" fill="rgb(38,40,40)"/><rect x="90" y="80" width="10" height="10" fill="rgb(37,38,39)"/><rect x="0" y="90" width="10" height="10" fill="rgb(38,39,39)"/><rect x="10" y="90" width="10" height="10" fill="rgb(36,38,38)"/><rect x="20" y="90" width="10" height="10" fill="rgb(36,37,38)"/><rect x="30" y="90" width="10" height="10" fill="rgb(37,38,38)"/><rect x="40" y="90" width="10" height="10" fill="rgb(40,41,40)"/><rect x="50" y="90" width="10" height="10" fill="rgb(42,43,41)"/><rect x="60" y="90" width="10" height="10" fill="rgb(44,44,42)"/><rect x="70" y="90" width="10" height="10" fill="rgb(41,42,41)"/><rect x="80" y="90" width="10" height="10" fill="rgb(43,43,42)"/><rect x="90" y="90" width="10" height="10" fill="rgb(44,44,42)"/><rect x="0" y="100" width="10" height="10" fill="rgb(45,45,43)"/><rect x="10" y="100" width="10" height="10" fill="rgb(46,46,44)"/><rect x="20" y="100" width="10" height="10" fill="rgb(47,47,44)"/><rect x="30" y="100" width="10" height="10" fill="rgb(47,47,45)"/><rect x="40" y="100" width="10" height="10" fill="rgb(46,46,45)"/><rect x="50" y="100" width="10" height="10" fill="rgb(46,47,47)"/><rect x="60" y="100" width="10" height="10" fill="rgb(48,49,50)"/><rect x="70" y="100" width="10" height="10" fill="rgb(49,51,56)"/><rect x="80" y="100" width="10" height="10" fill="rgb(52,58,71)"/><rect x="90" y="100" width="10" height="10" fill="rgb(58,70,93)"/><rect x="0" y="110" width="10" height="10" fill="rgb(74,96,139)"/><rect x="10" y="110" width="10" height="10" fill="rgb(87,110,153)"/><rect x="20" y="110" width="10" height="10" fill="rgb(98,125,170)"/><rect x="30" y="110" width="10" height="10" fill="rgb(116,140,180)"/><rect x="40" y="110" width="10" height="10" fill="rgb(123,144,177)"/><rect x="50" y="110" width="10" height="10" fill="rgb(123,147,177)"/><rect x="60" y="110" width="10" height="10" fill="rgb(126,150,180)"/><rect x="70" y="110" width="10" height="10" fill="rgb(133,156,184)"/><rect x="80" y="110" width="10" height="10" fill="rgb(141,158,182)"/><rect x="90" y="110" width="10" height="10" fill="rgb(156,157,163)"/><rect x="0" y="120" width="10" height="10" fill="rgb(155,156,164)"/><rect x="10" y="120" width="10" height="10" fill="rgb(160,160,164)"/><rect x="20" y="120" width="10" height="10" fill="rgb(158,159,163)"/><rect x="30" y="120" width="10" height="10" fill="rgb(159,160,163)"/><rect x="40" y="120" width="10" height="10" fill="rgb(156,159,164)"/><rect x="50" y="120" width="10" height="10" fill="rgb(162,162,167)"/><rect x="60" y="120" width="10" height="10" fill="rgb(166,166,169)"/><rect x="70" y="120" width="10" height="10" fill="rgb(159,158,160)"/><rect x="80" y="120" width="10" height="10" fill="rgb(163,163,164)"/><rect x="90" y="120" width="10" height="10" fill="rgb(162,162,163)"/><rect x="0" y="130" width="10" height="10" fill="rgb(173,173,173)"/><rect x="10" y="130" width="10" height="10" fill="rgb(175,175,176)"/><rect x="20" y="130" width="10" height="10" fill="rgb(177,177,178)"/><rect x="30" y="130" width="10" height="10" fill="rgb(176,176,178)"/><rect x="40" y="130" width="10" height="10" fill="rgb(172,172,174)"/><rect x="50" y="130" width="10" height="10" fill="rgb(153,153,154)"/><rect x="60" y="130" width="10" height="10" fill="rgb(162,162,163)"/><rect x="70" y="130" width="10" height="10" fill="rgb(166,167,168)"/><rect x="80" y="130" width="10" height="10" fill="rgb(149,150,154)"/><rect x="90" y="130" width="10" height="10" fill="rgb(150,152,158)"/><rect x="0" y="140" width="10" height="10" fill="rgb(161,161,167)"/><rect x="10" y="140" width="10" height="10" fill="rgb(157,159,164)"/><rect x="20" y="140" width="10" height="10" fill="rgb(160,160,165)"/><rect x="30" y="140" width="10" height="10" fill="rgb(157,158,163)"/><rect x="40" y="140" width="10" height="10" fill="rgb(153,153,155)"/><rect x="50" y="140" width="10" height="10" fill="rgb(159,159,163)"/><rect x="60" y="140" width="10" height="10" fill="rgb(164,164,167)"/><rect x="70" y="140" width="10" height="10" fill="rgb(163,162,163)"/><rect x="80" y="140" width="10" height="10" fill="rgb(155,155,158)"/><rect x="90" y="140" width="10" height="10" fill="rgb(145,146,152)"/><rect x="0" y="150" width="10" height="10" fill="rgb(160,161,164)"/><rect x="10" y="150" width="10" height="10" fill="rgb(163,163,166)"/><rect x="20" y="150" width="10" height="10" fill="rgb(165,165,168)"/><rect x="30" y="150" width="10" height="10" fill="rgb(157,157,160)"/><rect x="40" y="150" width="10" height="10" fill="rgb(167,167,168)"/><rect x="50" y="150" width="10" height="10" fill="rgb(170,170,172)"/><rect x="60" y="150" width="10" height="10" fill="rgb(164,163,166)"/><rect x="70" y="150" width="10" height="10" fill="rgb(169,168,171)"/><rect x="80" y="150" width="10" height="10" fill="rgb(155,155,158)"/><rect x="90" y="150" width="10" height="10" fill="rgb(154,154,158)"/><rect x="0" y="160" width="10" height="10" fill="rgb(150,151,156)"/><rect x="10" y="160" width="10" height="10" fill="rgb(157,157,160)"/><rect x="20" y="160" width="10" height="10" fill="rgb(167,167,169)"/><rect x="30" y="160" width="10" height="10" fill="rgb(162,162,164)"/><rect x="40" y="160" width="10" height="10" fill="rgb(157,158,160)"/><rect x="50" y="160" width="10" height="10" fill="rgb(170,170,171)"/><rect x="60" y="160" width="10" height="10" fill="rgb(167,166,168)"/><rect x="70" y="160" width="10" height="10" fill="rgb(177,176,176)"/><rect x="80" y="160" width="10" height="10" fill="rgb(162,162,162)"/><rect x="90" y="160" width="10" height="10" fill="rgb(156,156,158)"/><rect x="0" y="170" width="10" height="10" fill="rgb(166,165,166)"/><rect x="10" y="170" width="10" height="10" fill="rgb(165,164,165)"/><rect x="20" y="170" width="10" height="10" fill="rgb(165,165,166)"/><rect x="30" y="170" width="10" height="10" fill="rgb(169,169,171)"/><rect x="40" y="170" width="10" height="10" fill="rgb(169,169,170)"/><rect x="50" y="170" width="10" height="10" fill="rgb(170,170,171)"/><rect x="60" y="170" width="10" height="10" fill="rgb(170,170,172)"/><rect x="70" y="170" width="10" height="10" fill="rgb(177,176,177)"/><rect x="80" y="170" width="10" height="10" fill="rgb(178,178,179)"/><rect x="90" y="170" width="10" height="10" fill="rgb(176,176,179)"/><rect x="0" y="180" width="10" height="10" fill="rgb(172,173,174)"/><rect x="10" y="180" width="10" height="10" fill="rgb(169,169,172)"/><rect x="20" y="180" width="10" height="10" fill="rgb(172,173,174)"/><rect x="30" y="180" width="10" height="10" fill="rgb(174,174,175)"/><rect x="40" y="180" width="10" height="10" fill="rgb(175,175,176)"/><rect x="50" y="180" width="10" height="10" fill="rgb(177,177,177)"/><rect x="60" y="180" width="10" height="10" fill="rgb(178,178,178)"/><rect x="70" y="180" width="10" height="10" fill="rgb(180,180,179)"/><rect x="80" y="180" width="10" height="10" fill="rgb(180,179,179)"/><rect x="90" y="180" width="10" height="10" fill="rgb(177,177,177)"/><rect x="0" y="190" width="10" height="10" fill="rgb(176,176,176)"/><rect x="10" y="190" width="10" height="10" fill="rgb(174,174,174)"/><rect x="20" y="190" width="10" height="10" fill="rgb(174,174,174)"/><rect x="30" y="190" width="10" height="10" fill="rgb(173,172,173)"/><rect x="40" y="190" width="10" height="10" fill="rgb(171,170,171)"/><rect x="50" y="190" width="10" height="10" fill="rgb(170,169,170)"/><rect x="60" y="190" width="10" height="10" fill="rgb(165,166,166)"/><rect x="70" y="190" width="10" height="10" fill="rgb(163,163,164)"/><rect x="80" y="190" width="10" height="10" fill="rgb(162,162,162)"/><rect x="90" y="190" width="10" height="10" fill="rgb(158,158,160)"/><rect x="0" y="200" width="10" height="10" fill="rgb(152,152,154)"/><rect x="10" y="200" width="10" height="10" fill="rgb(144,145,146)"/><rect x="20" y="200" width="10" height="10" fill="rgb(142,142,144)"/><rect x="30" y="200" width="10" height="10" fill="rgb(137,137,139)"/><rect x="40" y="200" width="10" height="10" fill="rgb(132,132,135)"/><rect x="50" y="200" width="10" height="10" fill="rgb(132,132,135)"/><rect x="60" y="200" width="10" height="10" fill="rgb(138,138,139)"/><rect x="70" y="200" width="10" height="10" fill="rgb(142,142,141)"/><rect x="80" y="200" width="10" height="10" fill="rgb(138,138,139)"/><rect x="90" y="200" width="10" height="10" fill="rgb(136,135,137)"/><rect x="0" y="210" width="10" height="10" fill="rgb(137,136,137)"/><rect x="10" y="210" width="10" height="10" fill="rgb(134,134,134)"/><rect x="20" y="210" width="10" height="10" fill="rgb(131,131,132)"/><rect x="30" y="210" width="10" height="10" fill="rgb(131,131,133)"/><rect x="40" y="210" width="10" height="10" fill="rgb(126,126,130)"/><rect x="50" y="210" width="10" height="10" fill="rgb(126,126,129)"/><rect x="60" y="210" width="10" height="10" fill="rgb(126,125,128)"/><rect x="70" y="210" width="10" height="10" fill="rgb(127,127,129)"/><rect x="80" y="210" width="10" height="10" fill="rgb(128,127,128)"/><rect x="90" y="210" width="10" height="10" fill="rgb(128,128,130)"/><rect x="0" y="220" width="10" height="10" fill="rgb(130,130,131)"/><rect x="10" y="220" width="10" height="10" fill="rgb(133,134,135)"/><rect x="20" y="220" width="10" height="10" fill="rgb(134,134,135)"/><rect x="30" y="220" width="10" height="10" fill="rgb(138,138,138)"/><rect x="40" y="220" width="10" height="10" fill="rgb(147,147,147)"/><rect x="50" y="220" width="10" height="10" fill="rgb(150,149,149)"/><rect x="60" y="220" width="10" height="10" fill="rgb(155,155,155)"/><rect x="70" y="220" width="10" height="10" fill="rgb(160,160,160)"/><rect x="80" y="220" width="10" height="10" fill="rgb(167,167,167)"/><rect x="90" y="220" width="10" height="10" fill="rgb(177,176,175)"/><rect x="0" y="230" width="10" height="10" fill="rgb(179,177,175)"/><rect x="10" y="230" width="10" height="10" fill="rgb(180,178,175)"/><rect x="20" y="230" width="10" height="10" fill="rgb(178,175,172)"/><rect x="30" y="230" width="10" height="10" fill="rgb(169,167,165)"/><rect x="40" y="230" width="10" height="10" fill="rgb(162,160,158)"/><rect x="50" y="230" width="10" height="10" fill="rgb(159,156,155)"/><rect x="60" y="230" width="10" height="10" fill="rgb(162,159,156)"/><rect x="70" y="230" width="10" height="10" fill="rgb(159,157,155)"/><rect x="80" y="230" width="10" height="10" fill="rgb(155,153,152)"/><rect x="90" y="230" width="10" height="10" fill="rgb(151,148,148)"/><rect x="0" y="240" width="10" height="10" fill="rgb(144,143,144)"/><rect x="10" y="240" width="10" height="10" fill="rgb(142,141,142)"/><rect x="20" y="240" width="10" height="10" fill="rgb(142,141,142)"/><rect x="30" y="240" width="10" height="10" fill="rgb(141,140,140)"/><rect x="40" y="240" width="10" height="10" fill="rgb(144,143,142)"/><rect x="50" y="240" width="10" height="10" fill="rgb(143,142,141)"/><rect x="60" y="240" width="10" height="10" fill="rgb(140,139,138)"/><rect x="70" y="240" width="10" height="10" fill="rgb(142,141,141)"/><rect x="80" y="240" width="10" height="10" fill="rgb(141,140,140)"/><rect x="90" y="240" width="10" height="10" fill="rgb(140,139,141)"/><rect x="0" y="250" width="10" height="10" fill="rgb(137,137,139)"/><rect x="10" y="250" width="10" height="10" fill="rgb(134,134,136)"/><rect x="20" y="250" width="10" height="10" fill="rgb(134,134,138)"/><rect x="30" y="250" width="10" height="10" fill="rgb(134,134,138)"/><rect x="40" y="250" width="10" height="10" fill="rgb(137,137,140)"/><rect x="50" y="250" width="10" height="10" fill="rgb(167,167,169)"/><rect x="60" y="250" width="10" height="10" fill="rgb(171,171,172)"/><rect x="70" y="250" width="10" height="10" fill="rgb(157,157,164)"/><rect x="80" y="250" width="10" height="10" fill="rgb(158,158,159)"/><rect x="90" y="250" width="10" height="10" fill="rgb(157,158,163)"/><rect x="0" y="260" width="10" height="10" fill="rgb(139,138,140)"/><rect x="10" y="260" width="10" height="10" fill="rgb(138,137,138)"/><rect x="20" y="260" width="10" height="10" fill="rgb(135,134,136)"/><rect x="30" y="260" width="10" height="10" fill="rgb(131,131,133)"/><rect x="40" y="260" width="10" height="10" fill="rgb(131,132,135)"/><rect x="50" y="260" width="10" height="10" fill="rgb(131,133,137)"/><rect x="60" y="260" width="10" height="10" fill="rgb(130,130,135)"/><rect x="70" y="260" width="10" height="10" fill="rgb(136,137,142)"/><rect x="80" y="260" width="10" height="10" fill="rgb(130,132,140)"/><rect x="90" y="260" width="10" height="10" fill="rgb(129,131,139)"/><rect x="0" y="270" width="10" height="10" fill="rgb(130,132,139)"/><rect x="10" y="270" width="10" height="10" fill="rgb(138,139,146)"/><rect x="20" y="270" width="10" height="10" fill="rgb(142,144,150)"/><rect x="30" y="270" width="10" height="10" fill="rgb(143,144,148)"/><rect x="40" y="270" width="10" height="10" fill="rgb(151,151,150)"/><rect x="50" y="270" width="10" height="10" fill="rgb(147,145,146)"/><rect x="60" y="270" width="10" height="10" fill="rgb(139,138,138)"/><rect x="70" y="270" width="10" height="10" fill="rgb(137,137,137)"/><rect x="80" y="270" width="10" height="10" fill="rgb(140,139,140)"/><rect x="90" y="270" width="10" height="10" fill="rgb(137,136,138)"/><rect x="0" y="280" width="10" height="10" fill="rgb(137,139,142)"/><rect x="10" y="280" width="10" height="10" fill="rgb(135,139,143)"/><rect x="20" y="280" width="10" height="10" fill="rgb(139,142,148)"/><rect x="30" y="280" width="10" height="10" fill="rgb(143,147,154)"/><rect x="40" y="280" width="10" height="10" fill="rgb(142,144,148)"/><rect x="50" y="280" width="10" height="10" fill="rgb(140,140,144)"/><rect x="60" y="280" width="10" height="10" fill="rgb(137,140,147)"/><rect x="70" y="280" width="10" height="10" fill="rgb(132,136,144)"/><rect x="80" y="280" width="10" height="10" fill="rgb(131,136,143)"/><rect x="90" y="280" width="10" height="10" fill="rgb(133,137,144)"/><rect x="0" y="290" width="10" height="10" fill="rgb(145,146,148)"/><rect x="10" y="290" width="10" height="10" fill="rgb(142,145,148)"/><rect x="20" y="290" width="10" height="10" fill="rgb(141,144,145)"/><rect x="30" y="290" width="10" height="10" fill="rgb(144,146,146)"/><rect x="40" y="290" width="10" height="10" fill="rgb(139,147,150)"/><rect x="50" y="290" width="10" height="10" fill="rgb(149,152,155)"/><rect x="60" y="290" width="10" height="10" fill="rgb(149,153,160)"/><rect x="70" y="290" width="10" height="10" fill="rgb(147,152,164)"/><rect x="80" y="290" width="10" height="10" fill="rgb(137,151,174)"/><rect x="90" y="290" width="10" height="10" fill="rgb(113,131,163)"/><rect x="0" y="300" width="10" height="10" fill="rgb(102,125,164)"/><rect x="10" y="300" width="10" height="10" fill="rgb(88,114,157)"/><rect x="20" y="300" width="10" height="10" fill="rgb(80,105,151)"/><rect x="30" y="300" width="10" height="10" fill="rgb(65,90,137)"/><rect x="40" y="300" width="10" height="10" fill="rgb(48,75,127)"/><rect x="50" y="300" width="10" height="10" fill="rgb(44,65,109)"/><rect x="60" y="300" width="10" height="10" fill="rgb(41,57,89)"/><rect x="70" y="300" width="10" height="10" fill="rgb(39,48,69)"/><rect x="80" y="300" width="10" height="10" fill="rgb(37,40,51)"/><rect x="90" y="300" width="10" height="10" fill="rgb(37,39,46)"/><rect x="0" y="310" width="10" height="10" fill="rgb(38,39,43)"/><rect x="10" y="310" width="10" height="10" fill="rgb(38,39,42)"/><rect x="20" y="310" width="10" height="10" fill="rgb(38,39,41)"/><rect x="30" y="310" width="10" height="10" fill="rgb(38,39,41)"/><rect x="40" y="310" width="10" height="10" fill="rgb(37,39,41)"/><rect x="50" y="310" width="10" height="10" fill="rgb(38,39,41)"/><rect x="60" y="310" width="10" height="10" fill="rgb(38,39,41)"/><rect x="70" y="310" width="10" height="10" fill="rgb(38,39,41)"/><rect x="80" y="310" width="10" height="10" fill="rgb(38,39,41)"/><rect x="90" y="310" width="10" height="10" fill="rgb(38,39,41)"/><rect x="0" y="320" width="10" height="10" fill="rgb(38,39,42)"/><rect x="10" y="320" width="10" height="10" fill="rgb(38,39,41)"/><rect x="20" y="320" width="10" height="10" fill="rgb(39,40,42)"/><rect x="30" y="320" width="10" height="10" fill="rgb(38,40,41)"/><rect x="40" y="320" width="10" height="10" fill="rgb(38,40,42)"/><rect x="50" y="320" width="10" height="10" fill="rgb(38,39,41)"/><rect x="60" y="320" width="10" height="10" fill="rgb(38,39,41)"/><rect x="70" y="320" width="10" height="10" fill="rgb(39,40,42)"/><rect x="80" y="320" width="10" height="10" fill="rgb(38,39,41)"/><rect x="90" y="320" width="10" height="10" fill="rgb(38,39,41)"/><rect x="0" y="330" width="10" height="10" fill="rgb(38,39,41)"/><rect x="10" y="330" width="10" height="10" fill="rgb(38,39,41)"/><rect x="20" y="330" width="10" height="10" fill="rgb(38,39,40)"/><rect x="30" y="330" width="10" height="10" fill="rgb(38,39,41)"/><rect x="40" y="330" width="10" height="10" fill="rgb(38,39,41)"/><rect x="50" y="330" width="10" height="10" fill="rgb(38,39,41)"/><rect x="60" y="330" width="10" height="10" fill="rgb(38,39,41)"/><rect x="70" y="330" width="10" height="10" fill="rgb(38,40,41)"/><rect x="80" y="330" width="10" height="10" fill="rgb(38,39,41)"/><rect x="90" y="330" width="10" height="10" fill="rgb(38,40,41)"/><rect x="0" y="340" width="10" height="10" fill="rgb(38,40,41)"/><rect x="10" y="340" width="10" height="10" fill="rgb(38,39,41)"/><rect x="20" y="340" width="10" height="10" fill="rgb(38,39,41)"/><rect x="30" y="340" width="10" height="10" fill="rgb(38,39,41)"/><rect x="40" y="340" width="10" height="10" fill="rgb(38,39,41)"/><rect x="50" y="340" width="10" height="10" fill="rgb(38,39,40)"/><rect x="60" y="340" width="10" height="10" fill="rgb(37,39,41)"/><rect x="70" y="340" width="10" height="10" fill="rgb(38,39,41)"/><rect x="80" y="340" width="10" height="10" fill="rgb(38,39,41)"/><rect x="90" y="340" width="10" height="10" fill="rgb(38,39,41)"/><rect x="0" y="350" width="10" height="10" fill="rgb(38,39,41)"/><rect x="10" y="350" width="10" height="10" fill="rgb(38,39,41)"/><rect x="20" y="350" width="10" height="10" fill="rgb(38,39,40)"/><rect x="30" y="350" width="10" height="10" fill="rgb(38,39,40)"/><rect x="40" y="350" width="10" height="10" fill="rgb(37,39,40)"/><rect x="50" y="350" width="10" height="10" fill="rgb(37,39,40)"/><rect x="60" y="350" width="10" height="10" fill="rgb(38,39,40)"/><rect x="70" y="350" width="10" height="10" fill="rgb(37,39,40)"/><rect x="80" y="350" width="10" height="10" fill="rgb(38,39,41)"/><rect x="90" y="350" width="10" height="10" fill="rgb(38,39,40)"/><rect x="0" y="360" width="10" height="10" fill="rgb(38,39,40)"/><rect x="10" y="360" width="10" height="10" fill="rgb(38,39,40)"/><rect x="20" y="360" width="10" height="10" fill="rgb(38,39,40)"/><rect x="30" y="360" width="10" height="10" fill="rgb(38,39,40)"/><rect x="40" y="360" width="10" height="10" fill="rgb(38,40,41)"/><rect x="50" y="360" width="10" height="10" fill="rgb(38,40,41)"/><rect x="60" y="360" width="10" height="10" fill="rgb(38,40,41)"/><rect x="70" y="360" width="10" height="10" fill="rgb(38,39,41)"/><rect x="80" y="360" width="10" height="10" fill="rgb(38,39,41)"/><rect x="90" y="360" width="10" height="10" fill="rgb(38,40,41)"/><rect x="0" y="370" width="10" height="10" fill="rgb(38,39,41)"/><rect x="10" y="370" width="10" height="10" fill="rgb(38,40,41)"/><rect x="20" y="370" width="10" height="10" fill="rgb(38,40,41)"/><rect x="30" y="370" width="10" height="10" fill="rgb(39,40,41)"/><rect x="40" y="370" width="10" height="10" fill="rgb(38,39,41)"/><rect x="50" y="370" width="10" height="10" fill="rgb(38,39,40)"/><rect x="60" y="370" width="10" height="10" fill="rgb(38,39,40)"/><rect x="70" y="370" width="10" height="10" fill="rgb(38,39,40)"/><rect x="80" y="370" width="10" height="10" fill="rgb(38,39,40)"/><rect x="90" y="370" width="10" height="10" fill="rgb(38,39,40)"/><rect x="0" y="380" width="10" height="10" fill="rgb(38,40,41)"/><rect x="10" y="380" width="10" height="10" fill="rgb(38,39,41)"/><rect x="20" y="380" width="10" height="10" fill="rgb(38,40,40)"/><rect x="30" y="380" width="10" height="10" fill="rgb(39,41,42)"/><rect x="40" y="380" width="10" height="10" fill="rgb(38,40,41)"/><rect x="50" y="380" width="10" height="10" fill="rgb(38,40,41)"/><rect x="60" y="380" width="10" height="10" fill="rgb(38,40,41)"/><rect x="70" y="380" width="10" height="10" fill="rgb(38,40,41)"/><rect x="80" y="380" width="10" height="10" fill="rgb(39,40,41)"/><rect x="90" y="380" width="10" height="10" fill="rgb(38,40,41)"/><rect x="0" y="390" width="10" height="10" fill="rgb(38,40,41)"/><rect x="10" y="390" width="10" height="10" fill="rgb(38,40,41)"/><rect x="20" y="390" width="10" height="10" fill="rgb(38,40,41)"/><rect x="30" y="390" width="10" height="10" fill="rgb(38,40,41)"/><rect x="40" y="390" width="10" height="10" fill="rgb(38,40,41)"/><rect x="50" y="390" width="10" height="10" fill="rgb(39,40,42)"/><rect x="60" y="390" width="10" height="10" fill="rgb(39,40,42)"/><rect x="70" y="390" width="10" height="10" fill="rgb(39,40,44)"/><rect x="80" y="390" width="10" height="10" fill="rgb(39,41,46)"/><rect x="90" y="390" width="10" height="10" fill="rgb(41,44,56)"/><rect x="0" y="400" width="10" height="10" fill="rgb(45,54,75)"/><rect x="10" y="400" width="10" height="10" fill="rgb(51,66,95)"/><rect x="20" y="400" width="10" height="10" fill="rgb(64,89,141)"/><rect x="30" y="400" width="10" height="10" fill="rgb(79,106,155)"/><rect x="40" y="400" width="10" height="10" fill="rgb(93,122,177)"/><rect x="50" y="400" width="10" height="10" fill="rgb(106,134,182)"/><rect x="60" y="400" width="10" height="10" fill="rgb(116,145,186)"/><rect x="70" y="400" width="10" height="10" fill="rgb(123,151,188)"/><rect x="80" y="400" width="10" height="10" fill="rgb(128,155,188)"/><rect x="90" y="400" width="10" height="10" fill="rgb(133,156,187)"/><rect x="0" y="410" width="10" height="10" fill="rgb(132,155,185)"/><rect x="10" y="410" width="10" height="10" fill="rgb(131,153,180)"/><rect x="20" y="410" width="10" height="10" fill="rgb(139,151,169)"/><rect x="30" y="410" width="10" height="10" fill="rgb(127,151,179)"/><rect x="40" y="410" width="10" height="10" fill="rgb(130,149,173)"/><rect x="50" y="410" width="10" height="10" fill="rgb(135,149,170)"/><rect x="60" y="410" width="10" height="10" fill="rgb(144,156,172)"/><rect x="70" y="410" width="10" height="10" fill="rgb(145,153,168)"/><rect x="80" y="410" width="10" height="10" fill="rgb(148,155,167)"/><rect x="90" y="410" width="10" height="10" fill="rgb(149,157,168)"/><rect x="0" y="420" width="10" height="10" fill="rgb(152,159,170)"/><rect x="10" y="420" width="10" height="10" fill="rgb(153,160,170)"/><rect x="20" y="420" width="10" height="10" fill="rgb(153,160,169)"/><rect x="30" y="420" width="10" height="10" fill="rgb(157,164,173)"/><rect x="40" y="420" width="10" height="10" fill="rgb(162,167,174)"/><rect x="50" y="420" width="10" height="10" fill="rgb(165,169,174)"/><rect x="60" y="420" width="10" height="10" fill="rgb(166,170,174)"/><rect x="70" y="420" width="10" height="10" fill="rgb(171,174,176)"/><rect x="80" y="420" width="10" height="10" fill="rgb(172,174,175)"/><rect x="90" y="420" width="10" height="10" fill="rgb(176,176,177)"/><rect x="0" y="430" width="10" height="10" fill="rgb(178,179,181)"/><rect x="10" y="430" width="10" height="10" fill="rgb(177,178,180)"/><rect x="20" y="430" width="10" height="10" fill="rgb(176,176,177)"/><rect x="30" y="430" width="10" height="10" fill="rgb(183,183,184)"/><rect x="40" y="430" width="10" height="10" fill="rgb(187,188,187)"/><rect x="50" y="430" width="10" height="10" fill="rgb(188,188,188)"/><rect x="60" y="430" width="10" height="10" fill="rgb(187,188,189)"/><rect x="70" y="430" width="10" height="10" fill="rgb(187,187,187)"/><rect x="80" y="430" width="10" height="10" fill="rgb(187,187,187)"/><rect x="90" y="430" width="10" height="10" fill="rgb(184,183,183)"/><rect x="0" y="440" width="10" height="10" fill="rgb(173,174,178)"/><rect x="10" y="440" width="10" height="10" fill="rgb(171,173,177)"/><rect x="20" y="440" width="10" height="10" fill="rgb(171,172,176)"/><rect x="30" y="440" width="10" height="10" fill="rgb(172,172,176)"/><rect x="40" y="440" width="10" height="10" fill="rgb(169,172,177)"/><rect x="50" y="440" width="10" height="10" fill="rgb(169,173,178)"/><rect x="60" y="440" width="10" height="10" fill="rgb(169,172,178)"/><rect x="70" y="440" width="10" height="10" fill="rgb(169,173,177)"/><rect x="80" y="440" width="10" height="10" fill="rgb(170,172,177)"/><rect x="90" y="440" width="10" height="10" fill="rgb(174,175,179)"/><rect x="0" y="450" width="10" height="10" fill="rgb(178,179,180)"/><rect x="10" y="450" width="10" height="10" fill="rgb(179,180,183)"/><rect x="20" y="450" width="10" height="10" fill="rgb(181,181,184)"/><rect x="30" y="450" width="10" height="10" fill="rgb(180,182,185)"/><rect x="40" y="450" width="10" height="10" fill="rgb(180,182,185)"/><rect x="50" y="450" width="10" height="10" fill="rgb(180,182,184)"/><rect x="60" y="450" width="10" height="10" fill="rgb(180,181,183)"/><rect x="70" y="450" width="10" height="10" fill="rgb(182,181,184)"/><rect x="80" y="450" width="10" height="10" fill="rgb(181,181,181)"/><rect x="90" y="450" width="10" height="10" fill="rgb(182,181,181)"/><rect x="0" y="460" width="10" height="10" fill="rgb(184,184,182)"/><rect x="10" y="460" width="10" height="10" fill="rgb(185,184,183)"/><rect x="20" y="460" width="10" height="10" fill="rgb(186,184,182)"/><rect x="30" y="460" width="10" height="10" fill="rgb(187,186,184)"/><rect x="40" y="460" width="10" height="10" fill="rgb(188,186,184)"/><rect x="50" y="460" width="10" height="10" fill="rgb(185,184,182)"/><rect x="60" y="460" width="10" height="10" fill="rgb(184,183,182)"/><rect x="70" y="460" width="10" height="10" fill="rgb(184,183,183)"/><rect x="80" y="460" width="10" height="10" fill="rgb(186,184,183)"/><rect x="90" y="460" width="10" height="10" fill="rgb(187,185,185)"/><rect x="0" y="470" width="10" height="10" fill="rgb(187,185,185)"/><rect x="10" y="470" width="10" height="10" fill="rgb(185,185,184)"/><rect x="20" y="470" width="10" height="10" fill="rgb(186,185,184)"/><rect x="30" y="470" width="10" height="10" fill="rgb(181,180,179)"/><rect x="40" y="470" width="10" height="10" fill="rgb(180,180,180)"/><rect x="50" y="470" width="10" height="10" fill="rgb(181,180,181)"/><rect x="60" y="470" width="10" height="10" fill="rgb(181,181,181)"/><rect x="70" y="470" width="10" height="10" fill="rgb(181,181,181)"/><rect x="80" y="470" width="10" height="10" fill="rgb(180,180,180)"/><rect x="90" y="470" width="10" height="10" fill="rgb(181,180,180)"/><rect x="0" y="480" width="10" height="10" fill="rgb(180,179,180)"/><rect x="10" y="480" width="10" height="10" fill="rgb(179,178,179)"/><rect x="20" y="480" width="10" height="10" fill="rgb(179,178,179)"/><rect x="30" y="480" width="10" height="10" fill="rgb(177,177,178)"/><rect x="40" y="480" width="10" height="10" fill="rgb(177,177,179)"/><rect x="50" y="480" width="10" height="10" fill="rgb(178,178,178)"/><rect x="60" y="480" width="10" height="10" fill="rgb(177,177,178)"/><rect x="70" y="480" width="10" height="10" fill="rgb(177,177,177)"/><rect x="80" y="480" width="10" height="10" fill="rgb(177,177,178)"/><rect x="90" y="480" width="10" height="10" fill="rgb(178,178,177)"/><rect x="0" y="490" width="10" height="10" fill="rgb(178,177,177)"/><rect x="10" y="490" width="10" height="10" fill="rgb(177,177,177)"/><rect x="20" y="490" width="10" height="10" fill="rgb(177,177,176)"/><rect x="30" y="490" width="10" height="10" fill="rgb(176,176,174)"/><rect x="40" y="490" width="10" height="10" fill="rgb(176,176,175)"/><rect x="50" y="490" width="10" height="10" fill="rgb(175,175,174)"/><rect x="60" y="490" width="10" height="10" fill="rgb(174,174,173)"/><rect x="70" y="490" width="10" height="10" fill="rgb(173,172,172)"/><rect x="80" y="490" width="10" height="10" fill="rgb(170,170,169)"/><rect x="90" y="490" width="10" height="10" fill="rgb(171,170,170)"/><rect x="0" y="500" width="10" height="10" fill="rgb(171,170,170)"/><rect x="10" y="500" width="10" height="10" fill="rgb(170,170,169)"/><rect x="20" y="500" width="10" height="10" fill="rgb(168,167,167)"/><rect x="30" y="500" width="10" height="10" fill="rgb(169,169,169)"/><rect x="40" y="500" width="10" height="10" fill="rgb(168,167,166)"/><rect x="50" y="500" width="10" height="10" fill="rgb(168,168,168)"/><rect x="60" y="500" width="10" height="10" fill="rgb(166,165,166)"/><rect x="70" y="500" width="10" height="10" fill="rgb(167,166,167)"/><rect x="80" y="500" width="10" height="10" fill="rgb(167,167,168)"/><rect x="90" y="500" width="10" height="10" fill="rgb(163,164,164)"/><rect x="0" y="510" width="10" height="10" fill="rgb(163,163,165)"/><rect x="10" y="510" width="10" height="10" fill="rgb(161,161,162)"/><rect x="20" y="510" width="10" height="10" fill="rgb(160,160,161)"/><rect x="30" y="510" width="10" height="10" fill="rgb(159,158,159)"/><rect x="40" y="510" width="10" height="10" fill="rgb(159,158,159)"/><rect x="50" y="510" width="10" height="10" fill="rgb(157,156,157)"/><rect x="60" y="510" width="10" height="10" fill="rgb(157,156,156)"/><rect x="70" y="510" width="10" height="10" fill="rgb(155,154,154)"/><rect x="80" y="510" width="10" height="10" fill="rgb(152,152,153)"/><rect x="90" y="510" width="10" height="10" fill="rgb(151,151,152)"/><rect x="0" y="520" width="10" height="10" fill="rgb(149,149,152)"/><rect x="10" y="520" width="10" height="10" fill="rgb(147,147,150)"/><rect x="20" y="520" width="10" height="10" fill="rgb(146,146,148)"/><rect x="30" y="520" width="10" height="10" fill="rgb(146,146,147)"/><rect x="40" y="520" width="10" height="10" fill="rgb(146,146,147)"/><rect x="50" y="520" width="10" height="10" fill="rgb(146,145,145)"/><rect x="60" y="520" width="10" height="10" fill="rgb(144,143,143)"/><rect x="70" y="520" width="10" height="10" fill="rgb(143,143,143)"/><rect x="80" y="520" width="10" height="10" fill="rgb(138,138,138)"/><rect x="90" y="520" width="10" height="10" fill="rgb(139,139,140)"/><rect x="0" y="530" width="10" height="10" fill="rgb(136,136,141)"/><rect x="10" y="530" width="10" height="10" fill="rgb(140,141,146)"/><rect x="20" y="530" width="10" height="10" fill="rgb(136,139,144)"/><rect x="30" y="530" width="10" height="10" fill="rgb(133,137,143)"/><rect x="40" y="530" width="10" height="10" fill="rgb(138,141,149)"/><rect x="50" y="530" width="10" height="10" fill="rgb(136,140,148)"/><rect x="60" y="530" width="10" height="10" fill="rgb(134,139,146)"/><rect x="70" y="530" width="10" height="10" fill="rgb(133,138,145)"/><rect x="80" y="530" width="10" height="10" fill="rgb(133,137,143)"/><rect x="90" y="530" width="10" height="10" fill="rgb(132,136,142)"/><rect x="0" y="540" width="10" height="10" fill="rgb(143,146,151)"/><rect x="10" y="540" width="10" height="10" fill="rgb(141,145,150)"/><rect x="20" y="540" width="10" height="10" fill="rgb(141,143,150)"/><rect x="30" y="540" width="10" height="10" fill="rgb(140,142,148)"/><rect x="40" y="540" width="10" height="10" fill="rgb(138,140,148)"/><rect x="50" y="540" width="10" height="10" fill="rgb(136,138,146)"/><rect x="60" y="540" width="10" height="10" fill="rgb(148,151,158)"/><rect x="70" y="540" width="10" height="10" fill="rgb(147,150,157)"/><rect x="80" y="540" width="10" height="10" fill="rgb(146,148,155)"/><rect x="90" y="540" width="10" height="10" fill="rgb(145,147,154)"/><rect x="0" y="550" width="10" height="10" fill="rgb(143,144,151)"/><rect x="10" y="550" width="10" height="10" fill="rgb(141,143,148)"/><rect x="20" y="550" width="10" height="10" fill="rgb(139,141,147)"/><rect x="30" y="550" width="10" height="10" fill="rgb(149,150,155)"/><rect x="40" y="550" width="10" height="10" fill="rgb(146,147,152)"/><rect x="50" y="550" width="10" height="10" fill="rgb(145,145,149)"/><rect x="60" y="550" width="10" height="10" fill="rgb(141,141,144)"/><rect x="70" y="550" width="10" height="10" fill="rgb(143,144,148)"/><rect x="80" y="550" width="10" height="10" fill="rgb(139,140,143)"/><rect x="90" y="550" width="10" height="10" fill="rgb(139,141,144)"/><rect x="0" y="560" width="10" height="10" fill="rgb(140,142,146)"/><rect x="10" y="560" width="10" height="10" fill="rgb(140,142,146)"/><rect x="20" y="560" width="10" height="10" fill="rgb(140,142,145)"/><rect x="30" y="560" width="10" height="10" fill="rgb(142,144,148)"/><rect x="40" y="560" width="10" height="10" fill="rgb(138,140,143)"/><rect x="50" y="560" width="10" height="10" fill="rgb(140,143,144)"/><rect x="60" y="560" width="10" height="10" fill="rgb(145,147,147)"/><rect x="70" y="560" width="10" height="10" fill="rgb(143,146,145)"/><rect x="80" y="560" width="10" height="10" fill="rgb(152,155,154)"/><rect x="90" y="560" width="10" height="10" fill="rgb(160,161,158)"/><rect x="0" y="570" width="10" height="10" fill="rgb(165,166,161)"/><rect x="10" y="570" width="10" height="10" fill="rgb(165,163,158)"/><rect x="20" y="570" width="10" height="10" fill="rgb(161,160,159)"/><rect x="30" y="570" width="10" height="10" fill="rgb(150,157,164)"/><rect x="40" y="570" width="10" height="10" fill="rgb(147,152,162)"/><rect x="50" y="570" width="10" height="10" fill="rgb(111,126,149)"/><rect x="60" y="570" width="10" height="10" fill="rgb(101,121,153)"/><rect x="70" y="570" width="10" height="10" fill="rgb(93,111,150)"/><rect x="80" y="570" width="10" height="10" fill="rgb(82,100,142)"/><rect x="90" y="570" width="10" height="10" fill="rgb(64,87,141)"/><rect x="0" y="580" width="10" height="10" fill="rgb(54,73,116)"/><rect x="10" y="580" width="10" height="10" fill="rgb(44,58,89)"/><rect x="20" y="580" width="10" height="10" fill="rgb(41,51,73)"/><rect x="30" y="580" width="10" height="10" fill="rgb(37,42,55)"/><rect x="40" y="580" width="10" height="10" fill="rgb(36,39,47)"/><rect x="50" y="580" width="10" height="10" fill="rgb(37,38,44)"/><rect x="60" y="580" width="10" height="10" fill="rgb(37,38,43)"/><rect x="70" y="580" width="10" height="10" fill="rgb(38,39,42)"/><rect x="80" y="580" width="10" height="10" fill="rgb(37,38,41)"/><rect x="90" y="580" width="10" height="10" fill="rgb(38,39,41)"/><rect x="0" y="590" width="10" height="10" fill="rgb(38,39,42)"/><rect x="10" y="590" width="10" height="10" fill="rgb(38,39,41)"/><rect x="20" y="590" width="10" height="10" fill="rgb(38,39,41)"/><rect x="30" y="590" width="10" height="10" fill="rgb(38,39,41)"/><rect x="40" y="590" width="10" height="10" fill="rgb(38,39,41)"/><rect x="50" y="590" width="10" height="10" fill="rgb(38,39,41)"/><rect x="60" y="590" width="10" height="10" fill="rgb(38,39,41)"/><rect x="70" y="590" width="10" height="10" fill="rgb(38,39,41)"/><rect x="80" y="590" width="10" height="10" fill="rgb(38,39,41)"/><rect x="90" y="590" width="10" height="10" fill="rgb(38,39,41)"/><rect x="0" y="600" width="10" height="10" fill="rgb(37,39,40)"/><rect x="10" y="600" width="10" height="10" fill="rgb(37,38,40)"/><rect x="20" y="600" width="10" height="10" fill="rgb(37,38,40)"/><rect x="30" y="600" width="10" height="10" fill="rgb(37,38,40)"/><rect x="40" y="600" width="10" height="10" fill="rgb(36,38,40)"/><rect x="50" y="600" width="10" height="10" fill="rgb(37,38,40)"/><rect x="60" y="600" width="10" height="10" fill="rgb(37,38,40)"/><rect x="70" y="600" width="10" height="10" fill="rgb(37,38,40)"/><rect x="80" y="600" width="10" height="10" fill="rgb(37,39,40)"/><rect x="90" y="600" width="10" height="10" fill="rgb(36,38,40)"/><rect x="0" y="610" width="10" height="10" fill="rgb(37,38,39)"/><rect x="10" y="610" width="10" height="10" fill="rgb(36,38,39)"/><rect x="20" y="610" width="10" height="10" fill="rgb(37,38,40)"/><rect x="30" y="610" width="10" height="10" fill="rgb(37,38,40)"/><rect x="40" y="610" width="10" height="10" fill="rgb(36,38,39)"/><rect x="50" y="610" width="10" height="10" fill="rgb(36,38,39)"/><rect x="60" y="610" width="10" height="10" fill="rgb(36,37,39)"/><rect x="70" y="610" width="10" height="10" fill="rgb(37,38,40)"/><rect x="80" y="610" width="10" height="10" fill="rgb(36,38,39)"/><rect x="90" y="610" width="10" height="10" fill="rgb(36,38,39)"/><rect x="0" y="620" width="10" height="10" fill="rgb(37,38,40)"/><rect x="10" y="620" width="10" height="10" fill="rgb(37,38,40)"/><rect x="20" y="620" width="10" height="10" fill="rgb(37,38,40)"/><rect x="30" y="620" width="10" height="10" fill="rgb(36,38,39)"/><rect x="40" y="620" width="10" height="10" fill="rgb(36,38,39)"/><rect x="50" y="620" width="10" height="10" fill="rgb(36,38,39)"/><rect x="60" y="620" width="10" height="10" fill="rgb(36,38,39)"/><rect x="70" y="620" width="10" height="10" fill="rgb(36,38,39)"/><rect x="80" y="620" width="10" height="10" fill="rgb(36,38,39)"/></svg>