<svg xmlns="http://www.w3.org/2000/svg" width="100" height="260"><rect x="0" y="0" width="10" height="10" fill="rgb(114,126,123)"/><rect x="10" y="0" width="10" height="10" fill="rgb(114,126,123)"/><rect x="20" y="0" width="10" height="10" fill="rgb(95,109,110)"/><rect x="30" y="0" width="10" height="10" fill="rgb(95,109,110)"/><rect x="40" y="0" width="10" height="10" fill="rgb(100,121,125)"/><rect x="50" y="0" width="10" height="10" fill="rgb(100,121,125)"/><rect x="60" y="0" width="10" height="10" fill="rgb(54,68,113)"/><rect x="70" y="0" width="10" height="10" fill="rgb(54,68,113)"/><rect x="80" y="0" width="10" height="10" fill="rgb(99,118,120)"/><rect x="90" y="0" width="10" height="10" fill="rgb(99,118,120)"/><rect x="0" y="10" width="10" height="10" fill="rgb(99,118,120)"/><rect x="10" y="10" width="10" height="10" fill="rgb(96,114,116)"/><rect x="20" y="10" width="10" height="10" fill="rgb(96,114,116)"/><rect x="30" y="10" width="10" height="10" fill="rgb(93,111,112)"/><rect x="40" y="10" width="10" height="10" fill="rgb(93,111,112)"/><rect x="50" y="10" width="10" height="10" fill="rgb(129,151,155)"/><rect x="60" y="10" width="10" height="10" fill="rgb(129,151,155)"/><rect x="70" y="10" width="10" height="10" fill="rgb(125,147,151)"/><rect x="80" y="10" width="10" height="10" fill="rgb(125,147,151)"/><rect x="90" y="10" width="10" height="10" fill="rgb(118,137,139)"/><rect x="0" y="20" width="10" height="10" fill="rgb(118,137,139)"/><rect x="10" y="20" width="10" height="10" fill="rgb(105,124,125)"/><rect x="20" y="20" width="10" height="10" fill="rgb(105,124,125)"/><rect x="30" y="20" width="10" height="10" fill="rgb(94,111,110)"/><rect x="40" y="20" width="10" height="10" fill="rgb(94,111,110)"/><rect x="50" y="20" width="10" height="10" fill="rgb(94,110,109)"/><rect x="60" y="20" width="10" height="10" fill="rgb(94,110,109)"/><rect x="70" y="20" width="10" height="10" fill="rgb(94,110,109)"/><rect x="80" y="20" width="10" height="10" fill="rgb(119,135,134)"/><rect x="90" y="20" width="10" height="10" fill="rgb(119,135,134)"/><rect x="0" y="30" width="10" height="10" fill="rgb(91,105,103)"/><rect x="10" y="30" width="10" height="10" fill="rgb(91,105,103)"/><rect x="20" y="30" width="10" height="10" fill="rgb(57,66,65)"/><rect x="30" y="30" width="10" height="10" fill="rgb(57,66,65)"/><rect x="40" y="30" width="10" height="10" fill="rgb(29,34,32)"/><rect x="50" y="30" width="10" height="10" fill="rgb(29,34,32)"/><rect x="60" y="30" width="10" height="10" fill="rgb(13,14,13)"/><rect x="70" y="30" width="10" height="10" fill="rgb(13,14,13)"/><rect x="80" y="30" width="10" height="10" fill="rgb(5,5,5)"/><rect x="90" y="30" width="10" height="10" fill="rgb(5,5,5)"/><rect x="0" y="40" width="10" height="10" fill="rgb(5,5,5)"/><rect x="10" y="40" width="10" height="10" fill="rgb(5,5,5)"/><rect x="20" y="40" width="10" height="10" fill="rgb(5,5,5)"/><rect x="30" y="40" width="10" height="10" fill="rgb(5,5,5)"/><rect x="40" y="40" width="10" height="10" fill="rgb(5,5,5)"/><rect x="50" y="40" width="10" height="10" fill="rgb(5,5,5)"/><rect x="60" y="40" width="10" height="10" fill="rgb(5,5,5)"/><rect x="70" y="40" width="10" height="10" fill="rgb(5,5,5)"/><rect x="80" y="40" width="10" height="10" fill="rgb(5,5,5)"/><rect x="90" y="40" width="10" height="10" fill="rgb(5,5,5)"/><rect x="0" y="50" width="10" height="10" fill="rgb(5,5,5)"/><rect x="10" y="50" width="10" height="10" fill="rgb(5,5,5)"/><rect x="20" y="50" width="10" height="10" fill="rgb(5,5,5)"/><rect x="30" y="50" width="10" height="10" fill="rgb(5,5,5)"/><rect x="40" y="50" width="10" height="10" fill="rgb(5,5,5)"/><rect x="50" y="50" width="10" height="10" fill="rgb(5,5,5)"/><rect x="60" y="50" width="10" height="10" fill="rgb(5,5,5)"/><rect x="70" y="50" width="10" height="10" fill="rgb(5,5,5)"/><rect x="80" y="50" width="10" height="10" fill="rgb(5,5,5)"/><rect x="90" y="50" width="10" height="10" fill="rgb(5,5,5)"/><rect x="0" y="60" width="10" height="10" fill="rgb(5,5,5)"/><rect x="10" y="60" width="10" height="10" fill="rgb(5,5,5)"/><rect x="20" y="60" width="10" height="10" fill="rgb(5,5,5)"/><rect x="30" y="60" width="10" height="10" fill="rgb(5,5,5)"/><rect x="40" y="60" width="10" height="10" fill="rgb(5,5,5)"/><rect x="50" y="60" width="10" height="10" fill="rgb(5,5,5)"/><rect x="60" y="60" width="10" height="10" fill="rgb(5,5,5)"/><rect x="70" y="60" width="10" height="10" fill="rgb(5,5,5)"/><rect x="80" y="60" width="10" height="10" fill="rgb(5,5,5)"/><rect x="90" y="60" width="10" height="10" fill="rgb(5,5,5)"/><rect x="0" y="70" width="10" height="10" fill="rgb(4,4,4)"/><rect x="10" y="70" width="10" height="10" fill="rgb(4,4,4)"/><rect x="20" y="70" width="10" height="10" fill="rgb(4,4,4)"/><rect x="30" y="70" width="10" height="10" fill="rgb(4,4,4)"/><rect x="40" y="70" width="10" height="10" fill="rgb(5,5,5)"/><rect x="50" y="70" width="10" height="10" fill="rgb(5,5,5)"/><rect x="60" y="70" width="10" height="10" fill="rgb(5,5,5)"/><rect x="70" y="70" width="10" height="10" fill="rgb(5,5,5)"/><rect x="80" y="70" width="10" height="10" fill="rgb(5,5,5)"/><rect x="90" y="70" width="10" height="10" fill="rgb(5,5,5)"/><rect x="0" y="80" width="10" height="10" fill="rgb(5,5,5)"/><rect x="10" y="80" width="10" height="10" fill="rgb(5,5,5)"/><rect x="20" y="80" width="10" height="10" fill="rgb(5,5,5)"/><rect x="30" y="80" width="10" height="10" fill="rgb(5,5,5)"/><rect x="40" y="80" width="10" height="10" fill="rgb(5,5,5)"/><rect x="50" y="80" width="10" height="10" fill="rgb(5,5,5)"/><rect x="60" y="80" width="10" height="10" fill="rgb(5,5,5)"/><rect x="70" y="80" width="10" height="10" fill="rgb(5,5,5)"/><rect x="80" y="80" width="10" height="10" fill="rgb(5,5,5)"/><rect x="90" y="80" width="10" height="10" fill="rgb(5,5,5)"/><rect x="0" y="90" width="10" height="10" fill="rgb(5,5,5)"/><rect x="10" y="90" width="10" height="10" fill="rgb(5,5,5)"/><rect x="20" y="90" width="10" height="10" fill="rgb(5,5,5)"/><rect x="30" y="90" width="10" height="10" fill="rgb(5,5,5)"/><rect x="40" y="90" width="10" height="10" fill="rgb(5,5,5)"/><rect x="50" y="90" width="10" height="10" fill="rgb(5,5,5)"/><rect x="60" y="90" width="10" height="10" fill="rgb(5,5,5)"/><rect x="70" y="90" width="10" height="10" fill="rgb(5,5,5)"/><rect x="80" y="90" width="10" height="10" fill="rgb(5,5,5)"/><rect x="90" y="90" width="10" height="10" fill="rgb(5,5,5)"/><rect x="0" y="100" width="10" height="10" fill="rgb(5,5,5)"/><rect x="10" y="100" width="10" height="10" fill="rgb(5,5,5)"/><rect x="20" y="100" width="10" height="10" fill="rgb(4,4,4)"/><rect x="30" y="100" width="10" height="10" fill="rgb(4,4,4)"/><rect x="40" y="100" width="10" height="10" fill="rgb(4,4,4)"/><rect x="50" y="100" width="10" height="10" fill="rgb(4,4,4)"/><rect x="60" y="100" width="10" height="10" fill="rgb(4,4,4)"/><rect x="70" y="100" width="10" height="10" fill="rgb(4,4,4)"/><rect x="80" y="100" width="10" height="10" fill="rgb(4,4,4)"/><rect x="90" y="100" width="10" height="10" fill="rgb(4,4,4)"/><rect x="0" y="110" width="10" height="10" fill="rgb(4,4,4)"/><rect x="10" y="110" width="10" height="10" fill="rgb(4,4,4)"/><rect x="20" y="110" width="10" height="10" fill="rgb(4,4,4)"/><rect x="30" y="110" width="10" height="10" fill="rgb(4,4,4)"/><rect x="40" y="110" width="10" height="10" fill="rgb(4,4,4)"/><rect x="50" y="110" width="10" height="10" fill="rgb(4,4,4)"/><rect x="60" y="110" width="10" height="10" fill="rgb(4,4,4)"/><rect x="70" y="110" width="10" height="10" fill="rgb(4,4,4)"/><rect x="80" y="110" width="10" height="10" fill="rgb(4,4,4)"/><rect x="90" y="110" width="10" height="10" fill="rgb(4,4,4)"/><rect x="0" y="120" width="10" height="10" fill="rgb(4,4,4)"/><rect x="10" y="120" width="10" height="10" fill="rgb(4,4,4)"/><rect x="20" y="120" width="10" height="10" fill="rgb(4,4,4)"/><rect x="30" y="120" width="10" height="10" fill="rgb(4,4,4)"/><rect x="40" y="120" width="10" height="10" fill="rgb(4,4,4)"/><rect x="50" y="120" width="10" height="10" fill="rgb(4,4,4)"/><rect x="60" y="120" width="10" height="10" fill="rgb(4,4,4)"/><rect x="70" y="120" width="10" height="10" fill="rgb(4,4,4)"/><rect x="80" y="120" width="10" height="10" fill="rgb(4,4,4)"/><rect x="90" y="120" width="10" height="10" fill="rgb(3,3,3)"/><rect x="0" y="130" width="10" height="10" fill="rgb(3,3,3)"/><rect x="10" y="130" width="10" height="10" fill="rgb(3,3,3)"/><rect x="20" y="130" width="10" height="10" fill="rgb(3,3,3)"/><rect x="30" y="130" width="10" height="10" fill="rgb(3,3,3)"/><rect x="40" y="130" width="10" height="10" fill="rgb(3,3,3)"/><rect x="50" y="130" width="10" height="10" fill="rgb(4,4,4)"/><rect x="60" y="130" width="10" height="10" fill="rgb(4,4,4)"/><rect x="70" y="130" width="10" height="10" fill="rgb(8,10,9)"/><rect x="80" y="130" width="10" height="10" fill="rgb(8,10,9)"/><rect x="90" y="130" width="10" height="10" fill="rgb(8,10,9)"/><rect x="0" y="140" width="10" height="10" fill="rgb(21,26,25)"/><rect x="10" y="140" width="10" height="10" fill="rgb(21,26,25)"/><rect x="20" y="140" width="10" height="10" fill="rgb(70,85,85)"/><rect x="30" y="140" width="10" height="10" fill="rgb(70,85,85)"/><rect x="40" y="140" width="10" height="10" fill="rgb(101,120,122)"/><rect x="50" y="140" width="10" height="10" fill="rgb(101,120,122)"/><rect x="60" y="140" width="10" height="10" fill="rgb(92,110,113)"/><rect x="70" y="140" width="10" height="10" fill="rgb(92,110,113)"/><rect x="80" y="140" width="10" height="10" fill="rgb(108,129,133)"/><rect x="90" y="140" width="10" height="10" fill="rgb(108,129,133)"/><rect x="0" y="150" width="10" height="10" fill="rgb(108,129,133)"/><rect x="10" y="150" width="10" height="10" fill="rgb(81,100,103)"/><rect x="20" y="150" width="10" height="10" fill="rgb(81,100,103)"/><rect x="30" y="150" width="10" height="10" fill="rgb(88,108,113)"/><rect x="40" y="150" width="10" height="10" fill="rgb(88,108,113)"/><rect x="50" y="150" width="10" height="10" fill="rgb(93,115,121)"/><rect x="60" y="150" width="10" height="10" fill="rgb(93,115,121)"/><rect x="70" y="150" width="10" height="10" fill="rgb(97,120,127)"/><rect x="80" y="150" width="10" height="10" fill="rgb(97,120,127)"/><rect x="90" y="150" width="10" height="10" fill="rgb(100,125,132)"/><rect x="0" y="160" width="10" height="10" fill="rgb(100,125,132)"/><rect x="10" y="160" width="10" height="10" fill="rgb(102,128,136)"/><rect x="20" y="160" width="10" height="10" fill="rgb(102,128,136)"/><rect x="30" y="160" width="10" height="10" fill="rgb(102,128,136)"/><rect x="40" y="160" width="10" height="10" fill="rgb(104,130,139)"/><rect x="50" y="160" width="10" height="10" fill="rgb(104,130,139)"/><rect x="60" y="160" width="10" height="10" fill="rgb(105,133,142)"/><rect x="70" y="160" width="10" height="10" fill="rgb(105,133,142)"/><rect x="80" y="160" width="10" height="10" fill="rgb(105,135,144)"/><rect x="90" y="160" width="10" height="10" fill="rgb(105,135,144)"/><rect x="0" y="170" width="10" height="10" fill="rgb(106,136,146)"/><rect x="10" y="170" width="10" height="10" fill="rgb(106,136,146)"/><rect x="20" y="170" width="10" height="10" fill="rgb(78,100,106)"/><rect x="30" y="170" width="10" height="10" fill="rgb(78,100,106)"/><rect x="40" y="170" width="10" height="10" fill="rgb(78,100,108)"/><rect x="50" y="170" width="10" height="10" fill="rgb(78,100,108)"/><rect x="60" y="170" width="10" height="10" fill="rgb(78,101,109)"/><rect x="70" y="170" width="10" height="10" fill="rgb(78,101,109)"/><rect x="80" y="170" width="10" height="10" fill="rgb(79,101,109)"/><rect x="90" y="170" width="10" height="10" fill="rgb(79,101,109)"/><rect x="0" y="180" width="10" height="10" fill="rgb(78,102,110)"/><rect x="10" y="180" width="10" height="10" fill="rgb(78,102,110)"/><rect x="20" y="180" width="10" height="10" fill="rgb(78,102,111)"/><rect x="30" y="180" width="10" height="10" fill="rgb(78,102,111)"/><rect x="40" y="180" width="10" height="10" fill="rgb(78,102,111)"/><rect x="50" y="180" width="10" height="10" fill="rgb(79,102,112)"/><rect x="60" y="180" width="10" height="10" fill="rgb(79,102,112)"/><rect x="70" y="180" width="10" height="10" fill="rgb(79,103,113)"/><rect x="80" y="180" width="10" height="10" fill="rgb(79,103,113)"/><rect x="90" y="180" width="10" height="10" fill="rgb(79,103,113)"/><rect x="0" y="190" width="10" height="10" fill="rgb(79,103,113)"/><rect x="10" y="190" width="10" height="10" fill="rgb(80,104,114)"/><rect x="20" y="190" width="10" height="10" fill="rgb(80,104,114)"/><rect x="30" y="190" width="10" height="10" fill="rgb(80,104,114)"/><rect x="40" y="190" width="10" height="10" fill="rgb(80,104,114)"/><rect x="50" y="190" width="10" height="10" fill="rgb(80,104,115)"/><rect x="60" y="190" width="10" height="10" fill="rgb(80,104,115)"/><rect x="70" y="190" width="10" height="10" fill="rgb(80,104,115)"/><rect x="80" y="190" width="10" height="10" fill="rgb(80,105,115)"/><rect x="90" y="190" width="10" height="10" fill="rgb(80,105,115)"/><rect x="0" y="200" width="10" height="10" fill="rgb(80,104,115)"/><rect x="10" y="200" width="10" height="10" fill="rgb(80,104,115)"/><rect x="20" y="200" width="10" height="10" fill="rgb(81,105,116)"/><rect x="30" y="200" width="10" height="10" fill="rgb(81,105,116)"/><rect x="40" y="200" width="10" height="10" fill="rgb(81,105,116)"/><rect x="50" y="200" width="10" height="10" fill="rgb(81,105,116)"/><rect x="60" y="200" width="10" height="10" fill="rgb(81,105,117)"/><rect x="70" y="200" width="10" height="10" fill="rgb(81,105,117)"/><rect x="80" y="200" width="10" height="10" fill="rgb(81,105,117)"/><rect x="90" y="200" width="10" height="10" fill="rgb(81,105,117)"/><rect x="0" y="210" width="10" height="10" fill="rgb(81,105,117)"/><rect x="10" y="210" width="10" height="10" fill="rgb(81,106,117)"/><rect x="20" y="210" width="10" height="10" fill="rgb(81,106,117)"/><rect x="30" y="210" width="10" height="10" fill="rgb(81,106,117)"/><rect x="40" y="210" width="10" height="10" fill="rgb(81,106,117)"/><rect x="50" y="210" width="10" height="10" fill="rgb(81,105,117)"/><rect x="60" y="210" width="10" height="10" fill="rgb(81,105,117)"/><rect x="70" y="210" width="10" height="10" fill="rgb(81,106,117)"/><rect x="80" y="210" width="10" height="10" fill="rgb(81,106,117)"/><rect x="90" y="210" width="10" height="10" fill="rgb(81,106,117)"/><rect x="0" y="220" width="10" height="10" fill="rgb(81,106,117)"/><rect x="10" y="220" width="10" height="10" fill="rgb(81,105,117)"/><rect x="20" y="220" width="10" height="10" fill="rgb(81,105,117)"/><rect x="30" y="220" width="10" height="10" fill="rgb(81,105,117)"/><rect x="40" y="220" width="10" height="10" fill="rgb(81,105,117)"/><rect x="50" y="220" width="10" height="10" fill="rgb(81,106,117)"/><rect x="60" y="220" width="10" height="10" fill="rgb(81,106,117)"/><rect x="70" y="220" width="10" height="10" fill="rgb(82,106,117)"/><rect x="80" y="220" width="10" height="10" fill="rgb(82,106,117)"/><rect x="90" y="220" width="10" height="10" fill="rgb(82,106,117)"/><rect x="0" y="230" width="10" height="10" fill="rgb(82,106,117)"/><rect x="10" y="230" width="10" height="10" fill="rgb(82,106,117)"/><rect x="20" y="230" width="10" height="10" fill="rgb(82,106,118)"/><rect x="30" y="230" width="10" height="10" fill="rgb(82,106,118)"/><rect x="40" y="230" width="10" height="10" fill="rgb(82,106,117)"/><rect x="50" y="230" width="10" height="10" fill="rgb(82,106,117)"/><rect x="60" y="230" width="10" height="10" fill="rgb(82,106,117)"/><rect x="70" y="230" width="10" height="10" fill="rgb(82,106,117)"/><rect x="80" y="230" width="10" height="10" fill="rgb(83,107,118)"/><rect x="90" y="230" width="10" height="10" fill="rgb(83,107,118)"/><rect x="0" y="240" width="10" height="10" fill="rgb(83,107,118)"/><rect x="10" y="240" width="10" height="10" fill="rgb(83,107,118)"/><rect x="20" y="240" width="10" height="10" fill="rgb(83,107,118)"/><rect x="30" y="240" width="10" height="10" fill="rgb(83,107,118)"/><rect x="40" y="240" width="10" height="10" fill="rgb(84,108,118)"/><rect x="50" y="240" width="10" height="10" fill="rgb(84,108,118)"/><rect x="60" y="240" width="10" height="10" fill="rgb(84,108,118)"/><rect x="70" y="240" width="10" height="10" fill="rgb(85,109,119)"/><rect x="80" y="240" width="10" height="10" fill="rgb(85,109,119)"/><rect x="90" y="240" width="10" height="10" fill="rgb(85,109,119)"/><rect x="0" y="250" width="10" height="10" fill="rgb(85,109,119)"/><rect x="10" y="250" width="10" height="10" fill="rgb(86,110,120)"/><rect x="20" y="250" width="10" height="10" fill="rgb(86,110,120)"/><rect x="30" y="250" width="10" height="10" fill="rgb(87,110,120)"/><rect x="40" y="250" width="10" height="10" fill="rgb(87,110,120)"/><rect x="50" y="250" width="10" height="10" fill="rgb(87,110,120)"/><rect x="60" y="250" width="10" height="10" fill="rgb(114,126,123)"/><rect x="70" y="250" width="10" height="10" fill="rgb(114,126,123)"/></svg>