<svg xmlns="http://www.w3.org/2000/svg" width="100" height="640"><rect x="0" y="0" width="10" height="10" fill="rgb(114,126,123)"/><rect x="10" y="0" width="10" height="10" fill="rgb(114,126,123)"/><rect x="20" y="0" width="10" height="10" fill="rgb(95,109,110)"/><rect x="30" y="0" width="10" height="10" fill="rgb(95,109,110)"/><rect x="40" y="0" width="10" height="10" fill="rgb(100,121,125)"/><rect x="50" y="0" width="10" height="10" fill="rgb(100,121,125)"/><rect x="60" y="0" width="10" height="10" fill="rgb(54,68,113)"/><rect x="70" y="0" width="10" height="10" fill="rgb(54,68,113)"/><rect x="80" y="0" width="10" height="10" fill="rgb(99,118,120)"/><rect x="90" y="0" width="10" height="10" fill="rgb(99,118,120)"/><rect x="0" y="10" width="10" height="10" fill="rgb(99,118,120)"/><rect x="10" y="10" width="10" height="10" fill="rgb(96,114,116)"/><rect x="20" y="10" width="10" height="10" fill="rgb(96,114,116)"/><rect x="30" y="10" width="10" height="10" fill="rgb(93,111,112)"/><rect x="40" y="10" width="10" height="10" fill="rgb(93,111,112)"/><rect x="50" y="10" width="10" height="10" fill="rgb(129,151,155)"/><rect x="60" y="10" width="10" height="10" fill="rgb(129,151,155)"/><rect x="70" y="10" width="10" height="10" fill="rgb(125,147,151)"/><rect x="80" y="10" width="10" height="10" fill="rgb(125,147,151)"/><rect x="90" y="10" width="10" height="10" fill="rgb(118,137,139)"/><rect x="0" y="20" width="10" height="10" fill="rgb(118,137,139)"/><rect x="10" y="20" width="10" height="10" fill="rgb(105,124,125)"/><rect x="20" y="20" width="10" height="10" fill="rgb(105,124,125)"/><rect x="30" y="20" width="10" height="10" fill="rgb(94,111,110)"/><rect x="40" y="20" width="10" height="10" fill="rgb(94,111,110)"/><rect x="50" y="20" width="10" height="10" fill="rgb(94,110,109)"/><rect x="60" y="20" width="10" height="10" fill="rgb(94,110,109)"/><rect x="70" y="20" width="10" height="10" fill="rgb(94,110,109)"/><rect x="80" y="20" width="10" height="10" fill="rgb(119,135,134)"/><rect x="90" y="20" width="10" height="10" fill="rgb(119,135,134)"/><rect x="0" y="30" width="10" height="10" fill="rgb(91,105,103)"/><rect x="10" y="30" width="10" height="10" fill="rgb(91,105,103)"/><rect x="20" y="30" width="10" height="10" fill="rgb(57,66,65)"/><rect x="30" y="30" width="10" height="10" fill="rgb(57,66,65)"/><rect x="40" y="30" width="10" height="10" fill="rgb(29,34,32)"/><rect x="50" y="30" width="10" height="10" fill="rgb(29,34,32)"/><rect x="60" y="30" width="10" height="10" fill="rgb(13,14,13)"/><rect x="70" y="30" width="10" height="10" fill="rgb(13,14,13)"/><rect x="80" y="30" width="10" height="10" fill="rgb(5,5,5)"/><rect x="90" y="30" width="10" height="10" fill="rgb(5,5,5)"/><rect x="0" y="40" width="10" height="10" fill="rgb(5,5,5)"/><rect x="10" y="40" width="10" height="10" fill="rgb(5,5,5)"/><rect x="20" y="40" width="10" height="10" fill="rgb(5,5,5)"/><rect x="30" y="40" width="10" height="10" fill="rgb(5,5,5)"/><rect x="40" y="40" width="10" height="10" fill="rgb(5,5,5)"/><rect x="50" y="40" width="10" height="10" fill="rgb(5,5,5)"/><rect x="60" y="40" width="10" height="10" fill="rgb(5,5,5)"/><rect x="70" y="40" width="10" height="10" fill="rgb(5,5,5)"/><rect x="80" y="40" width="10" height="10" fill="rgb(5,5,5)"/><rect x="90" y="40" width="10" height="10" fill="rgb(5,5,5)"/><rect x="0" y="50" width="10" height="10" fill="rgb(5,5,5)"/><rect x="10" y="50" width="10" height="10" fill="rgb(5,5,5)"/><rect x="20" y="50" width="10" height="10" fill="rgb(5,5,5)"/><rect x="30" y="50" width="10" height="10" fill="rgb(5,5,5)"/><rect x="40" y="50" width="10" height="10" fill="rgb(5,5,5)"/><rect x="50" y="50" width="10" height="10" fill="rgb(5,5,5)"/><rect x="60" y="50" width="10" height="10" fill="rgb(5,5,5)"/><rect x="70" y="50" width="10" height="10" fill="rgb(5,5,5)"/><rect x="80" y="50" width="10" height="10" fill="rgb(5,5,5)"/><rect x="90" y="50" width="10" height="10" fill="rgb(5,5,5)"/><rect x="0" y="60" width="10" height="10" fill="rgb(5,5,5)"/><rect x="10" y="60" width="10" height="10" fill="rgb(5,5,5)"/><rect x="20" y="60" width="10" height="10" fill="rgb(5,5,5)"/><rect x="30" y="60" width="10" height="10" fill="rgb(5,5,5)"/><rect x="40" y="60" width="10" height="10" fill="rgb(5,5,5)"/><rect x="50" y="60" width="10" height="10" fill="rgb(5,5,5)"/><rect x="60" y="60" width="10" height="10" fill="rgb(5,5,5)"/><rect x="70" y="60" width="10" height="10" fill="rgb(5,5,5)"/><rect x="80" y="60" width="10" height="10" fill="rgb(5,5,5)"/><rect x="90" y="60" width="10" height="10" fill="rgb(5,5,5)"/><rect x="0" y="70" width="10" height="10" fill="rgb(4,4,4)"/><rect x="10" y="70" width="10" height="10" fill="rgb(4,4,4)"/><rect x="20" y="70" width="10" height="10" fill="rgb(4,4,4)"/><rect x="30" y="70" width="10" height="10" fill="rgb(4,4,4)"/><rect x="40" y="70" width="10" height="10" fill="rgb(5,5,5)"/><rect x="50" y="70" width="10" height="10" fill="rgb(5,5,5)"/><rect x="60" y="70" width="10" height="10" fill="rgb(5,5,5)"/><rect x="70" y="70" width="10" height="10" fill="rgb(5,5,5)"/><rect x="80" y="70" width="10" height="10" fill="rgb(5,5,5)"/><rect x="90" y="70" width="10" height="10" fill="rgb(5,5,5)"/><rect x="0" y="80" width="10" height="10" fill="rgb(5,5,5)"/><rect x="10" y="80" width="10" height="10" fill="rgb(5,5,5)"/><rect x="20" y="80" width="10" height="10" fill="rgb(5,5,5)"/><rect x="30" y="80" width="10" height="10" fill="rgb(5,5,5)"/><rect x="40" y="80" width="10" height="10" fill="rgb(5,5,5)"/><rect x="50" y="80" width="10" height="10" fill="rgb(5,5,5)"/><rect x="60" y="80" width="10" height="10" fill="rgb(5,5,5)"/><rect x="70" y="80" width="10" height="10" fill="rgb(5,5,5)"/><rect x="80" y="80" width="10" height="10" fill="rgb(5,5,5)"/><rect x="90" y="80" width="10" height="10" fill="rgb(5,5,5)"/><rect x="0" y="90" width="10" height="10" fill="rgb(5,5,5)"/><rect x="10" y="90" width="10" height="10" fill="rgb(5,5,5)"/><rect x="20" y="90" width="10" height="10" fill="rgb(5,5,5)"/><rect x="30" y="90" width="10" height="10" fill="rgb(5,5,5)"/><rect x="40" y="90" width="10" height="10" fill="rgb(5,5,5)"/><rect x="50" y="90" width="10" height="10" fill="rgb(5,5,5)"/><rect x="60" y="90" width="10" height="10" fill="rgb(5,5,5)"/><rect x="70" y="90" width="10" height="10" fill="rgb(5,5,5)"/><rect x="80" y="90" width="10" height="10" fill="rgb(5,5,5)"/><rect x="90" y="90" width="10" height="10" fill="rgb(5,5,5)"/><rect x="0" y="100" width="10" height="10" fill="rgb(5,5,5)"/><rect x="10" y="100" width="10" height="10" fill="rgb(5,5,5)"/><rect x="20" y="100" width="10" height="10" fill="rgb(4,4,4)"/><rect x="30" y="100" width="10" height="10" fill="rgb(4,4,4)"/><rect x="40" y="100" width="10" height="10" fill="rgb(4,4,4)"/><rect x="50" y="100" width="10" height="10" fill="rgb(4,4,4)"/><rect x="60" y="100" width="10" height="10" fill="rgb(4,4,4)"/><rect x="70" y="100" width="10" height="10" fill="rgb(4,4,4)"/><rect x="80" y="100" width="10" height="10" fill="rgb(4,4,4)"/><rect x="90" y="100" width="10" height="10" fill="rgb(4,4,4)"/><rect x="0" y="110" width="10" height="10" fill="rgb(4,4,4)"/><rect x="10" y="110" width="10" height="10" fill="rgb(4,4,4)"/><rect x="20" y="110" width="10" height="10" fill="rgb(4,4,4)"/><rect x="30" y="110" width="10" height="10" fill="rgb(4,4,4)"/><rect x="40" y="110" width="10" height="10" fill="rgb(4,4,4)"/><rect x="50" y="110" width="10" height="10" fill="rgb(4,4,4)"/><rect x="60" y="110" width="10" height="10" fill="rgb(4,4,4)"/><rect x="70" y="110" width="10" height="10" fill="rgb(4,4,4)"/><rect x="80" y="110" width="10" height="10" fill="rgb(4,4,4)"/><rect x="90" y="110" width="10" height="10" fill="rgb(4,4,4)"/><rect x="0" y="120" width="10" height="10" fill="rgb(4,4,4)"/><rect x="10" y="120" width="10" height="10" fill="rgb(4,4,4)"/><rect x="20" y="120" width="10" height="10" fill="rgb(4,4,4)"/><rect x="30" y="120" width="10" height="10" fill="rgb(4,4,4)"/><rect x="40" y="120" width="10" height="10" fill="rgb(4,4,4)"/><rect x="50" y="120" width="10" height="10" fill="rgb(4,4,4)"/><rect x="60" y="120" width="10" height="10" fill="rgb(4,4,4)"/><rect x="70" y="120" width="10" height="10" fill="rgb(4,4,4)"/><rect x="80" y="120" width="10" height="10" fill="rgb(4,4,4)"/><rect x="90" y="120" width="10" height="10" fill="rgb(3,3,3)"/><rect x="0" y="130" width="10" height="10" fill="rgb(3,3,3)"/><rect x="10" y="130" width="10" height="10" fill="rgb(3,3,3)"/><rect x="20" y="130" width="10" height="10" fill="rgb(3,3,3)"/><rect x="30" y="130" width="10" height="10" fill="rgb(3,3,3)"/><rect x="40" y="130" width="10" height="10" fill="rgb(3,3,3)"/><rect x="50" y="130" width="10" height="10" fill="rgb(4,4,4)"/><rect x="60" y="130" width="10" height="10" fill="rgb(4,4,4)"/><rect x="70" y="130" width="10" height="10" fill="rgb(8,10,9)"/><rect x="80" y="130" width="10" height="10" fill="rgb(8,10,9)"/><rect x="90" y="130" width="10" height="10" fill="rgb(8,10,9)"/><rect x="0" y="140" width="10" height="10" fill="rgb(21,26,25)"/><rect x="10" y="140" width="10" height="10" fill="rgb(21,26,25)"/><rect x="20" y="140" width="10" height="10" fill="rgb(70,85,85)"/><rect x="30" y="140" width="10" height="10" fill="rgb(70,85,85)"/><rect x="40" y="140" width="10" height="10" fill="rgb(101,120,122)"/><rect x="50" y="140" width="10" height="10" fill="rgb(101,120,122)"/><rect x="60" y="140" width="10" height="10" fill="rgb(92,110,113)"/><rect x="70" y="140" width="10" height="10" fill="rgb(92,110,113)"/><rect x="80" y="140" width="10" height="10" fill="rgb(108,129,133)"/><rect x="90" y="140" width="10" height="10" fill="rgb(108,129,133)"/><rect x="0" y="150" width="10" height="10" fill="rgb(108,129,133)"/><rect x="10" y="150" width="10" height="10" fill="rgb(81,100,103)"/><rect x="20" y="150" width="10" height="10" fill="rgb(81,100,103)"/><rect x="30" y="150" width="10" height="10" fill="rgb(88,108,113)"/><rect x="40" y="150" width="10" height="10" fill="rgb(88,108,113)"/><rect x="50" y="150" width="10" height="10" fill="rgb(93,115,121)"/><rect x="60" y="150" width="10" height="10" fill="rgb(93,115,121)"/><rect x="70" y="150" width="10" height="10" fill="rgb(97,120,127)"/><rect x="80" y="150" width="10" height="10" fill="rgb(97,120,127)"/><rect x="90" y="150" width="10" height="10" fill="rgb(100,125,132)"/><rect x="0" y="160" width="10" height="10" fill="rgb(100,125,132)"/><rect x="10" y="160" width="10" height="10" fill="rgb(102,128,136)"/><rect x="20" y="160" width="10" height="10" fill="rgb(102,128,136)"/><rect x="30" y="160" width="10" height="10" fill="rgb(102,128,136)"/><rect x="40" y="160" width="10" height="10" fill="rgb(104,130,139)"/><rect x="50" y="160" width="10" height="10" fill="rgb(104,130,139)"/><rect x="60" y="160" width="10" height="10" fill="rgb(105,133,142)"/><rect x="70" y="160" width="10" height="10" fill="rgb(105,133,142)"/><rect x="80" y="160" width="10" height="10" fill="rgb(105,135,144)"/><rect x="90" y="160" width="10" height="10" fill="rgb(105,135,144)"/><rect x="0" y="170" width="10" height="10" fill="rgb(106,136,146)"/><rect x="10" y="170" width="10" height="10" fill="rgb(106,136,146)"/><rect x="20" y="170" width="10" height="10" fill="rgb(78,100,106)"/><rect x="30" y="170" width="10" height="10" fill="rgb(78,100,106)"/><rect x="40" y="170" width="10" height="10" fill="rgb(78,100,108)"/><rect x="50" y="170" width="10" height="10" fill="rgb(78,100,108)"/><rect x="60" y="170" width="10" height="10" fill="rgb(78,101,109)"/><rect x="70" y="170" width="10" height="10" fill="rgb(78,101,109)"/><rect x="80" y="170" width="10" height="10" fill="rgb(79,101,109)"/><rect x="90" y="170" width="10" height="10" fill="rgb(79,101,109)"/><rect x="0" y="180" width="10" height="10" fill="rgb(78,102,110)"/><rect x="10" y="180" width="10" height="10" fill="rgb(78,102,110)"/><rect x="20" y="180" width="10" height="10" fill="rgb(78,102,111)"/><rect x="30" y="180" width="10" height="10" fill="rgb(78,102,111)"/><rect x="40" y="180" width="10" height="10" fill="rgb(78,102,111)"/><rect x="50" y="180" width="10" height="10" fill="rgb(79,102,112)"/><rect x="60" y="180" width="10" height="10" fill="rgb(79,102,112)"/><rect x="70" y="180" width="10" height="10" fill="rgb(79,103,113)"/><rect x="80" y="180" width="10" height="10" fill="rgb(79,103,113)"/><rect x="90" y="180" width="10" height="10" fill="rgb(79,103,113)"/><rect x="0" y="190" width="10" height="10" fill="rgb(79,103,113)"/><rect x="10" y="190" width="10" height="10" fill="rgb(80,104,114)"/><rect x="20" y="190" width="10" height="10" fill="rgb(80,104,114)"/><rect x="30" y="190" width="10" height="10" fill="rgb(80,104,114)"/><rect x="40" y="190" width="10" height="10" fill="rgb(80,104,114)"/><rect x="50" y="190" width="10" height="10" fill="rgb(80,104,115)"/><rect x="60" y="190" width="10" height="10" fill="rgb(80,104,115)"/><rect x="70" y="190" width="10" height="10" fill="rgb(80,104,115)"/><rect x="80" y="190" width="10" height="10" fill="rgb(80,105,115)"/><rect x="90" y="190" width="10" height="10" fill="rgb(80,105,115)"/><rect x="0" y="200" width="10" height="10" fill="rgb(80,104,115)"/><rect x="10" y="200" width="10" height="10" fill="rgb(80,104,115)"/><rect x="20" y="200" width="10" height="10" fill="rgb(81,105,116)"/><rect x="30" y="200" width="10" height="10" fill="rgb(81,105,116)"/><rect x="40" y="200" width="10" height="10" fill="rgb(81,105,116)"/><rect x="50" y="200" width="10" height="10" fill="rgb(81,105,116)"/><rect x="60" y="200" width="10" height="10" fill="rgb(81,105,117)"/><rect x="70" y="200" width="10" height="10" fill="rgb(81,105,117)"/><rect x="80" y="200" width="10" height="10" fill="rgb(81,105,117)"/><rect x="90" y="200" width="10" height="10" fill="rgb(81,105,117)"/><rect x="0" y="210" width="10" height="10" fill="rgb(81,105,117)"/><rect x="10" y="210" width="10" height="10" fill="rgb(81,106,117)"/><rect x="20" y="210" width="10" height="10" fill="rgb(81,106,117)"/><rect x="30" y="210" width="10" height="10" fill="rgb(81,106,117)"/><rect x="40" y="210" width="10" height="10" fill="rgb(81,106,117)"/><rect x="50" y="210" width="10" height="10" fill="rgb(81,105,117)"/><rect x="60" y="210" width="10" height="10" fill="rgb(81,105,117)"/><rect x="70" y="210" width="10" height="10" fill="rgb(81,106,117)"/><rect x="80" y="210" width="10" height="10" fill="rgb(81,106,117)"/><rect x="90" y="210" width="10" height="10" fill="rgb(81,106,117)"/><rect x="0" y="220" width="10" height="10" fill="rgb(81,106,117)"/><rect x="10" y="220" width="10" height="10" fill="rgb(81,105,117)"/><rect x="20" y="220" width="10" height="10" fill="rgb(81,105,117)"/><rect x="30" y="220" width="10" height="10" fill="rgb(81,105,117)"/><rect x="40" y="220" width="10" height="10" fill="rgb(81,105,117)"/><rect x="50" y="220" width="10" height="10" fill="rgb(81,106,117)"/><rect x="60" y="220" width="10" height="10" fill="rgb(81,106,117)"/><rect x="70" y="220" width="10" height="10" fill="rgb(82,106,117)"/><rect x="80" y="220" width="10" height="10" fill="rgb(82,106,117)"/><rect x="90" y="220" width="10" height="10" fill="rgb(82,106,117)"/><rect x="0" y="230" width="10" height="10" fill="rgb(82,106,117)"/><rect x="10" y="230" width="10" height="10" fill="rgb(82,106,117)"/><rect x="20" y="230" width="10" height="10" fill="rgb(82,106,118)"/><rect x="30" y="230" width="10" height="10" fill="rgb(82,106,118)"/><rect x="40" y="230" width="10" height="10" fill="rgb(82,106,117)"/><rect x="50" y="230" width="10" height="10" fill="rgb(82,106,117)"/><rect x="60" y="230" width="10" height="10" fill="rgb(82,106,117)"/><rect x="70" y="230" width="10" height="10" fill="rgb(82,106,117)"/><rect x="80" y="230" width="10" height="10" fill="rgb(83,107,118)"/><rect x="90" y="230" width="10" height="10" fill="rgb(83,107,118)"/><rect x="0" y="240" width="10" height="10" fill="rgb(83,107,118)"/><rect x="10" y="240" width="10" height="10" fill="rgb(83,107,118)"/><rect x="20" y="240" width="10" height="10" fill="rgb(83,107,118)"/><rect x="30" y="240" width="10" height="10" fill="rgb(83,107,118)"/><rect x="40" y="240" width="10" height="10" fill="rgb(84,108,118)"/><rect x="50" y="240" width="10" height="10" fill="rgb(84,108,118)"/><rect x="60" y="240" width="10" height="10" fill="rgb(84,108,118)"/><rect x="70" y="240" width="10" height="10" fill="rgb(85,109,119)"/><rect x="80" y="240" width="10" height="10" fill="rgb(85,109,119)"/><rect x="90" y="240" width="10" height="10" fill="rgb(85,109,119)"/><rect x="0" y="250" width="10" height="10" fill="rgb(85,109,119)"/><rect x="10" y="250" width="10" height="10" fill="rgb(86,110,120)"/><rect x="20" y="250" width="10" height="10" fill="rgb(86,110,120)"/><rect x="30" y="250" width="10" height="10" fill="rgb(87,110,120)"/><rect x="40" y="250" width="10" height="10" fill="rgb(87,110,120)"/><rect x="50" y="250" width="10" height="10" fill="rgb(87,110,120)"/><rect x="60" y="250" width="10" height="10" fill="rgb(114,126,123)"/><rect x="70" y="250" width="10" height="10" fill="rgb(114,126,123)"/><rect x="80" y="250" width="10" height="10" fill="rgb(87,110,120)"/><rect x="90" y="250" width="10" height="10" fill="rgb(87,110,120)"/><rect x="0" y="260" width="10" height="10" fill="rgb(89,111,120)"/><rect x="10" y="260" width="10" height="10" fill="rgb(89,111,120)"/><rect x="20" y="260" width="10" height="10" fill="rgb(90,109,115)"/><rect x="30" y="260" width="10" height="10" fill="rgb(90,109,115)"/><rect x="40" y="260" width="10" height="10" fill="rgb(89,109,115)"/><rect x="50" y="260" width="10" height="10" fill="rgb(89,109,115)"/><rect x="60" y="260" width="10" height="10" fill="rgb(90,110,116)"/><rect x="70" y="260" width="10" height="10" fill="rgb(90,110,116)"/><rect x="80" y="260" width="10" height="10" fill="rgb(91,111,117)"/><rect x="90" y="260" width="10" height="10" fill="rgb(91,111,117)"/><rect x="0" y="270" width="10" height="10" fill="rgb(91,111,117)"/><rect x="10" y="270" width="10" height="10" fill="rgb(90,111,117)"/><rect x="20" y="270" width="10" height="10" fill="rgb(90,111,117)"/><rect x="30" y="270" width="10" height="10" fill="rgb(94,116,123)"/><rect x="40" y="270" width="10" height="10" fill="rgb(94,116,123)"/><rect x="50" y="270" width="10" height="10" fill="rgb(94,116,123)"/><rect x="60" y="270" width="10" height="10" fill="rgb(94,116,123)"/><rect x="70" y="270" width="10" height="10" fill="rgb(94,116,123)"/><rect x="80" y="270" width="10" height="10" fill="rgb(94,116,123)"/><rect x="90" y="270" width="10" height="10" fill="rgb(94,116,123)"/><rect x="0" y="280" width="10" height="10" fill="rgb(94,116,123)"/><rect x="10" y="280" width="10" height="10" fill="rgb(94,116,123)"/><rect x="20" y="280" width="10" height="10" fill="rgb(93,116,123)"/><rect x="30" y="280" width="10" height="10" fill="rgb(93,116,123)"/><rect x="40" y="280" width="10" height="10" fill="rgb(93,116,122)"/><rect x="50" y="280" width="10" height="10" fill="rgb(93,116,122)"/><rect x="60" y="280" width="10" height="10" fill="rgb(93,116,122)"/><rect x="70" y="280" width="10" height="10" fill="rgb(93,116,122)"/><rect x="80" y="280" width="10" height="10" fill="rgb(93,116,122)"/><rect x="90" y="280" width="10" height="10" fill="rgb(96,118,123)"/><rect x="0" y="290" width="10" height="10" fill="rgb(96,118,123)"/><rect x="10" y="290" width="10" height="10" fill="rgb(98,120,125)"/><rect x="20" y="290" width="10" height="10" fill="rgb(98,120,125)"/><rect x="30" y="290" width="10" height="10" fill="rgb(95,117,122)"/><rect x="40" y="290" width="10" height="10" fill="rgb(95,117,122)"/><rect x="50" y="290" width="10" height="10" fill="rgb(94,116,121)"/><rect x="60" y="290" width="10" height="10" fill="rgb(94,116,121)"/><rect x="70" y="290" width="10" height="10" fill="rgb(52,67,113)"/><rect x="80" y="290" width="10" height="10" fill="rgb(52,67,113)"/><rect x="90" y="290" width="10" height="10" fill="rgb(97,117,120)"/><rect x="0" y="300" width="10" height="10" fill="rgb(97,117,120)"/><rect x="10" y="300" width="10" height="10" fill="rgb(96,116,118)"/><rect x="20" y="300" width="10" height="10" fill="rgb(96,116,118)"/><rect x="30" y="300" width="10" height="10" fill="rgb(96,116,118)"/><rect x="40" y="300" width="10" height="10" fill="rgb(95,114,116)"/><rect x="50" y="300" width="10" height="10" fill="rgb(95,114,116)"/><rect x="60" y="300" width="10" height="10" fill="rgb(93,111,112)"/><rect x="70" y="300" width="10" height="10" fill="rgb(93,111,112)"/><rect x="80" y="300" width="10" height="10" fill="rgb(89,106,106)"/><rect x="90" y="300" width="10" height="10" fill="rgb(89,106,106)"/><rect x="0" y="310" width="10" height="10" fill="rgb(128,149,151)"/><rect x="10" y="310" width="10" height="10" fill="rgb(128,149,151)"/><rect x="20" y="310" width="10" height="10" fill="rgb(120,139,139)"/><rect x="30" y="310" width="10" height="10" fill="rgb(120,139,139)"/><rect x="40" y="310" width="10" height="10" fill="rgb(108,125,124)"/><rect x="50" y="310" width="10" height="10" fill="rgb(108,125,124)"/><rect x="60" y="310" width="10" height="10" fill="rgb(149,167,167)"/><rect x="70" y="310" width="10" height="10" fill="rgb(149,167,167)"/><rect x="80" y="310" width="10" height="10" fill="rgb(130,146,145)"/><rect x="90" y="310" width="10" height="10" fill="rgb(130,146,145)"/><rect x="0" y="320" width="10" height="10" fill="rgb(67,78,77)"/><rect x="10" y="320" width="10" height="10" fill="rgb(67,78,77)"/><rect x="20" y="320" width="10" height="10" fill="rgb(38,45,43)"/><rect x="30" y="320" width="10" height="10" fill="rgb(38,45,43)"/><rect x="40" y="320" width="10" height="10" fill="rgb(18,22,20)"/><rect x="50" y="320" width="10" height="10" fill="rgb(18,22,20)"/><rect x="60" y="320" width="10" height="10" fill="rgb(18,22,20)"/><rect x="70" y="320" width="10" height="10" fill="rgb(8,8,8)"/><rect x="80" y="320" width="10" height="10" fill="rgb(8,8,8)"/><rect x="90" y="320" width="10" height="10" fill="rgb(5,5,5)"/><rect x="0" y="330" width="10" height="10" fill="rgb(5,5,5)"/><rect x="10" y="330" width="10" height="10" fill="rgb(4,4,4)"/><rect x="20" y="330" width="10" height="10" fill="rgb(4,4,4)"/><rect x="30" y="330" width="10" height="10" fill="rgb(4,4,4)"/><rect x="40" y="330" width="10" height="10" fill="rgb(4,4,4)"/><rect x="50" y="330" width="10" height="10" fill="rgb(4,4,4)"/><rect x="60" y="330" width="10" height="10" fill="rgb(4,4,4)"/><rect x="70" y="330" width="10" height="10" fill="rgb(4,4,4)"/><rect x="80" y="330" width="10" height="10" fill="rgb(4,4,4)"/><rect x="90" y="330" width="10" height="10" fill="rgb(4,4,4)"/><rect x="0" y="340" width="10" height="10" fill="rgb(4,4,4)"/><rect x="10" y="340" width="10" height="10" fill="rgb(4,4,4)"/><rect x="20" y="340" width="10" height="10" fill="rgb(4,4,4)"/><rect x="30" y="340" width="10" height="10" fill="rgb(4,4,4)"/><rect x="40" y="340" width="10" height="10" fill="rgb(4,4,4)"/><rect x="50" y="340" width="10" height="10" fill="rgb(4,4,4)"/><rect x="60" y="340" width="10" height="10" fill="rgb(4,4,4)"/><rect x="70" y="340" width="10" height="10" fill="rgb(4,4,4)"/><rect x="80" y="340" width="10" height="10" fill="rgb(4,4,4)"/><rect x="90" y="340" width="10" height="10" fill="rgb(4,4,4)"/><rect x="0" y="350" width="10" height="10" fill="rgb(4,4,4)"/><rect x="10" y="350" width="10" height="10" fill="rgb(4,4,4)"/><rect x="20" y="350" width="10" height="10" fill="rgb(4,4,4)"/><rect x="30" y="350" width="10" height="10" fill="rgb(4,4,4)"/><rect x="40" y="350" width="10" height="10" fill="rgb(4,4,4)"/><rect x="50" y="350" width="10" height="10" fill="rgb(4,4,4)"/><rect x="60" y="350" width="10" height="10" fill="rgb(4,4,4)"/><rect x="70" y="350" width="10" height="10" fill="rgb(4,4,4)"/><rect x="80" y="350" width="10" height="10" fill="rgb(4,4,4)"/><rect x="90" y="350" width="10" height="10" fill="rgb(4,4,4)"/><rect x="0" y="360" width="10" height="10" fill="rgb(4,4,4)"/><rect x="10" y="360" width="10" height="10" fill="rgb(4,4,4)"/><rect x="20" y="360" width="10" height="10" fill="rgb(4,4,4)"/><rect x="30" y="360" width="10" height="10" fill="rgb(4,4,4)"/><rect x="40" y="360" width="10" height="10" fill="rgb(3,3,3)"/><rect x="50" y="360" width="10" height="10" fill="rgb(3,3,3)"/><rect x="60" y="360" width="10" height="10" fill="rgb(3,3,3)"/><rect x="70" y="360" width="10" height="10" fill="rgb(3,3,3)"/><rect x="80" y="360" width="10" height="10" fill="rgb(2,2,2)"/><rect x="90" y="360" width="10" height="10" fill="rgb(2,2,2)"/><rect x="0" y="370" width="10" height="10" fill="rgb(2,2,2)"/><rect x="10" y="370" width="10" height="10" fill="rgb(2,2,2)"/><rect x="20" y="370" width="10" height="10" fill="rgb(2,2,2)"/><rect x="30" y="370" width="10" height="10" fill="rgb(2,2,2)"/><rect x="40" y="370" width="10" height="10" fill="rgb(2,2,2)"/><rect x="50" y="370" width="10" height="10" fill="rgb(2,2,2)"/><rect x="60" y="370" width="10" height="10" fill="rgb(2,2,2)"/><rect x="70" y="370" width="10" height="10" fill="rgb(2,2,2)"/><rect x="80" y="370" width="10" height="10" fill="rgb(2,2,2)"/><rect x="90" y="370" width="10" height="10" fill="rgb(2,2,2)"/><rect x="0" y="380" width="10" height="10" fill="rgb(2,2,2)"/><rect x="10" y="380" width="10" height="10" fill="rgb(2,2,2)"/><rect x="20" y="380" width="10" height="10" fill="rgb(2,2,2)"/><rect x="30" y="380" width="10" height="10" fill="rgb(2,2,2)"/><rect x="40" y="380" width="10" height="10" fill="rgb(2,2,2)"/><rect x="50" y="380" width="10" height="10" fill="rgb(2,2,2)"/><rect x="60" y="380" width="10" height="10" fill="rgb(2,2,2)"/><rect x="70" y="380" width="10" height="10" fill="rgb(2,2,2)"/><rect x="80" y="380" width="10" height="10" fill="rgb(2,2,2)"/><rect x="90" y="380" width="10" height="10" fill="rgb(2,2,2)"/><rect x="0" y="390" width="10" height="10" fill="rgb(2,2,2)"/><rect x="10" y="390" width="10" height="10" fill="rgb(2,2,2)"/><rect x="20" y="390" width="10" height="10" fill="rgb(2,2,2)"/><rect x="30" y="390" width="10" height="10" fill="rgb(2,2,2)"/><rect x="40" y="390" width="10" height="10" fill="rgb(2,2,2)"/><rect x="50" y="390" width="10" height="10" fill="rgb(2,2,2)"/><rect x="60" y="390" width="10" height="10" fill="rgb(2,2,2)"/><rect x="70" y="390" width="10" height="10" fill="rgb(2,2,2)"/><rect x="80" y="390" width="10" height="10" fill="rgb(2,2,2)"/><rect x="90" y="390" width="10" height="10" fill="rgb(2,2,2)"/><rect x="0" y="400" width="10" height="10" fill="rgb(2,2,2)"/><rect x="10" y="400" width="10" height="10" fill="rgb(2,2,2)"/><rect x="20" y="400" width="10" height="10" fill="rgb(2,2,2)"/><rect x="30" y="400" width="10" height="10" fill="rgb(2,2,2)"/><rect x="40" y="400" width="10" height="10" fill="rgb(2,2,2)"/><rect x="50" y="400" width="10" height="10" fill="rgb(2,2,2)"/><rect x="60" y="400" width="10" height="10" fill="rgb(1,1,1)"/><rect x="70" y="400" width="10" height="10" fill="rgb(1,1,1)"/><rect x="80" y="400" width="10" height="10" fill="rgb(1,1,1)"/><rect x="90" y="400" width="10" height="10" fill="rgb(1,1,1)"/><rect x="0" y="410" width="10" height="10" fill="rgb(1,1,1)"/><rect x="10" y="410" width="10" height="10" fill="rgb(1,1,1)"/><rect x="20" y="410" width="10" height="10" fill="rgb(1,1,1)"/><rect x="30" y="410" width="10" height="10" fill="rgb(1,1,1)"/><rect x="40" y="410" width="10" height="10" fill="rgb(1,1,1)"/><rect x="50" y="410" width="10" height="10" fill="rgb(1,1,1)"/><rect x="60" y="410" width="10" height="10" fill="rgb(1,1,1)"/><rect x="70" y="410" width="10" height="10" fill="rgb(1,1,1)"/><rect x="80" y="410" width="10" height="10" fill="rgb(1,1,1)"/><rect x="90" y="410" width="10" height="10" fill="rgb(1,1,1)"/><rect x="0" y="420" width="10" height="10" fill="rgb(1,1,1)"/><rect x="10" y="420" width="10" height="10" fill="rgb(1,1,1)"/><rect x="20" y="420" width="10" height="10" fill="rgb(2,2,2)"/><rect x="30" y="420" width="10" height="10" fill="rgb(2,2,2)"/><rect x="40" y="420" width="10" height="10" fill="rgb(2,2,2)"/><rect x="50" y="420" width="10" height="10" fill="rgb(2,2,2)"/><rect x="60" y="420" width="10" height="10" fill="rgb(3,3,3)"/><rect x="70" y="420" width="10" height="10" fill="rgb(3,3,3)"/><rect x="80" y="420" width="10" height="10" fill="rgb(24,30,29)"/><rect x="90" y="420" width="10" height="10" fill="rgb(24,30,29)"/><rect x="0" y="430" width="10" height="10" fill="rgb(48,58,57)"/><rect x="10" y="430" width="10" height="10" fill="rgb(48,58,57)"/><rect x="20" y="430" width="10" height="10" fill="rgb(48,58,57)"/><rect x="30" y="430" width="10" height="10" fill="rgb(78,93,93)"/><rect x="40" y="430" width="10" height="10" fill="rgb(78,93,93)"/><rect x="50" y="430" width="10" height="10" fill="rgb(106,125,127)"/><rect x="60" y="430" width="10" height="10" fill="rgb(106,125,127)"/><rect x="70" y="430" width="10" height="10" fill="rgb(94,112,115)"/><rect x="80" y="430" width="10" height="10" fill="rgb(94,112,115)"/><rect x="90" y="430" width="10" height="10" fill="rgb(108,130,134)"/><rect x="0" y="440" width="10" height="10" fill="rgb(108,130,134)"/><rect x="10" y="440" width="10" height="10" fill="rgb(81,100,103)"/><rect x="20" y="440" width="10" height="10" fill="rgb(81,100,103)"/><rect x="30" y="440" width="10" height="10" fill="rgb(81,100,103)"/><rect x="40" y="440" width="10" height="10" fill="rgb(87,107,112)"/><rect x="50" y="440" width="10" height="10" fill="rgb(87,107,112)"/><rect x="60" y="440" width="10" height="10" fill="rgb(91,113,120)"/><rect x="70" y="440" width="10" height="10" fill="rgb(91,113,120)"/><rect x="80" y="440" width="10" height="10" fill="rgb(94,118,125)"/><rect x="90" y="440" width="10" height="10" fill="rgb(94,118,125)"/><rect x="0" y="450" width="10" height="10" fill="rgb(98,124,133)"/><rect x="10" y="450" width="10" height="10" fill="rgb(98,124,133)"/><rect x="20" y="450" width="10" height="10" fill="rgb(99,127,136)"/><rect x="30" y="450" width="10" height="10" fill="rgb(99,127,136)"/><rect x="40" y="450" width="10" height="10" fill="rgb(100,129,138)"/><rect x="50" y="450" width="10" height="10" fill="rgb(100,129,138)"/><rect x="60" y="450" width="10" height="10" fill="rgb(100,129,138)"/><rect x="70" y="450" width="10" height="10" fill="rgb(101,131,140)"/><rect x="80" y="450" width="10" height="10" fill="rgb(101,131,140)"/><rect x="90" y="450" width="10" height="10" fill="rgb(101,132,142)"/><rect x="0" y="460" width="10" height="10" fill="rgb(101,132,142)"/><rect x="10" y="460" width="10" height="10" fill="rgb(102,133,144)"/><rect x="20" y="460" width="10" height="10" fill="rgb(102,133,144)"/><rect x="30" y="460" width="10" height="10" fill="rgb(76,98,106)"/><rect x="40" y="460" width="10" height="10" fill="rgb(76,98,106)"/><rect x="50" y="460" width="10" height="10" fill="rgb(77,99,107)"/><rect x="60" y="460" width="10" height="10" fill="rgb(77,99,107)"/><rect x="70" y="460" width="10" height="10" fill="rgb(77,99,108)"/><rect x="80" y="460" width="10" height="10" fill="rgb(77,99,108)"/><rect x="90" y="460" width="10" height="10" fill="rgb(77,99,109)"/><rect x="0" y="470" width="10" height="10" fill="rgb(77,99,109)"/><rect x="10" y="470" width="10" height="10" fill="rgb(77,100,109)"/><rect x="20" y="470" width="10" height="10" fill="rgb(77,100,109)"/><rect x="30" y="470" width="10" height="10" fill="rgb(78,100,110)"/><rect x="40" y="470" width="10" height="10" fill="rgb(78,100,110)"/><rect x="50" y="470" width="10" height="10" fill="rgb(78,101,111)"/><rect x="60" y="470" width="10" height="10" fill="rgb(78,101,111)"/><rect x="70" y="470" width="10" height="10" fill="rgb(78,101,112)"/><rect x="80" y="470" width="10" height="10" fill="rgb(78,101,112)"/><rect x="90" y="470" width="10" height="10" fill="rgb(78,101,112)"/><rect x="0" y="480" width="10" height="10" fill="rgb(79,102,112)"/><rect x="10" y="480" width="10" height="10" fill="rgb(79,102,112)"/><rect x="20" y="480" width="10" height="10" fill="rgb(79,102,113)"/><rect x="30" y="480" width="10" height="10" fill="rgb(79,102,113)"/><rect x="40" y="480" width="10" height="10" fill="rgb(79,103,114)"/><rect x="50" y="480" width="10" height="10" fill="rgb(79,103,114)"/><rect x="60" y="480" width="10" height="10" fill="rgb(79,103,114)"/><rect x="70" y="480" width="10" height="10" fill="rgb(79,103,114)"/><rect x="80" y="480" width="10" height="10" fill="rgb(79,103,114)"/><rect x="90" y="480" width="10" height="10" fill="rgb(79,103,114)"/><rect x="0" y="490" width="10" height="10" fill="rgb(79,103,114)"/><rect x="10" y="490" width="10" height="10" fill="rgb(79,103,114)"/><rect x="20" y="490" width="10" height="10" fill="rgb(79,103,114)"/><rect x="30" y="490" width="10" height="10" fill="rgb(79,102,114)"/><rect x="40" y="490" width="10" height="10" fill="rgb(79,102,114)"/><rect x="50" y="490" width="10" height="10" fill="rgb(79,102,114)"/><rect x="60" y="490" width="10" height="10" fill="rgb(79,102,114)"/><rect x="70" y="490" width="10" height="10" fill="rgb(79,103,115)"/><rect x="80" y="490" width="10" height="10" fill="rgb(79,103,115)"/><rect x="90" y="490" width="10" height="10" fill="rgb(79,103,115)"/><rect x="0" y="500" width="10" height="10" fill="rgb(79,103,115)"/><rect x="10" y="500" width="10" height="10" fill="rgb(80,103,116)"/><rect x="20" y="500" width="10" height="10" fill="rgb(80,103,116)"/><rect x="30" y="500" width="10" height="10" fill="rgb(80,104,116)"/><rect x="40" y="500" width="10" height="10" fill="rgb(80,104,116)"/><rect x="50" y="500" width="10" height="10" fill="rgb(80,104,116)"/><rect x="60" y="500" width="10" height="10" fill="rgb(81,105,117)"/><rect x="70" y="500" width="10" height="10" fill="rgb(81,105,117)"/><rect x="80" y="500" width="10" height="10" fill="rgb(81,104,116)"/><rect x="90" y="500" width="10" height="10" fill="rgb(81,104,116)"/><rect x="0" y="510" width="10" height="10" fill="rgb(81,104,116)"/><rect x="10" y="510" width="10" height="10" fill="rgb(81,104,116)"/><rect x="20" y="510" width="10" height="10" fill="rgb(81,105,117)"/><rect x="30" y="510" width="10" height="10" fill="rgb(81,105,117)"/><rect x="40" y="510" width="10" height="10" fill="rgb(81,104,116)"/><rect x="50" y="510" width="10" height="10" fill="rgb(81,104,116)"/><rect x="60" y="510" width="10" height="10" fill="rgb(81,104,117)"/><rect x="70" y="510" width="10" height="10" fill="rgb(81,104,117)"/><rect x="80" y="510" width="10" height="10" fill="rgb(81,104,117)"/><rect x="90" y="510" width="10" height="10" fill="rgb(81,105,117)"/><rect x="0" y="520" width="10" height="10" fill="rgb(81,105,117)"/><rect x="10" y="520" width="10" height="10" fill="rgb(81,104,116)"/><rect x="20" y="520" width="10" height="10" fill="rgb(81,104,116)"/><rect x="30" y="520" width="10" height="10" fill="rgb(81,105,117)"/><rect x="40" y="520" width="10" height="10" fill="rgb(81,105,117)"/><rect x="50" y="520" width="10" height="10" fill="rgb(81,105,117)"/><rect x="60" y="520" width="10" height="10" fill="rgb(81,105,117)"/><rect x="70" y="520" width="10" height="10" fill="rgb(82,105,117)"/><rect x="80" y="520" width="10" height="10" fill="rgb(82,105,117)"/><rect x="90" y="520" width="10" height="10" fill="rgb(83,106,118)"/><rect x="0" y="530" width="10" height="10" fill="rgb(83,106,118)"/><rect x="10" y="530" width="10" height="10" fill="rgb(84,107,118)"/><rect x="20" y="530" width="10" height="10" fill="rgb(84,107,118)"/><rect x="30" y="530" width="10" height="10" fill="rgb(86,109,120)"/><rect x="40" y="530" width="10" height="10" fill="rgb(86,109,120)"/><rect x="50" y="530" width="10" height="10" fill="rgb(85,108,119)"/><rect x="60" y="530" width="10" height="10" fill="rgb(85,108,119)"/><rect x="70" y="530" width="10" height="10" fill="rgb(86,108,120)"/><rect x="80" y="530" width="10" height="10" fill="rgb(86,108,120)"/><rect x="90" y="530" width="10" height="10" fill="rgb(86,108,120)"/><rect x="0" y="540" width="10" height="10" fill="rgb(87,109,120)"/><rect x="10" y="540" width="10" height="10" fill="rgb(87,109,120)"/><rect x="20" y="540" width="10" height="10" fill="rgb(88,111,122)"/><rect x="30" y="540" width="10" height="10" fill="rgb(88,111,122)"/><rect x="40" y="540" width="10" height="10" fill="rgb(89,111,122)"/><rect x="50" y="540" width="10" height="10" fill="rgb(89,111,122)"/><rect x="60" y="540" width="10" height="10" fill="rgb(90,113,124)"/><rect x="70" y="540" width="10" height="10" fill="rgb(90,113,124)"/><rect x="80" y="540" width="10" height="10" fill="rgb(91,114,124)"/><rect x="90" y="540" width="10" height="10" fill="rgb(91,114,124)"/><rect x="0" y="550" width="10" height="10" fill="rgb(92,115,125)"/><rect x="10" y="550" width="10" height="10" fill="rgb(92,115,125)"/><rect x="20" y="550" width="10" height="10" fill="rgb(92,115,125)"/><rect x="30" y="550" width="10" height="10" fill="rgb(94,116,126)"/><rect x="40" y="550" width="10" height="10" fill="rgb(94,116,126)"/><rect x="50" y="550" width="10" height="10" fill="rgb(95,118,128)"/><rect x="60" y="550" width="10" height="10" fill="rgb(95,118,128)"/><rect x="70" y="550" width="10" height="10" fill="rgb(96,119,128)"/><rect x="80" y="550" width="10" height="10" fill="rgb(96,119,128)"/><rect x="90" y="550" width="10" height="10" fill="rgb(97,119,128)"/><rect x="0" y="560" width="10" height="10" fill="rgb(97,119,128)"/><rect x="10" y="560" width="10" height="10" fill="rgb(97,119,128)"/><rect x="20" y="560" width="10" height="10" fill="rgb(96,119,127)"/><rect x="30" y="560" width="10" height="10" fill="rgb(96,119,127)"/><rect x="40" y="560" width="10" height="10" fill="rgb(97,119,127)"/><rect x="50" y="560" width="10" height="10" fill="rgb(97,119,127)"/><rect x="60" y="560" width="10" height="10" fill="rgb(99,121,129)"/><rect x="70" y="560" width="10" height="10" fill="rgb(99,121,129)"/><rect x="80" y="560" width="10" height="10" fill="rgb(99,121,128)"/><rect x="90" y="560" width="10" height="10" fill="rgb(99,121,128)"/><rect x="0" y="570" width="10" height="10" fill="rgb(98,119,126)"/><rect x="10" y="570" width="10" height="10" fill="rgb(98,119,126)"/><rect x="20" y="570" width="10" height="10" fill="rgb(99,121,127)"/><rect x="30" y="570" width="10" height="10" fill="rgb(99,121,127)"/><rect x="40" y="570" width="10" height="10" fill="rgb(99,121,126)"/><rect x="50" y="570" width="10" height="10" fill="rgb(99,121,126)"/><rect x="60" y="570" width="10" height="10" fill="rgb(99,121,126)"/><rect x="70" y="570" width="10" height="10" fill="rgb(101,122,127)"/><rect x="80" y="570" width="10" height="10" fill="rgb(101,122,127)"/><rect x="90" y="570" width="10" height="10" fill="rgb(102,124,128)"/><rect x="0" y="580" width="10" height="10" fill="rgb(102,124,128)"/><rect x="10" y="580" width="10" height="10" fill="rgb(105,127,131)"/><rect x="20" y="580" width="10" height="10" fill="rgb(105,127,131)"/><rect x="30" y="580" width="10" height="10" fill="rgb(100,120,124)"/><rect x="40" y="580" width="10" height="10" fill="rgb(100,120,124)"/><rect x="50" y="580" width="10" height="10" fill="rgb(60,72,122)"/><rect x="60" y="580" width="10" height="10" fill="rgb(60,72,122)"/><rect x="70" y="580" width="10" height="10" fill="rgb(97,117,120)"/><rect x="80" y="580" width="10" height="10" fill="rgb(97,117,120)"/><rect x="90" y="580" width="10" height="10" fill="rgb(97,117,120)"/><rect x="0" y="590" width="10" height="10" fill="rgb(100,119,120)"/><rect x="10" y="590" width="10" height="10" fill="rgb(100,119,120)"/><rect x="20" y="590" width="10" height="10" fill="rgb(99,118,119)"/><rect x="30" y="590" width="10" height="10" fill="rgb(99,118,119)"/><rect x="40" y="590" width="10" height="10" fill="rgb(91,107,107)"/><rect x="50" y="590" width="10" height="10" fill="rgb(91,107,107)"/><rect x="60" y="590" width="10" height="10" fill="rgb(99,114,113)"/><rect x="70" y="590" width="10" height="10" fill="rgb(99,114,113)"/><rect x="80" y="590" width="10" height="10" fill="rgb(103,118,115)"/><rect x="90" y="590" width="10" height="10" fill="rgb(103,118,115)"/><rect x="0" y="600" width="10" height="10" fill="rgb(138,155,154)"/><rect x="10" y="600" width="10" height="10" fill="rgb(138,155,154)"/><rect x="20" y="600" width="10" height="10" fill="rgb(131,147,144)"/><rect x="30" y="600" width="10" height="10" fill="rgb(131,147,144)"/><rect x="40" y="600" width="10" height="10" fill="rgb(131,144,140)"/><rect x="50" y="600" width="10" height="10" fill="rgb(131,144,140)"/><rect x="60" y="600" width="10" height="10" fill="rgb(94,106,103)"/><rect x="70" y="600" width="10" height="10" fill="rgb(94,106,103)"/><rect x="80" y="600" width="10" height="10" fill="rgb(54,61,60)"/><rect x="90" y="600" width="10" height="10" fill="rgb(54,61,60)"/><rect x="0" y="610" width="10" height="10" fill="rgb(37,42,40)"/><rect x="10" y="610" width="10" height="10" fill="rgb(37,42,40)"/><rect x="20" y="610" width="10" height="10" fill="rgb(37,42,40)"/><rect x="30" y="610" width="10" height="10" fill="rgb(25,27,26)"/><rect x="40" y="610" width="10" height="10" fill="rgb(25,27,26)"/><rect x="50" y="610" width="10" height="10" fill="rgb(17,18,18)"/><rect x="60" y="610" width="10" height="10" fill="rgb(17,18,18)"/><rect x="70" y="610" width="10" height="10" fill="rgb(15,15,15)"/><rect x="80" y="610" width="10" height="10" fill="rgb(15,15,15)"/><rect x="90" y="610" width="10" height="10" fill="rgb(14,14,14)"/><rect x="0" y="620" width="10" height="10" fill="rgb(14,14,14)"/><rect x="10" y="620" width="10" height="10" fill="rgb(14,14,14)"/><rect x="20" y="620" width="10" height="10" fill="rgb(14,14,14)"/><rect x="30" y="620" width="10" height="10" fill="rgb(14,14,14)"/><rect x="40" y="620" width="10" height="10" fill="rgb(14,14,14)"/><rect x="50" y="620" width="10" height="10" fill="rgb(14,14,14)"/><rect x="60" y="620" width="10" height="10" fill="rgb(13,14,13)"/><rect x="70" y="620" width="10" height="10" fill="rgb(13,14,13)"/><rect x="80" y="620" width="10" height="10" fill="rgb(13,13,13)"/><rect x="90" y="620" width="10" height="10" fill="rgb(13,13,13)"/><rect x="0" y="630" width="10" height="10" fill="rgb(13,13,13)"/><rect x="10" y="630" width="10" height="10" fill="rgb(13,13,13)"/><rect x="20" y="630" width="10" height="10" fill="rgb(13,13,13)"/><rect x="30" y="630" width="10" height="10" fill="rgb(13,13,13)"/><rect x="40" y="630" width="10" height="10" fill="rgb(13,13,13)"/><rect x="50" y="630" width="10" height="10" fill="rgb(13,13,13)"/><rect x="60" y="630" width="10" height="10" fill="rgb(13,13,13)"/><rect x="70" y="630" width="10" height="10" fill="rgb(13,13,13)"/><rect x="80" y="630" width="10" height="10" fill="rgb(13,13,13)"/><rect x="90" y="630" width="10" height="10" fill="rgb(13,13,13)"/></svg>