<svg xmlns="http://www.w3.org/2000/svg" width="100" height="260"><rect x="0" y="0" width="10" height="10" fill="rgb(107,147,160)"/><rect x="10" y="0" width="10" height="10" fill="rgb(108,148,160)"/><rect x="20" y="0" width="10" height="10" fill="rgb(108,148,160)"/><rect x="30" y="0" width="10" height="10" fill="rgb(109,148,160)"/><rect x="40" y="0" width="10" height="10" fill="rgb(109,148,160)"/><rect x="50" y="0" width="10" height="10" fill="rgb(109,148,160)"/><rect x="60" y="0" width="10" height="10" fill="rgb(110,148,160)"/><rect x="70" y="0" width="10" height="10" fill="rgb(110,148,160)"/><rect x="80" y="0" width="10" height="10" fill="rgb(111,149,159)"/><rect x="90" y="0" width="10" height="10" fill="rgb(111,149,159)"/><rect x="0" y="10" width="10" height="10" fill="rgb(74,97,101)"/><rect x="10" y="10" width="10" height="10" fill="rgb(74,97,101)"/><rect x="20" y="10" width="10" height="10" fill="rgb(74,97,101)"/><rect x="30" y="10" width="10" height="10" fill="rgb(74,97,101)"/><rect x="40" y="10" width="10" height="10" fill="rgb(74,96,100)"/><rect x="50" y="10" width="10" height="10" fill="rgb(74,96,100)"/><rect x="60" y="10" width="10" height="10" fill="rgb(130,169,180)"/><rect x="70" y="10" width="10" height="10" fill="rgb(130,169,180)"/><rect x="80" y="10" width="10" height="10" fill="rgb(130,166,174)"/><rect x="90" y="10" width="10" height="10" fill="rgb(130,166,174)"/><rect x="0" y="20" width="10" height="10" fill="rgb(130,163,170)"/><rect x="10" y="20" width="10" height="10" fill="rgb(130,163,170)"/><rect x="20" y="20" width="10" height="10" fill="rgb(129,160,165)"/><rect x="30" y="20" width="10" height="10" fill="rgb(129,160,165)"/><rect x="40" y="20" width="10" height="10" fill="rgb(129,160,165)"/><rect x="50" y="20" width="10" height="10" fill="rgb(129,158,161)"/><rect x="60" y="20" width="10" height="10" fill="rgb(129,158,161)"/><rect x="70" y="20" width="10" height="10" fill="rgb(126,152,154)"/><rect x="80" y="20" width="10" height="10" fill="rgb(126,152,154)"/><rect x="90" y="20" width="10" height="10" fill="rgb(119,143,143)"/><rect x="0" y="30" width="10" height="10" fill="rgb(119,143,143)"/><rect x="10" y="30" width="10" height="10" fill="rgb(109,130,129)"/><rect x="20" y="30" width="10" height="10" fill="rgb(109,130,129)"/><rect x="30" y="30" width="10" height="10" fill="rgb(93,111,108)"/><rect x="40" y="30" width="10" height="10" fill="rgb(93,111,108)"/><rect x="50" y="30" width="10" height="10" fill="rgb(93,111,108)"/><rect x="60" y="30" width="10" height="10" fill="rgb(92,109,105)"/><rect x="70" y="30" width="10" height="10" fill="rgb(92,109,105)"/><rect x="80" y="30" width="10" height="10" fill="rgb(110,124,118)"/><rect x="90" y="30" width="10" height="10" fill="rgb(110,124,118)"/><rect x="0" y="40" width="10" height="10" fill="rgb(101,118,115)"/><rect x="10" y="40" width="10" height="10" fill="rgb(101,118,115)"/><rect x="20" y="40" width="10" height="10" fill="rgb(133,152,150)"/><rect x="30" y="40" width="10" height="10" fill="rgb(133,152,150)"/><rect x="40" y="40" width="10" height="10" fill="rgb(57,70,68)"/><rect x="50" y="40" width="10" height="10" fill="rgb(57,70,68)"/><rect x="60" y="40" width="10" height="10" fill="rgb(57,70,68)"/><rect x="70" y="40" width="10" height="10" fill="rgb(21,26,24)"/><rect x="80" y="40" width="10" height="10" fill="rgb(21,26,24)"/><rect x="90" y="40" width="10" height="10" fill="rgb(9,10,9)"/><rect x="0" y="50" width="10" height="10" fill="rgb(9,10,9)"/><rect x="10" y="50" width="10" height="10" fill="rgb(5,5,5)"/><rect x="20" y="50" width="10" height="10" fill="rgb(5,5,5)"/><rect x="30" y="50" width="10" height="10" fill="rgb(4,4,4)"/><rect x="40" y="50" width="10" height="10" fill="rgb(4,4,4)"/><rect x="50" y="50" width="10" height="10" fill="rgb(4,4,4)"/><rect x="60" y="50" width="10" height="10" fill="rgb(4,4,4)"/><rect x="70" y="50" width="10" height="10" fill="rgb(4,4,4)"/><rect x="80" y="50" width="10" height="10" fill="rgb(4,4,4)"/><rect x="90" y="50" width="10" height="10" fill="rgb(4,4,4)"/><rect x="0" y="60" width="10" height="10" fill="rgb(4,4,4)"/><rect x="10" y="60" width="10" height="10" fill="rgb(4,4,4)"/><rect x="20" y="60" width="10" height="10" fill="rgb(3,3,3)"/><rect x="30" y="60" width="10" height="10" fill="rgb(3,3,3)"/><rect x="40" y="60" width="10" height="10" fill="rgb(3,3,3)"/><rect x="50" y="60" width="10" height="10" fill="rgb(3,3,3)"/><rect x="60" y="60" width="10" height="10" fill="rgb(3,3,3)"/><rect x="70" y="60" width="10" height="10" fill="rgb(3,3,3)"/><rect x="80" y="60" width="10" height="10" fill="rgb(3,3,3)"/><rect x="90" y="60" width="10" height="10" fill="rgb(3,3,3)"/><rect x="0" y="70" width="10" height="10" fill="rgb(3,3,3)"/><rect x="10" y="70" width="10" height="10" fill="rgb(3,3,3)"/><rect x="20" y="70" width="10" height="10" fill="rgb(3,3,3)"/><rect x="30" y="70" width="10" height="10" fill="rgb(3,3,3)"/><rect x="40" y="70" width="10" height="10" fill="rgb(3,3,3)"/><rect x="50" y="70" width="10" height="10" fill="rgb(3,3,3)"/><rect x="60" y="70" width="10" height="10" fill="rgb(3,3,3)"/><rect x="70" y="70" width="10" height="10" fill="rgb(3,3,3)"/><rect x="80" y="70" width="10" height="10" fill="rgb(3,3,3)"/><rect x="90" y="70" width="10" height="10" fill="rgb(3,3,3)"/><rect x="0" y="80" width="10" height="10" fill="rgb(3,3,3)"/><rect x="10" y="80" width="10" height="10" fill="rgb(3,3,3)"/><rect x="20" y="80" width="10" height="10" fill="rgb(3,3,3)"/><rect x="30" y="80" width="10" height="10" fill="rgb(3,3,3)"/><rect x="40" y="80" width="10" height="10" fill="rgb(3,3,3)"/><rect x="50" y="80" width="10" height="10" fill="rgb(3,3,3)"/><rect x="60" y="80" width="10" height="10" fill="rgb(3,3,3)"/><rect x="70" y="80" width="10" height="10" fill="rgb(3,3,3)"/><rect x="80" y="80" width="10" height="10" fill="rgb(3,3,3)"/><rect x="90" y="80" width="10" height="10" fill="rgb(3,3,3)"/><rect x="0" y="90" width="10" height="10" fill="rgb(3,3,3)"/><rect x="10" y="90" width="10" height="10" fill="rgb(3,3,3)"/><rect x="20" y="90" width="10" height="10" fill="rgb(3,3,3)"/><rect x="30" y="90" width="10" height="10" fill="rgb(3,3,3)"/><rect x="40" y="90" width="10" height="10" fill="rgb(3,3,3)"/><rect x="50" y="90" width="10" height="10" fill="rgb(3,3,3)"/><rect x="60" y="90" width="10" height="10" fill="rgb(3,3,3)"/><rect x="70" y="90" width="10" height="10" fill="rgb(3,3,3)"/><rect x="80" y="90" width="10" height="10" fill="rgb(3,3,3)"/><rect x="90" y="90" width="10" height="10" fill="rgb(3,3,3)"/><rect x="0" y="100" width="10" height="10" fill="rgb(3,3,3)"/><rect x="10" y="100" width="10" height="10" fill="rgb(3,3,3)"/><rect x="20" y="100" width="10" height="10" fill="rgb(3,3,3)"/><rect x="30" y="100" width="10" height="10" fill="rgb(3,3,3)"/><rect x="40" y="100" width="10" height="10" fill="rgb(3,3,3)"/><rect x="50" y="100" width="10" height="10" fill="rgb(3,3,3)"/><rect x="60" y="100" width="10" height="10" fill="rgb(3,3,3)"/><rect x="70" y="100" width="10" height="10" fill="rgb(3,3,3)"/><rect x="80" y="100" width="10" height="10" fill="rgb(3,3,3)"/><rect x="90" y="100" width="10" height="10" fill="rgb(3,3,3)"/><rect x="0" y="110" width="10" height="10" fill="rgb(3,3,3)"/><rect x="10" y="110" width="10" height="10" fill="rgb(3,3,3)"/><rect x="20" y="110" width="10" height="10" fill="rgb(3,3,3)"/><rect x="30" y="110" width="10" height="10" fill="rgb(3,3,3)"/><rect x="40" y="110" width="10" height="10" fill="rgb(3,3,3)"/><rect x="50" y="110" width="10" height="10" fill="rgb(3,3,3)"/><rect x="60" y="110" width="10" height="10" fill="rgb(3,3,3)"/><rect x="70" y="110" width="10" height="10" fill="rgb(3,3,3)"/><rect x="80" y="110" width="10" height="10" fill="rgb(3,3,3)"/><rect x="90" y="110" width="10" height="10" fill="rgb(3,3,3)"/><rect x="0" y="120" width="10" height="10" fill="rgb(3,3,3)"/><rect x="10" y="120" width="10" height="10" fill="rgb(3,3,3)"/><rect x="20" y="120" width="10" height="10" fill="rgb(3,3,3)"/><rect x="30" y="120" width="10" height="10" fill="rgb(3,3,3)"/><rect x="40" y="120" width="10" height="10" fill="rgb(3,3,3)"/><rect x="50" y="120" width="10" height="10" fill="rgb(3,3,3)"/><rect x="60" y="120" width="10" height="10" fill="rgb(3,3,3)"/><rect x="70" y="120" width="10" height="10" fill="rgb(3,3,3)"/><rect x="80" y="120" width="10" height="10" fill="rgb(3,3,3)"/><rect x="90" y="120" width="10" height="10" fill="rgb(3,3,3)"/><rect x="0" y="130" width="10" height="10" fill="rgb(3,3,3)"/><rect x="10" y="130" width="10" height="10" fill="rgb(3,3,3)"/><rect x="20" y="130" width="10" height="10" fill="rgb(3,3,3)"/><rect x="30" y="130" width="10" height="10" fill="rgb(3,3,3)"/><rect x="40" y="130" width="10" height="10" fill="rgb(3,3,3)"/><rect x="50" y="130" width="10" height="10" fill="rgb(3,3,3)"/><rect x="60" y="130" width="10" height="10" fill="rgb(3,3,3)"/><rect x="70" y="130" width="10" height="10" fill="rgb(4,4,4)"/><rect x="80" y="130" width="10" height="10" fill="rgb(4,4,4)"/><rect x="90" y="130" width="10" height="10" fill="rgb(11,13,12)"/><rect x="0" y="140" width="10" height="10" fill="rgb(11,13,12)"/><rect x="10" y="140" width="10" height="10" fill="rgb(38,48,47)"/><rect x="20" y="140" width="10" height="10" fill="rgb(38,48,47)"/><rect x="30" y="140" width="10" height="10" fill="rgb(103,120,117)"/><rect x="40" y="140" width="10" height="10" fill="rgb(103,120,117)"/><rect x="50" y="140" width="10" height="10" fill="rgb(128,146,143)"/><rect x="60" y="140" width="10" height="10" fill="rgb(128,146,143)"/><rect x="70" y="140" width="10" height="10" fill="rgb(141,161,156)"/><rect x="80" y="140" width="10" height="10" fill="rgb(141,161,156)"/><rect x="90" y="140" width="10" height="10" fill="rgb(137,157,153)"/><rect x="0" y="150" width="10" height="10" fill="rgb(137,157,153)"/><rect x="10" y="150" width="10" height="10" fill="rgb(115,139,137)"/><rect x="20" y="150" width="10" height="10" fill="rgb(115,139,137)"/><rect x="30" y="150" width="10" height="10" fill="rgb(139,169,170)"/><rect x="40" y="150" width="10" height="10" fill="rgb(139,169,170)"/><rect x="50" y="150" width="10" height="10" fill="rgb(103,130,132)"/><rect x="60" y="150" width="10" height="10" fill="rgb(103,130,132)"/><rect x="70" y="150" width="10" height="10" fill="rgb(103,130,132)"/><rect x="80" y="150" width="10" height="10" fill="rgb(113,144,149)"/><rect x="90" y="150" width="10" height="10" fill="rgb(113,144,149)"/><rect x="0" y="160" width="10" height="10" fill="rgb(119,156,163)"/><rect x="10" y="160" width="10" height="10" fill="rgb(119,156,163)"/><rect x="20" y="160" width="10" height="10" fill="rgb(124,165,174)"/><rect x="30" y="160" width="10" height="10" fill="rgb(124,165,174)"/><rect x="40" y="160" width="10" height="10" fill="rgb(88,119,126)"/><rect x="50" y="160" width="10" height="10" fill="rgb(88,119,126)"/><rect x="60" y="160" width="10" height="10" fill="rgb(90,123,131)"/><rect x="70" y="160" width="10" height="10" fill="rgb(90,123,131)"/><rect x="80" y="160" width="10" height="10" fill="rgb(90,123,131)"/><rect x="90" y="160" width="10" height="10" fill="rgb(92,126,136)"/><rect x="0" y="170" width="10" height="10" fill="rgb(92,126,136)"/><rect x="10" y="170" width="10" height="10" fill="rgb(93,128,139)"/><rect x="20" y="170" width="10" height="10" fill="rgb(93,128,139)"/><rect x="30" y="170" width="10" height="10" fill="rgb(94,130,143)"/><rect x="40" y="170" width="10" height="10" fill="rgb(94,130,143)"/><rect x="50" y="170" width="10" height="10" fill="rgb(95,132,146)"/><rect x="60" y="170" width="10" height="10" fill="rgb(95,132,146)"/><rect x="70" y="170" width="10" height="10" fill="rgb(96,134,148)"/><rect x="80" y="170" width="10" height="10" fill="rgb(96,134,148)"/><rect x="90" y="170" width="10" height="10" fill="rgb(96,134,148)"/><rect x="0" y="180" width="10" height="10" fill="rgb(96,135,150)"/><rect x="10" y="180" width="10" height="10" fill="rgb(96,135,150)"/><rect x="20" y="180" width="10" height="10" fill="rgb(97,137,153)"/><rect x="30" y="180" width="10" height="10" fill="rgb(97,137,153)"/><rect x="40" y="180" width="10" height="10" fill="rgb(97,138,154)"/><rect x="50" y="180" width="10" height="10" fill="rgb(97,138,154)"/><rect x="60" y="180" width="10" height="10" fill="rgb(98,139,155)"/><rect x="70" y="180" width="10" height="10" fill="rgb(98,139,155)"/><rect x="80" y="180" width="10" height="10" fill="rgb(98,140,156)"/><rect x="90" y="180" width="10" height="10" fill="rgb(98,140,156)"/><rect x="0" y="190" width="10" height="10" fill="rgb(98,140,156)"/><rect x="10" y="190" width="10" height="10" fill="rgb(100,141,157)"/><rect x="20" y="190" width="10" height="10" fill="rgb(100,141,157)"/><rect x="30" y="190" width="10" height="10" fill="rgb(99,141,158)"/><rect x="40" y="190" width="10" height="10" fill="rgb(99,141,158)"/><rect x="50" y="190" width="10" height="10" fill="rgb(99,142,159)"/><rect x="60" y="190" width="10" height="10" fill="rgb(99,142,159)"/><rect x="70" y="190" width="10" height="10" fill="rgb(100,142,159)"/><rect x="80" y="190" width="10" height="10" fill="rgb(100,142,159)"/><rect x="90" y="190" width="10" height="10" fill="rgb(101,143,160)"/><rect x="0" y="200" width="10" height="10" fill="rgb(101,143,160)"/><rect x="10" y="200" width="10" height="10" fill="rgb(101,143,161)"/><rect x="20" y="200" width="10" height="10" fill="rgb(101,143,161)"/><rect x="30" y="200" width="10" height="10" fill="rgb(102,144,161)"/><rect x="40" y="200" width="10" height="10" fill="rgb(102,144,161)"/><rect x="50" y="200" width="10" height="10" fill="rgb(103,145,162)"/><rect x="60" y="200" width="10" height="10" fill="rgb(103,145,162)"/><rect x="70" y="200" width="10" height="10" fill="rgb(103,145,161)"/><rect x="80" y="200" width="10" height="10" fill="rgb(103,145,161)"/><rect x="90" y="200" width="10" height="10" fill="rgb(104,145,162)"/><rect x="0" y="210" width="10" height="10" fill="rgb(104,145,162)"/><rect x="10" y="210" width="10" height="10" fill="rgb(104,146,163)"/><rect x="20" y="210" width="10" height="10" fill="rgb(104,146,163)"/><rect x="30" y="210" width="10" height="10" fill="rgb(105,146,163)"/><rect x="40" y="210" width="10" height="10" fill="rgb(105,146,163)"/><rect x="50" y="210" width="10" height="10" fill="rgb(105,146,163)"/><rect x="60" y="210" width="10" height="10" fill="rgb(105,146,163)"/><rect x="70" y="210" width="10" height="10" fill="rgb(105,146,163)"/><rect x="80" y="210" width="10" height="10" fill="rgb(105,147,163)"/><rect x="90" y="210" width="10" height="10" fill="rgb(105,147,163)"/><rect x="0" y="220" width="10" height="10" fill="rgb(105,147,164)"/><rect x="10" y="220" width="10" height="10" fill="rgb(105,147,164)"/><rect x="20" y="220" width="10" height="10" fill="rgb(107,147,164)"/><rect x="30" y="220" width="10" height="10" fill="rgb(107,147,164)"/><rect x="40" y="220" width="10" height="10" fill="rgb(106,147,164)"/><rect x="50" y="220" width="10" height="10" fill="rgb(106,147,164)"/><rect x="60" y="220" width="10" height="10" fill="rgb(106,147,164)"/><rect x="70" y="220" width="10" height="10" fill="rgb(107,147,164)"/><rect x="80" y="220" width="10" height="10" fill="rgb(107,147,164)"/><rect x="90" y="220" width="10" height="10" fill="rgb(106,147,164)"/><rect x="0" y="230" width="10" height="10" fill="rgb(106,147,164)"/><rect x="10" y="230" width="10" height="10" fill="rgb(107,147,163)"/><rect x="20" y="230" width="10" height="10" fill="rgb(107,147,163)"/><rect x="30" y="230" width="10" height="10" fill="rgb(106,147,164)"/><rect x="40" y="230" width="10" height="10" fill="rgb(106,147,164)"/><rect x="50" y="230" width="10" height="10" fill="rgb(106,147,164)"/><rect x="60" y="230" width="10" height="10" fill="rgb(107,148,165)"/><rect x="70" y="230" width="10" height="10" fill="rgb(107,148,165)"/><rect x="80" y="230" width="10" height="10" fill="rgb(106,148,165)"/><rect x="90" y="230" width="10" height="10" fill="rgb(106,148,165)"/><rect x="0" y="240" width="10" height="10" fill="rgb(108,148,166)"/><rect x="10" y="240" width="10" height="10" fill="rgb(108,148,166)"/><rect x="20" y="240" width="10" height="10" fill="rgb(108,149,166)"/><rect x="30" y="240" width="10" height="10" fill="rgb(108,149,166)"/><rect x="40" y="240" width="10" height="10" fill="rgb(108,149,166)"/><rect x="50" y="240" width="10" height="10" fill="rgb(108,149,166)"/><rect x="60" y="240" width="10" height="10" fill="rgb(108,149,166)"/><rect x="70" y="240" width="10" height="10" fill="rgb(108,149,166)"/><rect x="80" y="240" width="10" height="10" fill="rgb(108,149,166)"/><rect x="90" y="240" width="10" height="10" fill="rgb(111,151,168)"/><rect x="0" y="250" width="10" height="10" fill="rgb(111,151,168)"/><rect x="10" y="250" width="10" height="10" fill="rgb(117,158,173)"/><rect x="20" y="250" width="10" height="10" fill="rgb(117,158,173)"/><rect x="30" y="250" width="10" height="10" fill="rgb(127,166,179)"/><rect x="40" y="250" width="10" height="10" fill="rgb(127,166,179)"/><rect x="50" y="250" width="10" height="10" fill="rgb(89,113,119)"/><rect x="60" y="250" width="10" height="10" fill="rgb(106,147,160)"/><rect x="70" y="250" width="10" height="10" fill="rgb(107,147,160)"/></svg>