<svg xmlns="http://www.w3.org/2000/svg" width="480" height="20"><rect x="0" y="0" width="10" height="10" fill="rgb(37,41,56)"/><rect x="10" y="0" width="10" height="10" fill="rgb(27,35,56)"/><rect x="20" y="0" width="10" height="10" fill="rgb(27,34,52)"/><rect x="30" y="0" width="10" height="10" fill="rgb(29,36,55)"/><rect x="40" y="0" width="10" height="10" fill="rgb(29,36,57)"/><rect x="50" y="0" width="10" height="10" fill="rgb(29,36,56)"/><rect x="60" y="0" width="10" height="10" fill="rgb(29,36,56)"/><rect x="70" y="0" width="10" height="10" fill="rgb(29,36,56)"/><rect x="80" y="0" width="10" height="10" fill="rgb(29,36,56)"/><rect x="90" y="0" width="10" height="10" fill="rgb(29,35,56)"/><rect x="100" y="0" width="10" height="10" fill="rgb(29,35,56)"/><rect x="110" y="0" width="10" height="10" fill="rgb(29,36,56)"/><rect x="120" y="0" width="10" height="10" fill="rgb(29,35,56)"/><rect x="130" y="0" width="10" height="10" fill="rgb(28,35,56)"/><rect x="140" y="0" width="10" height="10" fill="rgb(27,34,53)"/><rect x="150" y="0" width="10" height="10" fill="rgb(27,34,53)"/><rect x="160" y="0" width="10" height="10" fill="rgb(27,34,53)"/><rect x="170" y="0" width="10" height="10" fill="rgb(27,34,53)"/><rect x="180" y="0" width="10" height="10" fill="rgb(27,34,53)"/><rect x="190" y="0" width="10" height="10" fill="rgb(28,33,50)"/><rect x="200" y="0" width="10" height="10" fill="rgb(28,33,51)"/><rect x="210" y="0" width="10" height="10" fill="rgb(29,34,51)"/><rect x="220" y="0" width="10" height="10" fill="rgb(28,34,51)"/><rect x="230" y="0" width="10" height="10" fill="rgb(28,33,53)"/><rect x="240" y="0" width="10" height="10" fill="rgb(28,34,53)"/><rect x="250" y="0" width="10" height="10" fill="rgb(28,33,53)"/><rect x="260" y="0" width="10" height="10" fill="rgb(28,32,51)"/><rect x="270" y="0" width="10" height="10" fill="rgb(28,32,51)"/><rect x="280" y="0" width="10" height="10" fill="rgb(28,32,51)"/><rect x="290" y="0" width="10" height="10" fill="rgb(29,33,51)"/><rect x="300" y="0" width="10" height="10" fill="rgb(28,32,51)"/><rect x="310" y="0" width="10" height="10" fill="rgb(28,33,51)"/><rect x="320" y="0" width="10" height="10" fill="rgb(28,32,51)"/><rect x="330" y="0" width="10" height="10" fill="rgb(28,32,51)"/><rect x="340" y="0" width="10" height="10" fill="rgb(28,32,51)"/><rect x="350" y="0" width="10" height="10" fill="rgb(27,32,51)"/><rect x="360" y="0" width="10" height="10" fill="rgb(28,32,51)"/><rect x="370" y="0" width="10" height="10" fill="rgb(28,32,51)"/><rect x="380" y="0" width="10" height="10" fill="rgb(28,32,51)"/><rect x="390" y="0" width="10" height="10" fill="rgb(28,32,51)"/><rect x="400" y="0" width="10" height="10" fill="rgb(28,32,51)"/><rect x="410" y="0" width="10" height="10" fill="rgb(27,32,51)"/><rect x="420" y="0" width="10" height="10" fill="rgb(28,32,51)"/><rect x="430" y="0" width="10" height="10" fill="rgb(30,33,48)"/><rect x="440" y="0" width="10" height="10" fill="rgb(30,33,48)"/><rect x="450" y="0" width="10" height="10" fill="rgb(31,34,49)"/><rect x="460" y="0" width="10" height="10" fill="rgb(31,34,52)"/><rect x="470" y="0" width="10" height="10" fill="rgb(141,198,255)"/><rect x="0" y="10" width="10" height="10" fill="rgb(243,251,255)"/><rect x="10" y="10" width="10" height="10" fill="rgb(252,253,254)"/><rect x="20" y="10" width="10" height="10" fill="rgb(252,254,254)"/></svg>