<svg xmlns="http://www.w3.org/2000/svg" width="480" height="70"><rect x="0" y="0" width="10" height="10" fill="rgb(25,27,43)"/><rect x="10" y="0" width="10" height="10" fill="rgb(17,21,43)"/><rect x="20" y="0" width="10" height="10" fill="rgb(17,21,40)"/><rect x="30" y="0" width="10" height="10" fill="rgb(19,23,44)"/><rect x="40" y="0" width="10" height="10" fill="rgb(19,23,44)"/><rect x="50" y="0" width="10" height="10" fill="rgb(19,22,44)"/><rect x="60" y="0" width="10" height="10" fill="rgb(19,22,43)"/><rect x="70" y="0" width="10" height="10" fill="rgb(19,22,43)"/><rect x="80" y="0" width="10" height="10" fill="rgb(19,22,43)"/><rect x="90" y="0" width="10" height="10" fill="rgb(19,22,44)"/><rect x="100" y="0" width="10" height="10" fill="rgb(19,22,42)"/><rect x="110" y="0" width="10" height="10" fill="rgb(19,22,43)"/><rect x="120" y="0" width="10" height="10" fill="rgb(19,22,43)"/><rect x="130" y="0" width="10" height="10" fill="rgb(18,21,44)"/><rect x="140" y="0" width="10" height="10" fill="rgb(17,21,40)"/><rect x="150" y="0" width="10" height="10" fill="rgb(18,21,41)"/><rect x="160" y="0" width="10" height="10" fill="rgb(18,21,41)"/><rect x="170" y="0" width="10" height="10" fill="rgb(18,21,40)"/><rect x="180" y="0" width="10" height="10" fill="rgb(18,21,40)"/><rect x="190" y="0" width="10" height="10" fill="rgb(19,21,40)"/><rect x="200" y="0" width="10" height="10" fill="rgb(19,22,41)"/><rect x="210" y="0" width="10" height="10" fill="rgb(19,21,40)"/><rect x="220" y="0" width="10" height="10" fill="rgb(19,21,41)"/><rect x="230" y="0" width="10" height="10" fill="rgb(18,19,41)"/><rect x="240" y="0" width="10" height="10" fill="rgb(17,20,40)"/><rect x="250" y="0" width="10" height="10" fill="rgb(18,19,41)"/><rect x="260" y="0" width="10" height="10" fill="rgb(19,20,41)"/><rect x="270" y="0" width="10" height="10" fill="rgb(18,20,41)"/><rect x="280" y="0" width="10" height="10" fill="rgb(18,20,41)"/><rect x="290" y="0" width="10" height="10" fill="rgb(19,21,42)"/><rect x="300" y="0" width="10" height="10" fill="rgb(19,21,42)"/><rect x="310" y="0" width="10" height="10" fill="rgb(21,24,45)"/><rect x="320" y="0" width="10" height="10" fill="rgb(19,21,43)"/><rect x="330" y="0" width="10" height="10" fill="rgb(18,20,42)"/><rect x="340" y="0" width="10" height="10" fill="rgb(19,21,42)"/><rect x="350" y="0" width="10" height="10" fill="rgb(18,20,42)"/><rect x="360" y="0" width="10" height="10" fill="rgb(19,21,42)"/><rect x="370" y="0" width="10" height="10" fill="rgb(19,21,43)"/><rect x="380" y="0" width="10" height="10" fill="rgb(18,20,42)"/><rect x="390" y="0" width="10" height="10" fill="rgb(18,20,42)"/><rect x="400" y="0" width="10" height="10" fill="rgb(18,20,42)"/><rect x="410" y="0" width="10" height="10" fill="rgb(18,20,42)"/><rect x="420" y="0" width="10" height="10" fill="rgb(19,21,43)"/><rect x="430" y="0" width="10" height="10" fill="rgb(17,18,37)"/><rect x="440" y="0" width="10" height="10" fill="rgb(16,17,36)"/><rect x="450" y="0" width="10" height="10" fill="rgb(16,18,37)"/><rect x="460" y="0" width="10" height="10" fill="rgb(16,19,42)"/><rect x="470" y="0" width="10" height="10" fill="rgb(139,195,252)"/><rect x="0" y="10" width="10" height="10" fill="rgb(244,249,252)"/><rect x="10" y="10" width="10" height="10" fill="rgb(251,251,251)"/><rect x="20" y="10" width="10" height="10" fill="rgb(252,251,251)"/><rect x="30" y="10" width="10" height="10" fill="rgb(251,251,252)"/><rect x="40" y="10" width="10" height="10" fill="rgb(252,251,252)"/><rect x="50" y="10" width="10" height="10" fill="rgb(253,252,252)"/><rect x="60" y="10" width="10" height="10" fill="rgb(253,252,252)"/><rect x="70" y="10" width="10" height="10" fill="rgb(252,251,252)"/><rect x="80" y="10" width="10" height="10" fill="rgb(253,251,252)"/><rect x="90" y="10" width="10" height="10" fill="rgb(252,251,252)"/><rect x="100" y="10" width="10" height="10" fill="rgb(242,251,251)"/><rect x="110" y="10" width="10" height="10" fill="rgb(232,248,251)"/><rect x="120" y="10" width="10" height="10" fill="rgb(222,244,251)"/><rect x="130" y="10" width="10" height="10" fill="rgb(249,249,249)"/><rect x="140" y="10" width="10" height="10" fill="rgb(227,233,242)"/><rect x="150" y="10" width="10" height="10" fill="rgb(198,209,227)"/><rect x="160" y="10" width="10" height="10" fill="rgb(208,214,227)"/><rect x="170" y="10" width="10" height="10" fill="rgb(189,203,225)"/><rect x="180" y="10" width="10" height="10" fill="rgb(228,233,244)"/><rect x="190" y="10" width="10" height="10" fill="rgb(133,165,206)"/><rect x="200" y="10" width="10" height="10" fill="rgb(160,181,212)"/><rect x="210" y="10" width="10" height="10" fill="rgb(159,174,197)"/><rect x="220" y="10" width="10" height="10" fill="rgb(158,171,190)"/><rect x="230" y="10" width="10" height="10" fill="rgb(193,196,208)"/><rect x="240" y="10" width="10" height="10" fill="rgb(184,192,207)"/><rect x="250" y="10" width="10" height="10" fill="rgb(187,200,220)"/><rect x="260" y="10" width="10" height="10" fill="rgb(183,200,226)"/><rect x="270" y="10" width="10" height="10" fill="rgb(135,161,195)"/><rect x="280" y="10" width="10" height="10" fill="rgb(123,149,175)"/><rect x="290" y="10" width="10" height="10" fill="rgb(128,152,177)"/><rect x="300" y="10" width="10" height="10" fill="rgb(167,181,201)"/><rect x="310" y="10" width="10" height="10" fill="rgb(199,213,235)"/><rect x="320" y="10" width="10" height="10" fill="rgb(174,191,215)"/><rect x="330" y="10" width="10" height="10" fill="rgb(205,218,236)"/><rect x="340" y="10" width="10" height="10" fill="rgb(240,240,247)"/><rect x="350" y="10" width="10" height="10" fill="rgb(232,234,244)"/><rect x="360" y="10" width="10" height="10" fill="rgb(252,251,251)"/><rect x="370" y="10" width="10" height="10" fill="rgb(248,250,251)"/><rect x="380" y="10" width="10" height="10" fill="rgb(201,226,250)"/><rect x="390" y="10" width="10" height="10" fill="rgb(179,212,248)"/><rect x="400" y="10" width="10" height="10" fill="rgb(196,218,244)"/><rect x="410" y="10" width="10" height="10" fill="rgb(161,201,243)"/><rect x="420" y="10" width="10" height="10" fill="rgb(157,197,241)"/><rect x="430" y="10" width="10" height="10" fill="rgb(156,196,241)"/><rect x="440" y="10" width="10" height="10" fill="rgb(156,196,239)"/><rect x="450" y="10" width="10" height="10" fill="rgb(151,192,237)"/><rect x="460" y="10" width="10" height="10" fill="rgb(151,191,235)"/><rect x="470" y="10" width="10" height="10" fill="rgb(149,190,234)"/><rect x="0" y="20" width="10" height="10" fill="rgb(145,187,232)"/><rect x="10" y="20" width="10" height="10" fill="rgb(143,184,230)"/><rect x="20" y="20" width="10" height="10" fill="rgb(142,183,228)"/><rect x="30" y="20" width="10" height="10" fill="rgb(157,191,230)"/><rect x="40" y="20" width="10" height="10" fill="rgb(144,182,226)"/><rect x="50" y="20" width="10" height="10" fill="rgb(150,185,227)"/><rect x="60" y="20" width="10" height="10" fill="rgb(180,201,230)"/><rect x="70" y="20" width="10" height="10" fill="rgb(155,186,225)"/><rect x="80" y="20" width="10" height="10" fill="rgb(162,191,226)"/><rect x="90" y="20" width="10" height="10" fill="rgb(148,181,221)"/><rect x="100" y="20" width="10" height="10" fill="rgb(172,194,226)"/><rect x="110" y="20" width="10" height="10" fill="rgb(141,175,217)"/><rect x="120" y="20" width="10" height="10" fill="rgb(121,163,211)"/><rect x="130" y="20" width="10" height="10" fill="rgb(119,161,210)"/><rect x="140" y="20" width="10" height="10" fill="rgb(117,159,208)"/><rect x="150" y="20" width="10" height="10" fill="rgb(115,158,207)"/><rect x="160" y="20" width="10" height="10" fill="rgb(112,156,206)"/><rect x="170" y="20" width="10" height="10" fill="rgb(248,249,229)"/><rect x="180" y="20" width="10" height="10" fill="rgb(248,249,229)"/><rect x="190" y="20" width="10" height="10" fill="rgb(248,249,229)"/><rect x="200" y="20" width="10" height="10" fill="rgb(248,249,229)"/><rect x="210" y="20" width="10" height="10" fill="rgb(248,249,229)"/><rect x="220" y="20" width="10" height="10" fill="rgb(248,249,229)"/><rect x="230" y="20" width="10" height="10" fill="rgb(248,249,229)"/><rect x="240" y="20" width="10" height="10" fill="rgb(248,249,229)"/><rect x="250" y="20" width="10" height="10" fill="rgb(248,249,229)"/><rect x="260" y="20" width="10" height="10" fill="rgb(248,249,229)"/><rect x="270" y="20" width="10" height="10" fill="rgb(248,249,229)"/><rect x="280" y="20" width="10" height="10" fill="rgb(248,249,229)"/><rect x="290" y="20" width="10" height="10" fill="rgb(248,249,229)"/><rect x="300" y="20" width="10" height="10" fill="rgb(248,249,229)"/><rect x="310" y="20" width="10" height="10" fill="rgb(248,249,229)"/><rect x="320" y="20" width="10" height="10" fill="rgb(248,249,229)"/><rect x="330" y="20" width="10" height="10" fill="rgb(248,249,229)"/><rect x="340" y="20" width="10" height="10" fill="rgb(248,249,229)"/><rect x="350" y="20" width="10" height="10" fill="rgb(248,249,229)"/><rect x="360" y="20" width="10" height="10" fill="rgb(248,249,229)"/><rect x="370" y="20" width="10" height="10" fill="rgb(248,249,229)"/><rect x="380" y="20" width="10" height="10" fill="rgb(248,249,229)"/><rect x="390" y="20" width="10" height="10" fill="rgb(248,249,229)"/><rect x="400" y="20" width="10" height="10" fill="rgb(248,249,229)"/><rect x="410" y="20" width="10" height="10" fill="rgb(248,249,229)"/><rect x="420" y="20" width="10" height="10" fill="rgb(248,249,229)"/><rect x="430" y="20" width="10" height="10" fill="rgb(248,249,229)"/><rect x="440" y="20" width="10" height="10" fill="rgb(248,249,229)"/><rect x="450" y="20" width="10" height="10" fill="rgb(248,249,229)"/><rect x="460" y="20" width="10" height="10" fill="rgb(248,249,229)"/><rect x="470" y="20" width="10" height="10" fill="rgb(248,249,229)"/><rect x="0" y="30" width="10" height="10" fill="rgb(248,249,229)"/><rect x="10" y="30" width="10" height="10" fill="rgb(248,249,229)"/><rect x="20" y="30" width="10" height="10" fill="rgb(248,249,229)"/><rect x="30" y="30" width="10" height="10" fill="rgb(248,249,229)"/><rect x="40" y="30" width="10" height="10" fill="rgb(248,249,229)"/><rect x="50" y="30" width="10" height="10" fill="rgb(248,249,229)"/><rect x="60" y="30" width="10" height="10" fill="rgb(248,249,229)"/><rect x="70" y="30" width="10" height="10" fill="rgb(248,249,229)"/><rect x="80" y="30" width="10" height="10" fill="rgb(248,249,229)"/><rect x="90" y="30" width="10" height="10" fill="rgb(248,249,229)"/><rect x="100" y="30" width="10" height="10" fill="rgb(248,249,229)"/><rect x="110" y="30" width="10" height="10" fill="rgb(248,249,229)"/><rect x="120" y="30" width="10" height="10" fill="rgb(248,249,229)"/><rect x="130" y="30" width="10" height="10" fill="rgb(89,143,190)"/><rect x="140" y="30" width="10" height="10" fill="rgb(90,143,190)"/><rect x="150" y="30" width="10" height="10" fill="rgb(90,143,190)"/><rect x="160" y="30" width="10" height="10" fill="rgb(92,145,192)"/><rect x="170" y="30" width="10" height="10" fill="rgb(97,151,199)"/><rect x="180" y="30" width="10" height="10" fill="rgb(79,137,197)"/><rect x="190" y="30" width="10" height="10" fill="rgb(80,139,199)"/><rect x="200" y="30" width="10" height="10" fill="rgb(81,139,200)"/><rect x="210" y="30" width="10" height="10" fill="rgb(81,139,200)"/><rect x="220" y="30" width="10" height="10" fill="rgb(85,144,206)"/><rect x="230" y="30" width="10" height="10" fill="rgb(87,146,209)"/><rect x="240" y="30" width="10" height="10" fill="rgb(88,147,210)"/><rect x="250" y="30" width="10" height="10" fill="rgb(91,149,211)"/><rect x="260" y="30" width="10" height="10" fill="rgb(100,156,219)"/><rect x="270" y="30" width="10" height="10" fill="rgb(105,159,220)"/><rect x="280" y="30" width="10" height="10" fill="rgb(108,161,222)"/><rect x="290" y="30" width="10" height="10" fill="rgb(113,164,223)"/><rect x="300" y="30" width="10" height="10" fill="rgb(124,170,226)"/><rect x="310" y="30" width="10" height="10" fill="rgb(139,180,231)"/><rect x="320" y="30" width="10" height="10" fill="rgb(155,191,238)"/><rect x="330" y="30" width="10" height="10" fill="rgb(165,199,243)"/><rect x="340" y="30" width="10" height="10" fill="rgb(158,196,242)"/><rect x="350" y="30" width="10" height="10" fill="rgb(154,194,243)"/><rect x="360" y="30" width="10" height="10" fill="rgb(152,196,247)"/><rect x="370" y="30" width="10" height="10" fill="rgb(210,232,251)"/><rect x="380" y="30" width="10" height="10" fill="rgb(201,232,251)"/><rect x="390" y="30" width="10" height="10" fill="rgb(181,212,249)"/><rect x="400" y="30" width="10" height="10" fill="rgb(173,212,251)"/><rect x="410" y="30" width="10" height="10" fill="rgb(178,216,251)"/><rect x="420" y="30" width="10" height="10" fill="rgb(182,214,250)"/><rect x="430" y="30" width="10" height="10" fill="rgb(201,224,250)"/><rect x="440" y="30" width="10" height="10" fill="rgb(200,223,250)"/><rect x="450" y="30" width="10" height="10" fill="rgb(204,217,238)"/><rect x="460" y="30" width="10" height="10" fill="rgb(211,220,238)"/><rect x="470" y="30" width="10" height="10" fill="rgb(220,233,249)"/><rect x="0" y="40" width="10" height="10" fill="rgb(232,241,251)"/><rect x="10" y="40" width="10" height="10" fill="rgb(232,235,245)"/><rect x="20" y="40" width="10" height="10" fill="rgb(203,213,231)"/><rect x="30" y="40" width="10" height="10" fill="rgb(216,222,236)"/><rect x="40" y="40" width="10" height="10" fill="rgb(228,228,238)"/><rect x="50" y="40" width="10" height="10" fill="rgb(229,241,251)"/><rect x="60" y="40" width="10" height="10" fill="rgb(221,233,246)"/><rect x="70" y="40" width="10" height="10" fill="rgb(191,200,218)"/><rect x="80" y="40" width="10" height="10" fill="rgb(238,244,250)"/><rect x="90" y="40" width="10" height="10" fill="rgb(179,193,214)"/><rect x="100" y="40" width="10" height="10" fill="rgb(176,189,209)"/><rect x="110" y="40" width="10" height="10" fill="rgb(191,201,219)"/><rect x="120" y="40" width="10" height="10" fill="rgb(202,201,215)"/><rect x="130" y="40" width="10" height="10" fill="rgb(221,211,220)"/><rect x="140" y="40" width="10" height="10" fill="rgb(195,197,207)"/><rect x="150" y="40" width="10" height="10" fill="rgb(169,187,210)"/><rect x="160" y="40" width="10" height="10" fill="rgb(138,160,191)"/><rect x="170" y="40" width="10" height="10" fill="rgb(84,120,176)"/><rect x="180" y="40" width="10" height="10" fill="rgb(51,82,130)"/><rect x="190" y="40" width="10" height="10" fill="rgb(36,57,99)"/><rect x="200" y="40" width="10" height="10" fill="rgb(28,42,71)"/><rect x="210" y="40" width="10" height="10" fill="rgb(27,35,57)"/><rect x="220" y="40" width="10" height="10" fill="rgb(30,37,55)"/><rect x="230" y="40" width="10" height="10" fill="rgb(31,35,51)"/><rect x="240" y="40" width="10" height="10" fill="rgb(30,35,50)"/><rect x="250" y="40" width="10" height="10" fill="rgb(29,30,43)"/><rect x="260" y="40" width="10" height="10" fill="rgb(28,29,43)"/><rect x="270" y="40" width="10" height="10" fill="rgb(28,29,43)"/><rect x="280" y="40" width="10" height="10" fill="rgb(29,31,44)"/><rect x="290" y="40" width="10" height="10" fill="rgb(30,32,45)"/><rect x="300" y="40" width="10" height="10" fill="rgb(29,31,44)"/><rect x="310" y="40" width="10" height="10" fill="rgb(28,31,43)"/><rect x="320" y="40" width="10" height="10" fill="rgb(28,29,42)"/><rect x="330" y="40" width="10" height="10" fill="rgb(28,30,42)"/><rect x="340" y="40" width="10" height="10" fill="rgb(28,30,43)"/><rect x="350" y="40" width="10" height="10" fill="rgb(28,30,43)"/><rect x="360" y="40" width="10" height="10" fill="rgb(28,29,43)"/><rect x="370" y="40" width="10" height="10" fill="rgb(28,29,42)"/><rect x="380" y="40" width="10" height="10" fill="rgb(30,30,44)"/><rect x="390" y="40" width="10" height="10" fill="rgb(30,32,45)"/><rect x="400" y="40" width="10" height="10" fill="rgb(33,36,50)"/><rect x="410" y="40" width="10" height="10" fill="rgb(31,34,48)"/><rect x="420" y="40" width="10" height="10" fill="rgb(29,31,44)"/><rect x="430" y="40" width="10" height="10" fill="rgb(31,32,46)"/><rect x="440" y="40" width="10" height="10" fill="rgb(32,35,47)"/><rect x="450" y="40" width="10" height="10" fill="rgb(29,29,42)"/><rect x="460" y="40" width="10" height="10" fill="rgb(29,30,44)"/><rect x="470" y="40" width="10" height="10" fill="rgb(28,28,42)"/><rect x="0" y="50" width="10" height="10" fill="rgb(28,29,42)"/><rect x="10" y="50" width="10" height="10" fill="rgb(30,32,44)"/><rect x="20" y="50" width="10" height="10" fill="rgb(29,30,43)"/><rect x="30" y="50" width="10" height="10" fill="rgb(29,31,43)"/><rect x="40" y="50" width="10" height="10" fill="rgb(30,31,44)"/><rect x="50" y="50" width="10" height="10" fill="rgb(32,35,48)"/><rect x="60" y="50" width="10" height="10" fill="rgb(30,31,44)"/><rect x="70" y="50" width="10" height="10" fill="rgb(30,30,43)"/><rect x="80" y="50" width="10" height="10" fill="rgb(26,33,47)"/><rect x="90" y="50" width="10" height="10" fill="rgb(31,40,59)"/><rect x="100" y="50" width="10" height="10" fill="rgb(24,32,49)"/><rect x="110" y="50" width="10" height="10" fill="rgb(23,28,45)"/><rect x="120" y="50" width="10" height="10" fill="rgb(24,30,46)"/><rect x="130" y="50" width="10" height="10" fill="rgb(23,30,46)"/><rect x="140" y="50" width="10" height="10" fill="rgb(23,29,44)"/><rect x="150" y="50" width="10" height="10" fill="rgb(24,32,45)"/><rect x="160" y="50" width="10" height="10" fill="rgb(24,29,43)"/><rect x="170" y="50" width="10" height="10" fill="rgb(23,27,41)"/><rect x="180" y="50" width="10" height="10" fill="rgb(26,32,44)"/><rect x="190" y="50" width="10" height="10" fill="rgb(28,35,57)"/><rect x="200" y="50" width="10" height="10" fill="rgb(30,37,59)"/><rect x="210" y="50" width="10" height="10" fill="rgb(34,42,63)"/><rect x="220" y="50" width="10" height="10" fill="rgb(34,43,63)"/><rect x="230" y="50" width="10" height="10" fill="rgb(35,43,63)"/><rect x="240" y="50" width="10" height="10" fill="rgb(32,38,59)"/><rect x="250" y="50" width="10" height="10" fill="rgb(35,42,63)"/><rect x="260" y="50" width="10" height="10" fill="rgb(27,32,53)"/><rect x="270" y="50" width="10" height="10" fill="rgb(24,28,49)"/><rect x="280" y="50" width="10" height="10" fill="rgb(27,30,51)"/><rect x="290" y="50" width="10" height="10" fill="rgb(26,30,50)"/><rect x="300" y="50" width="10" height="10" fill="rgb(21,22,42)"/><rect x="310" y="50" width="10" height="10" fill="rgb(20,22,41)"/><rect x="320" y="50" width="10" height="10" fill="rgb(20,22,41)"/><rect x="330" y="50" width="10" height="10" fill="rgb(21,22,41)"/><rect x="340" y="50" width="10" height="10" fill="rgb(21,21,42)"/><rect x="350" y="50" width="10" height="10" fill="rgb(20,22,41)"/><rect x="360" y="50" width="10" height="10" fill="rgb(20,21,41)"/><rect x="370" y="50" width="10" height="10" fill="rgb(21,21,41)"/><rect x="380" y="50" width="10" height="10" fill="rgb(21,21,41)"/><rect x="390" y="50" width="10" height="10" fill="rgb(21,21,40)"/><rect x="400" y="50" width="10" height="10" fill="rgb(21,22,42)"/><rect x="410" y="50" width="10" height="10" fill="rgb(20,21,40)"/><rect x="420" y="50" width="10" height="10" fill="rgb(21,21,40)"/><rect x="430" y="50" width="10" height="10" fill="rgb(20,21,40)"/><rect x="440" y="50" width="10" height="10" fill="rgb(21,21,41)"/><rect x="450" y="50" width="10" height="10" fill="rgb(20,21,40)"/><rect x="460" y="50" width="10" height="10" fill="rgb(20,21,39)"/><rect x="470" y="50" width="10" height="10" fill="rgb(20,21,39)"/><rect x="0" y="60" width="10" height="10" fill="rgb(20,21,39)"/><rect x="10" y="60" width="10" height="10" fill="rgb(20,21,40)"/><rect x="20" y="60" width="10" height="10" fill="rgb(20,21,39)"/><rect x="30" y="60" width="10" height="10" fill="rgb(20,21,39)"/><rect x="40" y="60" width="10" height="10" fill="rgb(20,20,38)"/><rect x="50" y="60" width="10" height="10" fill="rgb(20,20,38)"/><rect x="60" y="60" width="10" height="10" fill="rgb(19,20,38)"/><rect x="70" y="60" width="10" height="10" fill="rgb(20,20,37)"/><rect x="80" y="60" width="10" height="10" fill="rgb(20,20,36)"/><rect x="90" y="60" width="10" height="10" fill="rgb(19,20,37)"/><rect x="100" y="60" width="10" height="10" fill="rgb(20,20,36)"/><rect x="110" y="60" width="10" height="10" fill="rgb(20,20,36)"/><rect x="120" y="60" width="10" height="10" fill="rgb(20,20,37)"/><rect x="130" y="60" width="10" height="10" fill="rgb(19,20,36)"/><rect x="140" y="60" width="10" height="10" fill="rgb(20,20,36)"/><rect x="150" y="60" width="10" height="10" fill="rgb(21,21,37)"/><rect x="160" y="60" width="10" height="10" fill="rgb(19,20,36)"/><rect x="170" y="60" width="10" height="10" fill="rgb(19,20,36)"/><rect x="180" y="60" width="10" height="10" fill="rgb(19,20,36)"/><rect x="190" y="60" width="10" height="10" fill="rgb(19,19,36)"/><rect x="200" y="60" width="10" height="10" fill="rgb(19,20,36)"/><rect x="210" y="60" width="10" height="10" fill="rgb(20,20,36)"/><rect x="220" y="60" width="10" height="10" fill="rgb(19,20,38)"/><rect x="230" y="60" width="10" height="10" fill="rgb(19,19,38)"/></svg>