<svg xmlns="http://www.w3.org/2000/svg" width="100" height="270"><rect x="0" y="0" width="10" height="10" fill="rgb(191,203,213)"/><rect x="10" y="0" width="10" height="10" fill="rgb(190,202,212)"/><rect x="20" y="0" width="10" height="10" fill="rgb(192,203,211)"/><rect x="30" y="0" width="10" height="10" fill="rgb(187,198,205)"/><rect x="40" y="0" width="10" height="10" fill="rgb(185,193,196)"/><rect x="50" y="0" width="10" height="10" fill="rgb(188,193,195)"/><rect x="60" y="0" width="10" height="10" fill="rgb(187,194,196)"/><rect x="70" y="0" width="10" height="10" fill="rgb(188,196,201)"/><rect x="80" y="0" width="10" height="10" fill="rgb(194,197,198)"/><rect x="90" y="0" width="10" height="10" fill="rgb(192,196,197)"/><rect x="0" y="10" width="10" height="10" fill="rgb(194,201,201)"/><rect x="10" y="10" width="10" height="10" fill="rgb(200,203,204)"/><rect x="20" y="10" width="10" height="10" fill="rgb(200,203,205)"/><rect x="30" y="10" width="10" height="10" fill="rgb(202,205,206)"/><rect x="40" y="10" width="10" height="10" fill="rgb(200,204,208)"/><rect x="50" y="10" width="10" height="10" fill="rgb(201,204,206)"/><rect x="60" y="10" width="10" height="10" fill="rgb(198,204,205)"/><rect x="70" y="10" width="10" height="10" fill="rgb(196,202,204)"/><rect x="80" y="10" width="10" height="10" fill="rgb(192,200,199)"/><rect x="90" y="10" width="10" height="10" fill="rgb(189,197,200)"/><rect x="0" y="20" width="10" height="10" fill="rgb(186,195,197)"/><rect x="10" y="20" width="10" height="10" fill="rgb(179,190,194)"/><rect x="20" y="20" width="10" height="10" fill="rgb(177,188,193)"/><rect x="30" y="20" width="10" height="10" fill="rgb(172,185,191)"/><rect x="40" y="20" width="10" height="10" fill="rgb(185,194,202)"/><rect x="50" y="20" width="10" height="10" fill="rgb(195,200,203)"/><rect x="60" y="20" width="10" height="10" fill="rgb(196,201,205)"/><rect x="70" y="20" width="10" height="10" fill="rgb(196,202,205)"/><rect x="80" y="20" width="10" height="10" fill="rgb(199,202,205)"/><rect x="90" y="20" width="10" height="10" fill="rgb(199,203,206)"/><rect x="0" y="30" width="10" height="10" fill="rgb(199,205,206)"/><rect x="10" y="30" width="10" height="10" fill="rgb(201,205,208)"/><rect x="20" y="30" width="10" height="10" fill="rgb(202,206,208)"/><rect x="30" y="30" width="10" height="10" fill="rgb(201,207,210)"/><rect x="40" y="30" width="10" height="10" fill="rgb(202,207,210)"/><rect x="50" y="30" width="10" height="10" fill="rgb(205,208,210)"/><rect x="60" y="30" width="10" height="10" fill="rgb(204,209,212)"/><rect x="70" y="30" width="10" height="10" fill="rgb(203,210,212)"/><rect x="80" y="30" width="10" height="10" fill="rgb(203,211,214)"/><rect x="90" y="30" width="10" height="10" fill="rgb(202,212,216)"/><rect x="0" y="40" width="10" height="10" fill="rgb(200,213,217)"/><rect x="10" y="40" width="10" height="10" fill="rgb(199,214,218)"/><rect x="20" y="40" width="10" height="10" fill="rgb(200,213,217)"/><rect x="30" y="40" width="10" height="10" fill="rgb(200,213,217)"/><rect x="40" y="40" width="10" height="10" fill="rgb(192,204,210)"/><rect x="50" y="40" width="10" height="10" fill="rgb(179,194,203)"/><rect x="60" y="40" width="10" height="10" fill="rgb(166,181,192)"/><rect x="70" y="40" width="10" height="10" fill="rgb(147,164,177)"/><rect x="80" y="40" width="10" height="10" fill="rgb(141,157,172)"/><rect x="90" y="40" width="10" height="10" fill="rgb(112,146,183)"/><rect x="0" y="50" width="10" height="10" fill="rgb(89,130,182)"/><rect x="10" y="50" width="10" height="10" fill="rgb(68,109,166)"/><rect x="20" y="50" width="10" height="10" fill="rgb(56,88,144)"/><rect x="30" y="50" width="10" height="10" fill="rgb(45,68,132)"/><rect x="40" y="50" width="10" height="10" fill="rgb(41,57,103)"/><rect x="50" y="50" width="10" height="10" fill="rgb(36,48,73)"/><rect x="60" y="50" width="10" height="10" fill="rgb(38,43,58)"/><rect x="70" y="50" width="10" height="10" fill="rgb(37,41,53)"/><rect x="80" y="50" width="10" height="10" fill="rgb(37,38,52)"/><rect x="90" y="50" width="10" height="10" fill="rgb(33,36,44)"/><rect x="0" y="60" width="10" height="10" fill="rgb(35,36,43)"/><rect x="10" y="60" width="10" height="10" fill="rgb(34,36,41)"/><rect x="20" y="60" width="10" height="10" fill="rgb(32,34,39)"/><rect x="30" y="60" width="10" height="10" fill="rgb(34,35,40)"/><rect x="40" y="60" width="10" height="10" fill="rgb(35,34,42)"/><rect x="50" y="60" width="10" height="10" fill="rgb(36,38,44)"/><rect x="60" y="60" width="10" height="10" fill="rgb(37,37,42)"/><rect x="70" y="60" width="10" height="10" fill="rgb(34,34,42)"/><rect x="80" y="60" width="10" height="10" fill="rgb(34,34,42)"/><rect x="90" y="60" width="10" height="10" fill="rgb(36,35,42)"/><rect x="0" y="70" width="10" height="10" fill="rgb(35,35,43)"/><rect x="10" y="70" width="10" height="10" fill="rgb(34,35,41)"/><rect x="20" y="70" width="10" height="10" fill="rgb(35,36,42)"/><rect x="30" y="70" width="10" height="10" fill="rgb(35,35,43)"/><rect x="40" y="70" width="10" height="10" fill="rgb(33,36,41)"/><rect x="50" y="70" width="10" height="10" fill="rgb(33,34,40)"/><rect x="60" y="70" width="10" height="10" fill="rgb(34,36,41)"/><rect x="70" y="70" width="10" height="10" fill="rgb(35,36,42)"/><rect x="80" y="70" width="10" height="10" fill="rgb(37,40,46)"/><rect x="90" y="70" width="10" height="10" fill="rgb(33,34,42)"/><rect x="0" y="80" width="10" height="10" fill="rgb(35,35,43)"/><rect x="10" y="80" width="10" height="10" fill="rgb(34,35,40)"/><rect x="20" y="80" width="10" height="10" fill="rgb(34,36,41)"/><rect x="30" y="80" width="10" height="10" fill="rgb(34,36,41)"/><rect x="40" y="80" width="10" height="10" fill="rgb(34,35,41)"/><rect x="50" y="80" width="10" height="10" fill="rgb(34,35,40)"/><rect x="60" y="80" width="10" height="10" fill="rgb(33,35,40)"/><rect x="70" y="80" width="10" height="10" fill="rgb(36,39,47)"/><rect x="80" y="80" width="10" height="10" fill="rgb(34,34,42)"/><rect x="90" y="80" width="10" height="10" fill="rgb(33,35,40)"/><rect x="0" y="90" width="10" height="10" fill="rgb(34,34,42)"/><rect x="10" y="90" width="10" height="10" fill="rgb(35,35,44)"/><rect x="20" y="90" width="10" height="10" fill="rgb(33,33,41)"/><rect x="30" y="90" width="10" height="10" fill="rgb(33,33,41)"/><rect x="40" y="90" width="10" height="10" fill="rgb(34,34,42)"/><rect x="50" y="90" width="10" height="10" fill="rgb(35,37,42)"/><rect x="60" y="90" width="10" height="10" fill="rgb(34,35,39)"/><rect x="70" y="90" width="10" height="10" fill="rgb(32,33,38)"/><rect x="80" y="90" width="10" height="10" fill="rgb(33,33,41)"/><rect x="90" y="90" width="10" height="10" fill="rgb(33,33,40)"/><rect x="0" y="100" width="10" height="10" fill="rgb(35,36,44)"/><rect x="10" y="100" width="10" height="10" fill="rgb(33,33,40)"/><rect x="20" y="100" width="10" height="10" fill="rgb(32,34,38)"/><rect x="30" y="100" width="10" height="10" fill="rgb(35,39,47)"/><rect x="40" y="100" width="10" height="10" fill="rgb(32,34,39)"/><rect x="50" y="100" width="10" height="10" fill="rgb(35,36,44)"/><rect x="60" y="100" width="10" height="10" fill="rgb(33,33,41)"/><rect x="70" y="100" width="10" height="10" fill="rgb(33,33,41)"/><rect x="80" y="100" width="10" height="10" fill="rgb(32,33,38)"/><rect x="90" y="100" width="10" height="10" fill="rgb(33,33,40)"/><rect x="0" y="110" width="10" height="10" fill="rgb(33,35,40)"/><rect x="10" y="110" width="10" height="10" fill="rgb(32,34,39)"/><rect x="20" y="110" width="10" height="10" fill="rgb(33,33,41)"/><rect x="30" y="110" width="10" height="10" fill="rgb(33,33,40)"/><rect x="40" y="110" width="10" height="10" fill="rgb(33,36,41)"/><rect x="50" y="110" width="10" height="10" fill="rgb(33,33,41)"/><rect x="60" y="110" width="10" height="10" fill="rgb(40,38,48)"/><rect x="70" y="110" width="10" height="10" fill="rgb(33,35,40)"/><rect x="80" y="110" width="10" height="10" fill="rgb(33,34,41)"/><rect x="90" y="110" width="10" height="10" fill="rgb(31,34,38)"/><rect x="0" y="120" width="10" height="10" fill="rgb(32,34,38)"/><rect x="10" y="120" width="10" height="10" fill="rgb(32,33,40)"/><rect x="20" y="120" width="10" height="10" fill="rgb(32,34,39)"/><rect x="30" y="120" width="10" height="10" fill="rgb(32,33,38)"/><rect x="40" y="120" width="10" height="10" fill="rgb(33,33,40)"/><rect x="50" y="120" width="10" height="10" fill="rgb(33,33,40)"/><rect x="60" y="120" width="10" height="10" fill="rgb(32,33,38)"/><rect x="70" y="120" width="10" height="10" fill="rgb(32,33,40)"/><rect x="80" y="120" width="10" height="10" fill="rgb(32,33,40)"/><rect x="90" y="120" width="10" height="10" fill="rgb(32,34,38)"/><rect x="0" y="130" width="10" height="10" fill="rgb(32,33,40)"/><rect x="10" y="130" width="10" height="10" fill="rgb(33,33,40)"/><rect x="20" y="130" width="10" height="10" fill="rgb(33,33,41)"/><rect x="30" y="130" width="10" height="10" fill="rgb(33,34,42)"/><rect x="40" y="130" width="10" height="10" fill="rgb(34,34,43)"/><rect x="50" y="130" width="10" height="10" fill="rgb(33,37,46)"/><rect x="60" y="130" width="10" height="10" fill="rgb(35,37,52)"/><rect x="70" y="130" width="10" height="10" fill="rgb(35,39,61)"/><rect x="80" y="130" width="10" height="10" fill="rgb(34,45,75)"/><rect x="90" y="130" width="10" height="10" fill="rgb(35,47,92)"/><rect x="0" y="140" width="10" height="10" fill="rgb(37,52,110)"/><rect x="10" y="140" width="10" height="10" fill="rgb(42,64,137)"/><rect x="20" y="140" width="10" height="10" fill="rgb(46,77,172)"/><rect x="30" y="140" width="10" height="10" fill="rgb(56,99,203)"/><rect x="40" y="140" width="10" height="10" fill="rgb(61,117,225)"/><rect x="50" y="140" width="10" height="10" fill="rgb(83,142,212)"/><rect x="60" y="140" width="10" height="10" fill="rgb(109,154,207)"/><rect x="70" y="140" width="10" height="10" fill="rgb(136,160,186)"/><rect x="80" y="140" width="10" height="10" fill="rgb(173,176,181)"/><rect x="90" y="140" width="10" height="10" fill="rgb(187,190,192)"/><rect x="0" y="150" width="10" height="10" fill="rgb(193,199,201)"/><rect x="10" y="150" width="10" height="10" fill="rgb(196,206,211)"/><rect x="20" y="150" width="10" height="10" fill="rgb(196,208,212)"/><rect x="30" y="150" width="10" height="10" fill="rgb(193,208,216)"/><rect x="40" y="150" width="10" height="10" fill="rgb(191,208,216)"/><rect x="50" y="150" width="10" height="10" fill="rgb(189,206,218)"/><rect x="60" y="150" width="10" height="10" fill="rgb(187,206,219)"/><rect x="70" y="150" width="10" height="10" fill="rgb(182,204,218)"/><rect x="80" y="150" width="10" height="10" fill="rgb(177,202,221)"/><rect x="90" y="150" width="10" height="10" fill="rgb(173,201,223)"/><rect x="0" y="160" width="10" height="10" fill="rgb(170,199,222)"/><rect x="10" y="160" width="10" height="10" fill="rgb(173,199,219)"/><rect x="20" y="160" width="10" height="10" fill="rgb(173,198,218)"/><rect x="30" y="160" width="10" height="10" fill="rgb(170,196,217)"/><rect x="40" y="160" width="10" height="10" fill="rgb(170,195,216)"/><rect x="50" y="160" width="10" height="10" fill="rgb(170,195,216)"/><rect x="60" y="160" width="10" height="10" fill="rgb(169,195,217)"/><rect x="70" y="160" width="10" height="10" fill="rgb(166,194,217)"/><rect x="80" y="160" width="10" height="10" fill="rgb(163,192,216)"/><rect x="90" y="160" width="10" height="10" fill="rgb(163,192,214)"/><rect x="0" y="170" width="10" height="10" fill="rgb(153,189,219)"/><rect x="10" y="170" width="10" height="10" fill="rgb(144,185,221)"/><rect x="20" y="170" width="10" height="10" fill="rgb(134,184,225)"/><rect x="30" y="170" width="10" height="10" fill="rgb(125,180,230)"/><rect x="40" y="170" width="10" height="10" fill="rgb(116,176,231)"/><rect x="50" y="170" width="10" height="10" fill="rgb(110,175,232)"/><rect x="60" y="170" width="10" height="10" fill="rgb(108,173,232)"/><rect x="70" y="170" width="10" height="10" fill="rgb(107,172,230)"/><rect x="80" y="170" width="10" height="10" fill="rgb(105,170,229)"/><rect x="90" y="170" width="10" height="10" fill="rgb(104,168,228)"/><rect x="0" y="180" width="10" height="10" fill="rgb(104,166,224)"/><rect x="10" y="180" width="10" height="10" fill="rgb(101,165,225)"/><rect x="20" y="180" width="10" height="10" fill="rgb(97,161,221)"/><rect x="30" y="180" width="10" height="10" fill="rgb(96,159,217)"/><rect x="40" y="180" width="10" height="10" fill="rgb(94,158,217)"/><rect x="50" y="180" width="10" height="10" fill="rgb(94,157,214)"/><rect x="60" y="180" width="10" height="10" fill="rgb(92,157,215)"/><rect x="70" y="180" width="10" height="10" fill="rgb(92,156,213)"/><rect x="80" y="180" width="10" height="10" fill="rgb(91,156,217)"/><rect x="90" y="180" width="10" height="10" fill="rgb(92,156,213)"/><rect x="0" y="190" width="10" height="10" fill="rgb(91,155,213)"/><rect x="10" y="190" width="10" height="10" fill="rgb(89,155,215)"/><rect x="20" y="190" width="10" height="10" fill="rgb(88,155,216)"/><rect x="30" y="190" width="10" height="10" fill="rgb(88,155,216)"/><rect x="40" y="190" width="10" height="10" fill="rgb(87,154,216)"/><rect x="50" y="190" width="10" height="10" fill="rgb(87,154,215)"/><rect x="60" y="190" width="10" height="10" fill="rgb(87,154,215)"/><rect x="70" y="190" width="10" height="10" fill="rgb(87,153,214)"/><rect x="80" y="190" width="10" height="10" fill="rgb(87,153,212)"/><rect x="90" y="190" width="10" height="10" fill="rgb(88,153,213)"/><rect x="0" y="200" width="10" height="10" fill="rgb(89,153,211)"/><rect x="10" y="200" width="10" height="10" fill="rgb(87,153,213)"/><rect x="20" y="200" width="10" height="10" fill="rgb(87,153,211)"/><rect x="30" y="200" width="10" height="10" fill="rgb(87,153,209)"/><rect x="40" y="200" width="10" height="10" fill="rgb(86,152,210)"/><rect x="50" y="200" width="10" height="10" fill="rgb(89,152,209)"/><rect x="60" y="200" width="10" height="10" fill="rgb(87,152,211)"/><rect x="70" y="200" width="10" height="10" fill="rgb(88,152,208)"/><rect x="80" y="200" width="10" height="10" fill="rgb(88,151,206)"/><rect x="90" y="200" width="10" height="10" fill="rgb(89,149,202)"/><rect x="0" y="210" width="10" height="10" fill="rgb(86,148,202)"/><rect x="10" y="210" width="10" height="10" fill="rgb(86,148,202)"/><rect x="20" y="210" width="10" height="10" fill="rgb(88,147,200)"/><rect x="30" y="210" width="10" height="10" fill="rgb(86,147,202)"/><rect x="40" y="210" width="10" height="10" fill="rgb(87,146,199)"/><rect x="50" y="210" width="10" height="10" fill="rgb(89,145,200)"/><rect x="60" y="210" width="10" height="10" fill="rgb(88,147,200)"/><rect x="70" y="210" width="10" height="10" fill="rgb(90,145,199)"/><rect x="80" y="210" width="10" height="10" fill="rgb(91,146,199)"/><rect x="90" y="210" width="10" height="10" fill="rgb(91,146,199)"/><rect x="0" y="220" width="10" height="10" fill="rgb(93,147,198)"/><rect x="10" y="220" width="10" height="10" fill="rgb(93,148,198)"/><rect x="20" y="220" width="10" height="10" fill="rgb(94,148,197)"/><rect x="30" y="220" width="10" height="10" fill="rgb(96,149,198)"/><rect x="40" y="220" width="10" height="10" fill="rgb(96,150,197)"/><rect x="50" y="220" width="10" height="10" fill="rgb(100,150,195)"/><rect x="60" y="220" width="10" height="10" fill="rgb(105,153,195)"/><rect x="70" y="220" width="10" height="10" fill="rgb(102,153,196)"/><rect x="80" y="220" width="10" height="10" fill="rgb(105,152,194)"/><rect x="90" y="220" width="10" height="10" fill="rgb(104,153,195)"/><rect x="0" y="230" width="10" height="10" fill="rgb(111,154,195)"/><rect x="10" y="230" width="10" height="10" fill="rgb(122,157,190)"/><rect x="20" y="230" width="10" height="10" fill="rgb(132,161,189)"/><rect x="30" y="230" width="10" height="10" fill="rgb(130,160,190)"/><rect x="40" y="230" width="10" height="10" fill="rgb(134,161,189)"/><rect x="50" y="230" width="10" height="10" fill="rgb(142,165,188)"/><rect x="60" y="230" width="10" height="10" fill="rgb(140,165,188)"/><rect x="70" y="230" width="10" height="10" fill="rgb(150,170,188)"/><rect x="80" y="230" width="10" height="10" fill="rgb(153,169,185)"/><rect x="90" y="230" width="10" height="10" fill="rgb(155,168,181)"/><rect x="0" y="240" width="10" height="10" fill="rgb(154,169,184)"/><rect x="10" y="240" width="10" height="10" fill="rgb(158,172,187)"/><rect x="20" y="240" width="10" height="10" fill="rgb(157,172,188)"/><rect x="30" y="240" width="10" height="10" fill="rgb(186,191,194)"/><rect x="40" y="240" width="10" height="10" fill="rgb(152,167,181)"/><rect x="50" y="240" width="10" height="10" fill="rgb(202,201,195)"/><rect x="60" y="240" width="10" height="10" fill="rgb(193,196,195)"/><rect x="70" y="240" width="10" height="10" fill="rgb(151,170,188)"/><rect x="80" y="240" width="10" height="10" fill="rgb(141,161,181)"/><rect x="90" y="240" width="10" height="10" fill="rgb(196,197,197)"/><rect x="0" y="250" width="10" height="10" fill="rgb(199,199,196)"/><rect x="10" y="250" width="10" height="10" fill="rgb(196,197,194)"/><rect x="20" y="250" width="10" height="10" fill="rgb(198,198,194)"/><rect x="30" y="250" width="10" height="10" fill="rgb(142,165,187)"/><rect x="40" y="250" width="10" height="10" fill="rgb(135,164,188)"/><rect x="50" y="250" width="10" height="10" fill="rgb(141,159,177)"/><rect x="60" y="250" width="10" height="10" fill="rgb(175,190,204)"/><rect x="70" y="250" width="10" height="10" fill="rgb(175,192,206)"/><rect x="80" y="250" width="10" height="10" fill="rgb(178,192,205)"/><rect x="90" y="250" width="10" height="10" fill="rgb(178,192,204)"/><rect x="0" y="260" width="10" height="10" fill="rgb(177,193,206)"/><rect x="10" y="260" width="10" height="10" fill="rgb(181,192,203)"/><rect x="20" y="260" width="10" height="10" fill="rgb(180,193,204)"/><rect x="30" y="260" width="10" height="10" fill="rgb(189,202,211)"/><rect x="40" y="260" width="10" height="10" fill="rgb(191,203,213)"/><rect x="50" y="260" width="10" height="10" fill="rgb(189,202,214)"/><rect x="60" y="260" width="10" height="10" fill="rgb(188,202,214)"/><rect x="70" y="260" width="10" height="10" fill="rgb(172,188,205)"/></svg>