<svg xmlns="http://www.w3.org/2000/svg" width="100" height="270"><rect x="0" y="0" width="10" height="10" fill="rgb(140,153,181)"/><rect x="10" y="0" width="10" height="10" fill="rgb(151,155,169)"/><rect x="20" y="0" width="10" height="10" fill="rgb(163,164,171)"/><rect x="30" y="0" width="10" height="10" fill="rgb(161,162,167)"/><rect x="40" y="0" width="10" height="10" fill="rgb(152,153,160)"/><rect x="50" y="0" width="10" height="10" fill="rgb(156,156,161)"/><rect x="60" y="0" width="10" height="10" fill="rgb(160,160,166)"/><rect x="70" y="0" width="10" height="10" fill="rgb(151,152,159)"/><rect x="80" y="0" width="10" height="10" fill="rgb(157,158,165)"/><rect x="90" y="0" width="10" height="10" fill="rgb(158,159,164)"/><rect x="0" y="10" width="10" height="10" fill="rgb(166,166,172)"/><rect x="10" y="10" width="10" height="10" fill="rgb(166,166,173)"/><rect x="20" y="10" width="10" height="10" fill="rgb(155,156,162)"/><rect x="30" y="10" width="10" height="10" fill="rgb(133,138,142)"/><rect x="40" y="10" width="10" height="10" fill="rgb(127,133,137)"/><rect x="50" y="10" width="10" height="10" fill="rgb(101,117,126)"/><rect x="60" y="10" width="10" height="10" fill="rgb(61,82,112)"/><rect x="70" y="10" width="10" height="10" fill="rgb(48,62,118)"/><rect x="80" y="10" width="10" height="10" fill="rgb(45,51,86)"/><rect x="90" y="10" width="10" height="10" fill="rgb(40,40,69)"/><rect x="0" y="20" width="10" height="10" fill="rgb(34,31,57)"/><rect x="10" y="20" width="10" height="10" fill="rgb(30,26,46)"/><rect x="20" y="20" width="10" height="10" fill="rgb(30,24,44)"/><rect x="30" y="20" width="10" height="10" fill="rgb(33,26,40)"/><rect x="40" y="20" width="10" height="10" fill="rgb(30,23,38)"/><rect x="50" y="20" width="10" height="10" fill="rgb(29,22,39)"/><rect x="60" y="20" width="10" height="10" fill="rgb(29,22,40)"/><rect x="70" y="20" width="10" height="10" fill="rgb(29,22,40)"/><rect x="80" y="20" width="10" height="10" fill="rgb(33,25,41)"/><rect x="90" y="20" width="10" height="10" fill="rgb(35,27,40)"/><rect x="0" y="30" width="10" height="10" fill="rgb(35,27,40)"/><rect x="10" y="30" width="10" height="10" fill="rgb(33,26,40)"/><rect x="20" y="30" width="10" height="10" fill="rgb(33,26,40)"/><rect x="30" y="30" width="10" height="10" fill="rgb(36,29,42)"/><rect x="40" y="30" width="10" height="10" fill="rgb(34,27,40)"/><rect x="50" y="30" width="10" height="10" fill="rgb(33,26,40)"/><rect x="60" y="30" width="10" height="10" fill="rgb(38,33,41)"/><rect x="70" y="30" width="10" height="10" fill="rgb(38,32,39)"/><rect x="80" y="30" width="10" height="10" fill="rgb(40,33,41)"/><rect x="90" y="30" width="10" height="10" fill="rgb(33,26,40)"/><rect x="0" y="40" width="10" height="10" fill="rgb(34,27,41)"/><rect x="10" y="40" width="10" height="10" fill="rgb(34,26,41)"/><rect x="20" y="40" width="10" height="10" fill="rgb(31,24,39)"/><rect x="30" y="40" width="10" height="10" fill="rgb(35,28,42)"/><rect x="40" y="40" width="10" height="10" fill="rgb(36,28,42)"/><rect x="50" y="40" width="10" height="10" fill="rgb(32,25,41)"/><rect x="60" y="40" width="10" height="10" fill="rgb(34,27,40)"/><rect x="70" y="40" width="10" height="10" fill="rgb(33,26,41)"/><rect x="80" y="40" width="10" height="10" fill="rgb(30,23,39)"/><rect x="90" y="40" width="10" height="10" fill="rgb(31,24,40)"/><rect x="0" y="50" width="10" height="10" fill="rgb(32,25,39)"/><rect x="10" y="50" width="10" height="10" fill="rgb(29,22,37)"/><rect x="20" y="50" width="10" height="10" fill="rgb(32,24,39)"/><rect x="30" y="50" width="10" height="10" fill="rgb(32,24,37)"/><rect x="40" y="50" width="10" height="10" fill="rgb(28,21,38)"/><rect x="50" y="50" width="10" height="10" fill="rgb(28,20,38)"/><rect x="60" y="50" width="10" height="10" fill="rgb(28,21,37)"/><rect x="70" y="50" width="10" height="10" fill="rgb(28,21,38)"/><rect x="80" y="50" width="10" height="10" fill="rgb(29,21,39)"/><rect x="90" y="50" width="10" height="10" fill="rgb(29,21,38)"/><rect x="0" y="60" width="10" height="10" fill="rgb(28,21,38)"/><rect x="10" y="60" width="10" height="10" fill="rgb(30,22,39)"/><rect x="20" y="60" width="10" height="10" fill="rgb(33,25,40)"/><rect x="30" y="60" width="10" height="10" fill="rgb(31,23,37)"/><rect x="40" y="60" width="10" height="10" fill="rgb(29,21,37)"/><rect x="50" y="60" width="10" height="10" fill="rgb(32,24,39)"/><rect x="60" y="60" width="10" height="10" fill="rgb(32,24,37)"/><rect x="70" y="60" width="10" height="10" fill="rgb(29,21,37)"/><rect x="80" y="60" width="10" height="10" fill="rgb(30,21,38)"/><rect x="90" y="60" width="10" height="10" fill="rgb(28,21,35)"/><rect x="0" y="70" width="10" height="10" fill="rgb(31,23,38)"/><rect x="10" y="70" width="10" height="10" fill="rgb(31,23,36)"/><rect x="20" y="70" width="10" height="10" fill="rgb(27,20,38)"/><rect x="30" y="70" width="10" height="10" fill="rgb(28,20,37)"/><rect x="40" y="70" width="10" height="10" fill="rgb(30,22,39)"/><rect x="50" y="70" width="10" height="10" fill="rgb(30,22,38)"/><rect x="60" y="70" width="10" height="10" fill="rgb(30,22,38)"/><rect x="70" y="70" width="10" height="10" fill="rgb(32,24,40)"/><rect x="80" y="70" width="10" height="10" fill="rgb(32,23,38)"/><rect x="90" y="70" width="10" height="10" fill="rgb(32,24,36)"/><rect x="0" y="80" width="10" height="10" fill="rgb(29,21,37)"/><rect x="10" y="80" width="10" height="10" fill="rgb(28,20,37)"/><rect x="20" y="80" width="10" height="10" fill="rgb(30,22,39)"/><rect x="30" y="80" width="10" height="10" fill="rgb(33,24,41)"/><rect x="40" y="80" width="10" height="10" fill="rgb(29,21,38)"/><rect x="50" y="80" width="10" height="10" fill="rgb(32,23,38)"/><rect x="60" y="80" width="10" height="10" fill="rgb(32,23,37)"/><rect x="70" y="80" width="10" height="10" fill="rgb(28,20,35)"/><rect x="80" y="80" width="10" height="10" fill="rgb(28,20,38)"/><rect x="90" y="80" width="10" height="10" fill="rgb(28,20,37)"/><rect x="0" y="90" width="10" height="10" fill="rgb(28,20,37)"/><rect x="10" y="90" width="10" height="10" fill="rgb(27,20,37)"/><rect x="20" y="90" width="10" height="10" fill="rgb(29,21,39)"/><rect x="30" y="90" width="10" height="10" fill="rgb(28,21,37)"/><rect x="40" y="90" width="10" height="10" fill="rgb(30,22,38)"/><rect x="50" y="90" width="10" height="10" fill="rgb(32,24,40)"/><rect x="60" y="90" width="10" height="10" fill="rgb(29,21,38)"/><rect x="70" y="90" width="10" height="10" fill="rgb(28,21,37)"/><rect x="80" y="90" width="10" height="10" fill="rgb(29,21,37)"/><rect x="90" y="90" width="10" height="10" fill="rgb(30,23,41)"/><rect x="0" y="100" width="10" height="10" fill="rgb(31,23,39)"/><rect x="10" y="100" width="10" height="10" fill="rgb(31,23,39)"/><rect x="20" y="100" width="10" height="10" fill="rgb(32,23,39)"/><rect x="30" y="100" width="10" height="10" fill="rgb(32,23,39)"/><rect x="40" y="100" width="10" height="10" fill="rgb(32,24,37)"/><rect x="50" y="100" width="10" height="10" fill="rgb(28,20,35)"/><rect x="60" y="100" width="10" height="10" fill="rgb(28,21,37)"/><rect x="70" y="100" width="10" height="10" fill="rgb(29,21,37)"/><rect x="80" y="100" width="10" height="10" fill="rgb(28,20,38)"/><rect x="90" y="100" width="10" height="10" fill="rgb(28,21,38)"/><rect x="0" y="110" width="10" height="10" fill="rgb(29,21,38)"/><rect x="10" y="110" width="10" height="10" fill="rgb(29,21,38)"/><rect x="20" y="110" width="10" height="10" fill="rgb(30,23,43)"/><rect x="30" y="110" width="10" height="10" fill="rgb(29,24,42)"/><rect x="40" y="110" width="10" height="10" fill="rgb(35,30,48)"/><rect x="50" y="110" width="10" height="10" fill="rgb(36,35,57)"/><rect x="60" y="110" width="10" height="10" fill="rgb(40,45,86)"/><rect x="70" y="110" width="10" height="10" fill="rgb(50,69,105)"/><rect x="80" y="110" width="10" height="10" fill="rgb(61,88,115)"/><rect x="90" y="110" width="10" height="10" fill="rgb(75,100,113)"/><rect x="0" y="120" width="10" height="10" fill="rgb(108,128,132)"/><rect x="10" y="120" width="10" height="10" fill="rgb(139,151,154)"/><rect x="20" y="120" width="10" height="10" fill="rgb(155,160,163)"/><rect x="30" y="120" width="10" height="10" fill="rgb(170,172,177)"/><rect x="40" y="120" width="10" height="10" fill="rgb(162,163,168)"/><rect x="50" y="120" width="10" height="10" fill="rgb(169,171,177)"/><rect x="60" y="120" width="10" height="10" fill="rgb(170,170,175)"/><rect x="70" y="120" width="10" height="10" fill="rgb(171,172,177)"/><rect x="80" y="120" width="10" height="10" fill="rgb(175,175,178)"/><rect x="90" y="120" width="10" height="10" fill="rgb(176,175,178)"/><rect x="0" y="130" width="10" height="10" fill="rgb(170,169,173)"/><rect x="10" y="130" width="10" height="10" fill="rgb(168,168,172)"/><rect x="20" y="130" width="10" height="10" fill="rgb(171,171,175)"/><rect x="30" y="130" width="10" height="10" fill="rgb(169,169,172)"/><rect x="40" y="130" width="10" height="10" fill="rgb(168,172,185)"/><rect x="50" y="130" width="10" height="10" fill="rgb(171,172,179)"/><rect x="60" y="130" width="10" height="10" fill="rgb(171,172,177)"/><rect x="70" y="130" width="10" height="10" fill="rgb(171,171,175)"/><rect x="80" y="130" width="10" height="10" fill="rgb(172,172,176)"/><rect x="90" y="130" width="10" height="10" fill="rgb(172,172,176)"/><rect x="0" y="140" width="10" height="10" fill="rgb(172,172,177)"/><rect x="10" y="140" width="10" height="10" fill="rgb(169,170,175)"/><rect x="20" y="140" width="10" height="10" fill="rgb(163,164,172)"/><rect x="30" y="140" width="10" height="10" fill="rgb(176,176,181)"/><rect x="40" y="140" width="10" height="10" fill="rgb(173,173,177)"/><rect x="50" y="140" width="10" height="10" fill="rgb(168,169,173)"/><rect x="60" y="140" width="10" height="10" fill="rgb(171,172,176)"/><rect x="70" y="140" width="10" height="10" fill="rgb(171,171,175)"/><rect x="80" y="140" width="10" height="10" fill="rgb(162,164,171)"/><rect x="90" y="140" width="10" height="10" fill="rgb(171,171,174)"/><rect x="0" y="150" width="10" height="10" fill="rgb(173,173,177)"/><rect x="10" y="150" width="10" height="10" fill="rgb(171,171,176)"/><rect x="20" y="150" width="10" height="10" fill="rgb(164,165,170)"/><rect x="30" y="150" width="10" height="10" fill="rgb(168,169,174)"/><rect x="40" y="150" width="10" height="10" fill="rgb(161,162,169)"/><rect x="50" y="150" width="10" height="10" fill="rgb(158,160,166)"/><rect x="60" y="150" width="10" height="10" fill="rgb(159,161,170)"/><rect x="70" y="150" width="10" height="10" fill="rgb(158,160,169)"/><rect x="80" y="150" width="10" height="10" fill="rgb(154,156,166)"/><rect x="90" y="150" width="10" height="10" fill="rgb(155,156,162)"/><rect x="0" y="160" width="10" height="10" fill="rgb(161,162,169)"/><rect x="10" y="160" width="10" height="10" fill="rgb(161,163,170)"/><rect x="20" y="160" width="10" height="10" fill="rgb(159,160,167)"/><rect x="30" y="160" width="10" height="10" fill="rgb(163,164,170)"/><rect x="40" y="160" width="10" height="10" fill="rgb(165,166,170)"/><rect x="50" y="160" width="10" height="10" fill="rgb(162,162,168)"/><rect x="60" y="160" width="10" height="10" fill="rgb(160,161,168)"/><rect x="70" y="160" width="10" height="10" fill="rgb(167,167,173)"/><rect x="80" y="160" width="10" height="10" fill="rgb(165,165,171)"/><rect x="90" y="160" width="10" height="10" fill="rgb(161,162,167)"/><rect x="0" y="170" width="10" height="10" fill="rgb(164,165,169)"/><rect x="10" y="170" width="10" height="10" fill="rgb(166,166,173)"/><rect x="20" y="170" width="10" height="10" fill="rgb(163,163,170)"/><rect x="30" y="170" width="10" height="10" fill="rgb(162,163,168)"/><rect x="40" y="170" width="10" height="10" fill="rgb(159,160,166)"/><rect x="50" y="170" width="10" height="10" fill="rgb(170,169,174)"/><rect x="60" y="170" width="10" height="10" fill="rgb(159,160,165)"/><rect x="70" y="170" width="10" height="10" fill="rgb(164,164,170)"/><rect x="80" y="170" width="10" height="10" fill="rgb(164,165,169)"/><rect x="90" y="170" width="10" height="10" fill="rgb(169,169,173)"/><rect x="0" y="180" width="10" height="10" fill="rgb(173,172,174)"/><rect x="10" y="180" width="10" height="10" fill="rgb(172,171,174)"/><rect x="20" y="180" width="10" height="10" fill="rgb(173,173,176)"/><rect x="30" y="180" width="10" height="10" fill="rgb(174,174,177)"/><rect x="40" y="180" width="10" height="10" fill="rgb(178,177,178)"/><rect x="50" y="180" width="10" height="10" fill="rgb(173,173,175)"/><rect x="60" y="180" width="10" height="10" fill="rgb(172,173,176)"/><rect x="70" y="180" width="10" height="10" fill="rgb(171,171,173)"/><rect x="80" y="180" width="10" height="10" fill="rgb(174,174,174)"/><rect x="90" y="180" width="10" height="10" fill="rgb(173,173,174)"/><rect x="0" y="190" width="10" height="10" fill="rgb(170,171,172)"/><rect x="10" y="190" width="10" height="10" fill="rgb(171,171,174)"/><rect x="20" y="190" width="10" height="10" fill="rgb(172,171,173)"/><rect x="30" y="190" width="10" height="10" fill="rgb(171,171,172)"/><rect x="40" y="190" width="10" height="10" fill="rgb(173,172,173)"/><rect x="50" y="190" width="10" height="10" fill="rgb(170,169,171)"/><rect x="60" y="190" width="10" height="10" fill="rgb(174,173,173)"/><rect x="70" y="190" width="10" height="10" fill="rgb(174,173,174)"/><rect x="80" y="190" width="10" height="10" fill="rgb(171,171,172)"/><rect x="90" y="190" width="10" height="10" fill="rgb(174,173,173)"/><rect x="0" y="200" width="10" height="10" fill="rgb(172,172,173)"/><rect x="10" y="200" width="10" height="10" fill="rgb(174,172,174)"/><rect x="20" y="200" width="10" height="10" fill="rgb(176,175,176)"/><rect x="30" y="200" width="10" height="10" fill="rgb(174,172,173)"/><rect x="40" y="200" width="10" height="10" fill="rgb(172,172,173)"/><rect x="50" y="200" width="10" height="10" fill="rgb(171,170,173)"/><rect x="60" y="200" width="10" height="10" fill="rgb(167,167,169)"/><rect x="70" y="200" width="10" height="10" fill="rgb(164,165,167)"/><rect x="80" y="200" width="10" height="10" fill="rgb(165,164,168)"/><rect x="90" y="200" width="10" height="10" fill="rgb(162,163,167)"/><rect x="0" y="210" width="10" height="10" fill="rgb(160,162,165)"/><rect x="10" y="210" width="10" height="10" fill="rgb(158,160,164)"/><rect x="20" y="210" width="10" height="10" fill="rgb(157,159,164)"/><rect x="30" y="210" width="10" height="10" fill="rgb(160,162,167)"/><rect x="40" y="210" width="10" height="10" fill="rgb(164,165,170)"/><rect x="50" y="210" width="10" height="10" fill="rgb(157,160,167)"/><rect x="60" y="210" width="10" height="10" fill="rgb(156,160,167)"/><rect x="70" y="210" width="10" height="10" fill="rgb(158,161,169)"/><rect x="80" y="210" width="10" height="10" fill="rgb(159,160,168)"/><rect x="90" y="210" width="10" height="10" fill="rgb(163,165,170)"/><rect x="0" y="220" width="10" height="10" fill="rgb(161,163,168)"/><rect x="10" y="220" width="10" height="10" fill="rgb(164,165,169)"/><rect x="20" y="220" width="10" height="10" fill="rgb(165,166,170)"/><rect x="30" y="220" width="10" height="10" fill="rgb(167,168,172)"/><rect x="40" y="220" width="10" height="10" fill="rgb(165,166,170)"/><rect x="50" y="220" width="10" height="10" fill="rgb(168,169,172)"/><rect x="60" y="220" width="10" height="10" fill="rgb(166,168,172)"/><rect x="70" y="220" width="10" height="10" fill="rgb(166,168,171)"/><rect x="80" y="220" width="10" height="10" fill="rgb(165,167,171)"/><rect x="90" y="220" width="10" height="10" fill="rgb(164,165,170)"/><rect x="0" y="230" width="10" height="10" fill="rgb(165,166,170)"/><rect x="10" y="230" width="10" height="10" fill="rgb(164,166,171)"/><rect x="20" y="230" width="10" height="10" fill="rgb(167,168,173)"/><rect x="30" y="230" width="10" height="10" fill="rgb(165,166,171)"/><rect x="40" y="230" width="10" height="10" fill="rgb(166,167,172)"/><rect x="50" y="230" width="10" height="10" fill="rgb(166,168,174)"/><rect x="60" y="230" width="10" height="10" fill="rgb(163,165,171)"/><rect x="70" y="230" width="10" height="10" fill="rgb(161,164,171)"/><rect x="80" y="230" width="10" height="10" fill="rgb(161,164,171)"/><rect x="90" y="230" width="10" height="10" fill="rgb(159,163,170)"/><rect x="0" y="240" width="10" height="10" fill="rgb(159,164,171)"/><rect x="10" y="240" width="10" height="10" fill="rgb(156,162,172)"/><rect x="20" y="240" width="10" height="10" fill="rgb(154,162,174)"/><rect x="30" y="240" width="10" height="10" fill="rgb(153,160,170)"/><rect x="40" y="240" width="10" height="10" fill="rgb(155,161,170)"/><rect x="50" y="240" width="10" height="10" fill="rgb(157,162,170)"/><rect x="60" y="240" width="10" height="10" fill="rgb(160,163,170)"/><rect x="70" y="240" width="10" height="10" fill="rgb(163,165,170)"/><rect x="80" y="240" width="10" height="10" fill="rgb(165,166,171)"/><rect x="90" y="240" width="10" height="10" fill="rgb(164,166,170)"/><rect x="0" y="250" width="10" height="10" fill="rgb(165,167,171)"/><rect x="10" y="250" width="10" height="10" fill="rgb(166,167,171)"/><rect x="20" y="250" width="10" height="10" fill="rgb(165,166,170)"/><rect x="30" y="250" width="10" height="10" fill="rgb(165,166,169)"/><rect x="40" y="250" width="10" height="10" fill="rgb(164,166,170)"/><rect x="50" y="250" width="10" height="10" fill="rgb(161,161,167)"/><rect x="60" y="250" width="10" height="10" fill="rgb(150,151,157)"/><rect x="70" y="250" width="10" height="10" fill="rgb(146,147,153)"/><rect x="80" y="250" width="10" height="10" fill="rgb(146,151,166)"/><rect x="90" y="250" width="10" height="10" fill="rgb(147,151,164)"/><rect x="0" y="260" width="10" height="10" fill="rgb(151,154,166)"/></svg>