<svg xmlns="http://www.w3.org/2000/svg" width="480" height="10"><rect x="0" y="0" width="10" height="10" fill="rgb(119,145,177)"/><rect x="10" y="0" width="10" height="10" fill="rgb(158,160,166)"/><rect x="20" y="0" width="10" height="10" fill="rgb(149,144,148)"/><rect x="30" y="0" width="10" height="10" fill="rgb(25,29,32)"/><rect x="40" y="0" width="10" height="10" fill="rgb(25,28,32)"/><rect x="50" y="0" width="10" height="10" fill="rgb(25,29,33)"/><rect x="60" y="0" width="10" height="10" fill="rgb(25,28,32)"/><rect x="70" y="0" width="10" height="10" fill="rgb(25,28,31)"/><rect x="80" y="0" width="10" height="10" fill="rgb(25,27,31)"/><rect x="90" y="0" width="10" height="10" fill="rgb(25,28,32)"/><rect x="100" y="0" width="10" height="10" fill="rgb(25,28,32)"/><rect x="110" y="0" width="10" height="10" fill="rgb(25,28,32)"/><rect x="120" y="0" width="10" height="10" fill="rgb(26,28,32)"/><rect x="130" y="0" width="10" height="10" fill="rgb(26,28,32)"/><rect x="140" y="0" width="10" height="10" fill="rgb(26,29,33)"/><rect x="150" y="0" width="10" height="10" fill="rgb(27,29,33)"/><rect x="160" y="0" width="10" height="10" fill="rgb(27,30,34)"/><rect x="170" y="0" width="10" height="10" fill="rgb(26,28,32)"/><rect x="180" y="0" width="10" height="10" fill="rgb(26,29,33)"/><rect x="190" y="0" width="10" height="10" fill="rgb(28,30,34)"/><rect x="200" y="0" width="10" height="10" fill="rgb(28,30,34)"/><rect x="210" y="0" width="10" height="10" fill="rgb(29,31,35)"/><rect x="220" y="0" width="10" height="10" fill="rgb(28,31,34)"/><rect x="230" y="0" width="10" height="10" fill="rgb(28,31,34)"/><rect x="240" y="0" width="10" height="10" fill="rgb(29,31,34)"/><rect x="250" y="0" width="10" height="10" fill="rgb(29,32,34)"/><rect x="260" y="0" width="10" height="10" fill="rgb(29,32,34)"/><rect x="270" y="0" width="10" height="10" fill="rgb(29,32,35)"/><rect x="280" y="0" width="10" height="10" fill="rgb(30,32,35)"/><rect x="290" y="0" width="10" height="10" fill="rgb(31,33,35)"/><rect x="300" y="0" width="10" height="10" fill="rgb(32,34,36)"/><rect x="310" y="0" width="10" height="10" fill="rgb(31,34,36)"/><rect x="320" y="0" width="10" height="10" fill="rgb(31,33,36)"/><rect x="330" y="0" width="10" height="10" fill="rgb(30,33,35)"/><rect x="340" y="0" width="10" height="10" fill="rgb(30,32,34)"/><rect x="350" y="0" width="10" height="10" fill="rgb(29,32,34)"/><rect x="360" y="0" width="10" height="10" fill="rgb(29,32,34)"/><rect x="370" y="0" width="10" height="10" fill="rgb(31,33,35)"/><rect x="380" y="0" width="10" height="10" fill="rgb(30,32,35)"/><rect x="390" y="0" width="10" height="10" fill="rgb(29,31,33)"/><rect x="400" y="0" width="10" height="10" fill="rgb(28,30,33)"/><rect x="410" y="0" width="10" height="10" fill="rgb(27,29,32)"/><rect x="420" y="0" width="10" height="10" fill="rgb(28,29,32)"/><rect x="430" y="0" width="10" height="10" fill="rgb(28,30,33)"/></svg>