<svg xmlns="http://www.w3.org/2000/svg" width="100" height="650"><rect x="0" y="0" width="10" height="10" fill="rgb(68,68,68)"/><rect x="10" y="0" width="10" height="10" fill="rgb(45,45,45)"/><rect x="20" y="0" width="10" height="10" fill="rgb(39,39,39)"/><rect x="30" y="0" width="10" height="10" fill="rgb(31,31,31)"/><rect x="40" y="0" width="10" height="10" fill="rgb(25,25,25)"/><rect x="50" y="0" width="10" height="10" fill="rgb(24,24,24)"/><rect x="60" y="0" width="10" height="10" fill="rgb(22,22,22)"/><rect x="70" y="0" width="10" height="10" fill="rgb(22,22,22)"/><rect x="80" y="0" width="10" height="10" fill="rgb(22,22,22)"/><rect x="90" y="0" width="10" height="10" fill="rgb(21,21,21)"/><rect x="0" y="10" width="10" height="10" fill="rgb(23,23,23)"/><rect x="10" y="10" width="10" height="10" fill="rgb(21,21,21)"/><rect x="20" y="10" width="10" height="10" fill="rgb(28,28,28)"/><rect x="30" y="10" width="10" height="10" fill="rgb(21,21,21)"/><rect x="40" y="10" width="10" height="10" fill="rgb(21,21,21)"/><rect x="50" y="10" width="10" height="10" fill="rgb(21,21,21)"/><rect x="60" y="10" width="10" height="10" fill="rgb(21,21,21)"/><rect x="70" y="10" width="10" height="10" fill="rgb(21,21,21)"/><rect x="80" y="10" width="10" height="10" fill="rgb(22,22,22)"/><rect x="90" y="10" width="10" height="10" fill="rgb(21,21,21)"/><rect x="0" y="20" width="10" height="10" fill="rgb(21,21,21)"/><rect x="10" y="20" width="10" height="10" fill="rgb(34,34,34)"/><rect x="20" y="20" width="10" height="10" fill="rgb(23,23,23)"/><rect x="30" y="20" width="10" height="10" fill="rgb(25,25,25)"/><rect x="40" y="20" width="10" height="10" fill="rgb(14,14,14)"/><rect x="50" y="20" width="10" height="10" fill="rgb(21,21,21)"/><rect x="60" y="20" width="10" height="10" fill="rgb(21,21,21)"/><rect x="70" y="20" width="10" height="10" fill="rgb(23,23,23)"/><rect x="80" y="20" width="10" height="10" fill="rgb(21,21,21)"/><rect x="90" y="20" width="10" height="10" fill="rgb(21,21,21)"/><rect x="0" y="30" width="10" height="10" fill="rgb(21,21,21)"/><rect x="10" y="30" width="10" height="10" fill="rgb(22,22,22)"/><rect x="20" y="30" width="10" height="10" fill="rgb(21,21,21)"/><rect x="30" y="30" width="10" height="10" fill="rgb(29,29,29)"/><rect x="40" y="30" width="10" height="10" fill="rgb(21,21,21)"/><rect x="50" y="30" width="10" height="10" fill="rgb(21,21,21)"/><rect x="60" y="30" width="10" height="10" fill="rgb(21,21,21)"/><rect x="70" y="30" width="10" height="10" fill="rgb(21,21,21)"/><rect x="80" y="30" width="10" height="10" fill="rgb(21,21,21)"/><rect x="90" y="30" width="10" height="10" fill="rgb(21,21,21)"/><rect x="0" y="40" width="10" height="10" fill="rgb(20,20,20)"/><rect x="10" y="40" width="10" height="10" fill="rgb(34,34,34)"/><rect x="20" y="40" width="10" height="10" fill="rgb(21,21,21)"/><rect x="30" y="40" width="10" height="10" fill="rgb(21,21,21)"/><rect x="40" y="40" width="10" height="10" fill="rgb(40,40,40)"/><rect x="50" y="40" width="10" height="10" fill="rgb(21,21,21)"/><rect x="60" y="40" width="10" height="10" fill="rgb(21,21,21)"/><rect x="70" y="40" width="10" height="10" fill="rgb(38,38,38)"/><rect x="80" y="40" width="10" height="10" fill="rgb(21,21,21)"/><rect x="90" y="40" width="10" height="10" fill="rgb(21,21,21)"/><rect x="0" y="50" width="10" height="10" fill="rgb(21,21,21)"/><rect x="10" y="50" width="10" height="10" fill="rgb(21,21,21)"/><rect x="20" y="50" width="10" height="10" fill="rgb(21,21,21)"/><rect x="30" y="50" width="10" height="10" fill="rgb(23,23,23)"/><rect x="40" y="50" width="10" height="10" fill="rgb(21,21,21)"/><rect x="50" y="50" width="10" height="10" fill="rgb(21,21,21)"/><rect x="60" y="50" width="10" height="10" fill="rgb(21,21,21)"/><rect x="70" y="50" width="10" height="10" fill="rgb(21,21,21)"/><rect x="80" y="50" width="10" height="10" fill="rgb(21,21,21)"/><rect x="90" y="50" width="10" height="10" fill="rgb(21,21,21)"/><rect x="0" y="60" width="10" height="10" fill="rgb(21,21,21)"/><rect x="10" y="60" width="10" height="10" fill="rgb(21,21,21)"/><rect x="20" y="60" width="10" height="10" fill="rgb(21,21,21)"/><rect x="30" y="60" width="10" height="10" fill="rgb(21,21,21)"/><rect x="40" y="60" width="10" height="10" fill="rgb(21,21,21)"/><rect x="50" y="60" width="10" height="10" fill="rgb(21,21,21)"/><rect x="60" y="60" width="10" height="10" fill="rgb(21,21,21)"/><rect x="70" y="60" width="10" height="10" fill="rgb(20,20,20)"/><rect x="80" y="60" width="10" height="10" fill="rgb(20,20,20)"/><rect x="90" y="60" width="10" height="10" fill="rgb(20,20,20)"/><rect x="0" y="70" width="10" height="10" fill="rgb(20,20,20)"/><rect x="10" y="70" width="10" height="10" fill="rgb(21,21,21)"/><rect x="20" y="70" width="10" height="10" fill="rgb(21,21,21)"/><rect x="30" y="70" width="10" height="10" fill="rgb(21,21,21)"/><rect x="40" y="70" width="10" height="10" fill="rgb(21,21,21)"/><rect x="50" y="70" width="10" height="10" fill="rgb(21,21,21)"/><rect x="60" y="70" width="10" height="10" fill="rgb(21,21,21)"/><rect x="70" y="70" width="10" height="10" fill="rgb(21,21,21)"/><rect x="80" y="70" width="10" height="10" fill="rgb(21,21,21)"/><rect x="90" y="70" width="10" height="10" fill="rgb(21,21,21)"/><rect x="0" y="80" width="10" height="10" fill="rgb(22,22,22)"/><rect x="10" y="80" width="10" height="10" fill="rgb(22,22,22)"/><rect x="20" y="80" width="10" height="10" fill="rgb(22,22,22)"/><rect x="30" y="80" width="10" height="10" fill="rgb(22,22,22)"/><rect x="40" y="80" width="10" height="10" fill="rgb(23,23,23)"/><rect x="50" y="80" width="10" height="10" fill="rgb(30,30,30)"/><rect x="60" y="80" width="10" height="10" fill="rgb(23,23,23)"/><rect x="70" y="80" width="10" height="10" fill="rgb(23,23,23)"/><rect x="80" y="80" width="10" height="10" fill="rgb(24,24,24)"/><rect x="90" y="80" width="10" height="10" fill="rgb(25,25,25)"/><rect x="0" y="90" width="10" height="10" fill="rgb(29,29,29)"/><rect x="10" y="90" width="10" height="10" fill="rgb(50,50,50)"/><rect x="20" y="90" width="10" height="10" fill="rgb(46,46,46)"/><rect x="30" y="90" width="10" height="10" fill="rgb(57,57,57)"/><rect x="40" y="90" width="10" height="10" fill="rgb(86,86,86)"/><rect x="50" y="90" width="10" height="10" fill="rgb(108,108,108)"/><rect x="60" y="90" width="10" height="10" fill="rgb(122,122,122)"/><rect x="70" y="90" width="10" height="10" fill="rgb(98,102,122)"/><rect x="80" y="90" width="10" height="10" fill="rgb(140,143,172)"/><rect x="90" y="90" width="10" height="10" fill="rgb(180,179,203)"/><rect x="0" y="100" width="10" height="10" fill="rgb(176,178,196)"/><rect x="10" y="100" width="10" height="10" fill="rgb(153,139,151)"/><rect x="20" y="100" width="10" height="10" fill="rgb(153,139,151)"/><rect x="30" y="100" width="10" height="10" fill="rgb(162,140,145)"/><rect x="40" y="100" width="10" height="10" fill="rgb(153,166,183)"/><rect x="50" y="100" width="10" height="10" fill="rgb(172,187,193)"/><rect x="60" y="100" width="10" height="10" fill="rgb(210,232,239)"/><rect x="70" y="100" width="10" height="10" fill="rgb(225,239,246)"/><rect x="80" y="100" width="10" height="10" fill="rgb(218,233,242)"/><rect x="90" y="100" width="10" height="10" fill="rgb(219,230,235)"/><rect x="0" y="110" width="10" height="10" fill="rgb(225,235,242)"/><rect x="10" y="110" width="10" height="10" fill="rgb(214,229,241)"/><rect x="20" y="110" width="10" height="10" fill="rgb(218,234,246)"/><rect x="30" y="110" width="10" height="10" fill="rgb(220,231,242)"/><rect x="40" y="110" width="10" height="10" fill="rgb(222,231,241)"/><rect x="50" y="110" width="10" height="10" fill="rgb(236,246,253)"/><rect x="60" y="110" width="10" height="10" fill="rgb(218,230,243)"/><rect x="70" y="110" width="10" height="10" fill="rgb(217,228,240)"/><rect x="80" y="110" width="10" height="10" fill="rgb(221,233,244)"/><rect x="90" y="110" width="10" height="10" fill="rgb(225,236,246)"/><rect x="0" y="120" width="10" height="10" fill="rgb(231,240,247)"/><rect x="10" y="120" width="10" height="10" fill="rgb(223,235,245)"/><rect x="20" y="120" width="10" height="10" fill="rgb(224,233,242)"/><rect x="30" y="120" width="10" height="10" fill="rgb(219,230,240)"/><rect x="40" y="120" width="10" height="10" fill="rgb(214,227,241)"/><rect x="50" y="120" width="10" height="10" fill="rgb(224,232,239)"/><rect x="60" y="120" width="10" height="10" fill="rgb(229,237,243)"/><rect x="70" y="120" width="10" height="10" fill="rgb(230,239,248)"/><rect x="80" y="120" width="10" height="10" fill="rgb(228,237,245)"/><rect x="90" y="120" width="10" height="10" fill="rgb(214,221,228)"/><rect x="0" y="130" width="10" height="10" fill="rgb(192,200,208)"/><rect x="10" y="130" width="10" height="10" fill="rgb(189,197,205)"/><rect x="20" y="130" width="10" height="10" fill="rgb(214,224,232)"/><rect x="30" y="130" width="10" height="10" fill="rgb(218,227,235)"/><rect x="40" y="130" width="10" height="10" fill="rgb(216,225,234)"/><rect x="50" y="130" width="10" height="10" fill="rgb(220,231,242)"/><rect x="60" y="130" width="10" height="10" fill="rgb(212,221,231)"/><rect x="70" y="130" width="10" height="10" fill="rgb(204,213,221)"/><rect x="80" y="130" width="10" height="10" fill="rgb(195,204,211)"/><rect x="90" y="130" width="10" height="10" fill="rgb(196,204,210)"/><rect x="0" y="140" width="10" height="10" fill="rgb(183,191,199)"/><rect x="10" y="140" width="10" height="10" fill="rgb(194,203,213)"/><rect x="20" y="140" width="10" height="10" fill="rgb(210,221,231)"/><rect x="30" y="140" width="10" height="10" fill="rgb(220,229,237)"/><rect x="40" y="140" width="10" height="10" fill="rgb(220,229,237)"/><rect x="50" y="140" width="10" height="10" fill="rgb(209,219,228)"/><rect x="60" y="140" width="10" height="10" fill="rgb(205,214,225)"/><rect x="70" y="140" width="10" height="10" fill="rgb(218,228,239)"/><rect x="80" y="140" width="10" height="10" fill="rgb(221,231,242)"/><rect x="90" y="140" width="10" height="10" fill="rgb(222,232,243)"/><rect x="0" y="150" width="10" height="10" fill="rgb(225,234,242)"/><rect x="10" y="150" width="10" height="10" fill="rgb(212,220,228)"/><rect x="20" y="150" width="10" height="10" fill="rgb(197,205,212)"/><rect x="30" y="150" width="10" height="10" fill="rgb(201,209,216)"/><rect x="40" y="150" width="10" height="10" fill="rgb(188,196,203)"/><rect x="50" y="150" width="10" height="10" fill="rgb(204,213,221)"/><rect x="60" y="150" width="10" height="10" fill="rgb(209,219,227)"/><rect x="70" y="150" width="10" height="10" fill="rgb(217,226,235)"/><rect x="80" y="150" width="10" height="10" fill="rgb(206,215,224)"/><rect x="90" y="150" width="10" height="10" fill="rgb(192,201,210)"/><rect x="0" y="160" width="10" height="10" fill="rgb(201,210,220)"/><rect x="10" y="160" width="10" height="10" fill="rgb(207,216,225)"/><rect x="20" y="160" width="10" height="10" fill="rgb(210,219,228)"/><rect x="30" y="160" width="10" height="10" fill="rgb(217,227,235)"/><rect x="40" y="160" width="10" height="10" fill="rgb(221,230,239)"/><rect x="50" y="160" width="10" height="10" fill="rgb(221,231,240)"/><rect x="60" y="160" width="10" height="10" fill="rgb(211,220,227)"/><rect x="70" y="160" width="10" height="10" fill="rgb(224,233,241)"/><rect x="80" y="160" width="10" height="10" fill="rgb(220,229,236)"/><rect x="90" y="160" width="10" height="10" fill="rgb(215,224,231)"/><rect x="0" y="170" width="10" height="10" fill="rgb(219,228,235)"/><rect x="10" y="170" width="10" height="10" fill="rgb(208,217,225)"/><rect x="20" y="170" width="10" height="10" fill="rgb(213,222,232)"/><rect x="30" y="170" width="10" height="10" fill="rgb(218,227,235)"/><rect x="40" y="170" width="10" height="10" fill="rgb(224,233,242)"/><rect x="50" y="170" width="10" height="10" fill="rgb(218,227,234)"/><rect x="60" y="170" width="10" height="10" fill="rgb(198,207,213)"/><rect x="70" y="170" width="10" height="10" fill="rgb(213,221,228)"/><rect x="80" y="170" width="10" height="10" fill="rgb(215,224,234)"/><rect x="90" y="170" width="10" height="10" fill="rgb(226,235,244)"/><rect x="0" y="180" width="10" height="10" fill="rgb(225,235,245)"/><rect x="10" y="180" width="10" height="10" fill="rgb(232,241,250)"/><rect x="20" y="180" width="10" height="10" fill="rgb(223,232,240)"/><rect x="30" y="180" width="10" height="10" fill="rgb(221,231,242)"/><rect x="40" y="180" width="10" height="10" fill="rgb(219,229,240)"/><rect x="50" y="180" width="10" height="10" fill="rgb(199,207,215)"/><rect x="60" y="180" width="10" height="10" fill="rgb(206,214,222)"/><rect x="70" y="180" width="10" height="10" fill="rgb(223,231,238)"/><rect x="80" y="180" width="10" height="10" fill="rgb(198,207,216)"/><rect x="90" y="180" width="10" height="10" fill="rgb(197,206,215)"/><rect x="0" y="190" width="10" height="10" fill="rgb(224,233,241)"/><rect x="10" y="190" width="10" height="10" fill="rgb(179,187,195)"/><rect x="20" y="190" width="10" height="10" fill="rgb(215,225,236)"/><rect x="30" y="190" width="10" height="10" fill="rgb(231,239,245)"/><rect x="40" y="190" width="10" height="10" fill="rgb(217,224,230)"/><rect x="50" y="190" width="10" height="10" fill="rgb(219,228,237)"/><rect x="60" y="190" width="10" height="10" fill="rgb(208,216,223)"/><rect x="70" y="190" width="10" height="10" fill="rgb(209,218,227)"/><rect x="80" y="190" width="10" height="10" fill="rgb(224,233,242)"/><rect x="90" y="190" width="10" height="10" fill="rgb(213,222,231)"/><rect x="0" y="200" width="10" height="10" fill="rgb(227,236,246)"/><rect x="10" y="200" width="10" height="10" fill="rgb(219,228,238)"/><rect x="20" y="200" width="10" height="10" fill="rgb(191,200,211)"/><rect x="30" y="200" width="10" height="10" fill="rgb(191,200,210)"/><rect x="40" y="200" width="10" height="10" fill="rgb(199,207,215)"/><rect x="50" y="200" width="10" height="10" fill="rgb(198,206,213)"/><rect x="60" y="200" width="10" height="10" fill="rgb(194,202,209)"/><rect x="70" y="200" width="10" height="10" fill="rgb(201,209,216)"/><rect x="80" y="200" width="10" height="10" fill="rgb(205,213,221)"/><rect x="90" y="200" width="10" height="10" fill="rgb(209,218,227)"/><rect x="0" y="210" width="10" height="10" fill="rgb(218,228,237)"/><rect x="10" y="210" width="10" height="10" fill="rgb(218,228,239)"/><rect x="20" y="210" width="10" height="10" fill="rgb(214,223,232)"/><rect x="30" y="210" width="10" height="10" fill="rgb(213,221,229)"/><rect x="40" y="210" width="10" height="10" fill="rgb(208,217,224)"/><rect x="50" y="210" width="10" height="10" fill="rgb(211,219,227)"/><rect x="60" y="210" width="10" height="10" fill="rgb(211,220,228)"/><rect x="70" y="210" width="10" height="10" fill="rgb(206,215,224)"/><rect x="80" y="210" width="10" height="10" fill="rgb(207,216,225)"/><rect x="90" y="210" width="10" height="10" fill="rgb(207,216,225)"/><rect x="0" y="220" width="10" height="10" fill="rgb(217,225,234)"/><rect x="10" y="220" width="10" height="10" fill="rgb(223,232,240)"/><rect x="20" y="220" width="10" height="10" fill="rgb(216,225,232)"/><rect x="30" y="220" width="10" height="10" fill="rgb(209,218,226)"/><rect x="40" y="220" width="10" height="10" fill="rgb(216,225,232)"/><rect x="50" y="220" width="10" height="10" fill="rgb(213,222,229)"/><rect x="60" y="220" width="10" height="10" fill="rgb(211,220,229)"/><rect x="70" y="220" width="10" height="10" fill="rgb(215,224,231)"/><rect x="80" y="220" width="10" height="10" fill="rgb(210,218,226)"/><rect x="90" y="220" width="10" height="10" fill="rgb(218,227,235)"/><rect x="0" y="230" width="10" height="10" fill="rgb(221,229,237)"/><rect x="10" y="230" width="10" height="10" fill="rgb(203,211,220)"/><rect x="20" y="230" width="10" height="10" fill="rgb(200,209,217)"/><rect x="30" y="230" width="10" height="10" fill="rgb(206,214,222)"/><rect x="40" y="230" width="10" height="10" fill="rgb(202,211,219)"/><rect x="50" y="230" width="10" height="10" fill="rgb(207,216,224)"/><rect x="60" y="230" width="10" height="10" fill="rgb(211,219,227)"/><rect x="70" y="230" width="10" height="10" fill="rgb(213,222,231)"/><rect x="80" y="230" width="10" height="10" fill="rgb(211,220,230)"/><rect x="90" y="230" width="10" height="10" fill="rgb(205,213,219)"/><rect x="0" y="240" width="10" height="10" fill="rgb(211,219,227)"/><rect x="10" y="240" width="10" height="10" fill="rgb(204,212,220)"/><rect x="20" y="240" width="10" height="10" fill="rgb(205,213,220)"/><rect x="30" y="240" width="10" height="10" fill="rgb(198,207,215)"/><rect x="40" y="240" width="10" height="10" fill="rgb(221,228,234)"/><rect x="50" y="240" width="10" height="10" fill="rgb(205,214,220)"/><rect x="60" y="240" width="10" height="10" fill="rgb(198,207,215)"/><rect x="70" y="240" width="10" height="10" fill="rgb(228,237,244)"/><rect x="80" y="240" width="10" height="10" fill="rgb(223,231,238)"/><rect x="90" y="240" width="10" height="10" fill="rgb(217,226,234)"/><rect x="0" y="250" width="10" height="10" fill="rgb(215,224,231)"/><rect x="10" y="250" width="10" height="10" fill="rgb(195,203,210)"/><rect x="20" y="250" width="10" height="10" fill="rgb(203,212,220)"/><rect x="30" y="250" width="10" height="10" fill="rgb(220,227,234)"/><rect x="40" y="250" width="10" height="10" fill="rgb(194,203,209)"/><rect x="50" y="250" width="10" height="10" fill="rgb(210,218,225)"/><rect x="60" y="250" width="10" height="10" fill="rgb(182,194,200)"/><rect x="70" y="250" width="10" height="10" fill="rgb(176,195,204)"/><rect x="80" y="250" width="10" height="10" fill="rgb(146,174,188)"/><rect x="90" y="250" width="10" height="10" fill="rgb(136,165,181)"/><rect x="0" y="260" width="10" height="10" fill="rgb(126,145,159)"/><rect x="10" y="260" width="10" height="10" fill="rgb(93,121,143)"/><rect x="20" y="260" width="10" height="10" fill="rgb(98,127,152)"/><rect x="30" y="260" width="10" height="10" fill="rgb(95,123,146)"/><rect x="40" y="260" width="10" height="10" fill="rgb(96,96,96)"/><rect x="50" y="260" width="10" height="10" fill="rgb(203,212,219)"/><rect x="60" y="260" width="10" height="10" fill="rgb(197,205,212)"/><rect x="70" y="260" width="10" height="10" fill="rgb(199,208,215)"/><rect x="80" y="260" width="10" height="10" fill="rgb(211,220,227)"/><rect x="90" y="260" width="10" height="10" fill="rgb(206,215,222)"/><rect x="0" y="270" width="10" height="10" fill="rgb(209,217,225)"/><rect x="10" y="270" width="10" height="10" fill="rgb(215,224,232)"/><rect x="20" y="270" width="10" height="10" fill="rgb(203,211,219)"/><rect x="30" y="270" width="10" height="10" fill="rgb(208,217,224)"/><rect x="40" y="270" width="10" height="10" fill="rgb(207,215,223)"/><rect x="50" y="270" width="10" height="10" fill="rgb(203,212,220)"/><rect x="60" y="270" width="10" height="10" fill="rgb(197,206,213)"/><rect x="70" y="270" width="10" height="10" fill="rgb(207,215,224)"/><rect x="80" y="270" width="10" height="10" fill="rgb(200,209,217)"/><rect x="90" y="270" width="10" height="10" fill="rgb(197,206,214)"/><rect x="0" y="280" width="10" height="10" fill="rgb(199,208,217)"/><rect x="10" y="280" width="10" height="10" fill="rgb(191,199,207)"/><rect x="20" y="280" width="10" height="10" fill="rgb(195,202,210)"/><rect x="30" y="280" width="10" height="10" fill="rgb(197,207,218)"/><rect x="40" y="280" width="10" height="10" fill="rgb(191,209,222)"/><rect x="50" y="280" width="10" height="10" fill="rgb(187,209,226)"/><rect x="60" y="280" width="10" height="10" fill="rgb(178,202,213)"/><rect x="70" y="280" width="10" height="10" fill="rgb(176,198,209)"/><rect x="80" y="280" width="10" height="10" fill="rgb(189,199,205)"/><rect x="90" y="280" width="10" height="10" fill="rgb(169,184,189)"/><rect x="0" y="290" width="10" height="10" fill="rgb(155,174,184)"/><rect x="10" y="290" width="10" height="10" fill="rgb(152,169,178)"/><rect x="20" y="290" width="10" height="10" fill="rgb(120,139,153)"/><rect x="30" y="290" width="10" height="10" fill="rgb(102,125,147)"/><rect x="40" y="290" width="10" height="10" fill="rgb(92,115,138)"/><rect x="50" y="290" width="10" height="10" fill="rgb(79,79,79)"/><rect x="60" y="290" width="10" height="10" fill="rgb(49,49,49)"/><rect x="70" y="290" width="10" height="10" fill="rgb(42,42,42)"/><rect x="80" y="290" width="10" height="10" fill="rgb(36,36,36)"/><rect x="90" y="290" width="10" height="10" fill="rgb(31,31,31)"/><rect x="0" y="300" width="10" height="10" fill="rgb(28,28,28)"/><rect x="10" y="300" width="10" height="10" fill="rgb(29,29,29)"/><rect x="20" y="300" width="10" height="10" fill="rgb(24,24,24)"/><rect x="30" y="300" width="10" height="10" fill="rgb(21,21,21)"/><rect x="40" y="300" width="10" height="10" fill="rgb(21,21,21)"/><rect x="50" y="300" width="10" height="10" fill="rgb(22,22,22)"/><rect x="60" y="300" width="10" height="10" fill="rgb(23,23,23)"/><rect x="70" y="300" width="10" height="10" fill="rgb(21,21,21)"/><rect x="80" y="300" width="10" height="10" fill="rgb(22,22,22)"/><rect x="90" y="300" width="10" height="10" fill="rgb(20,20,20)"/><rect x="0" y="310" width="10" height="10" fill="rgb(21,21,21)"/><rect x="10" y="310" width="10" height="10" fill="rgb(19,19,19)"/><rect x="20" y="310" width="10" height="10" fill="rgb(20,20,20)"/><rect x="30" y="310" width="10" height="10" fill="rgb(20,20,20)"/><rect x="40" y="310" width="10" height="10" fill="rgb(20,20,20)"/><rect x="50" y="310" width="10" height="10" fill="rgb(19,19,19)"/><rect x="60" y="310" width="10" height="10" fill="rgb(21,21,21)"/><rect x="70" y="310" width="10" height="10" fill="rgb(21,21,21)"/><rect x="80" y="310" width="10" height="10" fill="rgb(20,20,20)"/><rect x="90" y="310" width="10" height="10" fill="rgb(21,21,21)"/><rect x="0" y="320" width="10" height="10" fill="rgb(22,22,22)"/><rect x="10" y="320" width="10" height="10" fill="rgb(20,20,20)"/><rect x="20" y="320" width="10" height="10" fill="rgb(19,19,19)"/><rect x="30" y="320" width="10" height="10" fill="rgb(19,19,19)"/><rect x="40" y="320" width="10" height="10" fill="rgb(26,26,26)"/><rect x="50" y="320" width="10" height="10" fill="rgb(20,20,20)"/><rect x="60" y="320" width="10" height="10" fill="rgb(24,24,24)"/><rect x="70" y="320" width="10" height="10" fill="rgb(48,48,48)"/><rect x="80" y="320" width="10" height="10" fill="rgb(24,24,24)"/><rect x="90" y="320" width="10" height="10" fill="rgb(24,24,24)"/><rect x="0" y="330" width="10" height="10" fill="rgb(24,24,24)"/><rect x="10" y="330" width="10" height="10" fill="rgb(29,29,29)"/><rect x="20" y="330" width="10" height="10" fill="rgb(24,24,24)"/><rect x="30" y="330" width="10" height="10" fill="rgb(24,24,24)"/><rect x="40" y="330" width="10" height="10" fill="rgb(24,24,24)"/><rect x="50" y="330" width="10" height="10" fill="rgb(37,37,37)"/><rect x="60" y="330" width="10" height="10" fill="rgb(34,34,34)"/><rect x="70" y="330" width="10" height="10" fill="rgb(27,27,27)"/><rect x="80" y="330" width="10" height="10" fill="rgb(28,28,28)"/><rect x="90" y="330" width="10" height="10" fill="rgb(37,37,37)"/><rect x="0" y="340" width="10" height="10" fill="rgb(27,27,27)"/><rect x="10" y="340" width="10" height="10" fill="rgb(27,27,27)"/><rect x="20" y="340" width="10" height="10" fill="rgb(29,29,29)"/><rect x="30" y="340" width="10" height="10" fill="rgb(28,28,28)"/><rect x="40" y="340" width="10" height="10" fill="rgb(28,28,28)"/><rect x="50" y="340" width="10" height="10" fill="rgb(30,30,30)"/><rect x="60" y="340" width="10" height="10" fill="rgb(30,30,30)"/><rect x="70" y="340" width="10" height="10" fill="rgb(35,35,35)"/><rect x="80" y="340" width="10" height="10" fill="rgb(29,29,29)"/><rect x="90" y="340" width="10" height="10" fill="rgb(26,26,26)"/><rect x="0" y="350" width="10" height="10" fill="rgb(27,27,27)"/><rect x="10" y="350" width="10" height="10" fill="rgb(28,28,28)"/><rect x="20" y="350" width="10" height="10" fill="rgb(29,29,29)"/><rect x="30" y="350" width="10" height="10" fill="rgb(25,25,25)"/><rect x="40" y="350" width="10" height="10" fill="rgb(27,27,27)"/><rect x="50" y="350" width="10" height="10" fill="rgb(33,33,33)"/><rect x="60" y="350" width="10" height="10" fill="rgb(34,34,34)"/><rect x="70" y="350" width="10" height="10" fill="rgb(30,30,30)"/><rect x="80" y="350" width="10" height="10" fill="rgb(28,28,28)"/><rect x="90" y="350" width="10" height="10" fill="rgb(29,29,29)"/><rect x="0" y="360" width="10" height="10" fill="rgb(19,19,19)"/><rect x="10" y="360" width="10" height="10" fill="rgb(18,18,18)"/><rect x="20" y="360" width="10" height="10" fill="rgb(21,21,21)"/><rect x="30" y="360" width="10" height="10" fill="rgb(20,20,20)"/><rect x="40" y="360" width="10" height="10" fill="rgb(19,19,19)"/><rect x="50" y="360" width="10" height="10" fill="rgb(21,21,21)"/><rect x="60" y="360" width="10" height="10" fill="rgb(22,22,22)"/><rect x="70" y="360" width="10" height="10" fill="rgb(22,22,22)"/><rect x="80" y="360" width="10" height="10" fill="rgb(23,23,23)"/><rect x="90" y="360" width="10" height="10" fill="rgb(39,39,39)"/><rect x="0" y="370" width="10" height="10" fill="rgb(19,19,19)"/><rect x="10" y="370" width="10" height="10" fill="rgb(19,19,19)"/><rect x="20" y="370" width="10" height="10" fill="rgb(17,17,17)"/><rect x="30" y="370" width="10" height="10" fill="rgb(15,15,15)"/><rect x="40" y="370" width="10" height="10" fill="rgb(27,27,27)"/><rect x="50" y="370" width="10" height="10" fill="rgb(16,16,16)"/><rect x="60" y="370" width="10" height="10" fill="rgb(16,16,16)"/><rect x="70" y="370" width="10" height="10" fill="rgb(16,16,16)"/><rect x="80" y="370" width="10" height="10" fill="rgb(16,16,16)"/><rect x="90" y="370" width="10" height="10" fill="rgb(16,16,16)"/><rect x="0" y="380" width="10" height="10" fill="rgb(16,16,16)"/><rect x="10" y="380" width="10" height="10" fill="rgb(16,16,16)"/><rect x="20" y="380" width="10" height="10" fill="rgb(14,14,14)"/><rect x="30" y="380" width="10" height="10" fill="rgb(14,14,14)"/><rect x="40" y="380" width="10" height="10" fill="rgb(15,15,15)"/><rect x="50" y="380" width="10" height="10" fill="rgb(15,15,15)"/><rect x="60" y="380" width="10" height="10" fill="rgb(15,15,15)"/><rect x="70" y="380" width="10" height="10" fill="rgb(20,20,20)"/><rect x="80" y="380" width="10" height="10" fill="rgb(18,18,18)"/><rect x="90" y="380" width="10" height="10" fill="rgb(29,29,29)"/><rect x="0" y="390" width="10" height="10" fill="rgb(31,31,31)"/><rect x="10" y="390" width="10" height="10" fill="rgb(50,50,50)"/><rect x="20" y="390" width="10" height="10" fill="rgb(53,53,53)"/><rect x="30" y="390" width="10" height="10" fill="rgb(74,74,74)"/><rect x="40" y="390" width="10" height="10" fill="rgb(116,116,116)"/><rect x="50" y="390" width="10" height="10" fill="rgb(130,130,130)"/><rect x="60" y="390" width="10" height="10" fill="rgb(140,140,140)"/><rect x="70" y="390" width="10" height="10" fill="rgb(140,163,178)"/><rect x="80" y="390" width="10" height="10" fill="rgb(149,166,177)"/><rect x="90" y="390" width="10" height="10" fill="rgb(160,185,196)"/><rect x="0" y="400" width="10" height="10" fill="rgb(189,210,219)"/><rect x="10" y="400" width="10" height="10" fill="rgb(185,204,208)"/><rect x="20" y="400" width="10" height="10" fill="rgb(171,190,194)"/><rect x="30" y="400" width="10" height="10" fill="rgb(174,192,196)"/><rect x="40" y="400" width="10" height="10" fill="rgb(219,231,238)"/><rect x="50" y="400" width="10" height="10" fill="rgb(190,208,212)"/><rect x="60" y="400" width="10" height="10" fill="rgb(184,210,220)"/><rect x="70" y="400" width="10" height="10" fill="rgb(206,229,239)"/><rect x="80" y="400" width="10" height="10" fill="rgb(220,236,244)"/><rect x="90" y="400" width="10" height="10" fill="rgb(208,225,231)"/><rect x="0" y="410" width="10" height="10" fill="rgb(230,242,249)"/><rect x="10" y="410" width="10" height="10" fill="rgb(212,222,228)"/><rect x="20" y="410" width="10" height="10" fill="rgb(166,198,213)"/><rect x="30" y="410" width="10" height="10" fill="rgb(197,226,237)"/><rect x="40" y="410" width="10" height="10" fill="rgb(177,211,226)"/><rect x="50" y="410" width="10" height="10" fill="rgb(180,217,233)"/><rect x="60" y="410" width="10" height="10" fill="rgb(185,214,227)"/><rect x="70" y="410" width="10" height="10" fill="rgb(207,216,225)"/><rect x="80" y="410" width="10" height="10" fill="rgb(194,202,208)"/><rect x="90" y="410" width="10" height="10" fill="rgb(209,217,224)"/><rect x="0" y="420" width="10" height="10" fill="rgb(213,222,231)"/><rect x="10" y="420" width="10" height="10" fill="rgb(213,222,229)"/><rect x="20" y="420" width="10" height="10" fill="rgb(202,211,218)"/><rect x="30" y="420" width="10" height="10" fill="rgb(202,211,218)"/><rect x="40" y="420" width="10" height="10" fill="rgb(209,218,225)"/><rect x="50" y="420" width="10" height="10" fill="rgb(203,212,219)"/><rect x="60" y="420" width="10" height="10" fill="rgb(240,248,252)"/><rect x="70" y="420" width="10" height="10" fill="rgb(199,207,214)"/><rect x="80" y="420" width="10" height="10" fill="rgb(216,225,232)"/><rect x="90" y="420" width="10" height="10" fill="rgb(215,224,231)"/><rect x="0" y="430" width="10" height="10" fill="rgb(228,237,244)"/><rect x="10" y="430" width="10" height="10" fill="rgb(218,227,235)"/><rect x="20" y="430" width="10" height="10" fill="rgb(227,235,240)"/><rect x="30" y="430" width="10" height="10" fill="rgb(220,229,235)"/><rect x="40" y="430" width="10" height="10" fill="rgb(220,229,235)"/><rect x="50" y="430" width="10" height="10" fill="rgb(232,238,242)"/><rect x="60" y="430" width="10" height="10" fill="rgb(233,240,245)"/><rect x="70" y="430" width="10" height="10" fill="rgb(216,225,231)"/><rect x="80" y="430" width="10" height="10" fill="rgb(225,233,238)"/><rect x="90" y="430" width="10" height="10" fill="rgb(208,217,225)"/><rect x="0" y="440" width="10" height="10" fill="rgb(179,188,196)"/><rect x="10" y="440" width="10" height="10" fill="rgb(194,200,205)"/><rect x="20" y="440" width="10" height="10" fill="rgb(175,183,188)"/><rect x="30" y="440" width="10" height="10" fill="rgb(176,184,190)"/><rect x="40" y="440" width="10" height="10" fill="rgb(189,198,206)"/><rect x="50" y="440" width="10" height="10" fill="rgb(196,205,212)"/><rect x="60" y="440" width="10" height="10" fill="rgb(195,203,209)"/><rect x="70" y="440" width="10" height="10" fill="rgb(193,202,211)"/><rect x="80" y="440" width="10" height="10" fill="rgb(219,228,235)"/><rect x="90" y="440" width="10" height="10" fill="rgb(230,240,247)"/><rect x="0" y="450" width="10" height="10" fill="rgb(205,214,222)"/><rect x="10" y="450" width="10" height="10" fill="rgb(220,228,233)"/><rect x="20" y="450" width="10" height="10" fill="rgb(197,206,214)"/><rect x="30" y="450" width="10" height="10" fill="rgb(212,222,232)"/><rect x="40" y="450" width="10" height="10" fill="rgb(206,214,220)"/><rect x="50" y="450" width="10" height="10" fill="rgb(201,210,216)"/><rect x="60" y="450" width="10" height="10" fill="rgb(216,225,231)"/><rect x="70" y="450" width="10" height="10" fill="rgb(204,212,219)"/><rect x="80" y="450" width="10" height="10" fill="rgb(219,228,236)"/><rect x="90" y="450" width="10" height="10" fill="rgb(226,235,242)"/><rect x="0" y="460" width="10" height="10" fill="rgb(203,210,217)"/><rect x="10" y="460" width="10" height="10" fill="rgb(216,224,230)"/><rect x="20" y="460" width="10" height="10" fill="rgb(218,226,233)"/><rect x="30" y="460" width="10" height="10" fill="rgb(177,186,192)"/><rect x="40" y="460" width="10" height="10" fill="rgb(214,223,230)"/><rect x="50" y="460" width="10" height="10" fill="rgb(214,223,230)"/><rect x="60" y="460" width="10" height="10" fill="rgb(209,219,227)"/><rect x="70" y="460" width="10" height="10" fill="rgb(227,236,243)"/><rect x="80" y="460" width="10" height="10" fill="rgb(200,208,215)"/><rect x="90" y="460" width="10" height="10" fill="rgb(209,217,224)"/><rect x="0" y="470" width="10" height="10" fill="rgb(216,224,231)"/><rect x="10" y="470" width="10" height="10" fill="rgb(207,216,223)"/><rect x="20" y="470" width="10" height="10" fill="rgb(227,234,240)"/><rect x="30" y="470" width="10" height="10" fill="rgb(219,226,232)"/><rect x="40" y="470" width="10" height="10" fill="rgb(239,246,252)"/><rect x="50" y="470" width="10" height="10" fill="rgb(233,240,245)"/><rect x="60" y="470" width="10" height="10" fill="rgb(221,229,236)"/><rect x="70" y="470" width="10" height="10" fill="rgb(226,234,240)"/><rect x="80" y="470" width="10" height="10" fill="rgb(233,240,247)"/><rect x="90" y="470" width="10" height="10" fill="rgb(212,219,225)"/><rect x="0" y="480" width="10" height="10" fill="rgb(234,242,248)"/><rect x="10" y="480" width="10" height="10" fill="rgb(228,237,243)"/><rect x="20" y="480" width="10" height="10" fill="rgb(231,239,245)"/><rect x="30" y="480" width="10" height="10" fill="rgb(233,240,246)"/><rect x="40" y="480" width="10" height="10" fill="rgb(232,239,244)"/><rect x="50" y="480" width="10" height="10" fill="rgb(213,221,228)"/><rect x="60" y="480" width="10" height="10" fill="rgb(211,220,227)"/><rect x="70" y="480" width="10" height="10" fill="rgb(225,234,240)"/><rect x="80" y="480" width="10" height="10" fill="rgb(224,232,239)"/><rect x="90" y="480" width="10" height="10" fill="rgb(206,213,219)"/><rect x="0" y="490" width="10" height="10" fill="rgb(226,235,242)"/><rect x="10" y="490" width="10" height="10" fill="rgb(235,243,249)"/><rect x="20" y="490" width="10" height="10" fill="rgb(229,238,244)"/><rect x="30" y="490" width="10" height="10" fill="rgb(213,221,228)"/><rect x="40" y="490" width="10" height="10" fill="rgb(222,230,237)"/><rect x="50" y="490" width="10" height="10" fill="rgb(222,230,238)"/><rect x="60" y="490" width="10" height="10" fill="rgb(227,236,245)"/><rect x="70" y="490" width="10" height="10" fill="rgb(223,232,241)"/><rect x="80" y="490" width="10" height="10" fill="rgb(228,237,245)"/><rect x="90" y="490" width="10" height="10" fill="rgb(218,227,234)"/><rect x="0" y="500" width="10" height="10" fill="rgb(208,216,223)"/><rect x="10" y="500" width="10" height="10" fill="rgb(212,219,226)"/><rect x="20" y="500" width="10" height="10" fill="rgb(223,232,239)"/><rect x="30" y="500" width="10" height="10" fill="rgb(228,235,242)"/><rect x="40" y="500" width="10" height="10" fill="rgb(213,222,230)"/><rect x="50" y="500" width="10" height="10" fill="rgb(214,223,231)"/><rect x="60" y="500" width="10" height="10" fill="rgb(214,222,230)"/><rect x="70" y="500" width="10" height="10" fill="rgb(221,230,238)"/><rect x="80" y="500" width="10" height="10" fill="rgb(215,224,232)"/><rect x="90" y="500" width="10" height="10" fill="rgb(214,223,230)"/><rect x="0" y="510" width="10" height="10" fill="rgb(213,221,229)"/><rect x="10" y="510" width="10" height="10" fill="rgb(224,231,238)"/><rect x="20" y="510" width="10" height="10" fill="rgb(210,219,227)"/><rect x="30" y="510" width="10" height="10" fill="rgb(218,226,234)"/><rect x="40" y="510" width="10" height="10" fill="rgb(200,208,215)"/><rect x="50" y="510" width="10" height="10" fill="rgb(197,205,212)"/><rect x="60" y="510" width="10" height="10" fill="rgb(181,189,196)"/><rect x="70" y="510" width="10" height="10" fill="rgb(190,198,205)"/><rect x="80" y="510" width="10" height="10" fill="rgb(208,216,223)"/><rect x="90" y="510" width="10" height="10" fill="rgb(221,230,237)"/><rect x="0" y="520" width="10" height="10" fill="rgb(215,223,231)"/><rect x="10" y="520" width="10" height="10" fill="rgb(214,222,230)"/><rect x="20" y="520" width="10" height="10" fill="rgb(209,218,225)"/><rect x="30" y="520" width="10" height="10" fill="rgb(214,223,230)"/><rect x="40" y="520" width="10" height="10" fill="rgb(216,225,232)"/><rect x="50" y="520" width="10" height="10" fill="rgb(222,231,238)"/><rect x="60" y="520" width="10" height="10" fill="rgb(215,223,230)"/><rect x="70" y="520" width="10" height="10" fill="rgb(212,221,228)"/><rect x="80" y="520" width="10" height="10" fill="rgb(211,219,227)"/><rect x="90" y="520" width="10" height="10" fill="rgb(215,224,232)"/><rect x="0" y="530" width="10" height="10" fill="rgb(206,215,222)"/><rect x="10" y="530" width="10" height="10" fill="rgb(194,203,211)"/><rect x="20" y="530" width="10" height="10" fill="rgb(207,216,225)"/><rect x="30" y="530" width="10" height="10" fill="rgb(215,224,235)"/><rect x="40" y="530" width="10" height="10" fill="rgb(219,229,242)"/><rect x="50" y="530" width="10" height="10" fill="rgb(204,215,225)"/><rect x="60" y="530" width="10" height="10" fill="rgb(201,210,219)"/><rect x="70" y="530" width="10" height="10" fill="rgb(201,213,224)"/><rect x="80" y="530" width="10" height="10" fill="rgb(198,208,219)"/><rect x="90" y="530" width="10" height="10" fill="rgb(200,210,220)"/><rect x="0" y="540" width="10" height="10" fill="rgb(165,176,189)"/><rect x="10" y="540" width="10" height="10" fill="rgb(195,205,219)"/><rect x="20" y="540" width="10" height="10" fill="rgb(162,173,186)"/><rect x="30" y="540" width="10" height="10" fill="rgb(187,202,215)"/><rect x="40" y="540" width="10" height="10" fill="rgb(162,175,186)"/><rect x="50" y="540" width="10" height="10" fill="rgb(160,167,174)"/><rect x="60" y="540" width="10" height="10" fill="rgb(166,174,181)"/><rect x="70" y="540" width="10" height="10" fill="rgb(150,160,171)"/><rect x="80" y="540" width="10" height="10" fill="rgb(177,185,193)"/><rect x="90" y="540" width="10" height="10" fill="rgb(165,176,187)"/><rect x="0" y="550" width="10" height="10" fill="rgb(168,182,197)"/><rect x="10" y="550" width="10" height="10" fill="rgb(167,181,193)"/><rect x="20" y="550" width="10" height="10" fill="rgb(174,196,205)"/><rect x="30" y="550" width="10" height="10" fill="rgb(180,193,202)"/><rect x="40" y="550" width="10" height="10" fill="rgb(178,193,205)"/><rect x="50" y="550" width="10" height="10" fill="rgb(186,197,206)"/><rect x="60" y="550" width="10" height="10" fill="rgb(193,200,205)"/><rect x="70" y="550" width="10" height="10" fill="rgb(179,186,191)"/><rect x="80" y="550" width="10" height="10" fill="rgb(167,175,183)"/><rect x="90" y="550" width="10" height="10" fill="rgb(166,175,183)"/><rect x="0" y="560" width="10" height="10" fill="rgb(174,184,192)"/><rect x="10" y="560" width="10" height="10" fill="rgb(172,181,190)"/><rect x="20" y="560" width="10" height="10" fill="rgb(169,179,190)"/><rect x="30" y="560" width="10" height="10" fill="rgb(179,192,204)"/><rect x="40" y="560" width="10" height="10" fill="rgb(208,221,234)"/><rect x="50" y="560" width="10" height="10" fill="rgb(215,224,231)"/><rect x="60" y="560" width="10" height="10" fill="rgb(200,206,212)"/><rect x="70" y="560" width="10" height="10" fill="rgb(179,188,196)"/><rect x="80" y="560" width="10" height="10" fill="rgb(184,194,202)"/><rect x="90" y="560" width="10" height="10" fill="rgb(158,166,173)"/><rect x="0" y="570" width="10" height="10" fill="rgb(142,152,160)"/><rect x="10" y="570" width="10" height="10" fill="rgb(190,198,205)"/><rect x="20" y="570" width="10" height="10" fill="rgb(167,185,196)"/><rect x="30" y="570" width="10" height="10" fill="rgb(176,190,199)"/><rect x="40" y="570" width="10" height="10" fill="rgb(141,159,171)"/><rect x="50" y="570" width="10" height="10" fill="rgb(136,155,169)"/><rect x="60" y="570" width="10" height="10" fill="rgb(124,141,157)"/><rect x="70" y="570" width="10" height="10" fill="rgb(124,142,159)"/><rect x="80" y="570" width="10" height="10" fill="rgb(130,145,160)"/><rect x="90" y="570" width="10" height="10" fill="rgb(125,140,156)"/><rect x="0" y="580" width="10" height="10" fill="rgb(97,118,134)"/><rect x="10" y="580" width="10" height="10" fill="rgb(90,115,135)"/><rect x="20" y="580" width="10" height="10" fill="rgb(93,118,137)"/><rect x="30" y="580" width="10" height="10" fill="rgb(65,65,65)"/><rect x="40" y="580" width="10" height="10" fill="rgb(41,41,41)"/><rect x="50" y="580" width="10" height="10" fill="rgb(34,34,34)"/><rect x="60" y="580" width="10" height="10" fill="rgb(40,40,40)"/><rect x="70" y="580" width="10" height="10" fill="rgb(31,31,31)"/><rect x="80" y="580" width="10" height="10" fill="rgb(29,29,29)"/><rect x="90" y="580" width="10" height="10" fill="rgb(29,29,29)"/><rect x="0" y="590" width="10" height="10" fill="rgb(32,32,32)"/><rect x="10" y="590" width="10" height="10" fill="rgb(27,27,27)"/><rect x="20" y="590" width="10" height="10" fill="rgb(31,31,31)"/><rect x="30" y="590" width="10" height="10" fill="rgb(30,30,30)"/><rect x="40" y="590" width="10" height="10" fill="rgb(28,28,28)"/><rect x="50" y="590" width="10" height="10" fill="rgb(27,27,27)"/><rect x="60" y="590" width="10" height="10" fill="rgb(31,31,31)"/><rect x="70" y="590" width="10" height="10" fill="rgb(30,30,30)"/><rect x="80" y="590" width="10" height="10" fill="rgb(30,30,30)"/><rect x="90" y="590" width="10" height="10" fill="rgb(30,30,30)"/><rect x="0" y="600" width="10" height="10" fill="rgb(34,34,34)"/><rect x="10" y="600" width="10" height="10" fill="rgb(30,30,30)"/><rect x="20" y="600" width="10" height="10" fill="rgb(25,25,25)"/><rect x="30" y="600" width="10" height="10" fill="rgb(36,36,36)"/><rect x="40" y="600" width="10" height="10" fill="rgb(26,26,26)"/><rect x="50" y="600" width="10" height="10" fill="rgb(25,25,25)"/><rect x="60" y="600" width="10" height="10" fill="rgb(21,21,21)"/><rect x="70" y="600" width="10" height="10" fill="rgb(23,23,23)"/><rect x="80" y="600" width="10" height="10" fill="rgb(22,22,22)"/><rect x="90" y="600" width="10" height="10" fill="rgb(24,24,24)"/><rect x="0" y="610" width="10" height="10" fill="rgb(22,22,22)"/><rect x="10" y="610" width="10" height="10" fill="rgb(22,22,22)"/><rect x="20" y="610" width="10" height="10" fill="rgb(36,36,36)"/><rect x="30" y="610" width="10" height="10" fill="rgb(18,18,18)"/><rect x="40" y="610" width="10" height="10" fill="rgb(30,30,30)"/><rect x="50" y="610" width="10" height="10" fill="rgb(17,17,17)"/><rect x="60" y="610" width="10" height="10" fill="rgb(20,20,20)"/><rect x="70" y="610" width="10" height="10" fill="rgb(16,16,16)"/><rect x="80" y="610" width="10" height="10" fill="rgb(16,16,16)"/><rect x="90" y="610" width="10" height="10" fill="rgb(17,17,17)"/><rect x="0" y="620" width="10" height="10" fill="rgb(20,20,20)"/><rect x="10" y="620" width="10" height="10" fill="rgb(20,20,20)"/><rect x="20" y="620" width="10" height="10" fill="rgb(39,39,39)"/><rect x="30" y="620" width="10" height="10" fill="rgb(14,14,14)"/><rect x="40" y="620" width="10" height="10" fill="rgb(15,15,15)"/><rect x="50" y="620" width="10" height="10" fill="rgb(15,15,15)"/><rect x="60" y="620" width="10" height="10" fill="rgb(15,15,15)"/><rect x="70" y="620" width="10" height="10" fill="rgb(15,15,15)"/><rect x="80" y="620" width="10" height="10" fill="rgb(14,14,14)"/><rect x="90" y="620" width="10" height="10" fill="rgb(14,14,14)"/><rect x="0" y="630" width="10" height="10" fill="rgb(14,14,14)"/><rect x="10" y="630" width="10" height="10" fill="rgb(15,15,15)"/><rect x="20" y="630" width="10" height="10" fill="rgb(16,16,16)"/><rect x="30" y="630" width="10" height="10" fill="rgb(18,18,18)"/><rect x="40" y="630" width="10" height="10" fill="rgb(19,19,19)"/><rect x="50" y="630" width="10" height="10" fill="rgb(20,20,20)"/><rect x="60" y="630" width="10" height="10" fill="rgb(21,21,21)"/><rect x="70" y="630" width="10" height="10" fill="rgb(21,21,21)"/><rect x="80" y="630" width="10" height="10" fill="rgb(19,19,19)"/><rect x="90" y="630" width="10" height="10" fill="rgb(18,18,18)"/><rect x="0" y="640" width="10" height="10" fill="rgb(17,17,17)"/><rect x="10" y="640" width="10" height="10" fill="rgb(15,15,15)"/><rect x="20" y="640" width="10" height="10" fill="rgb(15,15,15)"/><rect x="30" y="640" width="10" height="10" fill="rgb(16,16,16)"/><rect x="40" y="640" width="10" height="10" fill="rgb(16,16,16)"/><rect x="50" y="640" width="10" height="10" fill="rgb(17,17,17)"/><rect x="60" y="640" width="10" height="10" fill="rgb(16,16,16)"/></svg>