<svg xmlns="http://www.w3.org/2000/svg" width="100" height="270"><rect x="0" y="0" width="10" height="10" fill="rgb(68,68,68)"/><rect x="10" y="0" width="10" height="10" fill="rgb(45,45,45)"/><rect x="20" y="0" width="10" height="10" fill="rgb(39,39,39)"/><rect x="30" y="0" width="10" height="10" fill="rgb(31,31,31)"/><rect x="40" y="0" width="10" height="10" fill="rgb(25,25,25)"/><rect x="50" y="0" width="10" height="10" fill="rgb(24,24,24)"/><rect x="60" y="0" width="10" height="10" fill="rgb(22,22,22)"/><rect x="70" y="0" width="10" height="10" fill="rgb(22,22,22)"/><rect x="80" y="0" width="10" height="10" fill="rgb(22,22,22)"/><rect x="90" y="0" width="10" height="10" fill="rgb(21,21,21)"/><rect x="0" y="10" width="10" height="10" fill="rgb(23,23,23)"/><rect x="10" y="10" width="10" height="10" fill="rgb(21,21,21)"/><rect x="20" y="10" width="10" height="10" fill="rgb(28,28,28)"/><rect x="30" y="10" width="10" height="10" fill="rgb(21,21,21)"/><rect x="40" y="10" width="10" height="10" fill="rgb(21,21,21)"/><rect x="50" y="10" width="10" height="10" fill="rgb(21,21,21)"/><rect x="60" y="10" width="10" height="10" fill="rgb(21,21,21)"/><rect x="70" y="10" width="10" height="10" fill="rgb(21,21,21)"/><rect x="80" y="10" width="10" height="10" fill="rgb(22,22,22)"/><rect x="90" y="10" width="10" height="10" fill="rgb(21,21,21)"/><rect x="0" y="20" width="10" height="10" fill="rgb(21,21,21)"/><rect x="10" y="20" width="10" height="10" fill="rgb(34,34,34)"/><rect x="20" y="20" width="10" height="10" fill="rgb(23,23,23)"/><rect x="30" y="20" width="10" height="10" fill="rgb(25,25,25)"/><rect x="40" y="20" width="10" height="10" fill="rgb(14,14,14)"/><rect x="50" y="20" width="10" height="10" fill="rgb(21,21,21)"/><rect x="60" y="20" width="10" height="10" fill="rgb(21,21,21)"/><rect x="70" y="20" width="10" height="10" fill="rgb(23,23,23)"/><rect x="80" y="20" width="10" height="10" fill="rgb(21,21,21)"/><rect x="90" y="20" width="10" height="10" fill="rgb(21,21,21)"/><rect x="0" y="30" width="10" height="10" fill="rgb(21,21,21)"/><rect x="10" y="30" width="10" height="10" fill="rgb(22,22,22)"/><rect x="20" y="30" width="10" height="10" fill="rgb(21,21,21)"/><rect x="30" y="30" width="10" height="10" fill="rgb(29,29,29)"/><rect x="40" y="30" width="10" height="10" fill="rgb(21,21,21)"/><rect x="50" y="30" width="10" height="10" fill="rgb(21,21,21)"/><rect x="60" y="30" width="10" height="10" fill="rgb(21,21,21)"/><rect x="70" y="30" width="10" height="10" fill="rgb(21,21,21)"/><rect x="80" y="30" width="10" height="10" fill="rgb(21,21,21)"/><rect x="90" y="30" width="10" height="10" fill="rgb(21,21,21)"/><rect x="0" y="40" width="10" height="10" fill="rgb(20,20,20)"/><rect x="10" y="40" width="10" height="10" fill="rgb(34,34,34)"/><rect x="20" y="40" width="10" height="10" fill="rgb(21,21,21)"/><rect x="30" y="40" width="10" height="10" fill="rgb(21,21,21)"/><rect x="40" y="40" width="10" height="10" fill="rgb(40,40,40)"/><rect x="50" y="40" width="10" height="10" fill="rgb(21,21,21)"/><rect x="60" y="40" width="10" height="10" fill="rgb(21,21,21)"/><rect x="70" y="40" width="10" height="10" fill="rgb(38,38,38)"/><rect x="80" y="40" width="10" height="10" fill="rgb(21,21,21)"/><rect x="90" y="40" width="10" height="10" fill="rgb(21,21,21)"/><rect x="0" y="50" width="10" height="10" fill="rgb(21,21,21)"/><rect x="10" y="50" width="10" height="10" fill="rgb(21,21,21)"/><rect x="20" y="50" width="10" height="10" fill="rgb(21,21,21)"/><rect x="30" y="50" width="10" height="10" fill="rgb(23,23,23)"/><rect x="40" y="50" width="10" height="10" fill="rgb(21,21,21)"/><rect x="50" y="50" width="10" height="10" fill="rgb(21,21,21)"/><rect x="60" y="50" width="10" height="10" fill="rgb(21,21,21)"/><rect x="70" y="50" width="10" height="10" fill="rgb(21,21,21)"/><rect x="80" y="50" width="10" height="10" fill="rgb(21,21,21)"/><rect x="90" y="50" width="10" height="10" fill="rgb(21,21,21)"/><rect x="0" y="60" width="10" height="10" fill="rgb(21,21,21)"/><rect x="10" y="60" width="10" height="10" fill="rgb(21,21,21)"/><rect x="20" y="60" width="10" height="10" fill="rgb(21,21,21)"/><rect x="30" y="60" width="10" height="10" fill="rgb(21,21,21)"/><rect x="40" y="60" width="10" height="10" fill="rgb(21,21,21)"/><rect x="50" y="60" width="10" height="10" fill="rgb(21,21,21)"/><rect x="60" y="60" width="10" height="10" fill="rgb(21,21,21)"/><rect x="70" y="60" width="10" height="10" fill="rgb(20,20,20)"/><rect x="80" y="60" width="10" height="10" fill="rgb(20,20,20)"/><rect x="90" y="60" width="10" height="10" fill="rgb(20,20,20)"/><rect x="0" y="70" width="10" height="10" fill="rgb(20,20,20)"/><rect x="10" y="70" width="10" height="10" fill="rgb(21,21,21)"/><rect x="20" y="70" width="10" height="10" fill="rgb(21,21,21)"/><rect x="30" y="70" width="10" height="10" fill="rgb(21,21,21)"/><rect x="40" y="70" width="10" height="10" fill="rgb(21,21,21)"/><rect x="50" y="70" width="10" height="10" fill="rgb(21,21,21)"/><rect x="60" y="70" width="10" height="10" fill="rgb(21,21,21)"/><rect x="70" y="70" width="10" height="10" fill="rgb(21,21,21)"/><rect x="80" y="70" width="10" height="10" fill="rgb(21,21,21)"/><rect x="90" y="70" width="10" height="10" fill="rgb(21,21,21)"/><rect x="0" y="80" width="10" height="10" fill="rgb(22,22,22)"/><rect x="10" y="80" width="10" height="10" fill="rgb(22,22,22)"/><rect x="20" y="80" width="10" height="10" fill="rgb(22,22,22)"/><rect x="30" y="80" width="10" height="10" fill="rgb(22,22,22)"/><rect x="40" y="80" width="10" height="10" fill="rgb(23,23,23)"/><rect x="50" y="80" width="10" height="10" fill="rgb(30,30,30)"/><rect x="60" y="80" width="10" height="10" fill="rgb(23,23,23)"/><rect x="70" y="80" width="10" height="10" fill="rgb(23,23,23)"/><rect x="80" y="80" width="10" height="10" fill="rgb(24,24,24)"/><rect x="90" y="80" width="10" height="10" fill="rgb(25,25,25)"/><rect x="0" y="90" width="10" height="10" fill="rgb(29,29,29)"/><rect x="10" y="90" width="10" height="10" fill="rgb(50,50,50)"/><rect x="20" y="90" width="10" height="10" fill="rgb(46,46,46)"/><rect x="30" y="90" width="10" height="10" fill="rgb(57,57,57)"/><rect x="40" y="90" width="10" height="10" fill="rgb(86,86,86)"/><rect x="50" y="90" width="10" height="10" fill="rgb(108,108,108)"/><rect x="60" y="90" width="10" height="10" fill="rgb(122,122,122)"/><rect x="70" y="90" width="10" height="10" fill="rgb(98,102,122)"/><rect x="80" y="90" width="10" height="10" fill="rgb(140,143,172)"/><rect x="90" y="90" width="10" height="10" fill="rgb(180,179,203)"/><rect x="0" y="100" width="10" height="10" fill="rgb(176,178,196)"/><rect x="10" y="100" width="10" height="10" fill="rgb(153,139,151)"/><rect x="20" y="100" width="10" height="10" fill="rgb(153,139,151)"/><rect x="30" y="100" width="10" height="10" fill="rgb(162,140,145)"/><rect x="40" y="100" width="10" height="10" fill="rgb(153,166,183)"/><rect x="50" y="100" width="10" height="10" fill="rgb(172,187,193)"/><rect x="60" y="100" width="10" height="10" fill="rgb(210,232,239)"/><rect x="70" y="100" width="10" height="10" fill="rgb(225,239,246)"/><rect x="80" y="100" width="10" height="10" fill="rgb(218,233,242)"/><rect x="90" y="100" width="10" height="10" fill="rgb(219,230,235)"/><rect x="0" y="110" width="10" height="10" fill="rgb(225,235,242)"/><rect x="10" y="110" width="10" height="10" fill="rgb(214,229,241)"/><rect x="20" y="110" width="10" height="10" fill="rgb(218,234,246)"/><rect x="30" y="110" width="10" height="10" fill="rgb(220,231,242)"/><rect x="40" y="110" width="10" height="10" fill="rgb(222,231,241)"/><rect x="50" y="110" width="10" height="10" fill="rgb(236,246,253)"/><rect x="60" y="110" width="10" height="10" fill="rgb(218,230,243)"/><rect x="70" y="110" width="10" height="10" fill="rgb(217,228,240)"/><rect x="80" y="110" width="10" height="10" fill="rgb(221,233,244)"/><rect x="90" y="110" width="10" height="10" fill="rgb(225,236,246)"/><rect x="0" y="120" width="10" height="10" fill="rgb(231,240,247)"/><rect x="10" y="120" width="10" height="10" fill="rgb(223,235,245)"/><rect x="20" y="120" width="10" height="10" fill="rgb(224,233,242)"/><rect x="30" y="120" width="10" height="10" fill="rgb(219,230,240)"/><rect x="40" y="120" width="10" height="10" fill="rgb(214,227,241)"/><rect x="50" y="120" width="10" height="10" fill="rgb(224,232,239)"/><rect x="60" y="120" width="10" height="10" fill="rgb(229,237,243)"/><rect x="70" y="120" width="10" height="10" fill="rgb(230,239,248)"/><rect x="80" y="120" width="10" height="10" fill="rgb(228,237,245)"/><rect x="90" y="120" width="10" height="10" fill="rgb(214,221,228)"/><rect x="0" y="130" width="10" height="10" fill="rgb(192,200,208)"/><rect x="10" y="130" width="10" height="10" fill="rgb(189,197,205)"/><rect x="20" y="130" width="10" height="10" fill="rgb(214,224,232)"/><rect x="30" y="130" width="10" height="10" fill="rgb(218,227,235)"/><rect x="40" y="130" width="10" height="10" fill="rgb(216,225,234)"/><rect x="50" y="130" width="10" height="10" fill="rgb(220,231,242)"/><rect x="60" y="130" width="10" height="10" fill="rgb(212,221,231)"/><rect x="70" y="130" width="10" height="10" fill="rgb(204,213,221)"/><rect x="80" y="130" width="10" height="10" fill="rgb(195,204,211)"/><rect x="90" y="130" width="10" height="10" fill="rgb(196,204,210)"/><rect x="0" y="140" width="10" height="10" fill="rgb(183,191,199)"/><rect x="10" y="140" width="10" height="10" fill="rgb(194,203,213)"/><rect x="20" y="140" width="10" height="10" fill="rgb(210,221,231)"/><rect x="30" y="140" width="10" height="10" fill="rgb(220,229,237)"/><rect x="40" y="140" width="10" height="10" fill="rgb(220,229,237)"/><rect x="50" y="140" width="10" height="10" fill="rgb(209,219,228)"/><rect x="60" y="140" width="10" height="10" fill="rgb(205,214,225)"/><rect x="70" y="140" width="10" height="10" fill="rgb(218,228,239)"/><rect x="80" y="140" width="10" height="10" fill="rgb(221,231,242)"/><rect x="90" y="140" width="10" height="10" fill="rgb(222,232,243)"/><rect x="0" y="150" width="10" height="10" fill="rgb(225,234,242)"/><rect x="10" y="150" width="10" height="10" fill="rgb(212,220,228)"/><rect x="20" y="150" width="10" height="10" fill="rgb(197,205,212)"/><rect x="30" y="150" width="10" height="10" fill="rgb(201,209,216)"/><rect x="40" y="150" width="10" height="10" fill="rgb(188,196,203)"/><rect x="50" y="150" width="10" height="10" fill="rgb(204,213,221)"/><rect x="60" y="150" width="10" height="10" fill="rgb(209,219,227)"/><rect x="70" y="150" width="10" height="10" fill="rgb(217,226,235)"/><rect x="80" y="150" width="10" height="10" fill="rgb(206,215,224)"/><rect x="90" y="150" width="10" height="10" fill="rgb(192,201,210)"/><rect x="0" y="160" width="10" height="10" fill="rgb(201,210,220)"/><rect x="10" y="160" width="10" height="10" fill="rgb(207,216,225)"/><rect x="20" y="160" width="10" height="10" fill="rgb(210,219,228)"/><rect x="30" y="160" width="10" height="10" fill="rgb(217,227,235)"/><rect x="40" y="160" width="10" height="10" fill="rgb(221,230,239)"/><rect x="50" y="160" width="10" height="10" fill="rgb(221,231,240)"/><rect x="60" y="160" width="10" height="10" fill="rgb(211,220,227)"/><rect x="70" y="160" width="10" height="10" fill="rgb(224,233,241)"/><rect x="80" y="160" width="10" height="10" fill="rgb(220,229,236)"/><rect x="90" y="160" width="10" height="10" fill="rgb(215,224,231)"/><rect x="0" y="170" width="10" height="10" fill="rgb(219,228,235)"/><rect x="10" y="170" width="10" height="10" fill="rgb(208,217,225)"/><rect x="20" y="170" width="10" height="10" fill="rgb(213,222,232)"/><rect x="30" y="170" width="10" height="10" fill="rgb(218,227,235)"/><rect x="40" y="170" width="10" height="10" fill="rgb(224,233,242)"/><rect x="50" y="170" width="10" height="10" fill="rgb(218,227,234)"/><rect x="60" y="170" width="10" height="10" fill="rgb(198,207,213)"/><rect x="70" y="170" width="10" height="10" fill="rgb(213,221,228)"/><rect x="80" y="170" width="10" height="10" fill="rgb(215,224,234)"/><rect x="90" y="170" width="10" height="10" fill="rgb(226,235,244)"/><rect x="0" y="180" width="10" height="10" fill="rgb(225,235,245)"/><rect x="10" y="180" width="10" height="10" fill="rgb(232,241,250)"/><rect x="20" y="180" width="10" height="10" fill="rgb(223,232,240)"/><rect x="30" y="180" width="10" height="10" fill="rgb(221,231,242)"/><rect x="40" y="180" width="10" height="10" fill="rgb(219,229,240)"/><rect x="50" y="180" width="10" height="10" fill="rgb(199,207,215)"/><rect x="60" y="180" width="10" height="10" fill="rgb(206,214,222)"/><rect x="70" y="180" width="10" height="10" fill="rgb(223,231,238)"/><rect x="80" y="180" width="10" height="10" fill="rgb(198,207,216)"/><rect x="90" y="180" width="10" height="10" fill="rgb(197,206,215)"/><rect x="0" y="190" width="10" height="10" fill="rgb(224,233,241)"/><rect x="10" y="190" width="10" height="10" fill="rgb(179,187,195)"/><rect x="20" y="190" width="10" height="10" fill="rgb(215,225,236)"/><rect x="30" y="190" width="10" height="10" fill="rgb(231,239,245)"/><rect x="40" y="190" width="10" height="10" fill="rgb(217,224,230)"/><rect x="50" y="190" width="10" height="10" fill="rgb(219,228,237)"/><rect x="60" y="190" width="10" height="10" fill="rgb(208,216,223)"/><rect x="70" y="190" width="10" height="10" fill="rgb(209,218,227)"/><rect x="80" y="190" width="10" height="10" fill="rgb(224,233,242)"/><rect x="90" y="190" width="10" height="10" fill="rgb(213,222,231)"/><rect x="0" y="200" width="10" height="10" fill="rgb(227,236,246)"/><rect x="10" y="200" width="10" height="10" fill="rgb(219,228,238)"/><rect x="20" y="200" width="10" height="10" fill="rgb(191,200,211)"/><rect x="30" y="200" width="10" height="10" fill="rgb(191,200,210)"/><rect x="40" y="200" width="10" height="10" fill="rgb(199,207,215)"/><rect x="50" y="200" width="10" height="10" fill="rgb(198,206,213)"/><rect x="60" y="200" width="10" height="10" fill="rgb(194,202,209)"/><rect x="70" y="200" width="10" height="10" fill="rgb(201,209,216)"/><rect x="80" y="200" width="10" height="10" fill="rgb(205,213,221)"/><rect x="90" y="200" width="10" height="10" fill="rgb(209,218,227)"/><rect x="0" y="210" width="10" height="10" fill="rgb(218,228,237)"/><rect x="10" y="210" width="10" height="10" fill="rgb(218,228,239)"/><rect x="20" y="210" width="10" height="10" fill="rgb(214,223,232)"/><rect x="30" y="210" width="10" height="10" fill="rgb(213,221,229)"/><rect x="40" y="210" width="10" height="10" fill="rgb(208,217,224)"/><rect x="50" y="210" width="10" height="10" fill="rgb(211,219,227)"/><rect x="60" y="210" width="10" height="10" fill="rgb(211,220,228)"/><rect x="70" y="210" width="10" height="10" fill="rgb(206,215,224)"/><rect x="80" y="210" width="10" height="10" fill="rgb(207,216,225)"/><rect x="90" y="210" width="10" height="10" fill="rgb(207,216,225)"/><rect x="0" y="220" width="10" height="10" fill="rgb(217,225,234)"/><rect x="10" y="220" width="10" height="10" fill="rgb(223,232,240)"/><rect x="20" y="220" width="10" height="10" fill="rgb(216,225,232)"/><rect x="30" y="220" width="10" height="10" fill="rgb(209,218,226)"/><rect x="40" y="220" width="10" height="10" fill="rgb(216,225,232)"/><rect x="50" y="220" width="10" height="10" fill="rgb(213,222,229)"/><rect x="60" y="220" width="10" height="10" fill="rgb(211,220,229)"/><rect x="70" y="220" width="10" height="10" fill="rgb(215,224,231)"/><rect x="80" y="220" width="10" height="10" fill="rgb(210,218,226)"/><rect x="90" y="220" width="10" height="10" fill="rgb(218,227,235)"/><rect x="0" y="230" width="10" height="10" fill="rgb(221,229,237)"/><rect x="10" y="230" width="10" height="10" fill="rgb(203,211,220)"/><rect x="20" y="230" width="10" height="10" fill="rgb(200,209,217)"/><rect x="30" y="230" width="10" height="10" fill="rgb(206,214,222)"/><rect x="40" y="230" width="10" height="10" fill="rgb(202,211,219)"/><rect x="50" y="230" width="10" height="10" fill="rgb(207,216,224)"/><rect x="60" y="230" width="10" height="10" fill="rgb(211,219,227)"/><rect x="70" y="230" width="10" height="10" fill="rgb(213,222,231)"/><rect x="80" y="230" width="10" height="10" fill="rgb(211,220,230)"/><rect x="90" y="230" width="10" height="10" fill="rgb(205,213,219)"/><rect x="0" y="240" width="10" height="10" fill="rgb(211,219,227)"/><rect x="10" y="240" width="10" height="10" fill="rgb(204,212,220)"/><rect x="20" y="240" width="10" height="10" fill="rgb(205,213,220)"/><rect x="30" y="240" width="10" height="10" fill="rgb(198,207,215)"/><rect x="40" y="240" width="10" height="10" fill="rgb(221,228,234)"/><rect x="50" y="240" width="10" height="10" fill="rgb(205,214,220)"/><rect x="60" y="240" width="10" height="10" fill="rgb(198,207,215)"/><rect x="70" y="240" width="10" height="10" fill="rgb(228,237,244)"/><rect x="80" y="240" width="10" height="10" fill="rgb(223,231,238)"/><rect x="90" y="240" width="10" height="10" fill="rgb(217,226,234)"/><rect x="0" y="250" width="10" height="10" fill="rgb(215,224,231)"/><rect x="10" y="250" width="10" height="10" fill="rgb(195,203,210)"/><rect x="20" y="250" width="10" height="10" fill="rgb(203,212,220)"/><rect x="30" y="250" width="10" height="10" fill="rgb(220,227,234)"/><rect x="40" y="250" width="10" height="10" fill="rgb(194,203,209)"/><rect x="50" y="250" width="10" height="10" fill="rgb(210,218,225)"/><rect x="60" y="250" width="10" height="10" fill="rgb(182,194,200)"/><rect x="70" y="250" width="10" height="10" fill="rgb(176,195,204)"/><rect x="80" y="250" width="10" height="10" fill="rgb(146,174,188)"/><rect x="90" y="250" width="10" height="10" fill="rgb(136,165,181)"/><rect x="0" y="260" width="10" height="10" fill="rgb(126,145,159)"/><rect x="10" y="260" width="10" height="10" fill="rgb(93,121,143)"/><rect x="20" y="260" width="10" height="10" fill="rgb(98,127,152)"/><rect x="30" y="260" width="10" height="10" fill="rgb(95,123,146)"/><rect x="40" y="260" width="10" height="10" fill="rgb(96,96,96)"/></svg>