<svg xmlns="http://www.w3.org/2000/svg" width="480" height="10"><rect x="0" y="0" width="10" height="10" fill="rgb(158,200,252)"/><rect x="10" y="0" width="10" height="10" fill="rgb(154,206,252)"/><rect x="20" y="0" width="10" height="10" fill="rgb(148,196,252)"/><rect x="30" y="0" width="10" height="10" fill="rgb(202,215,247)"/><rect x="40" y="0" width="10" height="10" fill="rgb(198,204,234)"/><rect x="50" y="0" width="10" height="10" fill="rgb(202,208,234)"/><rect x="60" y="0" width="10" height="10" fill="rgb(191,199,237)"/><rect x="70" y="0" width="10" height="10" fill="rgb(208,213,242)"/><rect x="80" y="0" width="10" height="10" fill="rgb(203,210,242)"/><rect x="90" y="0" width="10" height="10" fill="rgb(207,213,242)"/><rect x="100" y="0" width="10" height="10" fill="rgb(201,207,240)"/><rect x="110" y="0" width="10" height="10" fill="rgb(205,213,242)"/><rect x="120" y="0" width="10" height="10" fill="rgb(203,207,239)"/><rect x="130" y="0" width="10" height="10" fill="rgb(201,207,239)"/><rect x="140" y="0" width="10" height="10" fill="rgb(208,213,242)"/><rect x="150" y="0" width="10" height="10" fill="rgb(204,211,241)"/><rect x="160" y="0" width="10" height="10" fill="rgb(202,209,242)"/><rect x="170" y="0" width="10" height="10" fill="rgb(204,210,241)"/><rect x="180" y="0" width="10" height="10" fill="rgb(202,209,241)"/><rect x="190" y="0" width="10" height="10" fill="rgb(208,213,242)"/><rect x="200" y="0" width="10" height="10" fill="rgb(206,211,240)"/><rect x="210" y="0" width="10" height="10" fill="rgb(202,208,240)"/><rect x="220" y="0" width="10" height="10" fill="rgb(207,214,242)"/><rect x="230" y="0" width="10" height="10" fill="rgb(205,211,242)"/><rect x="240" y="0" width="10" height="10" fill="rgb(203,210,242)"/><rect x="250" y="0" width="10" height="10" fill="rgb(207,213,243)"/><rect x="260" y="0" width="10" height="10" fill="rgb(201,209,242)"/><rect x="270" y="0" width="10" height="10" fill="rgb(205,211,242)"/><rect x="280" y="0" width="10" height="10" fill="rgb(202,210,242)"/><rect x="290" y="0" width="10" height="10" fill="rgb(203,210,242)"/><rect x="300" y="0" width="10" height="10" fill="rgb(203,209,242)"/><rect x="310" y="0" width="10" height="10" fill="rgb(202,213,245)"/><rect x="320" y="0" width="10" height="10" fill="rgb(187,204,246)"/><rect x="330" y="0" width="10" height="10" fill="rgb(182,209,249)"/><rect x="340" y="0" width="10" height="10" fill="rgb(181,221,249)"/><rect x="350" y="0" width="10" height="10" fill="rgb(170,214,250)"/><rect x="360" y="0" width="10" height="10" fill="rgb(156,214,250)"/><rect x="370" y="0" width="10" height="10" fill="rgb(156,214,250)"/><rect x="380" y="0" width="10" height="10" fill="rgb(147,214,251)"/><rect x="390" y="0" width="10" height="10" fill="rgb(148,216,251)"/><rect x="400" y="0" width="10" height="10" fill="rgb(172,222,250)"/><rect x="410" y="0" width="10" height="10" fill="rgb(189,226,248)"/><rect x="420" y="0" width="10" height="10" fill="rgb(188,225,249)"/><rect x="430" y="0" width="10" height="10" fill="rgb(188,225,249)"/></svg>