<svg xmlns="http://www.w3.org/2000/svg" width="100" height="260"><rect x="0" y="0" width="10" height="10" fill="rgb(122,157,216)"/><rect x="10" y="0" width="10" height="10" fill="rgb(119,156,218)"/><rect x="20" y="0" width="10" height="10" fill="rgb(119,156,218)"/><rect x="30" y="0" width="10" height="10" fill="rgb(118,156,218)"/><rect x="40" y="0" width="10" height="10" fill="rgb(118,155,218)"/><rect x="50" y="0" width="10" height="10" fill="rgb(117,155,219)"/><rect x="60" y="0" width="10" height="10" fill="rgb(117,155,218)"/><rect x="70" y="0" width="10" height="10" fill="rgb(116,155,219)"/><rect x="80" y="0" width="10" height="10" fill="rgb(116,155,220)"/><rect x="90" y="0" width="10" height="10" fill="rgb(116,155,220)"/><rect x="0" y="10" width="10" height="10" fill="rgb(115,155,220)"/><rect x="10" y="10" width="10" height="10" fill="rgb(116,156,220)"/><rect x="20" y="10" width="10" height="10" fill="rgb(116,156,221)"/><rect x="30" y="10" width="10" height="10" fill="rgb(116,156,222)"/><rect x="40" y="10" width="10" height="10" fill="rgb(116,157,222)"/><rect x="50" y="10" width="10" height="10" fill="rgb(115,157,223)"/><rect x="60" y="10" width="10" height="10" fill="rgb(116,157,223)"/><rect x="70" y="10" width="10" height="10" fill="rgb(115,157,223)"/><rect x="80" y="10" width="10" height="10" fill="rgb(115,157,223)"/><rect x="90" y="10" width="10" height="10" fill="rgb(115,157,224)"/><rect x="0" y="20" width="10" height="10" fill="rgb(112,158,224)"/><rect x="10" y="20" width="10" height="10" fill="rgb(115,159,225)"/><rect x="20" y="20" width="10" height="10" fill="rgb(116,160,227)"/><rect x="30" y="20" width="10" height="10" fill="rgb(112,163,229)"/><rect x="40" y="20" width="10" height="10" fill="rgb(118,163,230)"/><rect x="50" y="20" width="10" height="10" fill="rgb(119,165,230)"/><rect x="60" y="20" width="10" height="10" fill="rgb(117,166,232)"/><rect x="70" y="20" width="10" height="10" fill="rgb(121,166,231)"/><rect x="80" y="20" width="10" height="10" fill="rgb(124,169,234)"/><rect x="90" y="20" width="10" height="10" fill="rgb(124,170,235)"/><rect x="0" y="30" width="10" height="10" fill="rgb(126,173,236)"/><rect x="10" y="30" width="10" height="10" fill="rgb(127,175,238)"/><rect x="20" y="30" width="10" height="10" fill="rgb(129,178,239)"/><rect x="30" y="30" width="10" height="10" fill="rgb(131,180,239)"/><rect x="40" y="30" width="10" height="10" fill="rgb(133,182,239)"/><rect x="50" y="30" width="10" height="10" fill="rgb(138,184,237)"/><rect x="60" y="30" width="10" height="10" fill="rgb(144,186,234)"/><rect x="70" y="30" width="10" height="10" fill="rgb(151,187,230)"/><rect x="80" y="30" width="10" height="10" fill="rgb(161,187,224)"/><rect x="90" y="30" width="10" height="10" fill="rgb(166,187,222)"/><rect x="0" y="40" width="10" height="10" fill="rgb(168,186,220)"/><rect x="10" y="40" width="10" height="10" fill="rgb(166,182,217)"/><rect x="20" y="40" width="10" height="10" fill="rgb(161,178,217)"/><rect x="30" y="40" width="10" height="10" fill="rgb(149,171,215)"/><rect x="40" y="40" width="10" height="10" fill="rgb(129,160,212)"/><rect x="50" y="40" width="10" height="10" fill="rgb(108,145,202)"/><rect x="60" y="40" width="10" height="10" fill="rgb(90,129,203)"/><rect x="70" y="40" width="10" height="10" fill="rgb(71,113,206)"/><rect x="80" y="40" width="10" height="10" fill="rgb(51,95,192)"/><rect x="90" y="40" width="10" height="10" fill="rgb(46,79,150)"/><rect x="0" y="50" width="10" height="10" fill="rgb(45,69,115)"/><rect x="10" y="50" width="10" height="10" fill="rgb(42,59,91)"/><rect x="20" y="50" width="10" height="10" fill="rgb(41,54,80)"/><rect x="30" y="50" width="10" height="10" fill="rgb(40,49,70)"/><rect x="40" y="50" width="10" height="10" fill="rgb(35,41,55)"/><rect x="50" y="50" width="10" height="10" fill="rgb(34,40,52)"/><rect x="60" y="50" width="10" height="10" fill="rgb(33,39,50)"/><rect x="70" y="50" width="10" height="10" fill="rgb(33,39,48)"/><rect x="80" y="50" width="10" height="10" fill="rgb(33,39,47)"/><rect x="90" y="50" width="10" height="10" fill="rgb(33,39,47)"/><rect x="0" y="60" width="10" height="10" fill="rgb(33,39,46)"/><rect x="10" y="60" width="10" height="10" fill="rgb(33,39,46)"/><rect x="20" y="60" width="10" height="10" fill="rgb(33,39,46)"/><rect x="30" y="60" width="10" height="10" fill="rgb(34,39,46)"/><rect x="40" y="60" width="10" height="10" fill="rgb(33,38,45)"/><rect x="50" y="60" width="10" height="10" fill="rgb(34,39,46)"/><rect x="60" y="60" width="10" height="10" fill="rgb(34,39,46)"/><rect x="70" y="60" width="10" height="10" fill="rgb(34,39,45)"/><rect x="80" y="60" width="10" height="10" fill="rgb(34,39,46)"/><rect x="90" y="60" width="10" height="10" fill="rgb(34,39,46)"/><rect x="0" y="70" width="10" height="10" fill="rgb(34,40,46)"/><rect x="10" y="70" width="10" height="10" fill="rgb(34,39,46)"/><rect x="20" y="70" width="10" height="10" fill="rgb(34,39,46)"/><rect x="30" y="70" width="10" height="10" fill="rgb(34,39,46)"/><rect x="40" y="70" width="10" height="10" fill="rgb(34,39,46)"/><rect x="50" y="70" width="10" height="10" fill="rgb(33,38,45)"/><rect x="60" y="70" width="10" height="10" fill="rgb(34,39,45)"/><rect x="70" y="70" width="10" height="10" fill="rgb(34,39,46)"/><rect x="80" y="70" width="10" height="10" fill="rgb(34,39,46)"/><rect x="90" y="70" width="10" height="10" fill="rgb(33,39,45)"/><rect x="0" y="80" width="10" height="10" fill="rgb(34,39,45)"/><rect x="10" y="80" width="10" height="10" fill="rgb(33,39,45)"/><rect x="20" y="80" width="10" height="10" fill="rgb(33,39,45)"/><rect x="30" y="80" width="10" height="10" fill="rgb(34,39,45)"/><rect x="40" y="80" width="10" height="10" fill="rgb(33,39,45)"/><rect x="50" y="80" width="10" height="10" fill="rgb(34,39,46)"/><rect x="60" y="80" width="10" height="10" fill="rgb(34,39,46)"/><rect x="70" y="80" width="10" height="10" fill="rgb(34,39,46)"/><rect x="80" y="80" width="10" height="10" fill="rgb(34,39,46)"/><rect x="90" y="80" width="10" height="10" fill="rgb(34,39,45)"/><rect x="0" y="90" width="10" height="10" fill="rgb(34,39,46)"/><rect x="10" y="90" width="10" height="10" fill="rgb(34,39,46)"/><rect x="20" y="90" width="10" height="10" fill="rgb(34,39,46)"/><rect x="30" y="90" width="10" height="10" fill="rgb(34,39,46)"/><rect x="40" y="90" width="10" height="10" fill="rgb(34,39,45)"/><rect x="50" y="90" width="10" height="10" fill="rgb(34,40,46)"/><rect x="60" y="90" width="10" height="10" fill="rgb(34,40,46)"/><rect x="70" y="90" width="10" height="10" fill="rgb(34,40,46)"/><rect x="80" y="90" width="10" height="10" fill="rgb(34,40,46)"/><rect x="90" y="90" width="10" height="10" fill="rgb(34,39,46)"/><rect x="0" y="100" width="10" height="10" fill="rgb(34,40,46)"/><rect x="10" y="100" width="10" height="10" fill="rgb(34,40,47)"/><rect x="20" y="100" width="10" height="10" fill="rgb(34,40,46)"/><rect x="30" y="100" width="10" height="10" fill="rgb(34,40,46)"/><rect x="40" y="100" width="10" height="10" fill="rgb(34,40,46)"/><rect x="50" y="100" width="10" height="10" fill="rgb(35,40,47)"/><rect x="60" y="100" width="10" height="10" fill="rgb(34,40,46)"/><rect x="70" y="100" width="10" height="10" fill="rgb(35,40,47)"/><rect x="80" y="100" width="10" height="10" fill="rgb(34,40,46)"/><rect x="90" y="100" width="10" height="10" fill="rgb(35,40,46)"/><rect x="0" y="110" width="10" height="10" fill="rgb(34,40,47)"/><rect x="10" y="110" width="10" height="10" fill="rgb(34,40,47)"/><rect x="20" y="110" width="10" height="10" fill="rgb(34,40,47)"/><rect x="30" y="110" width="10" height="10" fill="rgb(34,40,47)"/><rect x="40" y="110" width="10" height="10" fill="rgb(35,40,47)"/><rect x="50" y="110" width="10" height="10" fill="rgb(35,40,48)"/><rect x="60" y="110" width="10" height="10" fill="rgb(34,40,47)"/><rect x="70" y="110" width="10" height="10" fill="rgb(35,40,47)"/><rect x="80" y="110" width="10" height="10" fill="rgb(34,40,47)"/><rect x="90" y="110" width="10" height="10" fill="rgb(34,40,47)"/><rect x="0" y="120" width="10" height="10" fill="rgb(35,40,48)"/><rect x="10" y="120" width="10" height="10" fill="rgb(35,40,48)"/><rect x="20" y="120" width="10" height="10" fill="rgb(35,40,48)"/><rect x="30" y="120" width="10" height="10" fill="rgb(35,41,48)"/><rect x="40" y="120" width="10" height="10" fill="rgb(35,40,48)"/><rect x="50" y="120" width="10" height="10" fill="rgb(35,41,48)"/><rect x="60" y="120" width="10" height="10" fill="rgb(35,40,48)"/><rect x="70" y="120" width="10" height="10" fill="rgb(35,41,48)"/><rect x="80" y="120" width="10" height="10" fill="rgb(35,40,48)"/><rect x="90" y="120" width="10" height="10" fill="rgb(35,41,48)"/><rect x="0" y="130" width="10" height="10" fill="rgb(35,41,49)"/><rect x="10" y="130" width="10" height="10" fill="rgb(35,41,50)"/><rect x="20" y="130" width="10" height="10" fill="rgb(35,41,51)"/><rect x="30" y="130" width="10" height="10" fill="rgb(35,42,53)"/><rect x="40" y="130" width="10" height="10" fill="rgb(36,43,56)"/><rect x="50" y="130" width="10" height="10" fill="rgb(36,44,61)"/><rect x="60" y="130" width="10" height="10" fill="rgb(40,53,77)"/><rect x="70" y="130" width="10" height="10" fill="rgb(43,59,87)"/><rect x="80" y="130" width="10" height="10" fill="rgb(46,66,104)"/><rect x="90" y="130" width="10" height="10" fill="rgb(48,75,130)"/><rect x="0" y="140" width="10" height="10" fill="rgb(50,88,154)"/><rect x="10" y="140" width="10" height="10" fill="rgb(65,106,201)"/><rect x="20" y="140" width="10" height="10" fill="rgb(83,150,255)"/><rect x="30" y="140" width="10" height="10" fill="rgb(102,187,255)"/><rect x="40" y="140" width="10" height="10" fill="rgb(125,213,255)"/><rect x="50" y="140" width="10" height="10" fill="rgb(156,230,255)"/><rect x="60" y="140" width="10" height="10" fill="rgb(183,227,255)"/><rect x="70" y="140" width="10" height="10" fill="rgb(189,217,255)"/><rect x="80" y="140" width="10" height="10" fill="rgb(190,213,251)"/><rect x="90" y="140" width="10" height="10" fill="rgb(186,208,246)"/><rect x="0" y="150" width="10" height="10" fill="rgb(179,207,248)"/><rect x="10" y="150" width="10" height="10" fill="rgb(170,206,250)"/><rect x="20" y="150" width="10" height="10" fill="rgb(162,208,253)"/><rect x="30" y="150" width="10" height="10" fill="rgb(155,211,254)"/><rect x="40" y="150" width="10" height="10" fill="rgb(150,211,255)"/><rect x="50" y="150" width="10" height="10" fill="rgb(146,211,255)"/><rect x="60" y="150" width="10" height="10" fill="rgb(141,209,255)"/><rect x="70" y="150" width="10" height="10" fill="rgb(137,204,255)"/><rect x="80" y="150" width="10" height="10" fill="rgb(133,200,255)"/><rect x="90" y="150" width="10" height="10" fill="rgb(129,196,255)"/><rect x="0" y="160" width="10" height="10" fill="rgb(126,192,255)"/><rect x="10" y="160" width="10" height="10" fill="rgb(123,188,255)"/><rect x="20" y="160" width="10" height="10" fill="rgb(120,184,255)"/><rect x="30" y="160" width="10" height="10" fill="rgb(118,183,255)"/><rect x="40" y="160" width="10" height="10" fill="rgb(116,181,255)"/><rect x="50" y="160" width="10" height="10" fill="rgb(113,179,255)"/><rect x="60" y="160" width="10" height="10" fill="rgb(112,177,255)"/><rect x="70" y="160" width="10" height="10" fill="rgb(109,175,255)"/><rect x="80" y="160" width="10" height="10" fill="rgb(107,173,255)"/><rect x="90" y="160" width="10" height="10" fill="rgb(105,171,255)"/><rect x="0" y="170" width="10" height="10" fill="rgb(103,170,255)"/><rect x="10" y="170" width="10" height="10" fill="rgb(101,167,255)"/><rect x="20" y="170" width="10" height="10" fill="rgb(99,166,255)"/><rect x="30" y="170" width="10" height="10" fill="rgb(97,164,255)"/><rect x="40" y="170" width="10" height="10" fill="rgb(96,163,255)"/><rect x="50" y="170" width="10" height="10" fill="rgb(95,162,255)"/><rect x="60" y="170" width="10" height="10" fill="rgb(94,162,255)"/><rect x="70" y="170" width="10" height="10" fill="rgb(93,162,255)"/><rect x="80" y="170" width="10" height="10" fill="rgb(94,162,255)"/><rect x="90" y="170" width="10" height="10" fill="rgb(94,162,255)"/><rect x="0" y="180" width="10" height="10" fill="rgb(95,163,255)"/><rect x="10" y="180" width="10" height="10" fill="rgb(95,164,255)"/><rect x="20" y="180" width="10" height="10" fill="rgb(96,165,255)"/><rect x="30" y="180" width="10" height="10" fill="rgb(97,166,255)"/><rect x="40" y="180" width="10" height="10" fill="rgb(98,167,255)"/><rect x="50" y="180" width="10" height="10" fill="rgb(98,168,255)"/><rect x="60" y="180" width="10" height="10" fill="rgb(100,170,255)"/><rect x="70" y="180" width="10" height="10" fill="rgb(101,171,255)"/><rect x="80" y="180" width="10" height="10" fill="rgb(102,173,255)"/><rect x="90" y="180" width="10" height="10" fill="rgb(103,174,255)"/><rect x="0" y="190" width="10" height="10" fill="rgb(103,175,255)"/><rect x="10" y="190" width="10" height="10" fill="rgb(105,177,255)"/><rect x="20" y="190" width="10" height="10" fill="rgb(105,179,255)"/><rect x="30" y="190" width="10" height="10" fill="rgb(106,181,255)"/><rect x="40" y="190" width="10" height="10" fill="rgb(107,183,255)"/><rect x="50" y="190" width="10" height="10" fill="rgb(108,185,255)"/><rect x="60" y="190" width="10" height="10" fill="rgb(110,187,255)"/><rect x="70" y="190" width="10" height="10" fill="rgb(110,190,255)"/><rect x="80" y="190" width="10" height="10" fill="rgb(111,192,255)"/><rect x="90" y="190" width="10" height="10" fill="rgb(112,194,255)"/><rect x="0" y="200" width="10" height="10" fill="rgb(114,196,255)"/><rect x="10" y="200" width="10" height="10" fill="rgb(116,198,255)"/><rect x="20" y="200" width="10" height="10" fill="rgb(116,199,255)"/><rect x="30" y="200" width="10" height="10" fill="rgb(117,201,255)"/><rect x="40" y="200" width="10" height="10" fill="rgb(120,203,255)"/><rect x="50" y="200" width="10" height="10" fill="rgb(121,205,255)"/><rect x="60" y="200" width="10" height="10" fill="rgb(122,206,255)"/><rect x="70" y="200" width="10" height="10" fill="rgb(123,208,255)"/><rect x="80" y="200" width="10" height="10" fill="rgb(123,208,255)"/><rect x="90" y="200" width="10" height="10" fill="rgb(124,209,255)"/><rect x="0" y="210" width="10" height="10" fill="rgb(126,210,255)"/><rect x="10" y="210" width="10" height="10" fill="rgb(126,211,255)"/><rect x="20" y="210" width="10" height="10" fill="rgb(128,212,255)"/><rect x="30" y="210" width="10" height="10" fill="rgb(129,212,255)"/><rect x="40" y="210" width="10" height="10" fill="rgb(130,214,255)"/><rect x="50" y="210" width="10" height="10" fill="rgb(131,214,255)"/><rect x="60" y="210" width="10" height="10" fill="rgb(132,215,255)"/><rect x="70" y="210" width="10" height="10" fill="rgb(132,215,255)"/><rect x="80" y="210" width="10" height="10" fill="rgb(136,218,255)"/><rect x="90" y="210" width="10" height="10" fill="rgb(134,217,255)"/><rect x="0" y="220" width="10" height="10" fill="rgb(140,220,255)"/><rect x="10" y="220" width="10" height="10" fill="rgb(142,221,255)"/><rect x="20" y="220" width="10" height="10" fill="rgb(144,223,255)"/><rect x="30" y="220" width="10" height="10" fill="rgb(141,223,255)"/><rect x="40" y="220" width="10" height="10" fill="rgb(144,224,255)"/><rect x="50" y="220" width="10" height="10" fill="rgb(144,224,255)"/><rect x="60" y="220" width="10" height="10" fill="rgb(144,224,255)"/><rect x="70" y="220" width="10" height="10" fill="rgb(145,223,255)"/><rect x="80" y="220" width="10" height="10" fill="rgb(147,224,255)"/><rect x="90" y="220" width="10" height="10" fill="rgb(149,223,255)"/><rect x="0" y="230" width="10" height="10" fill="rgb(149,222,255)"/><rect x="10" y="230" width="10" height="10" fill="rgb(150,220,255)"/><rect x="20" y="230" width="10" height="10" fill="rgb(154,219,255)"/><rect x="30" y="230" width="10" height="10" fill="rgb(156,215,255)"/><rect x="40" y="230" width="10" height="10" fill="rgb(160,210,255)"/><rect x="50" y="230" width="10" height="10" fill="rgb(168,207,255)"/><rect x="60" y="230" width="10" height="10" fill="rgb(190,214,253)"/><rect x="70" y="230" width="10" height="10" fill="rgb(192,214,252)"/><rect x="80" y="230" width="10" height="10" fill="rgb(182,207,251)"/><rect x="90" y="230" width="10" height="10" fill="rgb(186,210,251)"/><rect x="0" y="240" width="10" height="10" fill="rgb(194,215,250)"/><rect x="10" y="240" width="10" height="10" fill="rgb(185,208,249)"/><rect x="20" y="240" width="10" height="10" fill="rgb(189,210,248)"/><rect x="30" y="240" width="10" height="10" fill="rgb(185,206,248)"/><rect x="40" y="240" width="10" height="10" fill="rgb(221,229,247)"/><rect x="50" y="240" width="10" height="10" fill="rgb(222,230,248)"/><rect x="60" y="240" width="10" height="10" fill="rgb(209,219,243)"/><rect x="70" y="240" width="10" height="10" fill="rgb(194,207,241)"/><rect x="80" y="240" width="10" height="10" fill="rgb(221,230,250)"/><rect x="90" y="240" width="10" height="10" fill="rgb(212,220,243)"/><rect x="0" y="250" width="10" height="10" fill="rgb(223,228,245)"/><rect x="10" y="250" width="10" height="10" fill="rgb(222,228,247)"/><rect x="20" y="250" width="10" height="10" fill="rgb(185,199,235)"/><rect x="30" y="250" width="10" height="10" fill="rgb(181,199,239)"/><rect x="40" y="250" width="10" height="10" fill="rgb(178,199,242)"/><rect x="50" y="250" width="10" height="10" fill="rgb(128,163,229)"/><rect x="60" y="250" width="10" height="10" fill="rgb(127,162,225)"/><rect x="70" y="250" width="10" height="10" fill="rgb(126,161,223)"/><rect x="80" y="250" width="10" height="10" fill="rgb(126,159,220)"/><rect x="90" y="250" width="10" height="10" fill="rgb(123,158,217)"/></svg>