<svg xmlns="http://www.w3.org/2000/svg" width="100" height="270"><rect x="0" y="0" width="10" height="10" fill="rgb(241,245,255)"/><rect x="10" y="0" width="10" height="10" fill="rgb(214,243,255)"/><rect x="20" y="0" width="10" height="10" fill="rgb(186,216,251)"/><rect x="30" y="0" width="10" height="10" fill="rgb(20,27,46)"/><rect x="40" y="0" width="10" height="10" fill="rgb(17,20,25)"/><rect x="50" y="0" width="10" height="10" fill="rgb(17,19,16)"/><rect x="60" y="0" width="10" height="10" fill="rgb(13,15,12)"/><rect x="70" y="0" width="10" height="10" fill="rgb(10,12,9)"/><rect x="80" y="0" width="10" height="10" fill="rgb(10,12,9)"/><rect x="90" y="0" width="10" height="10" fill="rgb(9,11,8)"/><rect x="0" y="10" width="10" height="10" fill="rgb(9,11,8)"/><rect x="10" y="10" width="10" height="10" fill="rgb(11,13,10)"/><rect x="20" y="10" width="10" height="10" fill="rgb(10,12,9)"/><rect x="30" y="10" width="10" height="10" fill="rgb(11,13,10)"/><rect x="40" y="10" width="10" height="10" fill="rgb(12,15,11)"/><rect x="50" y="10" width="10" height="10" fill="rgb(13,16,12)"/><rect x="60" y="10" width="10" height="10" fill="rgb(12,15,11)"/><rect x="70" y="10" width="10" height="10" fill="rgb(12,14,11)"/><rect x="80" y="10" width="10" height="10" fill="rgb(12,15,11)"/><rect x="90" y="10" width="10" height="10" fill="rgb(12,16,11)"/><rect x="0" y="20" width="10" height="10" fill="rgb(12,15,11)"/><rect x="10" y="20" width="10" height="10" fill="rgb(12,16,11)"/><rect x="20" y="20" width="10" height="10" fill="rgb(13,16,12)"/><rect x="30" y="20" width="10" height="10" fill="rgb(13,16,11)"/><rect x="40" y="20" width="10" height="10" fill="rgb(13,16,12)"/><rect x="50" y="20" width="10" height="10" fill="rgb(17,21,15)"/><rect x="60" y="20" width="10" height="10" fill="rgb(19,24,17)"/><rect x="70" y="20" width="10" height="10" fill="rgb(17,21,15)"/><rect x="80" y="20" width="10" height="10" fill="rgb(18,22,16)"/><rect x="90" y="20" width="10" height="10" fill="rgb(19,24,17)"/><rect x="0" y="30" width="10" height="10" fill="rgb(20,24,17)"/><rect x="10" y="30" width="10" height="10" fill="rgb(19,22,17)"/><rect x="20" y="30" width="10" height="10" fill="rgb(20,23,18)"/><rect x="30" y="30" width="10" height="10" fill="rgb(19,22,17)"/><rect x="40" y="30" width="10" height="10" fill="rgb(23,27,20)"/><rect x="50" y="30" width="10" height="10" fill="rgb(23,26,20)"/><rect x="60" y="30" width="10" height="10" fill="rgb(24,27,22)"/><rect x="70" y="30" width="10" height="10" fill="rgb(24,27,22)"/><rect x="80" y="30" width="10" height="10" fill="rgb(27,31,24)"/><rect x="90" y="30" width="10" height="10" fill="rgb(24,28,22)"/><rect x="0" y="40" width="10" height="10" fill="rgb(26,29,23)"/><rect x="10" y="40" width="10" height="10" fill="rgb(25,29,23)"/><rect x="20" y="40" width="10" height="10" fill="rgb(24,27,22)"/><rect x="30" y="40" width="10" height="10" fill="rgb(21,25,19)"/><rect x="40" y="40" width="10" height="10" fill="rgb(22,25,19)"/><rect x="50" y="40" width="10" height="10" fill="rgb(23,26,20)"/><rect x="60" y="40" width="10" height="10" fill="rgb(23,26,21)"/><rect x="70" y="40" width="10" height="10" fill="rgb(24,29,21)"/><rect x="80" y="40" width="10" height="10" fill="rgb(23,26,20)"/><rect x="90" y="40" width="10" height="10" fill="rgb(23,27,21)"/><rect x="0" y="50" width="10" height="10" fill="rgb(23,26,21)"/><rect x="10" y="50" width="10" height="10" fill="rgb(22,26,20)"/><rect x="20" y="50" width="10" height="10" fill="rgb(20,24,19)"/><rect x="30" y="50" width="10" height="10" fill="rgb(22,25,20)"/><rect x="40" y="50" width="10" height="10" fill="rgb(22,26,20)"/><rect x="50" y="50" width="10" height="10" fill="rgb(21,24,19)"/><rect x="60" y="50" width="10" height="10" fill="rgb(21,24,19)"/><rect x="70" y="50" width="10" height="10" fill="rgb(22,25,20)"/><rect x="80" y="50" width="10" height="10" fill="rgb(21,24,19)"/><rect x="90" y="50" width="10" height="10" fill="rgb(22,25,20)"/><rect x="0" y="60" width="10" height="10" fill="rgb(21,24,19)"/><rect x="10" y="60" width="10" height="10" fill="rgb(20,24,19)"/><rect x="20" y="60" width="10" height="10" fill="rgb(21,24,19)"/><rect x="30" y="60" width="10" height="10" fill="rgb(21,24,19)"/><rect x="40" y="60" width="10" height="10" fill="rgb(21,24,20)"/><rect x="50" y="60" width="10" height="10" fill="rgb(20,23,19)"/><rect x="60" y="60" width="10" height="10" fill="rgb(21,24,19)"/><rect x="70" y="60" width="10" height="10" fill="rgb(20,23,19)"/><rect x="80" y="60" width="10" height="10" fill="rgb(21,24,20)"/><rect x="90" y="60" width="10" height="10" fill="rgb(24,26,21)"/><rect x="0" y="70" width="10" height="10" fill="rgb(24,26,21)"/><rect x="10" y="70" width="10" height="10" fill="rgb(22,25,20)"/><rect x="20" y="70" width="10" height="10" fill="rgb(23,25,20)"/><rect x="30" y="70" width="10" height="10" fill="rgb(23,26,20)"/><rect x="40" y="70" width="10" height="10" fill="rgb(24,27,21)"/><rect x="50" y="70" width="10" height="10" fill="rgb(22,25,18)"/><rect x="60" y="70" width="10" height="10" fill="rgb(21,23,17)"/><rect x="70" y="70" width="10" height="10" fill="rgb(20,22,17)"/><rect x="80" y="70" width="10" height="10" fill="rgb(21,23,18)"/><rect x="90" y="70" width="10" height="10" fill="rgb(21,24,19)"/><rect x="0" y="80" width="10" height="10" fill="rgb(21,24,19)"/><rect x="10" y="80" width="10" height="10" fill="rgb(22,25,19)"/><rect x="20" y="80" width="10" height="10" fill="rgb(22,24,19)"/><rect x="30" y="80" width="10" height="10" fill="rgb(22,24,19)"/><rect x="40" y="80" width="10" height="10" fill="rgb(22,24,19)"/><rect x="50" y="80" width="10" height="10" fill="rgb(21,24,19)"/><rect x="60" y="80" width="10" height="10" fill="rgb(22,25,19)"/><rect x="70" y="80" width="10" height="10" fill="rgb(23,26,20)"/><rect x="80" y="80" width="10" height="10" fill="rgb(21,23,18)"/><rect x="90" y="80" width="10" height="10" fill="rgb(21,23,18)"/><rect x="0" y="90" width="10" height="10" fill="rgb(21,24,19)"/><rect x="10" y="90" width="10" height="10" fill="rgb(22,25,19)"/><rect x="20" y="90" width="10" height="10" fill="rgb(24,28,19)"/><rect x="30" y="90" width="10" height="10" fill="rgb(24,30,19)"/><rect x="40" y="90" width="10" height="10" fill="rgb(23,28,18)"/><rect x="50" y="90" width="10" height="10" fill="rgb(26,32,19)"/><rect x="60" y="90" width="10" height="10" fill="rgb(15,18,14)"/><rect x="70" y="90" width="10" height="10" fill="rgb(16,18,15)"/><rect x="80" y="90" width="10" height="10" fill="rgb(16,19,16)"/><rect x="90" y="90" width="10" height="10" fill="rgb(17,19,16)"/><rect x="0" y="100" width="10" height="10" fill="rgb(19,22,21)"/><rect x="10" y="100" width="10" height="10" fill="rgb(22,25,30)"/><rect x="20" y="100" width="10" height="10" fill="rgb(29,32,46)"/><rect x="30" y="100" width="10" height="10" fill="rgb(110,123,167)"/><rect x="40" y="100" width="10" height="10" fill="rgb(149,173,249)"/><rect x="50" y="100" width="10" height="10" fill="rgb(208,233,255)"/><rect x="60" y="100" width="10" height="10" fill="rgb(236,248,255)"/><rect x="70" y="100" width="10" height="10" fill="rgb(247,250,255)"/><rect x="80" y="100" width="10" height="10" fill="rgb(244,242,255)"/><rect x="90" y="100" width="10" height="10" fill="rgb(248,245,255)"/><rect x="0" y="110" width="10" height="10" fill="rgb(245,246,255)"/><rect x="10" y="110" width="10" height="10" fill="rgb(239,245,255)"/><rect x="20" y="110" width="10" height="10" fill="rgb(241,249,255)"/><rect x="30" y="110" width="10" height="10" fill="rgb(239,249,255)"/><rect x="40" y="110" width="10" height="10" fill="rgb(235,246,255)"/><rect x="50" y="110" width="10" height="10" fill="rgb(241,247,255)"/><rect x="60" y="110" width="10" height="10" fill="rgb(239,247,255)"/><rect x="70" y="110" width="10" height="10" fill="rgb(236,250,255)"/><rect x="80" y="110" width="10" height="10" fill="rgb(240,249,255)"/><rect x="90" y="110" width="10" height="10" fill="rgb(240,247,255)"/><rect x="0" y="120" width="10" height="10" fill="rgb(234,248,255)"/><rect x="10" y="120" width="10" height="10" fill="rgb(238,249,255)"/><rect x="20" y="120" width="10" height="10" fill="rgb(231,244,255)"/><rect x="30" y="120" width="10" height="10" fill="rgb(236,248,255)"/><rect x="40" y="120" width="10" height="10" fill="rgb(239,250,255)"/><rect x="50" y="120" width="10" height="10" fill="rgb(239,250,255)"/><rect x="60" y="120" width="10" height="10" fill="rgb(237,247,255)"/><rect x="70" y="120" width="10" height="10" fill="rgb(235,249,255)"/><rect x="80" y="120" width="10" height="10" fill="rgb(238,249,255)"/><rect x="90" y="120" width="10" height="10" fill="rgb(238,250,255)"/><rect x="0" y="130" width="10" height="10" fill="rgb(242,252,255)"/><rect x="10" y="130" width="10" height="10" fill="rgb(236,245,255)"/><rect x="20" y="130" width="10" height="10" fill="rgb(241,251,255)"/><rect x="30" y="130" width="10" height="10" fill="rgb(241,251,255)"/><rect x="40" y="130" width="10" height="10" fill="rgb(233,245,255)"/><rect x="50" y="130" width="10" height="10" fill="rgb(234,246,255)"/><rect x="60" y="130" width="10" height="10" fill="rgb(237,245,255)"/><rect x="70" y="130" width="10" height="10" fill="rgb(237,246,255)"/><rect x="80" y="130" width="10" height="10" fill="rgb(238,247,255)"/><rect x="90" y="130" width="10" height="10" fill="rgb(239,246,255)"/><rect x="0" y="140" width="10" height="10" fill="rgb(237,246,255)"/><rect x="10" y="140" width="10" height="10" fill="rgb(215,230,255)"/><rect x="20" y="140" width="10" height="10" fill="rgb(228,239,255)"/><rect x="30" y="140" width="10" height="10" fill="rgb(236,248,255)"/><rect x="40" y="140" width="10" height="10" fill="rgb(241,250,255)"/><rect x="50" y="140" width="10" height="10" fill="rgb(231,243,255)"/><rect x="60" y="140" width="10" height="10" fill="rgb(238,248,255)"/><rect x="70" y="140" width="10" height="10" fill="rgb(233,244,255)"/><rect x="80" y="140" width="10" height="10" fill="rgb(231,246,255)"/><rect x="90" y="140" width="10" height="10" fill="rgb(229,240,255)"/><rect x="0" y="150" width="10" height="10" fill="rgb(232,244,255)"/><rect x="10" y="150" width="10" height="10" fill="rgb(240,249,255)"/><rect x="20" y="150" width="10" height="10" fill="rgb(240,250,255)"/><rect x="30" y="150" width="10" height="10" fill="rgb(222,235,255)"/><rect x="40" y="150" width="10" height="10" fill="rgb(237,247,255)"/><rect x="50" y="150" width="10" height="10" fill="rgb(233,240,255)"/><rect x="60" y="150" width="10" height="10" fill="rgb(234,242,255)"/><rect x="70" y="150" width="10" height="10" fill="rgb(242,252,255)"/><rect x="80" y="150" width="10" height="10" fill="rgb(238,248,255)"/><rect x="90" y="150" width="10" height="10" fill="rgb(239,249,255)"/><rect x="0" y="160" width="10" height="10" fill="rgb(233,244,255)"/><rect x="10" y="160" width="10" height="10" fill="rgb(222,235,254)"/><rect x="20" y="160" width="10" height="10" fill="rgb(235,243,255)"/><rect x="30" y="160" width="10" height="10" fill="rgb(227,240,255)"/><rect x="40" y="160" width="10" height="10" fill="rgb(223,239,255)"/><rect x="50" y="160" width="10" height="10" fill="rgb(234,245,255)"/><rect x="60" y="160" width="10" height="10" fill="rgb(231,241,255)"/><rect x="70" y="160" width="10" height="10" fill="rgb(229,241,255)"/><rect x="80" y="160" width="10" height="10" fill="rgb(228,239,255)"/><rect x="90" y="160" width="10" height="10" fill="rgb(236,246,255)"/><rect x="0" y="170" width="10" height="10" fill="rgb(238,247,255)"/><rect x="10" y="170" width="10" height="10" fill="rgb(241,249,255)"/><rect x="20" y="170" width="10" height="10" fill="rgb(236,244,255)"/><rect x="30" y="170" width="10" height="10" fill="rgb(241,248,255)"/><rect x="40" y="170" width="10" height="10" fill="rgb(235,246,255)"/><rect x="50" y="170" width="10" height="10" fill="rgb(237,246,255)"/><rect x="60" y="170" width="10" height="10" fill="rgb(240,249,255)"/><rect x="70" y="170" width="10" height="10" fill="rgb(237,247,255)"/><rect x="80" y="170" width="10" height="10" fill="rgb(234,244,255)"/><rect x="90" y="170" width="10" height="10" fill="rgb(233,243,255)"/><rect x="0" y="180" width="10" height="10" fill="rgb(234,245,255)"/><rect x="10" y="180" width="10" height="10" fill="rgb(236,247,255)"/><rect x="20" y="180" width="10" height="10" fill="rgb(242,250,255)"/><rect x="30" y="180" width="10" height="10" fill="rgb(233,242,254)"/><rect x="40" y="180" width="10" height="10" fill="rgb(225,237,254)"/><rect x="50" y="180" width="10" height="10" fill="rgb(232,241,255)"/><rect x="60" y="180" width="10" height="10" fill="rgb(234,245,254)"/><rect x="70" y="180" width="10" height="10" fill="rgb(220,237,255)"/><rect x="80" y="180" width="10" height="10" fill="rgb(231,243,255)"/><rect x="90" y="180" width="10" height="10" fill="rgb(234,246,255)"/><rect x="0" y="190" width="10" height="10" fill="rgb(215,238,255)"/><rect x="10" y="190" width="10" height="10" fill="rgb(212,241,255)"/><rect x="20" y="190" width="10" height="10" fill="rgb(222,248,255)"/><rect x="30" y="190" width="10" height="10" fill="rgb(225,237,255)"/><rect x="40" y="190" width="10" height="10" fill="rgb(228,247,255)"/><rect x="50" y="190" width="10" height="10" fill="rgb(223,238,255)"/><rect x="60" y="190" width="10" height="10" fill="rgb(224,238,255)"/><rect x="70" y="190" width="10" height="10" fill="rgb(231,240,255)"/><rect x="80" y="190" width="10" height="10" fill="rgb(230,241,255)"/><rect x="90" y="190" width="10" height="10" fill="rgb(206,232,255)"/><rect x="0" y="200" width="10" height="10" fill="rgb(232,249,255)"/><rect x="10" y="200" width="10" height="10" fill="rgb(224,248,255)"/><rect x="20" y="200" width="10" height="10" fill="rgb(226,248,255)"/><rect x="30" y="200" width="10" height="10" fill="rgb(226,248,255)"/><rect x="40" y="200" width="10" height="10" fill="rgb(223,247,255)"/><rect x="50" y="200" width="10" height="10" fill="rgb(225,249,255)"/><rect x="60" y="200" width="10" height="10" fill="rgb(226,248,255)"/><rect x="70" y="200" width="10" height="10" fill="rgb(231,247,255)"/><rect x="80" y="200" width="10" height="10" fill="rgb(236,246,255)"/><rect x="90" y="200" width="10" height="10" fill="rgb(205,235,255)"/><rect x="0" y="210" width="10" height="10" fill="rgb(212,240,255)"/><rect x="10" y="210" width="10" height="10" fill="rgb(224,240,255)"/><rect x="20" y="210" width="10" height="10" fill="rgb(210,232,255)"/><rect x="30" y="210" width="10" height="10" fill="rgb(222,247,255)"/><rect x="40" y="210" width="10" height="10" fill="rgb(180,231,255)"/><rect x="50" y="210" width="10" height="10" fill="rgb(182,233,255)"/><rect x="60" y="210" width="10" height="10" fill="rgb(181,232,255)"/><rect x="70" y="210" width="10" height="10" fill="rgb(188,234,255)"/><rect x="80" y="210" width="10" height="10" fill="rgb(190,234,255)"/><rect x="90" y="210" width="10" height="10" fill="rgb(199,233,255)"/><rect x="0" y="220" width="10" height="10" fill="rgb(230,243,255)"/><rect x="10" y="220" width="10" height="10" fill="rgb(219,229,253)"/><rect x="20" y="220" width="10" height="10" fill="rgb(205,220,251)"/><rect x="30" y="220" width="10" height="10" fill="rgb(211,220,249)"/><rect x="40" y="220" width="10" height="10" fill="rgb(205,216,247)"/><rect x="50" y="220" width="10" height="10" fill="rgb(226,233,252)"/><rect x="60" y="220" width="10" height="10" fill="rgb(222,231,252)"/><rect x="70" y="220" width="10" height="10" fill="rgb(222,233,253)"/><rect x="80" y="220" width="10" height="10" fill="rgb(211,227,254)"/><rect x="90" y="220" width="10" height="10" fill="rgb(200,216,251)"/><rect x="0" y="230" width="10" height="10" fill="rgb(226,237,254)"/><rect x="10" y="230" width="10" height="10" fill="rgb(196,211,248)"/><rect x="20" y="230" width="10" height="10" fill="rgb(202,210,239)"/><rect x="30" y="230" width="10" height="10" fill="rgb(217,220,244)"/><rect x="40" y="230" width="10" height="10" fill="rgb(210,220,246)"/><rect x="50" y="230" width="10" height="10" fill="rgb(223,233,252)"/><rect x="60" y="230" width="10" height="10" fill="rgb(230,236,252)"/><rect x="70" y="230" width="10" height="10" fill="rgb(213,220,245)"/><rect x="80" y="230" width="10" height="10" fill="rgb(226,235,252)"/><rect x="90" y="230" width="10" height="10" fill="rgb(221,231,251)"/><rect x="0" y="240" width="10" height="10" fill="rgb(220,225,246)"/><rect x="10" y="240" width="10" height="10" fill="rgb(206,214,241)"/><rect x="20" y="240" width="10" height="10" fill="rgb(214,221,244)"/><rect x="30" y="240" width="10" height="10" fill="rgb(211,218,247)"/><rect x="40" y="240" width="10" height="10" fill="rgb(215,221,246)"/><rect x="50" y="240" width="10" height="10" fill="rgb(208,218,247)"/><rect x="60" y="240" width="10" height="10" fill="rgb(214,224,250)"/><rect x="70" y="240" width="10" height="10" fill="rgb(211,223,250)"/><rect x="80" y="240" width="10" height="10" fill="rgb(217,229,249)"/><rect x="90" y="240" width="10" height="10" fill="rgb(222,229,249)"/><rect x="0" y="250" width="10" height="10" fill="rgb(230,234,249)"/><rect x="10" y="250" width="10" height="10" fill="rgb(214,220,243)"/><rect x="20" y="250" width="10" height="10" fill="rgb(210,217,244)"/><rect x="30" y="250" width="10" height="10" fill="rgb(221,230,249)"/><rect x="40" y="250" width="10" height="10" fill="rgb(218,228,249)"/><rect x="50" y="250" width="10" height="10" fill="rgb(240,247,255)"/><rect x="60" y="250" width="10" height="10" fill="rgb(235,245,255)"/><rect x="70" y="250" width="10" height="10" fill="rgb(234,242,255)"/><rect x="80" y="250" width="10" height="10" fill="rgb(241,250,255)"/><rect x="90" y="250" width="10" height="10" fill="rgb(229,245,255)"/><rect x="0" y="260" width="10" height="10" fill="rgb(239,246,255)"/><rect x="10" y="260" width="10" height="10" fill="rgb(237,245,255)"/></svg>