<svg xmlns="http://www.w3.org/2000/svg" width="480" height="10"><rect x="0" y="0" width="10" height="10" fill="rgb(231,234,244)"/><rect x="10" y="0" width="10" height="10" fill="rgb(206,207,216)"/><rect x="20" y="0" width="10" height="10" fill="rgb(225,228,239)"/><rect x="30" y="0" width="10" height="10" fill="rgb(212,215,227)"/><rect x="40" y="0" width="10" height="10" fill="rgb(219,222,233)"/><rect x="50" y="0" width="10" height="10" fill="rgb(235,237,247)"/><rect x="60" y="0" width="10" height="10" fill="rgb(228,231,241)"/><rect x="70" y="0" width="10" height="10" fill="rgb(228,231,242)"/><rect x="80" y="0" width="10" height="10" fill="rgb(213,215,225)"/><rect x="90" y="0" width="10" height="10" fill="rgb(225,227,238)"/><rect x="100" y="0" width="10" height="10" fill="rgb(213,216,225)"/><rect x="110" y="0" width="10" height="10" fill="rgb(211,214,224)"/><rect x="120" y="0" width="10" height="10" fill="rgb(226,229,237)"/><rect x="130" y="0" width="10" height="10" fill="rgb(224,227,240)"/><rect x="140" y="0" width="10" height="10" fill="rgb(204,207,220)"/><rect x="150" y="0" width="10" height="10" fill="rgb(208,211,225)"/><rect x="160" y="0" width="10" height="10" fill="rgb(211,213,225)"/><rect x="170" y="0" width="10" height="10" fill="rgb(211,213,226)"/><rect x="180" y="0" width="10" height="10" fill="rgb(228,231,241)"/><rect x="190" y="0" width="10" height="10" fill="rgb(230,233,243)"/><rect x="200" y="0" width="10" height="10" fill="rgb(199,201,214)"/><rect x="210" y="0" width="10" height="10" fill="rgb(228,231,241)"/><rect x="220" y="0" width="10" height="10" fill="rgb(182,185,197)"/><rect x="230" y="0" width="10" height="10" fill="rgb(226,228,237)"/><rect x="240" y="0" width="10" height="10" fill="rgb(200,203,217)"/><rect x="250" y="0" width="10" height="10" fill="rgb(167,169,184)"/><rect x="260" y="0" width="10" height="10" fill="rgb(232,234,244)"/><rect x="270" y="0" width="10" height="10" fill="rgb(237,239,246)"/><rect x="280" y="0" width="10" height="10" fill="rgb(238,239,247)"/><rect x="290" y="0" width="10" height="10" fill="rgb(227,231,242)"/><rect x="300" y="0" width="10" height="10" fill="rgb(175,177,191)"/><rect x="310" y="0" width="10" height="10" fill="rgb(237,239,246)"/><rect x="320" y="0" width="10" height="10" fill="rgb(212,215,224)"/><rect x="330" y="0" width="10" height="10" fill="rgb(221,224,233)"/><rect x="340" y="0" width="10" height="10" fill="rgb(213,215,226)"/><rect x="350" y="0" width="10" height="10" fill="rgb(228,230,241)"/><rect x="360" y="0" width="10" height="10" fill="rgb(225,228,237)"/><rect x="370" y="0" width="10" height="10" fill="rgb(163,165,176)"/><rect x="380" y="0" width="10" height="10" fill="rgb(233,235,247)"/><rect x="390" y="0" width="10" height="10" fill="rgb(223,225,237)"/><rect x="400" y="0" width="10" height="10" fill="rgb(187,191,207)"/><rect x="410" y="0" width="10" height="10" fill="rgb(184,187,204)"/><rect x="420" y="0" width="10" height="10" fill="rgb(188,194,214)"/><rect x="430" y="0" width="10" height="10" fill="rgb(172,179,203)"/></svg>