<svg xmlns="http://www.w3.org/2000/svg" width="480" height="70"><rect x="0" y="0" width="10" height="10" fill="rgb(246,243,253)"/><rect x="10" y="0" width="10" height="10" fill="rgb(251,246,255)"/><rect x="20" y="0" width="10" height="10" fill="rgb(231,233,254)"/><rect x="30" y="0" width="10" height="10" fill="rgb(230,230,247)"/><rect x="40" y="0" width="10" height="10" fill="rgb(183,178,189)"/><rect x="50" y="0" width="10" height="10" fill="rgb(231,230,244)"/><rect x="60" y="0" width="10" height="10" fill="rgb(227,224,237)"/><rect x="70" y="0" width="10" height="10" fill="rgb(240,239,247)"/><rect x="80" y="0" width="10" height="10" fill="rgb(249,247,255)"/><rect x="90" y="0" width="10" height="10" fill="rgb(229,224,228)"/><rect x="100" y="0" width="10" height="10" fill="rgb(235,233,247)"/><rect x="110" y="0" width="10" height="10" fill="rgb(235,229,236)"/><rect x="120" y="0" width="10" height="10" fill="rgb(207,205,220)"/><rect x="130" y="0" width="10" height="10" fill="rgb(217,217,233)"/><rect x="140" y="0" width="10" height="10" fill="rgb(180,180,200)"/><rect x="150" y="0" width="10" height="10" fill="rgb(191,198,220)"/><rect x="160" y="0" width="10" height="10" fill="rgb(154,157,176)"/><rect x="170" y="0" width="10" height="10" fill="rgb(241,239,253)"/><rect x="180" y="0" width="10" height="10" fill="rgb(218,223,238)"/><rect x="190" y="0" width="10" height="10" fill="rgb(219,218,234)"/><rect x="200" y="0" width="10" height="10" fill="rgb(214,212,225)"/><rect x="210" y="0" width="10" height="10" fill="rgb(223,221,235)"/><rect x="220" y="0" width="10" height="10" fill="rgb(213,213,234)"/><rect x="230" y="0" width="10" height="10" fill="rgb(217,217,233)"/><rect x="240" y="0" width="10" height="10" fill="rgb(216,216,231)"/><rect x="250" y="0" width="10" height="10" fill="rgb(210,208,220)"/><rect x="260" y="0" width="10" height="10" fill="rgb(234,232,238)"/><rect x="270" y="0" width="10" height="10" fill="rgb(240,241,253)"/><rect x="280" y="0" width="10" height="10" fill="rgb(220,225,239)"/><rect x="290" y="0" width="10" height="10" fill="rgb(237,236,245)"/><rect x="300" y="0" width="10" height="10" fill="rgb(235,235,247)"/><rect x="310" y="0" width="10" height="10" fill="rgb(209,212,225)"/><rect x="320" y="0" width="10" height="10" fill="rgb(202,202,216)"/><rect x="330" y="0" width="10" height="10" fill="rgb(150,159,173)"/><rect x="340" y="0" width="10" height="10" fill="rgb(155,160,173)"/><rect x="350" y="0" width="10" height="10" fill="rgb(160,163,177)"/><rect x="360" y="0" width="10" height="10" fill="rgb(138,143,157)"/><rect x="370" y="0" width="10" height="10" fill="rgb(153,162,178)"/><rect x="380" y="0" width="10" height="10" fill="rgb(145,159,172)"/><rect x="390" y="0" width="10" height="10" fill="rgb(149,158,174)"/><rect x="400" y="0" width="10" height="10" fill="rgb(127,144,161)"/><rect x="410" y="0" width="10" height="10" fill="rgb(128,145,160)"/><rect x="420" y="0" width="10" height="10" fill="rgb(128,145,159)"/><rect x="430" y="0" width="10" height="10" fill="rgb(123,139,162)"/><rect x="440" y="0" width="10" height="10" fill="rgb(120,133,154)"/><rect x="450" y="0" width="10" height="10" fill="rgb(150,159,175)"/><rect x="460" y="0" width="10" height="10" fill="rgb(165,166,175)"/><rect x="470" y="0" width="10" height="10" fill="rgb(165,168,185)"/><rect x="0" y="10" width="10" height="10" fill="rgb(174,181,193)"/><rect x="10" y="10" width="10" height="10" fill="rgb(168,179,194)"/><rect x="20" y="10" width="10" height="10" fill="rgb(183,194,215)"/><rect x="30" y="10" width="10" height="10" fill="rgb(161,169,186)"/><rect x="40" y="10" width="10" height="10" fill="rgb(168,178,198)"/><rect x="50" y="10" width="10" height="10" fill="rgb(149,162,189)"/><rect x="60" y="10" width="10" height="10" fill="rgb(155,170,204)"/><rect x="70" y="10" width="10" height="10" fill="rgb(139,153,193)"/><rect x="80" y="10" width="10" height="10" fill="rgb(144,157,188)"/><rect x="90" y="10" width="10" height="10" fill="rgb(162,162,178)"/><rect x="100" y="10" width="10" height="10" fill="rgb(161,169,197)"/><rect x="110" y="10" width="10" height="10" fill="rgb(213,205,214)"/><rect x="120" y="10" width="10" height="10" fill="rgb(220,218,232)"/><rect x="130" y="10" width="10" height="10" fill="rgb(199,207,228)"/><rect x="140" y="10" width="10" height="10" fill="rgb(183,198,231)"/><rect x="150" y="10" width="10" height="10" fill="rgb(165,181,225)"/><rect x="160" y="10" width="10" height="10" fill="rgb(175,191,232)"/><rect x="170" y="10" width="10" height="10" fill="rgb(164,180,222)"/><rect x="180" y="10" width="10" height="10" fill="rgb(148,156,194)"/><rect x="190" y="10" width="10" height="10" fill="rgb(140,125,146)"/><rect x="200" y="10" width="10" height="10" fill="rgb(140,138,164)"/><rect x="210" y="10" width="10" height="10" fill="rgb(108,122,171)"/><rect x="220" y="10" width="10" height="10" fill="rgb(103,116,164)"/><rect x="230" y="10" width="10" height="10" fill="rgb(102,113,162)"/><rect x="240" y="10" width="10" height="10" fill="rgb(84,95,138)"/><rect x="250" y="10" width="10" height="10" fill="rgb(192,157,158)"/><rect x="260" y="10" width="10" height="10" fill="rgb(222,181,170)"/><rect x="270" y="10" width="10" height="10" fill="rgb(193,147,134)"/><rect x="280" y="10" width="10" height="10" fill="rgb(167,130,125)"/><rect x="290" y="10" width="10" height="10" fill="rgb(133,110,110)"/><rect x="300" y="10" width="10" height="10" fill="rgb(106,95,93)"/><rect x="310" y="10" width="10" height="10" fill="rgb(79,75,70)"/><rect x="320" y="10" width="10" height="10" fill="rgb(74,74,70)"/><rect x="330" y="10" width="10" height="10" fill="rgb(60,64,61)"/><rect x="340" y="10" width="10" height="10" fill="rgb(48,51,52)"/><rect x="350" y="10" width="10" height="10" fill="rgb(46,54,55)"/><rect x="360" y="10" width="10" height="10" fill="rgb(40,51,54)"/><rect x="370" y="10" width="10" height="10" fill="rgb(37,46,46)"/><rect x="380" y="10" width="10" height="10" fill="rgb(45,48,52)"/><rect x="390" y="10" width="10" height="10" fill="rgb(43,52,56)"/><rect x="400" y="10" width="10" height="10" fill="rgb(39,50,53)"/><rect x="410" y="10" width="10" height="10" fill="rgb(37,52,52)"/><rect x="420" y="10" width="10" height="10" fill="rgb(44,55,59)"/><rect x="430" y="10" width="10" height="10" fill="rgb(44,54,56)"/><rect x="440" y="10" width="10" height="10" fill="rgb(50,64,65)"/><rect x="450" y="10" width="10" height="10" fill="rgb(50,64,66)"/><rect x="460" y="10" width="10" height="10" fill="rgb(41,53,56)"/><rect x="470" y="10" width="10" height="10" fill="rgb(46,59,61)"/><rect x="0" y="20" width="10" height="10" fill="rgb(45,53,55)"/><rect x="10" y="20" width="10" height="10" fill="rgb(49,63,67)"/><rect x="20" y="20" width="10" height="10" fill="rgb(43,54,57)"/><rect x="30" y="20" width="10" height="10" fill="rgb(42,54,55)"/><rect x="40" y="20" width="10" height="10" fill="rgb(44,54,58)"/><rect x="50" y="20" width="10" height="10" fill="rgb(40,52,54)"/><rect x="60" y="20" width="10" height="10" fill="rgb(40,52,53)"/><rect x="70" y="20" width="10" height="10" fill="rgb(44,56,59)"/><rect x="80" y="20" width="10" height="10" fill="rgb(40,52,56)"/><rect x="90" y="20" width="10" height="10" fill="rgb(41,53,55)"/><rect x="100" y="20" width="10" height="10" fill="rgb(40,52,54)"/><rect x="110" y="20" width="10" height="10" fill="rgb(40,52,53)"/><rect x="120" y="20" width="10" height="10" fill="rgb(43,54,57)"/><rect x="130" y="20" width="10" height="10" fill="rgb(38,51,55)"/><rect x="140" y="20" width="10" height="10" fill="rgb(44,54,55)"/><rect x="150" y="20" width="10" height="10" fill="rgb(42,56,56)"/><rect x="160" y="20" width="10" height="10" fill="rgb(39,52,54)"/><rect x="170" y="20" width="10" height="10" fill="rgb(40,53,55)"/><rect x="180" y="20" width="10" height="10" fill="rgb(42,53,54)"/><rect x="190" y="20" width="10" height="10" fill="rgb(43,56,57)"/><rect x="200" y="20" width="10" height="10" fill="rgb(42,53,56)"/><rect x="210" y="20" width="10" height="10" fill="rgb(44,54,59)"/><rect x="220" y="20" width="10" height="10" fill="rgb(38,50,52)"/><rect x="230" y="20" width="10" height="10" fill="rgb(44,58,59)"/><rect x="240" y="20" width="10" height="10" fill="rgb(45,58,57)"/><rect x="250" y="20" width="10" height="10" fill="rgb(45,58,61)"/><rect x="260" y="20" width="10" height="10" fill="rgb(46,58,60)"/><rect x="270" y="20" width="10" height="10" fill="rgb(43,56,58)"/><rect x="280" y="20" width="10" height="10" fill="rgb(37,51,54)"/><rect x="290" y="20" width="10" height="10" fill="rgb(42,53,57)"/><rect x="300" y="20" width="10" height="10" fill="rgb(47,60,61)"/><rect x="310" y="20" width="10" height="10" fill="rgb(42,57,57)"/><rect x="320" y="20" width="10" height="10" fill="rgb(43,54,56)"/><rect x="330" y="20" width="10" height="10" fill="rgb(46,56,57)"/><rect x="340" y="20" width="10" height="10" fill="rgb(39,51,53)"/><rect x="350" y="20" width="10" height="10" fill="rgb(41,52,55)"/><rect x="360" y="20" width="10" height="10" fill="rgb(40,53,57)"/><rect x="370" y="20" width="10" height="10" fill="rgb(40,51,54)"/><rect x="380" y="20" width="10" height="10" fill="rgb(41,53,55)"/><rect x="390" y="20" width="10" height="10" fill="rgb(39,50,54)"/><rect x="400" y="20" width="10" height="10" fill="rgb(43,55,58)"/><rect x="410" y="20" width="10" height="10" fill="rgb(45,56,59)"/><rect x="420" y="20" width="10" height="10" fill="rgb(42,55,57)"/><rect x="430" y="20" width="10" height="10" fill="rgb(38,51,53)"/><rect x="440" y="20" width="10" height="10" fill="rgb(39,50,54)"/><rect x="450" y="20" width="10" height="10" fill="rgb(38,51,54)"/><rect x="460" y="20" width="10" height="10" fill="rgb(44,57,59)"/><rect x="470" y="20" width="10" height="10" fill="rgb(42,56,57)"/><rect x="0" y="30" width="10" height="10" fill="rgb(41,56,58)"/><rect x="10" y="30" width="10" height="10" fill="rgb(40,53,54)"/><rect x="20" y="30" width="10" height="10" fill="rgb(40,51,54)"/><rect x="30" y="30" width="10" height="10" fill="rgb(39,51,56)"/><rect x="40" y="30" width="10" height="10" fill="rgb(42,56,58)"/><rect x="50" y="30" width="10" height="10" fill="rgb(43,55,59)"/><rect x="60" y="30" width="10" height="10" fill="rgb(47,59,61)"/><rect x="70" y="30" width="10" height="10" fill="rgb(44,56,59)"/><rect x="80" y="30" width="10" height="10" fill="rgb(39,51,54)"/><rect x="90" y="30" width="10" height="10" fill="rgb(44,55,59)"/><rect x="100" y="30" width="10" height="10" fill="rgb(38,51,53)"/><rect x="110" y="30" width="10" height="10" fill="rgb(44,56,57)"/><rect x="120" y="30" width="10" height="10" fill="rgb(41,53,56)"/><rect x="130" y="30" width="10" height="10" fill="rgb(42,53,56)"/><rect x="140" y="30" width="10" height="10" fill="rgb(39,51,54)"/><rect x="150" y="30" width="10" height="10" fill="rgb(47,59,60)"/><rect x="160" y="30" width="10" height="10" fill="rgb(47,60,62)"/><rect x="170" y="30" width="10" height="10" fill="rgb(42,53,56)"/><rect x="180" y="30" width="10" height="10" fill="rgb(44,55,57)"/><rect x="190" y="30" width="10" height="10" fill="rgb(46,58,60)"/><rect x="200" y="30" width="10" height="10" fill="rgb(41,50,53)"/><rect x="210" y="30" width="10" height="10" fill="rgb(46,58,63)"/><rect x="220" y="30" width="10" height="10" fill="rgb(41,52,55)"/><rect x="230" y="30" width="10" height="10" fill="rgb(39,51,53)"/><rect x="240" y="30" width="10" height="10" fill="rgb(45,57,59)"/><rect x="250" y="30" width="10" height="10" fill="rgb(41,52,56)"/><rect x="260" y="30" width="10" height="10" fill="rgb(45,57,61)"/><rect x="270" y="30" width="10" height="10" fill="rgb(43,56,59)"/><rect x="280" y="30" width="10" height="10" fill="rgb(39,52,55)"/><rect x="290" y="30" width="10" height="10" fill="rgb(41,55,59)"/><rect x="300" y="30" width="10" height="10" fill="rgb(44,60,67)"/><rect x="310" y="30" width="10" height="10" fill="rgb(42,58,67)"/><rect x="320" y="30" width="10" height="10" fill="rgb(46,64,83)"/><rect x="330" y="30" width="10" height="10" fill="rgb(47,74,101)"/><rect x="340" y="30" width="10" height="10" fill="rgb(58,88,127)"/><rect x="350" y="30" width="10" height="10" fill="rgb(61,92,147)"/><rect x="360" y="30" width="10" height="10" fill="rgb(88,124,187)"/><rect x="370" y="30" width="10" height="10" fill="rgb(103,138,205)"/><rect x="380" y="30" width="10" height="10" fill="rgb(119,142,204)"/><rect x="390" y="30" width="10" height="10" fill="rgb(142,156,198)"/><rect x="400" y="30" width="10" height="10" fill="rgb(152,166,194)"/><rect x="410" y="30" width="10" height="10" fill="rgb(166,177,200)"/><rect x="420" y="30" width="10" height="10" fill="rgb(173,181,204)"/><rect x="430" y="30" width="10" height="10" fill="rgb(209,191,206)"/><rect x="440" y="30" width="10" height="10" fill="rgb(203,177,182)"/><rect x="450" y="30" width="10" height="10" fill="rgb(186,160,157)"/><rect x="460" y="30" width="10" height="10" fill="rgb(188,166,159)"/><rect x="470" y="30" width="10" height="10" fill="rgb(183,166,159)"/><rect x="0" y="40" width="10" height="10" fill="rgb(181,175,172)"/><rect x="10" y="40" width="10" height="10" fill="rgb(174,174,177)"/><rect x="20" y="40" width="10" height="10" fill="rgb(168,175,186)"/><rect x="30" y="40" width="10" height="10" fill="rgb(165,173,189)"/><rect x="40" y="40" width="10" height="10" fill="rgb(161,172,186)"/><rect x="50" y="40" width="10" height="10" fill="rgb(151,160,179)"/><rect x="60" y="40" width="10" height="10" fill="rgb(153,161,186)"/><rect x="70" y="40" width="10" height="10" fill="rgb(122,128,155)"/><rect x="80" y="40" width="10" height="10" fill="rgb(153,163,188)"/><rect x="90" y="40" width="10" height="10" fill="rgb(153,160,189)"/><rect x="100" y="40" width="10" height="10" fill="rgb(151,154,179)"/><rect x="110" y="40" width="10" height="10" fill="rgb(150,160,188)"/><rect x="120" y="40" width="10" height="10" fill="rgb(152,161,190)"/><rect x="130" y="40" width="10" height="10" fill="rgb(150,158,190)"/><rect x="140" y="40" width="10" height="10" fill="rgb(150,159,190)"/><rect x="150" y="40" width="10" height="10" fill="rgb(151,155,182)"/><rect x="160" y="40" width="10" height="10" fill="rgb(140,149,177)"/><rect x="170" y="40" width="10" height="10" fill="rgb(144,149,178)"/><rect x="180" y="40" width="10" height="10" fill="rgb(150,152,179)"/><rect x="190" y="40" width="10" height="10" fill="rgb(142,145,173)"/><rect x="200" y="40" width="10" height="10" fill="rgb(143,147,175)"/><rect x="210" y="40" width="10" height="10" fill="rgb(143,147,175)"/><rect x="220" y="40" width="10" height="10" fill="rgb(150,153,180)"/><rect x="230" y="40" width="10" height="10" fill="rgb(161,167,194)"/><rect x="240" y="40" width="10" height="10" fill="rgb(195,197,222)"/><rect x="250" y="40" width="10" height="10" fill="rgb(174,179,206)"/><rect x="260" y="40" width="10" height="10" fill="rgb(129,136,164)"/><rect x="270" y="40" width="10" height="10" fill="rgb(172,176,202)"/><rect x="280" y="40" width="10" height="10" fill="rgb(144,146,173)"/><rect x="290" y="40" width="10" height="10" fill="rgb(170,170,196)"/><rect x="300" y="40" width="10" height="10" fill="rgb(155,156,183)"/><rect x="310" y="40" width="10" height="10" fill="rgb(174,174,200)"/><rect x="320" y="40" width="10" height="10" fill="rgb(173,172,194)"/><rect x="330" y="40" width="10" height="10" fill="rgb(176,176,198)"/><rect x="340" y="40" width="10" height="10" fill="rgb(195,197,216)"/><rect x="350" y="40" width="10" height="10" fill="rgb(185,185,201)"/><rect x="360" y="40" width="10" height="10" fill="rgb(187,188,208)"/><rect x="370" y="40" width="10" height="10" fill="rgb(182,182,202)"/><rect x="380" y="40" width="10" height="10" fill="rgb(138,139,164)"/><rect x="390" y="40" width="10" height="10" fill="rgb(151,151,176)"/><rect x="400" y="40" width="10" height="10" fill="rgb(141,139,155)"/><rect x="410" y="40" width="10" height="10" fill="rgb(165,163,184)"/><rect x="420" y="40" width="10" height="10" fill="rgb(136,134,158)"/><rect x="430" y="40" width="10" height="10" fill="rgb(165,162,186)"/><rect x="440" y="40" width="10" height="10" fill="rgb(164,161,184)"/><rect x="450" y="40" width="10" height="10" fill="rgb(161,160,187)"/><rect x="460" y="40" width="10" height="10" fill="rgb(141,141,159)"/><rect x="470" y="40" width="10" height="10" fill="rgb(163,161,185)"/><rect x="0" y="50" width="10" height="10" fill="rgb(161,158,182)"/><rect x="10" y="50" width="10" height="10" fill="rgb(168,166,191)"/><rect x="20" y="50" width="10" height="10" fill="rgb(169,166,191)"/><rect x="30" y="50" width="10" height="10" fill="rgb(165,165,188)"/><rect x="40" y="50" width="10" height="10" fill="rgb(158,157,182)"/><rect x="50" y="50" width="10" height="10" fill="rgb(187,185,205)"/><rect x="60" y="50" width="10" height="10" fill="rgb(191,189,210)"/><rect x="70" y="50" width="10" height="10" fill="rgb(203,201,219)"/><rect x="80" y="50" width="10" height="10" fill="rgb(163,163,188)"/><rect x="90" y="50" width="10" height="10" fill="rgb(169,166,189)"/><rect x="100" y="50" width="10" height="10" fill="rgb(169,167,185)"/><rect x="110" y="50" width="10" height="10" fill="rgb(152,156,188)"/><rect x="120" y="50" width="10" height="10" fill="rgb(222,220,236)"/><rect x="130" y="50" width="10" height="10" fill="rgb(227,225,243)"/><rect x="140" y="50" width="10" height="10" fill="rgb(213,211,229)"/><rect x="150" y="50" width="10" height="10" fill="rgb(179,179,201)"/><rect x="160" y="50" width="10" height="10" fill="rgb(188,187,212)"/><rect x="170" y="50" width="10" height="10" fill="rgb(171,173,194)"/><rect x="180" y="50" width="10" height="10" fill="rgb(182,182,203)"/><rect x="190" y="50" width="10" height="10" fill="rgb(167,165,187)"/><rect x="200" y="50" width="10" height="10" fill="rgb(168,167,186)"/><rect x="210" y="50" width="10" height="10" fill="rgb(176,176,198)"/><rect x="220" y="50" width="10" height="10" fill="rgb(171,170,193)"/><rect x="230" y="50" width="10" height="10" fill="rgb(177,177,198)"/><rect x="240" y="50" width="10" height="10" fill="rgb(177,177,201)"/><rect x="250" y="50" width="10" height="10" fill="rgb(168,169,195)"/><rect x="260" y="50" width="10" height="10" fill="rgb(170,170,195)"/><rect x="270" y="50" width="10" height="10" fill="rgb(162,163,188)"/><rect x="280" y="50" width="10" height="10" fill="rgb(158,162,186)"/><rect x="290" y="50" width="10" height="10" fill="rgb(161,164,190)"/><rect x="300" y="50" width="10" height="10" fill="rgb(160,162,187)"/><rect x="310" y="50" width="10" height="10" fill="rgb(159,160,184)"/><rect x="320" y="50" width="10" height="10" fill="rgb(168,169,191)"/><rect x="330" y="50" width="10" height="10" fill="rgb(160,160,182)"/><rect x="340" y="50" width="10" height="10" fill="rgb(168,164,182)"/><rect x="350" y="50" width="10" height="10" fill="rgb(117,111,115)"/><rect x="360" y="50" width="10" height="10" fill="rgb(164,162,181)"/><rect x="370" y="50" width="10" height="10" fill="rgb(163,161,178)"/><rect x="380" y="50" width="10" height="10" fill="rgb(170,167,187)"/><rect x="390" y="50" width="10" height="10" fill="rgb(165,163,181)"/><rect x="400" y="50" width="10" height="10" fill="rgb(168,162,180)"/><rect x="410" y="50" width="10" height="10" fill="rgb(167,163,180)"/><rect x="420" y="50" width="10" height="10" fill="rgb(172,165,183)"/><rect x="430" y="50" width="10" height="10" fill="rgb(174,167,185)"/><rect x="440" y="50" width="10" height="10" fill="rgb(171,166,180)"/><rect x="450" y="50" width="10" height="10" fill="rgb(181,174,187)"/><rect x="460" y="50" width="10" height="10" fill="rgb(175,167,184)"/><rect x="470" y="50" width="10" height="10" fill="rgb(174,167,183)"/><rect x="0" y="60" width="10" height="10" fill="rgb(175,168,183)"/><rect x="10" y="60" width="10" height="10" fill="rgb(183,175,191)"/><rect x="20" y="60" width="10" height="10" fill="rgb(175,170,185)"/><rect x="30" y="60" width="10" height="10" fill="rgb(179,173,188)"/><rect x="40" y="60" width="10" height="10" fill="rgb(182,175,190)"/><rect x="50" y="60" width="10" height="10" fill="rgb(179,172,186)"/><rect x="60" y="60" width="10" height="10" fill="rgb(191,183,194)"/><rect x="70" y="60" width="10" height="10" fill="rgb(192,184,195)"/><rect x="80" y="60" width="10" height="10" fill="rgb(190,184,195)"/><rect x="90" y="60" width="10" height="10" fill="rgb(191,183,192)"/><rect x="100" y="60" width="10" height="10" fill="rgb(193,185,193)"/><rect x="110" y="60" width="10" height="10" fill="rgb(225,217,228)"/><rect x="120" y="60" width="10" height="10" fill="rgb(214,212,221)"/><rect x="130" y="60" width="10" height="10" fill="rgb(221,213,222)"/><rect x="140" y="60" width="10" height="10" fill="rgb(197,192,200)"/><rect x="150" y="60" width="10" height="10" fill="rgb(196,193,200)"/><rect x="160" y="60" width="10" height="10" fill="rgb(197,193,201)"/><rect x="170" y="60" width="10" height="10" fill="rgb(191,190,196)"/><rect x="180" y="60" width="10" height="10" fill="rgb(200,199,202)"/><rect x="190" y="60" width="10" height="10" fill="rgb(199,198,206)"/><rect x="200" y="60" width="10" height="10" fill="rgb(195,192,201)"/><rect x="210" y="60" width="10" height="10" fill="rgb(193,192,197)"/><rect x="220" y="60" width="10" height="10" fill="rgb(198,197,198)"/><rect x="230" y="60" width="10" height="10" fill="rgb(195,194,202)"/><rect x="240" y="60" width="10" height="10" fill="rgb(183,182,187)"/></svg>