<svg xmlns="http://www.w3.org/2000/svg" width="100" height="260"><rect x="0" y="0" width="10" height="10" fill="rgb(126,130,134)"/><rect x="10" y="0" width="10" height="10" fill="rgb(124,128,132)"/><rect x="20" y="0" width="10" height="10" fill="rgb(124,128,132)"/><rect x="30" y="0" width="10" height="10" fill="rgb(124,127,128)"/><rect x="40" y="0" width="10" height="10" fill="rgb(124,127,128)"/><rect x="50" y="0" width="10" height="10" fill="rgb(69,74,78)"/><rect x="60" y="0" width="10" height="10" fill="rgb(69,74,78)"/><rect x="70" y="0" width="10" height="10" fill="rgb(23,24,27)"/><rect x="80" y="0" width="10" height="10" fill="rgb(23,24,27)"/><rect x="90" y="0" width="10" height="10" fill="rgb(23,24,27)"/><rect x="0" y="10" width="10" height="10" fill="rgb(16,16,18)"/><rect x="10" y="10" width="10" height="10" fill="rgb(16,16,18)"/><rect x="20" y="10" width="10" height="10" fill="rgb(15,14,17)"/><rect x="30" y="10" width="10" height="10" fill="rgb(15,14,17)"/><rect x="40" y="10" width="10" height="10" fill="rgb(14,14,16)"/><rect x="50" y="10" width="10" height="10" fill="rgb(14,14,16)"/><rect x="60" y="10" width="10" height="10" fill="rgb(14,14,16)"/><rect x="70" y="10" width="10" height="10" fill="rgb(14,14,16)"/><rect x="80" y="10" width="10" height="10" fill="rgb(14,14,16)"/><rect x="90" y="10" width="10" height="10" fill="rgb(14,14,16)"/><rect x="0" y="20" width="10" height="10" fill="rgb(14,14,16)"/><rect x="10" y="20" width="10" height="10" fill="rgb(14,14,16)"/><rect x="20" y="20" width="10" height="10" fill="rgb(14,14,16)"/><rect x="30" y="20" width="10" height="10" fill="rgb(15,14,16)"/><rect x="40" y="20" width="10" height="10" fill="rgb(15,14,16)"/><rect x="50" y="20" width="10" height="10" fill="rgb(15,14,16)"/><rect x="60" y="20" width="10" height="10" fill="rgb(15,14,16)"/><rect x="70" y="20" width="10" height="10" fill="rgb(15,14,16)"/><rect x="80" y="20" width="10" height="10" fill="rgb(15,14,16)"/><rect x="90" y="20" width="10" height="10" fill="rgb(14,14,16)"/><rect x="0" y="30" width="10" height="10" fill="rgb(14,14,16)"/><rect x="10" y="30" width="10" height="10" fill="rgb(14,14,16)"/><rect x="20" y="30" width="10" height="10" fill="rgb(14,14,16)"/><rect x="30" y="30" width="10" height="10" fill="rgb(14,14,16)"/><rect x="40" y="30" width="10" height="10" fill="rgb(14,14,16)"/><rect x="50" y="30" width="10" height="10" fill="rgb(14,14,16)"/><rect x="60" y="30" width="10" height="10" fill="rgb(255,255,255)"/><rect x="70" y="30" width="10" height="10" fill="rgb(255,255,255)"/><rect x="80" y="30" width="10" height="10" fill="rgb(14,14,16)"/><rect x="90" y="30" width="10" height="10" fill="rgb(14,14,16)"/><rect x="0" y="40" width="10" height="10" fill="rgb(255,255,255)"/><rect x="10" y="40" width="10" height="10" fill="rgb(255,255,255)"/><rect x="20" y="40" width="10" height="10" fill="rgb(14,14,16)"/><rect x="30" y="40" width="10" height="10" fill="rgb(14,14,16)"/><rect x="40" y="40" width="10" height="10" fill="rgb(15,14,16)"/><rect x="50" y="40" width="10" height="10" fill="rgb(15,14,16)"/><rect x="60" y="40" width="10" height="10" fill="rgb(15,14,17)"/><rect x="70" y="40" width="10" height="10" fill="rgb(15,14,17)"/><rect x="80" y="40" width="10" height="10" fill="rgb(14,14,16)"/><rect x="90" y="40" width="10" height="10" fill="rgb(14,14,16)"/><rect x="0" y="50" width="10" height="10" fill="rgb(15,14,16)"/><rect x="10" y="50" width="10" height="10" fill="rgb(15,14,16)"/><rect x="20" y="50" width="10" height="10" fill="rgb(15,14,16)"/><rect x="30" y="50" width="10" height="10" fill="rgb(14,14,16)"/><rect x="40" y="50" width="10" height="10" fill="rgb(14,14,16)"/><rect x="50" y="50" width="10" height="10" fill="rgb(14,14,16)"/><rect x="60" y="50" width="10" height="10" fill="rgb(14,14,16)"/><rect x="70" y="50" width="10" height="10" fill="rgb(255,255,255)"/><rect x="80" y="50" width="10" height="10" fill="rgb(255,255,255)"/><rect x="90" y="50" width="10" height="10" fill="rgb(15,14,17)"/><rect x="0" y="60" width="10" height="10" fill="rgb(15,14,17)"/><rect x="10" y="60" width="10" height="10" fill="rgb(14,14,16)"/><rect x="20" y="60" width="10" height="10" fill="rgb(14,14,16)"/><rect x="30" y="60" width="10" height="10" fill="rgb(15,14,16)"/><rect x="40" y="60" width="10" height="10" fill="rgb(15,14,16)"/><rect x="50" y="60" width="10" height="10" fill="rgb(15,14,16)"/><rect x="60" y="60" width="10" height="10" fill="rgb(15,14,16)"/><rect x="70" y="60" width="10" height="10" fill="rgb(15,14,16)"/><rect x="80" y="60" width="10" height="10" fill="rgb(255,255,255)"/><rect x="90" y="60" width="10" height="10" fill="rgb(255,255,255)"/><rect x="0" y="70" width="10" height="10" fill="rgb(15,15,16)"/><rect x="10" y="70" width="10" height="10" fill="rgb(15,15,16)"/><rect x="20" y="70" width="10" height="10" fill="rgb(15,15,16)"/><rect x="30" y="70" width="10" height="10" fill="rgb(15,15,16)"/><rect x="40" y="70" width="10" height="10" fill="rgb(15,15,17)"/><rect x="50" y="70" width="10" height="10" fill="rgb(15,15,17)"/><rect x="60" y="70" width="10" height="10" fill="rgb(15,15,16)"/><rect x="70" y="70" width="10" height="10" fill="rgb(15,15,16)"/><rect x="80" y="70" width="10" height="10" fill="rgb(15,15,16)"/><rect x="90" y="70" width="10" height="10" fill="rgb(16,16,16)"/><rect x="0" y="80" width="10" height="10" fill="rgb(16,16,16)"/><rect x="10" y="80" width="10" height="10" fill="rgb(15,15,16)"/><rect x="20" y="80" width="10" height="10" fill="rgb(15,15,16)"/><rect x="30" y="80" width="10" height="10" fill="rgb(15,15,16)"/><rect x="40" y="80" width="10" height="10" fill="rgb(15,15,16)"/><rect x="50" y="80" width="10" height="10" fill="rgb(15,15,16)"/><rect x="60" y="80" width="10" height="10" fill="rgb(15,15,16)"/><rect x="70" y="80" width="10" height="10" fill="rgb(15,14,16)"/><rect x="80" y="80" width="10" height="10" fill="rgb(15,14,16)"/><rect x="90" y="80" width="10" height="10" fill="rgb(14,14,16)"/><rect x="0" y="90" width="10" height="10" fill="rgb(14,14,16)"/><rect x="10" y="90" width="10" height="10" fill="rgb(14,14,16)"/><rect x="20" y="90" width="10" height="10" fill="rgb(14,14,16)"/><rect x="30" y="90" width="10" height="10" fill="rgb(14,14,16)"/><rect x="40" y="90" width="10" height="10" fill="rgb(14,14,16)"/><rect x="50" y="90" width="10" height="10" fill="rgb(14,14,16)"/><rect x="60" y="90" width="10" height="10" fill="rgb(14,14,16)"/><rect x="70" y="90" width="10" height="10" fill="rgb(14,14,16)"/><rect x="80" y="90" width="10" height="10" fill="rgb(14,14,16)"/><rect x="90" y="90" width="10" height="10" fill="rgb(14,14,17)"/><rect x="0" y="100" width="10" height="10" fill="rgb(14,14,17)"/><rect x="10" y="100" width="10" height="10" fill="rgb(15,15,17)"/><rect x="20" y="100" width="10" height="10" fill="rgb(15,15,17)"/><rect x="30" y="100" width="10" height="10" fill="rgb(18,18,22)"/><rect x="40" y="100" width="10" height="10" fill="rgb(18,18,22)"/><rect x="50" y="100" width="10" height="10" fill="rgb(18,18,22)"/><rect x="60" y="100" width="10" height="10" fill="rgb(32,36,39)"/><rect x="70" y="100" width="10" height="10" fill="rgb(32,36,39)"/><rect x="80" y="100" width="10" height="10" fill="rgb(89,94,98)"/><rect x="90" y="100" width="10" height="10" fill="rgb(89,94,98)"/><rect x="0" y="110" width="10" height="10" fill="rgb(124,127,132)"/><rect x="10" y="110" width="10" height="10" fill="rgb(124,127,132)"/><rect x="20" y="110" width="10" height="10" fill="rgb(127,131,135)"/><rect x="30" y="110" width="10" height="10" fill="rgb(127,131,135)"/><rect x="40" y="110" width="10" height="10" fill="rgb(127,131,135)"/><rect x="50" y="110" width="10" height="10" fill="rgb(123,130,130)"/><rect x="60" y="110" width="10" height="10" fill="rgb(123,130,130)"/><rect x="70" y="110" width="10" height="10" fill="rgb(136,140,139)"/><rect x="80" y="110" width="10" height="10" fill="rgb(136,140,139)"/><rect x="90" y="110" width="10" height="10" fill="rgb(146,150,149)"/><rect x="0" y="120" width="10" height="10" fill="rgb(146,150,149)"/><rect x="10" y="120" width="10" height="10" fill="rgb(179,183,181)"/><rect x="20" y="120" width="10" height="10" fill="rgb(179,183,181)"/><rect x="30" y="120" width="10" height="10" fill="rgb(182,186,185)"/><rect x="40" y="120" width="10" height="10" fill="rgb(182,186,185)"/><rect x="50" y="120" width="10" height="10" fill="rgb(182,186,185)"/><rect x="60" y="120" width="10" height="10" fill="rgb(144,148,146)"/><rect x="70" y="120" width="10" height="10" fill="rgb(144,148,146)"/><rect x="80" y="120" width="10" height="10" fill="rgb(177,180,179)"/><rect x="90" y="120" width="10" height="10" fill="rgb(177,180,179)"/><rect x="0" y="130" width="10" height="10" fill="rgb(121,125,124)"/><rect x="10" y="130" width="10" height="10" fill="rgb(121,125,124)"/><rect x="20" y="130" width="10" height="10" fill="rgb(123,127,127)"/><rect x="30" y="130" width="10" height="10" fill="rgb(123,127,127)"/><rect x="40" y="130" width="10" height="10" fill="rgb(120,124,124)"/><rect x="50" y="130" width="10" height="10" fill="rgb(120,124,124)"/><rect x="60" y="130" width="10" height="10" fill="rgb(122,125,124)"/><rect x="70" y="130" width="10" height="10" fill="rgb(122,125,124)"/><rect x="80" y="130" width="10" height="10" fill="rgb(122,125,124)"/><rect x="90" y="130" width="10" height="10" fill="rgb(120,124,124)"/><rect x="0" y="140" width="10" height="10" fill="rgb(120,124,124)"/><rect x="10" y="140" width="10" height="10" fill="rgb(122,126,126)"/><rect x="20" y="140" width="10" height="10" fill="rgb(122,126,126)"/><rect x="30" y="140" width="10" height="10" fill="rgb(116,120,121)"/><rect x="40" y="140" width="10" height="10" fill="rgb(116,120,121)"/><rect x="50" y="140" width="10" height="10" fill="rgb(117,122,122)"/><rect x="60" y="140" width="10" height="10" fill="rgb(117,122,122)"/><rect x="70" y="140" width="10" height="10" fill="rgb(119,123,123)"/><rect x="80" y="140" width="10" height="10" fill="rgb(119,123,123)"/><rect x="90" y="140" width="10" height="10" fill="rgb(119,123,123)"/><rect x="0" y="150" width="10" height="10" fill="rgb(121,124,124)"/><rect x="10" y="150" width="10" height="10" fill="rgb(121,124,124)"/><rect x="20" y="150" width="10" height="10" fill="rgb(255,255,255)"/><rect x="30" y="150" width="10" height="10" fill="rgb(255,255,255)"/><rect x="40" y="150" width="10" height="10" fill="rgb(122,127,127)"/><rect x="50" y="150" width="10" height="10" fill="rgb(122,127,127)"/><rect x="60" y="150" width="10" height="10" fill="rgb(118,121,120)"/><rect x="70" y="150" width="10" height="10" fill="rgb(118,121,120)"/><rect x="80" y="150" width="10" height="10" fill="rgb(114,119,120)"/><rect x="90" y="150" width="10" height="10" fill="rgb(114,119,120)"/><rect x="0" y="160" width="10" height="10" fill="rgb(114,118,119)"/><rect x="10" y="160" width="10" height="10" fill="rgb(114,118,119)"/><rect x="20" y="160" width="10" height="10" fill="rgb(117,122,123)"/><rect x="30" y="160" width="10" height="10" fill="rgb(117,122,123)"/><rect x="40" y="160" width="10" height="10" fill="rgb(114,120,122)"/><rect x="50" y="160" width="10" height="10" fill="rgb(114,120,122)"/><rect x="60" y="160" width="10" height="10" fill="rgb(116,120,119)"/><rect x="70" y="160" width="10" height="10" fill="rgb(116,120,119)"/><rect x="80" y="160" width="10" height="10" fill="rgb(118,122,122)"/><rect x="90" y="160" width="10" height="10" fill="rgb(118,122,122)"/><rect x="0" y="170" width="10" height="10" fill="rgb(129,132,131)"/><rect x="10" y="170" width="10" height="10" fill="rgb(129,132,131)"/><rect x="20" y="170" width="10" height="10" fill="rgb(129,132,131)"/><rect x="30" y="170" width="10" height="10" fill="rgb(109,115,117)"/><rect x="40" y="170" width="10" height="10" fill="rgb(109,115,117)"/><rect x="50" y="170" width="10" height="10" fill="rgb(118,121,119)"/><rect x="60" y="170" width="10" height="10" fill="rgb(118,121,119)"/><rect x="70" y="170" width="10" height="10" fill="rgb(103,109,112)"/><rect x="80" y="170" width="10" height="10" fill="rgb(103,109,112)"/><rect x="90" y="170" width="10" height="10" fill="rgb(106,111,113)"/><rect x="0" y="180" width="10" height="10" fill="rgb(106,111,113)"/><rect x="10" y="180" width="10" height="10" fill="rgb(114,119,121)"/><rect x="20" y="180" width="10" height="10" fill="rgb(114,119,121)"/><rect x="30" y="180" width="10" height="10" fill="rgb(114,119,121)"/><rect x="40" y="180" width="10" height="10" fill="rgb(112,117,119)"/><rect x="50" y="180" width="10" height="10" fill="rgb(112,117,119)"/><rect x="60" y="180" width="10" height="10" fill="rgb(111,116,118)"/><rect x="70" y="180" width="10" height="10" fill="rgb(111,116,118)"/><rect x="80" y="180" width="10" height="10" fill="rgb(116,119,119)"/><rect x="90" y="180" width="10" height="10" fill="rgb(116,119,119)"/><rect x="0" y="190" width="10" height="10" fill="rgb(117,121,121)"/><rect x="10" y="190" width="10" height="10" fill="rgb(117,121,121)"/><rect x="20" y="190" width="10" height="10" fill="rgb(115,117,116)"/><rect x="30" y="190" width="10" height="10" fill="rgb(115,117,116)"/><rect x="40" y="190" width="10" height="10" fill="rgb(255,255,255)"/><rect x="50" y="190" width="10" height="10" fill="rgb(255,255,255)"/><rect x="60" y="190" width="10" height="10" fill="rgb(255,255,255)"/><rect x="70" y="190" width="10" height="10" fill="rgb(119,122,122)"/><rect x="80" y="190" width="10" height="10" fill="rgb(119,122,122)"/><rect x="90" y="190" width="10" height="10" fill="rgb(117,120,119)"/><rect x="0" y="200" width="10" height="10" fill="rgb(117,120,119)"/><rect x="10" y="200" width="10" height="10" fill="rgb(113,117,116)"/><rect x="20" y="200" width="10" height="10" fill="rgb(113,117,116)"/><rect x="30" y="200" width="10" height="10" fill="rgb(113,117,116)"/><rect x="40" y="200" width="10" height="10" fill="rgb(101,109,114)"/><rect x="50" y="200" width="10" height="10" fill="rgb(101,109,114)"/><rect x="60" y="200" width="10" height="10" fill="rgb(105,112,115)"/><rect x="70" y="200" width="10" height="10" fill="rgb(105,112,115)"/><rect x="80" y="200" width="10" height="10" fill="rgb(98,107,114)"/><rect x="90" y="200" width="10" height="10" fill="rgb(98,107,114)"/><rect x="0" y="210" width="10" height="10" fill="rgb(114,119,122)"/><rect x="10" y="210" width="10" height="10" fill="rgb(114,119,122)"/><rect x="20" y="210" width="10" height="10" fill="rgb(116,119,119)"/><rect x="30" y="210" width="10" height="10" fill="rgb(116,119,119)"/><rect x="40" y="210" width="10" height="10" fill="rgb(121,124,123)"/><rect x="50" y="210" width="10" height="10" fill="rgb(121,124,123)"/><rect x="60" y="210" width="10" height="10" fill="rgb(121,124,123)"/><rect x="70" y="210" width="10" height="10" fill="rgb(129,132,130)"/><rect x="80" y="210" width="10" height="10" fill="rgb(129,132,130)"/><rect x="90" y="210" width="10" height="10" fill="rgb(125,128,125)"/><rect x="0" y="220" width="10" height="10" fill="rgb(125,128,125)"/><rect x="10" y="220" width="10" height="10" fill="rgb(109,113,113)"/><rect x="20" y="220" width="10" height="10" fill="rgb(109,113,113)"/><rect x="30" y="220" width="10" height="10" fill="rgb(115,119,119)"/><rect x="40" y="220" width="10" height="10" fill="rgb(115,119,119)"/><rect x="50" y="220" width="10" height="10" fill="rgb(124,127,125)"/><rect x="60" y="220" width="10" height="10" fill="rgb(124,127,125)"/><rect x="70" y="220" width="10" height="10" fill="rgb(124,127,125)"/><rect x="80" y="220" width="10" height="10" fill="rgb(255,255,255)"/><rect x="90" y="220" width="10" height="10" fill="rgb(255,255,255)"/><rect x="0" y="230" width="10" height="10" fill="rgb(115,119,117)"/><rect x="10" y="230" width="10" height="10" fill="rgb(115,119,117)"/><rect x="20" y="230" width="10" height="10" fill="rgb(129,131,130)"/><rect x="30" y="230" width="10" height="10" fill="rgb(129,131,130)"/><rect x="40" y="230" width="10" height="10" fill="rgb(129,132,130)"/><rect x="50" y="230" width="10" height="10" fill="rgb(129,132,130)"/><rect x="60" y="230" width="10" height="10" fill="rgb(114,117,117)"/><rect x="70" y="230" width="10" height="10" fill="rgb(114,117,117)"/><rect x="80" y="230" width="10" height="10" fill="rgb(120,123,122)"/><rect x="90" y="230" width="10" height="10" fill="rgb(120,123,122)"/><rect x="0" y="240" width="10" height="10" fill="rgb(120,123,122)"/><rect x="10" y="240" width="10" height="10" fill="rgb(119,122,121)"/><rect x="20" y="240" width="10" height="10" fill="rgb(119,122,121)"/><rect x="30" y="240" width="10" height="10" fill="rgb(110,114,114)"/><rect x="40" y="240" width="10" height="10" fill="rgb(110,114,114)"/><rect x="50" y="240" width="10" height="10" fill="rgb(116,119,119)"/><rect x="60" y="240" width="10" height="10" fill="rgb(116,119,119)"/><rect x="70" y="240" width="10" height="10" fill="rgb(119,122,121)"/><rect x="80" y="240" width="10" height="10" fill="rgb(119,122,121)"/><rect x="90" y="240" width="10" height="10" fill="rgb(127,129,128)"/><rect x="0" y="250" width="10" height="10" fill="rgb(127,129,128)"/><rect x="10" y="250" width="10" height="10" fill="rgb(129,131,130)"/><rect x="20" y="250" width="10" height="10" fill="rgb(129,131,130)"/><rect x="30" y="250" width="10" height="10" fill="rgb(131,134,134)"/><rect x="40" y="250" width="10" height="10" fill="rgb(131,134,134)"/></svg>