<svg xmlns="http://www.w3.org/2000/svg" width="480" height="10"><rect x="0" y="0" width="10" height="10" fill="rgb(195,197,213)"/><rect x="10" y="0" width="10" height="10" fill="rgb(208,213,229)"/><rect x="20" y="0" width="10" height="10" fill="rgb(215,220,240)"/><rect x="30" y="0" width="10" height="10" fill="rgb(153,171,199)"/><rect x="40" y="0" width="10" height="10" fill="rgb(145,161,191)"/><rect x="50" y="0" width="10" height="10" fill="rgb(146,163,194)"/><rect x="60" y="0" width="10" height="10" fill="rgb(147,165,194)"/><rect x="70" y="0" width="10" height="10" fill="rgb(150,167,195)"/><rect x="80" y="0" width="10" height="10" fill="rgb(144,160,189)"/><rect x="90" y="0" width="10" height="10" fill="rgb(157,174,203)"/><rect x="100" y="0" width="10" height="10" fill="rgb(157,174,203)"/><rect x="110" y="0" width="10" height="10" fill="rgb(145,160,189)"/><rect x="120" y="0" width="10" height="10" fill="rgb(131,145,175)"/><rect x="130" y="0" width="10" height="10" fill="rgb(156,170,197)"/><rect x="140" y="0" width="10" height="10" fill="rgb(137,150,177)"/><rect x="150" y="0" width="10" height="10" fill="rgb(155,168,195)"/><rect x="160" y="0" width="10" height="10" fill="rgb(148,160,184)"/><rect x="170" y="0" width="10" height="10" fill="rgb(165,177,201)"/><rect x="180" y="0" width="10" height="10" fill="rgb(141,151,176)"/><rect x="190" y="0" width="10" height="10" fill="rgb(161,174,200)"/><rect x="200" y="0" width="10" height="10" fill="rgb(165,179,206)"/><rect x="210" y="0" width="10" height="10" fill="rgb(172,187,213)"/><rect x="220" y="0" width="10" height="10" fill="rgb(172,187,214)"/><rect x="230" y="0" width="10" height="10" fill="rgb(173,187,213)"/><rect x="240" y="0" width="10" height="10" fill="rgb(178,190,214)"/><rect x="250" y="0" width="10" height="10" fill="rgb(183,193,215)"/><rect x="260" y="0" width="10" height="10" fill="rgb(192,199,222)"/><rect x="270" y="0" width="10" height="10" fill="rgb(198,204,225)"/><rect x="280" y="0" width="10" height="10" fill="rgb(199,206,227)"/><rect x="290" y="0" width="10" height="10" fill="rgb(203,210,227)"/><rect x="300" y="0" width="10" height="10" fill="rgb(202,207,226)"/><rect x="310" y="0" width="10" height="10" fill="rgb(200,205,224)"/><rect x="320" y="0" width="10" height="10" fill="rgb(199,206,226)"/><rect x="330" y="0" width="10" height="10" fill="rgb(197,205,223)"/><rect x="340" y="0" width="10" height="10" fill="rgb(189,197,215)"/><rect x="350" y="0" width="10" height="10" fill="rgb(176,185,206)"/><rect x="360" y="0" width="10" height="10" fill="rgb(175,185,206)"/><rect x="370" y="0" width="10" height="10" fill="rgb(177,188,209)"/><rect x="380" y="0" width="10" height="10" fill="rgb(174,183,205)"/><rect x="390" y="0" width="10" height="10" fill="rgb(175,184,202)"/><rect x="400" y="0" width="10" height="10" fill="rgb(185,191,207)"/><rect x="410" y="0" width="10" height="10" fill="rgb(182,189,210)"/><rect x="420" y="0" width="10" height="10" fill="rgb(170,180,200)"/><rect x="430" y="0" width="10" height="10" fill="rgb(173,182,199)"/><rect x="440" y="0" width="10" height="10" fill="rgb(178,186,204)"/></svg>