<svg xmlns="http://www.w3.org/2000/svg" width="480" height="70"><rect x="0" y="0" width="10" height="10" fill="rgb(196,197,213)"/><rect x="10" y="0" width="10" height="10" fill="rgb(211,214,230)"/><rect x="20" y="0" width="10" height="10" fill="rgb(212,218,238)"/><rect x="30" y="0" width="10" height="10" fill="rgb(152,170,199)"/><rect x="40" y="0" width="10" height="10" fill="rgb(141,158,191)"/><rect x="50" y="0" width="10" height="10" fill="rgb(144,161,193)"/><rect x="60" y="0" width="10" height="10" fill="rgb(146,163,194)"/><rect x="70" y="0" width="10" height="10" fill="rgb(149,164,194)"/><rect x="80" y="0" width="10" height="10" fill="rgb(144,159,189)"/><rect x="90" y="0" width="10" height="10" fill="rgb(157,173,203)"/><rect x="100" y="0" width="10" height="10" fill="rgb(158,173,201)"/><rect x="110" y="0" width="10" height="10" fill="rgb(145,158,188)"/><rect x="120" y="0" width="10" height="10" fill="rgb(130,143,174)"/><rect x="130" y="0" width="10" height="10" fill="rgb(156,169,197)"/><rect x="140" y="0" width="10" height="10" fill="rgb(138,150,176)"/><rect x="150" y="0" width="10" height="10" fill="rgb(158,167,194)"/><rect x="160" y="0" width="10" height="10" fill="rgb(152,160,182)"/><rect x="170" y="0" width="10" height="10" fill="rgb(171,178,199)"/><rect x="180" y="0" width="10" height="10" fill="rgb(142,150,174)"/><rect x="190" y="0" width="10" height="10" fill="rgb(161,173,199)"/><rect x="200" y="0" width="10" height="10" fill="rgb(160,176,204)"/><rect x="210" y="0" width="10" height="10" fill="rgb(169,186,214)"/><rect x="220" y="0" width="10" height="10" fill="rgb(170,187,216)"/><rect x="230" y="0" width="10" height="10" fill="rgb(170,187,215)"/><rect x="240" y="0" width="10" height="10" fill="rgb(174,190,216)"/><rect x="250" y="0" width="10" height="10" fill="rgb(179,192,218)"/><rect x="260" y="0" width="10" height="10" fill="rgb(186,196,222)"/><rect x="270" y="0" width="10" height="10" fill="rgb(195,202,224)"/><rect x="280" y="0" width="10" height="10" fill="rgb(198,205,226)"/><rect x="290" y="0" width="10" height="10" fill="rgb(203,209,227)"/><rect x="300" y="0" width="10" height="10" fill="rgb(206,210,229)"/><rect x="310" y="0" width="10" height="10" fill="rgb(208,211,226)"/><rect x="320" y="0" width="10" height="10" fill="rgb(205,209,227)"/><rect x="330" y="0" width="10" height="10" fill="rgb(197,205,224)"/><rect x="340" y="0" width="10" height="10" fill="rgb(192,199,217)"/><rect x="350" y="0" width="10" height="10" fill="rgb(179,187,208)"/><rect x="360" y="0" width="10" height="10" fill="rgb(174,185,207)"/><rect x="370" y="0" width="10" height="10" fill="rgb(176,188,211)"/><rect x="380" y="0" width="10" height="10" fill="rgb(173,184,208)"/><rect x="390" y="0" width="10" height="10" fill="rgb(177,185,205)"/><rect x="400" y="0" width="10" height="10" fill="rgb(186,192,209)"/><rect x="410" y="0" width="10" height="10" fill="rgb(182,190,211)"/><rect x="420" y="0" width="10" height="10" fill="rgb(169,180,203)"/><rect x="430" y="0" width="10" height="10" fill="rgb(174,183,200)"/><rect x="440" y="0" width="10" height="10" fill="rgb(178,187,206)"/><rect x="450" y="0" width="10" height="10" fill="rgb(175,179,199)"/><rect x="460" y="0" width="10" height="10" fill="rgb(172,181,199)"/><rect x="470" y="0" width="10" height="10" fill="rgb(172,179,195)"/><rect x="0" y="10" width="10" height="10" fill="rgb(181,187,203)"/><rect x="10" y="10" width="10" height="10" fill="rgb(180,187,201)"/><rect x="20" y="10" width="10" height="10" fill="rgb(182,185,200)"/><rect x="30" y="10" width="10" height="10" fill="rgb(178,181,195)"/><rect x="40" y="10" width="10" height="10" fill="rgb(175,180,194)"/><rect x="50" y="10" width="10" height="10" fill="rgb(171,178,191)"/><rect x="60" y="10" width="10" height="10" fill="rgb(169,173,188)"/><rect x="70" y="10" width="10" height="10" fill="rgb(166,170,185)"/><rect x="80" y="10" width="10" height="10" fill="rgb(168,171,185)"/><rect x="90" y="10" width="10" height="10" fill="rgb(171,173,186)"/><rect x="100" y="10" width="10" height="10" fill="rgb(171,172,185)"/><rect x="110" y="10" width="10" height="10" fill="rgb(166,168,180)"/><rect x="120" y="10" width="10" height="10" fill="rgb(163,166,177)"/><rect x="130" y="10" width="10" height="10" fill="rgb(166,167,178)"/><rect x="140" y="10" width="10" height="10" fill="rgb(164,164,175)"/><rect x="150" y="10" width="10" height="10" fill="rgb(162,162,175)"/><rect x="160" y="10" width="10" height="10" fill="rgb(165,165,176)"/><rect x="170" y="10" width="10" height="10" fill="rgb(165,165,175)"/><rect x="180" y="10" width="10" height="10" fill="rgb(168,167,173)"/><rect x="190" y="10" width="10" height="10" fill="rgb(169,167,175)"/><rect x="200" y="10" width="10" height="10" fill="rgb(172,169,173)"/><rect x="210" y="10" width="10" height="10" fill="rgb(175,172,173)"/><rect x="220" y="10" width="10" height="10" fill="rgb(173,170,172)"/><rect x="230" y="10" width="10" height="10" fill="rgb(169,167,169)"/><rect x="240" y="10" width="10" height="10" fill="rgb(167,167,167)"/><rect x="250" y="10" width="10" height="10" fill="rgb(163,164,167)"/><rect x="260" y="10" width="10" height="10" fill="rgb(162,162,164)"/><rect x="270" y="10" width="10" height="10" fill="rgb(166,166,172)"/><rect x="280" y="10" width="10" height="10" fill="rgb(166,167,172)"/><rect x="290" y="10" width="10" height="10" fill="rgb(180,179,183)"/><rect x="300" y="10" width="10" height="10" fill="rgb(182,180,184)"/><rect x="310" y="10" width="10" height="10" fill="rgb(179,179,183)"/><rect x="320" y="10" width="10" height="10" fill="rgb(174,177,184)"/><rect x="330" y="10" width="10" height="10" fill="rgb(170,174,181)"/><rect x="340" y="10" width="10" height="10" fill="rgb(163,167,172)"/><rect x="350" y="10" width="10" height="10" fill="rgb(160,163,167)"/><rect x="360" y="10" width="10" height="10" fill="rgb(160,162,164)"/><rect x="370" y="10" width="10" height="10" fill="rgb(153,157,160)"/><rect x="380" y="10" width="10" height="10" fill="rgb(150,151,154)"/><rect x="390" y="10" width="10" height="10" fill="rgb(160,157,161)"/><rect x="400" y="10" width="10" height="10" fill="rgb(154,152,155)"/><rect x="410" y="10" width="10" height="10" fill="rgb(156,153,158)"/><rect x="420" y="10" width="10" height="10" fill="rgb(158,158,159)"/><rect x="430" y="10" width="10" height="10" fill="rgb(160,156,160)"/><rect x="440" y="10" width="10" height="10" fill="rgb(160,158,160)"/><rect x="450" y="10" width="10" height="10" fill="rgb(161,157,160)"/><rect x="460" y="10" width="10" height="10" fill="rgb(155,151,155)"/><rect x="470" y="10" width="10" height="10" fill="rgb(158,155,157)"/><rect x="0" y="20" width="10" height="10" fill="rgb(163,157,158)"/><rect x="10" y="20" width="10" height="10" fill="rgb(163,158,160)"/><rect x="20" y="20" width="10" height="10" fill="rgb(168,162,163)"/><rect x="30" y="20" width="10" height="10" fill="rgb(167,162,164)"/><rect x="40" y="20" width="10" height="10" fill="rgb(163,159,160)"/><rect x="50" y="20" width="10" height="10" fill="rgb(162,158,158)"/><rect x="60" y="20" width="10" height="10" fill="rgb(165,160,159)"/><rect x="70" y="20" width="10" height="10" fill="rgb(171,162,160)"/><rect x="80" y="20" width="10" height="10" fill="rgb(170,162,160)"/><rect x="90" y="20" width="10" height="10" fill="rgb(170,161,160)"/><rect x="100" y="20" width="10" height="10" fill="rgb(161,154,154)"/><rect x="110" y="20" width="10" height="10" fill="rgb(160,154,154)"/><rect x="120" y="20" width="10" height="10" fill="rgb(163,157,157)"/><rect x="130" y="20" width="10" height="10" fill="rgb(165,158,157)"/><rect x="140" y="20" width="10" height="10" fill="rgb(163,159,158)"/><rect x="150" y="20" width="10" height="10" fill="rgb(166,161,162)"/><rect x="160" y="20" width="10" height="10" fill="rgb(168,162,161)"/><rect x="170" y="20" width="10" height="10" fill="rgb(162,159,163)"/><rect x="180" y="20" width="10" height="10" fill="rgb(173,171,173)"/><rect x="190" y="20" width="10" height="10" fill="rgb(191,191,194)"/><rect x="200" y="20" width="10" height="10" fill="rgb(190,192,200)"/><rect x="210" y="20" width="10" height="10" fill="rgb(169,172,178)"/><rect x="220" y="20" width="10" height="10" fill="rgb(134,142,154)"/><rect x="230" y="20" width="10" height="10" fill="rgb(95,110,132)"/><rect x="240" y="20" width="10" height="10" fill="rgb(64,74,93)"/><rect x="250" y="20" width="10" height="10" fill="rgb(41,48,61)"/><rect x="260" y="20" width="10" height="10" fill="rgb(26,29,38)"/><rect x="270" y="20" width="10" height="10" fill="rgb(21,24,30)"/><rect x="280" y="20" width="10" height="10" fill="rgb(17,18,21)"/><rect x="290" y="20" width="10" height="10" fill="rgb(16,16,17)"/><rect x="300" y="20" width="10" height="10" fill="rgb(14,14,14)"/><rect x="310" y="20" width="10" height="10" fill="rgb(11,13,13)"/><rect x="320" y="20" width="10" height="10" fill="rgb(13,13,13)"/><rect x="330" y="20" width="10" height="10" fill="rgb(13,13,13)"/><rect x="340" y="20" width="10" height="10" fill="rgb(13,13,13)"/><rect x="350" y="20" width="10" height="10" fill="rgb(13,13,13)"/><rect x="360" y="20" width="10" height="10" fill="rgb(13,12,12)"/><rect x="370" y="20" width="10" height="10" fill="rgb(13,13,13)"/><rect x="380" y="20" width="10" height="10" fill="rgb(13,13,12)"/><rect x="390" y="20" width="10" height="10" fill="rgb(10,10,10)"/><rect x="400" y="20" width="10" height="10" fill="rgb(10,10,10)"/><rect x="410" y="20" width="10" height="10" fill="rgb(11,11,11)"/><rect x="420" y="20" width="10" height="10" fill="rgb(11,11,11)"/><rect x="430" y="20" width="10" height="10" fill="rgb(11,11,11)"/><rect x="440" y="20" width="10" height="10" fill="rgb(10,10,10)"/><rect x="450" y="20" width="10" height="10" fill="rgb(10,10,10)"/><rect x="460" y="20" width="10" height="10" fill="rgb(11,11,11)"/><rect x="470" y="20" width="10" height="10" fill="rgb(10,10,10)"/><rect x="0" y="30" width="10" height="10" fill="rgb(10,11,11)"/><rect x="10" y="30" width="10" height="10" fill="rgb(10,10,10)"/><rect x="20" y="30" width="10" height="10" fill="rgb(10,10,10)"/><rect x="30" y="30" width="10" height="10" fill="rgb(14,14,14)"/><rect x="40" y="30" width="10" height="10" fill="rgb(14,14,13)"/><rect x="50" y="30" width="10" height="10" fill="rgb(14,14,14)"/><rect x="60" y="30" width="10" height="10" fill="rgb(14,14,14)"/><rect x="70" y="30" width="10" height="10" fill="rgb(14,14,15)"/><rect x="80" y="30" width="10" height="10" fill="rgb(54,45,47)"/><rect x="90" y="30" width="10" height="10" fill="rgb(15,15,15)"/><rect x="100" y="30" width="10" height="10" fill="rgb(15,15,16)"/><rect x="110" y="30" width="10" height="10" fill="rgb(15,15,15)"/><rect x="120" y="30" width="10" height="10" fill="rgb(15,15,15)"/><rect x="130" y="30" width="10" height="10" fill="rgb(15,15,15)"/><rect x="140" y="30" width="10" height="10" fill="rgb(15,15,14)"/><rect x="150" y="30" width="10" height="10" fill="rgb(15,15,15)"/><rect x="160" y="30" width="10" height="10" fill="rgb(15,16,16)"/><rect x="170" y="30" width="10" height="10" fill="rgb(16,15,16)"/><rect x="180" y="30" width="10" height="10" fill="rgb(15,15,15)"/><rect x="190" y="30" width="10" height="10" fill="rgb(14,15,16)"/><rect x="200" y="30" width="10" height="10" fill="rgb(16,15,16)"/><rect x="210" y="30" width="10" height="10" fill="rgb(16,16,16)"/><rect x="220" y="30" width="10" height="10" fill="rgb(16,15,16)"/><rect x="230" y="30" width="10" height="10" fill="rgb(15,15,15)"/><rect x="240" y="30" width="10" height="10" fill="rgb(14,15,16)"/><rect x="250" y="30" width="10" height="10" fill="rgb(16,16,16)"/><rect x="260" y="30" width="10" height="10" fill="rgb(16,15,15)"/><rect x="270" y="30" width="10" height="10" fill="rgb(14,15,16)"/><rect x="280" y="30" width="10" height="10" fill="rgb(15,15,15)"/><rect x="290" y="30" width="10" height="10" fill="rgb(15,15,15)"/><rect x="300" y="30" width="10" height="10" fill="rgb(13,13,12)"/><rect x="310" y="30" width="10" height="10" fill="rgb(11,11,11)"/><rect x="320" y="30" width="10" height="10" fill="rgb(13,14,14)"/><rect x="330" y="30" width="10" height="10" fill="rgb(10,10,10)"/><rect x="340" y="30" width="10" height="10" fill="rgb(9,10,10)"/><rect x="350" y="30" width="10" height="10" fill="rgb(10,10,10)"/><rect x="360" y="30" width="10" height="10" fill="rgb(11,10,10)"/><rect x="370" y="30" width="10" height="10" fill="rgb(11,11,11)"/><rect x="380" y="30" width="10" height="10" fill="rgb(10,10,10)"/><rect x="390" y="30" width="10" height="10" fill="rgb(10,10,8)"/><rect x="400" y="30" width="10" height="10" fill="rgb(10,10,10)"/><rect x="410" y="30" width="10" height="10" fill="rgb(10,10,10)"/><rect x="420" y="30" width="10" height="10" fill="rgb(11,11,11)"/><rect x="430" y="30" width="10" height="10" fill="rgb(11,11,10)"/><rect x="440" y="30" width="10" height="10" fill="rgb(11,11,11)"/><rect x="450" y="30" width="10" height="10" fill="rgb(11,11,11)"/><rect x="460" y="30" width="10" height="10" fill="rgb(10,10,10)"/><rect x="470" y="30" width="10" height="10" fill="rgb(10,10,10)"/><rect x="0" y="40" width="10" height="10" fill="rgb(10,10,10)"/><rect x="10" y="40" width="10" height="10" fill="rgb(10,10,10)"/><rect x="20" y="40" width="10" height="10" fill="rgb(10,10,10)"/><rect x="30" y="40" width="10" height="10" fill="rgb(11,11,11)"/><rect x="40" y="40" width="10" height="10" fill="rgb(11,11,11)"/><rect x="50" y="40" width="10" height="10" fill="rgb(11,11,11)"/><rect x="60" y="40" width="10" height="10" fill="rgb(11,11,11)"/><rect x="70" y="40" width="10" height="10" fill="rgb(10,11,11)"/><rect x="80" y="40" width="10" height="10" fill="rgb(9,10,9)"/><rect x="90" y="40" width="10" height="10" fill="rgb(10,10,10)"/><rect x="100" y="40" width="10" height="10" fill="rgb(11,11,11)"/><rect x="110" y="40" width="10" height="10" fill="rgb(11,11,11)"/><rect x="120" y="40" width="10" height="10" fill="rgb(11,10,11)"/><rect x="130" y="40" width="10" height="10" fill="rgb(11,11,11)"/><rect x="140" y="40" width="10" height="10" fill="rgb(11,11,11)"/><rect x="150" y="40" width="10" height="10" fill="rgb(13,13,13)"/><rect x="160" y="40" width="10" height="10" fill="rgb(14,14,16)"/><rect x="170" y="40" width="10" height="10" fill="rgb(15,17,22)"/><rect x="180" y="40" width="10" height="10" fill="rgb(21,25,36)"/><rect x="190" y="40" width="10" height="10" fill="rgb(31,39,57)"/><rect x="200" y="40" width="10" height="10" fill="rgb(46,60,89)"/><rect x="210" y="40" width="10" height="10" fill="rgb(74,95,138)"/><rect x="220" y="40" width="10" height="10" fill="rgb(104,123,164)"/><rect x="230" y="40" width="10" height="10" fill="rgb(129,146,178)"/><rect x="240" y="40" width="10" height="10" fill="rgb(148,165,203)"/><rect x="250" y="40" width="10" height="10" fill="rgb(167,180,214)"/><rect x="260" y="40" width="10" height="10" fill="rgb(189,195,222)"/><rect x="270" y="40" width="10" height="10" fill="rgb(204,206,229)"/><rect x="280" y="40" width="10" height="10" fill="rgb(187,191,213)"/><rect x="290" y="40" width="10" height="10" fill="rgb(214,216,234)"/><rect x="300" y="40" width="10" height="10" fill="rgb(215,218,234)"/><rect x="310" y="40" width="10" height="10" fill="rgb(218,221,236)"/><rect x="320" y="40" width="10" height="10" fill="rgb(224,227,241)"/><rect x="330" y="40" width="10" height="10" fill="rgb(221,225,240)"/><rect x="340" y="40" width="10" height="10" fill="rgb(224,226,241)"/><rect x="350" y="40" width="10" height="10" fill="rgb(224,226,240)"/><rect x="360" y="40" width="10" height="10" fill="rgb(221,224,239)"/><rect x="370" y="40" width="10" height="10" fill="rgb(210,216,233)"/><rect x="380" y="40" width="10" height="10" fill="rgb(201,209,231)"/><rect x="390" y="40" width="10" height="10" fill="rgb(205,213,231)"/><rect x="400" y="40" width="10" height="10" fill="rgb(207,211,228)"/><rect x="410" y="40" width="10" height="10" fill="rgb(211,215,230)"/><rect x="420" y="40" width="10" height="10" fill="rgb(216,216,232)"/><rect x="430" y="40" width="10" height="10" fill="rgb(210,214,228)"/><rect x="440" y="40" width="10" height="10" fill="rgb(215,218,233)"/><rect x="450" y="40" width="10" height="10" fill="rgb(215,217,232)"/><rect x="460" y="40" width="10" height="10" fill="rgb(216,217,233)"/><rect x="470" y="40" width="10" height="10" fill="rgb(218,220,235)"/><rect x="0" y="50" width="10" height="10" fill="rgb(224,225,240)"/><rect x="10" y="50" width="10" height="10" fill="rgb(226,227,242)"/><rect x="20" y="50" width="10" height="10" fill="rgb(230,230,244)"/><rect x="30" y="50" width="10" height="10" fill="rgb(227,228,242)"/><rect x="40" y="50" width="10" height="10" fill="rgb(226,228,243)"/><rect x="50" y="50" width="10" height="10" fill="rgb(222,225,240)"/><rect x="60" y="50" width="10" height="10" fill="rgb(221,222,238)"/><rect x="70" y="50" width="10" height="10" fill="rgb(202,206,223)"/><rect x="80" y="50" width="10" height="10" fill="rgb(203,206,223)"/><rect x="90" y="50" width="10" height="10" fill="rgb(198,200,217)"/><rect x="100" y="50" width="10" height="10" fill="rgb(161,166,186)"/><rect x="110" y="50" width="10" height="10" fill="rgb(133,136,151)"/><rect x="120" y="50" width="10" height="10" fill="rgb(159,162,179)"/><rect x="130" y="50" width="10" height="10" fill="rgb(172,175,192)"/><rect x="140" y="50" width="10" height="10" fill="rgb(177,182,198)"/><rect x="150" y="50" width="10" height="10" fill="rgb(175,180,197)"/><rect x="160" y="50" width="10" height="10" fill="rgb(176,181,198)"/><rect x="170" y="50" width="10" height="10" fill="rgb(190,194,211)"/><rect x="180" y="50" width="10" height="10" fill="rgb(204,206,221)"/><rect x="190" y="50" width="10" height="10" fill="rgb(210,212,228)"/><rect x="200" y="50" width="10" height="10" fill="rgb(207,210,226)"/><rect x="210" y="50" width="10" height="10" fill="rgb(202,204,221)"/><rect x="220" y="50" width="10" height="10" fill="rgb(184,189,208)"/><rect x="230" y="50" width="10" height="10" fill="rgb(187,192,210)"/><rect x="240" y="50" width="10" height="10" fill="rgb(163,167,187)"/><rect x="250" y="50" width="10" height="10" fill="rgb(162,166,186)"/><rect x="260" y="50" width="10" height="10" fill="rgb(172,179,201)"/><rect x="270" y="50" width="10" height="10" fill="rgb(164,169,188)"/><rect x="280" y="50" width="10" height="10" fill="rgb(170,175,195)"/><rect x="290" y="50" width="10" height="10" fill="rgb(185,190,211)"/><rect x="300" y="50" width="10" height="10" fill="rgb(187,194,217)"/><rect x="310" y="50" width="10" height="10" fill="rgb(156,164,184)"/><rect x="320" y="50" width="10" height="10" fill="rgb(159,165,188)"/><rect x="330" y="50" width="10" height="10" fill="rgb(137,143,166)"/><rect x="340" y="50" width="10" height="10" fill="rgb(143,151,173)"/><rect x="350" y="50" width="10" height="10" fill="rgb(143,151,175)"/><rect x="360" y="50" width="10" height="10" fill="rgb(156,165,190)"/><rect x="370" y="50" width="10" height="10" fill="rgb(149,157,180)"/><rect x="380" y="50" width="10" height="10" fill="rgb(145,154,176)"/><rect x="390" y="50" width="10" height="10" fill="rgb(152,159,177)"/><rect x="400" y="50" width="10" height="10" fill="rgb(144,152,175)"/><rect x="410" y="50" width="10" height="10" fill="rgb(141,150,174)"/><rect x="420" y="50" width="10" height="10" fill="rgb(142,150,172)"/><rect x="430" y="50" width="10" height="10" fill="rgb(142,150,173)"/><rect x="440" y="50" width="10" height="10" fill="rgb(141,150,175)"/><rect x="450" y="50" width="10" height="10" fill="rgb(143,151,176)"/><rect x="460" y="50" width="10" height="10" fill="rgb(139,147,172)"/><rect x="470" y="50" width="10" height="10" fill="rgb(137,145,167)"/><rect x="0" y="60" width="10" height="10" fill="rgb(142,149,173)"/><rect x="10" y="60" width="10" height="10" fill="rgb(144,151,174)"/><rect x="20" y="60" width="10" height="10" fill="rgb(143,150,172)"/><rect x="30" y="60" width="10" height="10" fill="rgb(144,152,172)"/><rect x="40" y="60" width="10" height="10" fill="rgb(147,153,174)"/><rect x="50" y="60" width="10" height="10" fill="rgb(148,156,175)"/><rect x="60" y="60" width="10" height="10" fill="rgb(145,152,172)"/><rect x="70" y="60" width="10" height="10" fill="rgb(147,151,173)"/><rect x="80" y="60" width="10" height="10" fill="rgb(149,154,176)"/><rect x="90" y="60" width="10" height="10" fill="rgb(161,167,190)"/><rect x="100" y="60" width="10" height="10" fill="rgb(160,167,189)"/><rect x="110" y="60" width="10" height="10" fill="rgb(160,167,190)"/><rect x="120" y="60" width="10" height="10" fill="rgb(162,168,190)"/><rect x="130" y="60" width="10" height="10" fill="rgb(161,167,188)"/><rect x="140" y="60" width="10" height="10" fill="rgb(163,168,189)"/><rect x="150" y="60" width="10" height="10" fill="rgb(162,168,189)"/><rect x="160" y="60" width="10" height="10" fill="rgb(161,168,187)"/><rect x="170" y="60" width="10" height="10" fill="rgb(161,167,187)"/><rect x="180" y="60" width="10" height="10" fill="rgb(159,165,185)"/><rect x="190" y="60" width="10" height="10" fill="rgb(159,166,188)"/><rect x="200" y="60" width="10" height="10" fill="rgb(158,166,189)"/><rect x="210" y="60" width="10" height="10" fill="rgb(161,169,189)"/><rect x="220" y="60" width="10" height="10" fill="rgb(160,165,185)"/><rect x="230" y="60" width="10" height="10" fill="rgb(158,166,186)"/><rect x="240" y="60" width="10" height="10" fill="rgb(155,162,179)"/><rect x="250" y="60" width="10" height="10" fill="rgb(155,163,179)"/></svg>