<svg xmlns="http://www.w3.org/2000/svg" width="480" height="70"><rect x="0" y="0" width="10" height="10" fill="rgb(227,226,231)"/><rect x="10" y="0" width="10" height="10" fill="rgb(222,226,234)"/><rect x="20" y="0" width="10" height="10" fill="rgb(222,226,234)"/><rect x="30" y="0" width="10" height="10" fill="rgb(195,200,212)"/><rect x="40" y="0" width="10" height="10" fill="rgb(162,168,178)"/><rect x="50" y="0" width="10" height="10" fill="rgb(193,199,207)"/><rect x="60" y="0" width="10" height="10" fill="rgb(193,201,210)"/><rect x="70" y="0" width="10" height="10" fill="rgb(168,178,189)"/><rect x="80" y="0" width="10" height="10" fill="rgb(186,195,207)"/><rect x="90" y="0" width="10" height="10" fill="rgb(177,190,202)"/><rect x="100" y="0" width="10" height="10" fill="rgb(217,222,226)"/><rect x="110" y="0" width="10" height="10" fill="rgb(229,234,238)"/><rect x="120" y="0" width="10" height="10" fill="rgb(227,232,237)"/><rect x="130" y="0" width="10" height="10" fill="rgb(176,189,203)"/><rect x="140" y="0" width="10" height="10" fill="rgb(177,191,204)"/><rect x="150" y="0" width="10" height="10" fill="rgb(179,192,206)"/><rect x="160" y="0" width="10" height="10" fill="rgb(180,192,208)"/><rect x="170" y="0" width="10" height="10" fill="rgb(178,191,207)"/><rect x="180" y="0" width="10" height="10" fill="rgb(180,194,208)"/><rect x="190" y="0" width="10" height="10" fill="rgb(185,197,211)"/><rect x="200" y="0" width="10" height="10" fill="rgb(198,208,220)"/><rect x="210" y="0" width="10" height="10" fill="rgb(188,201,214)"/><rect x="220" y="0" width="10" height="10" fill="rgb(191,204,218)"/><rect x="230" y="0" width="10" height="10" fill="rgb(193,206,218)"/><rect x="240" y="0" width="10" height="10" fill="rgb(193,205,218)"/><rect x="250" y="0" width="10" height="10" fill="rgb(205,210,221)"/><rect x="260" y="0" width="10" height="10" fill="rgb(195,204,217)"/><rect x="270" y="0" width="10" height="10" fill="rgb(195,205,219)"/><rect x="280" y="0" width="10" height="10" fill="rgb(196,208,220)"/><rect x="290" y="0" width="10" height="10" fill="rgb(196,207,220)"/><rect x="300" y="0" width="10" height="10" fill="rgb(195,206,220)"/><rect x="310" y="0" width="10" height="10" fill="rgb(199,210,222)"/><rect x="320" y="0" width="10" height="10" fill="rgb(200,211,223)"/><rect x="330" y="0" width="10" height="10" fill="rgb(202,212,224)"/><rect x="340" y="0" width="10" height="10" fill="rgb(203,213,225)"/><rect x="350" y="0" width="10" height="10" fill="rgb(204,214,225)"/><rect x="360" y="0" width="10" height="10" fill="rgb(205,215,227)"/><rect x="370" y="0" width="10" height="10" fill="rgb(208,216,228)"/><rect x="380" y="0" width="10" height="10" fill="rgb(209,218,228)"/><rect x="390" y="0" width="10" height="10" fill="rgb(211,219,230)"/><rect x="400" y="0" width="10" height="10" fill="rgb(212,220,231)"/><rect x="410" y="0" width="10" height="10" fill="rgb(215,221,231)"/><rect x="420" y="0" width="10" height="10" fill="rgb(217,223,232)"/><rect x="430" y="0" width="10" height="10" fill="rgb(218,224,233)"/><rect x="440" y="0" width="10" height="10" fill="rgb(220,226,235)"/><rect x="450" y="0" width="10" height="10" fill="rgb(222,227,236)"/><rect x="460" y="0" width="10" height="10" fill="rgb(223,229,237)"/><rect x="470" y="0" width="10" height="10" fill="rgb(236,238,244)"/><rect x="0" y="10" width="10" height="10" fill="rgb(238,241,247)"/><rect x="10" y="10" width="10" height="10" fill="rgb(240,242,248)"/><rect x="20" y="10" width="10" height="10" fill="rgb(241,243,249)"/><rect x="30" y="10" width="10" height="10" fill="rgb(242,245,250)"/><rect x="40" y="10" width="10" height="10" fill="rgb(245,247,251)"/><rect x="50" y="10" width="10" height="10" fill="rgb(247,248,252)"/><rect x="60" y="10" width="10" height="10" fill="rgb(248,250,253)"/><rect x="70" y="10" width="10" height="10" fill="rgb(249,250,253)"/><rect x="80" y="10" width="10" height="10" fill="rgb(249,251,254)"/><rect x="90" y="10" width="10" height="10" fill="rgb(250,251,254)"/><rect x="100" y="10" width="10" height="10" fill="rgb(251,252,254)"/><rect x="110" y="10" width="10" height="10" fill="rgb(252,252,254)"/><rect x="120" y="10" width="10" height="10" fill="rgb(253,253,255)"/><rect x="130" y="10" width="10" height="10" fill="rgb(252,252,253)"/><rect x="140" y="10" width="10" height="10" fill="rgb(253,252,254)"/><rect x="150" y="10" width="10" height="10" fill="rgb(249,248,251)"/><rect x="160" y="10" width="10" height="10" fill="rgb(248,247,249)"/><rect x="170" y="10" width="10" height="10" fill="rgb(249,248,249)"/><rect x="180" y="10" width="10" height="10" fill="rgb(248,246,247)"/><rect x="190" y="10" width="10" height="10" fill="rgb(249,248,247)"/><rect x="200" y="10" width="10" height="10" fill="rgb(247,246,244)"/><rect x="210" y="10" width="10" height="10" fill="rgb(244,241,239)"/><rect x="220" y="10" width="10" height="10" fill="rgb(242,240,238)"/><rect x="230" y="10" width="10" height="10" fill="rgb(242,239,235)"/><rect x="240" y="10" width="10" height="10" fill="rgb(238,233,227)"/><rect x="250" y="10" width="10" height="10" fill="rgb(237,231,224)"/><rect x="260" y="10" width="10" height="10" fill="rgb(234,227,220)"/><rect x="270" y="10" width="10" height="10" fill="rgb(234,228,222)"/><rect x="280" y="10" width="10" height="10" fill="rgb(230,223,217)"/><rect x="290" y="10" width="10" height="10" fill="rgb(227,220,213)"/><rect x="300" y="10" width="10" height="10" fill="rgb(220,213,206)"/><rect x="310" y="10" width="10" height="10" fill="rgb(221,214,207)"/><rect x="320" y="10" width="10" height="10" fill="rgb(221,215,208)"/><rect x="330" y="10" width="10" height="10" fill="rgb(220,214,207)"/><rect x="340" y="10" width="10" height="10" fill="rgb(220,214,206)"/><rect x="350" y="10" width="10" height="10" fill="rgb(219,213,203)"/><rect x="360" y="10" width="10" height="10" fill="rgb(216,213,205)"/><rect x="370" y="10" width="10" height="10" fill="rgb(217,212,204)"/><rect x="380" y="10" width="10" height="10" fill="rgb(216,212,202)"/><rect x="390" y="10" width="10" height="10" fill="rgb(214,213,203)"/><rect x="400" y="10" width="10" height="10" fill="rgb(213,211,201)"/><rect x="410" y="10" width="10" height="10" fill="rgb(211,209,201)"/><rect x="420" y="10" width="10" height="10" fill="rgb(211,206,196)"/><rect x="430" y="10" width="10" height="10" fill="rgb(201,199,191)"/><rect x="440" y="10" width="10" height="10" fill="rgb(234,232,228)"/><rect x="450" y="10" width="10" height="10" fill="rgb(207,207,202)"/><rect x="460" y="10" width="10" height="10" fill="rgb(214,211,207)"/><rect x="470" y="10" width="10" height="10" fill="rgb(215,213,209)"/><rect x="0" y="20" width="10" height="10" fill="rgb(200,202,199)"/><rect x="10" y="20" width="10" height="10" fill="rgb(179,186,187)"/><rect x="20" y="20" width="10" height="10" fill="rgb(159,171,184)"/><rect x="30" y="20" width="10" height="10" fill="rgb(144,162,182)"/><rect x="40" y="20" width="10" height="10" fill="rgb(148,167,189)"/><rect x="50" y="20" width="10" height="10" fill="rgb(146,170,196)"/><rect x="60" y="20" width="10" height="10" fill="rgb(134,164,195)"/><rect x="70" y="20" width="10" height="10" fill="rgb(123,159,195)"/><rect x="80" y="20" width="10" height="10" fill="rgb(115,156,192)"/><rect x="90" y="20" width="10" height="10" fill="rgb(111,157,194)"/><rect x="100" y="20" width="10" height="10" fill="rgb(130,163,191)"/><rect x="110" y="20" width="10" height="10" fill="rgb(135,166,195)"/><rect x="120" y="20" width="10" height="10" fill="rgb(127,159,186)"/><rect x="130" y="20" width="10" height="10" fill="rgb(120,150,182)"/><rect x="140" y="20" width="10" height="10" fill="rgb(117,148,181)"/><rect x="150" y="20" width="10" height="10" fill="rgb(111,146,180)"/><rect x="160" y="20" width="10" height="10" fill="rgb(113,144,177)"/><rect x="170" y="20" width="10" height="10" fill="rgb(112,141,173)"/><rect x="180" y="20" width="10" height="10" fill="rgb(116,140,171)"/><rect x="190" y="20" width="10" height="10" fill="rgb(104,126,156)"/><rect x="200" y="20" width="10" height="10" fill="rgb(88,104,130)"/><rect x="210" y="20" width="10" height="10" fill="rgb(50,51,64)"/><rect x="220" y="20" width="10" height="10" fill="rgb(29,26,29)"/><rect x="230" y="20" width="10" height="10" fill="rgb(16,16,16)"/><rect x="240" y="20" width="10" height="10" fill="rgb(11,12,16)"/><rect x="250" y="20" width="10" height="10" fill="rgb(10,9,14)"/><rect x="260" y="20" width="10" height="10" fill="rgb(8,7,8)"/><rect x="270" y="20" width="10" height="10" fill="rgb(5,6,7)"/><rect x="280" y="20" width="10" height="10" fill="rgb(5,6,8)"/><rect x="290" y="20" width="10" height="10" fill="rgb(4,5,6)"/><rect x="300" y="20" width="10" height="10" fill="rgb(3,4,6)"/><rect x="310" y="20" width="10" height="10" fill="rgb(4,3,6)"/><rect x="320" y="20" width="10" height="10" fill="rgb(3,4,5)"/><rect x="330" y="20" width="10" height="10" fill="rgb(4,4,6)"/><rect x="340" y="20" width="10" height="10" fill="rgb(3,5,6)"/><rect x="350" y="20" width="10" height="10" fill="rgb(5,5,5)"/><rect x="360" y="20" width="10" height="10" fill="rgb(4,6,6)"/><rect x="370" y="20" width="10" height="10" fill="rgb(3,5,6)"/><rect x="380" y="20" width="10" height="10" fill="rgb(4,5,5)"/><rect x="390" y="20" width="10" height="10" fill="rgb(4,6,5)"/><rect x="400" y="20" width="10" height="10" fill="rgb(5,5,5)"/><rect x="410" y="20" width="10" height="10" fill="rgb(6,6,6)"/><rect x="420" y="20" width="10" height="10" fill="rgb(6,6,6)"/><rect x="430" y="20" width="10" height="10" fill="rgb(6,6,5)"/><rect x="440" y="20" width="10" height="10" fill="rgb(5,5,5)"/><rect x="450" y="20" width="10" height="10" fill="rgb(5,5,4)"/><rect x="460" y="20" width="10" height="10" fill="rgb(5,5,5)"/><rect x="470" y="20" width="10" height="10" fill="rgb(5,5,5)"/><rect x="0" y="30" width="10" height="10" fill="rgb(7,7,7)"/><rect x="10" y="30" width="10" height="10" fill="rgb(7,7,7)"/><rect x="20" y="30" width="10" height="10" fill="rgb(7,7,7)"/><rect x="30" y="30" width="10" height="10" fill="rgb(7,7,7)"/><rect x="40" y="30" width="10" height="10" fill="rgb(7,7,7)"/><rect x="50" y="30" width="10" height="10" fill="rgb(7,7,7)"/><rect x="60" y="30" width="10" height="10" fill="rgb(7,7,7)"/><rect x="70" y="30" width="10" height="10" fill="rgb(7,7,7)"/><rect x="80" y="30" width="10" height="10" fill="rgb(7,7,7)"/><rect x="90" y="30" width="10" height="10" fill="rgb(7,7,7)"/><rect x="100" y="30" width="10" height="10" fill="rgb(7,7,7)"/><rect x="110" y="30" width="10" height="10" fill="rgb(7,7,7)"/><rect x="120" y="30" width="10" height="10" fill="rgb(2,4,4)"/><rect x="130" y="30" width="10" height="10" fill="rgb(3,4,6)"/><rect x="140" y="30" width="10" height="10" fill="rgb(3,5,6)"/><rect x="150" y="30" width="10" height="10" fill="rgb(3,5,5)"/><rect x="160" y="30" width="10" height="10" fill="rgb(5,5,5)"/><rect x="170" y="30" width="10" height="10" fill="rgb(5,5,5)"/><rect x="180" y="30" width="10" height="10" fill="rgb(2,3,5)"/><rect x="190" y="30" width="10" height="10" fill="rgb(2,4,4)"/><rect x="200" y="30" width="10" height="10" fill="rgb(2,3,3)"/><rect x="210" y="30" width="10" height="10" fill="rgb(1,3,3)"/><rect x="220" y="30" width="10" height="10" fill="rgb(2,3,3)"/><rect x="230" y="30" width="10" height="10" fill="rgb(3,3,2)"/><rect x="240" y="30" width="10" height="10" fill="rgb(1,2,5)"/><rect x="250" y="30" width="10" height="10" fill="rgb(5,5,5)"/><rect x="260" y="30" width="10" height="10" fill="rgb(4,4,4)"/><rect x="270" y="30" width="10" height="10" fill="rgb(5,5,5)"/><rect x="280" y="30" width="10" height="10" fill="rgb(5,4,6)"/><rect x="290" y="30" width="10" height="10" fill="rgb(6,6,5)"/><rect x="300" y="30" width="10" height="10" fill="rgb(6,6,6)"/><rect x="310" y="30" width="10" height="10" fill="rgb(5,5,5)"/><rect x="320" y="30" width="10" height="10" fill="rgb(4,5,5)"/><rect x="330" y="30" width="10" height="10" fill="rgb(4,5,4)"/><rect x="340" y="30" width="10" height="10" fill="rgb(4,4,4)"/><rect x="350" y="30" width="10" height="10" fill="rgb(4,5,5)"/><rect x="360" y="30" width="10" height="10" fill="rgb(5,5,6)"/><rect x="370" y="30" width="10" height="10" fill="rgb(5,5,6)"/><rect x="380" y="30" width="10" height="10" fill="rgb(5,5,6)"/><rect x="390" y="30" width="10" height="10" fill="rgb(5,5,6)"/><rect x="400" y="30" width="10" height="10" fill="rgb(5,5,6)"/><rect x="410" y="30" width="10" height="10" fill="rgb(5,5,6)"/><rect x="420" y="30" width="10" height="10" fill="rgb(5,5,6)"/><rect x="430" y="30" width="10" height="10" fill="rgb(5,5,6)"/><rect x="440" y="30" width="10" height="10" fill="rgb(5,5,6)"/><rect x="450" y="30" width="10" height="10" fill="rgb(5,5,6)"/><rect x="460" y="30" width="10" height="10" fill="rgb(5,5,6)"/><rect x="470" y="30" width="10" height="10" fill="rgb(5,5,6)"/><rect x="0" y="40" width="10" height="10" fill="rgb(5,5,6)"/><rect x="10" y="40" width="10" height="10" fill="rgb(4,5,5)"/><rect x="20" y="40" width="10" height="10" fill="rgb(6,6,6)"/><rect x="30" y="40" width="10" height="10" fill="rgb(6,6,7)"/><rect x="40" y="40" width="10" height="10" fill="rgb(8,8,9)"/><rect x="50" y="40" width="10" height="10" fill="rgb(10,9,11)"/><rect x="60" y="40" width="10" height="10" fill="rgb(10,10,9)"/><rect x="70" y="40" width="10" height="10" fill="rgb(10,10,10)"/><rect x="80" y="40" width="10" height="10" fill="rgb(10,10,10)"/><rect x="90" y="40" width="10" height="10" fill="rgb(10,10,10)"/><rect x="100" y="40" width="10" height="10" fill="rgb(11,10,11)"/><rect x="110" y="40" width="10" height="10" fill="rgb(10,10,10)"/><rect x="120" y="40" width="10" height="10" fill="rgb(11,10,12)"/><rect x="130" y="40" width="10" height="10" fill="rgb(9,10,15)"/><rect x="140" y="40" width="10" height="10" fill="rgb(11,12,19)"/><rect x="150" y="40" width="10" height="10" fill="rgb(14,15,23)"/><rect x="160" y="40" width="10" height="10" fill="rgb(17,18,32)"/><rect x="170" y="40" width="10" height="10" fill="rgb(21,26,44)"/><rect x="180" y="40" width="10" height="10" fill="rgb(41,49,61)"/><rect x="190" y="40" width="10" height="10" fill="rgb(64,85,112)"/><rect x="200" y="40" width="10" height="10" fill="rgb(125,160,187)"/><rect x="210" y="40" width="10" height="10" fill="rgb(175,205,228)"/><rect x="220" y="40" width="10" height="10" fill="rgb(194,215,236)"/><rect x="230" y="40" width="10" height="10" fill="rgb(195,215,235)"/><rect x="240" y="40" width="10" height="10" fill="rgb(196,215,234)"/><rect x="250" y="40" width="10" height="10" fill="rgb(193,212,230)"/><rect x="260" y="40" width="10" height="10" fill="rgb(203,213,224)"/><rect x="270" y="40" width="10" height="10" fill="rgb(207,213,224)"/><rect x="280" y="40" width="10" height="10" fill="rgb(205,209,218)"/><rect x="290" y="40" width="10" height="10" fill="rgb(206,211,222)"/><rect x="300" y="40" width="10" height="10" fill="rgb(207,211,219)"/><rect x="310" y="40" width="10" height="10" fill="rgb(211,212,220)"/><rect x="320" y="40" width="10" height="10" fill="rgb(215,216,223)"/><rect x="330" y="40" width="10" height="10" fill="rgb(216,216,223)"/><rect x="340" y="40" width="10" height="10" fill="rgb(217,217,223)"/><rect x="350" y="40" width="10" height="10" fill="rgb(219,218,222)"/><rect x="360" y="40" width="10" height="10" fill="rgb(224,223,226)"/><rect x="370" y="40" width="10" height="10" fill="rgb(226,225,230)"/><rect x="380" y="40" width="10" height="10" fill="rgb(230,228,230)"/><rect x="390" y="40" width="10" height="10" fill="rgb(233,231,232)"/><rect x="400" y="40" width="10" height="10" fill="rgb(233,231,229)"/><rect x="410" y="40" width="10" height="10" fill="rgb(241,240,238)"/><rect x="420" y="40" width="10" height="10" fill="rgb(244,241,238)"/><rect x="430" y="40" width="10" height="10" fill="rgb(242,241,239)"/><rect x="440" y="40" width="10" height="10" fill="rgb(246,244,243)"/><rect x="450" y="40" width="10" height="10" fill="rgb(245,243,242)"/><rect x="460" y="40" width="10" height="10" fill="rgb(247,245,244)"/><rect x="470" y="40" width="10" height="10" fill="rgb(249,247,246)"/><rect x="0" y="50" width="10" height="10" fill="rgb(251,250,247)"/><rect x="10" y="50" width="10" height="10" fill="rgb(250,247,245)"/><rect x="20" y="50" width="10" height="10" fill="rgb(250,247,245)"/><rect x="30" y="50" width="10" height="10" fill="rgb(250,247,245)"/><rect x="40" y="50" width="10" height="10" fill="rgb(250,247,245)"/><rect x="50" y="50" width="10" height="10" fill="rgb(250,247,245)"/><rect x="60" y="50" width="10" height="10" fill="rgb(250,247,245)"/><rect x="70" y="50" width="10" height="10" fill="rgb(250,247,245)"/><rect x="80" y="50" width="10" height="10" fill="rgb(250,247,245)"/><rect x="90" y="50" width="10" height="10" fill="rgb(250,247,245)"/><rect x="100" y="50" width="10" height="10" fill="rgb(250,247,245)"/><rect x="110" y="50" width="10" height="10" fill="rgb(250,247,245)"/><rect x="120" y="50" width="10" height="10" fill="rgb(250,247,245)"/><rect x="130" y="50" width="10" height="10" fill="rgb(218,218,222)"/><rect x="140" y="50" width="10" height="10" fill="rgb(219,218,222)"/><rect x="150" y="50" width="10" height="10" fill="rgb(214,213,218)"/><rect x="160" y="50" width="10" height="10" fill="rgb(213,213,217)"/><rect x="170" y="50" width="10" height="10" fill="rgb(210,210,214)"/><rect x="180" y="50" width="10" height="10" fill="rgb(209,209,213)"/><rect x="190" y="50" width="10" height="10" fill="rgb(204,206,213)"/><rect x="200" y="50" width="10" height="10" fill="rgb(202,203,211)"/><rect x="210" y="50" width="10" height="10" fill="rgb(203,204,211)"/><rect x="220" y="50" width="10" height="10" fill="rgb(198,200,207)"/><rect x="230" y="50" width="10" height="10" fill="rgb(195,200,209)"/><rect x="240" y="50" width="10" height="10" fill="rgb(191,196,205)"/><rect x="250" y="50" width="10" height="10" fill="rgb(183,188,200)"/><rect x="260" y="50" width="10" height="10" fill="rgb(183,187,198)"/><rect x="270" y="50" width="10" height="10" fill="rgb(172,177,189)"/><rect x="280" y="50" width="10" height="10" fill="rgb(167,175,189)"/><rect x="290" y="50" width="10" height="10" fill="rgb(165,174,186)"/><rect x="300" y="50" width="10" height="10" fill="rgb(170,173,183)"/><rect x="310" y="50" width="10" height="10" fill="rgb(158,166,179)"/><rect x="320" y="50" width="10" height="10" fill="rgb(159,167,181)"/><rect x="330" y="50" width="10" height="10" fill="rgb(163,171,184)"/><rect x="340" y="50" width="10" height="10" fill="rgb(163,171,184)"/><rect x="350" y="50" width="10" height="10" fill="rgb(194,196,203)"/><rect x="360" y="50" width="10" height="10" fill="rgb(187,191,199)"/><rect x="370" y="50" width="10" height="10" fill="rgb(210,212,218)"/><rect x="380" y="50" width="10" height="10" fill="rgb(191,195,203)"/><rect x="390" y="50" width="10" height="10" fill="rgb(186,192,202)"/><rect x="400" y="50" width="10" height="10" fill="rgb(196,197,204)"/><rect x="410" y="50" width="10" height="10" fill="rgb(203,208,217)"/><rect x="420" y="50" width="10" height="10" fill="rgb(182,188,200)"/><rect x="430" y="50" width="10" height="10" fill="rgb(199,204,214)"/><rect x="440" y="50" width="10" height="10" fill="rgb(207,208,215)"/><rect x="450" y="50" width="10" height="10" fill="rgb(192,198,207)"/><rect x="460" y="50" width="10" height="10" fill="rgb(187,192,203)"/><rect x="470" y="50" width="10" height="10" fill="rgb(190,195,205)"/><rect x="0" y="60" width="10" height="10" fill="rgb(189,195,205)"/><rect x="10" y="60" width="10" height="10" fill="rgb(186,195,207)"/><rect x="20" y="60" width="10" height="10" fill="rgb(184,192,205)"/><rect x="30" y="60" width="10" height="10" fill="rgb(183,193,206)"/><rect x="40" y="60" width="10" height="10" fill="rgb(181,195,213)"/><rect x="50" y="60" width="10" height="10" fill="rgb(181,195,214)"/><rect x="60" y="60" width="10" height="10" fill="rgb(183,196,215)"/><rect x="70" y="60" width="10" height="10" fill="rgb(184,197,216)"/><rect x="80" y="60" width="10" height="10" fill="rgb(180,194,213)"/><rect x="90" y="60" width="10" height="10" fill="rgb(180,195,213)"/><rect x="100" y="60" width="10" height="10" fill="rgb(181,195,213)"/><rect x="110" y="60" width="10" height="10" fill="rgb(178,192,211)"/><rect x="120" y="60" width="10" height="10" fill="rgb(178,192,211)"/><rect x="130" y="60" width="10" height="10" fill="rgb(204,211,220)"/><rect x="140" y="60" width="10" height="10" fill="rgb(211,216,226)"/><rect x="150" y="60" width="10" height="10" fill="rgb(195,204,216)"/><rect x="160" y="60" width="10" height="10" fill="rgb(184,196,212)"/><rect x="170" y="60" width="10" height="10" fill="rgb(197,205,217)"/><rect x="180" y="60" width="10" height="10" fill="rgb(197,205,218)"/><rect x="190" y="60" width="10" height="10" fill="rgb(200,208,219)"/><rect x="200" y="60" width="10" height="10" fill="rgb(197,205,216)"/><rect x="210" y="60" width="10" height="10" fill="rgb(196,204,215)"/><rect x="220" y="60" width="10" height="10" fill="rgb(200,208,219)"/><rect x="230" y="60" width="10" height="10" fill="rgb(203,211,221)"/><rect x="240" y="60" width="10" height="10" fill="rgb(204,211,222)"/></svg>