<svg xmlns="http://www.w3.org/2000/svg" width="480" height="20"><rect x="0" y="0" width="10" height="10" fill="rgb(238,237,240)"/><rect x="10" y="0" width="10" height="10" fill="rgb(244,245,249)"/><rect x="20" y="0" width="10" height="10" fill="rgb(244,245,249)"/><rect x="30" y="0" width="10" height="10" fill="rgb(214,219,227)"/><rect x="40" y="0" width="10" height="10" fill="rgb(185,191,199)"/><rect x="50" y="0" width="10" height="10" fill="rgb(205,211,218)"/><rect x="60" y="0" width="10" height="10" fill="rgb(202,209,218)"/><rect x="70" y="0" width="10" height="10" fill="rgb(184,193,203)"/><rect x="80" y="0" width="10" height="10" fill="rgb(200,209,218)"/><rect x="90" y="0" width="10" height="10" fill="rgb(189,200,209)"/><rect x="100" y="0" width="10" height="10" fill="rgb(229,232,235)"/><rect x="110" y="0" width="10" height="10" fill="rgb(240,242,245)"/><rect x="120" y="0" width="10" height="10" fill="rgb(237,240,244)"/><rect x="130" y="0" width="10" height="10" fill="rgb(188,197,209)"/><rect x="140" y="0" width="10" height="10" fill="rgb(187,196,209)"/><rect x="150" y="0" width="10" height="10" fill="rgb(188,198,210)"/><rect x="160" y="0" width="10" height="10" fill="rgb(189,199,212)"/><rect x="170" y="0" width="10" height="10" fill="rgb(188,198,212)"/><rect x="180" y="0" width="10" height="10" fill="rgb(189,200,213)"/><rect x="190" y="0" width="10" height="10" fill="rgb(193,203,216)"/><rect x="200" y="0" width="10" height="10" fill="rgb(209,217,229)"/><rect x="210" y="0" width="10" height="10" fill="rgb(197,208,220)"/><rect x="220" y="0" width="10" height="10" fill="rgb(200,210,222)"/><rect x="230" y="0" width="10" height="10" fill="rgb(201,211,223)"/><rect x="240" y="0" width="10" height="10" fill="rgb(201,211,223)"/><rect x="250" y="0" width="10" height="10" fill="rgb(205,213,224)"/><rect x="260" y="0" width="10" height="10" fill="rgb(203,212,224)"/><rect x="270" y="0" width="10" height="10" fill="rgb(203,212,224)"/><rect x="280" y="0" width="10" height="10" fill="rgb(204,213,225)"/><rect x="290" y="0" width="10" height="10" fill="rgb(203,212,224)"/><rect x="300" y="0" width="10" height="10" fill="rgb(204,213,225)"/><rect x="310" y="0" width="10" height="10" fill="rgb(207,216,227)"/><rect x="320" y="0" width="10" height="10" fill="rgb(208,217,228)"/><rect x="330" y="0" width="10" height="10" fill="rgb(209,218,229)"/><rect x="340" y="0" width="10" height="10" fill="rgb(211,219,230)"/><rect x="350" y="0" width="10" height="10" fill="rgb(212,221,231)"/><rect x="360" y="0" width="10" height="10" fill="rgb(213,222,232)"/><rect x="370" y="0" width="10" height="10" fill="rgb(215,223,233)"/><rect x="380" y="0" width="10" height="10" fill="rgb(217,225,234)"/><rect x="390" y="0" width="10" height="10" fill="rgb(218,226,235)"/><rect x="400" y="0" width="10" height="10" fill="rgb(220,227,236)"/><rect x="410" y="0" width="10" height="10" fill="rgb(222,229,237)"/><rect x="420" y="0" width="10" height="10" fill="rgb(224,230,238)"/><rect x="430" y="0" width="10" height="10" fill="rgb(225,231,240)"/><rect x="440" y="0" width="10" height="10" fill="rgb(227,233,241)"/><rect x="450" y="0" width="10" height="10" fill="rgb(229,234,242)"/><rect x="460" y="0" width="10" height="10" fill="rgb(230,236,243)"/><rect x="470" y="0" width="10" height="10" fill="rgb(240,244,249)"/><rect x="0" y="10" width="10" height="10" fill="rgb(242,246,251)"/><rect x="10" y="10" width="10" height="10" fill="rgb(244,247,252)"/><rect x="20" y="10" width="10" height="10" fill="rgb(246,249,253)"/></svg>