<svg xmlns="http://www.w3.org/2000/svg" width="100" height="270"><rect x="0" y="0" width="10" height="10" fill="rgb(187,206,238)"/><rect x="10" y="0" width="10" height="10" fill="rgb(187,206,238)"/><rect x="20" y="0" width="10" height="10" fill="rgb(187,206,238)"/><rect x="30" y="0" width="10" height="10" fill="rgb(187,206,238)"/><rect x="40" y="0" width="10" height="10" fill="rgb(179,201,244)"/><rect x="50" y="0" width="10" height="10" fill="rgb(179,201,244)"/><rect x="60" y="0" width="10" height="10" fill="rgb(179,201,244)"/><rect x="70" y="0" width="10" height="10" fill="rgb(179,201,244)"/><rect x="80" y="0" width="10" height="10" fill="rgb(168,182,234)"/><rect x="90" y="0" width="10" height="10" fill="rgb(168,182,234)"/><rect x="0" y="10" width="10" height="10" fill="rgb(168,182,234)"/><rect x="10" y="10" width="10" height="10" fill="rgb(168,182,234)"/><rect x="20" y="10" width="10" height="10" fill="rgb(68,68,68)"/><rect x="30" y="10" width="10" height="10" fill="rgb(68,68,68)"/><rect x="40" y="10" width="10" height="10" fill="rgb(68,68,68)"/><rect x="50" y="10" width="10" height="10" fill="rgb(68,68,68)"/><rect x="60" y="10" width="10" height="10" fill="rgb(51,51,51)"/><rect x="70" y="10" width="10" height="10" fill="rgb(51,51,51)"/><rect x="80" y="10" width="10" height="10" fill="rgb(51,51,51)"/><rect x="90" y="10" width="10" height="10" fill="rgb(51,51,51)"/><rect x="0" y="20" width="10" height="10" fill="rgb(67,67,67)"/><rect x="10" y="20" width="10" height="10" fill="rgb(67,67,67)"/><rect x="20" y="20" width="10" height="10" fill="rgb(67,67,67)"/><rect x="30" y="20" width="10" height="10" fill="rgb(67,67,67)"/><rect x="40" y="20" width="10" height="10" fill="rgb(55,55,55)"/><rect x="50" y="20" width="10" height="10" fill="rgb(55,55,55)"/><rect x="60" y="20" width="10" height="10" fill="rgb(55,55,55)"/><rect x="70" y="20" width="10" height="10" fill="rgb(55,55,55)"/><rect x="80" y="20" width="10" height="10" fill="rgb(63,63,63)"/><rect x="90" y="20" width="10" height="10" fill="rgb(63,63,63)"/><rect x="0" y="30" width="10" height="10" fill="rgb(63,63,63)"/><rect x="10" y="30" width="10" height="10" fill="rgb(63,63,63)"/><rect x="20" y="30" width="10" height="10" fill="rgb(82,82,82)"/><rect x="30" y="30" width="10" height="10" fill="rgb(82,82,82)"/><rect x="40" y="30" width="10" height="10" fill="rgb(82,82,82)"/><rect x="50" y="30" width="10" height="10" fill="rgb(82,82,82)"/><rect x="60" y="30" width="10" height="10" fill="rgb(63,63,63)"/><rect x="70" y="30" width="10" height="10" fill="rgb(63,63,63)"/><rect x="80" y="30" width="10" height="10" fill="rgb(63,63,63)"/><rect x="90" y="30" width="10" height="10" fill="rgb(63,63,63)"/><rect x="0" y="40" width="10" height="10" fill="rgb(62,62,62)"/><rect x="10" y="40" width="10" height="10" fill="rgb(62,62,62)"/><rect x="20" y="40" width="10" height="10" fill="rgb(62,62,62)"/><rect x="30" y="40" width="10" height="10" fill="rgb(62,62,62)"/><rect x="40" y="40" width="10" height="10" fill="rgb(63,63,63)"/><rect x="50" y="40" width="10" height="10" fill="rgb(63,63,63)"/><rect x="60" y="40" width="10" height="10" fill="rgb(63,63,63)"/><rect x="70" y="40" width="10" height="10" fill="rgb(63,63,63)"/><rect x="80" y="40" width="10" height="10" fill="rgb(59,59,59)"/><rect x="90" y="40" width="10" height="10" fill="rgb(59,59,59)"/><rect x="0" y="50" width="10" height="10" fill="rgb(59,59,59)"/><rect x="10" y="50" width="10" height="10" fill="rgb(59,59,59)"/><rect x="20" y="50" width="10" height="10" fill="rgb(61,61,61)"/><rect x="30" y="50" width="10" height="10" fill="rgb(61,61,61)"/><rect x="40" y="50" width="10" height="10" fill="rgb(61,61,61)"/><rect x="50" y="50" width="10" height="10" fill="rgb(61,61,61)"/><rect x="60" y="50" width="10" height="10" fill="rgb(67,67,67)"/><rect x="70" y="50" width="10" height="10" fill="rgb(67,67,67)"/><rect x="80" y="50" width="10" height="10" fill="rgb(67,67,67)"/><rect x="90" y="50" width="10" height="10" fill="rgb(67,67,67)"/><rect x="0" y="60" width="10" height="10" fill="rgb(51,51,51)"/><rect x="10" y="60" width="10" height="10" fill="rgb(51,51,51)"/><rect x="20" y="60" width="10" height="10" fill="rgb(51,51,51)"/><rect x="30" y="60" width="10" height="10" fill="rgb(51,51,51)"/><rect x="40" y="60" width="10" height="10" fill="rgb(60,60,60)"/><rect x="50" y="60" width="10" height="10" fill="rgb(60,60,60)"/><rect x="60" y="60" width="10" height="10" fill="rgb(60,60,60)"/><rect x="70" y="60" width="10" height="10" fill="rgb(60,60,60)"/><rect x="80" y="60" width="10" height="10" fill="rgb(70,70,70)"/><rect x="90" y="60" width="10" height="10" fill="rgb(70,70,70)"/><rect x="0" y="70" width="10" height="10" fill="rgb(70,70,70)"/><rect x="10" y="70" width="10" height="10" fill="rgb(70,70,70)"/><rect x="20" y="70" width="10" height="10" fill="rgb(69,69,69)"/><rect x="30" y="70" width="10" height="10" fill="rgb(69,69,69)"/><rect x="40" y="70" width="10" height="10" fill="rgb(69,69,69)"/><rect x="50" y="70" width="10" height="10" fill="rgb(69,69,69)"/><rect x="60" y="70" width="10" height="10" fill="rgb(73,73,73)"/><rect x="70" y="70" width="10" height="10" fill="rgb(73,73,73)"/><rect x="80" y="70" width="10" height="10" fill="rgb(73,73,73)"/><rect x="90" y="70" width="10" height="10" fill="rgb(73,73,73)"/><rect x="0" y="80" width="10" height="10" fill="rgb(74,74,74)"/><rect x="10" y="80" width="10" height="10" fill="rgb(74,74,74)"/><rect x="20" y="80" width="10" height="10" fill="rgb(74,74,74)"/><rect x="30" y="80" width="10" height="10" fill="rgb(74,74,74)"/><rect x="40" y="80" width="10" height="10" fill="rgb(73,73,73)"/><rect x="50" y="80" width="10" height="10" fill="rgb(73,73,73)"/><rect x="60" y="80" width="10" height="10" fill="rgb(73,73,73)"/><rect x="70" y="80" width="10" height="10" fill="rgb(73,73,73)"/><rect x="80" y="80" width="10" height="10" fill="rgb(75,75,75)"/><rect x="90" y="80" width="10" height="10" fill="rgb(75,75,75)"/><rect x="0" y="90" width="10" height="10" fill="rgb(75,75,75)"/><rect x="10" y="90" width="10" height="10" fill="rgb(75,75,75)"/><rect x="20" y="90" width="10" height="10" fill="rgb(75,75,75)"/><rect x="30" y="90" width="10" height="10" fill="rgb(75,75,75)"/><rect x="40" y="90" width="10" height="10" fill="rgb(75,75,75)"/><rect x="50" y="90" width="10" height="10" fill="rgb(75,75,75)"/><rect x="60" y="90" width="10" height="10" fill="rgb(71,71,71)"/><rect x="70" y="90" width="10" height="10" fill="rgb(71,71,71)"/><rect x="80" y="90" width="10" height="10" fill="rgb(71,71,71)"/><rect x="90" y="90" width="10" height="10" fill="rgb(71,71,71)"/><rect x="0" y="100" width="10" height="10" fill="rgb(67,67,67)"/><rect x="10" y="100" width="10" height="10" fill="rgb(67,67,67)"/><rect x="20" y="100" width="10" height="10" fill="rgb(67,67,67)"/><rect x="30" y="100" width="10" height="10" fill="rgb(67,67,67)"/><rect x="40" y="100" width="10" height="10" fill="rgb(67,67,67)"/><rect x="50" y="100" width="10" height="10" fill="rgb(67,67,67)"/><rect x="60" y="100" width="10" height="10" fill="rgb(67,67,67)"/><rect x="70" y="100" width="10" height="10" fill="rgb(67,67,67)"/><rect x="80" y="100" width="10" height="10" fill="rgb(87,87,87)"/><rect x="90" y="100" width="10" height="10" fill="rgb(87,87,87)"/><rect x="0" y="110" width="10" height="10" fill="rgb(87,87,87)"/><rect x="10" y="110" width="10" height="10" fill="rgb(87,87,87)"/><rect x="20" y="110" width="10" height="10" fill="rgb(178,193,241)"/><rect x="30" y="110" width="10" height="10" fill="rgb(178,193,241)"/><rect x="40" y="110" width="10" height="10" fill="rgb(178,193,241)"/><rect x="50" y="110" width="10" height="10" fill="rgb(178,193,241)"/><rect x="60" y="110" width="10" height="10" fill="rgb(180,206,247)"/><rect x="70" y="110" width="10" height="10" fill="rgb(180,206,247)"/><rect x="80" y="110" width="10" height="10" fill="rgb(180,206,247)"/><rect x="90" y="110" width="10" height="10" fill="rgb(180,206,247)"/><rect x="0" y="120" width="10" height="10" fill="rgb(182,207,248)"/><rect x="10" y="120" width="10" height="10" fill="rgb(182,207,248)"/><rect x="20" y="120" width="10" height="10" fill="rgb(182,207,248)"/><rect x="30" y="120" width="10" height="10" fill="rgb(182,207,248)"/><rect x="40" y="120" width="10" height="10" fill="rgb(188,209,241)"/><rect x="50" y="120" width="10" height="10" fill="rgb(188,209,241)"/><rect x="60" y="120" width="10" height="10" fill="rgb(188,209,241)"/><rect x="70" y="120" width="10" height="10" fill="rgb(188,209,241)"/><rect x="80" y="120" width="10" height="10" fill="rgb(187,209,242)"/><rect x="90" y="120" width="10" height="10" fill="rgb(187,209,242)"/><rect x="0" y="130" width="10" height="10" fill="rgb(187,209,242)"/><rect x="10" y="130" width="10" height="10" fill="rgb(187,209,242)"/><rect x="20" y="130" width="10" height="10" fill="rgb(191,209,240)"/><rect x="30" y="130" width="10" height="10" fill="rgb(191,209,240)"/><rect x="40" y="130" width="10" height="10" fill="rgb(191,209,240)"/><rect x="50" y="130" width="10" height="10" fill="rgb(191,209,240)"/><rect x="60" y="130" width="10" height="10" fill="rgb(191,209,240)"/><rect x="70" y="130" width="10" height="10" fill="rgb(191,209,240)"/><rect x="80" y="130" width="10" height="10" fill="rgb(191,209,240)"/><rect x="90" y="130" width="10" height="10" fill="rgb(191,209,240)"/><rect x="0" y="140" width="10" height="10" fill="rgb(189,207,240)"/><rect x="10" y="140" width="10" height="10" fill="rgb(189,207,240)"/><rect x="20" y="140" width="10" height="10" fill="rgb(189,207,240)"/><rect x="30" y="140" width="10" height="10" fill="rgb(189,207,240)"/><rect x="40" y="140" width="10" height="10" fill="rgb(181,204,245)"/><rect x="50" y="140" width="10" height="10" fill="rgb(181,204,245)"/><rect x="60" y="140" width="10" height="10" fill="rgb(181,204,245)"/><rect x="70" y="140" width="10" height="10" fill="rgb(181,204,245)"/><rect x="80" y="140" width="10" height="10" fill="rgb(187,206,242)"/><rect x="90" y="140" width="10" height="10" fill="rgb(187,206,242)"/><rect x="0" y="150" width="10" height="10" fill="rgb(187,206,242)"/><rect x="10" y="150" width="10" height="10" fill="rgb(187,206,242)"/><rect x="20" y="150" width="10" height="10" fill="rgb(191,210,246)"/><rect x="30" y="150" width="10" height="10" fill="rgb(191,210,246)"/><rect x="40" y="150" width="10" height="10" fill="rgb(191,210,246)"/><rect x="50" y="150" width="10" height="10" fill="rgb(191,210,246)"/><rect x="60" y="150" width="10" height="10" fill="rgb(185,204,238)"/><rect x="70" y="150" width="10" height="10" fill="rgb(185,204,238)"/><rect x="80" y="150" width="10" height="10" fill="rgb(185,204,238)"/><rect x="90" y="150" width="10" height="10" fill="rgb(185,204,238)"/><rect x="0" y="160" width="10" height="10" fill="rgb(192,210,243)"/><rect x="10" y="160" width="10" height="10" fill="rgb(192,210,243)"/><rect x="20" y="160" width="10" height="10" fill="rgb(192,210,243)"/><rect x="30" y="160" width="10" height="10" fill="rgb(192,210,243)"/><rect x="40" y="160" width="10" height="10" fill="rgb(191,209,242)"/><rect x="50" y="160" width="10" height="10" fill="rgb(191,209,242)"/><rect x="60" y="160" width="10" height="10" fill="rgb(191,209,242)"/><rect x="70" y="160" width="10" height="10" fill="rgb(191,209,242)"/><rect x="80" y="160" width="10" height="10" fill="rgb(188,206,239)"/><rect x="90" y="160" width="10" height="10" fill="rgb(188,206,239)"/><rect x="0" y="170" width="10" height="10" fill="rgb(188,206,239)"/><rect x="10" y="170" width="10" height="10" fill="rgb(188,206,239)"/><rect x="20" y="170" width="10" height="10" fill="rgb(188,204,237)"/><rect x="30" y="170" width="10" height="10" fill="rgb(188,204,237)"/><rect x="40" y="170" width="10" height="10" fill="rgb(188,204,237)"/><rect x="50" y="170" width="10" height="10" fill="rgb(188,204,237)"/><rect x="60" y="170" width="10" height="10" fill="rgb(189,206,238)"/><rect x="70" y="170" width="10" height="10" fill="rgb(189,206,238)"/><rect x="80" y="170" width="10" height="10" fill="rgb(189,206,238)"/><rect x="90" y="170" width="10" height="10" fill="rgb(189,206,238)"/><rect x="0" y="180" width="10" height="10" fill="rgb(190,206,239)"/><rect x="10" y="180" width="10" height="10" fill="rgb(190,206,239)"/><rect x="20" y="180" width="10" height="10" fill="rgb(190,206,239)"/><rect x="30" y="180" width="10" height="10" fill="rgb(190,206,239)"/><rect x="40" y="180" width="10" height="10" fill="rgb(190,206,238)"/><rect x="50" y="180" width="10" height="10" fill="rgb(190,206,238)"/><rect x="60" y="180" width="10" height="10" fill="rgb(190,206,238)"/><rect x="70" y="180" width="10" height="10" fill="rgb(190,206,238)"/><rect x="80" y="180" width="10" height="10" fill="rgb(197,213,243)"/><rect x="90" y="180" width="10" height="10" fill="rgb(197,213,243)"/><rect x="0" y="190" width="10" height="10" fill="rgb(197,213,243)"/><rect x="10" y="190" width="10" height="10" fill="rgb(197,213,243)"/><rect x="20" y="190" width="10" height="10" fill="rgb(191,207,239)"/><rect x="30" y="190" width="10" height="10" fill="rgb(191,207,239)"/><rect x="40" y="190" width="10" height="10" fill="rgb(191,207,239)"/><rect x="50" y="190" width="10" height="10" fill="rgb(191,207,239)"/><rect x="60" y="190" width="10" height="10" fill="rgb(189,206,242)"/><rect x="70" y="190" width="10" height="10" fill="rgb(189,206,242)"/><rect x="80" y="190" width="10" height="10" fill="rgb(189,206,242)"/><rect x="90" y="190" width="10" height="10" fill="rgb(189,206,242)"/><rect x="0" y="200" width="10" height="10" fill="rgb(184,205,244)"/><rect x="10" y="200" width="10" height="10" fill="rgb(184,205,244)"/><rect x="20" y="200" width="10" height="10" fill="rgb(184,205,244)"/><rect x="30" y="200" width="10" height="10" fill="rgb(184,205,244)"/><rect x="40" y="200" width="10" height="10" fill="rgb(177,206,249)"/><rect x="50" y="200" width="10" height="10" fill="rgb(177,206,249)"/><rect x="60" y="200" width="10" height="10" fill="rgb(177,206,249)"/><rect x="70" y="200" width="10" height="10" fill="rgb(177,206,249)"/><rect x="80" y="200" width="10" height="10" fill="rgb(182,208,249)"/><rect x="90" y="200" width="10" height="10" fill="rgb(182,208,249)"/><rect x="0" y="210" width="10" height="10" fill="rgb(182,208,249)"/><rect x="10" y="210" width="10" height="10" fill="rgb(182,208,249)"/><rect x="20" y="210" width="10" height="10" fill="rgb(182,208,249)"/><rect x="30" y="210" width="10" height="10" fill="rgb(184,207,245)"/><rect x="40" y="210" width="10" height="10" fill="rgb(184,207,245)"/><rect x="50" y="210" width="10" height="10" fill="rgb(184,207,245)"/><rect x="60" y="210" width="10" height="10" fill="rgb(194,209,240)"/><rect x="70" y="210" width="10" height="10" fill="rgb(194,209,240)"/><rect x="80" y="210" width="10" height="10" fill="rgb(194,209,240)"/><rect x="90" y="210" width="10" height="10" fill="rgb(194,209,240)"/><rect x="0" y="220" width="10" height="10" fill="rgb(192,209,240)"/><rect x="10" y="220" width="10" height="10" fill="rgb(192,209,240)"/><rect x="20" y="220" width="10" height="10" fill="rgb(192,209,240)"/><rect x="30" y="220" width="10" height="10" fill="rgb(192,209,240)"/><rect x="40" y="220" width="10" height="10" fill="rgb(180,207,248)"/><rect x="50" y="220" width="10" height="10" fill="rgb(180,207,248)"/><rect x="60" y="220" width="10" height="10" fill="rgb(180,207,248)"/><rect x="70" y="220" width="10" height="10" fill="rgb(180,207,248)"/><rect x="80" y="220" width="10" height="10" fill="rgb(197,212,241)"/><rect x="90" y="220" width="10" height="10" fill="rgb(197,212,241)"/><rect x="0" y="230" width="10" height="10" fill="rgb(197,212,241)"/><rect x="10" y="230" width="10" height="10" fill="rgb(197,212,241)"/><rect x="20" y="230" width="10" height="10" fill="rgb(191,206,233)"/><rect x="30" y="230" width="10" height="10" fill="rgb(191,206,233)"/><rect x="40" y="230" width="10" height="10" fill="rgb(191,206,233)"/><rect x="50" y="230" width="10" height="10" fill="rgb(191,206,233)"/><rect x="60" y="230" width="10" height="10" fill="rgb(185,202,235)"/><rect x="70" y="230" width="10" height="10" fill="rgb(185,202,235)"/><rect x="80" y="230" width="10" height="10" fill="rgb(185,202,235)"/><rect x="90" y="230" width="10" height="10" fill="rgb(185,202,235)"/><rect x="0" y="240" width="10" height="10" fill="rgb(199,209,234)"/><rect x="10" y="240" width="10" height="10" fill="rgb(199,209,234)"/><rect x="20" y="240" width="10" height="10" fill="rgb(199,209,234)"/><rect x="30" y="240" width="10" height="10" fill="rgb(199,209,234)"/><rect x="40" y="240" width="10" height="10" fill="rgb(205,214,238)"/><rect x="50" y="240" width="10" height="10" fill="rgb(205,214,238)"/><rect x="60" y="240" width="10" height="10" fill="rgb(205,214,238)"/><rect x="70" y="240" width="10" height="10" fill="rgb(205,214,238)"/><rect x="80" y="240" width="10" height="10" fill="rgb(209,220,244)"/><rect x="90" y="240" width="10" height="10" fill="rgb(209,220,244)"/><rect x="0" y="250" width="10" height="10" fill="rgb(209,220,244)"/><rect x="10" y="250" width="10" height="10" fill="rgb(209,220,244)"/><rect x="20" y="250" width="10" height="10" fill="rgb(199,213,243)"/><rect x="30" y="250" width="10" height="10" fill="rgb(199,213,243)"/><rect x="40" y="250" width="10" height="10" fill="rgb(199,213,243)"/><rect x="50" y="250" width="10" height="10" fill="rgb(199,213,243)"/><rect x="60" y="250" width="10" height="10" fill="rgb(178,201,242)"/><rect x="70" y="250" width="10" height="10" fill="rgb(178,201,242)"/><rect x="80" y="250" width="10" height="10" fill="rgb(186,204,238)"/><rect x="90" y="250" width="10" height="10" fill="rgb(186,204,238)"/><rect x="0" y="260" width="10" height="10" fill="rgb(186,204,238)"/><rect x="10" y="260" width="10" height="10" fill="rgb(186,204,238)"/><rect x="20" y="260" width="10" height="10" fill="rgb(185,205,239)"/><rect x="30" y="260" width="10" height="10" fill="rgb(185,205,239)"/><rect x="40" y="260" width="10" height="10" fill="rgb(185,205,239)"/><rect x="50" y="260" width="10" height="10" fill="rgb(185,205,239)"/><rect x="60" y="260" width="10" height="10" fill="rgb(178,201,242)"/></svg>