<svg xmlns="http://www.w3.org/2000/svg" width="100" height="260"><rect x="0" y="0" width="10" height="10" fill="rgb(153,170,171)"/><rect x="10" y="0" width="10" height="10" fill="rgb(153,170,171)"/><rect x="20" y="0" width="10" height="10" fill="rgb(156,168,164)"/><rect x="30" y="0" width="10" height="10" fill="rgb(156,168,164)"/><rect x="40" y="0" width="10" height="10" fill="rgb(146,161,159)"/><rect x="50" y="0" width="10" height="10" fill="rgb(146,161,159)"/><rect x="60" y="0" width="10" height="10" fill="rgb(160,172,165)"/><rect x="70" y="0" width="10" height="10" fill="rgb(160,172,165)"/><rect x="80" y="0" width="10" height="10" fill="rgb(149,163,161)"/><rect x="90" y="0" width="10" height="10" fill="rgb(149,163,161)"/><rect x="0" y="10" width="10" height="10" fill="rgb(103,117,117)"/><rect x="10" y="10" width="10" height="10" fill="rgb(103,117,117)"/><rect x="20" y="10" width="10" height="10" fill="rgb(18,19,19)"/><rect x="30" y="10" width="10" height="10" fill="rgb(18,19,19)"/><rect x="40" y="10" width="10" height="10" fill="rgb(14,14,14)"/><rect x="50" y="10" width="10" height="10" fill="rgb(14,14,14)"/><rect x="60" y="10" width="10" height="10" fill="rgb(13,13,13)"/><rect x="70" y="10" width="10" height="10" fill="rgb(13,13,13)"/><rect x="80" y="10" width="10" height="10" fill="rgb(12,12,12)"/><rect x="90" y="10" width="10" height="10" fill="rgb(12,12,12)"/><rect x="0" y="20" width="10" height="10" fill="rgb(12,12,12)"/><rect x="10" y="20" width="10" height="10" fill="rgb(12,12,12)"/><rect x="20" y="20" width="10" height="10" fill="rgb(12,12,12)"/><rect x="30" y="20" width="10" height="10" fill="rgb(12,12,12)"/><rect x="40" y="20" width="10" height="10" fill="rgb(12,12,12)"/><rect x="50" y="20" width="10" height="10" fill="rgb(12,12,12)"/><rect x="60" y="20" width="10" height="10" fill="rgb(12,12,12)"/><rect x="70" y="20" width="10" height="10" fill="rgb(12,12,12)"/><rect x="80" y="20" width="10" height="10" fill="rgb(12,12,12)"/><rect x="90" y="20" width="10" height="10" fill="rgb(12,12,12)"/><rect x="0" y="30" width="10" height="10" fill="rgb(12,12,12)"/><rect x="10" y="30" width="10" height="10" fill="rgb(12,12,12)"/><rect x="20" y="30" width="10" height="10" fill="rgb(12,12,12)"/><rect x="30" y="30" width="10" height="10" fill="rgb(12,12,12)"/><rect x="40" y="30" width="10" height="10" fill="rgb(12,12,12)"/><rect x="50" y="30" width="10" height="10" fill="rgb(12,12,12)"/><rect x="60" y="30" width="10" height="10" fill="rgb(12,12,12)"/><rect x="70" y="30" width="10" height="10" fill="rgb(12,12,12)"/><rect x="80" y="30" width="10" height="10" fill="rgb(12,12,12)"/><rect x="90" y="30" width="10" height="10" fill="rgb(12,12,12)"/><rect x="0" y="40" width="10" height="10" fill="rgb(11,11,11)"/><rect x="10" y="40" width="10" height="10" fill="rgb(11,11,11)"/><rect x="20" y="40" width="10" height="10" fill="rgb(11,11,11)"/><rect x="30" y="40" width="10" height="10" fill="rgb(11,11,11)"/><rect x="40" y="40" width="10" height="10" fill="rgb(11,11,11)"/><rect x="50" y="40" width="10" height="10" fill="rgb(11,11,11)"/><rect x="60" y="40" width="10" height="10" fill="rgb(11,11,11)"/><rect x="70" y="40" width="10" height="10" fill="rgb(11,11,11)"/><rect x="80" y="40" width="10" height="10" fill="rgb(11,11,11)"/><rect x="90" y="40" width="10" height="10" fill="rgb(11,11,11)"/><rect x="0" y="50" width="10" height="10" fill="rgb(11,11,11)"/><rect x="10" y="50" width="10" height="10" fill="rgb(11,11,11)"/><rect x="20" y="50" width="10" height="10" fill="rgb(11,11,11)"/><rect x="30" y="50" width="10" height="10" fill="rgb(11,11,11)"/><rect x="40" y="50" width="10" height="10" fill="rgb(11,11,11)"/><rect x="50" y="50" width="10" height="10" fill="rgb(11,11,11)"/><rect x="60" y="50" width="10" height="10" fill="rgb(11,11,11)"/><rect x="70" y="50" width="10" height="10" fill="rgb(11,11,11)"/><rect x="80" y="50" width="10" height="10" fill="rgb(11,11,11)"/><rect x="90" y="50" width="10" height="10" fill="rgb(10,10,10)"/><rect x="0" y="60" width="10" height="10" fill="rgb(10,10,10)"/><rect x="10" y="60" width="10" height="10" fill="rgb(10,10,10)"/><rect x="20" y="60" width="10" height="10" fill="rgb(10,10,10)"/><rect x="30" y="60" width="10" height="10" fill="rgb(10,10,10)"/><rect x="40" y="60" width="10" height="10" fill="rgb(10,10,10)"/><rect x="50" y="60" width="10" height="10" fill="rgb(10,10,10)"/><rect x="60" y="60" width="10" height="10" fill="rgb(10,10,10)"/><rect x="70" y="60" width="10" height="10" fill="rgb(10,10,10)"/><rect x="80" y="60" width="10" height="10" fill="rgb(10,10,10)"/><rect x="90" y="60" width="10" height="10" fill="rgb(10,10,10)"/><rect x="0" y="70" width="10" height="10" fill="rgb(10,10,10)"/><rect x="10" y="70" width="10" height="10" fill="rgb(10,10,10)"/><rect x="20" y="70" width="10" height="10" fill="rgb(10,10,10)"/><rect x="30" y="70" width="10" height="10" fill="rgb(10,10,10)"/><rect x="40" y="70" width="10" height="10" fill="rgb(9,9,9)"/><rect x="50" y="70" width="10" height="10" fill="rgb(9,9,9)"/><rect x="60" y="70" width="10" height="10" fill="rgb(9,9,9)"/><rect x="70" y="70" width="10" height="10" fill="rgb(9,9,9)"/><rect x="80" y="70" width="10" height="10" fill="rgb(9,9,9)"/><rect x="90" y="70" width="10" height="10" fill="rgb(9,9,9)"/><rect x="0" y="80" width="10" height="10" fill="rgb(9,9,9)"/><rect x="10" y="80" width="10" height="10" fill="rgb(9,9,9)"/><rect x="20" y="80" width="10" height="10" fill="rgb(9,9,9)"/><rect x="30" y="80" width="10" height="10" fill="rgb(9,9,9)"/><rect x="40" y="80" width="10" height="10" fill="rgb(9,9,9)"/><rect x="50" y="80" width="10" height="10" fill="rgb(9,9,9)"/><rect x="60" y="80" width="10" height="10" fill="rgb(9,9,9)"/><rect x="70" y="80" width="10" height="10" fill="rgb(9,9,9)"/><rect x="80" y="80" width="10" height="10" fill="rgb(9,9,9)"/><rect x="90" y="80" width="10" height="10" fill="rgb(9,9,9)"/><rect x="0" y="90" width="10" height="10" fill="rgb(9,9,9)"/><rect x="10" y="90" width="10" height="10" fill="rgb(9,9,9)"/><rect x="20" y="90" width="10" height="10" fill="rgb(9,9,9)"/><rect x="30" y="90" width="10" height="10" fill="rgb(9,9,9)"/><rect x="40" y="90" width="10" height="10" fill="rgb(9,9,9)"/><rect x="50" y="90" width="10" height="10" fill="rgb(9,9,9)"/><rect x="60" y="90" width="10" height="10" fill="rgb(8,8,8)"/><rect x="70" y="90" width="10" height="10" fill="rgb(8,8,8)"/><rect x="80" y="90" width="10" height="10" fill="rgb(8,8,8)"/><rect x="90" y="90" width="10" height="10" fill="rgb(8,8,8)"/><rect x="0" y="100" width="10" height="10" fill="rgb(8,8,8)"/><rect x="10" y="100" width="10" height="10" fill="rgb(8,8,8)"/><rect x="20" y="100" width="10" height="10" fill="rgb(8,8,8)"/><rect x="30" y="100" width="10" height="10" fill="rgb(8,8,8)"/><rect x="40" y="100" width="10" height="10" fill="rgb(8,8,8)"/><rect x="50" y="100" width="10" height="10" fill="rgb(8,8,8)"/><rect x="60" y="100" width="10" height="10" fill="rgb(8,8,8)"/><rect x="70" y="100" width="10" height="10" fill="rgb(8,8,8)"/><rect x="80" y="100" width="10" height="10" fill="rgb(8,8,8)"/><rect x="90" y="100" width="10" height="10" fill="rgb(8,8,8)"/><rect x="0" y="110" width="10" height="10" fill="rgb(8,8,8)"/><rect x="10" y="110" width="10" height="10" fill="rgb(8,8,8)"/><rect x="20" y="110" width="10" height="10" fill="rgb(8,8,8)"/><rect x="30" y="110" width="10" height="10" fill="rgb(8,8,8)"/><rect x="40" y="110" width="10" height="10" fill="rgb(8,8,8)"/><rect x="50" y="110" width="10" height="10" fill="rgb(8,8,8)"/><rect x="60" y="110" width="10" height="10" fill="rgb(8,8,8)"/><rect x="70" y="110" width="10" height="10" fill="rgb(9,9,9)"/><rect x="80" y="110" width="10" height="10" fill="rgb(9,9,9)"/><rect x="90" y="110" width="10" height="10" fill="rgb(9,9,9)"/><rect x="0" y="120" width="10" height="10" fill="rgb(17,19,19)"/><rect x="10" y="120" width="10" height="10" fill="rgb(17,19,19)"/><rect x="20" y="120" width="10" height="10" fill="rgb(73,86,87)"/><rect x="30" y="120" width="10" height="10" fill="rgb(73,86,87)"/><rect x="40" y="120" width="10" height="10" fill="rgb(123,139,140)"/><rect x="50" y="120" width="10" height="10" fill="rgb(123,139,140)"/><rect x="60" y="120" width="10" height="10" fill="rgb(159,172,172)"/><rect x="70" y="120" width="10" height="10" fill="rgb(159,172,172)"/><rect x="80" y="120" width="10" height="10" fill="rgb(172,192,201)"/><rect x="90" y="120" width="10" height="10" fill="rgb(172,192,201)"/><rect x="0" y="130" width="10" height="10" fill="rgb(172,185,187)"/><rect x="10" y="130" width="10" height="10" fill="rgb(172,185,187)"/><rect x="20" y="130" width="10" height="10" fill="rgb(172,185,187)"/><rect x="30" y="130" width="10" height="10" fill="rgb(162,175,177)"/><rect x="40" y="130" width="10" height="10" fill="rgb(162,175,177)"/><rect x="50" y="130" width="10" height="10" fill="rgb(165,176,176)"/><rect x="60" y="130" width="10" height="10" fill="rgb(165,176,176)"/><rect x="70" y="130" width="10" height="10" fill="rgb(170,182,185)"/><rect x="80" y="130" width="10" height="10" fill="rgb(170,182,185)"/><rect x="90" y="130" width="10" height="10" fill="rgb(165,176,176)"/><rect x="0" y="140" width="10" height="10" fill="rgb(165,176,176)"/><rect x="10" y="140" width="10" height="10" fill="rgb(164,174,174)"/><rect x="20" y="140" width="10" height="10" fill="rgb(164,174,174)"/><rect x="30" y="140" width="10" height="10" fill="rgb(169,181,184)"/><rect x="40" y="140" width="10" height="10" fill="rgb(169,181,184)"/><rect x="50" y="140" width="10" height="10" fill="rgb(163,174,174)"/><rect x="60" y="140" width="10" height="10" fill="rgb(163,174,174)"/><rect x="70" y="140" width="10" height="10" fill="rgb(167,177,175)"/><rect x="80" y="140" width="10" height="10" fill="rgb(167,177,175)"/><rect x="90" y="140" width="10" height="10" fill="rgb(175,187,189)"/><rect x="0" y="150" width="10" height="10" fill="rgb(175,187,189)"/><rect x="10" y="150" width="10" height="10" fill="rgb(165,177,177)"/><rect x="20" y="150" width="10" height="10" fill="rgb(165,177,177)"/><rect x="30" y="150" width="10" height="10" fill="rgb(167,176,174)"/><rect x="40" y="150" width="10" height="10" fill="rgb(167,176,174)"/><rect x="50" y="150" width="10" height="10" fill="rgb(174,182,180)"/><rect x="60" y="150" width="10" height="10" fill="rgb(174,182,180)"/><rect x="70" y="150" width="10" height="10" fill="rgb(174,182,180)"/><rect x="80" y="150" width="10" height="10" fill="rgb(177,188,189)"/><rect x="90" y="150" width="10" height="10" fill="rgb(177,188,189)"/><rect x="0" y="160" width="10" height="10" fill="rgb(170,180,180)"/><rect x="10" y="160" width="10" height="10" fill="rgb(170,180,180)"/><rect x="20" y="160" width="10" height="10" fill="rgb(162,171,169)"/><rect x="30" y="160" width="10" height="10" fill="rgb(162,171,169)"/><rect x="40" y="160" width="10" height="10" fill="rgb(169,178,178)"/><rect x="50" y="160" width="10" height="10" fill="rgb(169,178,178)"/><rect x="60" y="160" width="10" height="10" fill="rgb(175,185,184)"/><rect x="70" y="160" width="10" height="10" fill="rgb(175,185,184)"/><rect x="80" y="160" width="10" height="10" fill="rgb(175,185,184)"/><rect x="90" y="160" width="10" height="10" fill="rgb(166,174,173)"/><rect x="0" y="170" width="10" height="10" fill="rgb(166,174,173)"/><rect x="10" y="170" width="10" height="10" fill="rgb(170,180,180)"/><rect x="20" y="170" width="10" height="10" fill="rgb(170,180,180)"/><rect x="30" y="170" width="10" height="10" fill="rgb(177,188,189)"/><rect x="40" y="170" width="10" height="10" fill="rgb(177,188,189)"/><rect x="50" y="170" width="10" height="10" fill="rgb(177,187,187)"/><rect x="60" y="170" width="10" height="10" fill="rgb(177,187,187)"/><rect x="70" y="170" width="10" height="10" fill="rgb(179,191,192)"/><rect x="80" y="170" width="10" height="10" fill="rgb(179,191,192)"/><rect x="90" y="170" width="10" height="10" fill="rgb(179,191,192)"/><rect x="0" y="180" width="10" height="10" fill="rgb(174,183,183)"/><rect x="10" y="180" width="10" height="10" fill="rgb(174,183,183)"/><rect x="20" y="180" width="10" height="10" fill="rgb(184,195,198)"/><rect x="30" y="180" width="10" height="10" fill="rgb(184,195,198)"/><rect x="40" y="180" width="10" height="10" fill="rgb(171,181,180)"/><rect x="50" y="180" width="10" height="10" fill="rgb(171,181,180)"/><rect x="60" y="180" width="10" height="10" fill="rgb(182,193,193)"/><rect x="70" y="180" width="10" height="10" fill="rgb(182,193,193)"/><rect x="80" y="180" width="10" height="10" fill="rgb(181,193,193)"/><rect x="90" y="180" width="10" height="10" fill="rgb(181,193,193)"/><rect x="0" y="190" width="10" height="10" fill="rgb(181,193,193)"/><rect x="10" y="190" width="10" height="10" fill="rgb(182,194,195)"/><rect x="20" y="190" width="10" height="10" fill="rgb(182,194,195)"/><rect x="30" y="190" width="10" height="10" fill="rgb(181,193,193)"/><rect x="40" y="190" width="10" height="10" fill="rgb(181,193,193)"/><rect x="50" y="190" width="10" height="10" fill="rgb(171,180,178)"/><rect x="60" y="190" width="10" height="10" fill="rgb(171,180,178)"/><rect x="70" y="190" width="10" height="10" fill="rgb(173,183,183)"/><rect x="80" y="190" width="10" height="10" fill="rgb(173,183,183)"/><rect x="90" y="190" width="10" height="10" fill="rgb(176,186,186)"/><rect x="0" y="200" width="10" height="10" fill="rgb(176,186,186)"/><rect x="10" y="200" width="10" height="10" fill="rgb(178,189,189)"/><rect x="20" y="200" width="10" height="10" fill="rgb(178,189,189)"/><rect x="30" y="200" width="10" height="10" fill="rgb(167,175,173)"/><rect x="40" y="200" width="10" height="10" fill="rgb(167,175,173)"/><rect x="50" y="200" width="10" height="10" fill="rgb(181,192,194)"/><rect x="60" y="200" width="10" height="10" fill="rgb(181,192,194)"/><rect x="70" y="200" width="10" height="10" fill="rgb(173,183,183)"/><rect x="80" y="200" width="10" height="10" fill="rgb(173,183,183)"/><rect x="90" y="200" width="10" height="10" fill="rgb(171,181,179)"/><rect x="0" y="210" width="10" height="10" fill="rgb(171,181,179)"/><rect x="10" y="210" width="10" height="10" fill="rgb(177,188,187)"/><rect x="20" y="210" width="10" height="10" fill="rgb(177,188,187)"/><rect x="30" y="210" width="10" height="10" fill="rgb(189,200,201)"/><rect x="40" y="210" width="10" height="10" fill="rgb(189,200,201)"/><rect x="50" y="210" width="10" height="10" fill="rgb(189,200,201)"/><rect x="60" y="210" width="10" height="10" fill="rgb(183,197,198)"/><rect x="70" y="210" width="10" height="10" fill="rgb(183,197,198)"/><rect x="80" y="210" width="10" height="10" fill="rgb(175,186,185)"/><rect x="90" y="210" width="10" height="10" fill="rgb(175,186,185)"/><rect x="0" y="220" width="10" height="10" fill="rgb(159,170,169)"/><rect x="10" y="220" width="10" height="10" fill="rgb(159,170,169)"/><rect x="20" y="220" width="10" height="10" fill="rgb(169,181,183)"/><rect x="30" y="220" width="10" height="10" fill="rgb(169,181,183)"/><rect x="40" y="220" width="10" height="10" fill="rgb(162,174,174)"/><rect x="50" y="220" width="10" height="10" fill="rgb(162,174,174)"/><rect x="60" y="220" width="10" height="10" fill="rgb(162,174,174)"/><rect x="70" y="220" width="10" height="10" fill="rgb(173,184,183)"/><rect x="80" y="220" width="10" height="10" fill="rgb(173,184,183)"/><rect x="90" y="220" width="10" height="10" fill="rgb(185,198,200)"/><rect x="0" y="230" width="10" height="10" fill="rgb(185,198,200)"/><rect x="10" y="230" width="10" height="10" fill="rgb(164,175,173)"/><rect x="20" y="230" width="10" height="10" fill="rgb(164,175,173)"/><rect x="30" y="230" width="10" height="10" fill="rgb(170,181,180)"/><rect x="40" y="230" width="10" height="10" fill="rgb(170,181,180)"/><rect x="50" y="230" width="10" height="10" fill="rgb(170,181,180)"/><rect x="60" y="230" width="10" height="10" fill="rgb(179,189,189)"/><rect x="70" y="230" width="10" height="10" fill="rgb(179,189,189)"/><rect x="80" y="230" width="10" height="10" fill="rgb(173,183,182)"/><rect x="90" y="230" width="10" height="10" fill="rgb(173,183,182)"/><rect x="0" y="240" width="10" height="10" fill="rgb(169,177,175)"/><rect x="10" y="240" width="10" height="10" fill="rgb(169,177,175)"/><rect x="20" y="240" width="10" height="10" fill="rgb(184,194,194)"/><rect x="30" y="240" width="10" height="10" fill="rgb(184,194,194)"/><rect x="40" y="240" width="10" height="10" fill="rgb(184,196,198)"/><rect x="50" y="240" width="10" height="10" fill="rgb(184,196,198)"/><rect x="60" y="240" width="10" height="10" fill="rgb(184,196,198)"/><rect x="70" y="240" width="10" height="10" fill="rgb(167,176,174)"/><rect x="80" y="240" width="10" height="10" fill="rgb(167,176,174)"/><rect x="90" y="240" width="10" height="10" fill="rgb(154,164,165)"/><rect x="0" y="250" width="10" height="10" fill="rgb(154,164,165)"/><rect x="10" y="250" width="10" height="10" fill="rgb(155,168,171)"/><rect x="20" y="250" width="10" height="10" fill="rgb(155,168,171)"/><rect x="30" y="250" width="10" height="10" fill="rgb(152,163,164)"/><rect x="40" y="250" width="10" height="10" fill="rgb(152,163,164)"/><rect x="50" y="250" width="10" height="10" fill="rgb(152,163,164)"/><rect x="60" y="250" width="10" height="10" fill="rgb(148,164,167)"/></svg>