<svg xmlns="http://www.w3.org/2000/svg" width="100" height="650"><rect x="0" y="0" width="10" height="10" fill="rgb(78,86,92)"/><rect x="10" y="0" width="10" height="10" fill="rgb(78,86,92)"/><rect x="20" y="0" width="10" height="10" fill="rgb(87,92,94)"/><rect x="30" y="0" width="10" height="10" fill="rgb(87,92,94)"/><rect x="40" y="0" width="10" height="10" fill="rgb(100,101,98)"/><rect x="50" y="0" width="10" height="10" fill="rgb(100,101,98)"/><rect x="60" y="0" width="10" height="10" fill="rgb(100,101,98)"/><rect x="70" y="0" width="10" height="10" fill="rgb(96,98,95)"/><rect x="80" y="0" width="10" height="10" fill="rgb(96,98,95)"/><rect x="90" y="0" width="10" height="10" fill="rgb(96,98,97)"/><rect x="0" y="10" width="10" height="10" fill="rgb(96,98,97)"/><rect x="10" y="10" width="10" height="10" fill="rgb(96,98,97)"/><rect x="20" y="10" width="10" height="10" fill="rgb(96,98,97)"/><rect x="30" y="10" width="10" height="10" fill="rgb(252,252,252)"/><rect x="40" y="10" width="10" height="10" fill="rgb(252,252,252)"/><rect x="50" y="10" width="10" height="10" fill="rgb(252,252,252)"/><rect x="60" y="10" width="10" height="10" fill="rgb(252,252,252)"/><rect x="70" y="10" width="10" height="10" fill="rgb(252,252,252)"/><rect x="80" y="10" width="10" height="10" fill="rgb(98,99,96)"/><rect x="90" y="10" width="10" height="10" fill="rgb(98,99,96)"/><rect x="0" y="20" width="10" height="10" fill="rgb(95,99,98)"/><rect x="10" y="20" width="10" height="10" fill="rgb(95,99,98)"/><rect x="20" y="20" width="10" height="10" fill="rgb(99,101,98)"/><rect x="30" y="20" width="10" height="10" fill="rgb(99,101,98)"/><rect x="40" y="20" width="10" height="10" fill="rgb(101,102,99)"/><rect x="50" y="20" width="10" height="10" fill="rgb(101,102,99)"/><rect x="60" y="20" width="10" height="10" fill="rgb(105,108,108)"/><rect x="70" y="20" width="10" height="10" fill="rgb(105,108,108)"/><rect x="80" y="20" width="10" height="10" fill="rgb(89,91,94)"/><rect x="90" y="20" width="10" height="10" fill="rgb(89,91,94)"/><rect x="0" y="30" width="10" height="10" fill="rgb(68,71,75)"/><rect x="10" y="30" width="10" height="10" fill="rgb(68,71,75)"/><rect x="20" y="30" width="10" height="10" fill="rgb(68,71,75)"/><rect x="30" y="30" width="10" height="10" fill="rgb(107,108,115)"/><rect x="40" y="30" width="10" height="10" fill="rgb(107,108,115)"/><rect x="50" y="30" width="10" height="10" fill="rgb(77,80,89)"/><rect x="60" y="30" width="10" height="10" fill="rgb(77,80,89)"/><rect x="70" y="30" width="10" height="10" fill="rgb(89,93,108)"/><rect x="80" y="30" width="10" height="10" fill="rgb(89,93,108)"/><rect x="90" y="30" width="10" height="10" fill="rgb(93,96,120)"/><rect x="0" y="40" width="10" height="10" fill="rgb(93,96,120)"/><rect x="10" y="40" width="10" height="10" fill="rgb(97,100,131)"/><rect x="20" y="40" width="10" height="10" fill="rgb(97,100,131)"/><rect x="30" y="40" width="10" height="10" fill="rgb(95,98,134)"/><rect x="40" y="40" width="10" height="10" fill="rgb(95,98,134)"/><rect x="50" y="40" width="10" height="10" fill="rgb(99,101,128)"/><rect x="60" y="40" width="10" height="10" fill="rgb(99,101,128)"/><rect x="70" y="40" width="10" height="10" fill="rgb(252,252,252)"/><rect x="80" y="40" width="10" height="10" fill="rgb(252,252,252)"/><rect x="90" y="40" width="10" height="10" fill="rgb(33,35,46)"/><rect x="0" y="50" width="10" height="10" fill="rgb(33,35,46)"/><rect x="10" y="50" width="10" height="10" fill="rgb(10,12,22)"/><rect x="20" y="50" width="10" height="10" fill="rgb(10,12,22)"/><rect x="30" y="50" width="10" height="10" fill="rgb(10,12,22)"/><rect x="40" y="50" width="10" height="10" fill="rgb(2,2,3)"/><rect x="50" y="50" width="10" height="10" fill="rgb(2,2,3)"/><rect x="60" y="50" width="10" height="10" fill="rgb(252,252,252)"/><rect x="70" y="50" width="10" height="10" fill="rgb(252,252,252)"/><rect x="80" y="50" width="10" height="10" fill="rgb(1,1,1)"/><rect x="90" y="50" width="10" height="10" fill="rgb(1,1,1)"/><rect x="0" y="60" width="10" height="10" fill="rgb(1,1,1)"/><rect x="10" y="60" width="10" height="10" fill="rgb(1,1,1)"/><rect x="20" y="60" width="10" height="10" fill="rgb(1,1,1)"/><rect x="30" y="60" width="10" height="10" fill="rgb(1,1,1)"/><rect x="40" y="60" width="10" height="10" fill="rgb(1,1,1)"/><rect x="50" y="60" width="10" height="10" fill="rgb(1,1,1)"/><rect x="60" y="60" width="10" height="10" fill="rgb(1,1,1)"/><rect x="70" y="60" width="10" height="10" fill="rgb(1,1,1)"/><rect x="80" y="60" width="10" height="10" fill="rgb(1,1,1)"/><rect x="90" y="60" width="10" height="10" fill="rgb(1,1,1)"/><rect x="0" y="70" width="10" height="10" fill="rgb(1,1,1)"/><rect x="10" y="70" width="10" height="10" fill="rgb(1,1,1)"/><rect x="20" y="70" width="10" height="10" fill="rgb(1,1,1)"/><rect x="30" y="70" width="10" height="10" fill="rgb(1,1,1)"/><rect x="40" y="70" width="10" height="10" fill="rgb(1,1,1)"/><rect x="50" y="70" width="10" height="10" fill="rgb(1,1,1)"/><rect x="60" y="70" width="10" height="10" fill="rgb(1,1,1)"/><rect x="70" y="70" width="10" height="10" fill="rgb(1,1,1)"/><rect x="80" y="70" width="10" height="10" fill="rgb(1,1,1)"/><rect x="90" y="70" width="10" height="10" fill="rgb(1,1,1)"/><rect x="0" y="80" width="10" height="10" fill="rgb(1,1,1)"/><rect x="10" y="80" width="10" height="10" fill="rgb(1,1,1)"/><rect x="20" y="80" width="10" height="10" fill="rgb(1,1,1)"/><rect x="30" y="80" width="10" height="10" fill="rgb(1,1,1)"/><rect x="40" y="80" width="10" height="10" fill="rgb(1,1,1)"/><rect x="50" y="80" width="10" height="10" fill="rgb(1,1,1)"/><rect x="60" y="80" width="10" height="10" fill="rgb(1,1,1)"/><rect x="70" y="80" width="10" height="10" fill="rgb(1,1,1)"/><rect x="80" y="80" width="10" height="10" fill="rgb(1,1,1)"/><rect x="90" y="80" width="10" height="10" fill="rgb(1,1,1)"/><rect x="0" y="90" width="10" height="10" fill="rgb(1,1,1)"/><rect x="10" y="90" width="10" height="10" fill="rgb(1,1,1)"/><rect x="20" y="90" width="10" height="10" fill="rgb(1,1,1)"/><rect x="30" y="90" width="10" height="10" fill="rgb(1,1,1)"/><rect x="40" y="90" width="10" height="10" fill="rgb(1,1,1)"/><rect x="50" y="90" width="10" height="10" fill="rgb(1,1,1)"/><rect x="60" y="90" width="10" height="10" fill="rgb(1,1,1)"/><rect x="70" y="90" width="10" height="10" fill="rgb(1,1,1)"/><rect x="80" y="90" width="10" height="10" fill="rgb(1,1,1)"/><rect x="90" y="90" width="10" height="10" fill="rgb(1,1,1)"/><rect x="0" y="100" width="10" height="10" fill="rgb(1,1,1)"/><rect x="10" y="100" width="10" height="10" fill="rgb(1,1,1)"/><rect x="20" y="100" width="10" height="10" fill="rgb(1,1,1)"/><rect x="30" y="100" width="10" height="10" fill="rgb(1,1,1)"/><rect x="40" y="100" width="10" height="10" fill="rgb(1,1,1)"/><rect x="50" y="100" width="10" height="10" fill="rgb(1,1,1)"/><rect x="60" y="100" width="10" height="10" fill="rgb(2,2,2)"/><rect x="70" y="100" width="10" height="10" fill="rgb(2,2,2)"/><rect x="80" y="100" width="10" height="10" fill="rgb(3,3,3)"/><rect x="90" y="100" width="10" height="10" fill="rgb(3,3,3)"/><rect x="0" y="110" width="10" height="10" fill="rgb(7,6,8)"/><rect x="10" y="110" width="10" height="10" fill="rgb(7,6,8)"/><rect x="20" y="110" width="10" height="10" fill="rgb(16,17,25)"/><rect x="30" y="110" width="10" height="10" fill="rgb(16,17,25)"/><rect x="40" y="110" width="10" height="10" fill="rgb(76,77,90)"/><rect x="50" y="110" width="10" height="10" fill="rgb(76,77,90)"/><rect x="60" y="110" width="10" height="10" fill="rgb(102,103,119)"/><rect x="70" y="110" width="10" height="10" fill="rgb(102,103,119)"/><rect x="80" y="110" width="10" height="10" fill="rgb(103,103,119)"/><rect x="90" y="110" width="10" height="10" fill="rgb(103,103,119)"/><rect x="0" y="120" width="10" height="10" fill="rgb(109,109,122)"/><rect x="10" y="120" width="10" height="10" fill="rgb(109,109,122)"/><rect x="20" y="120" width="10" height="10" fill="rgb(103,104,127)"/><rect x="30" y="120" width="10" height="10" fill="rgb(103,104,127)"/><rect x="40" y="120" width="10" height="10" fill="rgb(108,109,125)"/><rect x="50" y="120" width="10" height="10" fill="rgb(108,109,125)"/><rect x="60" y="120" width="10" height="10" fill="rgb(108,109,125)"/><rect x="70" y="120" width="10" height="10" fill="rgb(119,118,127)"/><rect x="80" y="120" width="10" height="10" fill="rgb(119,118,127)"/><rect x="90" y="120" width="10" height="10" fill="rgb(125,124,127)"/><rect x="0" y="130" width="10" height="10" fill="rgb(125,124,127)"/><rect x="10" y="130" width="10" height="10" fill="rgb(131,130,126)"/><rect x="20" y="130" width="10" height="10" fill="rgb(131,130,126)"/><rect x="30" y="130" width="10" height="10" fill="rgb(171,169,162)"/><rect x="40" y="130" width="10" height="10" fill="rgb(171,169,162)"/><rect x="50" y="130" width="10" height="10" fill="rgb(124,125,120)"/><rect x="60" y="130" width="10" height="10" fill="rgb(124,125,120)"/><rect x="70" y="130" width="10" height="10" fill="rgb(168,168,161)"/><rect x="80" y="130" width="10" height="10" fill="rgb(168,168,161)"/><rect x="90" y="130" width="10" height="10" fill="rgb(168,168,161)"/><rect x="0" y="140" width="10" height="10" fill="rgb(78,88,93)"/><rect x="10" y="140" width="10" height="10" fill="rgb(78,88,93)"/><rect x="20" y="140" width="10" height="10" fill="rgb(79,88,94)"/><rect x="30" y="140" width="10" height="10" fill="rgb(79,88,94)"/><rect x="40" y="140" width="10" height="10" fill="rgb(81,89,95)"/><rect x="50" y="140" width="10" height="10" fill="rgb(81,89,95)"/><rect x="60" y="140" width="10" height="10" fill="rgb(82,91,96)"/><rect x="70" y="140" width="10" height="10" fill="rgb(82,91,96)"/><rect x="80" y="140" width="10" height="10" fill="rgb(82,90,95)"/><rect x="90" y="140" width="10" height="10" fill="rgb(82,90,95)"/><rect x="0" y="150" width="10" height="10" fill="rgb(82,90,95)"/><rect x="10" y="150" width="10" height="10" fill="rgb(252,252,252)"/><rect x="20" y="150" width="10" height="10" fill="rgb(252,252,252)"/><rect x="30" y="150" width="10" height="10" fill="rgb(89,97,101)"/><rect x="40" y="150" width="10" height="10" fill="rgb(89,97,101)"/><rect x="50" y="150" width="10" height="10" fill="rgb(88,95,100)"/><rect x="60" y="150" width="10" height="10" fill="rgb(88,95,100)"/><rect x="70" y="150" width="10" height="10" fill="rgb(94,101,105)"/><rect x="80" y="150" width="10" height="10" fill="rgb(94,101,105)"/><rect x="90" y="150" width="10" height="10" fill="rgb(91,98,102)"/><rect x="0" y="160" width="10" height="10" fill="rgb(91,98,102)"/><rect x="10" y="160" width="10" height="10" fill="rgb(91,98,102)"/><rect x="20" y="160" width="10" height="10" fill="rgb(91,98,102)"/><rect x="30" y="160" width="10" height="10" fill="rgb(91,98,102)"/><rect x="40" y="160" width="10" height="10" fill="rgb(93,99,103)"/><rect x="50" y="160" width="10" height="10" fill="rgb(93,99,103)"/><rect x="60" y="160" width="10" height="10" fill="rgb(93,100,104)"/><rect x="70" y="160" width="10" height="10" fill="rgb(93,100,104)"/><rect x="80" y="160" width="10" height="10" fill="rgb(96,103,106)"/><rect x="90" y="160" width="10" height="10" fill="rgb(96,103,106)"/><rect x="0" y="170" width="10" height="10" fill="rgb(95,102,106)"/><rect x="10" y="170" width="10" height="10" fill="rgb(95,102,106)"/><rect x="20" y="170" width="10" height="10" fill="rgb(94,102,105)"/><rect x="30" y="170" width="10" height="10" fill="rgb(94,102,105)"/><rect x="40" y="170" width="10" height="10" fill="rgb(93,100,104)"/><rect x="50" y="170" width="10" height="10" fill="rgb(93,100,104)"/><rect x="60" y="170" width="10" height="10" fill="rgb(252,252,252)"/><rect x="70" y="170" width="10" height="10" fill="rgb(252,252,252)"/><rect x="80" y="170" width="10" height="10" fill="rgb(88,94,96)"/><rect x="90" y="170" width="10" height="10" fill="rgb(88,94,96)"/><rect x="0" y="180" width="10" height="10" fill="rgb(91,95,97)"/><rect x="10" y="180" width="10" height="10" fill="rgb(91,95,97)"/><rect x="20" y="180" width="10" height="10" fill="rgb(81,88,92)"/><rect x="30" y="180" width="10" height="10" fill="rgb(81,88,92)"/><rect x="40" y="180" width="10" height="10" fill="rgb(81,88,92)"/><rect x="50" y="180" width="10" height="10" fill="rgb(76,85,92)"/><rect x="60" y="180" width="10" height="10" fill="rgb(76,85,92)"/><rect x="70" y="180" width="10" height="10" fill="rgb(74,83,90)"/><rect x="80" y="180" width="10" height="10" fill="rgb(74,83,90)"/><rect x="90" y="180" width="10" height="10" fill="rgb(73,83,90)"/><rect x="0" y="190" width="10" height="10" fill="rgb(73,83,90)"/><rect x="10" y="190" width="10" height="10" fill="rgb(72,82,88)"/><rect x="20" y="190" width="10" height="10" fill="rgb(72,82,88)"/><rect x="30" y="190" width="10" height="10" fill="rgb(68,78,86)"/><rect x="40" y="190" width="10" height="10" fill="rgb(68,78,86)"/><rect x="50" y="190" width="10" height="10" fill="rgb(73,83,91)"/><rect x="60" y="190" width="10" height="10" fill="rgb(73,83,91)"/><rect x="70" y="190" width="10" height="10" fill="rgb(73,83,91)"/><rect x="80" y="190" width="10" height="10" fill="rgb(96,100,101)"/><rect x="90" y="190" width="10" height="10" fill="rgb(96,100,101)"/><rect x="0" y="200" width="10" height="10" fill="rgb(110,112,110)"/><rect x="10" y="200" width="10" height="10" fill="rgb(110,112,110)"/><rect x="20" y="200" width="10" height="10" fill="rgb(110,112,109)"/><rect x="30" y="200" width="10" height="10" fill="rgb(110,112,109)"/><rect x="40" y="200" width="10" height="10" fill="rgb(110,112,110)"/><rect x="50" y="200" width="10" height="10" fill="rgb(110,112,110)"/><rect x="60" y="200" width="10" height="10" fill="rgb(110,112,109)"/><rect x="70" y="200" width="10" height="10" fill="rgb(110,112,109)"/><rect x="80" y="200" width="10" height="10" fill="rgb(110,112,109)"/><rect x="90" y="200" width="10" height="10" fill="rgb(108,109,107)"/><rect x="0" y="210" width="10" height="10" fill="rgb(108,109,107)"/><rect x="10" y="210" width="10" height="10" fill="rgb(252,252,252)"/><rect x="20" y="210" width="10" height="10" fill="rgb(252,252,252)"/><rect x="30" y="210" width="10" height="10" fill="rgb(107,109,107)"/><rect x="40" y="210" width="10" height="10" fill="rgb(107,109,107)"/><rect x="50" y="210" width="10" height="10" fill="rgb(107,109,106)"/><rect x="60" y="210" width="10" height="10" fill="rgb(107,109,106)"/><rect x="70" y="210" width="10" height="10" fill="rgb(107,109,106)"/><rect x="80" y="210" width="10" height="10" fill="rgb(98,100,99)"/><rect x="90" y="210" width="10" height="10" fill="rgb(98,100,99)"/><rect x="0" y="220" width="10" height="10" fill="rgb(99,101,99)"/><rect x="10" y="220" width="10" height="10" fill="rgb(99,101,99)"/><rect x="20" y="220" width="10" height="10" fill="rgb(107,108,105)"/><rect x="30" y="220" width="10" height="10" fill="rgb(107,108,105)"/><rect x="40" y="220" width="10" height="10" fill="rgb(109,111,109)"/><rect x="50" y="220" width="10" height="10" fill="rgb(109,111,109)"/><rect x="60" y="220" width="10" height="10" fill="rgb(105,106,104)"/><rect x="70" y="220" width="10" height="10" fill="rgb(105,106,104)"/><rect x="80" y="220" width="10" height="10" fill="rgb(105,106,104)"/><rect x="90" y="220" width="10" height="10" fill="rgb(101,103,101)"/><rect x="0" y="230" width="10" height="10" fill="rgb(101,103,101)"/><rect x="10" y="230" width="10" height="10" fill="rgb(105,106,104)"/><rect x="20" y="230" width="10" height="10" fill="rgb(105,106,104)"/><rect x="30" y="230" width="10" height="10" fill="rgb(97,99,98)"/><rect x="40" y="230" width="10" height="10" fill="rgb(97,99,98)"/><rect x="50" y="230" width="10" height="10" fill="rgb(101,102,100)"/><rect x="60" y="230" width="10" height="10" fill="rgb(101,102,100)"/><rect x="70" y="230" width="10" height="10" fill="rgb(252,252,252)"/><rect x="80" y="230" width="10" height="10" fill="rgb(252,252,252)"/><rect x="90" y="230" width="10" height="10" fill="rgb(91,93,93)"/><rect x="0" y="240" width="10" height="10" fill="rgb(91,93,93)"/><rect x="10" y="240" width="10" height="10" fill="rgb(97,98,96)"/><rect x="20" y="240" width="10" height="10" fill="rgb(97,98,96)"/><rect x="30" y="240" width="10" height="10" fill="rgb(97,98,96)"/><rect x="40" y="240" width="10" height="10" fill="rgb(85,87,87)"/><rect x="50" y="240" width="10" height="10" fill="rgb(85,87,87)"/><rect x="60" y="240" width="10" height="10" fill="rgb(93,94,93)"/><rect x="70" y="240" width="10" height="10" fill="rgb(93,94,93)"/><rect x="80" y="240" width="10" height="10" fill="rgb(83,85,84)"/><rect x="90" y="240" width="10" height="10" fill="rgb(83,85,84)"/><rect x="0" y="250" width="10" height="10" fill="rgb(84,86,85)"/><rect x="10" y="250" width="10" height="10" fill="rgb(84,86,85)"/><rect x="20" y="250" width="10" height="10" fill="rgb(73,79,82)"/><rect x="30" y="250" width="10" height="10" fill="rgb(73,79,82)"/><rect x="40" y="250" width="10" height="10" fill="rgb(91,93,93)"/><rect x="50" y="250" width="10" height="10" fill="rgb(91,93,93)"/><rect x="60" y="250" width="10" height="10" fill="rgb(64,78,89)"/><rect x="70" y="250" width="10" height="10" fill="rgb(64,78,89)"/><rect x="80" y="250" width="10" height="10" fill="rgb(67,81,92)"/><rect x="90" y="250" width="10" height="10" fill="rgb(67,81,92)"/><rect x="0" y="260" width="10" height="10" fill="rgb(95,97,95)"/><rect x="10" y="260" width="10" height="10" fill="rgb(95,97,95)"/><rect x="20" y="260" width="10" height="10" fill="rgb(92,94,93)"/><rect x="30" y="260" width="10" height="10" fill="rgb(92,94,93)"/><rect x="40" y="260" width="10" height="10" fill="rgb(94,98,99)"/><rect x="50" y="260" width="10" height="10" fill="rgb(94,98,99)"/><rect x="60" y="260" width="10" height="10" fill="rgb(94,98,99)"/><rect x="70" y="260" width="10" height="10" fill="rgb(77,86,92)"/><rect x="80" y="260" width="10" height="10" fill="rgb(77,86,92)"/><rect x="90" y="260" width="10" height="10" fill="rgb(83,88,91)"/><rect x="0" y="270" width="10" height="10" fill="rgb(83,88,91)"/><rect x="10" y="270" width="10" height="10" fill="rgb(85,89,91)"/><rect x="20" y="270" width="10" height="10" fill="rgb(85,89,91)"/><rect x="30" y="270" width="10" height="10" fill="rgb(252,252,252)"/><rect x="40" y="270" width="10" height="10" fill="rgb(252,252,252)"/><rect x="50" y="270" width="10" height="10" fill="rgb(76,83,88)"/><rect x="60" y="270" width="10" height="10" fill="rgb(76,83,88)"/><rect x="70" y="270" width="10" height="10" fill="rgb(76,83,88)"/><rect x="80" y="270" width="10" height="10" fill="rgb(70,80,88)"/><rect x="90" y="270" width="10" height="10" fill="rgb(70,80,88)"/><rect x="0" y="280" width="10" height="10" fill="rgb(85,91,94)"/><rect x="10" y="280" width="10" height="10" fill="rgb(85,91,94)"/><rect x="20" y="280" width="10" height="10" fill="rgb(63,76,86)"/><rect x="30" y="280" width="10" height="10" fill="rgb(63,76,86)"/><rect x="40" y="280" width="10" height="10" fill="rgb(61,75,87)"/><rect x="50" y="280" width="10" height="10" fill="rgb(61,75,87)"/><rect x="60" y="280" width="10" height="10" fill="rgb(64,78,89)"/><rect x="70" y="280" width="10" height="10" fill="rgb(64,78,89)"/><rect x="80" y="280" width="10" height="10" fill="rgb(64,78,89)"/><rect x="90" y="280" width="10" height="10" fill="rgb(62,75,87)"/><rect x="0" y="290" width="10" height="10" fill="rgb(62,75,87)"/><rect x="10" y="290" width="10" height="10" fill="rgb(62,76,88)"/><rect x="20" y="290" width="10" height="10" fill="rgb(62,76,88)"/><rect x="30" y="290" width="10" height="10" fill="rgb(63,76,88)"/><rect x="40" y="290" width="10" height="10" fill="rgb(63,76,88)"/><rect x="50" y="290" width="10" height="10" fill="rgb(63,77,89)"/><rect x="60" y="290" width="10" height="10" fill="rgb(63,77,89)"/><rect x="70" y="290" width="10" height="10" fill="rgb(63,77,88)"/><rect x="80" y="290" width="10" height="10" fill="rgb(63,77,88)"/><rect x="90" y="290" width="10" height="10" fill="rgb(63,77,88)"/><rect x="0" y="300" width="10" height="10" fill="rgb(63,77,88)"/><rect x="10" y="300" width="10" height="10" fill="rgb(63,77,88)"/><rect x="20" y="300" width="10" height="10" fill="rgb(64,78,89)"/><rect x="30" y="300" width="10" height="10" fill="rgb(64,78,89)"/><rect x="40" y="300" width="10" height="10" fill="rgb(65,79,89)"/><rect x="50" y="300" width="10" height="10" fill="rgb(65,79,89)"/><rect x="60" y="300" width="10" height="10" fill="rgb(67,81,92)"/><rect x="70" y="300" width="10" height="10" fill="rgb(67,81,92)"/><rect x="80" y="300" width="10" height="10" fill="rgb(67,80,90)"/><rect x="90" y="300" width="10" height="10" fill="rgb(67,80,90)"/><rect x="0" y="310" width="10" height="10" fill="rgb(67,80,90)"/><rect x="10" y="310" width="10" height="10" fill="rgb(68,81,91)"/><rect x="20" y="310" width="10" height="10" fill="rgb(68,81,91)"/><rect x="30" y="310" width="10" height="10" fill="rgb(70,83,93)"/><rect x="40" y="310" width="10" height="10" fill="rgb(70,83,93)"/><rect x="50" y="310" width="10" height="10" fill="rgb(72,85,95)"/><rect x="60" y="310" width="10" height="10" fill="rgb(72,85,95)"/><rect x="70" y="310" width="10" height="10" fill="rgb(252,252,252)"/><rect x="80" y="310" width="10" height="10" fill="rgb(252,252,252)"/><rect x="90" y="310" width="10" height="10" fill="rgb(252,252,252)"/><rect x="0" y="320" width="10" height="10" fill="rgb(252,252,252)"/><rect x="10" y="320" width="10" height="10" fill="rgb(80,92,98)"/><rect x="20" y="320" width="10" height="10" fill="rgb(80,92,98)"/><rect x="30" y="320" width="10" height="10" fill="rgb(80,92,98)"/><rect x="40" y="320" width="10" height="10" fill="rgb(79,89,94)"/><rect x="50" y="320" width="10" height="10" fill="rgb(79,89,94)"/><rect x="60" y="320" width="10" height="10" fill="rgb(90,98,107)"/><rect x="70" y="320" width="10" height="10" fill="rgb(90,98,107)"/><rect x="80" y="320" width="10" height="10" fill="rgb(84,90,103)"/><rect x="90" y="320" width="10" height="10" fill="rgb(84,90,103)"/><rect x="0" y="330" width="10" height="10" fill="rgb(93,99,122)"/><rect x="10" y="330" width="10" height="10" fill="rgb(93,99,122)"/><rect x="20" y="330" width="10" height="10" fill="rgb(252,252,252)"/><rect x="30" y="330" width="10" height="10" fill="rgb(252,252,252)"/><rect x="40" y="330" width="10" height="10" fill="rgb(92,98,135)"/><rect x="50" y="330" width="10" height="10" fill="rgb(92,98,135)"/><rect x="60" y="330" width="10" height="10" fill="rgb(94,99,132)"/><rect x="70" y="330" width="10" height="10" fill="rgb(94,99,132)"/><rect x="80" y="330" width="10" height="10" fill="rgb(87,91,108)"/><rect x="90" y="330" width="10" height="10" fill="rgb(87,91,108)"/><rect x="0" y="340" width="10" height="10" fill="rgb(41,44,57)"/><rect x="10" y="340" width="10" height="10" fill="rgb(41,44,57)"/><rect x="20" y="340" width="10" height="10" fill="rgb(41,44,57)"/><rect x="30" y="340" width="10" height="10" fill="rgb(14,17,29)"/><rect x="40" y="340" width="10" height="10" fill="rgb(14,17,29)"/><rect x="50" y="340" width="10" height="10" fill="rgb(4,5,9)"/><rect x="60" y="340" width="10" height="10" fill="rgb(4,5,9)"/><rect x="70" y="340" width="10" height="10" fill="rgb(2,2,2)"/><rect x="80" y="340" width="10" height="10" fill="rgb(2,2,2)"/><rect x="90" y="340" width="10" height="10" fill="rgb(1,1,1)"/><rect x="0" y="350" width="10" height="10" fill="rgb(1,1,1)"/><rect x="10" y="350" width="10" height="10" fill="rgb(252,252,252)"/><rect x="20" y="350" width="10" height="10" fill="rgb(252,252,252)"/><rect x="30" y="350" width="10" height="10" fill="rgb(1,1,1)"/><rect x="40" y="350" width="10" height="10" fill="rgb(1,1,1)"/><rect x="50" y="350" width="10" height="10" fill="rgb(1,1,1)"/><rect x="60" y="350" width="10" height="10" fill="rgb(1,1,1)"/><rect x="70" y="350" width="10" height="10" fill="rgb(1,1,1)"/><rect x="80" y="350" width="10" height="10" fill="rgb(1,1,1)"/><rect x="90" y="350" width="10" height="10" fill="rgb(1,1,1)"/><rect x="0" y="360" width="10" height="10" fill="rgb(1,1,1)"/><rect x="10" y="360" width="10" height="10" fill="rgb(1,1,1)"/><rect x="20" y="360" width="10" height="10" fill="rgb(1,1,1)"/><rect x="30" y="360" width="10" height="10" fill="rgb(1,1,1)"/><rect x="40" y="360" width="10" height="10" fill="rgb(1,1,1)"/><rect x="50" y="360" width="10" height="10" fill="rgb(1,1,1)"/><rect x="60" y="360" width="10" height="10" fill="rgb(1,1,1)"/><rect x="70" y="360" width="10" height="10" fill="rgb(1,1,1)"/><rect x="80" y="360" width="10" height="10" fill="rgb(2,2,2)"/><rect x="90" y="360" width="10" height="10" fill="rgb(2,2,2)"/><rect x="0" y="370" width="10" height="10" fill="rgb(2,2,2)"/><rect x="10" y="370" width="10" height="10" fill="rgb(1,1,1)"/><rect x="20" y="370" width="10" height="10" fill="rgb(1,1,1)"/><rect x="30" y="370" width="10" height="10" fill="rgb(1,1,1)"/><rect x="40" y="370" width="10" height="10" fill="rgb(1,1,1)"/><rect x="50" y="370" width="10" height="10" fill="rgb(1,1,1)"/><rect x="60" y="370" width="10" height="10" fill="rgb(1,1,1)"/><rect x="70" y="370" width="10" height="10" fill="rgb(1,1,1)"/><rect x="80" y="370" width="10" height="10" fill="rgb(1,1,1)"/><rect x="90" y="370" width="10" height="10" fill="rgb(1,1,1)"/><rect x="0" y="380" width="10" height="10" fill="rgb(1,1,1)"/><rect x="10" y="380" width="10" height="10" fill="rgb(1,1,1)"/><rect x="20" y="380" width="10" height="10" fill="rgb(1,1,1)"/><rect x="30" y="380" width="10" height="10" fill="rgb(1,1,1)"/><rect x="40" y="380" width="10" height="10" fill="rgb(1,1,1)"/><rect x="50" y="380" width="10" height="10" fill="rgb(1,1,1)"/><rect x="60" y="380" width="10" height="10" fill="rgb(1,1,1)"/><rect x="70" y="380" width="10" height="10" fill="rgb(1,1,1)"/><rect x="80" y="380" width="10" height="10" fill="rgb(1,1,1)"/><rect x="90" y="380" width="10" height="10" fill="rgb(1,1,1)"/><rect x="0" y="390" width="10" height="10" fill="rgb(1,1,1)"/><rect x="10" y="390" width="10" height="10" fill="rgb(1,1,1)"/><rect x="20" y="390" width="10" height="10" fill="rgb(1,1,1)"/><rect x="30" y="390" width="10" height="10" fill="rgb(1,1,1)"/><rect x="40" y="390" width="10" height="10" fill="rgb(1,1,1)"/><rect x="50" y="390" width="10" height="10" fill="rgb(1,1,1)"/><rect x="60" y="390" width="10" height="10" fill="rgb(1,1,1)"/><rect x="70" y="390" width="10" height="10" fill="rgb(1,1,1)"/><rect x="80" y="390" width="10" height="10" fill="rgb(1,1,1)"/><rect x="90" y="390" width="10" height="10" fill="rgb(2,2,2)"/><rect x="0" y="400" width="10" height="10" fill="rgb(2,2,2)"/><rect x="10" y="400" width="10" height="10" fill="rgb(2,2,2)"/><rect x="20" y="400" width="10" height="10" fill="rgb(6,6,7)"/><rect x="30" y="400" width="10" height="10" fill="rgb(6,6,7)"/><rect x="40" y="400" width="10" height="10" fill="rgb(17,17,25)"/><rect x="50" y="400" width="10" height="10" fill="rgb(17,17,25)"/><rect x="60" y="400" width="10" height="10" fill="rgb(83,83,98)"/><rect x="70" y="400" width="10" height="10" fill="rgb(83,83,98)"/><rect x="80" y="400" width="10" height="10" fill="rgb(100,102,117)"/><rect x="90" y="400" width="10" height="10" fill="rgb(100,102,117)"/><rect x="0" y="410" width="10" height="10" fill="rgb(252,252,252)"/><rect x="10" y="410" width="10" height="10" fill="rgb(252,252,252)"/><rect x="20" y="410" width="10" height="10" fill="rgb(252,252,252)"/><rect x="30" y="410" width="10" height="10" fill="rgb(110,112,125)"/><rect x="40" y="410" width="10" height="10" fill="rgb(110,112,125)"/><rect x="50" y="410" width="10" height="10" fill="rgb(101,103,132)"/><rect x="60" y="410" width="10" height="10" fill="rgb(101,103,132)"/><rect x="70" y="410" width="10" height="10" fill="rgb(101,104,128)"/><rect x="80" y="410" width="10" height="10" fill="rgb(101,104,128)"/><rect x="90" y="410" width="10" height="10" fill="rgb(108,110,127)"/><rect x="0" y="420" width="10" height="10" fill="rgb(108,110,127)"/><rect x="10" y="420" width="10" height="10" fill="rgb(121,122,133)"/><rect x="20" y="420" width="10" height="10" fill="rgb(121,122,133)"/><rect x="30" y="420" width="10" height="10" fill="rgb(121,122,133)"/><rect x="40" y="420" width="10" height="10" fill="rgb(113,113,115)"/><rect x="50" y="420" width="10" height="10" fill="rgb(113,113,115)"/><rect x="60" y="420" width="10" height="10" fill="rgb(173,174,170)"/><rect x="70" y="420" width="10" height="10" fill="rgb(173,174,170)"/><rect x="80" y="420" width="10" height="10" fill="rgb(115,116,114)"/><rect x="90" y="420" width="10" height="10" fill="rgb(115,116,114)"/><rect x="0" y="430" width="10" height="10" fill="rgb(128,130,127)"/><rect x="10" y="430" width="10" height="10" fill="rgb(128,130,127)"/><rect x="20" y="430" width="10" height="10" fill="rgb(160,161,158)"/><rect x="30" y="430" width="10" height="10" fill="rgb(160,161,158)"/><rect x="40" y="430" width="10" height="10" fill="rgb(160,161,158)"/><rect x="50" y="430" width="10" height="10" fill="rgb(102,103,99)"/><rect x="60" y="430" width="10" height="10" fill="rgb(102,103,99)"/><rect x="70" y="430" width="10" height="10" fill="rgb(99,100,98)"/><rect x="80" y="430" width="10" height="10" fill="rgb(99,100,98)"/><rect x="90" y="430" width="10" height="10" fill="rgb(99,100,98)"/><rect x="0" y="440" width="10" height="10" fill="rgb(99,100,98)"/><rect x="10" y="440" width="10" height="10" fill="rgb(105,107,104)"/><rect x="20" y="440" width="10" height="10" fill="rgb(105,107,104)"/><rect x="30" y="440" width="10" height="10" fill="rgb(100,102,99)"/><rect x="40" y="440" width="10" height="10" fill="rgb(100,102,99)"/><rect x="50" y="440" width="10" height="10" fill="rgb(100,102,99)"/><rect x="60" y="440" width="10" height="10" fill="rgb(103,104,102)"/><rect x="70" y="440" width="10" height="10" fill="rgb(103,104,102)"/><rect x="80" y="440" width="10" height="10" fill="rgb(102,103,101)"/><rect x="90" y="440" width="10" height="10" fill="rgb(102,103,101)"/><rect x="0" y="450" width="10" height="10" fill="rgb(106,107,104)"/><rect x="10" y="450" width="10" height="10" fill="rgb(106,107,104)"/><rect x="20" y="450" width="10" height="10" fill="rgb(103,105,102)"/><rect x="30" y="450" width="10" height="10" fill="rgb(103,105,102)"/><rect x="40" y="450" width="10" height="10" fill="rgb(104,105,103)"/><rect x="50" y="450" width="10" height="10" fill="rgb(104,105,103)"/><rect x="60" y="450" width="10" height="10" fill="rgb(105,106,104)"/><rect x="70" y="450" width="10" height="10" fill="rgb(105,106,104)"/><rect x="80" y="450" width="10" height="10" fill="rgb(108,109,106)"/><rect x="90" y="450" width="10" height="10" fill="rgb(108,109,106)"/><rect x="0" y="460" width="10" height="10" fill="rgb(107,109,105)"/><rect x="10" y="460" width="10" height="10" fill="rgb(107,109,105)"/><rect x="20" y="460" width="10" height="10" fill="rgb(105,107,104)"/><rect x="30" y="460" width="10" height="10" fill="rgb(105,107,104)"/><rect x="40" y="460" width="10" height="10" fill="rgb(104,105,103)"/><rect x="50" y="460" width="10" height="10" fill="rgb(104,105,103)"/><rect x="60" y="460" width="10" height="10" fill="rgb(104,105,103)"/><rect x="70" y="460" width="10" height="10" fill="rgb(105,106,103)"/><rect x="80" y="460" width="10" height="10" fill="rgb(105,106,103)"/><rect x="90" y="460" width="10" height="10" fill="rgb(101,102,100)"/><rect x="0" y="470" width="10" height="10" fill="rgb(101,102,100)"/><rect x="10" y="470" width="10" height="10" fill="rgb(101,102,100)"/><rect x="20" y="470" width="10" height="10" fill="rgb(101,102,100)"/><rect x="30" y="470" width="10" height="10" fill="rgb(99,100,98)"/><rect x="40" y="470" width="10" height="10" fill="rgb(99,100,98)"/><rect x="50" y="470" width="10" height="10" fill="rgb(105,107,103)"/><rect x="60" y="470" width="10" height="10" fill="rgb(105,107,103)"/><rect x="70" y="470" width="10" height="10" fill="rgb(106,107,104)"/><rect x="80" y="470" width="10" height="10" fill="rgb(106,107,104)"/><rect x="90" y="470" width="10" height="10" fill="rgb(106,107,105)"/><rect x="0" y="480" width="10" height="10" fill="rgb(106,107,105)"/><rect x="10" y="480" width="10" height="10" fill="rgb(106,107,105)"/><rect x="20" y="480" width="10" height="10" fill="rgb(107,108,106)"/><rect x="30" y="480" width="10" height="10" fill="rgb(107,108,106)"/><rect x="40" y="480" width="10" height="10" fill="rgb(104,106,103)"/><rect x="50" y="480" width="10" height="10" fill="rgb(104,106,103)"/><rect x="60" y="480" width="10" height="10" fill="rgb(102,104,100)"/><rect x="70" y="480" width="10" height="10" fill="rgb(102,104,100)"/><rect x="80" y="480" width="10" height="10" fill="rgb(108,109,105)"/><rect x="90" y="480" width="10" height="10" fill="rgb(108,109,105)"/><rect x="0" y="490" width="10" height="10" fill="rgb(104,105,102)"/><rect x="10" y="490" width="10" height="10" fill="rgb(104,105,102)"/><rect x="20" y="490" width="10" height="10" fill="rgb(99,100,98)"/><rect x="30" y="490" width="10" height="10" fill="rgb(99,100,98)"/><rect x="40" y="490" width="10" height="10" fill="rgb(99,100,98)"/><rect x="50" y="490" width="10" height="10" fill="rgb(104,105,102)"/><rect x="60" y="490" width="10" height="10" fill="rgb(104,105,102)"/><rect x="70" y="490" width="10" height="10" fill="rgb(104,105,102)"/><rect x="80" y="490" width="10" height="10" fill="rgb(104,105,102)"/><rect x="90" y="490" width="10" height="10" fill="rgb(96,97,95)"/><rect x="0" y="500" width="10" height="10" fill="rgb(96,97,95)"/><rect x="10" y="500" width="10" height="10" fill="rgb(100,102,98)"/><rect x="20" y="500" width="10" height="10" fill="rgb(100,102,98)"/><rect x="30" y="500" width="10" height="10" fill="rgb(95,96,93)"/><rect x="40" y="500" width="10" height="10" fill="rgb(95,96,93)"/><rect x="50" y="500" width="10" height="10" fill="rgb(99,100,97)"/><rect x="60" y="500" width="10" height="10" fill="rgb(99,100,97)"/><rect x="70" y="500" width="10" height="10" fill="rgb(99,100,97)"/><rect x="80" y="500" width="10" height="10" fill="rgb(100,102,98)"/><rect x="90" y="500" width="10" height="10" fill="rgb(100,102,98)"/><rect x="0" y="510" width="10" height="10" fill="rgb(104,105,102)"/><rect x="10" y="510" width="10" height="10" fill="rgb(104,105,102)"/><rect x="20" y="510" width="10" height="10" fill="rgb(99,100,98)"/><rect x="30" y="510" width="10" height="10" fill="rgb(99,100,98)"/><rect x="40" y="510" width="10" height="10" fill="rgb(99,100,97)"/><rect x="50" y="510" width="10" height="10" fill="rgb(99,100,97)"/><rect x="60" y="510" width="10" height="10" fill="rgb(103,104,101)"/><rect x="70" y="510" width="10" height="10" fill="rgb(103,104,101)"/><rect x="80" y="510" width="10" height="10" fill="rgb(97,98,96)"/><rect x="90" y="510" width="10" height="10" fill="rgb(97,98,96)"/><rect x="0" y="520" width="10" height="10" fill="rgb(95,96,94)"/><rect x="10" y="520" width="10" height="10" fill="rgb(95,96,94)"/><rect x="20" y="520" width="10" height="10" fill="rgb(95,96,94)"/><rect x="30" y="520" width="10" height="10" fill="rgb(98,99,96)"/><rect x="40" y="520" width="10" height="10" fill="rgb(98,99,96)"/><rect x="50" y="520" width="10" height="10" fill="rgb(252,252,252)"/><rect x="60" y="520" width="10" height="10" fill="rgb(252,252,252)"/><rect x="70" y="520" width="10" height="10" fill="rgb(95,96,94)"/><rect x="80" y="520" width="10" height="10" fill="rgb(95,96,94)"/><rect x="90" y="520" width="10" height="10" fill="rgb(252,252,252)"/><rect x="0" y="530" width="10" height="10" fill="rgb(252,252,252)"/><rect x="10" y="530" width="10" height="10" fill="rgb(102,103,100)"/><rect x="20" y="530" width="10" height="10" fill="rgb(102,103,100)"/><rect x="30" y="530" width="10" height="10" fill="rgb(99,101,97)"/><rect x="40" y="530" width="10" height="10" fill="rgb(99,101,97)"/><rect x="50" y="530" width="10" height="10" fill="rgb(252,252,252)"/><rect x="60" y="530" width="10" height="10" fill="rgb(252,252,252)"/><rect x="70" y="530" width="10" height="10" fill="rgb(103,104,101)"/><rect x="80" y="530" width="10" height="10" fill="rgb(103,104,101)"/><rect x="90" y="530" width="10" height="10" fill="rgb(94,95,93)"/><rect x="0" y="540" width="10" height="10" fill="rgb(94,95,93)"/><rect x="10" y="540" width="10" height="10" fill="rgb(94,95,93)"/><rect x="20" y="540" width="10" height="10" fill="rgb(93,94,92)"/><rect x="30" y="540" width="10" height="10" fill="rgb(93,94,92)"/><rect x="40" y="540" width="10" height="10" fill="rgb(91,92,89)"/><rect x="50" y="540" width="10" height="10" fill="rgb(91,92,89)"/><rect x="60" y="540" width="10" height="10" fill="rgb(94,95,92)"/><rect x="70" y="540" width="10" height="10" fill="rgb(94,95,92)"/><rect x="80" y="540" width="10" height="10" fill="rgb(95,96,94)"/><rect x="90" y="540" width="10" height="10" fill="rgb(95,96,94)"/><rect x="0" y="550" width="10" height="10" fill="rgb(93,94,92)"/><rect x="10" y="550" width="10" height="10" fill="rgb(93,94,92)"/><rect x="20" y="550" width="10" height="10" fill="rgb(100,101,97)"/><rect x="30" y="550" width="10" height="10" fill="rgb(100,101,97)"/><rect x="40" y="550" width="10" height="10" fill="rgb(100,101,97)"/><rect x="50" y="550" width="10" height="10" fill="rgb(103,104,100)"/><rect x="60" y="550" width="10" height="10" fill="rgb(103,104,100)"/><rect x="70" y="550" width="10" height="10" fill="rgb(101,102,99)"/><rect x="80" y="550" width="10" height="10" fill="rgb(101,102,99)"/><rect x="90" y="550" width="10" height="10" fill="rgb(95,96,94)"/><rect x="0" y="560" width="10" height="10" fill="rgb(95,96,94)"/><rect x="10" y="560" width="10" height="10" fill="rgb(106,107,104)"/><rect x="20" y="560" width="10" height="10" fill="rgb(106,107,104)"/><rect x="30" y="560" width="10" height="10" fill="rgb(106,107,104)"/><rect x="40" y="560" width="10" height="10" fill="rgb(96,97,95)"/><rect x="50" y="560" width="10" height="10" fill="rgb(96,97,95)"/><rect x="60" y="560" width="10" height="10" fill="rgb(99,100,97)"/><rect x="70" y="560" width="10" height="10" fill="rgb(99,100,97)"/><rect x="80" y="560" width="10" height="10" fill="rgb(252,252,252)"/><rect x="90" y="560" width="10" height="10" fill="rgb(252,252,252)"/><rect x="0" y="570" width="10" height="10" fill="rgb(100,101,99)"/><rect x="10" y="570" width="10" height="10" fill="rgb(100,101,99)"/><rect x="20" y="570" width="10" height="10" fill="rgb(102,103,100)"/><rect x="30" y="570" width="10" height="10" fill="rgb(102,103,100)"/><rect x="40" y="570" width="10" height="10" fill="rgb(102,103,100)"/><rect x="50" y="570" width="10" height="10" fill="rgb(94,96,92)"/><rect x="60" y="570" width="10" height="10" fill="rgb(94,96,92)"/><rect x="70" y="570" width="10" height="10" fill="rgb(252,252,252)"/><rect x="80" y="570" width="10" height="10" fill="rgb(252,252,252)"/><rect x="90" y="570" width="10" height="10" fill="rgb(102,104,100)"/><rect x="0" y="580" width="10" height="10" fill="rgb(102,104,100)"/><rect x="10" y="580" width="10" height="10" fill="rgb(99,100,98)"/><rect x="20" y="580" width="10" height="10" fill="rgb(99,100,98)"/><rect x="30" y="580" width="10" height="10" fill="rgb(99,100,98)"/><rect x="40" y="580" width="10" height="10" fill="rgb(100,101,99)"/><rect x="50" y="580" width="10" height="10" fill="rgb(100,101,99)"/><rect x="60" y="580" width="10" height="10" fill="rgb(98,100,98)"/><rect x="70" y="580" width="10" height="10" fill="rgb(98,100,98)"/><rect x="80" y="580" width="10" height="10" fill="rgb(96,98,95)"/><rect x="90" y="580" width="10" height="10" fill="rgb(96,98,95)"/><rect x="0" y="590" width="10" height="10" fill="rgb(93,94,91)"/><rect x="10" y="590" width="10" height="10" fill="rgb(93,94,91)"/><rect x="20" y="590" width="10" height="10" fill="rgb(97,98,96)"/><rect x="30" y="590" width="10" height="10" fill="rgb(97,98,96)"/><rect x="40" y="590" width="10" height="10" fill="rgb(100,101,98)"/><rect x="50" y="590" width="10" height="10" fill="rgb(100,101,98)"/><rect x="60" y="590" width="10" height="10" fill="rgb(100,101,98)"/><rect x="70" y="590" width="10" height="10" fill="rgb(93,95,93)"/><rect x="80" y="590" width="10" height="10" fill="rgb(93,95,93)"/><rect x="90" y="590" width="10" height="10" fill="rgb(101,102,99)"/><rect x="0" y="600" width="10" height="10" fill="rgb(101,102,99)"/><rect x="10" y="600" width="10" height="10" fill="rgb(99,100,96)"/><rect x="20" y="600" width="10" height="10" fill="rgb(99,100,96)"/><rect x="30" y="600" width="10" height="10" fill="rgb(99,100,98)"/><rect x="40" y="600" width="10" height="10" fill="rgb(99,100,98)"/><rect x="50" y="600" width="10" height="10" fill="rgb(119,120,117)"/><rect x="60" y="600" width="10" height="10" fill="rgb(119,120,117)"/><rect x="70" y="600" width="10" height="10" fill="rgb(119,120,117)"/><rect x="80" y="600" width="10" height="10" fill="rgb(106,107,104)"/><rect x="90" y="600" width="10" height="10" fill="rgb(106,107,104)"/><rect x="0" y="610" width="10" height="10" fill="rgb(74,75,74)"/><rect x="10" y="610" width="10" height="10" fill="rgb(74,75,74)"/><rect x="20" y="610" width="10" height="10" fill="rgb(110,111,109)"/><rect x="30" y="610" width="10" height="10" fill="rgb(110,111,109)"/><rect x="40" y="610" width="10" height="10" fill="rgb(110,111,109)"/><rect x="50" y="610" width="10" height="10" fill="rgb(252,252,252)"/><rect x="60" y="610" width="10" height="10" fill="rgb(252,252,252)"/><rect x="70" y="610" width="10" height="10" fill="rgb(93,95,105)"/><rect x="80" y="610" width="10" height="10" fill="rgb(93,95,105)"/><rect x="90" y="610" width="10" height="10" fill="rgb(90,93,110)"/><rect x="0" y="620" width="10" height="10" fill="rgb(90,93,110)"/><rect x="10" y="620" width="10" height="10" fill="rgb(95,97,118)"/><rect x="20" y="620" width="10" height="10" fill="rgb(95,97,118)"/><rect x="30" y="620" width="10" height="10" fill="rgb(98,100,123)"/><rect x="40" y="620" width="10" height="10" fill="rgb(98,100,123)"/><rect x="50" y="620" width="10" height="10" fill="rgb(98,99,118)"/><rect x="60" y="620" width="10" height="10" fill="rgb(98,99,118)"/><rect x="70" y="620" width="10" height="10" fill="rgb(98,99,118)"/><rect x="80" y="620" width="10" height="10" fill="rgb(102,102,111)"/><rect x="90" y="620" width="10" height="10" fill="rgb(102,102,111)"/><rect x="0" y="630" width="10" height="10" fill="rgb(39,39,36)"/><rect x="10" y="630" width="10" height="10" fill="rgb(39,39,36)"/><rect x="20" y="630" width="10" height="10" fill="rgb(30,30,29)"/><rect x="30" y="630" width="10" height="10" fill="rgb(30,30,29)"/><rect x="40" y="630" width="10" height="10" fill="rgb(252,252,252)"/><rect x="50" y="630" width="10" height="10" fill="rgb(252,252,252)"/><rect x="60" y="630" width="10" height="10" fill="rgb(252,252,252)"/><rect x="70" y="630" width="10" height="10" fill="rgb(252,252,252)"/><rect x="80" y="630" width="10" height="10" fill="rgb(252,252,252)"/><rect x="90" y="630" width="10" height="10" fill="rgb(21,21,21)"/><rect x="0" y="640" width="10" height="10" fill="rgb(21,21,21)"/><rect x="10" y="640" width="10" height="10" fill="rgb(21,21,20)"/></svg>