<svg xmlns="http://www.w3.org/2000/svg" width="100" height="260"><rect x="0" y="0" width="10" height="10" fill="rgb(78,86,92)"/><rect x="10" y="0" width="10" height="10" fill="rgb(78,86,92)"/><rect x="20" y="0" width="10" height="10" fill="rgb(87,92,94)"/><rect x="30" y="0" width="10" height="10" fill="rgb(87,92,94)"/><rect x="40" y="0" width="10" height="10" fill="rgb(100,101,98)"/><rect x="50" y="0" width="10" height="10" fill="rgb(100,101,98)"/><rect x="60" y="0" width="10" height="10" fill="rgb(100,101,98)"/><rect x="70" y="0" width="10" height="10" fill="rgb(96,98,95)"/><rect x="80" y="0" width="10" height="10" fill="rgb(96,98,95)"/><rect x="90" y="0" width="10" height="10" fill="rgb(96,98,97)"/><rect x="0" y="10" width="10" height="10" fill="rgb(96,98,97)"/><rect x="10" y="10" width="10" height="10" fill="rgb(96,98,97)"/><rect x="20" y="10" width="10" height="10" fill="rgb(96,98,97)"/><rect x="30" y="10" width="10" height="10" fill="rgb(252,252,252)"/><rect x="40" y="10" width="10" height="10" fill="rgb(252,252,252)"/><rect x="50" y="10" width="10" height="10" fill="rgb(252,252,252)"/><rect x="60" y="10" width="10" height="10" fill="rgb(252,252,252)"/><rect x="70" y="10" width="10" height="10" fill="rgb(252,252,252)"/><rect x="80" y="10" width="10" height="10" fill="rgb(98,99,96)"/><rect x="90" y="10" width="10" height="10" fill="rgb(98,99,96)"/><rect x="0" y="20" width="10" height="10" fill="rgb(95,99,98)"/><rect x="10" y="20" width="10" height="10" fill="rgb(95,99,98)"/><rect x="20" y="20" width="10" height="10" fill="rgb(99,101,98)"/><rect x="30" y="20" width="10" height="10" fill="rgb(99,101,98)"/><rect x="40" y="20" width="10" height="10" fill="rgb(101,102,99)"/><rect x="50" y="20" width="10" height="10" fill="rgb(101,102,99)"/><rect x="60" y="20" width="10" height="10" fill="rgb(105,108,108)"/><rect x="70" y="20" width="10" height="10" fill="rgb(105,108,108)"/><rect x="80" y="20" width="10" height="10" fill="rgb(89,91,94)"/><rect x="90" y="20" width="10" height="10" fill="rgb(89,91,94)"/><rect x="0" y="30" width="10" height="10" fill="rgb(68,71,75)"/><rect x="10" y="30" width="10" height="10" fill="rgb(68,71,75)"/><rect x="20" y="30" width="10" height="10" fill="rgb(68,71,75)"/><rect x="30" y="30" width="10" height="10" fill="rgb(107,108,115)"/><rect x="40" y="30" width="10" height="10" fill="rgb(107,108,115)"/><rect x="50" y="30" width="10" height="10" fill="rgb(77,80,89)"/><rect x="60" y="30" width="10" height="10" fill="rgb(77,80,89)"/><rect x="70" y="30" width="10" height="10" fill="rgb(89,93,108)"/><rect x="80" y="30" width="10" height="10" fill="rgb(89,93,108)"/><rect x="90" y="30" width="10" height="10" fill="rgb(93,96,120)"/><rect x="0" y="40" width="10" height="10" fill="rgb(93,96,120)"/><rect x="10" y="40" width="10" height="10" fill="rgb(97,100,131)"/><rect x="20" y="40" width="10" height="10" fill="rgb(97,100,131)"/><rect x="30" y="40" width="10" height="10" fill="rgb(95,98,134)"/><rect x="40" y="40" width="10" height="10" fill="rgb(95,98,134)"/><rect x="50" y="40" width="10" height="10" fill="rgb(99,101,128)"/><rect x="60" y="40" width="10" height="10" fill="rgb(99,101,128)"/><rect x="70" y="40" width="10" height="10" fill="rgb(252,252,252)"/><rect x="80" y="40" width="10" height="10" fill="rgb(252,252,252)"/><rect x="90" y="40" width="10" height="10" fill="rgb(33,35,46)"/><rect x="0" y="50" width="10" height="10" fill="rgb(33,35,46)"/><rect x="10" y="50" width="10" height="10" fill="rgb(10,12,22)"/><rect x="20" y="50" width="10" height="10" fill="rgb(10,12,22)"/><rect x="30" y="50" width="10" height="10" fill="rgb(10,12,22)"/><rect x="40" y="50" width="10" height="10" fill="rgb(2,2,3)"/><rect x="50" y="50" width="10" height="10" fill="rgb(2,2,3)"/><rect x="60" y="50" width="10" height="10" fill="rgb(252,252,252)"/><rect x="70" y="50" width="10" height="10" fill="rgb(252,252,252)"/><rect x="80" y="50" width="10" height="10" fill="rgb(1,1,1)"/><rect x="90" y="50" width="10" height="10" fill="rgb(1,1,1)"/><rect x="0" y="60" width="10" height="10" fill="rgb(1,1,1)"/><rect x="10" y="60" width="10" height="10" fill="rgb(1,1,1)"/><rect x="20" y="60" width="10" height="10" fill="rgb(1,1,1)"/><rect x="30" y="60" width="10" height="10" fill="rgb(1,1,1)"/><rect x="40" y="60" width="10" height="10" fill="rgb(1,1,1)"/><rect x="50" y="60" width="10" height="10" fill="rgb(1,1,1)"/><rect x="60" y="60" width="10" height="10" fill="rgb(1,1,1)"/><rect x="70" y="60" width="10" height="10" fill="rgb(1,1,1)"/><rect x="80" y="60" width="10" height="10" fill="rgb(1,1,1)"/><rect x="90" y="60" width="10" height="10" fill="rgb(1,1,1)"/><rect x="0" y="70" width="10" height="10" fill="rgb(1,1,1)"/><rect x="10" y="70" width="10" height="10" fill="rgb(1,1,1)"/><rect x="20" y="70" width="10" height="10" fill="rgb(1,1,1)"/><rect x="30" y="70" width="10" height="10" fill="rgb(1,1,1)"/><rect x="40" y="70" width="10" height="10" fill="rgb(1,1,1)"/><rect x="50" y="70" width="10" height="10" fill="rgb(1,1,1)"/><rect x="60" y="70" width="10" height="10" fill="rgb(1,1,1)"/><rect x="70" y="70" width="10" height="10" fill="rgb(1,1,1)"/><rect x="80" y="70" width="10" height="10" fill="rgb(1,1,1)"/><rect x="90" y="70" width="10" height="10" fill="rgb(1,1,1)"/><rect x="0" y="80" width="10" height="10" fill="rgb(1,1,1)"/><rect x="10" y="80" width="10" height="10" fill="rgb(1,1,1)"/><rect x="20" y="80" width="10" height="10" fill="rgb(1,1,1)"/><rect x="30" y="80" width="10" height="10" fill="rgb(1,1,1)"/><rect x="40" y="80" width="10" height="10" fill="rgb(1,1,1)"/><rect x="50" y="80" width="10" height="10" fill="rgb(1,1,1)"/><rect x="60" y="80" width="10" height="10" fill="rgb(1,1,1)"/><rect x="70" y="80" width="10" height="10" fill="rgb(1,1,1)"/><rect x="80" y="80" width="10" height="10" fill="rgb(1,1,1)"/><rect x="90" y="80" width="10" height="10" fill="rgb(1,1,1)"/><rect x="0" y="90" width="10" height="10" fill="rgb(1,1,1)"/><rect x="10" y="90" width="10" height="10" fill="rgb(1,1,1)"/><rect x="20" y="90" width="10" height="10" fill="rgb(1,1,1)"/><rect x="30" y="90" width="10" height="10" fill="rgb(1,1,1)"/><rect x="40" y="90" width="10" height="10" fill="rgb(1,1,1)"/><rect x="50" y="90" width="10" height="10" fill="rgb(1,1,1)"/><rect x="60" y="90" width="10" height="10" fill="rgb(1,1,1)"/><rect x="70" y="90" width="10" height="10" fill="rgb(1,1,1)"/><rect x="80" y="90" width="10" height="10" fill="rgb(1,1,1)"/><rect x="90" y="90" width="10" height="10" fill="rgb(1,1,1)"/><rect x="0" y="100" width="10" height="10" fill="rgb(1,1,1)"/><rect x="10" y="100" width="10" height="10" fill="rgb(1,1,1)"/><rect x="20" y="100" width="10" height="10" fill="rgb(1,1,1)"/><rect x="30" y="100" width="10" height="10" fill="rgb(1,1,1)"/><rect x="40" y="100" width="10" height="10" fill="rgb(1,1,1)"/><rect x="50" y="100" width="10" height="10" fill="rgb(1,1,1)"/><rect x="60" y="100" width="10" height="10" fill="rgb(2,2,2)"/><rect x="70" y="100" width="10" height="10" fill="rgb(2,2,2)"/><rect x="80" y="100" width="10" height="10" fill="rgb(3,3,3)"/><rect x="90" y="100" width="10" height="10" fill="rgb(3,3,3)"/><rect x="0" y="110" width="10" height="10" fill="rgb(7,6,8)"/><rect x="10" y="110" width="10" height="10" fill="rgb(7,6,8)"/><rect x="20" y="110" width="10" height="10" fill="rgb(16,17,25)"/><rect x="30" y="110" width="10" height="10" fill="rgb(16,17,25)"/><rect x="40" y="110" width="10" height="10" fill="rgb(76,77,90)"/><rect x="50" y="110" width="10" height="10" fill="rgb(76,77,90)"/><rect x="60" y="110" width="10" height="10" fill="rgb(102,103,119)"/><rect x="70" y="110" width="10" height="10" fill="rgb(102,103,119)"/><rect x="80" y="110" width="10" height="10" fill="rgb(103,103,119)"/><rect x="90" y="110" width="10" height="10" fill="rgb(103,103,119)"/><rect x="0" y="120" width="10" height="10" fill="rgb(109,109,122)"/><rect x="10" y="120" width="10" height="10" fill="rgb(109,109,122)"/><rect x="20" y="120" width="10" height="10" fill="rgb(103,104,127)"/><rect x="30" y="120" width="10" height="10" fill="rgb(103,104,127)"/><rect x="40" y="120" width="10" height="10" fill="rgb(108,109,125)"/><rect x="50" y="120" width="10" height="10" fill="rgb(108,109,125)"/><rect x="60" y="120" width="10" height="10" fill="rgb(108,109,125)"/><rect x="70" y="120" width="10" height="10" fill="rgb(119,118,127)"/><rect x="80" y="120" width="10" height="10" fill="rgb(119,118,127)"/><rect x="90" y="120" width="10" height="10" fill="rgb(125,124,127)"/><rect x="0" y="130" width="10" height="10" fill="rgb(125,124,127)"/><rect x="10" y="130" width="10" height="10" fill="rgb(131,130,126)"/><rect x="20" y="130" width="10" height="10" fill="rgb(131,130,126)"/><rect x="30" y="130" width="10" height="10" fill="rgb(171,169,162)"/><rect x="40" y="130" width="10" height="10" fill="rgb(171,169,162)"/><rect x="50" y="130" width="10" height="10" fill="rgb(124,125,120)"/><rect x="60" y="130" width="10" height="10" fill="rgb(124,125,120)"/><rect x="70" y="130" width="10" height="10" fill="rgb(168,168,161)"/><rect x="80" y="130" width="10" height="10" fill="rgb(168,168,161)"/><rect x="90" y="130" width="10" height="10" fill="rgb(168,168,161)"/><rect x="0" y="140" width="10" height="10" fill="rgb(78,88,93)"/><rect x="10" y="140" width="10" height="10" fill="rgb(78,88,93)"/><rect x="20" y="140" width="10" height="10" fill="rgb(79,88,94)"/><rect x="30" y="140" width="10" height="10" fill="rgb(79,88,94)"/><rect x="40" y="140" width="10" height="10" fill="rgb(81,89,95)"/><rect x="50" y="140" width="10" height="10" fill="rgb(81,89,95)"/><rect x="60" y="140" width="10" height="10" fill="rgb(82,91,96)"/><rect x="70" y="140" width="10" height="10" fill="rgb(82,91,96)"/><rect x="80" y="140" width="10" height="10" fill="rgb(82,90,95)"/><rect x="90" y="140" width="10" height="10" fill="rgb(82,90,95)"/><rect x="0" y="150" width="10" height="10" fill="rgb(82,90,95)"/><rect x="10" y="150" width="10" height="10" fill="rgb(252,252,252)"/><rect x="20" y="150" width="10" height="10" fill="rgb(252,252,252)"/><rect x="30" y="150" width="10" height="10" fill="rgb(89,97,101)"/><rect x="40" y="150" width="10" height="10" fill="rgb(89,97,101)"/><rect x="50" y="150" width="10" height="10" fill="rgb(88,95,100)"/><rect x="60" y="150" width="10" height="10" fill="rgb(88,95,100)"/><rect x="70" y="150" width="10" height="10" fill="rgb(94,101,105)"/><rect x="80" y="150" width="10" height="10" fill="rgb(94,101,105)"/><rect x="90" y="150" width="10" height="10" fill="rgb(91,98,102)"/><rect x="0" y="160" width="10" height="10" fill="rgb(91,98,102)"/><rect x="10" y="160" width="10" height="10" fill="rgb(91,98,102)"/><rect x="20" y="160" width="10" height="10" fill="rgb(91,98,102)"/><rect x="30" y="160" width="10" height="10" fill="rgb(91,98,102)"/><rect x="40" y="160" width="10" height="10" fill="rgb(93,99,103)"/><rect x="50" y="160" width="10" height="10" fill="rgb(93,99,103)"/><rect x="60" y="160" width="10" height="10" fill="rgb(93,100,104)"/><rect x="70" y="160" width="10" height="10" fill="rgb(93,100,104)"/><rect x="80" y="160" width="10" height="10" fill="rgb(96,103,106)"/><rect x="90" y="160" width="10" height="10" fill="rgb(96,103,106)"/><rect x="0" y="170" width="10" height="10" fill="rgb(95,102,106)"/><rect x="10" y="170" width="10" height="10" fill="rgb(95,102,106)"/><rect x="20" y="170" width="10" height="10" fill="rgb(94,102,105)"/><rect x="30" y="170" width="10" height="10" fill="rgb(94,102,105)"/><rect x="40" y="170" width="10" height="10" fill="rgb(93,100,104)"/><rect x="50" y="170" width="10" height="10" fill="rgb(93,100,104)"/><rect x="60" y="170" width="10" height="10" fill="rgb(252,252,252)"/><rect x="70" y="170" width="10" height="10" fill="rgb(252,252,252)"/><rect x="80" y="170" width="10" height="10" fill="rgb(88,94,96)"/><rect x="90" y="170" width="10" height="10" fill="rgb(88,94,96)"/><rect x="0" y="180" width="10" height="10" fill="rgb(91,95,97)"/><rect x="10" y="180" width="10" height="10" fill="rgb(91,95,97)"/><rect x="20" y="180" width="10" height="10" fill="rgb(81,88,92)"/><rect x="30" y="180" width="10" height="10" fill="rgb(81,88,92)"/><rect x="40" y="180" width="10" height="10" fill="rgb(81,88,92)"/><rect x="50" y="180" width="10" height="10" fill="rgb(76,85,92)"/><rect x="60" y="180" width="10" height="10" fill="rgb(76,85,92)"/><rect x="70" y="180" width="10" height="10" fill="rgb(74,83,90)"/><rect x="80" y="180" width="10" height="10" fill="rgb(74,83,90)"/><rect x="90" y="180" width="10" height="10" fill="rgb(73,83,90)"/><rect x="0" y="190" width="10" height="10" fill="rgb(73,83,90)"/><rect x="10" y="190" width="10" height="10" fill="rgb(72,82,88)"/><rect x="20" y="190" width="10" height="10" fill="rgb(72,82,88)"/><rect x="30" y="190" width="10" height="10" fill="rgb(68,78,86)"/><rect x="40" y="190" width="10" height="10" fill="rgb(68,78,86)"/><rect x="50" y="190" width="10" height="10" fill="rgb(73,83,91)"/><rect x="60" y="190" width="10" height="10" fill="rgb(73,83,91)"/><rect x="70" y="190" width="10" height="10" fill="rgb(73,83,91)"/><rect x="80" y="190" width="10" height="10" fill="rgb(96,100,101)"/><rect x="90" y="190" width="10" height="10" fill="rgb(96,100,101)"/><rect x="0" y="200" width="10" height="10" fill="rgb(110,112,110)"/><rect x="10" y="200" width="10" height="10" fill="rgb(110,112,110)"/><rect x="20" y="200" width="10" height="10" fill="rgb(110,112,109)"/><rect x="30" y="200" width="10" height="10" fill="rgb(110,112,109)"/><rect x="40" y="200" width="10" height="10" fill="rgb(110,112,110)"/><rect x="50" y="200" width="10" height="10" fill="rgb(110,112,110)"/><rect x="60" y="200" width="10" height="10" fill="rgb(110,112,109)"/><rect x="70" y="200" width="10" height="10" fill="rgb(110,112,109)"/><rect x="80" y="200" width="10" height="10" fill="rgb(110,112,109)"/><rect x="90" y="200" width="10" height="10" fill="rgb(108,109,107)"/><rect x="0" y="210" width="10" height="10" fill="rgb(108,109,107)"/><rect x="10" y="210" width="10" height="10" fill="rgb(252,252,252)"/><rect x="20" y="210" width="10" height="10" fill="rgb(252,252,252)"/><rect x="30" y="210" width="10" height="10" fill="rgb(107,109,107)"/><rect x="40" y="210" width="10" height="10" fill="rgb(107,109,107)"/><rect x="50" y="210" width="10" height="10" fill="rgb(107,109,106)"/><rect x="60" y="210" width="10" height="10" fill="rgb(107,109,106)"/><rect x="70" y="210" width="10" height="10" fill="rgb(107,109,106)"/><rect x="80" y="210" width="10" height="10" fill="rgb(98,100,99)"/><rect x="90" y="210" width="10" height="10" fill="rgb(98,100,99)"/><rect x="0" y="220" width="10" height="10" fill="rgb(99,101,99)"/><rect x="10" y="220" width="10" height="10" fill="rgb(99,101,99)"/><rect x="20" y="220" width="10" height="10" fill="rgb(107,108,105)"/><rect x="30" y="220" width="10" height="10" fill="rgb(107,108,105)"/><rect x="40" y="220" width="10" height="10" fill="rgb(109,111,109)"/><rect x="50" y="220" width="10" height="10" fill="rgb(109,111,109)"/><rect x="60" y="220" width="10" height="10" fill="rgb(105,106,104)"/><rect x="70" y="220" width="10" height="10" fill="rgb(105,106,104)"/><rect x="80" y="220" width="10" height="10" fill="rgb(105,106,104)"/><rect x="90" y="220" width="10" height="10" fill="rgb(101,103,101)"/><rect x="0" y="230" width="10" height="10" fill="rgb(101,103,101)"/><rect x="10" y="230" width="10" height="10" fill="rgb(105,106,104)"/><rect x="20" y="230" width="10" height="10" fill="rgb(105,106,104)"/><rect x="30" y="230" width="10" height="10" fill="rgb(97,99,98)"/><rect x="40" y="230" width="10" height="10" fill="rgb(97,99,98)"/><rect x="50" y="230" width="10" height="10" fill="rgb(101,102,100)"/><rect x="60" y="230" width="10" height="10" fill="rgb(101,102,100)"/><rect x="70" y="230" width="10" height="10" fill="rgb(252,252,252)"/><rect x="80" y="230" width="10" height="10" fill="rgb(252,252,252)"/><rect x="90" y="230" width="10" height="10" fill="rgb(91,93,93)"/><rect x="0" y="240" width="10" height="10" fill="rgb(91,93,93)"/><rect x="10" y="240" width="10" height="10" fill="rgb(97,98,96)"/><rect x="20" y="240" width="10" height="10" fill="rgb(97,98,96)"/><rect x="30" y="240" width="10" height="10" fill="rgb(97,98,96)"/><rect x="40" y="240" width="10" height="10" fill="rgb(85,87,87)"/><rect x="50" y="240" width="10" height="10" fill="rgb(85,87,87)"/><rect x="60" y="240" width="10" height="10" fill="rgb(93,94,93)"/><rect x="70" y="240" width="10" height="10" fill="rgb(93,94,93)"/><rect x="80" y="240" width="10" height="10" fill="rgb(83,85,84)"/><rect x="90" y="240" width="10" height="10" fill="rgb(83,85,84)"/><rect x="0" y="250" width="10" height="10" fill="rgb(84,86,85)"/><rect x="10" y="250" width="10" height="10" fill="rgb(84,86,85)"/><rect x="20" y="250" width="10" height="10" fill="rgb(73,79,82)"/><rect x="30" y="250" width="10" height="10" fill="rgb(73,79,82)"/><rect x="40" y="250" width="10" height="10" fill="rgb(91,93,93)"/><rect x="50" y="250" width="10" height="10" fill="rgb(91,93,93)"/><rect x="60" y="250" width="10" height="10" fill="rgb(64,78,89)"/><rect x="70" y="250" width="10" height="10" fill="rgb(64,78,89)"/><rect x="80" y="250" width="10" height="10" fill="rgb(67,81,92)"/><rect x="90" y="250" width="10" height="10" fill="rgb(67,81,92)"/></svg>