<svg xmlns="http://www.w3.org/2000/svg" width="480" height="70"><rect x="0" y="0" width="10" height="10" fill="rgb(211,210,216)"/><rect x="10" y="0" width="10" height="10" fill="rgb(177,176,185)"/><rect x="20" y="0" width="10" height="10" fill="rgb(234,227,229)"/><rect x="30" y="0" width="10" height="10" fill="rgb(187,185,196)"/><rect x="40" y="0" width="10" height="10" fill="rgb(247,245,246)"/><rect x="50" y="0" width="10" height="10" fill="rgb(236,229,231)"/><rect x="60" y="0" width="10" height="10" fill="rgb(215,215,215)"/><rect x="70" y="0" width="10" height="10" fill="rgb(233,232,239)"/><rect x="80" y="0" width="10" height="10" fill="rgb(238,238,238)"/><rect x="90" y="0" width="10" height="10" fill="rgb(233,233,234)"/><rect x="100" y="0" width="10" height="10" fill="rgb(227,226,232)"/><rect x="110" y="0" width="10" height="10" fill="rgb(227,227,227)"/><rect x="120" y="0" width="10" height="10" fill="rgb(242,241,245)"/><rect x="130" y="0" width="10" height="10" fill="rgb(193,192,201)"/><rect x="140" y="0" width="10" height="10" fill="rgb(168,172,187)"/><rect x="150" y="0" width="10" height="10" fill="rgb(193,192,200)"/><rect x="160" y="0" width="10" height="10" fill="rgb(186,185,192)"/><rect x="170" y="0" width="10" height="10" fill="rgb(146,148,165)"/><rect x="180" y="0" width="10" height="10" fill="rgb(144,147,163)"/><rect x="190" y="0" width="10" height="10" fill="rgb(149,153,171)"/><rect x="200" y="0" width="10" height="10" fill="rgb(154,157,172)"/><rect x="210" y="0" width="10" height="10" fill="rgb(137,142,157)"/><rect x="220" y="0" width="10" height="10" fill="rgb(148,151,166)"/><rect x="230" y="0" width="10" height="10" fill="rgb(135,140,154)"/><rect x="240" y="0" width="10" height="10" fill="rgb(126,137,160)"/><rect x="250" y="0" width="10" height="10" fill="rgb(162,165,179)"/><rect x="260" y="0" width="10" height="10" fill="rgb(193,194,202)"/><rect x="270" y="0" width="10" height="10" fill="rgb(244,244,248)"/><rect x="280" y="0" width="10" height="10" fill="rgb(249,248,251)"/><rect x="290" y="0" width="10" height="10" fill="rgb(233,232,241)"/><rect x="300" y="0" width="10" height="10" fill="rgb(232,231,240)"/><rect x="310" y="0" width="10" height="10" fill="rgb(212,211,224)"/><rect x="320" y="0" width="10" height="10" fill="rgb(242,241,248)"/><rect x="330" y="0" width="10" height="10" fill="rgb(226,225,234)"/><rect x="340" y="0" width="10" height="10" fill="rgb(251,250,254)"/><rect x="350" y="0" width="10" height="10" fill="rgb(255,255,255)"/><rect x="360" y="0" width="10" height="10" fill="rgb(252,251,253)"/><rect x="370" y="0" width="10" height="10" fill="rgb(206,208,221)"/><rect x="380" y="0" width="10" height="10" fill="rgb(191,196,211)"/><rect x="390" y="0" width="10" height="10" fill="rgb(181,186,201)"/><rect x="400" y="0" width="10" height="10" fill="rgb(177,181,195)"/><rect x="410" y="0" width="10" height="10" fill="rgb(175,180,195)"/><rect x="420" y="0" width="10" height="10" fill="rgb(219,218,231)"/><rect x="430" y="0" width="10" height="10" fill="rgb(192,193,208)"/><rect x="440" y="0" width="10" height="10" fill="rgb(205,205,216)"/><rect x="450" y="0" width="10" height="10" fill="rgb(163,165,181)"/><rect x="460" y="0" width="10" height="10" fill="rgb(181,181,188)"/><rect x="470" y="0" width="10" height="10" fill="rgb(185,185,195)"/><rect x="0" y="10" width="10" height="10" fill="rgb(152,156,174)"/><rect x="10" y="10" width="10" height="10" fill="rgb(174,174,186)"/><rect x="20" y="10" width="10" height="10" fill="rgb(191,191,202)"/><rect x="30" y="10" width="10" height="10" fill="rgb(193,193,204)"/><rect x="40" y="10" width="10" height="10" fill="rgb(203,203,213)"/><rect x="50" y="10" width="10" height="10" fill="rgb(194,196,210)"/><rect x="60" y="10" width="10" height="10" fill="rgb(221,220,233)"/><rect x="70" y="10" width="10" height="10" fill="rgb(189,190,207)"/><rect x="80" y="10" width="10" height="10" fill="rgb(210,209,215)"/><rect x="90" y="10" width="10" height="10" fill="rgb(223,221,231)"/><rect x="100" y="10" width="10" height="10" fill="rgb(181,184,202)"/><rect x="110" y="10" width="10" height="10" fill="rgb(205,205,219)"/><rect x="120" y="10" width="10" height="10" fill="rgb(232,231,236)"/><rect x="130" y="10" width="10" height="10" fill="rgb(208,207,218)"/><rect x="140" y="10" width="10" height="10" fill="rgb(186,186,203)"/><rect x="150" y="10" width="10" height="10" fill="rgb(199,198,206)"/><rect x="160" y="10" width="10" height="10" fill="rgb(213,212,218)"/><rect x="170" y="10" width="10" height="10" fill="rgb(200,198,208)"/><rect x="180" y="10" width="10" height="10" fill="rgb(179,179,195)"/><rect x="190" y="10" width="10" height="10" fill="rgb(192,191,198)"/><rect x="200" y="10" width="10" height="10" fill="rgb(189,187,197)"/><rect x="210" y="10" width="10" height="10" fill="rgb(200,199,213)"/><rect x="220" y="10" width="10" height="10" fill="rgb(186,186,203)"/><rect x="230" y="10" width="10" height="10" fill="rgb(181,195,225)"/><rect x="240" y="10" width="10" height="10" fill="rgb(191,203,230)"/><rect x="250" y="10" width="10" height="10" fill="rgb(185,194,219)"/><rect x="260" y="10" width="10" height="10" fill="rgb(178,196,231)"/><rect x="270" y="10" width="10" height="10" fill="rgb(187,203,231)"/><rect x="280" y="10" width="10" height="10" fill="rgb(196,208,232)"/><rect x="290" y="10" width="10" height="10" fill="rgb(193,206,232)"/><rect x="300" y="10" width="10" height="10" fill="rgb(194,187,192)"/><rect x="310" y="10" width="10" height="10" fill="rgb(175,176,193)"/><rect x="320" y="10" width="10" height="10" fill="rgb(189,200,224)"/><rect x="330" y="10" width="10" height="10" fill="rgb(198,210,235)"/><rect x="340" y="10" width="10" height="10" fill="rgb(201,211,236)"/><rect x="350" y="10" width="10" height="10" fill="rgb(193,209,237)"/><rect x="360" y="10" width="10" height="10" fill="rgb(204,209,227)"/><rect x="370" y="10" width="10" height="10" fill="rgb(206,199,202)"/><rect x="380" y="10" width="10" height="10" fill="rgb(194,197,210)"/><rect x="390" y="10" width="10" height="10" fill="rgb(182,180,190)"/><rect x="400" y="10" width="10" height="10" fill="rgb(185,184,191)"/><rect x="410" y="10" width="10" height="10" fill="rgb(198,195,205)"/><rect x="420" y="10" width="10" height="10" fill="rgb(195,210,235)"/><rect x="430" y="10" width="10" height="10" fill="rgb(180,184,203)"/><rect x="440" y="10" width="10" height="10" fill="rgb(183,183,199)"/><rect x="450" y="10" width="10" height="10" fill="rgb(199,198,211)"/><rect x="460" y="10" width="10" height="10" fill="rgb(204,203,214)"/><rect x="470" y="10" width="10" height="10" fill="rgb(223,220,231)"/><rect x="0" y="20" width="10" height="10" fill="rgb(216,216,229)"/><rect x="10" y="20" width="10" height="10" fill="rgb(204,202,211)"/><rect x="20" y="20" width="10" height="10" fill="rgb(241,236,238)"/><rect x="30" y="20" width="10" height="10" fill="rgb(253,253,254)"/><rect x="40" y="20" width="10" height="10" fill="rgb(252,252,252)"/><rect x="50" y="20" width="10" height="10" fill="rgb(207,205,217)"/><rect x="60" y="20" width="10" height="10" fill="rgb(243,242,246)"/><rect x="70" y="20" width="10" height="10" fill="rgb(233,233,237)"/><rect x="80" y="20" width="10" height="10" fill="rgb(233,232,239)"/><rect x="90" y="20" width="10" height="10" fill="rgb(217,216,224)"/><rect x="100" y="20" width="10" height="10" fill="rgb(229,228,234)"/><rect x="110" y="20" width="10" height="10" fill="rgb(230,229,234)"/><rect x="120" y="20" width="10" height="10" fill="rgb(212,212,212)"/><rect x="130" y="20" width="10" height="10" fill="rgb(198,198,198)"/><rect x="140" y="20" width="10" height="10" fill="rgb(169,169,169)"/><rect x="150" y="20" width="10" height="10" fill="rgb(130,130,130)"/><rect x="160" y="20" width="10" height="10" fill="rgb(135,135,135)"/><rect x="170" y="20" width="10" height="10" fill="rgb(128,128,128)"/><rect x="180" y="20" width="10" height="10" fill="rgb(123,123,123)"/><rect x="190" y="20" width="10" height="10" fill="rgb(128,128,128)"/><rect x="200" y="20" width="10" height="10" fill="rgb(108,108,108)"/><rect x="210" y="20" width="10" height="10" fill="rgb(63,63,63)"/><rect x="220" y="20" width="10" height="10" fill="rgb(42,42,42)"/><rect x="230" y="20" width="10" height="10" fill="rgb(29,29,29)"/><rect x="240" y="20" width="10" height="10" fill="rgb(22,22,22)"/><rect x="250" y="20" width="10" height="10" fill="rgb(17,17,17)"/><rect x="260" y="20" width="10" height="10" fill="rgb(12,12,12)"/><rect x="270" y="20" width="10" height="10" fill="rgb(11,11,11)"/><rect x="280" y="20" width="10" height="10" fill="rgb(10,10,10)"/><rect x="290" y="20" width="10" height="10" fill="rgb(10,10,10)"/><rect x="300" y="20" width="10" height="10" fill="rgb(10,10,10)"/><rect x="310" y="20" width="10" height="10" fill="rgb(10,10,10)"/><rect x="320" y="20" width="10" height="10" fill="rgb(10,10,10)"/><rect x="330" y="20" width="10" height="10" fill="rgb(10,10,10)"/><rect x="340" y="20" width="10" height="10" fill="rgb(10,10,10)"/><rect x="350" y="20" width="10" height="10" fill="rgb(9,9,9)"/><rect x="360" y="20" width="10" height="10" fill="rgb(9,9,9)"/><rect x="370" y="20" width="10" height="10" fill="rgb(8,8,8)"/><rect x="380" y="20" width="10" height="10" fill="rgb(8,8,8)"/><rect x="390" y="20" width="10" height="10" fill="rgb(9,9,9)"/><rect x="400" y="20" width="10" height="10" fill="rgb(8,8,8)"/><rect x="410" y="20" width="10" height="10" fill="rgb(8,8,8)"/><rect x="420" y="20" width="10" height="10" fill="rgb(9,9,9)"/><rect x="430" y="20" width="10" height="10" fill="rgb(9,9,9)"/><rect x="440" y="20" width="10" height="10" fill="rgb(9,9,9)"/><rect x="450" y="20" width="10" height="10" fill="rgb(9,9,9)"/><rect x="460" y="20" width="10" height="10" fill="rgb(8,8,8)"/><rect x="470" y="20" width="10" height="10" fill="rgb(9,9,9)"/><rect x="0" y="30" width="10" height="10" fill="rgb(8,8,8)"/><rect x="10" y="30" width="10" height="10" fill="rgb(9,9,9)"/><rect x="20" y="30" width="10" height="10" fill="rgb(7,7,7)"/><rect x="30" y="30" width="10" height="10" fill="rgb(7,7,7)"/><rect x="40" y="30" width="10" height="10" fill="rgb(8,8,8)"/><rect x="50" y="30" width="10" height="10" fill="rgb(9,9,9)"/><rect x="60" y="30" width="10" height="10" fill="rgb(9,9,9)"/><rect x="70" y="30" width="10" height="10" fill="rgb(8,8,8)"/><rect x="80" y="30" width="10" height="10" fill="rgb(8,8,8)"/><rect x="90" y="30" width="10" height="10" fill="rgb(9,9,9)"/><rect x="100" y="30" width="10" height="10" fill="rgb(9,9,9)"/><rect x="110" y="30" width="10" height="10" fill="rgb(9,9,9)"/><rect x="120" y="30" width="10" height="10" fill="rgb(9,9,9)"/><rect x="130" y="30" width="10" height="10" fill="rgb(7,7,7)"/><rect x="140" y="30" width="10" height="10" fill="rgb(8,8,8)"/><rect x="150" y="30" width="10" height="10" fill="rgb(8,8,8)"/><rect x="160" y="30" width="10" height="10" fill="rgb(9,9,9)"/><rect x="170" y="30" width="10" height="10" fill="rgb(9,9,9)"/><rect x="180" y="30" width="10" height="10" fill="rgb(9,9,9)"/><rect x="190" y="30" width="10" height="10" fill="rgb(8,8,8)"/><rect x="200" y="30" width="10" height="10" fill="rgb(8,8,8)"/><rect x="210" y="30" width="10" height="10" fill="rgb(9,9,9)"/><rect x="220" y="30" width="10" height="10" fill="rgb(9,9,9)"/><rect x="230" y="30" width="10" height="10" fill="rgb(8,8,8)"/><rect x="240" y="30" width="10" height="10" fill="rgb(9,9,9)"/><rect x="250" y="30" width="10" height="10" fill="rgb(7,7,7)"/><rect x="260" y="30" width="10" height="10" fill="rgb(8,8,8)"/><rect x="270" y="30" width="10" height="10" fill="rgb(10,10,10)"/><rect x="280" y="30" width="10" height="10" fill="rgb(8,8,8)"/><rect x="290" y="30" width="10" height="10" fill="rgb(9,9,9)"/><rect x="300" y="30" width="10" height="10" fill="rgb(9,9,9)"/><rect x="310" y="30" width="10" height="10" fill="rgb(8,8,8)"/><rect x="320" y="30" width="10" height="10" fill="rgb(8,8,8)"/><rect x="330" y="30" width="10" height="10" fill="rgb(8,8,8)"/><rect x="340" y="30" width="10" height="10" fill="rgb(9,9,9)"/><rect x="350" y="30" width="10" height="10" fill="rgb(9,9,9)"/><rect x="360" y="30" width="10" height="10" fill="rgb(9,9,9)"/><rect x="370" y="30" width="10" height="10" fill="rgb(9,9,9)"/><rect x="380" y="30" width="10" height="10" fill="rgb(9,9,9)"/><rect x="390" y="30" width="10" height="10" fill="rgb(7,7,7)"/><rect x="400" y="30" width="10" height="10" fill="rgb(9,9,9)"/><rect x="410" y="30" width="10" height="10" fill="rgb(8,8,8)"/><rect x="420" y="30" width="10" height="10" fill="rgb(8,8,8)"/><rect x="430" y="30" width="10" height="10" fill="rgb(9,9,9)"/><rect x="440" y="30" width="10" height="10" fill="rgb(8,8,8)"/><rect x="450" y="30" width="10" height="10" fill="rgb(9,9,9)"/><rect x="460" y="30" width="10" height="10" fill="rgb(9,9,9)"/><rect x="470" y="30" width="10" height="10" fill="rgb(9,9,9)"/><rect x="0" y="40" width="10" height="10" fill="rgb(9,9,9)"/><rect x="10" y="40" width="10" height="10" fill="rgb(9,9,9)"/><rect x="20" y="40" width="10" height="10" fill="rgb(9,9,9)"/><rect x="30" y="40" width="10" height="10" fill="rgb(8,8,8)"/><rect x="40" y="40" width="10" height="10" fill="rgb(9,9,9)"/><rect x="50" y="40" width="10" height="10" fill="rgb(8,8,8)"/><rect x="60" y="40" width="10" height="10" fill="rgb(9,9,9)"/><rect x="70" y="40" width="10" height="10" fill="rgb(9,9,9)"/><rect x="80" y="40" width="10" height="10" fill="rgb(9,9,9)"/><rect x="90" y="40" width="10" height="10" fill="rgb(9,9,9)"/><rect x="100" y="40" width="10" height="10" fill="rgb(8,8,8)"/><rect x="110" y="40" width="10" height="10" fill="rgb(9,9,9)"/><rect x="120" y="40" width="10" height="10" fill="rgb(9,9,9)"/><rect x="130" y="40" width="10" height="10" fill="rgb(10,10,10)"/><rect x="140" y="40" width="10" height="10" fill="rgb(14,14,14)"/><rect x="150" y="40" width="10" height="10" fill="rgb(20,20,20)"/><rect x="160" y="40" width="10" height="10" fill="rgb(28,28,28)"/><rect x="170" y="40" width="10" height="10" fill="rgb(55,55,55)"/><rect x="180" y="40" width="10" height="10" fill="rgb(70,70,70)"/><rect x="190" y="40" width="10" height="10" fill="rgb(113,113,113)"/><rect x="200" y="40" width="10" height="10" fill="rgb(146,146,146)"/><rect x="210" y="40" width="10" height="10" fill="rgb(197,197,197)"/><rect x="220" y="40" width="10" height="10" fill="rgb(211,211,211)"/><rect x="230" y="40" width="10" height="10" fill="rgb(213,213,213)"/><rect x="240" y="40" width="10" height="10" fill="rgb(181,181,181)"/><rect x="250" y="40" width="10" height="10" fill="rgb(192,192,192)"/><rect x="260" y="40" width="10" height="10" fill="rgb(187,187,187)"/><rect x="270" y="40" width="10" height="10" fill="rgb(173,173,173)"/><rect x="280" y="40" width="10" height="10" fill="rgb(172,172,172)"/><rect x="290" y="40" width="10" height="10" fill="rgb(175,175,188)"/><rect x="300" y="40" width="10" height="10" fill="rgb(159,161,180)"/><rect x="310" y="40" width="10" height="10" fill="rgb(144,147,169)"/><rect x="320" y="40" width="10" height="10" fill="rgb(166,168,188)"/><rect x="330" y="40" width="10" height="10" fill="rgb(166,168,187)"/><rect x="340" y="40" width="10" height="10" fill="rgb(192,190,201)"/><rect x="350" y="40" width="10" height="10" fill="rgb(186,186,196)"/><rect x="360" y="40" width="10" height="10" fill="rgb(173,175,191)"/><rect x="370" y="40" width="10" height="10" fill="rgb(141,153,181)"/><rect x="380" y="40" width="10" height="10" fill="rgb(132,145,171)"/><rect x="390" y="40" width="10" height="10" fill="rgb(130,138,160)"/><rect x="400" y="40" width="10" height="10" fill="rgb(100,116,147)"/><rect x="410" y="40" width="10" height="10" fill="rgb(96,110,139)"/><rect x="420" y="40" width="10" height="10" fill="rgb(113,126,149)"/><rect x="430" y="40" width="10" height="10" fill="rgb(124,132,155)"/><rect x="440" y="40" width="10" height="10" fill="rgb(156,157,171)"/><rect x="450" y="40" width="10" height="10" fill="rgb(160,158,168)"/><rect x="460" y="40" width="10" height="10" fill="rgb(171,170,176)"/><rect x="470" y="40" width="10" height="10" fill="rgb(179,178,184)"/><rect x="0" y="50" width="10" height="10" fill="rgb(171,170,179)"/><rect x="10" y="50" width="10" height="10" fill="rgb(162,165,176)"/><rect x="20" y="50" width="10" height="10" fill="rgb(163,164,175)"/><rect x="30" y="50" width="10" height="10" fill="rgb(200,201,211)"/><rect x="40" y="50" width="10" height="10" fill="rgb(165,175,194)"/><rect x="50" y="50" width="10" height="10" fill="rgb(161,162,171)"/><rect x="60" y="50" width="10" height="10" fill="rgb(152,152,157)"/><rect x="70" y="50" width="10" height="10" fill="rgb(154,152,158)"/><rect x="80" y="50" width="10" height="10" fill="rgb(141,142,151)"/><rect x="90" y="50" width="10" height="10" fill="rgb(158,155,161)"/><rect x="100" y="50" width="10" height="10" fill="rgb(161,156,159)"/><rect x="110" y="50" width="10" height="10" fill="rgb(169,164,165)"/><rect x="120" y="50" width="10" height="10" fill="rgb(170,164,166)"/><rect x="130" y="50" width="10" height="10" fill="rgb(170,166,173)"/><rect x="140" y="50" width="10" height="10" fill="rgb(168,168,176)"/><rect x="150" y="50" width="10" height="10" fill="rgb(193,184,184)"/><rect x="160" y="50" width="10" height="10" fill="rgb(185,180,183)"/><rect x="170" y="50" width="10" height="10" fill="rgb(190,184,187)"/><rect x="180" y="50" width="10" height="10" fill="rgb(200,188,186)"/><rect x="190" y="50" width="10" height="10" fill="rgb(189,181,183)"/><rect x="200" y="50" width="10" height="10" fill="rgb(205,191,186)"/><rect x="210" y="50" width="10" height="10" fill="rgb(202,189,185)"/><rect x="220" y="50" width="10" height="10" fill="rgb(210,196,190)"/><rect x="230" y="50" width="10" height="10" fill="rgb(209,194,186)"/><rect x="240" y="50" width="10" height="10" fill="rgb(220,205,198)"/><rect x="250" y="50" width="10" height="10" fill="rgb(215,201,193)"/><rect x="260" y="50" width="10" height="10" fill="rgb(200,186,183)"/><rect x="270" y="50" width="10" height="10" fill="rgb(189,177,173)"/><rect x="280" y="50" width="10" height="10" fill="rgb(199,187,184)"/><rect x="290" y="50" width="10" height="10" fill="rgb(192,182,181)"/><rect x="300" y="50" width="10" height="10" fill="rgb(197,183,178)"/><rect x="310" y="50" width="10" height="10" fill="rgb(201,190,185)"/><rect x="320" y="50" width="10" height="10" fill="rgb(198,187,185)"/><rect x="330" y="50" width="10" height="10" fill="rgb(179,171,169)"/><rect x="340" y="50" width="10" height="10" fill="rgb(216,206,202)"/><rect x="350" y="50" width="10" height="10" fill="rgb(196,187,187)"/><rect x="360" y="50" width="10" height="10" fill="rgb(197,188,189)"/><rect x="370" y="50" width="10" height="10" fill="rgb(191,184,188)"/><rect x="380" y="50" width="10" height="10" fill="rgb(199,189,189)"/><rect x="390" y="50" width="10" height="10" fill="rgb(198,189,190)"/><rect x="400" y="50" width="10" height="10" fill="rgb(174,174,181)"/><rect x="410" y="50" width="10" height="10" fill="rgb(171,169,179)"/><rect x="420" y="50" width="10" height="10" fill="rgb(188,185,195)"/><rect x="430" y="50" width="10" height="10" fill="rgb(209,201,204)"/><rect x="440" y="50" width="10" height="10" fill="rgb(219,211,212)"/><rect x="450" y="50" width="10" height="10" fill="rgb(200,195,200)"/><rect x="460" y="50" width="10" height="10" fill="rgb(187,185,193)"/><rect x="470" y="50" width="10" height="10" fill="rgb(193,192,205)"/><rect x="0" y="60" width="10" height="10" fill="rgb(195,191,200)"/><rect x="10" y="60" width="10" height="10" fill="rgb(199,198,208)"/><rect x="20" y="60" width="10" height="10" fill="rgb(214,216,224)"/><rect x="30" y="60" width="10" height="10" fill="rgb(215,215,225)"/><rect x="40" y="60" width="10" height="10" fill="rgb(221,219,227)"/><rect x="50" y="60" width="10" height="10" fill="rgb(218,218,228)"/><rect x="60" y="60" width="10" height="10" fill="rgb(193,194,212)"/><rect x="70" y="60" width="10" height="10" fill="rgb(193,197,214)"/><rect x="80" y="60" width="10" height="10" fill="rgb(195,195,206)"/><rect x="90" y="60" width="10" height="10" fill="rgb(204,203,217)"/><rect x="100" y="60" width="10" height="10" fill="rgb(213,213,224)"/><rect x="110" y="60" width="10" height="10" fill="rgb(206,207,222)"/><rect x="120" y="60" width="10" height="10" fill="rgb(221,222,235)"/><rect x="130" y="60" width="10" height="10" fill="rgb(216,218,233)"/><rect x="140" y="60" width="10" height="10" fill="rgb(200,204,226)"/><rect x="150" y="60" width="10" height="10" fill="rgb(198,204,227)"/><rect x="160" y="60" width="10" height="10" fill="rgb(197,204,230)"/><rect x="170" y="60" width="10" height="10" fill="rgb(189,197,222)"/><rect x="180" y="60" width="10" height="10" fill="rgb(204,208,225)"/><rect x="190" y="60" width="10" height="10" fill="rgb(214,213,224)"/><rect x="200" y="60" width="10" height="10" fill="rgb(222,221,229)"/></svg>