<svg xmlns="http://www.w3.org/2000/svg" width="480" height="10"><rect x="0" y="0" width="10" height="10" fill="rgb(227,230,244)"/><rect x="10" y="0" width="10" height="10" fill="rgb(214,218,240)"/><rect x="20" y="0" width="10" height="10" fill="rgb(193,198,222)"/><rect x="30" y="0" width="10" height="10" fill="rgb(190,198,223)"/><rect x="40" y="0" width="10" height="10" fill="rgb(211,218,240)"/><rect x="50" y="0" width="10" height="10" fill="rgb(196,204,222)"/><rect x="60" y="0" width="10" height="10" fill="rgb(214,222,239)"/><rect x="70" y="0" width="10" height="10" fill="rgb(219,227,246)"/><rect x="80" y="0" width="10" height="10" fill="rgb(221,228,241)"/><rect x="90" y="0" width="10" height="10" fill="rgb(222,229,243)"/><rect x="100" y="0" width="10" height="10" fill="rgb(228,235,248)"/><rect x="110" y="0" width="10" height="10" fill="rgb(225,232,247)"/><rect x="120" y="0" width="10" height="10" fill="rgb(228,234,247)"/><rect x="130" y="0" width="10" height="10" fill="rgb(227,233,245)"/><rect x="140" y="0" width="10" height="10" fill="rgb(222,229,241)"/><rect x="150" y="0" width="10" height="10" fill="rgb(222,228,243)"/><rect x="160" y="0" width="10" height="10" fill="rgb(224,232,247)"/><rect x="170" y="0" width="10" height="10" fill="rgb(220,226,242)"/><rect x="180" y="0" width="10" height="10" fill="rgb(219,225,241)"/><rect x="190" y="0" width="10" height="10" fill="rgb(204,215,236)"/><rect x="200" y="0" width="10" height="10" fill="rgb(201,216,240)"/><rect x="210" y="0" width="10" height="10" fill="rgb(205,219,241)"/><rect x="220" y="0" width="10" height="10" fill="rgb(192,209,237)"/><rect x="230" y="0" width="10" height="10" fill="rgb(192,208,236)"/><rect x="240" y="0" width="10" height="10" fill="rgb(176,199,235)"/><rect x="250" y="0" width="10" height="10" fill="rgb(181,202,237)"/><rect x="260" y="0" width="10" height="10" fill="rgb(180,202,237)"/><rect x="270" y="0" width="10" height="10" fill="rgb(187,205,237)"/><rect x="280" y="0" width="10" height="10" fill="rgb(189,207,237)"/><rect x="290" y="0" width="10" height="10" fill="rgb(190,206,236)"/><rect x="300" y="0" width="10" height="10" fill="rgb(183,200,231)"/><rect x="310" y="0" width="10" height="10" fill="rgb(186,201,231)"/><rect x="320" y="0" width="10" height="10" fill="rgb(192,205,231)"/><rect x="330" y="0" width="10" height="10" fill="rgb(207,218,239)"/><rect x="340" y="0" width="10" height="10" fill="rgb(210,220,238)"/><rect x="350" y="0" width="10" height="10" fill="rgb(205,215,235)"/><rect x="360" y="0" width="10" height="10" fill="rgb(219,225,241)"/><rect x="370" y="0" width="10" height="10" fill="rgb(224,228,242)"/><rect x="380" y="0" width="10" height="10" fill="rgb(218,223,240)"/><rect x="390" y="0" width="10" height="10" fill="rgb(214,223,238)"/><rect x="400" y="0" width="10" height="10" fill="rgb(217,225,238)"/><rect x="410" y="0" width="10" height="10" fill="rgb(212,221,237)"/><rect x="420" y="0" width="10" height="10" fill="rgb(200,211,231)"/><rect x="430" y="0" width="10" height="10" fill="rgb(200,212,233)"/></svg>