<svg xmlns="http://www.w3.org/2000/svg" width="100" height="650"><rect x="0" y="0" width="10" height="10" fill="rgb(206,249,253)"/><rect x="10" y="0" width="10" height="10" fill="rgb(206,249,253)"/><rect x="20" y="0" width="10" height="10" fill="rgb(206,249,253)"/><rect x="30" y="0" width="10" height="10" fill="rgb(201,201,201)"/><rect x="40" y="0" width="10" height="10" fill="rgb(201,201,201)"/><rect x="50" y="0" width="10" height="10" fill="rgb(201,201,201)"/><rect x="60" y="0" width="10" height="10" fill="rgb(87,87,87)"/><rect x="70" y="0" width="10" height="10" fill="rgb(87,87,87)"/><rect x="80" y="0" width="10" height="10" fill="rgb(87,87,87)"/><rect x="90" y="0" width="10" height="10" fill="rgb(42,42,42)"/><rect x="0" y="10" width="10" height="10" fill="rgb(42,42,42)"/><rect x="10" y="10" width="10" height="10" fill="rgb(42,42,42)"/><rect x="20" y="10" width="10" height="10" fill="rgb(28,28,28)"/><rect x="30" y="10" width="10" height="10" fill="rgb(28,28,28)"/><rect x="40" y="10" width="10" height="10" fill="rgb(28,28,28)"/><rect x="50" y="10" width="10" height="10" fill="rgb(30,30,30)"/><rect x="60" y="10" width="10" height="10" fill="rgb(30,30,30)"/><rect x="70" y="10" width="10" height="10" fill="rgb(30,30,30)"/><rect x="80" y="10" width="10" height="10" fill="rgb(32,32,32)"/><rect x="90" y="10" width="10" height="10" fill="rgb(32,32,32)"/><rect x="0" y="20" width="10" height="10" fill="rgb(32,32,32)"/><rect x="10" y="20" width="10" height="10" fill="rgb(22,22,22)"/><rect x="20" y="20" width="10" height="10" fill="rgb(22,22,22)"/><rect x="30" y="20" width="10" height="10" fill="rgb(22,22,22)"/><rect x="40" y="20" width="10" height="10" fill="rgb(22,22,22)"/><rect x="50" y="20" width="10" height="10" fill="rgb(22,22,22)"/><rect x="60" y="20" width="10" height="10" fill="rgb(22,22,22)"/><rect x="70" y="20" width="10" height="10" fill="rgb(21,21,21)"/><rect x="80" y="20" width="10" height="10" fill="rgb(21,21,21)"/><rect x="90" y="20" width="10" height="10" fill="rgb(21,21,21)"/><rect x="0" y="30" width="10" height="10" fill="rgb(21,21,21)"/><rect x="10" y="30" width="10" height="10" fill="rgb(21,21,21)"/><rect x="20" y="30" width="10" height="10" fill="rgb(21,21,21)"/><rect x="30" y="30" width="10" height="10" fill="rgb(21,21,21)"/><rect x="40" y="30" width="10" height="10" fill="rgb(21,21,21)"/><rect x="50" y="30" width="10" height="10" fill="rgb(21,21,21)"/><rect x="60" y="30" width="10" height="10" fill="rgb(21,21,21)"/><rect x="70" y="30" width="10" height="10" fill="rgb(21,21,21)"/><rect x="80" y="30" width="10" height="10" fill="rgb(21,21,21)"/><rect x="90" y="30" width="10" height="10" fill="rgb(22,22,22)"/><rect x="0" y="40" width="10" height="10" fill="rgb(22,22,22)"/><rect x="10" y="40" width="10" height="10" fill="rgb(22,22,22)"/><rect x="20" y="40" width="10" height="10" fill="rgb(22,22,22)"/><rect x="30" y="40" width="10" height="10" fill="rgb(22,22,22)"/><rect x="40" y="40" width="10" height="10" fill="rgb(22,22,22)"/><rect x="50" y="40" width="10" height="10" fill="rgb(22,22,22)"/><rect x="60" y="40" width="10" height="10" fill="rgb(22,22,22)"/><rect x="70" y="40" width="10" height="10" fill="rgb(22,22,22)"/><rect x="80" y="40" width="10" height="10" fill="rgb(29,29,29)"/><rect x="90" y="40" width="10" height="10" fill="rgb(29,29,29)"/><rect x="0" y="50" width="10" height="10" fill="rgb(29,29,29)"/><rect x="10" y="50" width="10" height="10" fill="rgb(27,27,27)"/><rect x="20" y="50" width="10" height="10" fill="rgb(27,27,27)"/><rect x="30" y="50" width="10" height="10" fill="rgb(27,27,27)"/><rect x="40" y="50" width="10" height="10" fill="rgb(23,23,23)"/><rect x="50" y="50" width="10" height="10" fill="rgb(23,23,23)"/><rect x="60" y="50" width="10" height="10" fill="rgb(23,23,23)"/><rect x="70" y="50" width="10" height="10" fill="rgb(24,24,24)"/><rect x="80" y="50" width="10" height="10" fill="rgb(24,24,24)"/><rect x="90" y="50" width="10" height="10" fill="rgb(24,24,24)"/><rect x="0" y="60" width="10" height="10" fill="rgb(24,24,24)"/><rect x="10" y="60" width="10" height="10" fill="rgb(24,24,24)"/><rect x="20" y="60" width="10" height="10" fill="rgb(24,24,24)"/><rect x="30" y="60" width="10" height="10" fill="rgb(23,23,23)"/><rect x="40" y="60" width="10" height="10" fill="rgb(23,23,23)"/><rect x="50" y="60" width="10" height="10" fill="rgb(23,23,23)"/><rect x="60" y="60" width="10" height="10" fill="rgb(24,24,24)"/><rect x="70" y="60" width="10" height="10" fill="rgb(24,24,24)"/><rect x="80" y="60" width="10" height="10" fill="rgb(24,24,24)"/><rect x="90" y="60" width="10" height="10" fill="rgb(25,25,25)"/><rect x="0" y="70" width="10" height="10" fill="rgb(25,25,25)"/><rect x="10" y="70" width="10" height="10" fill="rgb(25,25,25)"/><rect x="20" y="70" width="10" height="10" fill="rgb(26,26,26)"/><rect x="30" y="70" width="10" height="10" fill="rgb(26,26,26)"/><rect x="40" y="70" width="10" height="10" fill="rgb(26,26,26)"/><rect x="50" y="70" width="10" height="10" fill="rgb(24,24,24)"/><rect x="60" y="70" width="10" height="10" fill="rgb(24,24,24)"/><rect x="70" y="70" width="10" height="10" fill="rgb(24,24,24)"/><rect x="80" y="70" width="10" height="10" fill="rgb(25,25,25)"/><rect x="90" y="70" width="10" height="10" fill="rgb(25,25,25)"/><rect x="0" y="80" width="10" height="10" fill="rgb(25,25,25)"/><rect x="10" y="80" width="10" height="10" fill="rgb(27,27,27)"/><rect x="20" y="80" width="10" height="10" fill="rgb(27,27,27)"/><rect x="30" y="80" width="10" height="10" fill="rgb(27,27,27)"/><rect x="40" y="80" width="10" height="10" fill="rgb(25,25,25)"/><rect x="50" y="80" width="10" height="10" fill="rgb(25,25,25)"/><rect x="60" y="80" width="10" height="10" fill="rgb(25,25,25)"/><rect x="70" y="80" width="10" height="10" fill="rgb(33,33,33)"/><rect x="80" y="80" width="10" height="10" fill="rgb(33,33,33)"/><rect x="90" y="80" width="10" height="10" fill="rgb(33,33,33)"/><rect x="0" y="90" width="10" height="10" fill="rgb(30,30,30)"/><rect x="10" y="90" width="10" height="10" fill="rgb(30,30,30)"/><rect x="20" y="90" width="10" height="10" fill="rgb(30,30,30)"/><rect x="30" y="90" width="10" height="10" fill="rgb(33,33,33)"/><rect x="40" y="90" width="10" height="10" fill="rgb(33,33,33)"/><rect x="50" y="90" width="10" height="10" fill="rgb(33,33,33)"/><rect x="60" y="90" width="10" height="10" fill="rgb(40,40,40)"/><rect x="70" y="90" width="10" height="10" fill="rgb(40,40,40)"/><rect x="80" y="90" width="10" height="10" fill="rgb(40,40,40)"/><rect x="90" y="90" width="10" height="10" fill="rgb(34,34,34)"/><rect x="0" y="100" width="10" height="10" fill="rgb(34,34,34)"/><rect x="10" y="100" width="10" height="10" fill="rgb(34,34,34)"/><rect x="20" y="100" width="10" height="10" fill="rgb(126,126,126)"/><rect x="30" y="100" width="10" height="10" fill="rgb(126,126,126)"/><rect x="40" y="100" width="10" height="10" fill="rgb(126,126,126)"/><rect x="50" y="100" width="10" height="10" fill="rgb(232,232,232)"/><rect x="60" y="100" width="10" height="10" fill="rgb(232,232,232)"/><rect x="70" y="100" width="10" height="10" fill="rgb(232,232,232)"/><rect x="80" y="100" width="10" height="10" fill="rgb(220,251,253)"/><rect x="90" y="100" width="10" height="10" fill="rgb(220,251,253)"/><rect x="0" y="110" width="10" height="10" fill="rgb(220,251,253)"/><rect x="10" y="110" width="10" height="10" fill="rgb(237,255,254)"/><rect x="20" y="110" width="10" height="10" fill="rgb(237,255,254)"/><rect x="30" y="110" width="10" height="10" fill="rgb(237,255,254)"/><rect x="40" y="110" width="10" height="10" fill="rgb(235,254,254)"/><rect x="50" y="110" width="10" height="10" fill="rgb(235,254,254)"/><rect x="60" y="110" width="10" height="10" fill="rgb(235,254,254)"/><rect x="70" y="110" width="10" height="10" fill="rgb(236,254,254)"/><rect x="80" y="110" width="10" height="10" fill="rgb(236,254,254)"/><rect x="90" y="110" width="10" height="10" fill="rgb(236,254,254)"/><rect x="0" y="120" width="10" height="10" fill="rgb(238,247,253)"/><rect x="10" y="120" width="10" height="10" fill="rgb(238,247,253)"/><rect x="20" y="120" width="10" height="10" fill="rgb(238,247,253)"/><rect x="30" y="120" width="10" height="10" fill="rgb(240,252,255)"/><rect x="40" y="120" width="10" height="10" fill="rgb(240,252,255)"/><rect x="50" y="120" width="10" height="10" fill="rgb(240,252,255)"/><rect x="60" y="120" width="10" height="10" fill="rgb(246,252,255)"/><rect x="70" y="120" width="10" height="10" fill="rgb(246,252,255)"/><rect x="80" y="120" width="10" height="10" fill="rgb(246,252,255)"/><rect x="90" y="120" width="10" height="10" fill="rgb(250,251,253)"/><rect x="0" y="130" width="10" height="10" fill="rgb(250,251,253)"/><rect x="10" y="130" width="10" height="10" fill="rgb(250,251,253)"/><rect x="20" y="130" width="10" height="10" fill="rgb(237,248,254)"/><rect x="30" y="130" width="10" height="10" fill="rgb(237,248,254)"/><rect x="40" y="130" width="10" height="10" fill="rgb(237,248,254)"/><rect x="50" y="130" width="10" height="10" fill="rgb(239,250,254)"/><rect x="60" y="130" width="10" height="10" fill="rgb(239,250,254)"/><rect x="70" y="130" width="10" height="10" fill="rgb(239,250,254)"/><rect x="80" y="130" width="10" height="10" fill="rgb(243,249,254)"/><rect x="90" y="130" width="10" height="10" fill="rgb(243,249,254)"/><rect x="0" y="140" width="10" height="10" fill="rgb(243,249,254)"/><rect x="10" y="140" width="10" height="10" fill="rgb(239,252,254)"/><rect x="20" y="140" width="10" height="10" fill="rgb(239,252,254)"/><rect x="30" y="140" width="10" height="10" fill="rgb(239,252,254)"/><rect x="40" y="140" width="10" height="10" fill="rgb(231,245,254)"/><rect x="50" y="140" width="10" height="10" fill="rgb(231,245,254)"/><rect x="60" y="140" width="10" height="10" fill="rgb(231,245,254)"/><rect x="70" y="140" width="10" height="10" fill="rgb(243,251,254)"/><rect x="80" y="140" width="10" height="10" fill="rgb(243,251,254)"/><rect x="90" y="140" width="10" height="10" fill="rgb(243,251,254)"/><rect x="0" y="150" width="10" height="10" fill="rgb(248,252,254)"/><rect x="10" y="150" width="10" height="10" fill="rgb(248,252,254)"/><rect x="20" y="150" width="10" height="10" fill="rgb(248,252,254)"/><rect x="30" y="150" width="10" height="10" fill="rgb(254,255,255)"/><rect x="40" y="150" width="10" height="10" fill="rgb(254,255,255)"/><rect x="50" y="150" width="10" height="10" fill="rgb(254,255,255)"/><rect x="60" y="150" width="10" height="10" fill="rgb(240,251,254)"/><rect x="70" y="150" width="10" height="10" fill="rgb(240,251,254)"/><rect x="80" y="150" width="10" height="10" fill="rgb(240,251,254)"/><rect x="90" y="150" width="10" height="10" fill="rgb(232,251,254)"/><rect x="0" y="160" width="10" height="10" fill="rgb(232,251,254)"/><rect x="10" y="160" width="10" height="10" fill="rgb(232,251,254)"/><rect x="20" y="160" width="10" height="10" fill="rgb(233,253,254)"/><rect x="30" y="160" width="10" height="10" fill="rgb(233,253,254)"/><rect x="40" y="160" width="10" height="10" fill="rgb(233,253,254)"/><rect x="50" y="160" width="10" height="10" fill="rgb(225,252,254)"/><rect x="60" y="160" width="10" height="10" fill="rgb(225,252,254)"/><rect x="70" y="160" width="10" height="10" fill="rgb(225,252,254)"/><rect x="80" y="160" width="10" height="10" fill="rgb(218,248,253)"/><rect x="90" y="160" width="10" height="10" fill="rgb(218,248,253)"/><rect x="0" y="170" width="10" height="10" fill="rgb(218,248,253)"/><rect x="10" y="170" width="10" height="10" fill="rgb(237,253,253)"/><rect x="20" y="170" width="10" height="10" fill="rgb(237,253,253)"/><rect x="30" y="170" width="10" height="10" fill="rgb(237,253,253)"/><rect x="40" y="170" width="10" height="10" fill="rgb(213,245,253)"/><rect x="50" y="170" width="10" height="10" fill="rgb(213,245,253)"/><rect x="60" y="170" width="10" height="10" fill="rgb(213,245,253)"/><rect x="70" y="170" width="10" height="10" fill="rgb(209,245,254)"/><rect x="80" y="170" width="10" height="10" fill="rgb(209,245,254)"/><rect x="90" y="170" width="10" height="10" fill="rgb(209,245,254)"/><rect x="0" y="180" width="10" height="10" fill="rgb(207,242,254)"/><rect x="10" y="180" width="10" height="10" fill="rgb(207,242,254)"/><rect x="20" y="180" width="10" height="10" fill="rgb(207,242,254)"/><rect x="30" y="180" width="10" height="10" fill="rgb(199,237,254)"/><rect x="40" y="180" width="10" height="10" fill="rgb(199,237,254)"/><rect x="50" y="180" width="10" height="10" fill="rgb(199,237,254)"/><rect x="60" y="180" width="10" height="10" fill="rgb(202,237,254)"/><rect x="70" y="180" width="10" height="10" fill="rgb(202,237,254)"/><rect x="80" y="180" width="10" height="10" fill="rgb(202,237,254)"/><rect x="90" y="180" width="10" height="10" fill="rgb(187,228,254)"/><rect x="0" y="190" width="10" height="10" fill="rgb(187,228,254)"/><rect x="10" y="190" width="10" height="10" fill="rgb(187,228,254)"/><rect x="20" y="190" width="10" height="10" fill="rgb(187,229,254)"/><rect x="30" y="190" width="10" height="10" fill="rgb(187,229,254)"/><rect x="40" y="190" width="10" height="10" fill="rgb(187,229,254)"/><rect x="50" y="190" width="10" height="10" fill="rgb(191,227,254)"/><rect x="60" y="190" width="10" height="10" fill="rgb(191,227,254)"/><rect x="70" y="190" width="10" height="10" fill="rgb(191,227,254)"/><rect x="80" y="190" width="10" height="10" fill="rgb(200,231,254)"/><rect x="90" y="190" width="10" height="10" fill="rgb(200,231,254)"/><rect x="0" y="200" width="10" height="10" fill="rgb(200,231,254)"/><rect x="10" y="200" width="10" height="10" fill="rgb(195,224,253)"/><rect x="20" y="200" width="10" height="10" fill="rgb(195,224,253)"/><rect x="30" y="200" width="10" height="10" fill="rgb(195,224,253)"/><rect x="40" y="200" width="10" height="10" fill="rgb(194,223,253)"/><rect x="50" y="200" width="10" height="10" fill="rgb(194,223,253)"/><rect x="60" y="200" width="10" height="10" fill="rgb(194,223,253)"/><rect x="70" y="200" width="10" height="10" fill="rgb(219,252,254)"/><rect x="80" y="200" width="10" height="10" fill="rgb(219,252,254)"/><rect x="90" y="200" width="10" height="10" fill="rgb(219,252,254)"/><rect x="0" y="210" width="10" height="10" fill="rgb(213,249,254)"/><rect x="10" y="210" width="10" height="10" fill="rgb(213,249,254)"/><rect x="20" y="210" width="10" height="10" fill="rgb(213,249,254)"/><rect x="30" y="210" width="10" height="10" fill="rgb(219,245,254)"/><rect x="40" y="210" width="10" height="10" fill="rgb(219,245,254)"/><rect x="50" y="210" width="10" height="10" fill="rgb(219,245,254)"/><rect x="60" y="210" width="10" height="10" fill="rgb(238,253,254)"/><rect x="70" y="210" width="10" height="10" fill="rgb(238,253,254)"/><rect x="80" y="210" width="10" height="10" fill="rgb(238,253,254)"/><rect x="90" y="210" width="10" height="10" fill="rgb(189,212,247)"/><rect x="0" y="220" width="10" height="10" fill="rgb(189,212,247)"/><rect x="10" y="220" width="10" height="10" fill="rgb(189,212,247)"/><rect x="20" y="220" width="10" height="10" fill="rgb(249,254,254)"/><rect x="30" y="220" width="10" height="10" fill="rgb(249,254,254)"/><rect x="40" y="220" width="10" height="10" fill="rgb(249,254,254)"/><rect x="50" y="220" width="10" height="10" fill="rgb(244,251,254)"/><rect x="60" y="220" width="10" height="10" fill="rgb(244,251,254)"/><rect x="70" y="220" width="10" height="10" fill="rgb(244,251,254)"/><rect x="80" y="220" width="10" height="10" fill="rgb(227,245,253)"/><rect x="90" y="220" width="10" height="10" fill="rgb(227,245,253)"/><rect x="0" y="230" width="10" height="10" fill="rgb(227,245,253)"/><rect x="10" y="230" width="10" height="10" fill="rgb(246,254,254)"/><rect x="20" y="230" width="10" height="10" fill="rgb(246,254,254)"/><rect x="30" y="230" width="10" height="10" fill="rgb(246,254,254)"/><rect x="40" y="230" width="10" height="10" fill="rgb(234,249,253)"/><rect x="50" y="230" width="10" height="10" fill="rgb(234,249,253)"/><rect x="60" y="230" width="10" height="10" fill="rgb(234,249,253)"/><rect x="70" y="230" width="10" height="10" fill="rgb(195,219,250)"/><rect x="80" y="230" width="10" height="10" fill="rgb(195,219,250)"/><rect x="90" y="230" width="10" height="10" fill="rgb(195,219,250)"/><rect x="0" y="240" width="10" height="10" fill="rgb(168,192,229)"/><rect x="10" y="240" width="10" height="10" fill="rgb(168,192,229)"/><rect x="20" y="240" width="10" height="10" fill="rgb(168,192,229)"/><rect x="30" y="240" width="10" height="10" fill="rgb(201,226,251)"/><rect x="40" y="240" width="10" height="10" fill="rgb(201,226,251)"/><rect x="50" y="240" width="10" height="10" fill="rgb(201,226,251)"/><rect x="60" y="240" width="10" height="10" fill="rgb(203,227,251)"/><rect x="70" y="240" width="10" height="10" fill="rgb(203,227,251)"/><rect x="80" y="240" width="10" height="10" fill="rgb(203,227,251)"/><rect x="90" y="240" width="10" height="10" fill="rgb(164,188,223)"/><rect x="0" y="250" width="10" height="10" fill="rgb(164,188,223)"/><rect x="10" y="250" width="10" height="10" fill="rgb(164,188,223)"/><rect x="20" y="250" width="10" height="10" fill="rgb(236,251,254)"/><rect x="30" y="250" width="10" height="10" fill="rgb(236,251,254)"/><rect x="40" y="250" width="10" height="10" fill="rgb(236,251,254)"/><rect x="50" y="250" width="10" height="10" fill="rgb(214,243,253)"/><rect x="60" y="250" width="10" height="10" fill="rgb(195,255,254)"/><rect x="70" y="250" width="10" height="10" fill="rgb(195,255,254)"/><rect x="80" y="250" width="10" height="10" fill="rgb(195,255,254)"/><rect x="90" y="250" width="10" height="10" fill="rgb(187,254,254)"/><rect x="0" y="260" width="10" height="10" fill="rgb(187,254,254)"/><rect x="10" y="260" width="10" height="10" fill="rgb(187,254,254)"/><rect x="20" y="260" width="10" height="10" fill="rgb(214,243,253)"/><rect x="30" y="260" width="10" height="10" fill="rgb(214,243,253)"/><rect x="40" y="260" width="10" height="10" fill="rgb(177,206,244)"/><rect x="50" y="260" width="10" height="10" fill="rgb(177,206,244)"/><rect x="60" y="260" width="10" height="10" fill="rgb(177,206,244)"/><rect x="70" y="260" width="10" height="10" fill="rgb(197,232,253)"/><rect x="80" y="260" width="10" height="10" fill="rgb(197,232,253)"/><rect x="90" y="260" width="10" height="10" fill="rgb(197,232,253)"/><rect x="0" y="270" width="10" height="10" fill="rgb(239,254,254)"/><rect x="10" y="270" width="10" height="10" fill="rgb(239,254,254)"/><rect x="20" y="270" width="10" height="10" fill="rgb(239,254,254)"/><rect x="30" y="270" width="10" height="10" fill="rgb(226,252,254)"/><rect x="40" y="270" width="10" height="10" fill="rgb(226,252,254)"/><rect x="50" y="270" width="10" height="10" fill="rgb(226,252,254)"/><rect x="60" y="270" width="10" height="10" fill="rgb(230,250,253)"/><rect x="70" y="270" width="10" height="10" fill="rgb(230,250,253)"/><rect x="80" y="270" width="10" height="10" fill="rgb(230,250,253)"/><rect x="90" y="270" width="10" height="10" fill="rgb(225,247,253)"/><rect x="0" y="280" width="10" height="10" fill="rgb(225,247,253)"/><rect x="10" y="280" width="10" height="10" fill="rgb(225,247,253)"/><rect x="20" y="280" width="10" height="10" fill="rgb(255,255,255)"/><rect x="30" y="280" width="10" height="10" fill="rgb(255,255,255)"/><rect x="40" y="280" width="10" height="10" fill="rgb(255,255,255)"/><rect x="50" y="280" width="10" height="10" fill="rgb(253,255,255)"/><rect x="60" y="280" width="10" height="10" fill="rgb(253,255,255)"/><rect x="70" y="280" width="10" height="10" fill="rgb(253,255,255)"/><rect x="80" y="280" width="10" height="10" fill="rgb(247,255,254)"/><rect x="90" y="280" width="10" height="10" fill="rgb(247,255,254)"/><rect x="0" y="290" width="10" height="10" fill="rgb(247,255,254)"/><rect x="10" y="290" width="10" height="10" fill="rgb(189,250,254)"/><rect x="20" y="290" width="10" height="10" fill="rgb(189,250,254)"/><rect x="30" y="290" width="10" height="10" fill="rgb(189,250,254)"/><rect x="40" y="290" width="10" height="10" fill="rgb(240,254,253)"/><rect x="50" y="290" width="10" height="10" fill="rgb(240,254,253)"/><rect x="60" y="290" width="10" height="10" fill="rgb(240,254,253)"/><rect x="70" y="290" width="10" height="10" fill="rgb(189,189,189)"/><rect x="80" y="290" width="10" height="10" fill="rgb(189,189,189)"/><rect x="90" y="290" width="10" height="10" fill="rgb(189,189,189)"/><rect x="0" y="300" width="10" height="10" fill="rgb(98,98,98)"/><rect x="10" y="300" width="10" height="10" fill="rgb(98,98,98)"/><rect x="20" y="300" width="10" height="10" fill="rgb(98,98,98)"/><rect x="30" y="300" width="10" height="10" fill="rgb(65,65,65)"/><rect x="40" y="300" width="10" height="10" fill="rgb(65,65,65)"/><rect x="50" y="300" width="10" height="10" fill="rgb(65,65,65)"/><rect x="60" y="300" width="10" height="10" fill="rgb(35,35,35)"/><rect x="70" y="300" width="10" height="10" fill="rgb(35,35,35)"/><rect x="80" y="300" width="10" height="10" fill="rgb(35,35,35)"/><rect x="90" y="300" width="10" height="10" fill="rgb(25,25,25)"/><rect x="0" y="310" width="10" height="10" fill="rgb(25,25,25)"/><rect x="10" y="310" width="10" height="10" fill="rgb(25,25,25)"/><rect x="20" y="310" width="10" height="10" fill="rgb(25,25,25)"/><rect x="30" y="310" width="10" height="10" fill="rgb(25,25,25)"/><rect x="40" y="310" width="10" height="10" fill="rgb(25,25,25)"/><rect x="50" y="310" width="10" height="10" fill="rgb(26,26,26)"/><rect x="60" y="310" width="10" height="10" fill="rgb(26,26,26)"/><rect x="70" y="310" width="10" height="10" fill="rgb(26,26,26)"/><rect x="80" y="310" width="10" height="10" fill="rgb(27,27,27)"/><rect x="90" y="310" width="10" height="10" fill="rgb(27,27,27)"/><rect x="0" y="320" width="10" height="10" fill="rgb(27,27,27)"/><rect x="10" y="320" width="10" height="10" fill="rgb(31,31,31)"/><rect x="20" y="320" width="10" height="10" fill="rgb(31,31,31)"/><rect x="30" y="320" width="10" height="10" fill="rgb(31,31,31)"/><rect x="40" y="320" width="10" height="10" fill="rgb(43,43,43)"/><rect x="50" y="320" width="10" height="10" fill="rgb(43,43,43)"/><rect x="60" y="320" width="10" height="10" fill="rgb(43,43,43)"/><rect x="70" y="320" width="10" height="10" fill="rgb(31,31,31)"/><rect x="80" y="320" width="10" height="10" fill="rgb(31,31,31)"/><rect x="90" y="320" width="10" height="10" fill="rgb(31,31,31)"/><rect x="0" y="330" width="10" height="10" fill="rgb(29,29,29)"/><rect x="10" y="330" width="10" height="10" fill="rgb(29,29,29)"/><rect x="20" y="330" width="10" height="10" fill="rgb(29,29,29)"/><rect x="30" y="330" width="10" height="10" fill="rgb(109,109,109)"/><rect x="40" y="330" width="10" height="10" fill="rgb(109,109,109)"/><rect x="50" y="330" width="10" height="10" fill="rgb(109,109,109)"/><rect x="60" y="330" width="10" height="10" fill="rgb(30,30,30)"/><rect x="70" y="330" width="10" height="10" fill="rgb(30,30,30)"/><rect x="80" y="330" width="10" height="10" fill="rgb(30,30,30)"/><rect x="90" y="330" width="10" height="10" fill="rgb(26,26,26)"/><rect x="0" y="340" width="10" height="10" fill="rgb(26,26,26)"/><rect x="10" y="340" width="10" height="10" fill="rgb(26,26,26)"/><rect x="20" y="340" width="10" height="10" fill="rgb(26,26,26)"/><rect x="30" y="340" width="10" height="10" fill="rgb(26,26,26)"/><rect x="40" y="340" width="10" height="10" fill="rgb(26,26,26)"/><rect x="50" y="340" width="10" height="10" fill="rgb(27,27,27)"/><rect x="60" y="340" width="10" height="10" fill="rgb(27,27,27)"/><rect x="70" y="340" width="10" height="10" fill="rgb(27,27,27)"/><rect x="80" y="340" width="10" height="10" fill="rgb(28,28,28)"/><rect x="90" y="340" width="10" height="10" fill="rgb(28,28,28)"/><rect x="0" y="350" width="10" height="10" fill="rgb(28,28,28)"/><rect x="10" y="350" width="10" height="10" fill="rgb(27,27,27)"/><rect x="20" y="350" width="10" height="10" fill="rgb(27,27,27)"/><rect x="30" y="350" width="10" height="10" fill="rgb(27,27,27)"/><rect x="40" y="350" width="10" height="10" fill="rgb(27,27,27)"/><rect x="50" y="350" width="10" height="10" fill="rgb(27,27,27)"/><rect x="60" y="350" width="10" height="10" fill="rgb(27,27,27)"/><rect x="70" y="350" width="10" height="10" fill="rgb(27,27,27)"/><rect x="80" y="350" width="10" height="10" fill="rgb(27,27,27)"/><rect x="90" y="350" width="10" height="10" fill="rgb(27,27,27)"/><rect x="0" y="360" width="10" height="10" fill="rgb(28,28,28)"/><rect x="10" y="360" width="10" height="10" fill="rgb(28,28,28)"/><rect x="20" y="360" width="10" height="10" fill="rgb(28,28,28)"/><rect x="30" y="360" width="10" height="10" fill="rgb(27,27,27)"/><rect x="40" y="360" width="10" height="10" fill="rgb(27,27,27)"/><rect x="50" y="360" width="10" height="10" fill="rgb(27,27,27)"/><rect x="60" y="360" width="10" height="10" fill="rgb(28,28,28)"/><rect x="70" y="360" width="10" height="10" fill="rgb(28,28,28)"/><rect x="80" y="360" width="10" height="10" fill="rgb(28,28,28)"/><rect x="90" y="360" width="10" height="10" fill="rgb(28,28,28)"/><rect x="0" y="370" width="10" height="10" fill="rgb(28,28,28)"/><rect x="10" y="370" width="10" height="10" fill="rgb(28,28,28)"/><rect x="20" y="370" width="10" height="10" fill="rgb(29,29,29)"/><rect x="30" y="370" width="10" height="10" fill="rgb(29,29,29)"/><rect x="40" y="370" width="10" height="10" fill="rgb(29,29,29)"/><rect x="50" y="370" width="10" height="10" fill="rgb(32,32,32)"/><rect x="60" y="370" width="10" height="10" fill="rgb(32,32,32)"/><rect x="70" y="370" width="10" height="10" fill="rgb(32,32,32)"/><rect x="80" y="370" width="10" height="10" fill="rgb(30,30,30)"/><rect x="90" y="370" width="10" height="10" fill="rgb(30,30,30)"/><rect x="0" y="380" width="10" height="10" fill="rgb(30,30,30)"/><rect x="10" y="380" width="10" height="10" fill="rgb(27,27,27)"/><rect x="20" y="380" width="10" height="10" fill="rgb(27,27,27)"/><rect x="30" y="380" width="10" height="10" fill="rgb(27,27,27)"/><rect x="40" y="380" width="10" height="10" fill="rgb(26,26,26)"/><rect x="50" y="380" width="10" height="10" fill="rgb(26,26,26)"/><rect x="60" y="380" width="10" height="10" fill="rgb(26,26,26)"/><rect x="70" y="380" width="10" height="10" fill="rgb(27,27,27)"/><rect x="80" y="380" width="10" height="10" fill="rgb(27,27,27)"/><rect x="90" y="380" width="10" height="10" fill="rgb(27,27,27)"/><rect x="0" y="390" width="10" height="10" fill="rgb(29,29,29)"/><rect x="10" y="390" width="10" height="10" fill="rgb(29,29,29)"/><rect x="20" y="390" width="10" height="10" fill="rgb(29,29,29)"/><rect x="30" y="390" width="10" height="10" fill="rgb(31,31,31)"/><rect x="40" y="390" width="10" height="10" fill="rgb(31,31,31)"/><rect x="50" y="390" width="10" height="10" fill="rgb(31,31,31)"/><rect x="60" y="390" width="10" height="10" fill="rgb(42,42,42)"/><rect x="70" y="390" width="10" height="10" fill="rgb(42,42,42)"/><rect x="80" y="390" width="10" height="10" fill="rgb(42,42,42)"/><rect x="90" y="390" width="10" height="10" fill="rgb(172,172,172)"/><rect x="0" y="400" width="10" height="10" fill="rgb(172,172,172)"/><rect x="10" y="400" width="10" height="10" fill="rgb(172,172,172)"/><rect x="20" y="400" width="10" height="10" fill="rgb(228,248,248)"/><rect x="30" y="400" width="10" height="10" fill="rgb(228,248,248)"/><rect x="40" y="400" width="10" height="10" fill="rgb(228,248,248)"/><rect x="50" y="400" width="10" height="10" fill="rgb(195,254,254)"/><rect x="60" y="400" width="10" height="10" fill="rgb(195,254,254)"/><rect x="70" y="400" width="10" height="10" fill="rgb(195,254,254)"/><rect x="80" y="400" width="10" height="10" fill="rgb(165,237,254)"/><rect x="90" y="400" width="10" height="10" fill="rgb(165,237,254)"/><rect x="0" y="410" width="10" height="10" fill="rgb(165,237,254)"/><rect x="10" y="410" width="10" height="10" fill="rgb(192,231,254)"/><rect x="20" y="410" width="10" height="10" fill="rgb(192,231,254)"/><rect x="30" y="410" width="10" height="10" fill="rgb(192,231,254)"/><rect x="40" y="410" width="10" height="10" fill="rgb(194,226,254)"/><rect x="50" y="410" width="10" height="10" fill="rgb(194,226,254)"/><rect x="60" y="410" width="10" height="10" fill="rgb(194,226,254)"/><rect x="70" y="410" width="10" height="10" fill="rgb(200,226,253)"/><rect x="80" y="410" width="10" height="10" fill="rgb(200,226,253)"/><rect x="90" y="410" width="10" height="10" fill="rgb(200,226,253)"/><rect x="0" y="420" width="10" height="10" fill="rgb(204,232,254)"/><rect x="10" y="420" width="10" height="10" fill="rgb(204,232,254)"/><rect x="20" y="420" width="10" height="10" fill="rgb(204,232,254)"/><rect x="30" y="420" width="10" height="10" fill="rgb(233,253,255)"/><rect x="40" y="420" width="10" height="10" fill="rgb(233,253,255)"/><rect x="50" y="420" width="10" height="10" fill="rgb(233,253,255)"/><rect x="60" y="420" width="10" height="10" fill="rgb(240,253,254)"/><rect x="70" y="420" width="10" height="10" fill="rgb(240,253,254)"/><rect x="80" y="420" width="10" height="10" fill="rgb(240,253,254)"/><rect x="90" y="420" width="10" height="10" fill="rgb(237,252,255)"/><rect x="0" y="430" width="10" height="10" fill="rgb(237,252,255)"/><rect x="10" y="430" width="10" height="10" fill="rgb(237,252,255)"/><rect x="20" y="430" width="10" height="10" fill="rgb(237,252,254)"/><rect x="30" y="430" width="10" height="10" fill="rgb(237,252,254)"/><rect x="40" y="430" width="10" height="10" fill="rgb(237,252,254)"/><rect x="50" y="430" width="10" height="10" fill="rgb(237,253,255)"/><rect x="60" y="430" width="10" height="10" fill="rgb(237,253,255)"/><rect x="70" y="430" width="10" height="10" fill="rgb(237,253,255)"/><rect x="80" y="430" width="10" height="10" fill="rgb(238,253,254)"/><rect x="90" y="430" width="10" height="10" fill="rgb(238,253,254)"/><rect x="0" y="440" width="10" height="10" fill="rgb(238,253,254)"/><rect x="10" y="440" width="10" height="10" fill="rgb(245,254,255)"/><rect x="20" y="440" width="10" height="10" fill="rgb(245,254,255)"/><rect x="30" y="440" width="10" height="10" fill="rgb(245,254,255)"/><rect x="40" y="440" width="10" height="10" fill="rgb(241,253,254)"/><rect x="50" y="440" width="10" height="10" fill="rgb(241,253,254)"/><rect x="60" y="440" width="10" height="10" fill="rgb(241,253,254)"/><rect x="70" y="440" width="10" height="10" fill="rgb(236,249,254)"/><rect x="80" y="440" width="10" height="10" fill="rgb(236,249,254)"/><rect x="90" y="440" width="10" height="10" fill="rgb(236,249,254)"/><rect x="0" y="450" width="10" height="10" fill="rgb(244,252,255)"/><rect x="10" y="450" width="10" height="10" fill="rgb(244,252,255)"/><rect x="20" y="450" width="10" height="10" fill="rgb(244,252,255)"/><rect x="30" y="450" width="10" height="10" fill="rgb(243,252,254)"/><rect x="40" y="450" width="10" height="10" fill="rgb(243,252,254)"/><rect x="50" y="450" width="10" height="10" fill="rgb(243,252,254)"/><rect x="60" y="450" width="10" height="10" fill="rgb(245,253,254)"/><rect x="70" y="450" width="10" height="10" fill="rgb(245,253,254)"/><rect x="80" y="450" width="10" height="10" fill="rgb(245,253,254)"/><rect x="90" y="450" width="10" height="10" fill="rgb(236,249,254)"/><rect x="0" y="460" width="10" height="10" fill="rgb(236,249,254)"/><rect x="10" y="460" width="10" height="10" fill="rgb(236,249,254)"/><rect x="20" y="460" width="10" height="10" fill="rgb(236,251,254)"/><rect x="30" y="460" width="10" height="10" fill="rgb(236,251,254)"/><rect x="40" y="460" width="10" height="10" fill="rgb(236,251,254)"/><rect x="50" y="460" width="10" height="10" fill="rgb(237,251,254)"/><rect x="60" y="460" width="10" height="10" fill="rgb(237,251,254)"/><rect x="70" y="460" width="10" height="10" fill="rgb(237,251,254)"/><rect x="80" y="460" width="10" height="10" fill="rgb(235,249,254)"/><rect x="90" y="460" width="10" height="10" fill="rgb(235,249,254)"/><rect x="0" y="470" width="10" height="10" fill="rgb(235,249,254)"/><rect x="10" y="470" width="10" height="10" fill="rgb(254,255,254)"/><rect x="20" y="470" width="10" height="10" fill="rgb(254,255,254)"/><rect x="30" y="470" width="10" height="10" fill="rgb(254,255,254)"/><rect x="40" y="470" width="10" height="10" fill="rgb(235,249,254)"/><rect x="50" y="470" width="10" height="10" fill="rgb(235,249,254)"/><rect x="60" y="470" width="10" height="10" fill="rgb(235,249,254)"/><rect x="70" y="470" width="10" height="10" fill="rgb(239,250,254)"/><rect x="80" y="470" width="10" height="10" fill="rgb(239,250,254)"/><rect x="90" y="470" width="10" height="10" fill="rgb(239,250,254)"/><rect x="0" y="480" width="10" height="10" fill="rgb(236,250,254)"/><rect x="10" y="480" width="10" height="10" fill="rgb(236,250,254)"/><rect x="20" y="480" width="10" height="10" fill="rgb(236,250,254)"/><rect x="30" y="480" width="10" height="10" fill="rgb(226,237,250)"/><rect x="40" y="480" width="10" height="10" fill="rgb(226,237,250)"/><rect x="50" y="480" width="10" height="10" fill="rgb(226,237,250)"/><rect x="60" y="480" width="10" height="10" fill="rgb(234,245,253)"/><rect x="70" y="480" width="10" height="10" fill="rgb(234,245,253)"/><rect x="80" y="480" width="10" height="10" fill="rgb(234,245,253)"/><rect x="90" y="480" width="10" height="10" fill="rgb(237,249,254)"/><rect x="0" y="490" width="10" height="10" fill="rgb(237,249,254)"/><rect x="10" y="490" width="10" height="10" fill="rgb(237,249,254)"/><rect x="20" y="490" width="10" height="10" fill="rgb(239,251,254)"/><rect x="30" y="490" width="10" height="10" fill="rgb(239,251,254)"/><rect x="40" y="490" width="10" height="10" fill="rgb(239,251,254)"/><rect x="50" y="490" width="10" height="10" fill="rgb(243,252,254)"/><rect x="60" y="490" width="10" height="10" fill="rgb(243,252,254)"/><rect x="70" y="490" width="10" height="10" fill="rgb(243,252,254)"/><rect x="80" y="490" width="10" height="10" fill="rgb(242,251,254)"/><rect x="90" y="490" width="10" height="10" fill="rgb(242,251,254)"/><rect x="0" y="500" width="10" height="10" fill="rgb(242,251,254)"/><rect x="10" y="500" width="10" height="10" fill="rgb(243,250,254)"/><rect x="20" y="500" width="10" height="10" fill="rgb(243,250,254)"/><rect x="30" y="500" width="10" height="10" fill="rgb(243,250,254)"/><rect x="40" y="500" width="10" height="10" fill="rgb(236,248,254)"/><rect x="50" y="500" width="10" height="10" fill="rgb(236,248,254)"/><rect x="60" y="500" width="10" height="10" fill="rgb(236,248,254)"/><rect x="70" y="500" width="10" height="10" fill="rgb(239,250,254)"/><rect x="80" y="500" width="10" height="10" fill="rgb(239,250,254)"/><rect x="90" y="500" width="10" height="10" fill="rgb(239,250,254)"/><rect x="0" y="510" width="10" height="10" fill="rgb(237,251,254)"/><rect x="10" y="510" width="10" height="10" fill="rgb(237,251,254)"/><rect x="20" y="510" width="10" height="10" fill="rgb(237,251,254)"/><rect x="30" y="510" width="10" height="10" fill="rgb(238,249,254)"/><rect x="40" y="510" width="10" height="10" fill="rgb(238,249,254)"/><rect x="50" y="510" width="10" height="10" fill="rgb(238,249,254)"/><rect x="60" y="510" width="10" height="10" fill="rgb(245,253,254)"/><rect x="70" y="510" width="10" height="10" fill="rgb(245,253,254)"/><rect x="80" y="510" width="10" height="10" fill="rgb(245,253,254)"/><rect x="90" y="510" width="10" height="10" fill="rgb(236,249,254)"/><rect x="0" y="520" width="10" height="10" fill="rgb(236,249,254)"/><rect x="10" y="520" width="10" height="10" fill="rgb(236,249,254)"/><rect x="20" y="520" width="10" height="10" fill="rgb(228,248,254)"/><rect x="30" y="520" width="10" height="10" fill="rgb(228,248,254)"/><rect x="40" y="520" width="10" height="10" fill="rgb(228,248,254)"/><rect x="50" y="520" width="10" height="10" fill="rgb(235,251,254)"/><rect x="60" y="520" width="10" height="10" fill="rgb(235,251,254)"/><rect x="70" y="520" width="10" height="10" fill="rgb(235,251,254)"/><rect x="80" y="520" width="10" height="10" fill="rgb(231,251,254)"/><rect x="90" y="520" width="10" height="10" fill="rgb(231,251,254)"/><rect x="0" y="530" width="10" height="10" fill="rgb(231,251,254)"/><rect x="10" y="530" width="10" height="10" fill="rgb(244,254,254)"/><rect x="20" y="530" width="10" height="10" fill="rgb(244,254,254)"/><rect x="30" y="530" width="10" height="10" fill="rgb(244,254,254)"/><rect x="40" y="530" width="10" height="10" fill="rgb(234,251,254)"/><rect x="50" y="530" width="10" height="10" fill="rgb(234,251,254)"/><rect x="60" y="530" width="10" height="10" fill="rgb(234,251,254)"/><rect x="70" y="530" width="10" height="10" fill="rgb(237,253,254)"/><rect x="80" y="530" width="10" height="10" fill="rgb(237,253,254)"/><rect x="90" y="530" width="10" height="10" fill="rgb(237,253,254)"/><rect x="0" y="540" width="10" height="10" fill="rgb(230,248,254)"/><rect x="10" y="540" width="10" height="10" fill="rgb(230,248,254)"/><rect x="20" y="540" width="10" height="10" fill="rgb(230,248,254)"/><rect x="30" y="540" width="10" height="10" fill="rgb(248,254,254)"/><rect x="40" y="540" width="10" height="10" fill="rgb(248,254,254)"/><rect x="50" y="540" width="10" height="10" fill="rgb(248,254,254)"/><rect x="60" y="540" width="10" height="10" fill="rgb(249,255,254)"/><rect x="70" y="540" width="10" height="10" fill="rgb(249,255,254)"/><rect x="80" y="540" width="10" height="10" fill="rgb(249,255,254)"/><rect x="90" y="540" width="10" height="10" fill="rgb(234,252,254)"/><rect x="0" y="550" width="10" height="10" fill="rgb(234,252,254)"/><rect x="10" y="550" width="10" height="10" fill="rgb(234,252,254)"/><rect x="20" y="550" width="10" height="10" fill="rgb(240,253,255)"/><rect x="30" y="550" width="10" height="10" fill="rgb(240,253,255)"/><rect x="40" y="550" width="10" height="10" fill="rgb(240,253,255)"/><rect x="50" y="550" width="10" height="10" fill="rgb(241,253,254)"/><rect x="60" y="550" width="10" height="10" fill="rgb(241,253,254)"/><rect x="70" y="550" width="10" height="10" fill="rgb(241,253,254)"/><rect x="80" y="550" width="10" height="10" fill="rgb(231,249,254)"/><rect x="90" y="550" width="10" height="10" fill="rgb(231,249,254)"/><rect x="0" y="560" width="10" height="10" fill="rgb(231,249,254)"/><rect x="10" y="560" width="10" height="10" fill="rgb(251,255,255)"/><rect x="20" y="560" width="10" height="10" fill="rgb(251,255,255)"/><rect x="30" y="560" width="10" height="10" fill="rgb(251,255,255)"/><rect x="40" y="560" width="10" height="10" fill="rgb(255,255,255)"/><rect x="50" y="560" width="10" height="10" fill="rgb(255,255,255)"/><rect x="60" y="560" width="10" height="10" fill="rgb(255,255,255)"/><rect x="70" y="560" width="10" height="10" fill="rgb(246,253,255)"/><rect x="80" y="560" width="10" height="10" fill="rgb(246,253,255)"/><rect x="90" y="560" width="10" height="10" fill="rgb(246,253,255)"/><rect x="0" y="570" width="10" height="10" fill="rgb(235,252,254)"/><rect x="10" y="570" width="10" height="10" fill="rgb(235,252,254)"/><rect x="20" y="570" width="10" height="10" fill="rgb(235,252,254)"/><rect x="30" y="570" width="10" height="10" fill="rgb(245,255,254)"/><rect x="40" y="570" width="10" height="10" fill="rgb(245,255,254)"/><rect x="50" y="570" width="10" height="10" fill="rgb(245,255,254)"/><rect x="60" y="570" width="10" height="10" fill="rgb(250,255,255)"/><rect x="70" y="570" width="10" height="10" fill="rgb(250,255,255)"/><rect x="80" y="570" width="10" height="10" fill="rgb(250,255,255)"/><rect x="90" y="570" width="10" height="10" fill="rgb(232,225,248)"/><rect x="0" y="580" width="10" height="10" fill="rgb(232,225,248)"/><rect x="10" y="580" width="10" height="10" fill="rgb(232,225,248)"/><rect x="20" y="580" width="10" height="10" fill="rgb(199,243,254)"/><rect x="30" y="580" width="10" height="10" fill="rgb(199,243,254)"/><rect x="40" y="580" width="10" height="10" fill="rgb(199,243,254)"/><rect x="50" y="580" width="10" height="10" fill="rgb(195,231,244)"/><rect x="60" y="580" width="10" height="10" fill="rgb(195,231,244)"/><rect x="70" y="580" width="10" height="10" fill="rgb(195,231,244)"/><rect x="80" y="580" width="10" height="10" fill="rgb(196,196,196)"/><rect x="90" y="580" width="10" height="10" fill="rgb(196,196,196)"/><rect x="0" y="590" width="10" height="10" fill="rgb(196,196,196)"/><rect x="10" y="590" width="10" height="10" fill="rgb(93,93,93)"/><rect x="20" y="590" width="10" height="10" fill="rgb(93,93,93)"/><rect x="30" y="590" width="10" height="10" fill="rgb(93,93,93)"/><rect x="40" y="590" width="10" height="10" fill="rgb(46,46,46)"/><rect x="50" y="590" width="10" height="10" fill="rgb(46,46,46)"/><rect x="60" y="590" width="10" height="10" fill="rgb(46,46,46)"/><rect x="70" y="590" width="10" height="10" fill="rgb(36,36,36)"/><rect x="80" y="590" width="10" height="10" fill="rgb(36,36,36)"/><rect x="90" y="590" width="10" height="10" fill="rgb(36,36,36)"/><rect x="0" y="600" width="10" height="10" fill="rgb(33,33,33)"/><rect x="10" y="600" width="10" height="10" fill="rgb(33,33,33)"/><rect x="20" y="600" width="10" height="10" fill="rgb(33,33,33)"/><rect x="30" y="600" width="10" height="10" fill="rgb(32,32,32)"/><rect x="40" y="600" width="10" height="10" fill="rgb(32,32,32)"/><rect x="50" y="600" width="10" height="10" fill="rgb(32,32,32)"/><rect x="60" y="600" width="10" height="10" fill="rgb(33,33,33)"/><rect x="70" y="600" width="10" height="10" fill="rgb(33,33,33)"/><rect x="80" y="600" width="10" height="10" fill="rgb(33,33,33)"/><rect x="90" y="600" width="10" height="10" fill="rgb(33,33,33)"/><rect x="0" y="610" width="10" height="10" fill="rgb(33,33,33)"/><rect x="10" y="610" width="10" height="10" fill="rgb(33,33,33)"/><rect x="20" y="610" width="10" height="10" fill="rgb(31,31,31)"/><rect x="30" y="610" width="10" height="10" fill="rgb(31,31,31)"/><rect x="40" y="610" width="10" height="10" fill="rgb(31,31,31)"/><rect x="50" y="610" width="10" height="10" fill="rgb(31,31,31)"/><rect x="60" y="610" width="10" height="10" fill="rgb(31,31,31)"/><rect x="70" y="610" width="10" height="10" fill="rgb(31,31,31)"/><rect x="80" y="610" width="10" height="10" fill="rgb(32,32,32)"/><rect x="90" y="610" width="10" height="10" fill="rgb(32,32,32)"/><rect x="0" y="620" width="10" height="10" fill="rgb(32,32,32)"/><rect x="10" y="620" width="10" height="10" fill="rgb(31,31,31)"/><rect x="20" y="620" width="10" height="10" fill="rgb(31,31,31)"/><rect x="30" y="620" width="10" height="10" fill="rgb(31,31,31)"/><rect x="40" y="620" width="10" height="10" fill="rgb(31,31,31)"/><rect x="50" y="620" width="10" height="10" fill="rgb(31,31,31)"/><rect x="60" y="620" width="10" height="10" fill="rgb(31,31,31)"/><rect x="70" y="620" width="10" height="10" fill="rgb(30,30,30)"/><rect x="80" y="620" width="10" height="10" fill="rgb(30,30,30)"/><rect x="90" y="620" width="10" height="10" fill="rgb(30,30,30)"/><rect x="0" y="630" width="10" height="10" fill="rgb(30,30,30)"/><rect x="10" y="630" width="10" height="10" fill="rgb(30,30,30)"/><rect x="20" y="630" width="10" height="10" fill="rgb(30,30,30)"/><rect x="30" y="630" width="10" height="10" fill="rgb(30,30,30)"/><rect x="40" y="630" width="10" height="10" fill="rgb(30,30,30)"/><rect x="50" y="630" width="10" height="10" fill="rgb(30,30,30)"/><rect x="60" y="630" width="10" height="10" fill="rgb(28,28,28)"/><rect x="70" y="630" width="10" height="10" fill="rgb(28,28,28)"/><rect x="80" y="630" width="10" height="10" fill="rgb(28,28,28)"/><rect x="90" y="630" width="10" height="10" fill="rgb(28,28,28)"/><rect x="0" y="640" width="10" height="10" fill="rgb(28,28,28)"/><rect x="10" y="640" width="10" height="10" fill="rgb(28,28,28)"/><rect x="20" y="640" width="10" height="10" fill="rgb(27,27,27)"/><rect x="30" y="640" width="10" height="10" fill="rgb(27,27,27)"/></svg>