<svg xmlns="http://www.w3.org/2000/svg" width="100" height="270"><rect x="0" y="0" width="10" height="10" fill="rgb(149,175,203)"/><rect x="10" y="0" width="10" height="10" fill="rgb(174,184,195)"/><rect x="20" y="0" width="10" height="10" fill="rgb(183,187,187)"/><rect x="30" y="0" width="10" height="10" fill="rgb(182,185,187)"/><rect x="40" y="0" width="10" height="10" fill="rgb(177,184,188)"/><rect x="50" y="0" width="10" height="10" fill="rgb(178,182,186)"/><rect x="60" y="0" width="10" height="10" fill="rgb(174,178,188)"/><rect x="70" y="0" width="10" height="10" fill="rgb(166,173,189)"/><rect x="80" y="0" width="10" height="10" fill="rgb(162,165,182)"/><rect x="90" y="0" width="10" height="10" fill="rgb(152,155,186)"/><rect x="0" y="10" width="10" height="10" fill="rgb(139,148,193)"/><rect x="10" y="10" width="10" height="10" fill="rgb(71,126,199)"/><rect x="20" y="10" width="10" height="10" fill="rgb(37,101,193)"/><rect x="30" y="10" width="10" height="10" fill="rgb(16,74,189)"/><rect x="40" y="10" width="10" height="10" fill="rgb(12,61,186)"/><rect x="50" y="10" width="10" height="10" fill="rgb(31,33,83)"/><rect x="60" y="10" width="10" height="10" fill="rgb(11,15,75)"/><rect x="70" y="10" width="10" height="10" fill="rgb(9,15,59)"/><rect x="80" y="10" width="10" height="10" fill="rgb(10,16,46)"/><rect x="90" y="10" width="10" height="10" fill="rgb(14,17,24)"/><rect x="0" y="20" width="10" height="10" fill="rgb(17,18,18)"/><rect x="10" y="20" width="10" height="10" fill="rgb(18,19,16)"/><rect x="20" y="20" width="10" height="10" fill="rgb(18,19,15)"/><rect x="30" y="20" width="10" height="10" fill="rgb(18,19,15)"/><rect x="40" y="20" width="10" height="10" fill="rgb(18,19,14)"/><rect x="50" y="20" width="10" height="10" fill="rgb(19,19,14)"/><rect x="60" y="20" width="10" height="10" fill="rgb(18,19,14)"/><rect x="70" y="20" width="10" height="10" fill="rgb(18,19,14)"/><rect x="80" y="20" width="10" height="10" fill="rgb(18,19,13)"/><rect x="90" y="20" width="10" height="10" fill="rgb(18,19,14)"/><rect x="0" y="30" width="10" height="10" fill="rgb(18,19,14)"/><rect x="10" y="30" width="10" height="10" fill="rgb(18,19,13)"/><rect x="20" y="30" width="10" height="10" fill="rgb(17,18,13)"/><rect x="30" y="30" width="10" height="10" fill="rgb(16,18,12)"/><rect x="40" y="30" width="10" height="10" fill="rgb(16,17,12)"/><rect x="50" y="30" width="10" height="10" fill="rgb(16,17,12)"/><rect x="60" y="30" width="10" height="10" fill="rgb(16,17,12)"/><rect x="70" y="30" width="10" height="10" fill="rgb(16,17,13)"/><rect x="80" y="30" width="10" height="10" fill="rgb(17,17,12)"/><rect x="90" y="30" width="10" height="10" fill="rgb(16,18,13)"/><rect x="0" y="40" width="10" height="10" fill="rgb(16,18,13)"/><rect x="10" y="40" width="10" height="10" fill="rgb(16,18,15)"/><rect x="20" y="40" width="10" height="10" fill="rgb(18,19,13)"/><rect x="30" y="40" width="10" height="10" fill="rgb(17,18,13)"/><rect x="40" y="40" width="10" height="10" fill="rgb(17,18,13)"/><rect x="50" y="40" width="10" height="10" fill="rgb(17,18,13)"/><rect x="60" y="40" width="10" height="10" fill="rgb(17,18,13)"/><rect x="70" y="40" width="10" height="10" fill="rgb(16,18,12)"/><rect x="80" y="40" width="10" height="10" fill="rgb(15,17,12)"/><rect x="90" y="40" width="10" height="10" fill="rgb(15,17,12)"/><rect x="0" y="50" width="10" height="10" fill="rgb(16,17,12)"/><rect x="10" y="50" width="10" height="10" fill="rgb(16,17,12)"/><rect x="20" y="50" width="10" height="10" fill="rgb(16,17,12)"/><rect x="30" y="50" width="10" height="10" fill="rgb(16,17,12)"/><rect x="40" y="50" width="10" height="10" fill="rgb(17,18,12)"/><rect x="50" y="50" width="10" height="10" fill="rgb(17,18,12)"/><rect x="60" y="50" width="10" height="10" fill="rgb(16,18,12)"/><rect x="70" y="50" width="10" height="10" fill="rgb(17,18,12)"/><rect x="80" y="50" width="10" height="10" fill="rgb(17,18,12)"/><rect x="90" y="50" width="10" height="10" fill="rgb(17,18,12)"/><rect x="0" y="60" width="10" height="10" fill="rgb(17,18,12)"/><rect x="10" y="60" width="10" height="10" fill="rgb(17,18,13)"/><rect x="20" y="60" width="10" height="10" fill="rgb(17,19,13)"/><rect x="30" y="60" width="10" height="10" fill="rgb(18,19,13)"/><rect x="40" y="60" width="10" height="10" fill="rgb(18,19,13)"/><rect x="50" y="60" width="10" height="10" fill="rgb(17,18,13)"/><rect x="60" y="60" width="10" height="10" fill="rgb(17,18,12)"/><rect x="70" y="60" width="10" height="10" fill="rgb(16,18,12)"/><rect x="80" y="60" width="10" height="10" fill="rgb(16,18,12)"/><rect x="90" y="60" width="10" height="10" fill="rgb(16,17,12)"/><rect x="0" y="70" width="10" height="10" fill="rgb(16,17,12)"/><rect x="10" y="70" width="10" height="10" fill="rgb(17,18,13)"/><rect x="20" y="70" width="10" height="10" fill="rgb(17,18,13)"/><rect x="30" y="70" width="10" height="10" fill="rgb(17,18,13)"/><rect x="40" y="70" width="10" height="10" fill="rgb(18,18,13)"/><rect x="50" y="70" width="10" height="10" fill="rgb(17,18,12)"/><rect x="60" y="70" width="10" height="10" fill="rgb(18,19,13)"/><rect x="70" y="70" width="10" height="10" fill="rgb(19,19,13)"/><rect x="80" y="70" width="10" height="10" fill="rgb(19,19,13)"/><rect x="90" y="70" width="10" height="10" fill="rgb(19,19,13)"/><rect x="0" y="80" width="10" height="10" fill="rgb(18,19,13)"/><rect x="10" y="80" width="10" height="10" fill="rgb(18,19,13)"/><rect x="20" y="80" width="10" height="10" fill="rgb(19,19,13)"/><rect x="30" y="80" width="10" height="10" fill="rgb(19,20,13)"/><rect x="40" y="80" width="10" height="10" fill="rgb(19,20,14)"/><rect x="50" y="80" width="10" height="10" fill="rgb(18,19,13)"/><rect x="60" y="80" width="10" height="10" fill="rgb(17,18,13)"/><rect x="70" y="80" width="10" height="10" fill="rgb(18,18,12)"/><rect x="80" y="80" width="10" height="10" fill="rgb(18,19,13)"/><rect x="90" y="80" width="10" height="10" fill="rgb(18,19,13)"/><rect x="0" y="90" width="10" height="10" fill="rgb(18,19,13)"/><rect x="10" y="90" width="10" height="10" fill="rgb(19,20,14)"/><rect x="20" y="90" width="10" height="10" fill="rgb(19,20,14)"/><rect x="30" y="90" width="10" height="10" fill="rgb(19,20,14)"/><rect x="40" y="90" width="10" height="10" fill="rgb(19,20,13)"/><rect x="50" y="90" width="10" height="10" fill="rgb(19,20,14)"/><rect x="60" y="90" width="10" height="10" fill="rgb(19,19,13)"/><rect x="70" y="90" width="10" height="10" fill="rgb(19,20,13)"/><rect x="80" y="90" width="10" height="10" fill="rgb(19,20,14)"/><rect x="90" y="90" width="10" height="10" fill="rgb(19,20,14)"/><rect x="0" y="100" width="10" height="10" fill="rgb(21,21,15)"/><rect x="10" y="100" width="10" height="10" fill="rgb(20,21,14)"/><rect x="20" y="100" width="10" height="10" fill="rgb(20,20,14)"/><rect x="30" y="100" width="10" height="10" fill="rgb(21,21,14)"/><rect x="40" y="100" width="10" height="10" fill="rgb(21,21,15)"/><rect x="50" y="100" width="10" height="10" fill="rgb(23,23,17)"/><rect x="60" y="100" width="10" height="10" fill="rgb(23,23,17)"/><rect x="70" y="100" width="10" height="10" fill="rgb(23,23,17)"/><rect x="80" y="100" width="10" height="10" fill="rgb(22,22,17)"/><rect x="90" y="100" width="10" height="10" fill="rgb(23,23,17)"/><rect x="0" y="110" width="10" height="10" fill="rgb(24,24,19)"/><rect x="10" y="110" width="10" height="10" fill="rgb(25,25,20)"/><rect x="20" y="110" width="10" height="10" fill="rgb(24,24,20)"/><rect x="30" y="110" width="10" height="10" fill="rgb(23,23,22)"/><rect x="40" y="110" width="10" height="10" fill="rgb(24,24,27)"/><rect x="50" y="110" width="10" height="10" fill="rgb(15,24,68)"/><rect x="60" y="110" width="10" height="10" fill="rgb(18,28,83)"/><rect x="70" y="110" width="10" height="10" fill="rgb(36,39,108)"/><rect x="80" y="110" width="10" height="10" fill="rgb(17,77,194)"/><rect x="90" y="110" width="10" height="10" fill="rgb(17,90,208)"/><rect x="0" y="120" width="10" height="10" fill="rgb(44,109,201)"/><rect x="10" y="120" width="10" height="10" fill="rgb(98,139,196)"/><rect x="20" y="120" width="10" height="10" fill="rgb(133,155,191)"/><rect x="30" y="120" width="10" height="10" fill="rgb(142,156,200)"/><rect x="40" y="120" width="10" height="10" fill="rgb(142,159,207)"/><rect x="50" y="120" width="10" height="10" fill="rgb(148,159,201)"/><rect x="60" y="120" width="10" height="10" fill="rgb(165,163,192)"/><rect x="70" y="120" width="10" height="10" fill="rgb(170,171,173)"/><rect x="80" y="120" width="10" height="10" fill="rgb(173,175,175)"/><rect x="90" y="120" width="10" height="10" fill="rgb(170,172,172)"/><rect x="0" y="130" width="10" height="10" fill="rgb(172,174,175)"/><rect x="10" y="130" width="10" height="10" fill="rgb(169,171,175)"/><rect x="20" y="130" width="10" height="10" fill="rgb(174,176,179)"/><rect x="30" y="130" width="10" height="10" fill="rgb(172,175,180)"/><rect x="40" y="130" width="10" height="10" fill="rgb(173,176,179)"/><rect x="50" y="130" width="10" height="10" fill="rgb(176,179,184)"/><rect x="60" y="130" width="10" height="10" fill="rgb(174,177,181)"/><rect x="70" y="130" width="10" height="10" fill="rgb(176,180,183)"/><rect x="80" y="130" width="10" height="10" fill="rgb(177,181,184)"/><rect x="90" y="130" width="10" height="10" fill="rgb(176,181,183)"/><rect x="0" y="140" width="10" height="10" fill="rgb(176,180,182)"/><rect x="10" y="140" width="10" height="10" fill="rgb(176,178,183)"/><rect x="20" y="140" width="10" height="10" fill="rgb(179,180,187)"/><rect x="30" y="140" width="10" height="10" fill="rgb(182,183,187)"/><rect x="40" y="140" width="10" height="10" fill="rgb(181,182,185)"/><rect x="50" y="140" width="10" height="10" fill="rgb(178,181,187)"/><rect x="60" y="140" width="10" height="10" fill="rgb(177,180,187)"/><rect x="70" y="140" width="10" height="10" fill="rgb(177,181,187)"/><rect x="80" y="140" width="10" height="10" fill="rgb(176,179,186)"/><rect x="90" y="140" width="10" height="10" fill="rgb(176,179,185)"/><rect x="0" y="150" width="10" height="10" fill="rgb(176,180,186)"/><rect x="10" y="150" width="10" height="10" fill="rgb(169,173,178)"/><rect x="20" y="150" width="10" height="10" fill="rgb(170,174,180)"/><rect x="30" y="150" width="10" height="10" fill="rgb(173,177,182)"/><rect x="40" y="150" width="10" height="10" fill="rgb(173,178,184)"/><rect x="50" y="150" width="10" height="10" fill="rgb(164,168,173)"/><rect x="60" y="150" width="10" height="10" fill="rgb(171,176,182)"/><rect x="70" y="150" width="10" height="10" fill="rgb(172,177,188)"/><rect x="80" y="150" width="10" height="10" fill="rgb(172,175,182)"/><rect x="90" y="150" width="10" height="10" fill="rgb(168,171,179)"/><rect x="0" y="160" width="10" height="10" fill="rgb(172,175,183)"/><rect x="10" y="160" width="10" height="10" fill="rgb(168,173,181)"/><rect x="20" y="160" width="10" height="10" fill="rgb(164,167,177)"/><rect x="30" y="160" width="10" height="10" fill="rgb(167,170,179)"/><rect x="40" y="160" width="10" height="10" fill="rgb(163,168,178)"/><rect x="50" y="160" width="10" height="10" fill="rgb(168,172,180)"/><rect x="60" y="160" width="10" height="10" fill="rgb(168,172,179)"/><rect x="70" y="160" width="10" height="10" fill="rgb(167,172,179)"/><rect x="80" y="160" width="10" height="10" fill="rgb(172,173,181)"/><rect x="90" y="160" width="10" height="10" fill="rgb(169,172,179)"/><rect x="0" y="170" width="10" height="10" fill="rgb(169,173,179)"/><rect x="10" y="170" width="10" height="10" fill="rgb(171,175,181)"/><rect x="20" y="170" width="10" height="10" fill="rgb(172,176,186)"/><rect x="30" y="170" width="10" height="10" fill="rgb(167,170,178)"/><rect x="40" y="170" width="10" height="10" fill="rgb(169,172,181)"/><rect x="50" y="170" width="10" height="10" fill="rgb(165,169,176)"/><rect x="60" y="170" width="10" height="10" fill="rgb(173,176,184)"/><rect x="70" y="170" width="10" height="10" fill="rgb(172,175,181)"/><rect x="80" y="170" width="10" height="10" fill="rgb(173,175,182)"/><rect x="90" y="170" width="10" height="10" fill="rgb(172,176,181)"/><rect x="0" y="180" width="10" height="10" fill="rgb(175,177,184)"/><rect x="10" y="180" width="10" height="10" fill="rgb(169,173,180)"/><rect x="20" y="180" width="10" height="10" fill="rgb(173,177,182)"/><rect x="30" y="180" width="10" height="10" fill="rgb(168,172,179)"/><rect x="40" y="180" width="10" height="10" fill="rgb(169,174,180)"/><rect x="50" y="180" width="10" height="10" fill="rgb(176,181,189)"/><rect x="60" y="180" width="10" height="10" fill="rgb(168,173,180)"/><rect x="70" y="180" width="10" height="10" fill="rgb(176,180,189)"/><rect x="80" y="180" width="10" height="10" fill="rgb(173,176,184)"/><rect x="90" y="180" width="10" height="10" fill="rgb(171,176,183)"/><rect x="0" y="190" width="10" height="10" fill="rgb(175,180,189)"/><rect x="10" y="190" width="10" height="10" fill="rgb(172,177,186)"/><rect x="20" y="190" width="10" height="10" fill="rgb(175,181,192)"/><rect x="30" y="190" width="10" height="10" fill="rgb(178,182,191)"/><rect x="40" y="190" width="10" height="10" fill="rgb(175,179,186)"/><rect x="50" y="190" width="10" height="10" fill="rgb(170,175,183)"/><rect x="60" y="190" width="10" height="10" fill="rgb(169,173,182)"/><rect x="70" y="190" width="10" height="10" fill="rgb(164,168,180)"/><rect x="80" y="190" width="10" height="10" fill="rgb(172,176,185)"/><rect x="90" y="190" width="10" height="10" fill="rgb(171,175,186)"/><rect x="0" y="200" width="10" height="10" fill="rgb(172,176,190)"/><rect x="10" y="200" width="10" height="10" fill="rgb(167,172,185)"/><rect x="20" y="200" width="10" height="10" fill="rgb(174,179,191)"/><rect x="30" y="200" width="10" height="10" fill="rgb(167,172,182)"/><rect x="40" y="200" width="10" height="10" fill="rgb(174,178,189)"/><rect x="50" y="200" width="10" height="10" fill="rgb(167,172,184)"/><rect x="60" y="200" width="10" height="10" fill="rgb(167,171,183)"/><rect x="70" y="200" width="10" height="10" fill="rgb(166,171,181)"/><rect x="80" y="200" width="10" height="10" fill="rgb(163,166,179)"/><rect x="90" y="200" width="10" height="10" fill="rgb(167,171,183)"/><rect x="0" y="210" width="10" height="10" fill="rgb(169,173,181)"/><rect x="10" y="210" width="10" height="10" fill="rgb(160,165,173)"/><rect x="20" y="210" width="10" height="10" fill="rgb(165,169,176)"/><rect x="30" y="210" width="10" height="10" fill="rgb(166,170,176)"/><rect x="40" y="210" width="10" height="10" fill="rgb(167,171,178)"/><rect x="50" y="210" width="10" height="10" fill="rgb(162,166,173)"/><rect x="60" y="210" width="10" height="10" fill="rgb(168,172,179)"/><rect x="70" y="210" width="10" height="10" fill="rgb(169,174,179)"/><rect x="80" y="210" width="10" height="10" fill="rgb(164,169,174)"/><rect x="90" y="210" width="10" height="10" fill="rgb(168,173,178)"/><rect x="0" y="220" width="10" height="10" fill="rgb(169,174,180)"/><rect x="10" y="220" width="10" height="10" fill="rgb(170,175,180)"/><rect x="20" y="220" width="10" height="10" fill="rgb(166,170,177)"/><rect x="30" y="220" width="10" height="10" fill="rgb(168,171,178)"/><rect x="40" y="220" width="10" height="10" fill="rgb(170,173,180)"/><rect x="50" y="220" width="10" height="10" fill="rgb(171,173,181)"/><rect x="60" y="220" width="10" height="10" fill="rgb(164,167,174)"/><rect x="70" y="220" width="10" height="10" fill="rgb(165,169,175)"/><rect x="80" y="220" width="10" height="10" fill="rgb(169,172,178)"/><rect x="90" y="220" width="10" height="10" fill="rgb(169,173,177)"/><rect x="0" y="230" width="10" height="10" fill="rgb(170,174,179)"/><rect x="10" y="230" width="10" height="10" fill="rgb(163,167,172)"/><rect x="20" y="230" width="10" height="10" fill="rgb(163,166,174)"/><rect x="30" y="230" width="10" height="10" fill="rgb(159,162,168)"/><rect x="40" y="230" width="10" height="10" fill="rgb(168,171,178)"/><rect x="50" y="230" width="10" height="10" fill="rgb(164,168,175)"/><rect x="60" y="230" width="10" height="10" fill="rgb(164,169,175)"/><rect x="70" y="230" width="10" height="10" fill="rgb(167,170,177)"/><rect x="80" y="230" width="10" height="10" fill="rgb(170,174,182)"/><rect x="90" y="230" width="10" height="10" fill="rgb(173,175,183)"/><rect x="0" y="240" width="10" height="10" fill="rgb(163,166,173)"/><rect x="10" y="240" width="10" height="10" fill="rgb(164,169,174)"/><rect x="20" y="240" width="10" height="10" fill="rgb(164,168,176)"/><rect x="30" y="240" width="10" height="10" fill="rgb(167,171,179)"/><rect x="40" y="240" width="10" height="10" fill="rgb(168,173,179)"/><rect x="50" y="240" width="10" height="10" fill="rgb(170,174,183)"/><rect x="60" y="240" width="10" height="10" fill="rgb(169,174,182)"/><rect x="70" y="240" width="10" height="10" fill="rgb(173,176,185)"/><rect x="80" y="240" width="10" height="10" fill="rgb(172,176,188)"/><rect x="90" y="240" width="10" height="10" fill="rgb(170,173,182)"/><rect x="0" y="250" width="10" height="10" fill="rgb(168,172,180)"/><rect x="10" y="250" width="10" height="10" fill="rgb(169,173,183)"/><rect x="20" y="250" width="10" height="10" fill="rgb(168,173,183)"/><rect x="30" y="250" width="10" height="10" fill="rgb(168,174,188)"/><rect x="40" y="250" width="10" height="10" fill="rgb(165,169,184)"/><rect x="50" y="250" width="10" height="10" fill="rgb(115,158,229)"/><rect x="60" y="250" width="10" height="10" fill="rgb(118,162,231)"/><rect x="70" y="250" width="10" height="10" fill="rgb(118,159,217)"/><rect x="80" y="250" width="10" height="10" fill="rgb(115,160,219)"/><rect x="90" y="250" width="10" height="10" fill="rgb(133,165,204)"/><rect x="0" y="260" width="10" height="10" fill="rgb(141,168,201)"/><rect x="10" y="260" width="10" height="10" fill="rgb(141,171,202)"/></svg>