<svg xmlns="http://www.w3.org/2000/svg" width="480" height="70"><rect x="0" y="0" width="10" height="10" fill="rgb(154,192,253)"/><rect x="10" y="0" width="10" height="10" fill="rgb(121,170,254)"/><rect x="20" y="0" width="10" height="10" fill="rgb(85,137,246)"/><rect x="30" y="0" width="10" height="10" fill="rgb(149,176,239)"/><rect x="40" y="0" width="10" height="10" fill="rgb(101,125,182)"/><rect x="50" y="0" width="10" height="10" fill="rgb(136,151,191)"/><rect x="60" y="0" width="10" height="10" fill="rgb(96,120,180)"/><rect x="70" y="0" width="10" height="10" fill="rgb(124,147,205)"/><rect x="80" y="0" width="10" height="10" fill="rgb(142,161,213)"/><rect x="90" y="0" width="10" height="10" fill="rgb(135,154,209)"/><rect x="100" y="0" width="10" height="10" fill="rgb(125,144,199)"/><rect x="110" y="0" width="10" height="10" fill="rgb(131,152,208)"/><rect x="120" y="0" width="10" height="10" fill="rgb(128,144,195)"/><rect x="130" y="0" width="10" height="10" fill="rgb(115,136,189)"/><rect x="140" y="0" width="10" height="10" fill="rgb(131,153,211)"/><rect x="150" y="0" width="10" height="10" fill="rgb(116,138,198)"/><rect x="160" y="0" width="10" height="10" fill="rgb(131,153,208)"/><rect x="170" y="0" width="10" height="10" fill="rgb(125,144,198)"/><rect x="180" y="0" width="10" height="10" fill="rgb(124,144,200)"/><rect x="190" y="0" width="10" height="10" fill="rgb(127,147,204)"/><rect x="200" y="0" width="10" height="10" fill="rgb(122,142,199)"/><rect x="210" y="0" width="10" height="10" fill="rgb(117,139,199)"/><rect x="220" y="0" width="10" height="10" fill="rgb(127,149,207)"/><rect x="230" y="0" width="10" height="10" fill="rgb(131,151,204)"/><rect x="240" y="0" width="10" height="10" fill="rgb(124,148,206)"/><rect x="250" y="0" width="10" height="10" fill="rgb(131,153,208)"/><rect x="260" y="0" width="10" height="10" fill="rgb(124,147,205)"/><rect x="270" y="0" width="10" height="10" fill="rgb(117,139,202)"/><rect x="280" y="0" width="10" height="10" fill="rgb(114,138,202)"/><rect x="290" y="0" width="10" height="10" fill="rgb(113,137,203)"/><rect x="300" y="0" width="10" height="10" fill="rgb(113,140,204)"/><rect x="310" y="0" width="10" height="10" fill="rgb(114,149,223)"/><rect x="320" y="0" width="10" height="10" fill="rgb(82,125,220)"/><rect x="330" y="0" width="10" height="10" fill="rgb(84,141,243)"/><rect x="340" y="0" width="10" height="10" fill="rgb(82,160,255)"/><rect x="350" y="0" width="10" height="10" fill="rgb(65,145,255)"/><rect x="360" y="0" width="10" height="10" fill="rgb(63,147,255)"/><rect x="370" y="0" width="10" height="10" fill="rgb(65,152,255)"/><rect x="380" y="0" width="10" height="10" fill="rgb(62,157,255)"/><rect x="390" y="0" width="10" height="10" fill="rgb(74,170,255)"/><rect x="400" y="0" width="10" height="10" fill="rgb(115,184,255)"/><rect x="410" y="0" width="10" height="10" fill="rgb(149,197,253)"/><rect x="420" y="0" width="10" height="10" fill="rgb(144,195,253)"/><rect x="430" y="0" width="10" height="10" fill="rgb(148,198,253)"/><rect x="440" y="0" width="10" height="10" fill="rgb(148,199,253)"/><rect x="450" y="0" width="10" height="10" fill="rgb(153,201,253)"/><rect x="460" y="0" width="10" height="10" fill="rgb(75,176,255)"/><rect x="470" y="0" width="10" height="10" fill="rgb(81,176,255)"/><rect x="0" y="10" width="10" height="10" fill="rgb(97,179,255)"/><rect x="10" y="10" width="10" height="10" fill="rgb(103,181,255)"/><rect x="20" y="10" width="10" height="10" fill="rgb(121,183,255)"/><rect x="30" y="10" width="10" height="10" fill="rgb(139,190,254)"/><rect x="40" y="10" width="10" height="10" fill="rgb(139,193,254)"/><rect x="50" y="10" width="10" height="10" fill="rgb(119,187,254)"/><rect x="60" y="10" width="10" height="10" fill="rgb(98,184,255)"/><rect x="70" y="10" width="10" height="10" fill="rgb(85,186,255)"/><rect x="80" y="10" width="10" height="10" fill="rgb(98,191,255)"/><rect x="90" y="10" width="10" height="10" fill="rgb(130,186,254)"/><rect x="100" y="10" width="10" height="10" fill="rgb(99,169,255)"/><rect x="110" y="10" width="10" height="10" fill="rgb(81,148,255)"/><rect x="120" y="10" width="10" height="10" fill="rgb(60,127,255)"/><rect x="130" y="10" width="10" height="10" fill="rgb(51,113,255)"/><rect x="140" y="10" width="10" height="10" fill="rgb(31,96,255)"/><rect x="150" y="10" width="10" height="10" fill="rgb(0,75,255)"/><rect x="160" y="10" width="10" height="10" fill="rgb(3,69,252)"/><rect x="170" y="10" width="10" height="10" fill="rgb(61,122,240)"/><rect x="180" y="10" width="10" height="10" fill="rgb(107,107,107)"/><rect x="190" y="10" width="10" height="10" fill="rgb(15,15,15)"/><rect x="200" y="10" width="10" height="10" fill="rgb(10,10,10)"/><rect x="210" y="10" width="10" height="10" fill="rgb(9,9,9)"/><rect x="220" y="10" width="10" height="10" fill="rgb(73,73,73)"/><rect x="230" y="10" width="10" height="10" fill="rgb(9,9,9)"/><rect x="240" y="10" width="10" height="10" fill="rgb(73,73,73)"/><rect x="250" y="10" width="10" height="10" fill="rgb(9,9,9)"/><rect x="260" y="10" width="10" height="10" fill="rgb(9,9,9)"/><rect x="270" y="10" width="10" height="10" fill="rgb(9,9,9)"/><rect x="280" y="10" width="10" height="10" fill="rgb(9,9,9)"/><rect x="290" y="10" width="10" height="10" fill="rgb(9,9,9)"/><rect x="300" y="10" width="10" height="10" fill="rgb(9,9,9)"/><rect x="310" y="10" width="10" height="10" fill="rgb(9,9,9)"/><rect x="320" y="10" width="10" height="10" fill="rgb(10,10,10)"/><rect x="330" y="10" width="10" height="10" fill="rgb(9,9,9)"/><rect x="340" y="10" width="10" height="10" fill="rgb(9,9,9)"/><rect x="350" y="10" width="10" height="10" fill="rgb(9,9,9)"/><rect x="360" y="10" width="10" height="10" fill="rgb(9,9,9)"/><rect x="370" y="10" width="10" height="10" fill="rgb(9,9,9)"/><rect x="380" y="10" width="10" height="10" fill="rgb(10,10,10)"/><rect x="390" y="10" width="10" height="10" fill="rgb(9,9,9)"/><rect x="400" y="10" width="10" height="10" fill="rgb(9,9,9)"/><rect x="410" y="10" width="10" height="10" fill="rgb(9,9,9)"/><rect x="420" y="10" width="10" height="10" fill="rgb(9,9,9)"/><rect x="430" y="10" width="10" height="10" fill="rgb(9,9,9)"/><rect x="440" y="10" width="10" height="10" fill="rgb(9,9,9)"/><rect x="450" y="10" width="10" height="10" fill="rgb(9,9,9)"/><rect x="460" y="10" width="10" height="10" fill="rgb(9,9,9)"/><rect x="470" y="10" width="10" height="10" fill="rgb(9,9,9)"/><rect x="0" y="20" width="10" height="10" fill="rgb(9,9,9)"/><rect x="10" y="20" width="10" height="10" fill="rgb(9,9,9)"/><rect x="20" y="20" width="10" height="10" fill="rgb(9,9,9)"/><rect x="30" y="20" width="10" height="10" fill="rgb(9,9,9)"/><rect x="40" y="20" width="10" height="10" fill="rgb(9,9,9)"/><rect x="50" y="20" width="10" height="10" fill="rgb(9,9,9)"/><rect x="60" y="20" width="10" height="10" fill="rgb(9,9,9)"/><rect x="70" y="20" width="10" height="10" fill="rgb(9,9,9)"/><rect x="80" y="20" width="10" height="10" fill="rgb(9,9,9)"/><rect x="90" y="20" width="10" height="10" fill="rgb(9,9,9)"/><rect x="100" y="20" width="10" height="10" fill="rgb(9,9,9)"/><rect x="110" y="20" width="10" height="10" fill="rgb(9,9,9)"/><rect x="120" y="20" width="10" height="10" fill="rgb(9,9,9)"/><rect x="130" y="20" width="10" height="10" fill="rgb(9,9,9)"/><rect x="140" y="20" width="10" height="10" fill="rgb(9,9,9)"/><rect x="150" y="20" width="10" height="10" fill="rgb(9,9,9)"/><rect x="160" y="20" width="10" height="10" fill="rgb(9,9,9)"/><rect x="170" y="20" width="10" height="10" fill="rgb(9,9,9)"/><rect x="180" y="20" width="10" height="10" fill="rgb(9,9,9)"/><rect x="190" y="20" width="10" height="10" fill="rgb(9,9,9)"/><rect x="200" y="20" width="10" height="10" fill="rgb(9,9,9)"/><rect x="210" y="20" width="10" height="10" fill="rgb(9,9,9)"/><rect x="220" y="20" width="10" height="10" fill="rgb(9,9,9)"/><rect x="230" y="20" width="10" height="10" fill="rgb(9,9,9)"/><rect x="240" y="20" width="10" height="10" fill="rgb(9,9,9)"/><rect x="250" y="20" width="10" height="10" fill="rgb(9,9,9)"/><rect x="260" y="20" width="10" height="10" fill="rgb(9,9,9)"/><rect x="270" y="20" width="10" height="10" fill="rgb(9,9,9)"/><rect x="280" y="20" width="10" height="10" fill="rgb(9,9,9)"/><rect x="290" y="20" width="10" height="10" fill="rgb(9,9,9)"/><rect x="300" y="20" width="10" height="10" fill="rgb(9,9,9)"/><rect x="310" y="20" width="10" height="10" fill="rgb(9,9,9)"/><rect x="320" y="20" width="10" height="10" fill="rgb(9,9,9)"/><rect x="330" y="20" width="10" height="10" fill="rgb(9,9,9)"/><rect x="340" y="20" width="10" height="10" fill="rgb(9,9,9)"/><rect x="350" y="20" width="10" height="10" fill="rgb(9,9,9)"/><rect x="360" y="20" width="10" height="10" fill="rgb(9,9,9)"/><rect x="370" y="20" width="10" height="10" fill="rgb(9,9,9)"/><rect x="380" y="20" width="10" height="10" fill="rgb(9,9,9)"/><rect x="390" y="20" width="10" height="10" fill="rgb(9,9,9)"/><rect x="400" y="20" width="10" height="10" fill="rgb(9,9,9)"/><rect x="410" y="20" width="10" height="10" fill="rgb(9,9,9)"/><rect x="420" y="20" width="10" height="10" fill="rgb(9,9,9)"/><rect x="430" y="20" width="10" height="10" fill="rgb(9,9,9)"/><rect x="440" y="20" width="10" height="10" fill="rgb(9,9,9)"/><rect x="450" y="20" width="10" height="10" fill="rgb(9,9,9)"/><rect x="460" y="20" width="10" height="10" fill="rgb(9,9,9)"/><rect x="470" y="20" width="10" height="10" fill="rgb(9,9,9)"/><rect x="0" y="30" width="10" height="10" fill="rgb(9,9,9)"/><rect x="10" y="30" width="10" height="10" fill="rgb(9,9,9)"/><rect x="20" y="30" width="10" height="10" fill="rgb(9,9,9)"/><rect x="30" y="30" width="10" height="10" fill="rgb(9,9,9)"/><rect x="40" y="30" width="10" height="10" fill="rgb(9,9,9)"/><rect x="50" y="30" width="10" height="10" fill="rgb(9,9,9)"/><rect x="60" y="30" width="10" height="10" fill="rgb(9,9,9)"/><rect x="70" y="30" width="10" height="10" fill="rgb(9,9,9)"/><rect x="80" y="30" width="10" height="10" fill="rgb(9,9,9)"/><rect x="90" y="30" width="10" height="10" fill="rgb(9,9,9)"/><rect x="100" y="30" width="10" height="10" fill="rgb(9,9,9)"/><rect x="110" y="30" width="10" height="10" fill="rgb(9,9,9)"/><rect x="120" y="30" width="10" height="10" fill="rgb(9,9,9)"/><rect x="130" y="30" width="10" height="10" fill="rgb(9,9,9)"/><rect x="140" y="30" width="10" height="10" fill="rgb(9,9,9)"/><rect x="150" y="30" width="10" height="10" fill="rgb(9,9,9)"/><rect x="160" y="30" width="10" height="10" fill="rgb(10,10,10)"/><rect x="170" y="30" width="10" height="10" fill="rgb(10,10,10)"/><rect x="180" y="30" width="10" height="10" fill="rgb(11,11,11)"/><rect x="190" y="30" width="10" height="10" fill="rgb(12,12,12)"/><rect x="200" y="30" width="10" height="10" fill="rgb(10,10,10)"/><rect x="210" y="30" width="10" height="10" fill="rgb(14,14,14)"/><rect x="220" y="30" width="10" height="10" fill="rgb(68,68,68)"/><rect x="230" y="30" width="10" height="10" fill="rgb(139,139,139)"/><rect x="240" y="30" width="10" height="10" fill="rgb(199,199,199)"/><rect x="250" y="30" width="10" height="10" fill="rgb(119,210,253)"/><rect x="260" y="30" width="10" height="10" fill="rgb(107,171,255)"/><rect x="270" y="30" width="10" height="10" fill="rgb(221,240,245)"/><rect x="280" y="30" width="10" height="10" fill="rgb(238,241,243)"/><rect x="290" y="30" width="10" height="10" fill="rgb(243,243,243)"/><rect x="300" y="30" width="10" height="10" fill="rgb(243,241,243)"/><rect x="310" y="30" width="10" height="10" fill="rgb(196,191,250)"/><rect x="320" y="30" width="10" height="10" fill="rgb(126,149,244)"/><rect x="330" y="30" width="10" height="10" fill="rgb(135,159,232)"/><rect x="340" y="30" width="10" height="10" fill="rgb(167,181,232)"/><rect x="350" y="30" width="10" height="10" fill="rgb(131,158,230)"/><rect x="360" y="30" width="10" height="10" fill="rgb(152,171,233)"/><rect x="370" y="30" width="10" height="10" fill="rgb(122,142,211)"/><rect x="380" y="30" width="10" height="10" fill="rgb(104,133,219)"/><rect x="390" y="30" width="10" height="10" fill="rgb(113,154,239)"/><rect x="400" y="30" width="10" height="10" fill="rgb(132,163,237)"/><rect x="410" y="30" width="10" height="10" fill="rgb(139,154,194)"/><rect x="420" y="30" width="10" height="10" fill="rgb(200,199,215)"/><rect x="430" y="30" width="10" height="10" fill="rgb(224,224,234)"/><rect x="440" y="30" width="10" height="10" fill="rgb(203,203,217)"/><rect x="450" y="30" width="10" height="10" fill="rgb(228,229,235)"/><rect x="460" y="30" width="10" height="10" fill="rgb(133,158,214)"/><rect x="470" y="30" width="10" height="10" fill="rgb(167,185,229)"/><rect x="0" y="40" width="10" height="10" fill="rgb(193,200,227)"/><rect x="10" y="40" width="10" height="10" fill="rgb(181,189,223)"/><rect x="20" y="40" width="10" height="10" fill="rgb(140,156,202)"/><rect x="30" y="40" width="10" height="10" fill="rgb(189,195,227)"/><rect x="40" y="40" width="10" height="10" fill="rgb(171,184,220)"/><rect x="50" y="40" width="10" height="10" fill="rgb(190,200,231)"/><rect x="60" y="40" width="10" height="10" fill="rgb(193,201,229)"/><rect x="70" y="40" width="10" height="10" fill="rgb(187,197,227)"/><rect x="80" y="40" width="10" height="10" fill="rgb(169,184,219)"/><rect x="90" y="40" width="10" height="10" fill="rgb(194,226,248)"/><rect x="100" y="40" width="10" height="10" fill="rgb(208,228,247)"/><rect x="110" y="40" width="10" height="10" fill="rgb(221,232,246)"/><rect x="120" y="40" width="10" height="10" fill="rgb(226,227,236)"/><rect x="130" y="40" width="10" height="10" fill="rgb(222,233,247)"/><rect x="140" y="40" width="10" height="10" fill="rgb(221,229,246)"/><rect x="150" y="40" width="10" height="10" fill="rgb(233,235,243)"/><rect x="160" y="40" width="10" height="10" fill="rgb(218,228,246)"/><rect x="170" y="40" width="10" height="10" fill="rgb(214,225,247)"/><rect x="180" y="40" width="10" height="10" fill="rgb(238,237,241)"/><rect x="190" y="40" width="10" height="10" fill="rgb(230,231,240)"/><rect x="200" y="40" width="10" height="10" fill="rgb(227,226,233)"/><rect x="210" y="40" width="10" height="10" fill="rgb(226,231,245)"/><rect x="220" y="40" width="10" height="10" fill="rgb(233,240,244)"/><rect x="230" y="40" width="10" height="10" fill="rgb(222,231,246)"/><rect x="240" y="40" width="10" height="10" fill="rgb(226,231,245)"/><rect x="250" y="40" width="10" height="10" fill="rgb(231,236,245)"/><rect x="260" y="40" width="10" height="10" fill="rgb(233,238,244)"/><rect x="270" y="40" width="10" height="10" fill="rgb(218,235,246)"/><rect x="280" y="40" width="10" height="10" fill="rgb(213,231,247)"/><rect x="290" y="40" width="10" height="10" fill="rgb(217,232,245)"/><rect x="300" y="40" width="10" height="10" fill="rgb(206,226,248)"/><rect x="310" y="40" width="10" height="10" fill="rgb(220,232,246)"/><rect x="320" y="40" width="10" height="10" fill="rgb(205,227,248)"/><rect x="330" y="40" width="10" height="10" fill="rgb(200,223,249)"/><rect x="340" y="40" width="10" height="10" fill="rgb(202,224,249)"/><rect x="350" y="40" width="10" height="10" fill="rgb(199,217,250)"/><rect x="360" y="40" width="10" height="10" fill="rgb(226,235,245)"/><rect x="370" y="40" width="10" height="10" fill="rgb(198,217,250)"/><rect x="380" y="40" width="10" height="10" fill="rgb(182,208,251)"/><rect x="390" y="40" width="10" height="10" fill="rgb(183,201,245)"/><rect x="400" y="40" width="10" height="10" fill="rgb(170,194,250)"/><rect x="410" y="40" width="10" height="10" fill="rgb(168,190,244)"/><rect x="420" y="40" width="10" height="10" fill="rgb(182,201,249)"/><rect x="430" y="40" width="10" height="10" fill="rgb(184,199,244)"/><rect x="440" y="40" width="10" height="10" fill="rgb(179,195,241)"/><rect x="450" y="40" width="10" height="10" fill="rgb(173,190,237)"/><rect x="460" y="40" width="10" height="10" fill="rgb(165,186,239)"/><rect x="470" y="40" width="10" height="10" fill="rgb(169,189,242)"/><rect x="0" y="50" width="10" height="10" fill="rgb(172,190,236)"/><rect x="10" y="50" width="10" height="10" fill="rgb(169,188,237)"/><rect x="20" y="50" width="10" height="10" fill="rgb(161,181,233)"/><rect x="30" y="50" width="10" height="10" fill="rgb(174,189,234)"/><rect x="40" y="50" width="10" height="10" fill="rgb(180,193,234)"/><rect x="50" y="50" width="10" height="10" fill="rgb(159,180,232)"/><rect x="60" y="50" width="10" height="10" fill="rgb(157,178,232)"/><rect x="70" y="50" width="10" height="10" fill="rgb(159,177,229)"/><rect x="80" y="50" width="10" height="10" fill="rgb(179,189,226)"/><rect x="90" y="50" width="10" height="10" fill="rgb(174,184,225)"/><rect x="100" y="50" width="10" height="10" fill="rgb(181,188,223)"/><rect x="110" y="50" width="10" height="10" fill="rgb(163,179,228)"/><rect x="120" y="50" width="10" height="10" fill="rgb(166,180,228)"/><rect x="130" y="50" width="10" height="10" fill="rgb(151,169,223)"/><rect x="140" y="50" width="10" height="10" fill="rgb(136,158,220)"/><rect x="150" y="50" width="10" height="10" fill="rgb(155,175,228)"/><rect x="160" y="50" width="10" height="10" fill="rgb(109,145,224)"/><rect x="170" y="50" width="10" height="10" fill="rgb(127,157,223)"/><rect x="180" y="50" width="10" height="10" fill="rgb(126,154,219)"/><rect x="190" y="50" width="10" height="10" fill="rgb(129,154,217)"/><rect x="200" y="50" width="10" height="10" fill="rgb(130,155,214)"/><rect x="210" y="50" width="10" height="10" fill="rgb(104,139,218)"/><rect x="220" y="50" width="10" height="10" fill="rgb(169,184,225)"/><rect x="230" y="50" width="10" height="10" fill="rgb(168,184,229)"/><rect x="240" y="50" width="10" height="10" fill="rgb(167,182,227)"/><rect x="250" y="50" width="10" height="10" fill="rgb(155,176,230)"/><rect x="260" y="50" width="10" height="10" fill="rgb(134,163,229)"/><rect x="270" y="50" width="10" height="10" fill="rgb(147,171,228)"/><rect x="280" y="50" width="10" height="10" fill="rgb(144,170,230)"/><rect x="290" y="50" width="10" height="10" fill="rgb(119,155,230)"/><rect x="300" y="50" width="10" height="10" fill="rgb(103,147,234)"/><rect x="310" y="50" width="10" height="10" fill="rgb(91,141,231)"/><rect x="320" y="50" width="10" height="10" fill="rgb(93,142,230)"/><rect x="330" y="50" width="10" height="10" fill="rgb(87,137,225)"/><rect x="340" y="50" width="10" height="10" fill="rgb(52,90,216)"/><rect x="350" y="50" width="10" height="10" fill="rgb(71,102,205)"/><rect x="360" y="50" width="10" height="10" fill="rgb(172,184,220)"/><rect x="370" y="50" width="10" height="10" fill="rgb(83,109,208)"/><rect x="380" y="50" width="10" height="10" fill="rgb(96,128,216)"/><rect x="390" y="50" width="10" height="10" fill="rgb(177,189,225)"/><rect x="400" y="50" width="10" height="10" fill="rgb(142,169,228)"/><rect x="410" y="50" width="10" height="10" fill="rgb(174,188,231)"/><rect x="420" y="50" width="10" height="10" fill="rgb(156,175,229)"/><rect x="430" y="50" width="10" height="10" fill="rgb(167,185,235)"/><rect x="440" y="50" width="10" height="10" fill="rgb(170,187,239)"/><rect x="450" y="50" width="10" height="10" fill="rgb(124,162,240)"/><rect x="460" y="50" width="10" height="10" fill="rgb(77,139,242)"/><rect x="470" y="50" width="10" height="10" fill="rgb(65,135,245)"/><rect x="0" y="60" width="10" height="10" fill="rgb(62,132,242)"/><rect x="10" y="60" width="10" height="10" fill="rgb(60,132,244)"/><rect x="20" y="60" width="10" height="10" fill="rgb(62,135,248)"/><rect x="30" y="60" width="10" height="10" fill="rgb(60,133,247)"/><rect x="40" y="60" width="10" height="10" fill="rgb(59,134,249)"/><rect x="50" y="60" width="10" height="10" fill="rgb(58,133,250)"/><rect x="60" y="60" width="10" height="10" fill="rgb(59,135,251)"/><rect x="70" y="60" width="10" height="10" fill="rgb(59,136,252)"/><rect x="80" y="60" width="10" height="10" fill="rgb(58,138,254)"/><rect x="90" y="60" width="10" height="10" fill="rgb(58,138,255)"/><rect x="100" y="60" width="10" height="10" fill="rgb(55,138,255)"/><rect x="110" y="60" width="10" height="10" fill="rgb(56,139,255)"/><rect x="120" y="60" width="10" height="10" fill="rgb(56,141,255)"/><rect x="130" y="60" width="10" height="10" fill="rgb(58,142,255)"/><rect x="140" y="60" width="10" height="10" fill="rgb(58,143,255)"/><rect x="150" y="60" width="10" height="10" fill="rgb(62,146,255)"/><rect x="160" y="60" width="10" height="10" fill="rgb(63,146,255)"/><rect x="170" y="60" width="10" height="10" fill="rgb(66,149,255)"/><rect x="180" y="60" width="10" height="10" fill="rgb(70,151,255)"/><rect x="190" y="60" width="10" height="10" fill="rgb(72,153,255)"/><rect x="200" y="60" width="10" height="10" fill="rgb(74,154,255)"/></svg>