<svg xmlns="http://www.w3.org/2000/svg" width="100" height="260"><rect x="0" y="0" width="10" height="10" fill="rgb(101,103,122)"/><rect x="10" y="0" width="10" height="10" fill="rgb(101,103,122)"/><rect x="20" y="0" width="10" height="10" fill="rgb(101,103,122)"/><rect x="30" y="0" width="10" height="10" fill="rgb(108,110,136)"/><rect x="40" y="0" width="10" height="10" fill="rgb(108,110,136)"/><rect x="50" y="0" width="10" height="10" fill="rgb(108,110,136)"/><rect x="60" y="0" width="10" height="10" fill="rgb(30,33,47)"/><rect x="70" y="0" width="10" height="10" fill="rgb(30,33,47)"/><rect x="80" y="0" width="10" height="10" fill="rgb(13,12,21)"/><rect x="90" y="0" width="10" height="10" fill="rgb(13,12,21)"/><rect x="0" y="10" width="10" height="10" fill="rgb(13,12,21)"/><rect x="10" y="10" width="10" height="10" fill="rgb(2,1,3)"/><rect x="20" y="10" width="10" height="10" fill="rgb(2,1,3)"/><rect x="30" y="10" width="10" height="10" fill="rgb(2,1,3)"/><rect x="40" y="10" width="10" height="10" fill="rgb(1,1,1)"/><rect x="50" y="10" width="10" height="10" fill="rgb(1,1,1)"/><rect x="60" y="10" width="10" height="10" fill="rgb(1,1,1)"/><rect x="70" y="10" width="10" height="10" fill="rgb(1,1,1)"/><rect x="80" y="10" width="10" height="10" fill="rgb(1,1,1)"/><rect x="90" y="10" width="10" height="10" fill="rgb(1,1,1)"/><rect x="0" y="20" width="10" height="10" fill="rgb(1,1,1)"/><rect x="10" y="20" width="10" height="10" fill="rgb(1,1,1)"/><rect x="20" y="20" width="10" height="10" fill="rgb(1,1,1)"/><rect x="30" y="20" width="10" height="10" fill="rgb(1,1,1)"/><rect x="40" y="20" width="10" height="10" fill="rgb(1,1,1)"/><rect x="50" y="20" width="10" height="10" fill="rgb(1,1,1)"/><rect x="60" y="20" width="10" height="10" fill="rgb(1,1,1)"/><rect x="70" y="20" width="10" height="10" fill="rgb(1,1,1)"/><rect x="80" y="20" width="10" height="10" fill="rgb(1,1,1)"/><rect x="90" y="20" width="10" height="10" fill="rgb(1,1,1)"/><rect x="0" y="30" width="10" height="10" fill="rgb(1,1,1)"/><rect x="10" y="30" width="10" height="10" fill="rgb(1,1,1)"/><rect x="20" y="30" width="10" height="10" fill="rgb(1,1,1)"/><rect x="30" y="30" width="10" height="10" fill="rgb(1,1,1)"/><rect x="40" y="30" width="10" height="10" fill="rgb(1,1,1)"/><rect x="50" y="30" width="10" height="10" fill="rgb(1,1,1)"/><rect x="60" y="30" width="10" height="10" fill="rgb(1,1,1)"/><rect x="70" y="30" width="10" height="10" fill="rgb(1,1,1)"/><rect x="80" y="30" width="10" height="10" fill="rgb(1,1,1)"/><rect x="90" y="30" width="10" height="10" fill="rgb(1,1,1)"/><rect x="0" y="40" width="10" height="10" fill="rgb(1,1,1)"/><rect x="10" y="40" width="10" height="10" fill="rgb(1,1,1)"/><rect x="20" y="40" width="10" height="10" fill="rgb(1,1,1)"/><rect x="30" y="40" width="10" height="10" fill="rgb(1,1,1)"/><rect x="40" y="40" width="10" height="10" fill="rgb(1,1,1)"/><rect x="50" y="40" width="10" height="10" fill="rgb(1,1,1)"/><rect x="60" y="40" width="10" height="10" fill="rgb(1,1,1)"/><rect x="70" y="40" width="10" height="10" fill="rgb(1,1,1)"/><rect x="80" y="40" width="10" height="10" fill="rgb(1,1,1)"/><rect x="90" y="40" width="10" height="10" fill="rgb(1,1,1)"/><rect x="0" y="50" width="10" height="10" fill="rgb(1,1,1)"/><rect x="10" y="50" width="10" height="10" fill="rgb(1,1,1)"/><rect x="20" y="50" width="10" height="10" fill="rgb(1,1,1)"/><rect x="30" y="50" width="10" height="10" fill="rgb(1,1,1)"/><rect x="40" y="50" width="10" height="10" fill="rgb(1,1,1)"/><rect x="50" y="50" width="10" height="10" fill="rgb(1,1,1)"/><rect x="60" y="50" width="10" height="10" fill="rgb(1,1,1)"/><rect x="70" y="50" width="10" height="10" fill="rgb(1,1,1)"/><rect x="80" y="50" width="10" height="10" fill="rgb(1,1,1)"/><rect x="90" y="50" width="10" height="10" fill="rgb(1,1,1)"/><rect x="0" y="60" width="10" height="10" fill="rgb(1,1,1)"/><rect x="10" y="60" width="10" height="10" fill="rgb(1,1,1)"/><rect x="20" y="60" width="10" height="10" fill="rgb(1,1,1)"/><rect x="30" y="60" width="10" height="10" fill="rgb(1,1,1)"/><rect x="40" y="60" width="10" height="10" fill="rgb(1,1,1)"/><rect x="50" y="60" width="10" height="10" fill="rgb(1,1,1)"/><rect x="60" y="60" width="10" height="10" fill="rgb(1,1,1)"/><rect x="70" y="60" width="10" height="10" fill="rgb(1,1,1)"/><rect x="80" y="60" width="10" height="10" fill="rgb(1,1,1)"/><rect x="90" y="60" width="10" height="10" fill="rgb(1,1,1)"/><rect x="0" y="70" width="10" height="10" fill="rgb(1,1,1)"/><rect x="10" y="70" width="10" height="10" fill="rgb(1,1,1)"/><rect x="20" y="70" width="10" height="10" fill="rgb(1,1,1)"/><rect x="30" y="70" width="10" height="10" fill="rgb(1,1,1)"/><rect x="40" y="70" width="10" height="10" fill="rgb(1,1,1)"/><rect x="50" y="70" width="10" height="10" fill="rgb(1,1,1)"/><rect x="60" y="70" width="10" height="10" fill="rgb(1,1,1)"/><rect x="70" y="70" width="10" height="10" fill="rgb(1,1,1)"/><rect x="80" y="70" width="10" height="10" fill="rgb(1,1,1)"/><rect x="90" y="70" width="10" height="10" fill="rgb(1,1,1)"/><rect x="0" y="80" width="10" height="10" fill="rgb(1,1,1)"/><rect x="10" y="80" width="10" height="10" fill="rgb(1,1,1)"/><rect x="20" y="80" width="10" height="10" fill="rgb(1,1,1)"/><rect x="30" y="80" width="10" height="10" fill="rgb(1,1,1)"/><rect x="40" y="80" width="10" height="10" fill="rgb(1,1,1)"/><rect x="50" y="80" width="10" height="10" fill="rgb(1,1,1)"/><rect x="60" y="80" width="10" height="10" fill="rgb(1,1,1)"/><rect x="70" y="80" width="10" height="10" fill="rgb(1,1,1)"/><rect x="80" y="80" width="10" height="10" fill="rgb(1,1,1)"/><rect x="90" y="80" width="10" height="10" fill="rgb(1,1,1)"/><rect x="0" y="90" width="10" height="10" fill="rgb(1,1,1)"/><rect x="10" y="90" width="10" height="10" fill="rgb(1,1,1)"/><rect x="20" y="90" width="10" height="10" fill="rgb(1,1,1)"/><rect x="30" y="90" width="10" height="10" fill="rgb(3,2,5)"/><rect x="40" y="90" width="10" height="10" fill="rgb(3,2,5)"/><rect x="50" y="90" width="10" height="10" fill="rgb(3,2,5)"/><rect x="60" y="90" width="10" height="10" fill="rgb(36,38,50)"/><rect x="70" y="90" width="10" height="10" fill="rgb(36,38,50)"/><rect x="80" y="90" width="10" height="10" fill="rgb(36,38,50)"/><rect x="90" y="90" width="10" height="10" fill="rgb(91,92,119)"/><rect x="0" y="100" width="10" height="10" fill="rgb(91,92,119)"/><rect x="10" y="100" width="10" height="10" fill="rgb(108,110,132)"/><rect x="20" y="100" width="10" height="10" fill="rgb(108,110,132)"/><rect x="30" y="100" width="10" height="10" fill="rgb(108,110,132)"/><rect x="40" y="100" width="10" height="10" fill="rgb(126,129,138)"/><rect x="50" y="100" width="10" height="10" fill="rgb(126,129,138)"/><rect x="60" y="100" width="10" height="10" fill="rgb(126,129,138)"/><rect x="70" y="100" width="10" height="10" fill="rgb(127,130,135)"/><rect x="80" y="100" width="10" height="10" fill="rgb(127,130,135)"/><rect x="90" y="100" width="10" height="10" fill="rgb(127,130,135)"/><rect x="0" y="110" width="10" height="10" fill="rgb(111,112,109)"/><rect x="10" y="110" width="10" height="10" fill="rgb(111,112,109)"/><rect x="20" y="110" width="10" height="10" fill="rgb(111,112,109)"/><rect x="30" y="110" width="10" height="10" fill="rgb(110,112,108)"/><rect x="40" y="110" width="10" height="10" fill="rgb(110,112,108)"/><rect x="50" y="110" width="10" height="10" fill="rgb(110,112,108)"/><rect x="60" y="110" width="10" height="10" fill="rgb(111,112,109)"/><rect x="70" y="110" width="10" height="10" fill="rgb(111,112,109)"/><rect x="80" y="110" width="10" height="10" fill="rgb(111,112,109)"/><rect x="90" y="110" width="10" height="10" fill="rgb(111,113,110)"/><rect x="0" y="120" width="10" height="10" fill="rgb(111,113,110)"/><rect x="10" y="120" width="10" height="10" fill="rgb(111,112,110)"/><rect x="20" y="120" width="10" height="10" fill="rgb(111,112,110)"/><rect x="30" y="120" width="10" height="10" fill="rgb(111,112,110)"/><rect x="40" y="120" width="10" height="10" fill="rgb(108,110,109)"/><rect x="50" y="120" width="10" height="10" fill="rgb(108,110,109)"/><rect x="60" y="120" width="10" height="10" fill="rgb(108,110,109)"/><rect x="70" y="120" width="10" height="10" fill="rgb(107,109,107)"/><rect x="80" y="120" width="10" height="10" fill="rgb(107,109,107)"/><rect x="90" y="120" width="10" height="10" fill="rgb(107,109,107)"/><rect x="0" y="130" width="10" height="10" fill="rgb(112,113,110)"/><rect x="10" y="130" width="10" height="10" fill="rgb(112,113,110)"/><rect x="20" y="130" width="10" height="10" fill="rgb(112,113,110)"/><rect x="30" y="130" width="10" height="10" fill="rgb(119,120,118)"/><rect x="40" y="130" width="10" height="10" fill="rgb(119,120,118)"/><rect x="50" y="130" width="10" height="10" fill="rgb(119,120,118)"/><rect x="60" y="130" width="10" height="10" fill="rgb(127,129,126)"/><rect x="70" y="130" width="10" height="10" fill="rgb(127,129,126)"/><rect x="80" y="130" width="10" height="10" fill="rgb(126,127,124)"/><rect x="90" y="130" width="10" height="10" fill="rgb(126,127,124)"/><rect x="0" y="140" width="10" height="10" fill="rgb(119,120,117)"/><rect x="10" y="140" width="10" height="10" fill="rgb(119,120,117)"/><rect x="20" y="140" width="10" height="10" fill="rgb(119,120,117)"/><rect x="30" y="140" width="10" height="10" fill="rgb(112,113,110)"/><rect x="40" y="140" width="10" height="10" fill="rgb(112,113,110)"/><rect x="50" y="140" width="10" height="10" fill="rgb(112,113,110)"/><rect x="60" y="140" width="10" height="10" fill="rgb(109,111,109)"/><rect x="70" y="140" width="10" height="10" fill="rgb(109,111,109)"/><rect x="80" y="140" width="10" height="10" fill="rgb(112,114,112)"/><rect x="90" y="140" width="10" height="10" fill="rgb(112,114,112)"/><rect x="0" y="150" width="10" height="10" fill="rgb(112,114,112)"/><rect x="10" y="150" width="10" height="10" fill="rgb(111,113,112)"/><rect x="20" y="150" width="10" height="10" fill="rgb(111,113,112)"/><rect x="30" y="150" width="10" height="10" fill="rgb(111,113,112)"/><rect x="40" y="150" width="10" height="10" fill="rgb(110,111,109)"/><rect x="50" y="150" width="10" height="10" fill="rgb(110,111,109)"/><rect x="60" y="150" width="10" height="10" fill="rgb(110,111,109)"/><rect x="70" y="150" width="10" height="10" fill="rgb(115,116,114)"/><rect x="80" y="150" width="10" height="10" fill="rgb(115,116,114)"/><rect x="90" y="150" width="10" height="10" fill="rgb(124,126,123)"/><rect x="0" y="160" width="10" height="10" fill="rgb(124,126,123)"/><rect x="10" y="160" width="10" height="10" fill="rgb(115,117,114)"/><rect x="20" y="160" width="10" height="10" fill="rgb(115,117,114)"/><rect x="30" y="160" width="10" height="10" fill="rgb(115,117,114)"/><rect x="40" y="160" width="10" height="10" fill="rgb(109,111,108)"/><rect x="50" y="160" width="10" height="10" fill="rgb(109,111,108)"/><rect x="60" y="160" width="10" height="10" fill="rgb(113,115,112)"/><rect x="70" y="160" width="10" height="10" fill="rgb(113,115,112)"/><rect x="80" y="160" width="10" height="10" fill="rgb(113,115,112)"/><rect x="90" y="160" width="10" height="10" fill="rgb(122,123,120)"/><rect x="0" y="170" width="10" height="10" fill="rgb(122,123,120)"/><rect x="10" y="170" width="10" height="10" fill="rgb(114,116,112)"/><rect x="20" y="170" width="10" height="10" fill="rgb(114,116,112)"/><rect x="30" y="170" width="10" height="10" fill="rgb(114,116,112)"/><rect x="40" y="170" width="10" height="10" fill="rgb(102,103,102)"/><rect x="50" y="170" width="10" height="10" fill="rgb(102,103,102)"/><rect x="60" y="170" width="10" height="10" fill="rgb(126,127,125)"/><rect x="70" y="170" width="10" height="10" fill="rgb(126,127,125)"/><rect x="80" y="170" width="10" height="10" fill="rgb(124,125,122)"/><rect x="90" y="170" width="10" height="10" fill="rgb(124,125,122)"/><rect x="0" y="180" width="10" height="10" fill="rgb(104,105,103)"/><rect x="10" y="180" width="10" height="10" fill="rgb(104,105,103)"/><rect x="20" y="180" width="10" height="10" fill="rgb(104,105,103)"/><rect x="30" y="180" width="10" height="10" fill="rgb(96,97,95)"/><rect x="40" y="180" width="10" height="10" fill="rgb(96,97,95)"/><rect x="50" y="180" width="10" height="10" fill="rgb(96,97,95)"/><rect x="60" y="180" width="10" height="10" fill="rgb(101,103,101)"/><rect x="70" y="180" width="10" height="10" fill="rgb(101,103,101)"/><rect x="80" y="180" width="10" height="10" fill="rgb(120,121,119)"/><rect x="90" y="180" width="10" height="10" fill="rgb(120,121,119)"/><rect x="0" y="190" width="10" height="10" fill="rgb(120,121,119)"/><rect x="10" y="190" width="10" height="10" fill="rgb(118,119,117)"/><rect x="20" y="190" width="10" height="10" fill="rgb(118,119,117)"/><rect x="30" y="190" width="10" height="10" fill="rgb(118,119,117)"/><rect x="40" y="190" width="10" height="10" fill="rgb(114,115,113)"/><rect x="50" y="190" width="10" height="10" fill="rgb(114,115,113)"/><rect x="60" y="190" width="10" height="10" fill="rgb(130,131,129)"/><rect x="70" y="190" width="10" height="10" fill="rgb(130,131,129)"/><rect x="80" y="190" width="10" height="10" fill="rgb(130,131,129)"/><rect x="90" y="190" width="10" height="10" fill="rgb(116,117,116)"/><rect x="0" y="200" width="10" height="10" fill="rgb(116,117,116)"/><rect x="10" y="200" width="10" height="10" fill="rgb(116,117,116)"/><rect x="20" y="200" width="10" height="10" fill="rgb(96,98,96)"/><rect x="30" y="200" width="10" height="10" fill="rgb(96,98,96)"/><rect x="40" y="200" width="10" height="10" fill="rgb(107,108,106)"/><rect x="50" y="200" width="10" height="10" fill="rgb(107,108,106)"/><rect x="60" y="200" width="10" height="10" fill="rgb(105,106,104)"/><rect x="70" y="200" width="10" height="10" fill="rgb(105,106,104)"/><rect x="80" y="200" width="10" height="10" fill="rgb(105,106,104)"/><rect x="90" y="200" width="10" height="10" fill="rgb(100,101,99)"/><rect x="0" y="210" width="10" height="10" fill="rgb(100,101,99)"/><rect x="10" y="210" width="10" height="10" fill="rgb(92,94,92)"/><rect x="20" y="210" width="10" height="10" fill="rgb(92,94,92)"/><rect x="30" y="210" width="10" height="10" fill="rgb(109,111,109)"/><rect x="40" y="210" width="10" height="10" fill="rgb(109,111,109)"/><rect x="50" y="210" width="10" height="10" fill="rgb(109,111,109)"/><rect x="60" y="210" width="10" height="10" fill="rgb(117,118,116)"/><rect x="70" y="210" width="10" height="10" fill="rgb(117,118,116)"/><rect x="80" y="210" width="10" height="10" fill="rgb(117,118,116)"/><rect x="90" y="210" width="10" height="10" fill="rgb(111,112,110)"/><rect x="0" y="220" width="10" height="10" fill="rgb(111,112,110)"/><rect x="10" y="220" width="10" height="10" fill="rgb(111,112,110)"/><rect x="20" y="220" width="10" height="10" fill="rgb(111,113,111)"/><rect x="30" y="220" width="10" height="10" fill="rgb(111,113,111)"/><rect x="40" y="220" width="10" height="10" fill="rgb(117,118,116)"/><rect x="50" y="220" width="10" height="10" fill="rgb(117,118,116)"/><rect x="60" y="220" width="10" height="10" fill="rgb(117,118,116)"/><rect x="70" y="220" width="10" height="10" fill="rgb(102,104,102)"/><rect x="80" y="220" width="10" height="10" fill="rgb(102,104,102)"/><rect x="90" y="220" width="10" height="10" fill="rgb(97,99,97)"/><rect x="0" y="230" width="10" height="10" fill="rgb(97,99,97)"/><rect x="10" y="230" width="10" height="10" fill="rgb(97,99,97)"/><rect x="20" y="230" width="10" height="10" fill="rgb(104,105,102)"/><rect x="30" y="230" width="10" height="10" fill="rgb(104,105,102)"/><rect x="40" y="230" width="10" height="10" fill="rgb(104,105,102)"/><rect x="50" y="230" width="10" height="10" fill="rgb(99,101,100)"/><rect x="60" y="230" width="10" height="10" fill="rgb(99,101,100)"/><rect x="70" y="230" width="10" height="10" fill="rgb(99,101,100)"/><rect x="80" y="230" width="10" height="10" fill="rgb(116,118,115)"/><rect x="90" y="230" width="10" height="10" fill="rgb(116,118,115)"/><rect x="0" y="240" width="10" height="10" fill="rgb(116,118,115)"/><rect x="10" y="240" width="10" height="10" fill="rgb(97,100,100)"/><rect x="20" y="240" width="10" height="10" fill="rgb(97,100,100)"/><rect x="30" y="240" width="10" height="10" fill="rgb(97,100,100)"/><rect x="40" y="240" width="10" height="10" fill="rgb(112,113,111)"/><rect x="50" y="240" width="10" height="10" fill="rgb(112,113,111)"/><rect x="60" y="240" width="10" height="10" fill="rgb(112,113,111)"/><rect x="70" y="240" width="10" height="10" fill="rgb(117,118,115)"/><rect x="80" y="240" width="10" height="10" fill="rgb(117,118,115)"/><rect x="90" y="240" width="10" height="10" fill="rgb(117,118,115)"/><rect x="0" y="250" width="10" height="10" fill="rgb(117,118,115)"/><rect x="10" y="250" width="10" height="10" fill="rgb(117,118,115)"/><rect x="20" y="250" width="10" height="10" fill="rgb(117,118,115)"/><rect x="30" y="250" width="10" height="10" fill="rgb(121,122,119)"/><rect x="40" y="250" width="10" height="10" fill="rgb(121,122,119)"/><rect x="50" y="250" width="10" height="10" fill="rgb(121,122,119)"/></svg>