<svg xmlns="http://www.w3.org/2000/svg" width="480" height="70"><rect x="0" y="0" width="10" height="10" fill="rgb(211,225,247)"/><rect x="10" y="0" width="10" height="10" fill="rgb(219,227,243)"/><rect x="20" y="0" width="10" height="10" fill="rgb(236,241,253)"/><rect x="30" y="0" width="10" height="10" fill="rgb(160,172,190)"/><rect x="40" y="0" width="10" height="10" fill="rgb(194,203,220)"/><rect x="50" y="0" width="10" height="10" fill="rgb(202,204,214)"/><rect x="60" y="0" width="10" height="10" fill="rgb(154,164,181)"/><rect x="70" y="0" width="10" height="10" fill="rgb(176,181,196)"/><rect x="80" y="0" width="10" height="10" fill="rgb(169,178,195)"/><rect x="90" y="0" width="10" height="10" fill="rgb(189,194,206)"/><rect x="100" y="0" width="10" height="10" fill="rgb(166,178,196)"/><rect x="110" y="0" width="10" height="10" fill="rgb(180,188,202)"/><rect x="120" y="0" width="10" height="10" fill="rgb(150,168,194)"/><rect x="130" y="0" width="10" height="10" fill="rgb(148,160,178)"/><rect x="140" y="0" width="10" height="10" fill="rgb(155,166,180)"/><rect x="150" y="0" width="10" height="10" fill="rgb(161,173,186)"/><rect x="160" y="0" width="10" height="10" fill="rgb(152,165,180)"/><rect x="170" y="0" width="10" height="10" fill="rgb(162,174,190)"/><rect x="180" y="0" width="10" height="10" fill="rgb(165,174,186)"/><rect x="190" y="0" width="10" height="10" fill="rgb(153,165,182)"/><rect x="200" y="0" width="10" height="10" fill="rgb(147,159,174)"/><rect x="210" y="0" width="10" height="10" fill="rgb(138,152,173)"/><rect x="220" y="0" width="10" height="10" fill="rgb(146,162,184)"/><rect x="230" y="0" width="10" height="10" fill="rgb(134,150,171)"/><rect x="240" y="0" width="10" height="10" fill="rgb(135,150,170)"/><rect x="250" y="0" width="10" height="10" fill="rgb(174,183,195)"/><rect x="260" y="0" width="10" height="10" fill="rgb(152,164,183)"/><rect x="270" y="0" width="10" height="10" fill="rgb(157,169,184)"/><rect x="280" y="0" width="10" height="10" fill="rgb(143,157,174)"/><rect x="290" y="0" width="10" height="10" fill="rgb(132,148,169)"/><rect x="300" y="0" width="10" height="10" fill="rgb(124,139,157)"/><rect x="310" y="0" width="10" height="10" fill="rgb(128,139,156)"/><rect x="320" y="0" width="10" height="10" fill="rgb(165,171,181)"/><rect x="330" y="0" width="10" height="10" fill="rgb(128,140,156)"/><rect x="340" y="0" width="10" height="10" fill="rgb(138,148,163)"/><rect x="350" y="0" width="10" height="10" fill="rgb(130,150,177)"/><rect x="360" y="0" width="10" height="10" fill="rgb(127,151,183)"/><rect x="370" y="0" width="10" height="10" fill="rgb(132,159,193)"/><rect x="380" y="0" width="10" height="10" fill="rgb(139,163,192)"/><rect x="390" y="0" width="10" height="10" fill="rgb(140,162,193)"/><rect x="400" y="0" width="10" height="10" fill="rgb(136,163,197)"/><rect x="410" y="0" width="10" height="10" fill="rgb(127,160,200)"/><rect x="420" y="0" width="10" height="10" fill="rgb(160,175,194)"/><rect x="430" y="0" width="10" height="10" fill="rgb(147,164,189)"/><rect x="440" y="0" width="10" height="10" fill="rgb(149,163,185)"/><rect x="450" y="0" width="10" height="10" fill="rgb(150,165,184)"/><rect x="460" y="0" width="10" height="10" fill="rgb(153,168,188)"/><rect x="470" y="0" width="10" height="10" fill="rgb(147,161,181)"/><rect x="0" y="10" width="10" height="10" fill="rgb(153,165,182)"/><rect x="10" y="10" width="10" height="10" fill="rgb(152,164,182)"/><rect x="20" y="10" width="10" height="10" fill="rgb(134,162,202)"/><rect x="30" y="10" width="10" height="10" fill="rgb(152,167,190)"/><rect x="40" y="10" width="10" height="10" fill="rgb(144,165,194)"/><rect x="50" y="10" width="10" height="10" fill="rgb(128,160,204)"/><rect x="60" y="10" width="10" height="10" fill="rgb(155,168,189)"/><rect x="70" y="10" width="10" height="10" fill="rgb(150,165,190)"/><rect x="80" y="10" width="10" height="10" fill="rgb(152,168,192)"/><rect x="90" y="10" width="10" height="10" fill="rgb(159,170,188)"/><rect x="100" y="10" width="10" height="10" fill="rgb(144,163,191)"/><rect x="110" y="10" width="10" height="10" fill="rgb(134,157,191)"/><rect x="120" y="10" width="10" height="10" fill="rgb(149,167,193)"/><rect x="130" y="10" width="10" height="10" fill="rgb(143,165,197)"/><rect x="140" y="10" width="10" height="10" fill="rgb(152,167,190)"/><rect x="150" y="10" width="10" height="10" fill="rgb(110,153,209)"/><rect x="160" y="10" width="10" height="10" fill="rgb(138,160,195)"/><rect x="170" y="10" width="10" height="10" fill="rgb(156,174,200)"/><rect x="180" y="10" width="10" height="10" fill="rgb(157,176,204)"/><rect x="190" y="10" width="10" height="10" fill="rgb(191,192,198)"/><rect x="200" y="10" width="10" height="10" fill="rgb(105,155,218)"/><rect x="210" y="10" width="10" height="10" fill="rgb(115,161,222)"/><rect x="220" y="10" width="10" height="10" fill="rgb(118,162,219)"/><rect x="230" y="10" width="10" height="10" fill="rgb(106,159,224)"/><rect x="240" y="10" width="10" height="10" fill="rgb(121,165,222)"/><rect x="250" y="10" width="10" height="10" fill="rgb(125,165,217)"/><rect x="260" y="10" width="10" height="10" fill="rgb(116,160,217)"/><rect x="270" y="10" width="10" height="10" fill="rgb(150,170,200)"/><rect x="280" y="10" width="10" height="10" fill="rgb(153,171,202)"/><rect x="290" y="10" width="10" height="10" fill="rgb(159,176,204)"/><rect x="300" y="10" width="10" height="10" fill="rgb(146,167,199)"/><rect x="310" y="10" width="10" height="10" fill="rgb(191,192,199)"/><rect x="320" y="10" width="10" height="10" fill="rgb(164,176,196)"/><rect x="330" y="10" width="10" height="10" fill="rgb(153,169,194)"/><rect x="340" y="10" width="10" height="10" fill="rgb(139,167,207)"/><rect x="350" y="10" width="10" height="10" fill="rgb(113,164,225)"/><rect x="360" y="10" width="10" height="10" fill="rgb(115,164,224)"/><rect x="370" y="10" width="10" height="10" fill="rgb(114,163,223)"/><rect x="380" y="10" width="10" height="10" fill="rgb(112,163,227)"/><rect x="390" y="10" width="10" height="10" fill="rgb(113,162,219)"/><rect x="400" y="10" width="10" height="10" fill="rgb(131,164,208)"/><rect x="410" y="10" width="10" height="10" fill="rgb(117,164,220)"/><rect x="420" y="10" width="10" height="10" fill="rgb(156,186,216)"/><rect x="430" y="10" width="10" height="10" fill="rgb(176,188,207)"/><rect x="440" y="10" width="10" height="10" fill="rgb(164,186,203)"/><rect x="450" y="10" width="10" height="10" fill="rgb(170,189,207)"/><rect x="460" y="10" width="10" height="10" fill="rgb(170,194,216)"/><rect x="470" y="10" width="10" height="10" fill="rgb(198,194,189)"/><rect x="0" y="20" width="10" height="10" fill="rgb(191,195,202)"/><rect x="10" y="20" width="10" height="10" fill="rgb(190,201,215)"/><rect x="20" y="20" width="10" height="10" fill="rgb(181,202,223)"/><rect x="30" y="20" width="10" height="10" fill="rgb(227,201,181)"/><rect x="40" y="20" width="10" height="10" fill="rgb(218,200,191)"/><rect x="50" y="20" width="10" height="10" fill="rgb(214,217,226)"/><rect x="60" y="20" width="10" height="10" fill="rgb(190,194,207)"/><rect x="70" y="20" width="10" height="10" fill="rgb(177,192,213)"/><rect x="80" y="20" width="10" height="10" fill="rgb(188,209,232)"/><rect x="90" y="20" width="10" height="10" fill="rgb(208,228,249)"/><rect x="100" y="20" width="10" height="10" fill="rgb(194,215,239)"/><rect x="110" y="20" width="10" height="10" fill="rgb(190,217,239)"/><rect x="120" y="20" width="10" height="10" fill="rgb(180,211,237)"/><rect x="130" y="20" width="10" height="10" fill="rgb(159,191,225)"/><rect x="140" y="20" width="10" height="10" fill="rgb(129,166,203)"/><rect x="150" y="20" width="10" height="10" fill="rgb(105,155,201)"/><rect x="160" y="20" width="10" height="10" fill="rgb(94,146,206)"/><rect x="170" y="20" width="10" height="10" fill="rgb(91,136,196)"/><rect x="180" y="20" width="10" height="10" fill="rgb(68,112,174)"/><rect x="190" y="20" width="10" height="10" fill="rgb(46,78,141)"/><rect x="200" y="20" width="10" height="10" fill="rgb(35,63,119)"/><rect x="210" y="20" width="10" height="10" fill="rgb(25,41,82)"/><rect x="220" y="20" width="10" height="10" fill="rgb(15,27,53)"/><rect x="230" y="20" width="10" height="10" fill="rgb(13,17,34)"/><rect x="240" y="20" width="10" height="10" fill="rgb(11,14,24)"/><rect x="250" y="20" width="10" height="10" fill="rgb(11,11,19)"/><rect x="260" y="20" width="10" height="10" fill="rgb(9,9,15)"/><rect x="270" y="20" width="10" height="10" fill="rgb(10,9,14)"/><rect x="280" y="20" width="10" height="10" fill="rgb(9,8,13)"/><rect x="290" y="20" width="10" height="10" fill="rgb(10,10,13)"/><rect x="300" y="20" width="10" height="10" fill="rgb(10,9,14)"/><rect x="310" y="20" width="10" height="10" fill="rgb(9,9,13)"/><rect x="320" y="20" width="10" height="10" fill="rgb(10,9,14)"/><rect x="330" y="20" width="10" height="10" fill="rgb(10,9,13)"/><rect x="340" y="20" width="10" height="10" fill="rgb(10,9,12)"/><rect x="350" y="20" width="10" height="10" fill="rgb(9,9,12)"/><rect x="360" y="20" width="10" height="10" fill="rgb(10,9,13)"/><rect x="370" y="20" width="10" height="10" fill="rgb(10,10,12)"/><rect x="380" y="20" width="10" height="10" fill="rgb(11,10,15)"/><rect x="390" y="20" width="10" height="10" fill="rgb(11,10,14)"/><rect x="400" y="20" width="10" height="10" fill="rgb(11,10,14)"/><rect x="410" y="20" width="10" height="10" fill="rgb(10,9,12)"/><rect x="420" y="20" width="10" height="10" fill="rgb(10,10,12)"/><rect x="430" y="20" width="10" height="10" fill="rgb(10,10,14)"/><rect x="440" y="20" width="10" height="10" fill="rgb(9,8,11)"/><rect x="450" y="20" width="10" height="10" fill="rgb(9,8,11)"/><rect x="460" y="20" width="10" height="10" fill="rgb(10,9,12)"/><rect x="470" y="20" width="10" height="10" fill="rgb(9,9,12)"/><rect x="0" y="30" width="10" height="10" fill="rgb(9,9,11)"/><rect x="10" y="30" width="10" height="10" fill="rgb(11,10,14)"/><rect x="20" y="30" width="10" height="10" fill="rgb(9,9,12)"/><rect x="30" y="30" width="10" height="10" fill="rgb(10,10,13)"/><rect x="40" y="30" width="10" height="10" fill="rgb(10,9,12)"/><rect x="50" y="30" width="10" height="10" fill="rgb(10,9,13)"/><rect x="60" y="30" width="10" height="10" fill="rgb(11,10,13)"/><rect x="70" y="30" width="10" height="10" fill="rgb(10,10,12)"/><rect x="80" y="30" width="10" height="10" fill="rgb(11,10,14)"/><rect x="90" y="30" width="10" height="10" fill="rgb(9,8,11)"/><rect x="100" y="30" width="10" height="10" fill="rgb(9,9,11)"/><rect x="110" y="30" width="10" height="10" fill="rgb(11,10,14)"/><rect x="120" y="30" width="10" height="10" fill="rgb(9,8,11)"/><rect x="130" y="30" width="10" height="10" fill="rgb(9,9,11)"/><rect x="140" y="30" width="10" height="10" fill="rgb(10,10,13)"/><rect x="150" y="30" width="10" height="10" fill="rgb(11,11,14)"/><rect x="160" y="30" width="10" height="10" fill="rgb(10,10,11)"/><rect x="170" y="30" width="10" height="10" fill="rgb(10,10,14)"/><rect x="180" y="30" width="10" height="10" fill="rgb(7,6,9)"/><rect x="190" y="30" width="10" height="10" fill="rgb(9,9,10)"/><rect x="200" y="30" width="10" height="10" fill="rgb(11,10,14)"/><rect x="210" y="30" width="10" height="10" fill="rgb(10,10,13)"/><rect x="220" y="30" width="10" height="10" fill="rgb(10,9,14)"/><rect x="230" y="30" width="10" height="10" fill="rgb(10,9,12)"/><rect x="240" y="30" width="10" height="10" fill="rgb(9,9,12)"/><rect x="250" y="30" width="10" height="10" fill="rgb(11,10,14)"/><rect x="260" y="30" width="10" height="10" fill="rgb(10,9,13)"/><rect x="270" y="30" width="10" height="10" fill="rgb(11,11,14)"/><rect x="280" y="30" width="10" height="10" fill="rgb(14,13,17)"/><rect x="290" y="30" width="10" height="10" fill="rgb(10,10,12)"/><rect x="300" y="30" width="10" height="10" fill="rgb(10,9,13)"/><rect x="310" y="30" width="10" height="10" fill="rgb(10,9,12)"/><rect x="320" y="30" width="10" height="10" fill="rgb(13,12,16)"/><rect x="330" y="30" width="10" height="10" fill="rgb(12,12,15)"/><rect x="340" y="30" width="10" height="10" fill="rgb(12,12,15)"/><rect x="350" y="30" width="10" height="10" fill="rgb(12,12,14)"/><rect x="360" y="30" width="10" height="10" fill="rgb(9,9,11)"/><rect x="370" y="30" width="10" height="10" fill="rgb(10,9,12)"/><rect x="380" y="30" width="10" height="10" fill="rgb(10,9,13)"/><rect x="390" y="30" width="10" height="10" fill="rgb(10,9,13)"/><rect x="400" y="30" width="10" height="10" fill="rgb(9,9,11)"/><rect x="410" y="30" width="10" height="10" fill="rgb(10,9,12)"/><rect x="420" y="30" width="10" height="10" fill="rgb(11,10,14)"/><rect x="430" y="30" width="10" height="10" fill="rgb(10,9,11)"/><rect x="440" y="30" width="10" height="10" fill="rgb(9,9,11)"/><rect x="450" y="30" width="10" height="10" fill="rgb(10,9,12)"/><rect x="460" y="30" width="10" height="10" fill="rgb(11,11,13)"/><rect x="470" y="30" width="10" height="10" fill="rgb(10,9,11)"/><rect x="0" y="40" width="10" height="10" fill="rgb(10,9,12)"/><rect x="10" y="40" width="10" height="10" fill="rgb(9,9,11)"/><rect x="20" y="40" width="10" height="10" fill="rgb(10,9,14)"/><rect x="30" y="40" width="10" height="10" fill="rgb(9,8,11)"/><rect x="40" y="40" width="10" height="10" fill="rgb(10,9,13)"/><rect x="50" y="40" width="10" height="10" fill="rgb(10,9,13)"/><rect x="60" y="40" width="10" height="10" fill="rgb(9,9,11)"/><rect x="70" y="40" width="10" height="10" fill="rgb(9,8,11)"/><rect x="80" y="40" width="10" height="10" fill="rgb(9,8,11)"/><rect x="90" y="40" width="10" height="10" fill="rgb(10,9,13)"/><rect x="100" y="40" width="10" height="10" fill="rgb(10,9,14)"/><rect x="110" y="40" width="10" height="10" fill="rgb(9,8,12)"/><rect x="120" y="40" width="10" height="10" fill="rgb(9,8,12)"/><rect x="130" y="40" width="10" height="10" fill="rgb(10,10,14)"/><rect x="140" y="40" width="10" height="10" fill="rgb(10,9,15)"/><rect x="150" y="40" width="10" height="10" fill="rgb(10,11,17)"/><rect x="160" y="40" width="10" height="10" fill="rgb(10,13,23)"/><rect x="170" y="40" width="10" height="10" fill="rgb(20,27,50)"/><rect x="180" y="40" width="10" height="10" fill="rgb(31,48,91)"/><rect x="190" y="40" width="10" height="10" fill="rgb(50,82,126)"/><rect x="200" y="40" width="10" height="10" fill="rgb(80,108,156)"/><rect x="210" y="40" width="10" height="10" fill="rgb(100,139,187)"/><rect x="220" y="40" width="10" height="10" fill="rgb(112,152,193)"/><rect x="230" y="40" width="10" height="10" fill="rgb(130,160,190)"/><rect x="240" y="40" width="10" height="10" fill="rgb(187,203,222)"/><rect x="250" y="40" width="10" height="10" fill="rgb(219,226,238)"/><rect x="260" y="40" width="10" height="10" fill="rgb(234,237,245)"/><rect x="270" y="40" width="10" height="10" fill="rgb(240,243,252)"/><rect x="280" y="40" width="10" height="10" fill="rgb(231,234,242)"/><rect x="290" y="40" width="10" height="10" fill="rgb(225,229,239)"/><rect x="300" y="40" width="10" height="10" fill="rgb(187,194,205)"/><rect x="310" y="40" width="10" height="10" fill="rgb(181,189,203)"/><rect x="320" y="40" width="10" height="10" fill="rgb(172,183,200)"/><rect x="330" y="40" width="10" height="10" fill="rgb(179,189,205)"/><rect x="340" y="40" width="10" height="10" fill="rgb(190,198,213)"/><rect x="350" y="40" width="10" height="10" fill="rgb(217,223,235)"/><rect x="360" y="40" width="10" height="10" fill="rgb(219,225,237)"/><rect x="370" y="40" width="10" height="10" fill="rgb(209,213,225)"/><rect x="380" y="40" width="10" height="10" fill="rgb(214,212,216)"/><rect x="390" y="40" width="10" height="10" fill="rgb(184,194,212)"/><rect x="400" y="40" width="10" height="10" fill="rgb(179,191,212)"/><rect x="410" y="40" width="10" height="10" fill="rgb(179,190,211)"/><rect x="420" y="40" width="10" height="10" fill="rgb(186,191,209)"/><rect x="430" y="40" width="10" height="10" fill="rgb(171,180,201)"/><rect x="440" y="40" width="10" height="10" fill="rgb(173,182,201)"/><rect x="450" y="40" width="10" height="10" fill="rgb(196,206,224)"/><rect x="460" y="40" width="10" height="10" fill="rgb(212,220,236)"/><rect x="470" y="40" width="10" height="10" fill="rgb(228,233,245)"/><rect x="0" y="50" width="10" height="10" fill="rgb(228,237,250)"/><rect x="10" y="50" width="10" height="10" fill="rgb(200,220,251)"/><rect x="20" y="50" width="10" height="10" fill="rgb(216,230,253)"/><rect x="30" y="50" width="10" height="10" fill="rgb(214,226,243)"/><rect x="40" y="50" width="10" height="10" fill="rgb(203,218,239)"/><rect x="50" y="50" width="10" height="10" fill="rgb(202,219,239)"/><rect x="60" y="50" width="10" height="10" fill="rgb(202,218,237)"/><rect x="70" y="50" width="10" height="10" fill="rgb(205,223,248)"/><rect x="80" y="50" width="10" height="10" fill="rgb(192,218,255)"/><rect x="90" y="50" width="10" height="10" fill="rgb(186,215,254)"/><rect x="100" y="50" width="10" height="10" fill="rgb(189,214,253)"/><rect x="110" y="50" width="10" height="10" fill="rgb(221,230,250)"/><rect x="120" y="50" width="10" height="10" fill="rgb(223,228,246)"/><rect x="130" y="50" width="10" height="10" fill="rgb(234,235,249)"/><rect x="140" y="50" width="10" height="10" fill="rgb(188,193,212)"/><rect x="150" y="50" width="10" height="10" fill="rgb(215,217,231)"/><rect x="160" y="50" width="10" height="10" fill="rgb(214,218,234)"/><rect x="170" y="50" width="10" height="10" fill="rgb(223,228,243)"/><rect x="180" y="50" width="10" height="10" fill="rgb(189,210,245)"/><rect x="190" y="50" width="10" height="10" fill="rgb(165,194,240)"/><rect x="200" y="50" width="10" height="10" fill="rgb(165,193,241)"/><rect x="210" y="50" width="10" height="10" fill="rgb(165,195,242)"/><rect x="220" y="50" width="10" height="10" fill="rgb(166,195,238)"/><rect x="230" y="50" width="10" height="10" fill="rgb(172,200,240)"/><rect x="240" y="50" width="10" height="10" fill="rgb(172,199,239)"/><rect x="250" y="50" width="10" height="10" fill="rgb(171,198,236)"/><rect x="260" y="50" width="10" height="10" fill="rgb(170,197,235)"/><rect x="270" y="50" width="10" height="10" fill="rgb(169,198,234)"/><rect x="280" y="50" width="10" height="10" fill="rgb(168,197,232)"/><rect x="290" y="50" width="10" height="10" fill="rgb(171,200,235)"/><rect x="300" y="50" width="10" height="10" fill="rgb(168,197,232)"/><rect x="310" y="50" width="10" height="10" fill="rgb(172,197,234)"/><rect x="320" y="50" width="10" height="10" fill="rgb(168,196,237)"/><rect x="330" y="50" width="10" height="10" fill="rgb(168,195,234)"/><rect x="340" y="50" width="10" height="10" fill="rgb(168,195,230)"/><rect x="350" y="50" width="10" height="10" fill="rgb(171,197,231)"/><rect x="360" y="50" width="10" height="10" fill="rgb(163,191,228)"/><rect x="370" y="50" width="10" height="10" fill="rgb(165,194,229)"/><rect x="380" y="50" width="10" height="10" fill="rgb(162,190,227)"/><rect x="390" y="50" width="10" height="10" fill="rgb(165,192,227)"/><rect x="400" y="50" width="10" height="10" fill="rgb(168,189,221)"/><rect x="410" y="50" width="10" height="10" fill="rgb(162,187,222)"/><rect x="420" y="50" width="10" height="10" fill="rgb(167,189,220)"/><rect x="430" y="50" width="10" height="10" fill="rgb(169,189,218)"/><rect x="440" y="50" width="10" height="10" fill="rgb(161,182,211)"/><rect x="450" y="50" width="10" height="10" fill="rgb(167,186,214)"/><rect x="460" y="50" width="10" height="10" fill="rgb(167,185,212)"/><rect x="470" y="50" width="10" height="10" fill="rgb(169,187,215)"/><rect x="0" y="60" width="10" height="10" fill="rgb(164,182,209)"/><rect x="10" y="60" width="10" height="10" fill="rgb(164,183,211)"/><rect x="20" y="60" width="10" height="10" fill="rgb(158,178,209)"/><rect x="30" y="60" width="10" height="10" fill="rgb(152,173,205)"/><rect x="40" y="60" width="10" height="10" fill="rgb(153,175,203)"/><rect x="50" y="60" width="10" height="10" fill="rgb(167,183,205)"/><rect x="60" y="60" width="10" height="10" fill="rgb(164,181,206)"/><rect x="70" y="60" width="10" height="10" fill="rgb(156,174,201)"/><rect x="80" y="60" width="10" height="10" fill="rgb(138,156,182)"/><rect x="90" y="60" width="10" height="10" fill="rgb(149,167,193)"/><rect x="100" y="60" width="10" height="10" fill="rgb(155,173,199)"/><rect x="110" y="60" width="10" height="10" fill="rgb(150,169,196)"/><rect x="120" y="60" width="10" height="10" fill="rgb(151,169,195)"/><rect x="130" y="60" width="10" height="10" fill="rgb(153,171,196)"/><rect x="140" y="60" width="10" height="10" fill="rgb(149,167,193)"/><rect x="150" y="60" width="10" height="10" fill="rgb(142,162,189)"/><rect x="160" y="60" width="10" height="10" fill="rgb(139,161,188)"/><rect x="170" y="60" width="10" height="10" fill="rgb(146,166,193)"/><rect x="180" y="60" width="10" height="10" fill="rgb(147,168,195)"/><rect x="190" y="60" width="10" height="10" fill="rgb(155,174,201)"/><rect x="200" y="60" width="10" height="10" fill="rgb(158,176,202)"/><rect x="210" y="60" width="10" height="10" fill="rgb(163,179,205)"/><rect x="220" y="60" width="10" height="10" fill="rgb(160,176,201)"/></svg>