<svg xmlns="http://www.w3.org/2000/svg" width="480" height="20"><rect x="0" y="0" width="10" height="10" fill="rgb(209,220,243)"/><rect x="10" y="0" width="10" height="10" fill="rgb(229,234,249)"/><rect x="20" y="0" width="10" height="10" fill="rgb(226,229,244)"/><rect x="30" y="0" width="10" height="10" fill="rgb(173,182,200)"/><rect x="40" y="0" width="10" height="10" fill="rgb(193,203,223)"/><rect x="50" y="0" width="10" height="10" fill="rgb(195,202,218)"/><rect x="60" y="0" width="10" height="10" fill="rgb(168,181,202)"/><rect x="70" y="0" width="10" height="10" fill="rgb(158,175,203)"/><rect x="80" y="0" width="10" height="10" fill="rgb(181,191,210)"/><rect x="90" y="0" width="10" height="10" fill="rgb(158,175,203)"/><rect x="100" y="0" width="10" height="10" fill="rgb(168,181,204)"/><rect x="110" y="0" width="10" height="10" fill="rgb(177,187,206)"/><rect x="120" y="0" width="10" height="10" fill="rgb(141,164,196)"/><rect x="130" y="0" width="10" height="10" fill="rgb(138,154,177)"/><rect x="140" y="0" width="10" height="10" fill="rgb(153,167,186)"/><rect x="150" y="0" width="10" height="10" fill="rgb(167,177,192)"/><rect x="160" y="0" width="10" height="10" fill="rgb(172,182,197)"/><rect x="170" y="0" width="10" height="10" fill="rgb(166,176,192)"/><rect x="180" y="0" width="10" height="10" fill="rgb(160,170,187)"/><rect x="190" y="0" width="10" height="10" fill="rgb(164,174,191)"/><rect x="200" y="0" width="10" height="10" fill="rgb(166,174,187)"/><rect x="210" y="0" width="10" height="10" fill="rgb(155,167,186)"/><rect x="220" y="0" width="10" height="10" fill="rgb(139,159,187)"/><rect x="230" y="0" width="10" height="10" fill="rgb(164,171,184)"/><rect x="240" y="0" width="10" height="10" fill="rgb(163,174,191)"/><rect x="250" y="0" width="10" height="10" fill="rgb(161,174,194)"/><rect x="260" y="0" width="10" height="10" fill="rgb(165,176,195)"/><rect x="270" y="0" width="10" height="10" fill="rgb(152,170,196)"/><rect x="280" y="0" width="10" height="10" fill="rgb(142,160,186)"/><rect x="290" y="0" width="10" height="10" fill="rgb(138,153,176)"/><rect x="300" y="0" width="10" height="10" fill="rgb(139,150,167)"/><rect x="310" y="0" width="10" height="10" fill="rgb(138,147,163)"/><rect x="320" y="0" width="10" height="10" fill="rgb(192,194,199)"/><rect x="330" y="0" width="10" height="10" fill="rgb(132,145,165)"/><rect x="340" y="0" width="10" height="10" fill="rgb(126,143,170)"/><rect x="350" y="0" width="10" height="10" fill="rgb(128,150,183)"/><rect x="360" y="0" width="10" height="10" fill="rgb(136,156,186)"/><rect x="370" y="0" width="10" height="10" fill="rgb(144,162,192)"/><rect x="380" y="0" width="10" height="10" fill="rgb(143,164,195)"/><rect x="390" y="0" width="10" height="10" fill="rgb(134,161,200)"/><rect x="400" y="0" width="10" height="10" fill="rgb(142,165,198)"/><rect x="410" y="0" width="10" height="10" fill="rgb(153,170,195)"/><rect x="420" y="0" width="10" height="10" fill="rgb(158,174,199)"/><rect x="430" y="0" width="10" height="10" fill="rgb(165,174,192)"/><rect x="440" y="0" width="10" height="10" fill="rgb(173,182,199)"/><rect x="450" y="0" width="10" height="10" fill="rgb(165,176,196)"/><rect x="460" y="0" width="10" height="10" fill="rgb(153,170,197)"/><rect x="470" y="0" width="10" height="10" fill="rgb(158,169,189)"/><rect x="0" y="10" width="10" height="10" fill="rgb(164,172,189)"/><rect x="10" y="10" width="10" height="10" fill="rgb(156,169,191)"/><rect x="20" y="10" width="10" height="10" fill="rgb(155,170,195)"/></svg>