<svg xmlns="http://www.w3.org/2000/svg" width="480" height="70"><rect x="0" y="0" width="10" height="10" fill="rgb(82,76,86)"/><rect x="10" y="0" width="10" height="10" fill="rgb(141,130,132)"/><rect x="20" y="0" width="10" height="10" fill="rgb(145,132,131)"/><rect x="30" y="0" width="10" height="10" fill="rgb(169,146,136)"/><rect x="40" y="0" width="10" height="10" fill="rgb(157,142,142)"/><rect x="50" y="0" width="10" height="10" fill="rgb(156,144,145)"/><rect x="60" y="0" width="10" height="10" fill="rgb(139,136,147)"/><rect x="70" y="0" width="10" height="10" fill="rgb(148,147,157)"/><rect x="80" y="0" width="10" height="10" fill="rgb(152,149,155)"/><rect x="90" y="0" width="10" height="10" fill="rgb(153,150,155)"/><rect x="100" y="0" width="10" height="10" fill="rgb(153,150,158)"/><rect x="110" y="0" width="10" height="10" fill="rgb(154,149,153)"/><rect x="120" y="0" width="10" height="10" fill="rgb(153,148,155)"/><rect x="130" y="0" width="10" height="10" fill="rgb(151,147,156)"/><rect x="140" y="0" width="10" height="10" fill="rgb(147,146,157)"/><rect x="150" y="0" width="10" height="10" fill="rgb(147,146,157)"/><rect x="160" y="0" width="10" height="10" fill="rgb(149,145,152)"/><rect x="170" y="0" width="10" height="10" fill="rgb(160,156,163)"/><rect x="180" y="0" width="10" height="10" fill="rgb(160,156,163)"/><rect x="190" y="0" width="10" height="10" fill="rgb(161,156,164)"/><rect x="200" y="0" width="10" height="10" fill="rgb(160,156,164)"/><rect x="210" y="0" width="10" height="10" fill="rgb(158,156,165)"/><rect x="220" y="0" width="10" height="10" fill="rgb(162,155,160)"/><rect x="230" y="0" width="10" height="10" fill="rgb(173,168,175)"/><rect x="240" y="0" width="10" height="10" fill="rgb(161,157,164)"/><rect x="250" y="0" width="10" height="10" fill="rgb(162,158,162)"/><rect x="260" y="0" width="10" height="10" fill="rgb(162,158,165)"/><rect x="270" y="0" width="10" height="10" fill="rgb(159,159,167)"/><rect x="280" y="0" width="10" height="10" fill="rgb(160,160,170)"/><rect x="290" y="0" width="10" height="10" fill="rgb(160,160,168)"/><rect x="300" y="0" width="10" height="10" fill="rgb(160,160,170)"/><rect x="310" y="0" width="10" height="10" fill="rgb(162,158,166)"/><rect x="320" y="0" width="10" height="10" fill="rgb(163,159,167)"/><rect x="330" y="0" width="10" height="10" fill="rgb(164,160,168)"/><rect x="340" y="0" width="10" height="10" fill="rgb(165,162,170)"/><rect x="350" y="0" width="10" height="10" fill="rgb(163,164,175)"/><rect x="360" y="0" width="10" height="10" fill="rgb(168,162,169)"/><rect x="370" y="0" width="10" height="10" fill="rgb(163,163,172)"/><rect x="380" y="0" width="10" height="10" fill="rgb(169,167,174)"/><rect x="390" y="0" width="10" height="10" fill="rgb(163,165,175)"/><rect x="400" y="0" width="10" height="10" fill="rgb(162,164,175)"/><rect x="410" y="0" width="10" height="10" fill="rgb(159,164,176)"/><rect x="420" y="0" width="10" height="10" fill="rgb(159,163,178)"/><rect x="430" y="0" width="10" height="10" fill="rgb(157,162,178)"/><rect x="440" y="0" width="10" height="10" fill="rgb(158,162,175)"/><rect x="450" y="0" width="10" height="10" fill="rgb(161,163,174)"/><rect x="460" y="0" width="10" height="10" fill="rgb(158,162,174)"/><rect x="470" y="0" width="10" height="10" fill="rgb(150,150,162)"/><rect x="0" y="10" width="10" height="10" fill="rgb(154,151,160)"/><rect x="10" y="10" width="10" height="10" fill="rgb(156,154,163)"/><rect x="20" y="10" width="10" height="10" fill="rgb(159,154,162)"/><rect x="30" y="10" width="10" height="10" fill="rgb(162,154,159)"/><rect x="40" y="10" width="10" height="10" fill="rgb(163,156,157)"/><rect x="50" y="10" width="10" height="10" fill="rgb(166,157,158)"/><rect x="60" y="10" width="10" height="10" fill="rgb(166,157,158)"/><rect x="70" y="10" width="10" height="10" fill="rgb(166,158,159)"/><rect x="80" y="10" width="10" height="10" fill="rgb(167,158,158)"/><rect x="90" y="10" width="10" height="10" fill="rgb(169,158,158)"/><rect x="100" y="10" width="10" height="10" fill="rgb(169,158,158)"/><rect x="110" y="10" width="10" height="10" fill="rgb(171,158,156)"/><rect x="120" y="10" width="10" height="10" fill="rgb(171,158,156)"/><rect x="130" y="10" width="10" height="10" fill="rgb(159,148,148)"/><rect x="140" y="10" width="10" height="10" fill="rgb(160,148,146)"/><rect x="150" y="10" width="10" height="10" fill="rgb(161,148,146)"/><rect x="160" y="10" width="10" height="10" fill="rgb(160,148,145)"/><rect x="170" y="10" width="10" height="10" fill="rgb(161,148,146)"/><rect x="180" y="10" width="10" height="10" fill="rgb(161,148,146)"/><rect x="190" y="10" width="10" height="10" fill="rgb(162,147,146)"/><rect x="200" y="10" width="10" height="10" fill="rgb(160,148,145)"/><rect x="210" y="10" width="10" height="10" fill="rgb(160,147,145)"/><rect x="220" y="10" width="10" height="10" fill="rgb(160,147,143)"/><rect x="230" y="10" width="10" height="10" fill="rgb(160,146,142)"/><rect x="240" y="10" width="10" height="10" fill="rgb(160,145,143)"/><rect x="250" y="10" width="10" height="10" fill="rgb(159,145,142)"/><rect x="260" y="10" width="10" height="10" fill="rgb(159,144,141)"/><rect x="270" y="10" width="10" height="10" fill="rgb(158,143,139)"/><rect x="280" y="10" width="10" height="10" fill="rgb(156,140,137)"/><rect x="290" y="10" width="10" height="10" fill="rgb(155,139,136)"/><rect x="300" y="10" width="10" height="10" fill="rgb(153,139,136)"/><rect x="310" y="10" width="10" height="10" fill="rgb(153,139,136)"/><rect x="320" y="10" width="10" height="10" fill="rgb(152,138,136)"/><rect x="330" y="10" width="10" height="10" fill="rgb(150,135,133)"/><rect x="340" y="10" width="10" height="10" fill="rgb(157,143,138)"/><rect x="350" y="10" width="10" height="10" fill="rgb(156,142,138)"/><rect x="360" y="10" width="10" height="10" fill="rgb(154,139,137)"/><rect x="370" y="10" width="10" height="10" fill="rgb(150,137,138)"/><rect x="380" y="10" width="10" height="10" fill="rgb(151,136,136)"/><rect x="390" y="10" width="10" height="10" fill="rgb(148,134,134)"/><rect x="400" y="10" width="10" height="10" fill="rgb(158,142,139)"/><rect x="410" y="10" width="10" height="10" fill="rgb(150,138,136)"/><rect x="420" y="10" width="10" height="10" fill="rgb(157,142,137)"/><rect x="430" y="10" width="10" height="10" fill="rgb(145,134,130)"/><rect x="440" y="10" width="10" height="10" fill="rgb(159,146,142)"/><rect x="450" y="10" width="10" height="10" fill="rgb(166,152,148)"/><rect x="460" y="10" width="10" height="10" fill="rgb(161,148,142)"/><rect x="470" y="10" width="10" height="10" fill="rgb(154,140,136)"/><rect x="0" y="20" width="10" height="10" fill="rgb(164,150,142)"/><rect x="10" y="20" width="10" height="10" fill="rgb(165,147,137)"/><rect x="20" y="20" width="10" height="10" fill="rgb(172,151,138)"/><rect x="30" y="20" width="10" height="10" fill="rgb(166,145,131)"/><rect x="40" y="20" width="10" height="10" fill="rgb(162,140,128)"/><rect x="50" y="20" width="10" height="10" fill="rgb(162,140,128)"/><rect x="60" y="20" width="10" height="10" fill="rgb(161,137,126)"/><rect x="70" y="20" width="10" height="10" fill="rgb(164,139,127)"/><rect x="80" y="20" width="10" height="10" fill="rgb(151,131,124)"/><rect x="90" y="20" width="10" height="10" fill="rgb(153,133,126)"/><rect x="100" y="20" width="10" height="10" fill="rgb(147,130,126)"/><rect x="110" y="20" width="10" height="10" fill="rgb(145,130,129)"/><rect x="120" y="20" width="10" height="10" fill="rgb(140,128,131)"/><rect x="130" y="20" width="10" height="10" fill="rgb(134,129,139)"/><rect x="140" y="20" width="10" height="10" fill="rgb(131,129,142)"/><rect x="150" y="20" width="10" height="10" fill="rgb(67,75,92)"/><rect x="160" y="20" width="10" height="10" fill="rgb(26,27,38)"/><rect x="170" y="20" width="10" height="10" fill="rgb(12,10,14)"/><rect x="180" y="20" width="10" height="10" fill="rgb(7,4,4)"/><rect x="190" y="20" width="10" height="10" fill="rgb(4,3,1)"/><rect x="200" y="20" width="10" height="10" fill="rgb(4,2,1)"/><rect x="210" y="20" width="10" height="10" fill="rgb(3,2,0)"/><rect x="220" y="20" width="10" height="10" fill="rgb(3,2,0)"/><rect x="230" y="20" width="10" height="10" fill="rgb(3,1,0)"/><rect x="240" y="20" width="10" height="10" fill="rgb(3,1,0)"/><rect x="250" y="20" width="10" height="10" fill="rgb(3,1,0)"/><rect x="260" y="20" width="10" height="10" fill="rgb(3,2,0)"/><rect x="270" y="20" width="10" height="10" fill="rgb(3,1,0)"/><rect x="280" y="20" width="10" height="10" fill="rgb(3,1,1)"/><rect x="290" y="20" width="10" height="10" fill="rgb(3,1,1)"/><rect x="300" y="20" width="10" height="10" fill="rgb(3,1,0)"/><rect x="310" y="20" width="10" height="10" fill="rgb(3,1,0)"/><rect x="320" y="20" width="10" height="10" fill="rgb(3,1,0)"/><rect x="330" y="20" width="10" height="10" fill="rgb(3,1,1)"/><rect x="340" y="20" width="10" height="10" fill="rgb(3,1,1)"/><rect x="350" y="20" width="10" height="10" fill="rgb(3,1,0)"/><rect x="360" y="20" width="10" height="10" fill="rgb(3,1,1)"/><rect x="370" y="20" width="10" height="10" fill="rgb(3,1,1)"/><rect x="380" y="20" width="10" height="10" fill="rgb(3,1,0)"/><rect x="390" y="20" width="10" height="10" fill="rgb(3,1,0)"/><rect x="400" y="20" width="10" height="10" fill="rgb(3,1,0)"/><rect x="410" y="20" width="10" height="10" fill="rgb(3,1,1)"/><rect x="420" y="20" width="10" height="10" fill="rgb(3,1,0)"/><rect x="430" y="20" width="10" height="10" fill="rgb(3,1,0)"/><rect x="440" y="20" width="10" height="10" fill="rgb(3,1,1)"/><rect x="450" y="20" width="10" height="10" fill="rgb(3,1,1)"/><rect x="460" y="20" width="10" height="10" fill="rgb(3,1,0)"/><rect x="470" y="20" width="10" height="10" fill="rgb(3,1,0)"/><rect x="0" y="30" width="10" height="10" fill="rgb(3,1,0)"/><rect x="10" y="30" width="10" height="10" fill="rgb(3,1,0)"/><rect x="20" y="30" width="10" height="10" fill="rgb(3,1,0)"/><rect x="30" y="30" width="10" height="10" fill="rgb(3,1,0)"/><rect x="40" y="30" width="10" height="10" fill="rgb(3,1,0)"/><rect x="50" y="30" width="10" height="10" fill="rgb(3,1,1)"/><rect x="60" y="30" width="10" height="10" fill="rgb(2,3,0)"/><rect x="70" y="30" width="10" height="10" fill="rgb(1,3,0)"/><rect x="80" y="30" width="10" height="10" fill="rgb(2,3,0)"/><rect x="90" y="30" width="10" height="10" fill="rgb(2,3,1)"/><rect x="100" y="30" width="10" height="10" fill="rgb(2,2,0)"/><rect x="110" y="30" width="10" height="10" fill="rgb(2,3,0)"/><rect x="120" y="30" width="10" height="10" fill="rgb(2,2,0)"/><rect x="130" y="30" width="10" height="10" fill="rgb(1,3,0)"/><rect x="140" y="30" width="10" height="10" fill="rgb(2,2,0)"/><rect x="150" y="30" width="10" height="10" fill="rgb(2,3,0)"/><rect x="160" y="30" width="10" height="10" fill="rgb(2,2,1)"/><rect x="170" y="30" width="10" height="10" fill="rgb(2,2,0)"/><rect x="180" y="30" width="10" height="10" fill="rgb(2,2,1)"/><rect x="190" y="30" width="10" height="10" fill="rgb(2,3,0)"/><rect x="200" y="30" width="10" height="10" fill="rgb(1,3,1)"/><rect x="210" y="30" width="10" height="10" fill="rgb(2,3,1)"/><rect x="220" y="30" width="10" height="10" fill="rgb(2,3,1)"/><rect x="230" y="30" width="10" height="10" fill="rgb(1,3,0)"/><rect x="240" y="30" width="10" height="10" fill="rgb(2,3,1)"/><rect x="250" y="30" width="10" height="10" fill="rgb(2,3,0)"/><rect x="260" y="30" width="10" height="10" fill="rgb(2,2,1)"/><rect x="270" y="30" width="10" height="10" fill="rgb(1,2,1)"/><rect x="280" y="30" width="10" height="10" fill="rgb(1,3,0)"/><rect x="290" y="30" width="10" height="10" fill="rgb(2,3,0)"/><rect x="300" y="30" width="10" height="10" fill="rgb(2,3,1)"/><rect x="310" y="30" width="10" height="10" fill="rgb(2,2,1)"/><rect x="320" y="30" width="10" height="10" fill="rgb(2,3,0)"/><rect x="330" y="30" width="10" height="10" fill="rgb(1,3,0)"/><rect x="340" y="30" width="10" height="10" fill="rgb(2,2,1)"/><rect x="350" y="30" width="10" height="10" fill="rgb(1,3,1)"/><rect x="360" y="30" width="10" height="10" fill="rgb(1,3,1)"/><rect x="370" y="30" width="10" height="10" fill="rgb(1,2,0)"/><rect x="380" y="30" width="10" height="10" fill="rgb(2,3,0)"/><rect x="390" y="30" width="10" height="10" fill="rgb(2,3,1)"/><rect x="400" y="30" width="10" height="10" fill="rgb(2,3,0)"/><rect x="410" y="30" width="10" height="10" fill="rgb(2,3,0)"/><rect x="420" y="30" width="10" height="10" fill="rgb(1,2,1)"/><rect x="430" y="30" width="10" height="10" fill="rgb(1,3,1)"/><rect x="440" y="30" width="10" height="10" fill="rgb(2,3,0)"/><rect x="450" y="30" width="10" height="10" fill="rgb(1,3,1)"/><rect x="460" y="30" width="10" height="10" fill="rgb(2,2,1)"/><rect x="470" y="30" width="10" height="10" fill="rgb(1,2,1)"/><rect x="0" y="40" width="10" height="10" fill="rgb(2,3,1)"/><rect x="10" y="40" width="10" height="10" fill="rgb(1,3,0)"/><rect x="20" y="40" width="10" height="10" fill="rgb(2,3,0)"/><rect x="30" y="40" width="10" height="10" fill="rgb(1,3,0)"/><rect x="40" y="40" width="10" height="10" fill="rgb(2,2,1)"/><rect x="50" y="40" width="10" height="10" fill="rgb(1,3,0)"/><rect x="60" y="40" width="10" height="10" fill="rgb(2,3,0)"/><rect x="70" y="40" width="10" height="10" fill="rgb(2,3,1)"/><rect x="80" y="40" width="10" height="10" fill="rgb(2,3,0)"/><rect x="90" y="40" width="10" height="10" fill="rgb(2,2,0)"/><rect x="100" y="40" width="10" height="10" fill="rgb(2,3,1)"/><rect x="110" y="40" width="10" height="10" fill="rgb(2,3,1)"/><rect x="120" y="40" width="10" height="10" fill="rgb(1,3,0)"/><rect x="130" y="40" width="10" height="10" fill="rgb(2,3,0)"/><rect x="140" y="40" width="10" height="10" fill="rgb(2,3,1)"/><rect x="150" y="40" width="10" height="10" fill="rgb(1,3,1)"/><rect x="160" y="40" width="10" height="10" fill="rgb(2,3,1)"/><rect x="170" y="40" width="10" height="10" fill="rgb(2,3,0)"/><rect x="180" y="40" width="10" height="10" fill="rgb(3,5,1)"/><rect x="190" y="40" width="10" height="10" fill="rgb(9,12,20)"/><rect x="200" y="40" width="10" height="10" fill="rgb(29,34,41)"/><rect x="210" y="40" width="10" height="10" fill="rgb(67,68,63)"/><rect x="220" y="40" width="10" height="10" fill="rgb(141,124,97)"/><rect x="230" y="40" width="10" height="10" fill="rgb(171,160,131)"/><rect x="240" y="40" width="10" height="10" fill="rgb(172,169,160)"/><rect x="250" y="40" width="10" height="10" fill="rgb(181,170,150)"/><rect x="260" y="40" width="10" height="10" fill="rgb(162,158,147)"/><rect x="270" y="40" width="10" height="10" fill="rgb(172,166,149)"/><rect x="280" y="40" width="10" height="10" fill="rgb(152,142,136)"/><rect x="290" y="40" width="10" height="10" fill="rgb(162,151,143)"/><rect x="300" y="40" width="10" height="10" fill="rgb(109,114,132)"/><rect x="310" y="40" width="10" height="10" fill="rgb(78,91,116)"/><rect x="320" y="40" width="10" height="10" fill="rgb(90,98,117)"/><rect x="330" y="40" width="10" height="10" fill="rgb(116,122,136)"/><rect x="340" y="40" width="10" height="10" fill="rgb(107,114,130)"/><rect x="350" y="40" width="10" height="10" fill="rgb(97,104,122)"/><rect x="360" y="40" width="10" height="10" fill="rgb(93,101,121)"/><rect x="370" y="40" width="10" height="10" fill="rgb(81,92,116)"/><rect x="380" y="40" width="10" height="10" fill="rgb(61,74,107)"/><rect x="390" y="40" width="10" height="10" fill="rgb(46,63,98)"/><rect x="400" y="40" width="10" height="10" fill="rgb(31,40,77)"/><rect x="410" y="40" width="10" height="10" fill="rgb(31,40,77)"/><rect x="420" y="40" width="10" height="10" fill="rgb(39,49,89)"/><rect x="430" y="40" width="10" height="10" fill="rgb(48,58,91)"/><rect x="440" y="40" width="10" height="10" fill="rgb(59,69,102)"/><rect x="450" y="40" width="10" height="10" fill="rgb(38,44,75)"/><rect x="460" y="40" width="10" height="10" fill="rgb(50,58,87)"/><rect x="470" y="40" width="10" height="10" fill="rgb(38,41,66)"/><rect x="0" y="50" width="10" height="10" fill="rgb(38,40,61)"/><rect x="10" y="50" width="10" height="10" fill="rgb(32,35,56)"/><rect x="20" y="50" width="10" height="10" fill="rgb(44,46,68)"/><rect x="30" y="50" width="10" height="10" fill="rgb(45,49,75)"/><rect x="40" y="50" width="10" height="10" fill="rgb(37,41,64)"/><rect x="50" y="50" width="10" height="10" fill="rgb(57,58,80)"/><rect x="60" y="50" width="10" height="10" fill="rgb(64,65,84)"/><rect x="70" y="50" width="10" height="10" fill="rgb(84,80,94)"/><rect x="80" y="50" width="10" height="10" fill="rgb(79,78,93)"/><rect x="90" y="50" width="10" height="10" fill="rgb(70,70,87)"/><rect x="100" y="50" width="10" height="10" fill="rgb(73,71,87)"/><rect x="110" y="50" width="10" height="10" fill="rgb(72,70,89)"/><rect x="120" y="50" width="10" height="10" fill="rgb(81,79,93)"/><rect x="130" y="50" width="10" height="10" fill="rgb(81,82,100)"/><rect x="140" y="50" width="10" height="10" fill="rgb(78,78,97)"/><rect x="150" y="50" width="10" height="10" fill="rgb(76,76,97)"/><rect x="160" y="50" width="10" height="10" fill="rgb(79,79,98)"/><rect x="170" y="50" width="10" height="10" fill="rgb(63,64,87)"/><rect x="180" y="50" width="10" height="10" fill="rgb(70,70,88)"/><rect x="190" y="50" width="10" height="10" fill="rgb(77,74,89)"/><rect x="200" y="50" width="10" height="10" fill="rgb(83,76,91)"/><rect x="210" y="50" width="10" height="10" fill="rgb(100,92,101)"/><rect x="220" y="50" width="10" height="10" fill="rgb(98,89,99)"/><rect x="230" y="50" width="10" height="10" fill="rgb(115,103,109)"/><rect x="240" y="50" width="10" height="10" fill="rgb(121,109,111)"/><rect x="250" y="50" width="10" height="10" fill="rgb(99,90,99)"/><rect x="260" y="50" width="10" height="10" fill="rgb(94,86,94)"/><rect x="270" y="50" width="10" height="10" fill="rgb(144,127,125)"/><rect x="280" y="50" width="10" height="10" fill="rgb(119,108,108)"/><rect x="290" y="50" width="10" height="10" fill="rgb(115,103,109)"/><rect x="300" y="50" width="10" height="10" fill="rgb(136,126,130)"/><rect x="310" y="50" width="10" height="10" fill="rgb(143,129,130)"/><rect x="320" y="50" width="10" height="10" fill="rgb(154,136,135)"/><rect x="330" y="50" width="10" height="10" fill="rgb(150,135,135)"/><rect x="340" y="50" width="10" height="10" fill="rgb(145,133,133)"/><rect x="350" y="50" width="10" height="10" fill="rgb(155,141,140)"/><rect x="360" y="50" width="10" height="10" fill="rgb(154,140,139)"/><rect x="370" y="50" width="10" height="10" fill="rgb(154,140,140)"/><rect x="380" y="50" width="10" height="10" fill="rgb(151,138,139)"/><rect x="390" y="50" width="10" height="10" fill="rgb(148,136,137)"/><rect x="400" y="50" width="10" height="10" fill="rgb(149,136,137)"/><rect x="410" y="50" width="10" height="10" fill="rgb(149,135,137)"/><rect x="420" y="50" width="10" height="10" fill="rgb(146,135,136)"/><rect x="430" y="50" width="10" height="10" fill="rgb(146,135,137)"/><rect x="440" y="50" width="10" height="10" fill="rgb(146,135,135)"/><rect x="450" y="50" width="10" height="10" fill="rgb(145,134,134)"/><rect x="460" y="50" width="10" height="10" fill="rgb(144,133,136)"/><rect x="470" y="50" width="10" height="10" fill="rgb(143,133,136)"/><rect x="0" y="60" width="10" height="10" fill="rgb(144,134,136)"/><rect x="10" y="60" width="10" height="10" fill="rgb(143,133,136)"/><rect x="20" y="60" width="10" height="10" fill="rgb(143,133,135)"/><rect x="30" y="60" width="10" height="10" fill="rgb(143,133,137)"/><rect x="40" y="60" width="10" height="10" fill="rgb(142,132,137)"/><rect x="50" y="60" width="10" height="10" fill="rgb(142,133,137)"/><rect x="60" y="60" width="10" height="10" fill="rgb(143,133,139)"/><rect x="70" y="60" width="10" height="10" fill="rgb(142,134,139)"/><rect x="80" y="60" width="10" height="10" fill="rgb(143,134,139)"/><rect x="90" y="60" width="10" height="10" fill="rgb(142,134,141)"/><rect x="100" y="60" width="10" height="10" fill="rgb(142,134,142)"/><rect x="110" y="60" width="10" height="10" fill="rgb(139,135,143)"/><rect x="120" y="60" width="10" height="10" fill="rgb(142,134,141)"/><rect x="130" y="60" width="10" height="10" fill="rgb(150,145,154)"/><rect x="140" y="60" width="10" height="10" fill="rgb(151,144,153)"/><rect x="150" y="60" width="10" height="10" fill="rgb(152,145,154)"/><rect x="160" y="60" width="10" height="10" fill="rgb(151,145,153)"/><rect x="170" y="60" width="10" height="10" fill="rgb(150,144,153)"/><rect x="180" y="60" width="10" height="10" fill="rgb(149,144,153)"/><rect x="190" y="60" width="10" height="10" fill="rgb(149,143,152)"/><rect x="200" y="60" width="10" height="10" fill="rgb(152,143,151)"/><rect x="210" y="60" width="10" height="10" fill="rgb(149,143,152)"/><rect x="220" y="60" width="10" height="10" fill="rgb(150,144,154)"/><rect x="230" y="60" width="10" height="10" fill="rgb(150,144,154)"/><rect x="240" y="60" width="10" height="10" fill="rgb(150,145,154)"/><rect x="250" y="60" width="10" height="10" fill="rgb(150,144,152)"/></svg>