<svg xmlns="http://www.w3.org/2000/svg" width="480" height="10"><rect x="0" y="0" width="10" height="10" fill="rgb(118,111,118)"/><rect x="10" y="0" width="10" height="10" fill="rgb(148,138,137)"/><rect x="20" y="0" width="10" height="10" fill="rgb(159,142,137)"/><rect x="30" y="0" width="10" height="10" fill="rgb(163,143,134)"/><rect x="40" y="0" width="10" height="10" fill="rgb(150,137,135)"/><rect x="50" y="0" width="10" height="10" fill="rgb(159,147,143)"/><rect x="60" y="0" width="10" height="10" fill="rgb(156,144,145)"/><rect x="70" y="0" width="10" height="10" fill="rgb(157,145,146)"/><rect x="80" y="0" width="10" height="10" fill="rgb(156,144,145)"/><rect x="90" y="0" width="10" height="10" fill="rgb(157,148,150)"/><rect x="100" y="0" width="10" height="10" fill="rgb(159,152,155)"/><rect x="110" y="0" width="10" height="10" fill="rgb(162,152,151)"/><rect x="120" y="0" width="10" height="10" fill="rgb(162,152,152)"/><rect x="130" y="0" width="10" height="10" fill="rgb(163,152,154)"/><rect x="140" y="0" width="10" height="10" fill="rgb(160,152,155)"/><rect x="150" y="0" width="10" height="10" fill="rgb(158,150,154)"/><rect x="160" y="0" width="10" height="10" fill="rgb(160,149,150)"/><rect x="170" y="0" width="10" height="10" fill="rgb(171,160,160)"/><rect x="180" y="0" width="10" height="10" fill="rgb(170,160,160)"/><rect x="190" y="0" width="10" height="10" fill="rgb(170,159,159)"/><rect x="200" y="0" width="10" height="10" fill="rgb(169,159,159)"/><rect x="210" y="0" width="10" height="10" fill="rgb(166,159,161)"/><rect x="220" y="0" width="10" height="10" fill="rgb(170,157,156)"/><rect x="230" y="0" width="10" height="10" fill="rgb(181,170,170)"/><rect x="240" y="0" width="10" height="10" fill="rgb(170,160,161)"/><rect x="250" y="0" width="10" height="10" fill="rgb(168,159,157)"/><rect x="260" y="0" width="10" height="10" fill="rgb(168,159,161)"/><rect x="270" y="0" width="10" height="10" fill="rgb(166,160,162)"/><rect x="280" y="0" width="10" height="10" fill="rgb(166,160,165)"/><rect x="290" y="0" width="10" height="10" fill="rgb(166,160,163)"/><rect x="300" y="0" width="10" height="10" fill="rgb(166,160,165)"/><rect x="310" y="0" width="10" height="10" fill="rgb(168,159,162)"/><rect x="320" y="0" width="10" height="10" fill="rgb(168,160,162)"/><rect x="330" y="0" width="10" height="10" fill="rgb(168,160,162)"/><rect x="340" y="0" width="10" height="10" fill="rgb(169,161,164)"/><rect x="350" y="0" width="10" height="10" fill="rgb(166,162,169)"/><rect x="360" y="0" width="10" height="10" fill="rgb(170,160,161)"/><rect x="370" y="0" width="10" height="10" fill="rgb(165,160,165)"/><rect x="380" y="0" width="10" height="10" fill="rgb(165,161,167)"/><rect x="390" y="0" width="10" height="10" fill="rgb(163,161,168)"/><rect x="400" y="0" width="10" height="10" fill="rgb(162,161,169)"/><rect x="410" y="0" width="10" height="10" fill="rgb(161,161,171)"/><rect x="420" y="0" width="10" height="10" fill="rgb(161,162,173)"/><rect x="430" y="0" width="10" height="10" fill="rgb(161,162,174)"/><rect x="440" y="0" width="10" height="10" fill="rgb(161,161,171)"/></svg>