<svg xmlns="http://www.w3.org/2000/svg" width="480" height="70"><rect x="0" y="0" width="10" height="10" fill="rgb(82,122,171)"/><rect x="10" y="0" width="10" height="10" fill="rgb(113,137,169)"/><rect x="20" y="0" width="10" height="10" fill="rgb(145,153,166)"/><rect x="30" y="0" width="10" height="10" fill="rgb(21,24,35)"/><rect x="40" y="0" width="10" height="10" fill="rgb(21,24,35)"/><rect x="50" y="0" width="10" height="10" fill="rgb(21,24,35)"/><rect x="60" y="0" width="10" height="10" fill="rgb(20,23,34)"/><rect x="70" y="0" width="10" height="10" fill="rgb(21,24,35)"/><rect x="80" y="0" width="10" height="10" fill="rgb(20,23,34)"/><rect x="90" y="0" width="10" height="10" fill="rgb(20,23,34)"/><rect x="100" y="0" width="10" height="10" fill="rgb(21,24,35)"/><rect x="110" y="0" width="10" height="10" fill="rgb(21,24,35)"/><rect x="120" y="0" width="10" height="10" fill="rgb(21,24,35)"/><rect x="130" y="0" width="10" height="10" fill="rgb(21,24,35)"/><rect x="140" y="0" width="10" height="10" fill="rgb(21,24,35)"/><rect x="150" y="0" width="10" height="10" fill="rgb(21,24,35)"/><rect x="160" y="0" width="10" height="10" fill="rgb(26,29,40)"/><rect x="170" y="0" width="10" height="10" fill="rgb(20,23,34)"/><rect x="180" y="0" width="10" height="10" fill="rgb(20,23,34)"/><rect x="190" y="0" width="10" height="10" fill="rgb(22,25,36)"/><rect x="200" y="0" width="10" height="10" fill="rgb(23,26,37)"/><rect x="210" y="0" width="10" height="10" fill="rgb(28,31,42)"/><rect x="220" y="0" width="10" height="10" fill="rgb(22,25,36)"/><rect x="230" y="0" width="10" height="10" fill="rgb(20,23,34)"/><rect x="240" y="0" width="10" height="10" fill="rgb(22,25,35)"/><rect x="250" y="0" width="10" height="10" fill="rgb(22,25,33)"/><rect x="260" y="0" width="10" height="10" fill="rgb(27,31,37)"/><rect x="270" y="0" width="10" height="10" fill="rgb(25,29,37)"/><rect x="280" y="0" width="10" height="10" fill="rgb(26,30,38)"/><rect x="290" y="0" width="10" height="10" fill="rgb(26,30,35)"/><rect x="300" y="0" width="10" height="10" fill="rgb(27,31,36)"/><rect x="310" y="0" width="10" height="10" fill="rgb(27,31,38)"/><rect x="320" y="0" width="10" height="10" fill="rgb(27,31,39)"/><rect x="330" y="0" width="10" height="10" fill="rgb(26,30,37)"/><rect x="340" y="0" width="10" height="10" fill="rgb(25,29,37)"/><rect x="350" y="0" width="10" height="10" fill="rgb(21,25,33)"/><rect x="360" y="0" width="10" height="10" fill="rgb(23,27,35)"/><rect x="370" y="0" width="10" height="10" fill="rgb(26,29,37)"/><rect x="380" y="0" width="10" height="10" fill="rgb(24,28,36)"/><rect x="390" y="0" width="10" height="10" fill="rgb(24,28,36)"/><rect x="400" y="0" width="10" height="10" fill="rgb(23,27,35)"/><rect x="410" y="0" width="10" height="10" fill="rgb(21,25,33)"/><rect x="420" y="0" width="10" height="10" fill="rgb(22,26,34)"/><rect x="430" y="0" width="10" height="10" fill="rgb(22,26,33)"/><rect x="440" y="0" width="10" height="10" fill="rgb(23,26,36)"/><rect x="450" y="0" width="10" height="10" fill="rgb(20,23,34)"/><rect x="460" y="0" width="10" height="10" fill="rgb(21,24,35)"/><rect x="470" y="0" width="10" height="10" fill="rgb(21,24,35)"/><rect x="0" y="10" width="10" height="10" fill="rgb(20,23,34)"/><rect x="10" y="10" width="10" height="10" fill="rgb(20,23,34)"/><rect x="20" y="10" width="10" height="10" fill="rgb(20,23,34)"/><rect x="30" y="10" width="10" height="10" fill="rgb(20,23,34)"/><rect x="40" y="10" width="10" height="10" fill="rgb(16,25,32)"/><rect x="50" y="10" width="10" height="10" fill="rgb(16,25,32)"/><rect x="60" y="10" width="10" height="10" fill="rgb(18,24,30)"/><rect x="70" y="10" width="10" height="10" fill="rgb(20,23,34)"/><rect x="80" y="10" width="10" height="10" fill="rgb(20,23,34)"/><rect x="90" y="10" width="10" height="10" fill="rgb(20,23,34)"/><rect x="100" y="10" width="10" height="10" fill="rgb(20,23,33)"/><rect x="110" y="10" width="10" height="10" fill="rgb(20,23,33)"/><rect x="120" y="10" width="10" height="10" fill="rgb(20,23,34)"/><rect x="130" y="10" width="10" height="10" fill="rgb(20,23,34)"/><rect x="140" y="10" width="10" height="10" fill="rgb(20,23,34)"/><rect x="150" y="10" width="10" height="10" fill="rgb(20,23,34)"/><rect x="160" y="10" width="10" height="10" fill="rgb(20,23,34)"/><rect x="170" y="10" width="10" height="10" fill="rgb(19,22,33)"/><rect x="180" y="10" width="10" height="10" fill="rgb(20,23,34)"/><rect x="190" y="10" width="10" height="10" fill="rgb(20,23,34)"/><rect x="200" y="10" width="10" height="10" fill="rgb(20,23,34)"/><rect x="210" y="10" width="10" height="10" fill="rgb(19,22,33)"/><rect x="220" y="10" width="10" height="10" fill="rgb(21,24,35)"/><rect x="230" y="10" width="10" height="10" fill="rgb(21,24,35)"/><rect x="240" y="10" width="10" height="10" fill="rgb(21,24,35)"/><rect x="250" y="10" width="10" height="10" fill="rgb(21,24,35)"/><rect x="260" y="10" width="10" height="10" fill="rgb(20,23,34)"/><rect x="270" y="10" width="10" height="10" fill="rgb(20,23,34)"/><rect x="280" y="10" width="10" height="10" fill="rgb(20,23,34)"/><rect x="290" y="10" width="10" height="10" fill="rgb(20,23,34)"/><rect x="300" y="10" width="10" height="10" fill="rgb(21,24,35)"/><rect x="310" y="10" width="10" height="10" fill="rgb(21,25,35)"/><rect x="320" y="10" width="10" height="10" fill="rgb(21,25,33)"/><rect x="330" y="10" width="10" height="10" fill="rgb(22,26,33)"/><rect x="340" y="10" width="10" height="10" fill="rgb(21,25,32)"/><rect x="350" y="10" width="10" height="10" fill="rgb(21,25,33)"/><rect x="360" y="10" width="10" height="10" fill="rgb(20,24,32)"/><rect x="370" y="10" width="10" height="10" fill="rgb(22,26,32)"/><rect x="380" y="10" width="10" height="10" fill="rgb(20,24,29)"/><rect x="390" y="10" width="10" height="10" fill="rgb(20,24,29)"/><rect x="400" y="10" width="10" height="10" fill="rgb(21,25,32)"/><rect x="410" y="10" width="10" height="10" fill="rgb(20,24,33)"/><rect x="420" y="10" width="10" height="10" fill="rgb(19,23,33)"/><rect x="430" y="10" width="10" height="10" fill="rgb(19,22,32)"/><rect x="440" y="10" width="10" height="10" fill="rgb(19,22,33)"/><rect x="450" y="10" width="10" height="10" fill="rgb(19,22,33)"/><rect x="460" y="10" width="10" height="10" fill="rgb(19,22,33)"/><rect x="470" y="10" width="10" height="10" fill="rgb(19,22,33)"/><rect x="0" y="20" width="10" height="10" fill="rgb(20,24,32)"/><rect x="10" y="20" width="10" height="10" fill="rgb(20,24,32)"/><rect x="20" y="20" width="10" height="10" fill="rgb(21,25,33)"/><rect x="30" y="20" width="10" height="10" fill="rgb(24,28,35)"/><rect x="40" y="20" width="10" height="10" fill="rgb(22,26,31)"/><rect x="50" y="20" width="10" height="10" fill="rgb(33,37,44)"/><rect x="60" y="20" width="10" height="10" fill="rgb(47,51,59)"/><rect x="70" y="20" width="10" height="10" fill="rgb(42,45,60)"/><rect x="80" y="20" width="10" height="10" fill="rgb(23,26,37)"/><rect x="90" y="20" width="10" height="10" fill="rgb(21,24,35)"/><rect x="100" y="20" width="10" height="10" fill="rgb(20,23,34)"/><rect x="110" y="20" width="10" height="10" fill="rgb(20,24,32)"/><rect x="120" y="20" width="10" height="10" fill="rgb(20,24,32)"/><rect x="130" y="20" width="10" height="10" fill="rgb(18,22,30)"/><rect x="140" y="20" width="10" height="10" fill="rgb(19,22,33)"/><rect x="150" y="20" width="10" height="10" fill="rgb(19,22,33)"/><rect x="160" y="20" width="10" height="10" fill="rgb(18,21,32)"/><rect x="170" y="20" width="10" height="10" fill="rgb(19,23,32)"/><rect x="180" y="20" width="10" height="10" fill="rgb(18,21,32)"/><rect x="190" y="20" width="10" height="10" fill="rgb(18,21,32)"/><rect x="200" y="20" width="10" height="10" fill="rgb(20,23,34)"/><rect x="210" y="20" width="10" height="10" fill="rgb(19,22,33)"/><rect x="220" y="20" width="10" height="10" fill="rgb(19,22,33)"/><rect x="230" y="20" width="10" height="10" fill="rgb(22,25,40)"/><rect x="240" y="20" width="10" height="10" fill="rgb(22,27,51)"/><rect x="250" y="20" width="10" height="10" fill="rgb(30,37,67)"/><rect x="260" y="20" width="10" height="10" fill="rgb(50,63,92)"/><rect x="270" y="20" width="10" height="10" fill="rgb(92,102,126)"/><rect x="280" y="20" width="10" height="10" fill="rgb(124,138,156)"/><rect x="290" y="20" width="10" height="10" fill="rgb(141,153,166)"/><rect x="300" y="20" width="10" height="10" fill="rgb(160,164,170)"/><rect x="310" y="20" width="10" height="10" fill="rgb(152,156,164)"/><rect x="320" y="20" width="10" height="10" fill="rgb(153,164,179)"/><rect x="330" y="20" width="10" height="10" fill="rgb(147,161,182)"/><rect x="340" y="20" width="10" height="10" fill="rgb(146,160,185)"/><rect x="350" y="20" width="10" height="10" fill="rgb(141,158,184)"/><rect x="360" y="20" width="10" height="10" fill="rgb(134,152,179)"/><rect x="370" y="20" width="10" height="10" fill="rgb(131,149,177)"/><rect x="380" y="20" width="10" height="10" fill="rgb(135,156,185)"/><rect x="390" y="20" width="10" height="10" fill="rgb(125,149,180)"/><rect x="400" y="20" width="10" height="10" fill="rgb(126,153,187)"/><rect x="410" y="20" width="10" height="10" fill="rgb(128,157,192)"/><rect x="420" y="20" width="10" height="10" fill="rgb(117,159,206)"/><rect x="430" y="20" width="10" height="10" fill="rgb(114,158,207)"/><rect x="440" y="20" width="10" height="10" fill="rgb(108,157,211)"/><rect x="450" y="20" width="10" height="10" fill="rgb(174,172,179)"/><rect x="460" y="20" width="10" height="10" fill="rgb(111,157,209)"/><rect x="470" y="20" width="10" height="10" fill="rgb(114,158,205)"/><rect x="0" y="30" width="10" height="10" fill="rgb(112,157,208)"/><rect x="10" y="30" width="10" height="10" fill="rgb(111,157,209)"/><rect x="20" y="30" width="10" height="10" fill="rgb(96,150,209)"/><rect x="30" y="30" width="10" height="10" fill="rgb(198,193,196)"/><rect x="40" y="30" width="10" height="10" fill="rgb(166,167,181)"/><rect x="50" y="30" width="10" height="10" fill="rgb(92,142,200)"/><rect x="60" y="30" width="10" height="10" fill="rgb(94,145,203)"/><rect x="70" y="30" width="10" height="10" fill="rgb(96,145,200)"/><rect x="80" y="30" width="10" height="10" fill="rgb(105,147,195)"/><rect x="90" y="30" width="10" height="10" fill="rgb(107,148,194)"/><rect x="100" y="30" width="10" height="10" fill="rgb(104,149,200)"/><rect x="110" y="30" width="10" height="10" fill="rgb(92,145,206)"/><rect x="120" y="30" width="10" height="10" fill="rgb(89,141,201)"/><rect x="130" y="30" width="10" height="10" fill="rgb(94,143,201)"/><rect x="140" y="30" width="10" height="10" fill="rgb(89,142,203)"/><rect x="150" y="30" width="10" height="10" fill="rgb(90,143,206)"/><rect x="160" y="30" width="10" height="10" fill="rgb(89,142,203)"/><rect x="170" y="30" width="10" height="10" fill="rgb(90,142,206)"/><rect x="180" y="30" width="10" height="10" fill="rgb(89,141,205)"/><rect x="190" y="30" width="10" height="10" fill="rgb(85,137,201)"/><rect x="200" y="30" width="10" height="10" fill="rgb(84,139,202)"/><rect x="210" y="30" width="10" height="10" fill="rgb(82,137,202)"/><rect x="220" y="30" width="10" height="10" fill="rgb(89,139,197)"/><rect x="230" y="30" width="10" height="10" fill="rgb(84,137,197)"/><rect x="240" y="30" width="10" height="10" fill="rgb(87,137,194)"/><rect x="250" y="30" width="10" height="10" fill="rgb(88,137,193)"/><rect x="260" y="30" width="10" height="10" fill="rgb(91,138,193)"/><rect x="270" y="30" width="10" height="10" fill="rgb(87,136,197)"/><rect x="280" y="30" width="10" height="10" fill="rgb(84,137,197)"/><rect x="290" y="30" width="10" height="10" fill="rgb(86,139,199)"/><rect x="300" y="30" width="10" height="10" fill="rgb(81,136,199)"/><rect x="310" y="30" width="10" height="10" fill="rgb(104,142,191)"/><rect x="320" y="30" width="10" height="10" fill="rgb(140,162,193)"/><rect x="330" y="30" width="10" height="10" fill="rgb(189,185,188)"/><rect x="340" y="30" width="10" height="10" fill="rgb(85,135,194)"/><rect x="350" y="30" width="10" height="10" fill="rgb(81,133,197)"/><rect x="360" y="30" width="10" height="10" fill="rgb(92,135,186)"/><rect x="370" y="30" width="10" height="10" fill="rgb(116,142,181)"/><rect x="380" y="30" width="10" height="10" fill="rgb(162,163,174)"/><rect x="390" y="30" width="10" height="10" fill="rgb(158,160,172)"/><rect x="400" y="30" width="10" height="10" fill="rgb(180,170,166)"/><rect x="410" y="30" width="10" height="10" fill="rgb(99,132,177)"/><rect x="420" y="30" width="10" height="10" fill="rgb(188,177,173)"/><rect x="430" y="30" width="10" height="10" fill="rgb(164,170,181)"/><rect x="440" y="30" width="10" height="10" fill="rgb(177,166,164)"/><rect x="450" y="30" width="10" height="10" fill="rgb(212,201,194)"/><rect x="460" y="30" width="10" height="10" fill="rgb(173,163,161)"/><rect x="470" y="30" width="10" height="10" fill="rgb(183,169,159)"/><rect x="0" y="40" width="10" height="10" fill="rgb(131,144,169)"/><rect x="10" y="40" width="10" height="10" fill="rgb(204,189,176)"/><rect x="20" y="40" width="10" height="10" fill="rgb(154,158,171)"/><rect x="30" y="40" width="10" height="10" fill="rgb(157,150,155)"/><rect x="40" y="40" width="10" height="10" fill="rgb(124,138,162)"/><rect x="50" y="40" width="10" height="10" fill="rgb(160,149,150)"/><rect x="60" y="40" width="10" height="10" fill="rgb(94,127,171)"/><rect x="70" y="40" width="10" height="10" fill="rgb(164,152,150)"/><rect x="80" y="40" width="10" height="10" fill="rgb(139,143,158)"/><rect x="90" y="40" width="10" height="10" fill="rgb(172,158,155)"/><rect x="100" y="40" width="10" height="10" fill="rgb(187,169,157)"/><rect x="110" y="40" width="10" height="10" fill="rgb(198,176,158)"/><rect x="120" y="40" width="10" height="10" fill="rgb(194,171,156)"/><rect x="130" y="40" width="10" height="10" fill="rgb(169,156,151)"/><rect x="140" y="40" width="10" height="10" fill="rgb(202,180,160)"/><rect x="150" y="40" width="10" height="10" fill="rgb(196,173,154)"/><rect x="160" y="40" width="10" height="10" fill="rgb(164,150,146)"/><rect x="170" y="40" width="10" height="10" fill="rgb(184,162,147)"/><rect x="180" y="40" width="10" height="10" fill="rgb(190,164,143)"/><rect x="190" y="40" width="10" height="10" fill="rgb(186,161,140)"/><rect x="200" y="40" width="10" height="10" fill="rgb(173,156,145)"/><rect x="210" y="40" width="10" height="10" fill="rgb(174,158,149)"/><rect x="220" y="40" width="10" height="10" fill="rgb(154,150,156)"/><rect x="230" y="40" width="10" height="10" fill="rgb(155,157,168)"/><rect x="240" y="40" width="10" height="10" fill="rgb(171,166,169)"/><rect x="250" y="40" width="10" height="10" fill="rgb(126,145,173)"/><rect x="260" y="40" width="10" height="10" fill="rgb(153,156,171)"/><rect x="270" y="40" width="10" height="10" fill="rgb(115,137,172)"/><rect x="280" y="40" width="10" height="10" fill="rgb(105,131,167)"/><rect x="290" y="40" width="10" height="10" fill="rgb(106,134,169)"/><rect x="300" y="40" width="10" height="10" fill="rgb(129,142,165)"/><rect x="310" y="40" width="10" height="10" fill="rgb(106,132,171)"/><rect x="320" y="40" width="10" height="10" fill="rgb(106,132,170)"/><rect x="330" y="40" width="10" height="10" fill="rgb(107,133,170)"/><rect x="340" y="40" width="10" height="10" fill="rgb(106,132,171)"/><rect x="350" y="40" width="10" height="10" fill="rgb(113,135,169)"/><rect x="360" y="40" width="10" height="10" fill="rgb(107,133,169)"/><rect x="370" y="40" width="10" height="10" fill="rgb(104,132,169)"/><rect x="380" y="40" width="10" height="10" fill="rgb(110,133,169)"/><rect x="390" y="40" width="10" height="10" fill="rgb(104,134,173)"/><rect x="400" y="40" width="10" height="10" fill="rgb(152,148,157)"/><rect x="410" y="40" width="10" height="10" fill="rgb(174,160,154)"/><rect x="420" y="40" width="10" height="10" fill="rgb(182,168,161)"/><rect x="430" y="40" width="10" height="10" fill="rgb(136,133,141)"/><rect x="440" y="40" width="10" height="10" fill="rgb(168,157,148)"/><rect x="450" y="40" width="10" height="10" fill="rgb(165,156,155)"/><rect x="460" y="40" width="10" height="10" fill="rgb(154,146,145)"/><rect x="470" y="40" width="10" height="10" fill="rgb(142,135,139)"/><rect x="0" y="50" width="10" height="10" fill="rgb(167,154,148)"/><rect x="10" y="50" width="10" height="10" fill="rgb(189,169,154)"/><rect x="20" y="50" width="10" height="10" fill="rgb(161,146,139)"/><rect x="30" y="50" width="10" height="10" fill="rgb(118,137,167)"/><rect x="40" y="50" width="10" height="10" fill="rgb(106,131,167)"/><rect x="50" y="50" width="10" height="10" fill="rgb(109,131,164)"/><rect x="60" y="50" width="10" height="10" fill="rgb(104,129,165)"/><rect x="70" y="50" width="10" height="10" fill="rgb(81,118,165)"/><rect x="80" y="50" width="10" height="10" fill="rgb(124,130,143)"/><rect x="90" y="50" width="10" height="10" fill="rgb(108,125,156)"/><rect x="100" y="50" width="10" height="10" fill="rgb(85,103,136)"/><rect x="110" y="50" width="10" height="10" fill="rgb(156,148,149)"/><rect x="120" y="50" width="10" height="10" fill="rgb(134,143,165)"/><rect x="130" y="50" width="10" height="10" fill="rgb(123,150,182)"/><rect x="140" y="50" width="10" height="10" fill="rgb(118,142,168)"/><rect x="150" y="50" width="10" height="10" fill="rgb(125,141,161)"/><rect x="160" y="50" width="10" height="10" fill="rgb(123,142,164)"/><rect x="170" y="50" width="10" height="10" fill="rgb(110,121,142)"/><rect x="180" y="50" width="10" height="10" fill="rgb(99,108,129)"/><rect x="190" y="50" width="10" height="10" fill="rgb(79,88,111)"/><rect x="200" y="50" width="10" height="10" fill="rgb(50,69,104)"/><rect x="210" y="50" width="10" height="10" fill="rgb(31,60,106)"/><rect x="220" y="50" width="10" height="10" fill="rgb(36,53,78)"/><rect x="230" y="50" width="10" height="10" fill="rgb(36,45,48)"/><rect x="240" y="50" width="10" height="10" fill="rgb(36,40,44)"/><rect x="250" y="50" width="10" height="10" fill="rgb(34,38,42)"/><rect x="260" y="50" width="10" height="10" fill="rgb(37,41,45)"/><rect x="270" y="50" width="10" height="10" fill="rgb(36,40,44)"/><rect x="280" y="50" width="10" height="10" fill="rgb(36,40,44)"/><rect x="290" y="50" width="10" height="10" fill="rgb(33,37,41)"/><rect x="300" y="50" width="10" height="10" fill="rgb(33,37,41)"/><rect x="310" y="50" width="10" height="10" fill="rgb(31,35,39)"/><rect x="320" y="50" width="10" height="10" fill="rgb(34,38,42)"/><rect x="330" y="50" width="10" height="10" fill="rgb(33,37,41)"/><rect x="340" y="50" width="10" height="10" fill="rgb(34,38,42)"/><rect x="350" y="50" width="10" height="10" fill="rgb(32,36,41)"/><rect x="360" y="50" width="10" height="10" fill="rgb(27,31,38)"/><rect x="370" y="50" width="10" height="10" fill="rgb(27,31,39)"/><rect x="380" y="50" width="10" height="10" fill="rgb(24,28,36)"/><rect x="390" y="50" width="10" height="10" fill="rgb(22,25,35)"/><rect x="400" y="50" width="10" height="10" fill="rgb(25,29,38)"/><rect x="410" y="50" width="10" height="10" fill="rgb(25,28,38)"/><rect x="420" y="50" width="10" height="10" fill="rgb(25,29,39)"/><rect x="430" y="50" width="10" height="10" fill="rgb(26,30,38)"/><rect x="440" y="50" width="10" height="10" fill="rgb(27,31,39)"/><rect x="450" y="50" width="10" height="10" fill="rgb(27,31,38)"/><rect x="460" y="50" width="10" height="10" fill="rgb(28,32,40)"/><rect x="470" y="50" width="10" height="10" fill="rgb(29,33,39)"/><rect x="0" y="60" width="10" height="10" fill="rgb(32,36,43)"/><rect x="10" y="60" width="10" height="10" fill="rgb(33,37,43)"/><rect x="20" y="60" width="10" height="10" fill="rgb(32,36,42)"/><rect x="30" y="60" width="10" height="10" fill="rgb(34,38,43)"/><rect x="40" y="60" width="10" height="10" fill="rgb(35,39,45)"/><rect x="50" y="60" width="10" height="10" fill="rgb(34,38,42)"/><rect x="60" y="60" width="10" height="10" fill="rgb(33,37,42)"/><rect x="70" y="60" width="10" height="10" fill="rgb(33,37,42)"/><rect x="80" y="60" width="10" height="10" fill="rgb(29,33,38)"/><rect x="90" y="60" width="10" height="10" fill="rgb(32,36,42)"/><rect x="100" y="60" width="10" height="10" fill="rgb(34,38,46)"/><rect x="110" y="60" width="10" height="10" fill="rgb(32,36,44)"/><rect x="120" y="60" width="10" height="10" fill="rgb(35,39,48)"/><rect x="130" y="60" width="10" height="10" fill="rgb(33,37,46)"/><rect x="140" y="60" width="10" height="10" fill="rgb(31,35,44)"/><rect x="150" y="60" width="10" height="10" fill="rgb(32,35,45)"/><rect x="160" y="60" width="10" height="10" fill="rgb(27,31,39)"/><rect x="170" y="60" width="10" height="10" fill="rgb(27,31,37)"/></svg>