<svg xmlns="http://www.w3.org/2000/svg" width="480" height="10"><rect x="0" y="0" width="10" height="10" fill="rgb(223,226,245)"/><rect x="10" y="0" width="10" height="10" fill="rgb(217,221,233)"/><rect x="20" y="0" width="10" height="10" fill="rgb(190,194,215)"/><rect x="30" y="0" width="10" height="10" fill="rgb(201,217,251)"/><rect x="40" y="0" width="10" height="10" fill="rgb(208,215,237)"/><rect x="50" y="0" width="10" height="10" fill="rgb(155,163,195)"/><rect x="60" y="0" width="10" height="10" fill="rgb(145,155,189)"/><rect x="70" y="0" width="10" height="10" fill="rgb(142,154,189)"/><rect x="80" y="0" width="10" height="10" fill="rgb(132,145,183)"/><rect x="90" y="0" width="10" height="10" fill="rgb(156,166,199)"/><rect x="100" y="0" width="10" height="10" fill="rgb(160,173,213)"/><rect x="110" y="0" width="10" height="10" fill="rgb(172,185,223)"/><rect x="120" y="0" width="10" height="10" fill="rgb(187,195,224)"/><rect x="130" y="0" width="10" height="10" fill="rgb(162,171,201)"/><rect x="140" y="0" width="10" height="10" fill="rgb(181,187,214)"/><rect x="150" y="0" width="10" height="10" fill="rgb(185,192,222)"/><rect x="160" y="0" width="10" height="10" fill="rgb(183,189,218)"/><rect x="170" y="0" width="10" height="10" fill="rgb(193,204,237)"/><rect x="180" y="0" width="10" height="10" fill="rgb(191,198,228)"/><rect x="190" y="0" width="10" height="10" fill="rgb(178,189,222)"/><rect x="200" y="0" width="10" height="10" fill="rgb(186,196,228)"/><rect x="210" y="0" width="10" height="10" fill="rgb(206,208,233)"/><rect x="220" y="0" width="10" height="10" fill="rgb(190,198,226)"/><rect x="230" y="0" width="10" height="10" fill="rgb(190,196,224)"/><rect x="240" y="0" width="10" height="10" fill="rgb(201,207,234)"/><rect x="250" y="0" width="10" height="10" fill="rgb(207,212,241)"/><rect x="260" y="0" width="10" height="10" fill="rgb(209,216,240)"/><rect x="270" y="0" width="10" height="10" fill="rgb(201,206,234)"/><rect x="280" y="0" width="10" height="10" fill="rgb(196,201,228)"/><rect x="290" y="0" width="10" height="10" fill="rgb(196,203,231)"/><rect x="300" y="0" width="10" height="10" fill="rgb(195,203,232)"/><rect x="310" y="0" width="10" height="10" fill="rgb(189,194,222)"/><rect x="320" y="0" width="10" height="10" fill="rgb(210,216,233)"/><rect x="330" y="0" width="10" height="10" fill="rgb(201,205,228)"/><rect x="340" y="0" width="10" height="10" fill="rgb(206,212,232)"/><rect x="350" y="0" width="10" height="10" fill="rgb(199,205,228)"/><rect x="360" y="0" width="10" height="10" fill="rgb(219,222,239)"/><rect x="370" y="0" width="10" height="10" fill="rgb(201,205,229)"/><rect x="380" y="0" width="10" height="10" fill="rgb(145,153,178)"/><rect x="390" y="0" width="10" height="10" fill="rgb(162,167,191)"/><rect x="400" y="0" width="10" height="10" fill="rgb(179,183,205)"/><rect x="410" y="0" width="10" height="10" fill="rgb(202,209,232)"/><rect x="420" y="0" width="10" height="10" fill="rgb(233,237,244)"/><rect x="430" y="0" width="10" height="10" fill="rgb(245,245,242)"/></svg>