<svg xmlns="http://www.w3.org/2000/svg" width="480" height="70"><rect x="0" y="0" width="10" height="10" fill="rgb(203,210,234)"/><rect x="10" y="0" width="10" height="10" fill="rgb(170,180,206)"/><rect x="20" y="0" width="10" height="10" fill="rgb(158,166,193)"/><rect x="30" y="0" width="10" height="10" fill="rgb(232,238,246)"/><rect x="40" y="0" width="10" height="10" fill="rgb(171,182,208)"/><rect x="50" y="0" width="10" height="10" fill="rgb(134,142,169)"/><rect x="60" y="0" width="10" height="10" fill="rgb(149,158,183)"/><rect x="70" y="0" width="10" height="10" fill="rgb(127,138,165)"/><rect x="80" y="0" width="10" height="10" fill="rgb(120,131,157)"/><rect x="90" y="0" width="10" height="10" fill="rgb(165,174,198)"/><rect x="100" y="0" width="10" height="10" fill="rgb(124,144,191)"/><rect x="110" y="0" width="10" height="10" fill="rgb(158,173,207)"/><rect x="120" y="0" width="10" height="10" fill="rgb(186,194,222)"/><rect x="130" y="0" width="10" height="10" fill="rgb(141,152,177)"/><rect x="140" y="0" width="10" height="10" fill="rgb(172,183,209)"/><rect x="150" y="0" width="10" height="10" fill="rgb(174,185,211)"/><rect x="160" y="0" width="10" height="10" fill="rgb(162,173,205)"/><rect x="170" y="0" width="10" height="10" fill="rgb(176,191,225)"/><rect x="180" y="0" width="10" height="10" fill="rgb(179,188,213)"/><rect x="190" y="0" width="10" height="10" fill="rgb(168,179,205)"/><rect x="200" y="0" width="10" height="10" fill="rgb(176,187,213)"/><rect x="210" y="0" width="10" height="10" fill="rgb(178,187,215)"/><rect x="220" y="0" width="10" height="10" fill="rgb(169,181,212)"/><rect x="230" y="0" width="10" height="10" fill="rgb(176,189,222)"/><rect x="240" y="0" width="10" height="10" fill="rgb(181,192,220)"/><rect x="250" y="0" width="10" height="10" fill="rgb(196,204,232)"/><rect x="260" y="0" width="10" height="10" fill="rgb(194,205,232)"/><rect x="270" y="0" width="10" height="10" fill="rgb(199,207,234)"/><rect x="280" y="0" width="10" height="10" fill="rgb(183,194,222)"/><rect x="290" y="0" width="10" height="10" fill="rgb(179,189,216)"/><rect x="300" y="0" width="10" height="10" fill="rgb(173,183,206)"/><rect x="310" y="0" width="10" height="10" fill="rgb(173,180,204)"/><rect x="320" y="0" width="10" height="10" fill="rgb(173,184,207)"/><rect x="330" y="0" width="10" height="10" fill="rgb(149,157,182)"/><rect x="340" y="0" width="10" height="10" fill="rgb(171,183,211)"/><rect x="350" y="0" width="10" height="10" fill="rgb(204,215,240)"/><rect x="360" y="0" width="10" height="10" fill="rgb(218,226,250)"/><rect x="370" y="0" width="10" height="10" fill="rgb(221,228,252)"/><rect x="380" y="0" width="10" height="10" fill="rgb(147,158,183)"/><rect x="390" y="0" width="10" height="10" fill="rgb(158,166,190)"/><rect x="400" y="0" width="10" height="10" fill="rgb(166,173,196)"/><rect x="410" y="0" width="10" height="10" fill="rgb(183,195,218)"/><rect x="420" y="0" width="10" height="10" fill="rgb(217,228,247)"/><rect x="430" y="0" width="10" height="10" fill="rgb(245,245,242)"/><rect x="440" y="0" width="10" height="10" fill="rgb(228,235,246)"/><rect x="450" y="0" width="10" height="10" fill="rgb(201,214,247)"/><rect x="460" y="0" width="10" height="10" fill="rgb(224,230,244)"/><rect x="470" y="0" width="10" height="10" fill="rgb(135,143,167)"/><rect x="0" y="10" width="10" height="10" fill="rgb(234,238,245)"/><rect x="10" y="10" width="10" height="10" fill="rgb(241,243,243)"/><rect x="20" y="10" width="10" height="10" fill="rgb(243,244,243)"/><rect x="30" y="10" width="10" height="10" fill="rgb(194,215,252)"/><rect x="40" y="10" width="10" height="10" fill="rgb(194,203,222)"/><rect x="50" y="10" width="10" height="10" fill="rgb(208,225,250)"/><rect x="60" y="10" width="10" height="10" fill="rgb(227,233,245)"/><rect x="70" y="10" width="10" height="10" fill="rgb(232,240,244)"/><rect x="80" y="10" width="10" height="10" fill="rgb(240,243,243)"/><rect x="90" y="10" width="10" height="10" fill="rgb(240,242,244)"/><rect x="100" y="10" width="10" height="10" fill="rgb(238,239,240)"/><rect x="110" y="10" width="10" height="10" fill="rgb(245,245,242)"/><rect x="120" y="10" width="10" height="10" fill="rgb(236,240,242)"/><rect x="130" y="10" width="10" height="10" fill="rgb(240,244,242)"/><rect x="140" y="10" width="10" height="10" fill="rgb(239,245,242)"/><rect x="150" y="10" width="10" height="10" fill="rgb(233,242,244)"/><rect x="160" y="10" width="10" height="10" fill="rgb(242,245,242)"/><rect x="170" y="10" width="10" height="10" fill="rgb(239,242,243)"/><rect x="180" y="10" width="10" height="10" fill="rgb(245,245,242)"/><rect x="190" y="10" width="10" height="10" fill="rgb(245,245,242)"/><rect x="200" y="10" width="10" height="10" fill="rgb(245,245,242)"/><rect x="210" y="10" width="10" height="10" fill="rgb(175,180,204)"/><rect x="220" y="10" width="10" height="10" fill="rgb(184,189,210)"/><rect x="230" y="10" width="10" height="10" fill="rgb(177,183,195)"/><rect x="240" y="10" width="10" height="10" fill="rgb(166,174,197)"/><rect x="250" y="10" width="10" height="10" fill="rgb(133,141,163)"/><rect x="260" y="10" width="10" height="10" fill="rgb(154,162,177)"/><rect x="270" y="10" width="10" height="10" fill="rgb(178,186,208)"/><rect x="280" y="10" width="10" height="10" fill="rgb(245,245,242)"/><rect x="290" y="10" width="10" height="10" fill="rgb(245,245,242)"/><rect x="300" y="10" width="10" height="10" fill="rgb(245,245,242)"/><rect x="310" y="10" width="10" height="10" fill="rgb(244,245,242)"/><rect x="320" y="10" width="10" height="10" fill="rgb(245,245,242)"/><rect x="330" y="10" width="10" height="10" fill="rgb(245,245,242)"/><rect x="340" y="10" width="10" height="10" fill="rgb(245,245,242)"/><rect x="350" y="10" width="10" height="10" fill="rgb(245,245,242)"/><rect x="360" y="10" width="10" height="10" fill="rgb(245,245,242)"/><rect x="370" y="10" width="10" height="10" fill="rgb(245,245,242)"/><rect x="380" y="10" width="10" height="10" fill="rgb(245,245,242)"/><rect x="390" y="10" width="10" height="10" fill="rgb(245,245,242)"/><rect x="400" y="10" width="10" height="10" fill="rgb(245,245,242)"/><rect x="410" y="10" width="10" height="10" fill="rgb(245,245,242)"/><rect x="420" y="10" width="10" height="10" fill="rgb(245,245,242)"/><rect x="430" y="10" width="10" height="10" fill="rgb(245,245,242)"/><rect x="440" y="10" width="10" height="10" fill="rgb(245,245,242)"/><rect x="450" y="10" width="10" height="10" fill="rgb(245,245,242)"/><rect x="460" y="10" width="10" height="10" fill="rgb(245,245,242)"/><rect x="470" y="10" width="10" height="10" fill="rgb(245,245,242)"/><rect x="0" y="20" width="10" height="10" fill="rgb(245,245,242)"/><rect x="10" y="20" width="10" height="10" fill="rgb(245,245,242)"/><rect x="20" y="20" width="10" height="10" fill="rgb(245,245,242)"/><rect x="30" y="20" width="10" height="10" fill="rgb(242,242,240)"/><rect x="40" y="20" width="10" height="10" fill="rgb(245,245,242)"/><rect x="50" y="20" width="10" height="10" fill="rgb(245,245,242)"/><rect x="60" y="20" width="10" height="10" fill="rgb(245,245,242)"/><rect x="70" y="20" width="10" height="10" fill="rgb(245,245,242)"/><rect x="80" y="20" width="10" height="10" fill="rgb(241,243,241)"/><rect x="90" y="20" width="10" height="10" fill="rgb(237,245,242)"/><rect x="100" y="20" width="10" height="10" fill="rgb(217,245,241)"/><rect x="110" y="20" width="10" height="10" fill="rgb(140,245,244)"/><rect x="120" y="20" width="10" height="10" fill="rgb(104,209,254)"/><rect x="130" y="20" width="10" height="10" fill="rgb(75,166,251)"/><rect x="140" y="20" width="10" height="10" fill="rgb(18,64,165)"/><rect x="150" y="20" width="10" height="10" fill="rgb(13,22,70)"/><rect x="160" y="20" width="10" height="10" fill="rgb(15,42,121)"/><rect x="170" y="20" width="10" height="10" fill="rgb(21,24,52)"/><rect x="180" y="20" width="10" height="10" fill="rgb(13,15,29)"/><rect x="190" y="20" width="10" height="10" fill="rgb(12,13,26)"/><rect x="200" y="20" width="10" height="10" fill="rgb(12,14,24)"/><rect x="210" y="20" width="10" height="10" fill="rgb(10,13,24)"/><rect x="220" y="20" width="10" height="10" fill="rgb(11,13,25)"/><rect x="230" y="20" width="10" height="10" fill="rgb(11,13,22)"/><rect x="240" y="20" width="10" height="10" fill="rgb(12,12,22)"/><rect x="250" y="20" width="10" height="10" fill="rgb(11,11,21)"/><rect x="260" y="20" width="10" height="10" fill="rgb(12,12,23)"/><rect x="270" y="20" width="10" height="10" fill="rgb(10,12,22)"/><rect x="280" y="20" width="10" height="10" fill="rgb(11,13,21)"/><rect x="290" y="20" width="10" height="10" fill="rgb(10,12,22)"/><rect x="300" y="20" width="10" height="10" fill="rgb(11,12,22)"/><rect x="310" y="20" width="10" height="10" fill="rgb(13,12,22)"/><rect x="320" y="20" width="10" height="10" fill="rgb(12,12,21)"/><rect x="330" y="20" width="10" height="10" fill="rgb(11,13,23)"/><rect x="340" y="20" width="10" height="10" fill="rgb(11,12,22)"/><rect x="350" y="20" width="10" height="10" fill="rgb(11,13,24)"/><rect x="360" y="20" width="10" height="10" fill="rgb(12,12,24)"/><rect x="370" y="20" width="10" height="10" fill="rgb(15,14,26)"/><rect x="380" y="20" width="10" height="10" fill="rgb(12,12,23)"/><rect x="390" y="20" width="10" height="10" fill="rgb(11,13,26)"/><rect x="400" y="20" width="10" height="10" fill="rgb(10,13,22)"/><rect x="410" y="20" width="10" height="10" fill="rgb(12,12,23)"/><rect x="420" y="20" width="10" height="10" fill="rgb(14,14,24)"/><rect x="430" y="20" width="10" height="10" fill="rgb(13,13,25)"/><rect x="440" y="20" width="10" height="10" fill="rgb(13,14,23)"/><rect x="450" y="20" width="10" height="10" fill="rgb(13,14,25)"/><rect x="460" y="20" width="10" height="10" fill="rgb(15,13,24)"/><rect x="470" y="20" width="10" height="10" fill="rgb(10,11,21)"/><rect x="0" y="30" width="10" height="10" fill="rgb(13,14,24)"/><rect x="10" y="30" width="10" height="10" fill="rgb(13,14,25)"/><rect x="20" y="30" width="10" height="10" fill="rgb(12,14,25)"/><rect x="30" y="30" width="10" height="10" fill="rgb(14,13,24)"/><rect x="40" y="30" width="10" height="10" fill="rgb(11,12,25)"/><rect x="50" y="30" width="10" height="10" fill="rgb(12,14,25)"/><rect x="60" y="30" width="10" height="10" fill="rgb(13,14,24)"/><rect x="70" y="30" width="10" height="10" fill="rgb(13,14,24)"/><rect x="80" y="30" width="10" height="10" fill="rgb(15,14,23)"/><rect x="90" y="30" width="10" height="10" fill="rgb(11,13,23)"/><rect x="100" y="30" width="10" height="10" fill="rgb(13,14,25)"/><rect x="110" y="30" width="10" height="10" fill="rgb(12,14,25)"/><rect x="120" y="30" width="10" height="10" fill="rgb(14,12,24)"/><rect x="130" y="30" width="10" height="10" fill="rgb(14,13,24)"/><rect x="140" y="30" width="10" height="10" fill="rgb(12,14,24)"/><rect x="150" y="30" width="10" height="10" fill="rgb(12,14,26)"/><rect x="160" y="30" width="10" height="10" fill="rgb(13,13,26)"/><rect x="170" y="30" width="10" height="10" fill="rgb(13,14,24)"/><rect x="180" y="30" width="10" height="10" fill="rgb(14,13,23)"/><rect x="190" y="30" width="10" height="10" fill="rgb(13,12,23)"/><rect x="200" y="30" width="10" height="10" fill="rgb(12,14,23)"/><rect x="210" y="30" width="10" height="10" fill="rgb(12,13,24)"/><rect x="220" y="30" width="10" height="10" fill="rgb(12,13,23)"/><rect x="230" y="30" width="10" height="10" fill="rgb(14,13,26)"/><rect x="240" y="30" width="10" height="10" fill="rgb(12,13,26)"/><rect x="250" y="30" width="10" height="10" fill="rgb(12,14,25)"/><rect x="260" y="30" width="10" height="10" fill="rgb(13,14,25)"/><rect x="270" y="30" width="10" height="10" fill="rgb(14,12,24)"/><rect x="280" y="30" width="10" height="10" fill="rgb(15,14,23)"/><rect x="290" y="30" width="10" height="10" fill="rgb(12,14,25)"/><rect x="300" y="30" width="10" height="10" fill="rgb(12,14,25)"/><rect x="310" y="30" width="10" height="10" fill="rgb(12,13,25)"/><rect x="320" y="30" width="10" height="10" fill="rgb(14,13,24)"/><rect x="330" y="30" width="10" height="10" fill="rgb(13,13,25)"/><rect x="340" y="30" width="10" height="10" fill="rgb(13,13,23)"/><rect x="350" y="30" width="10" height="10" fill="rgb(13,14,25)"/><rect x="360" y="30" width="10" height="10" fill="rgb(12,14,25)"/><rect x="370" y="30" width="10" height="10" fill="rgb(13,14,24)"/><rect x="380" y="30" width="10" height="10" fill="rgb(13,13,26)"/><rect x="390" y="30" width="10" height="10" fill="rgb(12,14,23)"/><rect x="400" y="30" width="10" height="10" fill="rgb(12,14,26)"/><rect x="410" y="30" width="10" height="10" fill="rgb(12,15,25)"/><rect x="420" y="30" width="10" height="10" fill="rgb(13,12,23)"/><rect x="430" y="30" width="10" height="10" fill="rgb(15,14,25)"/><rect x="440" y="30" width="10" height="10" fill="rgb(12,14,27)"/><rect x="450" y="30" width="10" height="10" fill="rgb(11,14,26)"/><rect x="460" y="30" width="10" height="10" fill="rgb(12,14,25)"/><rect x="470" y="30" width="10" height="10" fill="rgb(14,12,24)"/><rect x="0" y="40" width="10" height="10" fill="rgb(13,13,23)"/><rect x="10" y="40" width="10" height="10" fill="rgb(12,14,25)"/><rect x="20" y="40" width="10" height="10" fill="rgb(13,14,27)"/><rect x="30" y="40" width="10" height="10" fill="rgb(12,14,27)"/><rect x="40" y="40" width="10" height="10" fill="rgb(15,14,29)"/><rect x="50" y="40" width="10" height="10" fill="rgb(13,15,32)"/><rect x="60" y="40" width="10" height="10" fill="rgb(12,14,33)"/><rect x="70" y="40" width="10" height="10" fill="rgb(12,16,42)"/><rect x="80" y="40" width="10" height="10" fill="rgb(13,20,60)"/><rect x="90" y="40" width="10" height="10" fill="rgb(14,26,102)"/><rect x="100" y="40" width="10" height="10" fill="rgb(15,41,150)"/><rect x="110" y="40" width="10" height="10" fill="rgb(18,76,175)"/><rect x="120" y="40" width="10" height="10" fill="rgb(31,97,188)"/><rect x="130" y="40" width="10" height="10" fill="rgb(54,125,213)"/><rect x="140" y="40" width="10" height="10" fill="rgb(75,148,242)"/><rect x="150" y="40" width="10" height="10" fill="rgb(102,167,248)"/><rect x="160" y="40" width="10" height="10" fill="rgb(135,192,255)"/><rect x="170" y="40" width="10" height="10" fill="rgb(157,214,255)"/><rect x="180" y="40" width="10" height="10" fill="rgb(171,200,240)"/><rect x="190" y="40" width="10" height="10" fill="rgb(178,201,233)"/><rect x="200" y="40" width="10" height="10" fill="rgb(228,241,244)"/><rect x="210" y="40" width="10" height="10" fill="rgb(237,244,242)"/><rect x="220" y="40" width="10" height="10" fill="rgb(240,245,242)"/><rect x="230" y="40" width="10" height="10" fill="rgb(230,240,241)"/><rect x="240" y="40" width="10" height="10" fill="rgb(213,226,241)"/><rect x="250" y="40" width="10" height="10" fill="rgb(185,210,242)"/><rect x="260" y="40" width="10" height="10" fill="rgb(186,209,242)"/><rect x="270" y="40" width="10" height="10" fill="rgb(167,199,246)"/><rect x="280" y="40" width="10" height="10" fill="rgb(175,201,247)"/><rect x="290" y="40" width="10" height="10" fill="rgb(159,178,217)"/><rect x="300" y="40" width="10" height="10" fill="rgb(167,184,220)"/><rect x="310" y="40" width="10" height="10" fill="rgb(168,179,208)"/><rect x="320" y="40" width="10" height="10" fill="rgb(165,181,213)"/><rect x="330" y="40" width="10" height="10" fill="rgb(201,211,234)"/><rect x="340" y="40" width="10" height="10" fill="rgb(208,238,247)"/><rect x="350" y="40" width="10" height="10" fill="rgb(202,213,236)"/><rect x="360" y="40" width="10" height="10" fill="rgb(230,235,241)"/><rect x="370" y="40" width="10" height="10" fill="rgb(194,204,227)"/><rect x="380" y="40" width="10" height="10" fill="rgb(192,203,231)"/><rect x="390" y="40" width="10" height="10" fill="rgb(181,193,226)"/><rect x="400" y="40" width="10" height="10" fill="rgb(124,140,179)"/><rect x="410" y="40" width="10" height="10" fill="rgb(199,209,234)"/><rect x="420" y="40" width="10" height="10" fill="rgb(177,186,213)"/><rect x="430" y="40" width="10" height="10" fill="rgb(165,176,201)"/><rect x="440" y="40" width="10" height="10" fill="rgb(221,232,246)"/><rect x="450" y="40" width="10" height="10" fill="rgb(212,224,246)"/><rect x="460" y="40" width="10" height="10" fill="rgb(176,190,225)"/><rect x="470" y="40" width="10" height="10" fill="rgb(156,169,200)"/><rect x="0" y="50" width="10" height="10" fill="rgb(149,161,193)"/><rect x="10" y="50" width="10" height="10" fill="rgb(151,163,194)"/><rect x="20" y="50" width="10" height="10" fill="rgb(169,191,242)"/><rect x="30" y="50" width="10" height="10" fill="rgb(215,224,243)"/><rect x="40" y="50" width="10" height="10" fill="rgb(196,209,238)"/><rect x="50" y="50" width="10" height="10" fill="rgb(182,195,229)"/><rect x="60" y="50" width="10" height="10" fill="rgb(174,187,220)"/><rect x="70" y="50" width="10" height="10" fill="rgb(103,129,185)"/><rect x="80" y="50" width="10" height="10" fill="rgb(94,126,188)"/><rect x="90" y="50" width="10" height="10" fill="rgb(142,168,226)"/><rect x="100" y="50" width="10" height="10" fill="rgb(153,167,209)"/><rect x="110" y="50" width="10" height="10" fill="rgb(121,136,171)"/><rect x="120" y="50" width="10" height="10" fill="rgb(137,148,176)"/><rect x="130" y="50" width="10" height="10" fill="rgb(161,169,195)"/><rect x="140" y="50" width="10" height="10" fill="rgb(159,170,200)"/><rect x="150" y="50" width="10" height="10" fill="rgb(126,139,172)"/><rect x="160" y="50" width="10" height="10" fill="rgb(127,140,172)"/><rect x="170" y="50" width="10" height="10" fill="rgb(130,140,167)"/><rect x="180" y="50" width="10" height="10" fill="rgb(163,170,194)"/><rect x="190" y="50" width="10" height="10" fill="rgb(179,187,211)"/><rect x="200" y="50" width="10" height="10" fill="rgb(116,134,173)"/><rect x="210" y="50" width="10" height="10" fill="rgb(102,126,172)"/><rect x="220" y="50" width="10" height="10" fill="rgb(107,137,202)"/><rect x="230" y="50" width="10" height="10" fill="rgb(92,126,191)"/><rect x="240" y="50" width="10" height="10" fill="rgb(81,117,180)"/><rect x="250" y="50" width="10" height="10" fill="rgb(89,121,180)"/><rect x="260" y="50" width="10" height="10" fill="rgb(125,144,185)"/><rect x="270" y="50" width="10" height="10" fill="rgb(109,132,184)"/><rect x="280" y="50" width="10" height="10" fill="rgb(122,137,173)"/><rect x="290" y="50" width="10" height="10" fill="rgb(131,147,182)"/><rect x="300" y="50" width="10" height="10" fill="rgb(110,134,185)"/><rect x="310" y="50" width="10" height="10" fill="rgb(145,166,214)"/><rect x="320" y="50" width="10" height="10" fill="rgb(145,164,209)"/><rect x="330" y="50" width="10" height="10" fill="rgb(115,136,181)"/><rect x="340" y="50" width="10" height="10" fill="rgb(111,129,170)"/><rect x="350" y="50" width="10" height="10" fill="rgb(153,172,214)"/><rect x="360" y="50" width="10" height="10" fill="rgb(122,140,184)"/><rect x="370" y="50" width="10" height="10" fill="rgb(115,132,172)"/><rect x="380" y="50" width="10" height="10" fill="rgb(118,138,184)"/><rect x="390" y="50" width="10" height="10" fill="rgb(109,132,181)"/><rect x="400" y="50" width="10" height="10" fill="rgb(117,138,184)"/><rect x="410" y="50" width="10" height="10" fill="rgb(116,137,181)"/><rect x="420" y="50" width="10" height="10" fill="rgb(114,136,183)"/><rect x="430" y="50" width="10" height="10" fill="rgb(113,133,180)"/><rect x="440" y="50" width="10" height="10" fill="rgb(124,146,194)"/><rect x="450" y="50" width="10" height="10" fill="rgb(111,135,187)"/><rect x="460" y="50" width="10" height="10" fill="rgb(95,122,174)"/><rect x="470" y="50" width="10" height="10" fill="rgb(87,120,175)"/><rect x="0" y="60" width="10" height="10" fill="rgb(81,116,170)"/><rect x="10" y="60" width="10" height="10" fill="rgb(84,118,169)"/><rect x="20" y="60" width="10" height="10" fill="rgb(93,121,171)"/><rect x="30" y="60" width="10" height="10" fill="rgb(88,119,169)"/><rect x="40" y="60" width="10" height="10" fill="rgb(94,120,169)"/><rect x="50" y="60" width="10" height="10" fill="rgb(95,122,171)"/><rect x="60" y="60" width="10" height="10" fill="rgb(108,128,174)"/><rect x="70" y="60" width="10" height="10" fill="rgb(111,131,175)"/><rect x="80" y="60" width="10" height="10" fill="rgb(119,137,178)"/><rect x="90" y="60" width="10" height="10" fill="rgb(131,148,187)"/><rect x="100" y="60" width="10" height="10" fill="rgb(117,140,186)"/><rect x="110" y="60" width="10" height="10" fill="rgb(123,145,189)"/><rect x="120" y="60" width="10" height="10" fill="rgb(124,142,183)"/><rect x="130" y="60" width="10" height="10" fill="rgb(154,172,217)"/><rect x="140" y="60" width="10" height="10" fill="rgb(114,136,182)"/><rect x="150" y="60" width="10" height="10" fill="rgb(132,148,185)"/><rect x="160" y="60" width="10" height="10" fill="rgb(113,136,182)"/><rect x="170" y="60" width="10" height="10" fill="rgb(104,130,182)"/><rect x="180" y="60" width="10" height="10" fill="rgb(149,165,196)"/><rect x="190" y="60" width="10" height="10" fill="rgb(119,142,190)"/><rect x="200" y="60" width="10" height="10" fill="rgb(132,153,196)"/><rect x="210" y="60" width="10" height="10" fill="rgb(174,188,218)"/></svg>