<svg xmlns="http://www.w3.org/2000/svg" width="480" height="70"><rect x="0" y="0" width="10" height="10" fill="rgb(213,218,248)"/><rect x="10" y="0" width="10" height="10" fill="rgb(177,187,220)"/><rect x="20" y="0" width="10" height="10" fill="rgb(163,173,202)"/><rect x="30" y="0" width="10" height="10" fill="rgb(175,185,226)"/><rect x="40" y="0" width="10" height="10" fill="rgb(208,207,231)"/><rect x="50" y="0" width="10" height="10" fill="rgb(101,141,216)"/><rect x="60" y="0" width="10" height="10" fill="rgb(102,141,218)"/><rect x="70" y="0" width="10" height="10" fill="rgb(99,142,219)"/><rect x="80" y="0" width="10" height="10" fill="rgb(102,143,219)"/><rect x="90" y="0" width="10" height="10" fill="rgb(116,151,215)"/><rect x="100" y="0" width="10" height="10" fill="rgb(103,143,213)"/><rect x="110" y="0" width="10" height="10" fill="rgb(95,139,212)"/><rect x="120" y="0" width="10" height="10" fill="rgb(143,163,213)"/><rect x="130" y="0" width="10" height="10" fill="rgb(121,151,209)"/><rect x="140" y="0" width="10" height="10" fill="rgb(180,185,209)"/><rect x="150" y="0" width="10" height="10" fill="rgb(227,227,243)"/><rect x="160" y="0" width="10" height="10" fill="rgb(167,178,212)"/><rect x="170" y="0" width="10" height="10" fill="rgb(169,176,205)"/><rect x="180" y="0" width="10" height="10" fill="rgb(110,142,204)"/><rect x="190" y="0" width="10" height="10" fill="rgb(210,213,235)"/><rect x="200" y="0" width="10" height="10" fill="rgb(115,146,208)"/><rect x="210" y="0" width="10" height="10" fill="rgb(142,163,210)"/><rect x="220" y="0" width="10" height="10" fill="rgb(103,140,206)"/><rect x="230" y="0" width="10" height="10" fill="rgb(206,209,230)"/><rect x="240" y="0" width="10" height="10" fill="rgb(99,135,205)"/><rect x="250" y="0" width="10" height="10" fill="rgb(126,150,203)"/><rect x="260" y="0" width="10" height="10" fill="rgb(113,143,199)"/><rect x="270" y="0" width="10" height="10" fill="rgb(199,201,224)"/><rect x="280" y="0" width="10" height="10" fill="rgb(103,134,201)"/><rect x="290" y="0" width="10" height="10" fill="rgb(98,138,208)"/><rect x="300" y="0" width="10" height="10" fill="rgb(186,188,216)"/><rect x="310" y="0" width="10" height="10" fill="rgb(174,173,173)"/><rect x="320" y="0" width="10" height="10" fill="rgb(172,171,196)"/><rect x="330" y="0" width="10" height="10" fill="rgb(102,136,207)"/><rect x="340" y="0" width="10" height="10" fill="rgb(100,138,208)"/><rect x="350" y="0" width="10" height="10" fill="rgb(99,137,210)"/><rect x="360" y="0" width="10" height="10" fill="rgb(100,140,209)"/><rect x="370" y="0" width="10" height="10" fill="rgb(180,183,208)"/><rect x="380" y="0" width="10" height="10" fill="rgb(204,205,226)"/><rect x="390" y="0" width="10" height="10" fill="rgb(148,155,183)"/><rect x="400" y="0" width="10" height="10" fill="rgb(197,197,214)"/><rect x="410" y="0" width="10" height="10" fill="rgb(134,144,172)"/><rect x="420" y="0" width="10" height="10" fill="rgb(199,199,216)"/><rect x="430" y="0" width="10" height="10" fill="rgb(209,208,225)"/><rect x="440" y="0" width="10" height="10" fill="rgb(173,173,198)"/><rect x="450" y="0" width="10" height="10" fill="rgb(135,153,195)"/><rect x="460" y="0" width="10" height="10" fill="rgb(111,139,192)"/><rect x="470" y="0" width="10" height="10" fill="rgb(97,131,199)"/><rect x="0" y="10" width="10" height="10" fill="rgb(100,136,206)"/><rect x="10" y="10" width="10" height="10" fill="rgb(96,131,198)"/><rect x="20" y="10" width="10" height="10" fill="rgb(127,147,194)"/><rect x="30" y="10" width="10" height="10" fill="rgb(134,149,192)"/><rect x="40" y="10" width="10" height="10" fill="rgb(108,137,197)"/><rect x="50" y="10" width="10" height="10" fill="rgb(135,151,197)"/><rect x="60" y="10" width="10" height="10" fill="rgb(122,145,196)"/><rect x="70" y="10" width="10" height="10" fill="rgb(106,138,202)"/><rect x="80" y="10" width="10" height="10" fill="rgb(103,134,198)"/><rect x="90" y="10" width="10" height="10" fill="rgb(87,121,188)"/><rect x="100" y="10" width="10" height="10" fill="rgb(121,142,193)"/><rect x="110" y="10" width="10" height="10" fill="rgb(164,164,171)"/><rect x="120" y="10" width="10" height="10" fill="rgb(114,139,192)"/><rect x="130" y="10" width="10" height="10" fill="rgb(106,130,189)"/><rect x="140" y="10" width="10" height="10" fill="rgb(93,128,191)"/><rect x="150" y="10" width="10" height="10" fill="rgb(94,128,194)"/><rect x="160" y="10" width="10" height="10" fill="rgb(110,136,195)"/><rect x="170" y="10" width="10" height="10" fill="rgb(117,143,198)"/><rect x="180" y="10" width="10" height="10" fill="rgb(96,133,187)"/><rect x="190" y="10" width="10" height="10" fill="rgb(107,134,183)"/><rect x="200" y="10" width="10" height="10" fill="rgb(94,135,202)"/><rect x="210" y="10" width="10" height="10" fill="rgb(95,136,202)"/><rect x="220" y="10" width="10" height="10" fill="rgb(98,128,187)"/><rect x="230" y="10" width="10" height="10" fill="rgb(151,150,168)"/><rect x="240" y="10" width="10" height="10" fill="rgb(115,133,183)"/><rect x="250" y="10" width="10" height="10" fill="rgb(115,135,185)"/><rect x="260" y="10" width="10" height="10" fill="rgb(92,132,199)"/><rect x="270" y="10" width="10" height="10" fill="rgb(136,145,184)"/><rect x="280" y="10" width="10" height="10" fill="rgb(110,137,197)"/><rect x="290" y="10" width="10" height="10" fill="rgb(98,126,165)"/><rect x="300" y="10" width="10" height="10" fill="rgb(106,127,158)"/><rect x="310" y="10" width="10" height="10" fill="rgb(104,133,166)"/><rect x="320" y="10" width="10" height="10" fill="rgb(105,130,180)"/><rect x="330" y="10" width="10" height="10" fill="rgb(101,126,175)"/><rect x="340" y="10" width="10" height="10" fill="rgb(102,127,174)"/><rect x="350" y="10" width="10" height="10" fill="rgb(101,127,185)"/><rect x="360" y="10" width="10" height="10" fill="rgb(101,129,186)"/><rect x="370" y="10" width="10" height="10" fill="rgb(98,126,183)"/><rect x="380" y="10" width="10" height="10" fill="rgb(104,130,182)"/><rect x="390" y="10" width="10" height="10" fill="rgb(100,127,184)"/><rect x="400" y="10" width="10" height="10" fill="rgb(103,131,188)"/><rect x="410" y="10" width="10" height="10" fill="rgb(116,138,176)"/><rect x="420" y="10" width="10" height="10" fill="rgb(116,137,164)"/><rect x="430" y="10" width="10" height="10" fill="rgb(118,136,164)"/><rect x="440" y="10" width="10" height="10" fill="rgb(123,139,163)"/><rect x="450" y="10" width="10" height="10" fill="rgb(126,141,165)"/><rect x="460" y="10" width="10" height="10" fill="rgb(122,138,163)"/><rect x="470" y="10" width="10" height="10" fill="rgb(122,138,165)"/><rect x="0" y="20" width="10" height="10" fill="rgb(118,136,164)"/><rect x="10" y="20" width="10" height="10" fill="rgb(139,141,153)"/><rect x="20" y="20" width="10" height="10" fill="rgb(119,140,167)"/><rect x="30" y="20" width="10" height="10" fill="rgb(125,145,172)"/><rect x="40" y="20" width="10" height="10" fill="rgb(120,140,169)"/><rect x="50" y="20" width="10" height="10" fill="rgb(122,145,175)"/><rect x="60" y="20" width="10" height="10" fill="rgb(122,146,175)"/><rect x="70" y="20" width="10" height="10" fill="rgb(125,150,177)"/><rect x="80" y="20" width="10" height="10" fill="rgb(122,148,174)"/><rect x="90" y="20" width="10" height="10" fill="rgb(122,148,177)"/><rect x="100" y="20" width="10" height="10" fill="rgb(121,149,176)"/><rect x="110" y="20" width="10" height="10" fill="rgb(124,153,178)"/><rect x="120" y="20" width="10" height="10" fill="rgb(129,155,182)"/><rect x="130" y="20" width="10" height="10" fill="rgb(125,156,182)"/><rect x="140" y="20" width="10" height="10" fill="rgb(122,152,182)"/><rect x="150" y="20" width="10" height="10" fill="rgb(141,166,202)"/><rect x="160" y="20" width="10" height="10" fill="rgb(131,166,205)"/><rect x="170" y="20" width="10" height="10" fill="rgb(122,164,212)"/><rect x="180" y="20" width="10" height="10" fill="rgb(109,147,193)"/><rect x="190" y="20" width="10" height="10" fill="rgb(92,127,186)"/><rect x="200" y="20" width="10" height="10" fill="rgb(53,95,171)"/><rect x="210" y="20" width="10" height="10" fill="rgb(60,100,161)"/><rect x="220" y="20" width="10" height="10" fill="rgb(100,100,100)"/><rect x="230" y="20" width="10" height="10" fill="rgb(65,65,65)"/><rect x="240" y="20" width="10" height="10" fill="rgb(51,51,51)"/><rect x="250" y="20" width="10" height="10" fill="rgb(34,34,34)"/><rect x="260" y="20" width="10" height="10" fill="rgb(27,27,27)"/><rect x="270" y="20" width="10" height="10" fill="rgb(23,23,23)"/><rect x="280" y="20" width="10" height="10" fill="rgb(21,21,21)"/><rect x="290" y="20" width="10" height="10" fill="rgb(28,28,28)"/><rect x="300" y="20" width="10" height="10" fill="rgb(28,28,28)"/><rect x="310" y="20" width="10" height="10" fill="rgb(31,31,31)"/><rect x="320" y="20" width="10" height="10" fill="rgb(31,31,31)"/><rect x="330" y="20" width="10" height="10" fill="rgb(29,29,29)"/><rect x="340" y="20" width="10" height="10" fill="rgb(24,24,24)"/><rect x="350" y="20" width="10" height="10" fill="rgb(28,28,28)"/><rect x="360" y="20" width="10" height="10" fill="rgb(31,31,31)"/><rect x="370" y="20" width="10" height="10" fill="rgb(29,29,29)"/><rect x="380" y="20" width="10" height="10" fill="rgb(34,34,34)"/><rect x="390" y="20" width="10" height="10" fill="rgb(36,36,36)"/><rect x="400" y="20" width="10" height="10" fill="rgb(34,34,34)"/><rect x="410" y="20" width="10" height="10" fill="rgb(33,33,33)"/><rect x="420" y="20" width="10" height="10" fill="rgb(32,32,32)"/><rect x="430" y="20" width="10" height="10" fill="rgb(36,36,36)"/><rect x="440" y="20" width="10" height="10" fill="rgb(36,36,36)"/><rect x="450" y="20" width="10" height="10" fill="rgb(44,44,44)"/><rect x="460" y="20" width="10" height="10" fill="rgb(43,43,43)"/><rect x="470" y="20" width="10" height="10" fill="rgb(42,42,42)"/><rect x="0" y="30" width="10" height="10" fill="rgb(39,39,39)"/><rect x="10" y="30" width="10" height="10" fill="rgb(44,44,44)"/><rect x="20" y="30" width="10" height="10" fill="rgb(43,43,43)"/><rect x="30" y="30" width="10" height="10" fill="rgb(42,42,42)"/><rect x="40" y="30" width="10" height="10" fill="rgb(40,40,40)"/><rect x="50" y="30" width="10" height="10" fill="rgb(32,32,32)"/><rect x="60" y="30" width="10" height="10" fill="rgb(35,35,35)"/><rect x="70" y="30" width="10" height="10" fill="rgb(36,36,36)"/><rect x="80" y="30" width="10" height="10" fill="rgb(37,37,37)"/><rect x="90" y="30" width="10" height="10" fill="rgb(44,44,44)"/><rect x="100" y="30" width="10" height="10" fill="rgb(41,41,41)"/><rect x="110" y="30" width="10" height="10" fill="rgb(33,33,33)"/><rect x="120" y="30" width="10" height="10" fill="rgb(41,41,41)"/><rect x="130" y="30" width="10" height="10" fill="rgb(44,44,44)"/><rect x="140" y="30" width="10" height="10" fill="rgb(45,45,45)"/><rect x="150" y="30" width="10" height="10" fill="rgb(40,40,40)"/><rect x="160" y="30" width="10" height="10" fill="rgb(50,50,50)"/><rect x="170" y="30" width="10" height="10" fill="rgb(43,43,43)"/><rect x="180" y="30" width="10" height="10" fill="rgb(45,45,45)"/><rect x="190" y="30" width="10" height="10" fill="rgb(39,39,39)"/><rect x="200" y="30" width="10" height="10" fill="rgb(36,36,36)"/><rect x="210" y="30" width="10" height="10" fill="rgb(49,49,49)"/><rect x="220" y="30" width="10" height="10" fill="rgb(52,52,52)"/><rect x="230" y="30" width="10" height="10" fill="rgb(43,43,43)"/><rect x="240" y="30" width="10" height="10" fill="rgb(45,45,45)"/><rect x="250" y="30" width="10" height="10" fill="rgb(43,43,43)"/><rect x="260" y="30" width="10" height="10" fill="rgb(53,53,53)"/><rect x="270" y="30" width="10" height="10" fill="rgb(58,58,58)"/><rect x="280" y="30" width="10" height="10" fill="rgb(52,52,52)"/><rect x="290" y="30" width="10" height="10" fill="rgb(55,55,55)"/><rect x="300" y="30" width="10" height="10" fill="rgb(55,55,55)"/><rect x="310" y="30" width="10" height="10" fill="rgb(58,58,58)"/><rect x="320" y="30" width="10" height="10" fill="rgb(52,52,52)"/><rect x="330" y="30" width="10" height="10" fill="rgb(50,50,50)"/><rect x="340" y="30" width="10" height="10" fill="rgb(40,40,40)"/><rect x="350" y="30" width="10" height="10" fill="rgb(47,47,47)"/><rect x="360" y="30" width="10" height="10" fill="rgb(35,35,35)"/><rect x="370" y="30" width="10" height="10" fill="rgb(36,36,36)"/><rect x="380" y="30" width="10" height="10" fill="rgb(39,39,39)"/><rect x="390" y="30" width="10" height="10" fill="rgb(37,37,37)"/><rect x="400" y="30" width="10" height="10" fill="rgb(31,31,31)"/><rect x="410" y="30" width="10" height="10" fill="rgb(31,31,31)"/><rect x="420" y="30" width="10" height="10" fill="rgb(34,34,34)"/><rect x="430" y="30" width="10" height="10" fill="rgb(32,32,32)"/><rect x="440" y="30" width="10" height="10" fill="rgb(39,39,39)"/><rect x="450" y="30" width="10" height="10" fill="rgb(37,37,37)"/><rect x="460" y="30" width="10" height="10" fill="rgb(35,35,35)"/><rect x="470" y="30" width="10" height="10" fill="rgb(38,38,38)"/><rect x="0" y="40" width="10" height="10" fill="rgb(34,34,34)"/><rect x="10" y="40" width="10" height="10" fill="rgb(33,33,33)"/><rect x="20" y="40" width="10" height="10" fill="rgb(29,29,29)"/><rect x="30" y="40" width="10" height="10" fill="rgb(30,30,30)"/><rect x="40" y="40" width="10" height="10" fill="rgb(33,33,33)"/><rect x="50" y="40" width="10" height="10" fill="rgb(32,32,32)"/><rect x="60" y="40" width="10" height="10" fill="rgb(33,33,33)"/><rect x="70" y="40" width="10" height="10" fill="rgb(34,34,34)"/><rect x="80" y="40" width="10" height="10" fill="rgb(35,35,35)"/><rect x="90" y="40" width="10" height="10" fill="rgb(38,38,38)"/><rect x="100" y="40" width="10" height="10" fill="rgb(33,33,33)"/><rect x="110" y="40" width="10" height="10" fill="rgb(36,36,36)"/><rect x="120" y="40" width="10" height="10" fill="rgb(37,37,37)"/><rect x="130" y="40" width="10" height="10" fill="rgb(49,49,49)"/><rect x="140" y="40" width="10" height="10" fill="rgb(63,63,63)"/><rect x="150" y="40" width="10" height="10" fill="rgb(85,85,85)"/><rect x="160" y="40" width="10" height="10" fill="rgb(119,119,119)"/><rect x="170" y="40" width="10" height="10" fill="rgb(174,174,174)"/><rect x="180" y="40" width="10" height="10" fill="rgb(203,203,203)"/><rect x="190" y="40" width="10" height="10" fill="rgb(228,228,228)"/><rect x="200" y="40" width="10" height="10" fill="rgb(142,182,240)"/><rect x="210" y="40" width="10" height="10" fill="rgb(162,196,251)"/><rect x="220" y="40" width="10" height="10" fill="rgb(180,208,249)"/><rect x="230" y="40" width="10" height="10" fill="rgb(195,216,253)"/><rect x="240" y="40" width="10" height="10" fill="rgb(200,219,249)"/><rect x="250" y="40" width="10" height="10" fill="rgb(173,191,224)"/><rect x="260" y="40" width="10" height="10" fill="rgb(185,202,229)"/><rect x="270" y="40" width="10" height="10" fill="rgb(172,187,216)"/><rect x="280" y="40" width="10" height="10" fill="rgb(157,178,214)"/><rect x="290" y="40" width="10" height="10" fill="rgb(188,205,235)"/><rect x="300" y="40" width="10" height="10" fill="rgb(182,196,225)"/><rect x="310" y="40" width="10" height="10" fill="rgb(198,206,236)"/><rect x="320" y="40" width="10" height="10" fill="rgb(185,196,226)"/><rect x="330" y="40" width="10" height="10" fill="rgb(173,184,213)"/><rect x="340" y="40" width="10" height="10" fill="rgb(178,186,216)"/><rect x="350" y="40" width="10" height="10" fill="rgb(189,200,229)"/><rect x="360" y="40" width="10" height="10" fill="rgb(181,190,222)"/><rect x="370" y="40" width="10" height="10" fill="rgb(190,200,235)"/><rect x="380" y="40" width="10" height="10" fill="rgb(190,204,240)"/><rect x="390" y="40" width="10" height="10" fill="rgb(195,202,232)"/><rect x="400" y="40" width="10" height="10" fill="rgb(201,209,240)"/><rect x="410" y="40" width="10" height="10" fill="rgb(204,215,249)"/><rect x="420" y="40" width="10" height="10" fill="rgb(219,223,249)"/><rect x="430" y="40" width="10" height="10" fill="rgb(175,186,224)"/><rect x="440" y="40" width="10" height="10" fill="rgb(182,193,224)"/><rect x="450" y="40" width="10" height="10" fill="rgb(192,197,225)"/><rect x="460" y="40" width="10" height="10" fill="rgb(192,200,229)"/><rect x="470" y="40" width="10" height="10" fill="rgb(178,185,216)"/><rect x="0" y="50" width="10" height="10" fill="rgb(165,179,224)"/><rect x="10" y="50" width="10" height="10" fill="rgb(165,176,211)"/><rect x="20" y="50" width="10" height="10" fill="rgb(182,189,220)"/><rect x="30" y="50" width="10" height="10" fill="rgb(214,213,232)"/><rect x="40" y="50" width="10" height="10" fill="rgb(165,183,223)"/><rect x="50" y="50" width="10" height="10" fill="rgb(138,163,212)"/><rect x="60" y="50" width="10" height="10" fill="rgb(131,159,217)"/><rect x="70" y="50" width="10" height="10" fill="rgb(121,158,231)"/><rect x="80" y="50" width="10" height="10" fill="rgb(124,151,218)"/><rect x="90" y="50" width="10" height="10" fill="rgb(110,147,226)"/><rect x="100" y="50" width="10" height="10" fill="rgb(108,145,225)"/><rect x="110" y="50" width="10" height="10" fill="rgb(111,153,232)"/><rect x="120" y="50" width="10" height="10" fill="rgb(113,153,227)"/><rect x="130" y="50" width="10" height="10" fill="rgb(111,154,238)"/><rect x="140" y="50" width="10" height="10" fill="rgb(110,155,237)"/><rect x="150" y="50" width="10" height="10" fill="rgb(116,155,237)"/><rect x="160" y="50" width="10" height="10" fill="rgb(112,153,237)"/><rect x="170" y="50" width="10" height="10" fill="rgb(112,153,237)"/><rect x="180" y="50" width="10" height="10" fill="rgb(114,149,223)"/><rect x="190" y="50" width="10" height="10" fill="rgb(105,143,219)"/><rect x="200" y="50" width="10" height="10" fill="rgb(106,148,232)"/><rect x="210" y="50" width="10" height="10" fill="rgb(109,150,233)"/><rect x="220" y="50" width="10" height="10" fill="rgb(111,150,231)"/><rect x="230" y="50" width="10" height="10" fill="rgb(111,153,231)"/><rect x="240" y="50" width="10" height="10" fill="rgb(143,167,222)"/><rect x="250" y="50" width="10" height="10" fill="rgb(136,155,212)"/><rect x="260" y="50" width="10" height="10" fill="rgb(132,156,210)"/><rect x="270" y="50" width="10" height="10" fill="rgb(113,152,218)"/><rect x="280" y="50" width="10" height="10" fill="rgb(113,146,207)"/><rect x="290" y="50" width="10" height="10" fill="rgb(161,177,218)"/><rect x="300" y="50" width="10" height="10" fill="rgb(155,173,218)"/><rect x="310" y="50" width="10" height="10" fill="rgb(178,187,217)"/><rect x="320" y="50" width="10" height="10" fill="rgb(127,157,214)"/><rect x="330" y="50" width="10" height="10" fill="rgb(167,181,223)"/><rect x="340" y="50" width="10" height="10" fill="rgb(194,200,233)"/><rect x="350" y="50" width="10" height="10" fill="rgb(152,174,225)"/><rect x="360" y="50" width="10" height="10" fill="rgb(126,160,226)"/><rect x="370" y="50" width="10" height="10" fill="rgb(123,160,227)"/><rect x="380" y="50" width="10" height="10" fill="rgb(135,166,228)"/><rect x="390" y="50" width="10" height="10" fill="rgb(139,165,224)"/><rect x="400" y="50" width="10" height="10" fill="rgb(140,166,218)"/><rect x="410" y="50" width="10" height="10" fill="rgb(143,167,217)"/><rect x="420" y="50" width="10" height="10" fill="rgb(139,165,226)"/><rect x="430" y="50" width="10" height="10" fill="rgb(143,170,226)"/><rect x="440" y="50" width="10" height="10" fill="rgb(144,170,228)"/><rect x="450" y="50" width="10" height="10" fill="rgb(148,174,225)"/><rect x="460" y="50" width="10" height="10" fill="rgb(149,172,224)"/><rect x="470" y="50" width="10" height="10" fill="rgb(149,172,224)"/><rect x="0" y="60" width="10" height="10" fill="rgb(159,178,224)"/><rect x="10" y="60" width="10" height="10" fill="rgb(169,183,227)"/><rect x="20" y="60" width="10" height="10" fill="rgb(173,187,230)"/><rect x="30" y="60" width="10" height="10" fill="rgb(177,191,228)"/><rect x="40" y="60" width="10" height="10" fill="rgb(170,186,228)"/><rect x="50" y="60" width="10" height="10" fill="rgb(188,201,232)"/><rect x="60" y="60" width="10" height="10" fill="rgb(175,191,230)"/><rect x="70" y="60" width="10" height="10" fill="rgb(174,190,229)"/><rect x="80" y="60" width="10" height="10" fill="rgb(188,200,235)"/><rect x="90" y="60" width="10" height="10" fill="rgb(195,207,238)"/><rect x="100" y="60" width="10" height="10" fill="rgb(201,209,238)"/><rect x="110" y="60" width="10" height="10" fill="rgb(179,195,229)"/><rect x="120" y="60" width="10" height="10" fill="rgb(198,208,237)"/><rect x="130" y="60" width="10" height="10" fill="rgb(205,213,242)"/><rect x="140" y="60" width="10" height="10" fill="rgb(214,219,244)"/><rect x="150" y="60" width="10" height="10" fill="rgb(205,211,237)"/><rect x="160" y="60" width="10" height="10" fill="rgb(200,208,236)"/><rect x="170" y="60" width="10" height="10" fill="rgb(198,207,236)"/><rect x="180" y="60" width="10" height="10" fill="rgb(198,207,237)"/><rect x="190" y="60" width="10" height="10" fill="rgb(200,208,238)"/><rect x="200" y="60" width="10" height="10" fill="rgb(198,206,236)"/><rect x="210" y="60" width="10" height="10" fill="rgb(197,205,234)"/></svg>