<svg xmlns="http://www.w3.org/2000/svg" width="480" height="20"><rect x="0" y="0" width="10" height="10" fill="rgb(215,219,250)"/><rect x="10" y="0" width="10" height="10" fill="rgb(181,192,224)"/><rect x="20" y="0" width="10" height="10" fill="rgb(175,183,212)"/><rect x="30" y="0" width="10" height="10" fill="rgb(189,195,230)"/><rect x="40" y="0" width="10" height="10" fill="rgb(152,172,221)"/><rect x="50" y="0" width="10" height="10" fill="rgb(100,139,217)"/><rect x="60" y="0" width="10" height="10" fill="rgb(98,140,220)"/><rect x="70" y="0" width="10" height="10" fill="rgb(97,140,219)"/><rect x="80" y="0" width="10" height="10" fill="rgb(110,144,215)"/><rect x="90" y="0" width="10" height="10" fill="rgb(131,157,212)"/><rect x="100" y="0" width="10" height="10" fill="rgb(117,149,212)"/><rect x="110" y="0" width="10" height="10" fill="rgb(132,158,212)"/><rect x="120" y="0" width="10" height="10" fill="rgb(109,146,213)"/><rect x="130" y="0" width="10" height="10" fill="rgb(112,147,212)"/><rect x="140" y="0" width="10" height="10" fill="rgb(175,185,220)"/><rect x="150" y="0" width="10" height="10" fill="rgb(181,189,219)"/><rect x="160" y="0" width="10" height="10" fill="rgb(119,151,209)"/><rect x="170" y="0" width="10" height="10" fill="rgb(152,168,209)"/><rect x="180" y="0" width="10" height="10" fill="rgb(122,148,203)"/><rect x="190" y="0" width="10" height="10" fill="rgb(121,153,213)"/><rect x="200" y="0" width="10" height="10" fill="rgb(105,141,209)"/><rect x="210" y="0" width="10" height="10" fill="rgb(146,158,193)"/><rect x="220" y="0" width="10" height="10" fill="rgb(169,180,214)"/><rect x="230" y="0" width="10" height="10" fill="rgb(140,164,213)"/><rect x="240" y="0" width="10" height="10" fill="rgb(99,136,207)"/><rect x="250" y="0" width="10" height="10" fill="rgb(131,153,202)"/><rect x="260" y="0" width="10" height="10" fill="rgb(150,167,208)"/><rect x="270" y="0" width="10" height="10" fill="rgb(143,162,211)"/><rect x="280" y="0" width="10" height="10" fill="rgb(135,153,202)"/><rect x="290" y="0" width="10" height="10" fill="rgb(111,143,205)"/><rect x="300" y="0" width="10" height="10" fill="rgb(179,181,208)"/><rect x="310" y="0" width="10" height="10" fill="rgb(156,164,182)"/><rect x="320" y="0" width="10" height="10" fill="rgb(168,173,205)"/><rect x="330" y="0" width="10" height="10" fill="rgb(101,135,205)"/><rect x="340" y="0" width="10" height="10" fill="rgb(104,139,206)"/><rect x="350" y="0" width="10" height="10" fill="rgb(99,137,210)"/><rect x="360" y="0" width="10" height="10" fill="rgb(117,146,207)"/><rect x="370" y="0" width="10" height="10" fill="rgb(184,186,207)"/><rect x="380" y="0" width="10" height="10" fill="rgb(166,178,214)"/><rect x="390" y="0" width="10" height="10" fill="rgb(147,160,196)"/><rect x="400" y="0" width="10" height="10" fill="rgb(193,197,218)"/><rect x="410" y="0" width="10" height="10" fill="rgb(161,167,196)"/><rect x="420" y="0" width="10" height="10" fill="rgb(177,185,211)"/><rect x="430" y="0" width="10" height="10" fill="rgb(171,177,205)"/><rect x="440" y="0" width="10" height="10" fill="rgb(176,180,205)"/><rect x="450" y="0" width="10" height="10" fill="rgb(151,159,189)"/><rect x="460" y="0" width="10" height="10" fill="rgb(133,151,194)"/><rect x="470" y="0" width="10" height="10" fill="rgb(101,132,194)"/><rect x="0" y="10" width="10" height="10" fill="rgb(116,145,206)"/><rect x="10" y="10" width="10" height="10" fill="rgb(115,141,195)"/></svg>