<svg xmlns="http://www.w3.org/2000/svg" width="480" height="70"><rect x="0" y="0" width="10" height="10" fill="rgb(159,170,197)"/><rect x="10" y="0" width="10" height="10" fill="rgb(112,139,181)"/><rect x="20" y="0" width="10" height="10" fill="rgb(115,140,182)"/><rect x="30" y="0" width="10" height="10" fill="rgb(134,167,209)"/><rect x="40" y="0" width="10" height="10" fill="rgb(108,157,212)"/><rect x="50" y="0" width="10" height="10" fill="rgb(99,152,207)"/><rect x="60" y="0" width="10" height="10" fill="rgb(88,144,203)"/><rect x="70" y="0" width="10" height="10" fill="rgb(70,128,191)"/><rect x="80" y="0" width="10" height="10" fill="rgb(52,107,170)"/><rect x="90" y="0" width="10" height="10" fill="rgb(42,74,119)"/><rect x="100" y="0" width="10" height="10" fill="rgb(31,50,87)"/><rect x="110" y="0" width="10" height="10" fill="rgb(15,32,56)"/><rect x="120" y="0" width="10" height="10" fill="rgb(15,26,39)"/><rect x="130" y="0" width="10" height="10" fill="rgb(18,25,31)"/><rect x="140" y="0" width="10" height="10" fill="rgb(21,26,26)"/><rect x="150" y="0" width="10" height="10" fill="rgb(21,26,24)"/><rect x="160" y="0" width="10" height="10" fill="rgb(21,25,22)"/><rect x="170" y="0" width="10" height="10" fill="rgb(21,24,20)"/><rect x="180" y="0" width="10" height="10" fill="rgb(22,24,20)"/><rect x="190" y="0" width="10" height="10" fill="rgb(22,24,20)"/><rect x="200" y="0" width="10" height="10" fill="rgb(21,24,19)"/><rect x="210" y="0" width="10" height="10" fill="rgb(21,24,19)"/><rect x="220" y="0" width="10" height="10" fill="rgb(22,24,19)"/><rect x="230" y="0" width="10" height="10" fill="rgb(22,23,19)"/><rect x="240" y="0" width="10" height="10" fill="rgb(22,24,19)"/><rect x="250" y="0" width="10" height="10" fill="rgb(22,24,19)"/><rect x="260" y="0" width="10" height="10" fill="rgb(22,23,19)"/><rect x="270" y="0" width="10" height="10" fill="rgb(22,24,19)"/><rect x="280" y="0" width="10" height="10" fill="rgb(22,23,18)"/><rect x="290" y="0" width="10" height="10" fill="rgb(22,24,18)"/><rect x="300" y="0" width="10" height="10" fill="rgb(22,23,18)"/><rect x="310" y="0" width="10" height="10" fill="rgb(22,24,19)"/><rect x="320" y="0" width="10" height="10" fill="rgb(22,24,19)"/><rect x="330" y="0" width="10" height="10" fill="rgb(22,23,18)"/><rect x="340" y="0" width="10" height="10" fill="rgb(22,23,18)"/><rect x="350" y="0" width="10" height="10" fill="rgb(22,23,18)"/><rect x="360" y="0" width="10" height="10" fill="rgb(22,24,18)"/><rect x="370" y="0" width="10" height="10" fill="rgb(22,23,18)"/><rect x="380" y="0" width="10" height="10" fill="rgb(22,23,19)"/><rect x="390" y="0" width="10" height="10" fill="rgb(22,23,18)"/><rect x="400" y="0" width="10" height="10" fill="rgb(22,23,18)"/><rect x="410" y="0" width="10" height="10" fill="rgb(22,23,18)"/><rect x="420" y="0" width="10" height="10" fill="rgb(22,24,19)"/><rect x="430" y="0" width="10" height="10" fill="rgb(22,23,18)"/><rect x="440" y="0" width="10" height="10" fill="rgb(22,23,18)"/><rect x="450" y="0" width="10" height="10" fill="rgb(22,23,18)"/><rect x="460" y="0" width="10" height="10" fill="rgb(22,23,18)"/><rect x="470" y="0" width="10" height="10" fill="rgb(22,23,18)"/><rect x="0" y="10" width="10" height="10" fill="rgb(21,23,18)"/><rect x="10" y="10" width="10" height="10" fill="rgb(22,23,18)"/><rect x="20" y="10" width="10" height="10" fill="rgb(22,23,18)"/><rect x="30" y="10" width="10" height="10" fill="rgb(22,23,18)"/><rect x="40" y="10" width="10" height="10" fill="rgb(22,23,18)"/><rect x="50" y="10" width="10" height="10" fill="rgb(22,23,18)"/><rect x="60" y="10" width="10" height="10" fill="rgb(22,23,18)"/><rect x="70" y="10" width="10" height="10" fill="rgb(21,22,17)"/><rect x="80" y="10" width="10" height="10" fill="rgb(21,23,18)"/><rect x="90" y="10" width="10" height="10" fill="rgb(21,22,17)"/><rect x="100" y="10" width="10" height="10" fill="rgb(22,22,17)"/><rect x="110" y="10" width="10" height="10" fill="rgb(21,22,17)"/><rect x="120" y="10" width="10" height="10" fill="rgb(22,23,18)"/><rect x="130" y="10" width="10" height="10" fill="rgb(22,23,18)"/><rect x="140" y="10" width="10" height="10" fill="rgb(22,23,18)"/><rect x="150" y="10" width="10" height="10" fill="rgb(22,23,18)"/><rect x="160" y="10" width="10" height="10" fill="rgb(22,23,18)"/><rect x="170" y="10" width="10" height="10" fill="rgb(22,23,18)"/><rect x="180" y="10" width="10" height="10" fill="rgb(22,23,18)"/><rect x="190" y="10" width="10" height="10" fill="rgb(22,23,18)"/><rect x="200" y="10" width="10" height="10" fill="rgb(22,24,19)"/><rect x="210" y="10" width="10" height="10" fill="rgb(22,23,18)"/><rect x="220" y="10" width="10" height="10" fill="rgb(22,23,18)"/><rect x="230" y="10" width="10" height="10" fill="rgb(22,23,18)"/><rect x="240" y="10" width="10" height="10" fill="rgb(22,23,18)"/><rect x="250" y="10" width="10" height="10" fill="rgb(22,23,18)"/><rect x="260" y="10" width="10" height="10" fill="rgb(23,23,18)"/><rect x="270" y="10" width="10" height="10" fill="rgb(22,23,18)"/><rect x="280" y="10" width="10" height="10" fill="rgb(22,23,18)"/><rect x="290" y="10" width="10" height="10" fill="rgb(22,23,18)"/><rect x="300" y="10" width="10" height="10" fill="rgb(23,23,18)"/><rect x="310" y="10" width="10" height="10" fill="rgb(23,23,18)"/><rect x="320" y="10" width="10" height="10" fill="rgb(22,23,18)"/><rect x="330" y="10" width="10" height="10" fill="rgb(22,23,18)"/><rect x="340" y="10" width="10" height="10" fill="rgb(22,23,18)"/><rect x="350" y="10" width="10" height="10" fill="rgb(23,23,18)"/><rect x="360" y="10" width="10" height="10" fill="rgb(22,23,18)"/><rect x="370" y="10" width="10" height="10" fill="rgb(22,23,18)"/><rect x="380" y="10" width="10" height="10" fill="rgb(22,24,19)"/><rect x="390" y="10" width="10" height="10" fill="rgb(22,23,18)"/><rect x="400" y="10" width="10" height="10" fill="rgb(22,24,19)"/><rect x="410" y="10" width="10" height="10" fill="rgb(22,24,18)"/><rect x="420" y="10" width="10" height="10" fill="rgb(22,23,18)"/><rect x="430" y="10" width="10" height="10" fill="rgb(22,24,19)"/><rect x="440" y="10" width="10" height="10" fill="rgb(22,24,18)"/><rect x="450" y="10" width="10" height="10" fill="rgb(23,24,18)"/><rect x="460" y="10" width="10" height="10" fill="rgb(22,23,18)"/><rect x="470" y="10" width="10" height="10" fill="rgb(22,24,18)"/><rect x="0" y="20" width="10" height="10" fill="rgb(22,24,18)"/><rect x="10" y="20" width="10" height="10" fill="rgb(22,24,19)"/><rect x="20" y="20" width="10" height="10" fill="rgb(22,25,20)"/><rect x="30" y="20" width="10" height="10" fill="rgb(21,26,23)"/><rect x="40" y="20" width="10" height="10" fill="rgb(23,28,27)"/><rect x="50" y="20" width="10" height="10" fill="rgb(23,31,35)"/><rect x="60" y="20" width="10" height="10" fill="rgb(22,33,46)"/><rect x="70" y="20" width="10" height="10" fill="rgb(21,37,65)"/><rect x="80" y="20" width="10" height="10" fill="rgb(21,40,80)"/><rect x="90" y="20" width="10" height="10" fill="rgb(28,64,106)"/><rect x="100" y="20" width="10" height="10" fill="rgb(43,86,144)"/><rect x="110" y="20" width="10" height="10" fill="rgb(61,109,176)"/><rect x="120" y="20" width="10" height="10" fill="rgb(99,139,194)"/><rect x="130" y="20" width="10" height="10" fill="rgb(137,162,205)"/><rect x="140" y="20" width="10" height="10" fill="rgb(171,182,208)"/><rect x="150" y="20" width="10" height="10" fill="rgb(193,193,211)"/><rect x="160" y="20" width="10" height="10" fill="rgb(193,201,218)"/><rect x="170" y="20" width="10" height="10" fill="rgb(184,200,219)"/><rect x="180" y="20" width="10" height="10" fill="rgb(176,198,222)"/><rect x="190" y="20" width="10" height="10" fill="rgb(169,197,224)"/><rect x="200" y="20" width="10" height="10" fill="rgb(165,194,225)"/><rect x="210" y="20" width="10" height="10" fill="rgb(160,192,227)"/><rect x="220" y="20" width="10" height="10" fill="rgb(154,189,228)"/><rect x="230" y="20" width="10" height="10" fill="rgb(149,188,229)"/><rect x="240" y="20" width="10" height="10" fill="rgb(146,185,230)"/><rect x="250" y="20" width="10" height="10" fill="rgb(143,184,232)"/><rect x="260" y="20" width="10" height="10" fill="rgb(141,182,231)"/><rect x="270" y="20" width="10" height="10" fill="rgb(140,180,229)"/><rect x="280" y="20" width="10" height="10" fill="rgb(137,178,230)"/><rect x="290" y="20" width="10" height="10" fill="rgb(136,176,229)"/><rect x="300" y="20" width="10" height="10" fill="rgb(132,175,228)"/><rect x="310" y="20" width="10" height="10" fill="rgb(131,173,227)"/><rect x="320" y="20" width="10" height="10" fill="rgb(128,171,226)"/><rect x="330" y="20" width="10" height="10" fill="rgb(128,171,225)"/><rect x="340" y="20" width="10" height="10" fill="rgb(124,167,223)"/><rect x="350" y="20" width="10" height="10" fill="rgb(124,167,222)"/><rect x="360" y="20" width="10" height="10" fill="rgb(125,164,221)"/><rect x="370" y="20" width="10" height="10" fill="rgb(121,165,222)"/><rect x="380" y="20" width="10" height="10" fill="rgb(118,162,221)"/><rect x="390" y="20" width="10" height="10" fill="rgb(121,160,219)"/><rect x="400" y="20" width="10" height="10" fill="rgb(114,158,217)"/><rect x="410" y="20" width="10" height="10" fill="rgb(118,157,217)"/><rect x="420" y="20" width="10" height="10" fill="rgb(118,157,217)"/><rect x="430" y="20" width="10" height="10" fill="rgb(116,158,217)"/><rect x="440" y="20" width="10" height="10" fill="rgb(116,158,216)"/><rect x="450" y="20" width="10" height="10" fill="rgb(115,157,216)"/><rect x="460" y="20" width="10" height="10" fill="rgb(113,156,216)"/><rect x="470" y="20" width="10" height="10" fill="rgb(114,156,215)"/><rect x="0" y="30" width="10" height="10" fill="rgb(112,154,214)"/><rect x="10" y="30" width="10" height="10" fill="rgb(111,153,214)"/><rect x="20" y="30" width="10" height="10" fill="rgb(111,153,214)"/><rect x="30" y="30" width="10" height="10" fill="rgb(111,153,214)"/><rect x="40" y="30" width="10" height="10" fill="rgb(111,153,214)"/><rect x="50" y="30" width="10" height="10" fill="rgb(111,153,214)"/><rect x="60" y="30" width="10" height="10" fill="rgb(111,153,214)"/><rect x="70" y="30" width="10" height="10" fill="rgb(111,153,214)"/><rect x="80" y="30" width="10" height="10" fill="rgb(109,152,214)"/><rect x="90" y="30" width="10" height="10" fill="rgb(108,151,213)"/><rect x="100" y="30" width="10" height="10" fill="rgb(108,151,214)"/><rect x="110" y="30" width="10" height="10" fill="rgb(109,151,214)"/><rect x="120" y="30" width="10" height="10" fill="rgb(108,151,215)"/><rect x="130" y="30" width="10" height="10" fill="rgb(105,147,211)"/><rect x="140" y="30" width="10" height="10" fill="rgb(104,147,212)"/><rect x="150" y="30" width="10" height="10" fill="rgb(106,148,210)"/><rect x="160" y="30" width="10" height="10" fill="rgb(106,147,211)"/><rect x="170" y="30" width="10" height="10" fill="rgb(107,148,210)"/><rect x="180" y="30" width="10" height="10" fill="rgb(107,149,210)"/><rect x="190" y="30" width="10" height="10" fill="rgb(108,149,211)"/><rect x="200" y="30" width="10" height="10" fill="rgb(109,150,211)"/><rect x="210" y="30" width="10" height="10" fill="rgb(111,150,210)"/><rect x="220" y="30" width="10" height="10" fill="rgb(112,151,211)"/><rect x="230" y="30" width="10" height="10" fill="rgb(114,153,213)"/><rect x="240" y="30" width="10" height="10" fill="rgb(113,152,213)"/><rect x="250" y="30" width="10" height="10" fill="rgb(114,153,213)"/><rect x="260" y="30" width="10" height="10" fill="rgb(115,154,214)"/><rect x="270" y="30" width="10" height="10" fill="rgb(114,153,213)"/><rect x="280" y="30" width="10" height="10" fill="rgb(114,153,213)"/><rect x="290" y="30" width="10" height="10" fill="rgb(115,154,213)"/><rect x="300" y="30" width="10" height="10" fill="rgb(116,155,215)"/><rect x="310" y="30" width="10" height="10" fill="rgb(117,155,214)"/><rect x="320" y="30" width="10" height="10" fill="rgb(119,155,216)"/><rect x="330" y="30" width="10" height="10" fill="rgb(120,156,217)"/><rect x="340" y="30" width="10" height="10" fill="rgb(122,158,218)"/><rect x="350" y="30" width="10" height="10" fill="rgb(122,158,218)"/><rect x="360" y="30" width="10" height="10" fill="rgb(124,159,219)"/><rect x="370" y="30" width="10" height="10" fill="rgb(123,159,219)"/><rect x="380" y="30" width="10" height="10" fill="rgb(123,160,219)"/><rect x="390" y="30" width="10" height="10" fill="rgb(125,160,220)"/><rect x="400" y="30" width="10" height="10" fill="rgb(127,162,220)"/><rect x="410" y="30" width="10" height="10" fill="rgb(128,163,222)"/><rect x="420" y="30" width="10" height="10" fill="rgb(128,164,223)"/><rect x="430" y="30" width="10" height="10" fill="rgb(130,165,222)"/><rect x="440" y="30" width="10" height="10" fill="rgb(131,166,223)"/><rect x="450" y="30" width="10" height="10" fill="rgb(136,167,223)"/><rect x="460" y="30" width="10" height="10" fill="rgb(136,167,223)"/><rect x="470" y="30" width="10" height="10" fill="rgb(138,168,223)"/><rect x="0" y="40" width="10" height="10" fill="rgb(137,168,224)"/><rect x="10" y="40" width="10" height="10" fill="rgb(138,169,224)"/><rect x="20" y="40" width="10" height="10" fill="rgb(138,169,224)"/><rect x="30" y="40" width="10" height="10" fill="rgb(140,170,225)"/><rect x="40" y="40" width="10" height="10" fill="rgb(140,170,226)"/><rect x="50" y="40" width="10" height="10" fill="rgb(139,170,225)"/><rect x="60" y="40" width="10" height="10" fill="rgb(139,170,225)"/><rect x="70" y="40" width="10" height="10" fill="rgb(142,171,227)"/><rect x="80" y="40" width="10" height="10" fill="rgb(142,170,227)"/><rect x="90" y="40" width="10" height="10" fill="rgb(143,171,227)"/><rect x="100" y="40" width="10" height="10" fill="rgb(143,171,229)"/><rect x="110" y="40" width="10" height="10" fill="rgb(144,172,228)"/><rect x="120" y="40" width="10" height="10" fill="rgb(144,173,229)"/><rect x="130" y="40" width="10" height="10" fill="rgb(145,174,229)"/><rect x="140" y="40" width="10" height="10" fill="rgb(145,174,228)"/><rect x="150" y="40" width="10" height="10" fill="rgb(146,174,228)"/><rect x="160" y="40" width="10" height="10" fill="rgb(146,174,228)"/><rect x="170" y="40" width="10" height="10" fill="rgb(146,174,227)"/><rect x="180" y="40" width="10" height="10" fill="rgb(147,175,227)"/><rect x="190" y="40" width="10" height="10" fill="rgb(147,175,227)"/><rect x="200" y="40" width="10" height="10" fill="rgb(148,174,226)"/><rect x="210" y="40" width="10" height="10" fill="rgb(149,174,227)"/><rect x="220" y="40" width="10" height="10" fill="rgb(148,174,226)"/><rect x="230" y="40" width="10" height="10" fill="rgb(150,174,225)"/><rect x="240" y="40" width="10" height="10" fill="rgb(149,173,225)"/><rect x="250" y="40" width="10" height="10" fill="rgb(150,174,224)"/><rect x="260" y="40" width="10" height="10" fill="rgb(150,174,223)"/><rect x="270" y="40" width="10" height="10" fill="rgb(149,174,221)"/><rect x="280" y="40" width="10" height="10" fill="rgb(147,174,219)"/><rect x="290" y="40" width="10" height="10" fill="rgb(146,173,220)"/><rect x="300" y="40" width="10" height="10" fill="rgb(145,172,218)"/><rect x="310" y="40" width="10" height="10" fill="rgb(147,171,219)"/><rect x="320" y="40" width="10" height="10" fill="rgb(141,168,216)"/><rect x="330" y="40" width="10" height="10" fill="rgb(146,171,216)"/><rect x="340" y="40" width="10" height="10" fill="rgb(144,170,213)"/><rect x="350" y="40" width="10" height="10" fill="rgb(143,168,213)"/><rect x="360" y="40" width="10" height="10" fill="rgb(141,169,213)"/><rect x="370" y="40" width="10" height="10" fill="rgb(144,168,211)"/><rect x="380" y="40" width="10" height="10" fill="rgb(143,167,210)"/><rect x="390" y="40" width="10" height="10" fill="rgb(142,166,209)"/><rect x="400" y="40" width="10" height="10" fill="rgb(144,164,206)"/><rect x="410" y="40" width="10" height="10" fill="rgb(140,160,202)"/><rect x="420" y="40" width="10" height="10" fill="rgb(139,159,201)"/><rect x="430" y="40" width="10" height="10" fill="rgb(136,158,202)"/><rect x="440" y="40" width="10" height="10" fill="rgb(134,154,198)"/><rect x="450" y="40" width="10" height="10" fill="rgb(135,153,195)"/><rect x="460" y="40" width="10" height="10" fill="rgb(133,154,196)"/><rect x="470" y="40" width="10" height="10" fill="rgb(131,152,194)"/><rect x="0" y="50" width="10" height="10" fill="rgb(123,148,189)"/><rect x="10" y="50" width="10" height="10" fill="rgb(122,149,189)"/><rect x="20" y="50" width="10" height="10" fill="rgb(125,145,187)"/><rect x="30" y="50" width="10" height="10" fill="rgb(122,142,184)"/><rect x="40" y="50" width="10" height="10" fill="rgb(121,144,185)"/><rect x="50" y="50" width="10" height="10" fill="rgb(121,145,186)"/><rect x="60" y="50" width="10" height="10" fill="rgb(121,141,183)"/><rect x="70" y="50" width="10" height="10" fill="rgb(118,141,181)"/><rect x="80" y="50" width="10" height="10" fill="rgb(119,142,182)"/><rect x="90" y="50" width="10" height="10" fill="rgb(113,138,179)"/><rect x="100" y="50" width="10" height="10" fill="rgb(113,136,177)"/><rect x="110" y="50" width="10" height="10" fill="rgb(113,138,179)"/><rect x="120" y="50" width="10" height="10" fill="rgb(111,136,177)"/><rect x="130" y="50" width="10" height="10" fill="rgb(112,137,180)"/><rect x="140" y="50" width="10" height="10" fill="rgb(109,134,177)"/><rect x="150" y="50" width="10" height="10" fill="rgb(110,134,177)"/><rect x="160" y="50" width="10" height="10" fill="rgb(110,136,179)"/><rect x="170" y="50" width="10" height="10" fill="rgb(107,134,177)"/><rect x="180" y="50" width="10" height="10" fill="rgb(115,140,186)"/><rect x="190" y="50" width="10" height="10" fill="rgb(111,136,181)"/><rect x="200" y="50" width="10" height="10" fill="rgb(108,132,180)"/><rect x="210" y="50" width="10" height="10" fill="rgb(103,131,176)"/><rect x="220" y="50" width="10" height="10" fill="rgb(107,132,176)"/><rect x="230" y="50" width="10" height="10" fill="rgb(103,128,173)"/><rect x="240" y="50" width="10" height="10" fill="rgb(102,131,175)"/><rect x="250" y="50" width="10" height="10" fill="rgb(105,130,176)"/><rect x="260" y="50" width="10" height="10" fill="rgb(105,133,182)"/><rect x="270" y="50" width="10" height="10" fill="rgb(103,131,178)"/><rect x="280" y="50" width="10" height="10" fill="rgb(108,135,182)"/><rect x="290" y="50" width="10" height="10" fill="rgb(103,132,180)"/><rect x="300" y="50" width="10" height="10" fill="rgb(104,135,185)"/><rect x="310" y="50" width="10" height="10" fill="rgb(102,136,187)"/><rect x="320" y="50" width="10" height="10" fill="rgb(104,138,191)"/><rect x="330" y="50" width="10" height="10" fill="rgb(122,148,193)"/><rect x="340" y="50" width="10" height="10" fill="rgb(121,150,194)"/><rect x="350" y="50" width="10" height="10" fill="rgb(125,153,197)"/><rect x="360" y="50" width="10" height="10" fill="rgb(129,158,205)"/><rect x="370" y="50" width="10" height="10" fill="rgb(128,159,205)"/><rect x="380" y="50" width="10" height="10" fill="rgb(129,160,208)"/><rect x="390" y="50" width="10" height="10" fill="rgb(131,165,213)"/><rect x="400" y="50" width="10" height="10" fill="rgb(128,162,210)"/><rect x="410" y="50" width="10" height="10" fill="rgb(129,165,211)"/><rect x="420" y="50" width="10" height="10" fill="rgb(132,166,209)"/><rect x="430" y="50" width="10" height="10" fill="rgb(133,168,208)"/><rect x="440" y="50" width="10" height="10" fill="rgb(137,167,208)"/><rect x="450" y="50" width="10" height="10" fill="rgb(133,164,205)"/><rect x="460" y="50" width="10" height="10" fill="rgb(129,162,207)"/><rect x="470" y="50" width="10" height="10" fill="rgb(121,158,207)"/><rect x="0" y="60" width="10" height="10" fill="rgb(109,154,207)"/><rect x="10" y="60" width="10" height="10" fill="rgb(98,145,202)"/><rect x="20" y="60" width="10" height="10" fill="rgb(91,138,196)"/><rect x="30" y="60" width="10" height="10" fill="rgb(69,118,176)"/><rect x="40" y="60" width="10" height="10" fill="rgb(55,91,141)"/><rect x="50" y="60" width="10" height="10" fill="rgb(40,62,98)"/><rect x="60" y="60" width="10" height="10" fill="rgb(27,42,71)"/><rect x="70" y="60" width="10" height="10" fill="rgb(15,31,45)"/><rect x="80" y="60" width="10" height="10" fill="rgb(17,27,35)"/><rect x="90" y="60" width="10" height="10" fill="rgb(21,26,30)"/><rect x="100" y="60" width="10" height="10" fill="rgb(21,26,25)"/><rect x="110" y="60" width="10" height="10" fill="rgb(20,25,23)"/><rect x="120" y="60" width="10" height="10" fill="rgb(22,24,21)"/><rect x="130" y="60" width="10" height="10" fill="rgb(21,23,20)"/><rect x="140" y="60" width="10" height="10" fill="rgb(21,23,19)"/><rect x="150" y="60" width="10" height="10" fill="rgb(21,23,19)"/><rect x="160" y="60" width="10" height="10" fill="rgb(22,23,19)"/><rect x="170" y="60" width="10" height="10" fill="rgb(22,23,19)"/><rect x="180" y="60" width="10" height="10" fill="rgb(22,23,19)"/><rect x="190" y="60" width="10" height="10" fill="rgb(21,23,18)"/><rect x="200" y="60" width="10" height="10" fill="rgb(22,23,18)"/><rect x="210" y="60" width="10" height="10" fill="rgb(21,23,18)"/><rect x="220" y="60" width="10" height="10" fill="rgb(22,23,19)"/><rect x="230" y="60" width="10" height="10" fill="rgb(22,23,19)"/><rect x="240" y="60" width="10" height="10" fill="rgb(22,23,18)"/></svg>