<svg xmlns="http://www.w3.org/2000/svg" width="480" height="20"><rect x="0" y="0" width="10" height="10" fill="rgb(169,179,202)"/><rect x="10" y="0" width="10" height="10" fill="rgb(173,181,201)"/><rect x="20" y="0" width="10" height="10" fill="rgb(174,181,198)"/><rect x="30" y="0" width="10" height="10" fill="rgb(195,200,208)"/><rect x="40" y="0" width="10" height="10" fill="rgb(181,196,215)"/><rect x="50" y="0" width="10" height="10" fill="rgb(167,191,217)"/><rect x="60" y="0" width="10" height="10" fill="rgb(151,185,219)"/><rect x="70" y="0" width="10" height="10" fill="rgb(131,172,214)"/><rect x="80" y="0" width="10" height="10" fill="rgb(110,154,202)"/><rect x="90" y="0" width="10" height="10" fill="rgb(86,124,167)"/><rect x="100" y="0" width="10" height="10" fill="rgb(66,98,136)"/><rect x="110" y="0" width="10" height="10" fill="rgb(49,73,104)"/><rect x="120" y="0" width="10" height="10" fill="rgb(41,56,76)"/><rect x="130" y="0" width="10" height="10" fill="rgb(36,47,58)"/><rect x="140" y="0" width="10" height="10" fill="rgb(35,43,48)"/><rect x="150" y="0" width="10" height="10" fill="rgb(35,40,42)"/><rect x="160" y="0" width="10" height="10" fill="rgb(35,40,37)"/><rect x="170" y="0" width="10" height="10" fill="rgb(34,39,36)"/><rect x="180" y="0" width="10" height="10" fill="rgb(34,39,35)"/><rect x="190" y="0" width="10" height="10" fill="rgb(34,38,35)"/><rect x="200" y="0" width="10" height="10" fill="rgb(34,38,34)"/><rect x="210" y="0" width="10" height="10" fill="rgb(34,38,34)"/><rect x="220" y="0" width="10" height="10" fill="rgb(34,38,34)"/><rect x="230" y="0" width="10" height="10" fill="rgb(34,38,34)"/><rect x="240" y="0" width="10" height="10" fill="rgb(34,38,34)"/><rect x="250" y="0" width="10" height="10" fill="rgb(34,38,34)"/><rect x="260" y="0" width="10" height="10" fill="rgb(34,38,34)"/><rect x="270" y="0" width="10" height="10" fill="rgb(34,38,33)"/><rect x="280" y="0" width="10" height="10" fill="rgb(33,37,32)"/><rect x="290" y="0" width="10" height="10" fill="rgb(33,37,31)"/><rect x="300" y="0" width="10" height="10" fill="rgb(33,37,31)"/><rect x="310" y="0" width="10" height="10" fill="rgb(33,38,31)"/><rect x="320" y="0" width="10" height="10" fill="rgb(33,37,31)"/><rect x="330" y="0" width="10" height="10" fill="rgb(33,37,31)"/><rect x="340" y="0" width="10" height="10" fill="rgb(33,37,31)"/><rect x="350" y="0" width="10" height="10" fill="rgb(32,37,31)"/><rect x="360" y="0" width="10" height="10" fill="rgb(33,37,31)"/><rect x="370" y="0" width="10" height="10" fill="rgb(33,37,31)"/><rect x="380" y="0" width="10" height="10" fill="rgb(32,37,31)"/><rect x="390" y="0" width="10" height="10" fill="rgb(32,37,31)"/><rect x="400" y="0" width="10" height="10" fill="rgb(32,36,30)"/><rect x="410" y="0" width="10" height="10" fill="rgb(32,36,30)"/><rect x="420" y="0" width="10" height="10" fill="rgb(32,36,31)"/><rect x="430" y="0" width="10" height="10" fill="rgb(32,36,30)"/><rect x="440" y="0" width="10" height="10" fill="rgb(32,36,30)"/><rect x="450" y="0" width="10" height="10" fill="rgb(32,36,30)"/><rect x="460" y="0" width="10" height="10" fill="rgb(32,36,30)"/><rect x="470" y="0" width="10" height="10" fill="rgb(32,36,29)"/><rect x="0" y="10" width="10" height="10" fill="rgb(32,36,31)"/><rect x="10" y="10" width="10" height="10" fill="rgb(32,36,30)"/><rect x="20" y="10" width="10" height="10" fill="rgb(32,36,30)"/></svg>