<svg xmlns="http://www.w3.org/2000/svg" width="480" height="70"><rect x="0" y="0" width="10" height="10" fill="rgb(160,160,186)"/><rect x="10" y="0" width="10" height="10" fill="rgb(120,153,219)"/><rect x="20" y="0" width="10" height="10" fill="rgb(110,136,199)"/><rect x="30" y="0" width="10" height="10" fill="rgb(155,154,175)"/><rect x="40" y="0" width="10" height="10" fill="rgb(101,128,185)"/><rect x="50" y="0" width="10" height="10" fill="rgb(127,140,182)"/><rect x="60" y="0" width="10" height="10" fill="rgb(125,140,181)"/><rect x="70" y="0" width="10" height="10" fill="rgb(154,156,180)"/><rect x="80" y="0" width="10" height="10" fill="rgb(109,132,184)"/><rect x="90" y="0" width="10" height="10" fill="rgb(142,147,178)"/><rect x="100" y="0" width="10" height="10" fill="rgb(126,138,178)"/><rect x="110" y="0" width="10" height="10" fill="rgb(127,139,180)"/><rect x="120" y="0" width="10" height="10" fill="rgb(94,123,181)"/><rect x="130" y="0" width="10" height="10" fill="rgb(83,117,185)"/><rect x="140" y="0" width="10" height="10" fill="rgb(86,119,183)"/><rect x="150" y="0" width="10" height="10" fill="rgb(83,119,185)"/><rect x="160" y="0" width="10" height="10" fill="rgb(106,130,184)"/><rect x="170" y="0" width="10" height="10" fill="rgb(103,127,184)"/><rect x="180" y="0" width="10" height="10" fill="rgb(96,125,184)"/><rect x="190" y="0" width="10" height="10" fill="rgb(85,121,184)"/><rect x="200" y="0" width="10" height="10" fill="rgb(86,122,186)"/><rect x="210" y="0" width="10" height="10" fill="rgb(87,122,185)"/><rect x="220" y="0" width="10" height="10" fill="rgb(88,123,186)"/><rect x="230" y="0" width="10" height="10" fill="rgb(97,127,187)"/><rect x="240" y="0" width="10" height="10" fill="rgb(121,138,186)"/><rect x="250" y="0" width="10" height="10" fill="rgb(185,178,188)"/><rect x="260" y="0" width="10" height="10" fill="rgb(187,180,192)"/><rect x="270" y="0" width="10" height="10" fill="rgb(197,187,192)"/><rect x="280" y="0" width="10" height="10" fill="rgb(173,171,184)"/><rect x="290" y="0" width="10" height="10" fill="rgb(193,189,202)"/><rect x="300" y="0" width="10" height="10" fill="rgb(191,183,195)"/><rect x="310" y="0" width="10" height="10" fill="rgb(167,166,182)"/><rect x="320" y="0" width="10" height="10" fill="rgb(144,144,165)"/><rect x="330" y="0" width="10" height="10" fill="rgb(162,161,174)"/><rect x="340" y="0" width="10" height="10" fill="rgb(171,169,183)"/><rect x="350" y="0" width="10" height="10" fill="rgb(171,169,184)"/><rect x="360" y="0" width="10" height="10" fill="rgb(167,165,183)"/><rect x="370" y="0" width="10" height="10" fill="rgb(167,169,190)"/><rect x="380" y="0" width="10" height="10" fill="rgb(198,186,195)"/><rect x="390" y="0" width="10" height="10" fill="rgb(178,176,196)"/><rect x="400" y="0" width="10" height="10" fill="rgb(164,173,200)"/><rect x="410" y="0" width="10" height="10" fill="rgb(162,169,203)"/><rect x="420" y="0" width="10" height="10" fill="rgb(186,179,191)"/><rect x="430" y="0" width="10" height="10" fill="rgb(154,152,168)"/><rect x="440" y="0" width="10" height="10" fill="rgb(148,145,162)"/><rect x="450" y="0" width="10" height="10" fill="rgb(137,133,149)"/><rect x="460" y="0" width="10" height="10" fill="rgb(121,121,142)"/><rect x="470" y="0" width="10" height="10" fill="rgb(145,143,160)"/><rect x="0" y="10" width="10" height="10" fill="rgb(184,175,186)"/><rect x="10" y="10" width="10" height="10" fill="rgb(176,171,185)"/><rect x="20" y="10" width="10" height="10" fill="rgb(186,187,212)"/><rect x="30" y="10" width="10" height="10" fill="rgb(156,171,212)"/><rect x="40" y="10" width="10" height="10" fill="rgb(154,172,216)"/><rect x="50" y="10" width="10" height="10" fill="rgb(158,176,221)"/><rect x="60" y="10" width="10" height="10" fill="rgb(162,185,230)"/><rect x="70" y="10" width="10" height="10" fill="rgb(161,179,223)"/><rect x="80" y="10" width="10" height="10" fill="rgb(163,181,224)"/><rect x="90" y="10" width="10" height="10" fill="rgb(168,184,226)"/><rect x="100" y="10" width="10" height="10" fill="rgb(167,183,226)"/><rect x="110" y="10" width="10" height="10" fill="rgb(171,185,227)"/><rect x="120" y="10" width="10" height="10" fill="rgb(173,188,228)"/><rect x="130" y="10" width="10" height="10" fill="rgb(180,192,226)"/><rect x="140" y="10" width="10" height="10" fill="rgb(188,196,226)"/><rect x="150" y="10" width="10" height="10" fill="rgb(180,191,225)"/><rect x="160" y="10" width="10" height="10" fill="rgb(185,195,229)"/><rect x="170" y="10" width="10" height="10" fill="rgb(193,200,230)"/><rect x="180" y="10" width="10" height="10" fill="rgb(204,206,232)"/><rect x="190" y="10" width="10" height="10" fill="rgb(219,218,241)"/><rect x="200" y="10" width="10" height="10" fill="rgb(229,226,245)"/><rect x="210" y="10" width="10" height="10" fill="rgb(242,239,252)"/><rect x="220" y="10" width="10" height="10" fill="rgb(249,246,255)"/><rect x="230" y="10" width="10" height="10" fill="rgb(254,248,254)"/><rect x="240" y="10" width="10" height="10" fill="rgb(255,251,255)"/><rect x="250" y="10" width="10" height="10" fill="rgb(255,254,255)"/><rect x="260" y="10" width="10" height="10" fill="rgb(255,253,253)"/><rect x="270" y="10" width="10" height="10" fill="rgb(255,253,253)"/><rect x="280" y="10" width="10" height="10" fill="rgb(255,254,254)"/><rect x="290" y="10" width="10" height="10" fill="rgb(255,254,253)"/><rect x="300" y="10" width="10" height="10" fill="rgb(254,252,251)"/><rect x="310" y="10" width="10" height="10" fill="rgb(255,254,253)"/><rect x="320" y="10" width="10" height="10" fill="rgb(255,253,252)"/><rect x="330" y="10" width="10" height="10" fill="rgb(255,252,251)"/><rect x="340" y="10" width="10" height="10" fill="rgb(253,249,249)"/><rect x="350" y="10" width="10" height="10" fill="rgb(248,243,246)"/><rect x="360" y="10" width="10" height="10" fill="rgb(237,233,238)"/><rect x="370" y="10" width="10" height="10" fill="rgb(223,221,228)"/><rect x="380" y="10" width="10" height="10" fill="rgb(213,213,223)"/><rect x="390" y="10" width="10" height="10" fill="rgb(207,208,219)"/><rect x="400" y="10" width="10" height="10" fill="rgb(200,204,218)"/><rect x="410" y="10" width="10" height="10" fill="rgb(195,199,215)"/><rect x="420" y="10" width="10" height="10" fill="rgb(187,194,213)"/><rect x="430" y="10" width="10" height="10" fill="rgb(179,189,209)"/><rect x="440" y="10" width="10" height="10" fill="rgb(172,182,205)"/><rect x="450" y="10" width="10" height="10" fill="rgb(171,181,204)"/><rect x="460" y="10" width="10" height="10" fill="rgb(172,181,202)"/><rect x="470" y="10" width="10" height="10" fill="rgb(167,180,204)"/><rect x="0" y="20" width="10" height="10" fill="rgb(165,182,209)"/><rect x="10" y="20" width="10" height="10" fill="rgb(171,182,203)"/><rect x="20" y="20" width="10" height="10" fill="rgb(166,183,205)"/><rect x="30" y="20" width="10" height="10" fill="rgb(165,182,207)"/><rect x="40" y="20" width="10" height="10" fill="rgb(185,190,200)"/><rect x="50" y="20" width="10" height="10" fill="rgb(195,193,197)"/><rect x="60" y="20" width="10" height="10" fill="rgb(195,194,198)"/><rect x="70" y="20" width="10" height="10" fill="rgb(197,194,196)"/><rect x="80" y="20" width="10" height="10" fill="rgb(205,197,195)"/><rect x="90" y="20" width="10" height="10" fill="rgb(205,198,198)"/><rect x="100" y="20" width="10" height="10" fill="rgb(207,196,198)"/><rect x="110" y="20" width="10" height="10" fill="rgb(202,193,197)"/><rect x="120" y="20" width="10" height="10" fill="rgb(198,189,194)"/><rect x="130" y="20" width="10" height="10" fill="rgb(184,178,192)"/><rect x="140" y="20" width="10" height="10" fill="rgb(159,167,191)"/><rect x="150" y="20" width="10" height="10" fill="rgb(112,148,201)"/><rect x="160" y="20" width="10" height="10" fill="rgb(80,131,203)"/><rect x="170" y="20" width="10" height="10" fill="rgb(69,120,203)"/><rect x="180" y="20" width="10" height="10" fill="rgb(68,68,68)"/><rect x="190" y="20" width="10" height="10" fill="rgb(47,47,47)"/><rect x="200" y="20" width="10" height="10" fill="rgb(23,23,23)"/><rect x="210" y="20" width="10" height="10" fill="rgb(7,7,7)"/><rect x="220" y="20" width="10" height="10" fill="rgb(0,0,0)"/><rect x="230" y="20" width="10" height="10" fill="rgb(0,0,0)"/><rect x="240" y="20" width="10" height="10" fill="rgb(0,0,0)"/><rect x="250" y="20" width="10" height="10" fill="rgb(0,0,0)"/><rect x="260" y="20" width="10" height="10" fill="rgb(0,0,0)"/><rect x="270" y="20" width="10" height="10" fill="rgb(0,0,0)"/><rect x="280" y="20" width="10" height="10" fill="rgb(0,0,0)"/><rect x="290" y="20" width="10" height="10" fill="rgb(0,0,0)"/><rect x="300" y="20" width="10" height="10" fill="rgb(0,0,0)"/><rect x="310" y="20" width="10" height="10" fill="rgb(0,0,0)"/><rect x="320" y="20" width="10" height="10" fill="rgb(0,0,0)"/><rect x="330" y="20" width="10" height="10" fill="rgb(0,0,0)"/><rect x="340" y="20" width="10" height="10" fill="rgb(0,0,0)"/><rect x="350" y="20" width="10" height="10" fill="rgb(0,0,0)"/><rect x="360" y="20" width="10" height="10" fill="rgb(0,0,0)"/><rect x="370" y="20" width="10" height="10" fill="rgb(0,0,0)"/><rect x="380" y="20" width="10" height="10" fill="rgb(0,0,0)"/><rect x="390" y="20" width="10" height="10" fill="rgb(0,0,0)"/><rect x="400" y="20" width="10" height="10" fill="rgb(0,0,0)"/><rect x="410" y="20" width="10" height="10" fill="rgb(0,0,0)"/><rect x="420" y="20" width="10" height="10" fill="rgb(0,0,0)"/><rect x="430" y="20" width="10" height="10" fill="rgb(0,0,0)"/><rect x="440" y="20" width="10" height="10" fill="rgb(0,0,0)"/><rect x="450" y="20" width="10" height="10" fill="rgb(0,0,0)"/><rect x="460" y="20" width="10" height="10" fill="rgb(0,0,0)"/><rect x="470" y="20" width="10" height="10" fill="rgb(0,0,0)"/><rect x="0" y="30" width="10" height="10" fill="rgb(0,0,0)"/><rect x="10" y="30" width="10" height="10" fill="rgb(0,0,0)"/><rect x="20" y="30" width="10" height="10" fill="rgb(0,0,0)"/><rect x="30" y="30" width="10" height="10" fill="rgb(0,0,0)"/><rect x="40" y="30" width="10" height="10" fill="rgb(0,0,0)"/><rect x="50" y="30" width="10" height="10" fill="rgb(0,0,0)"/><rect x="60" y="30" width="10" height="10" fill="rgb(0,0,0)"/><rect x="70" y="30" width="10" height="10" fill="rgb(0,0,0)"/><rect x="80" y="30" width="10" height="10" fill="rgb(0,0,0)"/><rect x="90" y="30" width="10" height="10" fill="rgb(0,0,0)"/><rect x="100" y="30" width="10" height="10" fill="rgb(0,0,0)"/><rect x="110" y="30" width="10" height="10" fill="rgb(0,0,0)"/><rect x="120" y="30" width="10" height="10" fill="rgb(0,0,0)"/><rect x="130" y="30" width="10" height="10" fill="rgb(0,0,0)"/><rect x="140" y="30" width="10" height="10" fill="rgb(0,0,0)"/><rect x="150" y="30" width="10" height="10" fill="rgb(0,0,0)"/><rect x="160" y="30" width="10" height="10" fill="rgb(0,0,0)"/><rect x="170" y="30" width="10" height="10" fill="rgb(0,0,0)"/><rect x="180" y="30" width="10" height="10" fill="rgb(0,0,0)"/><rect x="190" y="30" width="10" height="10" fill="rgb(0,0,0)"/><rect x="200" y="30" width="10" height="10" fill="rgb(0,0,0)"/><rect x="210" y="30" width="10" height="10" fill="rgb(0,0,0)"/><rect x="220" y="30" width="10" height="10" fill="rgb(0,0,0)"/><rect x="230" y="30" width="10" height="10" fill="rgb(0,0,0)"/><rect x="240" y="30" width="10" height="10" fill="rgb(0,0,0)"/><rect x="250" y="30" width="10" height="10" fill="rgb(0,0,0)"/><rect x="260" y="30" width="10" height="10" fill="rgb(0,0,0)"/><rect x="270" y="30" width="10" height="10" fill="rgb(0,0,0)"/><rect x="280" y="30" width="10" height="10" fill="rgb(0,0,0)"/><rect x="290" y="30" width="10" height="10" fill="rgb(0,0,0)"/><rect x="300" y="30" width="10" height="10" fill="rgb(0,0,0)"/><rect x="310" y="30" width="10" height="10" fill="rgb(0,0,0)"/><rect x="320" y="30" width="10" height="10" fill="rgb(0,0,0)"/><rect x="330" y="30" width="10" height="10" fill="rgb(0,0,0)"/><rect x="340" y="30" width="10" height="10" fill="rgb(0,0,0)"/><rect x="350" y="30" width="10" height="10" fill="rgb(0,0,0)"/><rect x="360" y="30" width="10" height="10" fill="rgb(0,0,0)"/><rect x="370" y="30" width="10" height="10" fill="rgb(0,0,0)"/><rect x="380" y="30" width="10" height="10" fill="rgb(0,0,0)"/><rect x="390" y="30" width="10" height="10" fill="rgb(0,0,0)"/><rect x="400" y="30" width="10" height="10" fill="rgb(0,0,0)"/><rect x="410" y="30" width="10" height="10" fill="rgb(0,0,0)"/><rect x="420" y="30" width="10" height="10" fill="rgb(0,0,0)"/><rect x="430" y="30" width="10" height="10" fill="rgb(0,0,0)"/><rect x="440" y="30" width="10" height="10" fill="rgb(0,0,0)"/><rect x="450" y="30" width="10" height="10" fill="rgb(0,0,0)"/><rect x="460" y="30" width="10" height="10" fill="rgb(0,0,0)"/><rect x="470" y="30" width="10" height="10" fill="rgb(0,0,0)"/><rect x="0" y="40" width="10" height="10" fill="rgb(0,0,0)"/><rect x="10" y="40" width="10" height="10" fill="rgb(0,0,0)"/><rect x="20" y="40" width="10" height="10" fill="rgb(0,0,0)"/><rect x="30" y="40" width="10" height="10" fill="rgb(0,0,0)"/><rect x="40" y="40" width="10" height="10" fill="rgb(0,0,0)"/><rect x="50" y="40" width="10" height="10" fill="rgb(0,0,0)"/><rect x="60" y="40" width="10" height="10" fill="rgb(0,0,0)"/><rect x="70" y="40" width="10" height="10" fill="rgb(0,0,0)"/><rect x="80" y="40" width="10" height="10" fill="rgb(0,0,0)"/><rect x="90" y="40" width="10" height="10" fill="rgb(0,0,0)"/><rect x="100" y="40" width="10" height="10" fill="rgb(0,0,0)"/><rect x="110" y="40" width="10" height="10" fill="rgb(0,0,0)"/><rect x="120" y="40" width="10" height="10" fill="rgb(0,0,0)"/><rect x="130" y="40" width="10" height="10" fill="rgb(0,0,0)"/><rect x="140" y="40" width="10" height="10" fill="rgb(0,0,0)"/><rect x="150" y="40" width="10" height="10" fill="rgb(0,0,0)"/><rect x="160" y="40" width="10" height="10" fill="rgb(0,0,0)"/><rect x="170" y="40" width="10" height="10" fill="rgb(0,0,0)"/><rect x="180" y="40" width="10" height="10" fill="rgb(0,0,0)"/><rect x="190" y="40" width="10" height="10" fill="rgb(4,4,4)"/><rect x="200" y="40" width="10" height="10" fill="rgb(27,27,27)"/><rect x="210" y="40" width="10" height="10" fill="rgb(63,63,63)"/><rect x="220" y="40" width="10" height="10" fill="rgb(77,77,77)"/><rect x="230" y="40" width="10" height="10" fill="rgb(94,94,94)"/><rect x="240" y="40" width="10" height="10" fill="rgb(111,111,111)"/><rect x="250" y="40" width="10" height="10" fill="rgb(128,128,128)"/><rect x="260" y="40" width="10" height="10" fill="rgb(136,136,136)"/><rect x="270" y="40" width="10" height="10" fill="rgb(148,148,148)"/><rect x="280" y="40" width="10" height="10" fill="rgb(161,161,161)"/><rect x="290" y="40" width="10" height="10" fill="rgb(152,155,181)"/><rect x="300" y="40" width="10" height="10" fill="rgb(158,158,184)"/><rect x="310" y="40" width="10" height="10" fill="rgb(156,157,184)"/><rect x="320" y="40" width="10" height="10" fill="rgb(157,162,192)"/><rect x="330" y="40" width="10" height="10" fill="rgb(161,168,200)"/><rect x="340" y="40" width="10" height="10" fill="rgb(165,168,197)"/><rect x="350" y="40" width="10" height="10" fill="rgb(159,162,192)"/><rect x="360" y="40" width="10" height="10" fill="rgb(156,161,192)"/><rect x="370" y="40" width="10" height="10" fill="rgb(165,166,190)"/><rect x="380" y="40" width="10" height="10" fill="rgb(165,167,195)"/><rect x="390" y="40" width="10" height="10" fill="rgb(169,169,193)"/><rect x="400" y="40" width="10" height="10" fill="rgb(172,173,202)"/><rect x="410" y="40" width="10" height="10" fill="rgb(170,174,203)"/><rect x="420" y="40" width="10" height="10" fill="rgb(172,170,195)"/><rect x="430" y="40" width="10" height="10" fill="rgb(164,164,191)"/><rect x="440" y="40" width="10" height="10" fill="rgb(167,167,192)"/><rect x="450" y="40" width="10" height="10" fill="rgb(164,165,192)"/><rect x="460" y="40" width="10" height="10" fill="rgb(160,164,194)"/><rect x="470" y="40" width="10" height="10" fill="rgb(176,176,202)"/><rect x="0" y="50" width="10" height="10" fill="rgb(166,169,198)"/><rect x="10" y="50" width="10" height="10" fill="rgb(167,169,198)"/><rect x="20" y="50" width="10" height="10" fill="rgb(167,166,188)"/><rect x="30" y="50" width="10" height="10" fill="rgb(157,160,189)"/><rect x="40" y="50" width="10" height="10" fill="rgb(170,170,195)"/><rect x="50" y="50" width="10" height="10" fill="rgb(170,170,196)"/><rect x="60" y="50" width="10" height="10" fill="rgb(174,172,195)"/><rect x="70" y="50" width="10" height="10" fill="rgb(169,170,199)"/><rect x="80" y="50" width="10" height="10" fill="rgb(135,160,214)"/><rect x="90" y="50" width="10" height="10" fill="rgb(117,145,207)"/><rect x="100" y="50" width="10" height="10" fill="rgb(114,143,206)"/><rect x="110" y="50" width="10" height="10" fill="rgb(110,144,209)"/><rect x="120" y="50" width="10" height="10" fill="rgb(106,144,214)"/><rect x="130" y="50" width="10" height="10" fill="rgb(94,135,210)"/><rect x="140" y="50" width="10" height="10" fill="rgb(96,134,207)"/><rect x="150" y="50" width="10" height="10" fill="rgb(92,131,206)"/><rect x="160" y="50" width="10" height="10" fill="rgb(90,129,203)"/><rect x="170" y="50" width="10" height="10" fill="rgb(91,129,203)"/><rect x="180" y="50" width="10" height="10" fill="rgb(88,126,200)"/><rect x="190" y="50" width="10" height="10" fill="rgb(87,125,199)"/><rect x="200" y="50" width="10" height="10" fill="rgb(86,123,191)"/><rect x="210" y="50" width="10" height="10" fill="rgb(92,127,193)"/><rect x="220" y="50" width="10" height="10" fill="rgb(90,125,193)"/><rect x="230" y="50" width="10" height="10" fill="rgb(97,128,190)"/><rect x="240" y="50" width="10" height="10" fill="rgb(99,127,190)"/><rect x="250" y="50" width="10" height="10" fill="rgb(87,124,193)"/><rect x="260" y="50" width="10" height="10" fill="rgb(85,122,190)"/><rect x="270" y="50" width="10" height="10" fill="rgb(90,123,188)"/><rect x="280" y="50" width="10" height="10" fill="rgb(85,120,185)"/><rect x="290" y="50" width="10" height="10" fill="rgb(85,120,186)"/><rect x="300" y="50" width="10" height="10" fill="rgb(84,122,185)"/><rect x="310" y="50" width="10" height="10" fill="rgb(85,121,184)"/><rect x="320" y="50" width="10" height="10" fill="rgb(81,119,183)"/><rect x="330" y="50" width="10" height="10" fill="rgb(80,117,182)"/><rect x="340" y="50" width="10" height="10" fill="rgb(89,123,186)"/><rect x="350" y="50" width="10" height="10" fill="rgb(93,126,189)"/><rect x="360" y="50" width="10" height="10" fill="rgb(82,117,178)"/><rect x="370" y="50" width="10" height="10" fill="rgb(87,116,178)"/><rect x="380" y="50" width="10" height="10" fill="rgb(85,115,179)"/><rect x="390" y="50" width="10" height="10" fill="rgb(88,115,177)"/><rect x="400" y="50" width="10" height="10" fill="rgb(88,116,178)"/><rect x="410" y="50" width="10" height="10" fill="rgb(89,116,177)"/><rect x="420" y="50" width="10" height="10" fill="rgb(93,120,178)"/><rect x="430" y="50" width="10" height="10" fill="rgb(95,119,175)"/><rect x="440" y="50" width="10" height="10" fill="rgb(96,120,174)"/><rect x="450" y="50" width="10" height="10" fill="rgb(97,120,173)"/><rect x="460" y="50" width="10" height="10" fill="rgb(95,120,175)"/><rect x="470" y="50" width="10" height="10" fill="rgb(95,119,173)"/><rect x="0" y="60" width="10" height="10" fill="rgb(95,119,172)"/><rect x="10" y="60" width="10" height="10" fill="rgb(96,119,172)"/><rect x="20" y="60" width="10" height="10" fill="rgb(100,122,173)"/><rect x="30" y="60" width="10" height="10" fill="rgb(107,127,173)"/><rect x="40" y="60" width="10" height="10" fill="rgb(111,127,174)"/><rect x="50" y="60" width="10" height="10" fill="rgb(111,128,175)"/><rect x="60" y="60" width="10" height="10" fill="rgb(113,130,175)"/><rect x="70" y="60" width="10" height="10" fill="rgb(125,139,177)"/><rect x="80" y="60" width="10" height="10" fill="rgb(134,145,177)"/><rect x="90" y="60" width="10" height="10" fill="rgb(137,144,177)"/><rect x="100" y="60" width="10" height="10" fill="rgb(132,141,176)"/><rect x="110" y="60" width="10" height="10" fill="rgb(136,143,177)"/><rect x="120" y="60" width="10" height="10" fill="rgb(141,146,178)"/><rect x="130" y="60" width="10" height="10" fill="rgb(146,151,180)"/><rect x="140" y="60" width="10" height="10" fill="rgb(145,151,180)"/><rect x="150" y="60" width="10" height="10" fill="rgb(131,142,180)"/><rect x="160" y="60" width="10" height="10" fill="rgb(131,143,179)"/><rect x="170" y="60" width="10" height="10" fill="rgb(129,143,184)"/><rect x="180" y="60" width="10" height="10" fill="rgb(134,146,184)"/><rect x="190" y="60" width="10" height="10" fill="rgb(132,145,185)"/><rect x="200" y="60" width="10" height="10" fill="rgb(128,142,185)"/><rect x="210" y="60" width="10" height="10" fill="rgb(134,147,187)"/></svg>