<svg xmlns="http://www.w3.org/2000/svg" width="100" height="270"><rect x="0" y="0" width="10" height="10" fill="rgb(113,141,180)"/><rect x="10" y="0" width="10" height="10" fill="rgb(115,142,180)"/><rect x="20" y="0" width="10" height="10" fill="rgb(117,143,179)"/><rect x="30" y="0" width="10" height="10" fill="rgb(116,143,181)"/><rect x="40" y="0" width="10" height="10" fill="rgb(118,144,179)"/><rect x="50" y="0" width="10" height="10" fill="rgb(120,144,179)"/><rect x="60" y="0" width="10" height="10" fill="rgb(126,145,173)"/><rect x="70" y="0" width="10" height="10" fill="rgb(128,145,170)"/><rect x="80" y="0" width="10" height="10" fill="rgb(129,143,162)"/><rect x="90" y="0" width="10" height="10" fill="rgb(133,142,153)"/><rect x="0" y="10" width="10" height="10" fill="rgb(129,136,149)"/><rect x="10" y="10" width="10" height="10" fill="rgb(133,140,150)"/><rect x="20" y="10" width="10" height="10" fill="rgb(140,148,158)"/><rect x="30" y="10" width="10" height="10" fill="rgb(149,157,165)"/><rect x="40" y="10" width="10" height="10" fill="rgb(149,153,158)"/><rect x="50" y="10" width="10" height="10" fill="rgb(154,153,152)"/><rect x="60" y="10" width="10" height="10" fill="rgb(159,155,152)"/><rect x="70" y="10" width="10" height="10" fill="rgb(170,160,151)"/><rect x="80" y="10" width="10" height="10" fill="rgb(158,158,161)"/><rect x="90" y="10" width="10" height="10" fill="rgb(157,153,152)"/><rect x="0" y="20" width="10" height="10" fill="rgb(157,158,168)"/><rect x="10" y="20" width="10" height="10" fill="rgb(145,147,159)"/><rect x="20" y="20" width="10" height="10" fill="rgb(161,161,167)"/><rect x="30" y="20" width="10" height="10" fill="rgb(167,165,169)"/><rect x="40" y="20" width="10" height="10" fill="rgb(183,173,169)"/><rect x="50" y="20" width="10" height="10" fill="rgb(179,169,165)"/><rect x="60" y="20" width="10" height="10" fill="rgb(166,162,161)"/><rect x="70" y="20" width="10" height="10" fill="rgb(189,188,195)"/><rect x="80" y="20" width="10" height="10" fill="rgb(174,174,183)"/><rect x="90" y="20" width="10" height="10" fill="rgb(167,167,175)"/><rect x="0" y="30" width="10" height="10" fill="rgb(163,161,163)"/><rect x="10" y="30" width="10" height="10" fill="rgb(141,143,153)"/><rect x="20" y="30" width="10" height="10" fill="rgb(141,141,149)"/><rect x="30" y="30" width="10" height="10" fill="rgb(137,151,173)"/><rect x="40" y="30" width="10" height="10" fill="rgb(157,163,182)"/><rect x="50" y="30" width="10" height="10" fill="rgb(164,169,181)"/><rect x="60" y="30" width="10" height="10" fill="rgb(159,164,176)"/><rect x="70" y="30" width="10" height="10" fill="rgb(168,171,181)"/><rect x="80" y="30" width="10" height="10" fill="rgb(174,180,188)"/><rect x="90" y="30" width="10" height="10" fill="rgb(211,210,222)"/><rect x="0" y="40" width="10" height="10" fill="rgb(217,217,232)"/><rect x="10" y="40" width="10" height="10" fill="rgb(204,204,218)"/><rect x="20" y="40" width="10" height="10" fill="rgb(203,203,217)"/><rect x="30" y="40" width="10" height="10" fill="rgb(208,218,237)"/><rect x="40" y="40" width="10" height="10" fill="rgb(193,202,221)"/><rect x="50" y="40" width="10" height="10" fill="rgb(179,190,214)"/><rect x="60" y="40" width="10" height="10" fill="rgb(179,196,223)"/><rect x="70" y="40" width="10" height="10" fill="rgb(174,201,232)"/><rect x="80" y="40" width="10" height="10" fill="rgb(157,187,228)"/><rect x="90" y="40" width="10" height="10" fill="rgb(142,182,223)"/><rect x="0" y="50" width="10" height="10" fill="rgb(155,191,241)"/><rect x="10" y="50" width="10" height="10" fill="rgb(114,166,227)"/><rect x="20" y="50" width="10" height="10" fill="rgb(77,130,208)"/><rect x="30" y="50" width="10" height="10" fill="rgb(69,114,181)"/><rect x="40" y="50" width="10" height="10" fill="rgb(68,103,168)"/><rect x="50" y="50" width="10" height="10" fill="rgb(73,109,164)"/><rect x="60" y="50" width="10" height="10" fill="rgb(65,99,163)"/><rect x="70" y="50" width="10" height="10" fill="rgb(83,83,83)"/><rect x="80" y="50" width="10" height="10" fill="rgb(66,66,66)"/><rect x="90" y="50" width="10" height="10" fill="rgb(55,55,55)"/><rect x="0" y="60" width="10" height="10" fill="rgb(54,54,54)"/><rect x="10" y="60" width="10" height="10" fill="rgb(53,53,53)"/><rect x="20" y="60" width="10" height="10" fill="rgb(38,38,38)"/><rect x="30" y="60" width="10" height="10" fill="rgb(43,43,43)"/><rect x="40" y="60" width="10" height="10" fill="rgb(33,33,33)"/><rect x="50" y="60" width="10" height="10" fill="rgb(34,34,34)"/><rect x="60" y="60" width="10" height="10" fill="rgb(33,33,33)"/><rect x="70" y="60" width="10" height="10" fill="rgb(32,32,32)"/><rect x="80" y="60" width="10" height="10" fill="rgb(32,32,32)"/><rect x="90" y="60" width="10" height="10" fill="rgb(31,31,31)"/><rect x="0" y="70" width="10" height="10" fill="rgb(30,30,30)"/><rect x="10" y="70" width="10" height="10" fill="rgb(32,32,32)"/><rect x="20" y="70" width="10" height="10" fill="rgb(33,33,33)"/><rect x="30" y="70" width="10" height="10" fill="rgb(45,45,45)"/><rect x="40" y="70" width="10" height="10" fill="rgb(34,34,34)"/><rect x="50" y="70" width="10" height="10" fill="rgb(41,41,41)"/><rect x="60" y="70" width="10" height="10" fill="rgb(36,36,36)"/><rect x="70" y="70" width="10" height="10" fill="rgb(37,37,37)"/><rect x="80" y="70" width="10" height="10" fill="rgb(38,38,38)"/><rect x="90" y="70" width="10" height="10" fill="rgb(45,45,45)"/><rect x="0" y="80" width="10" height="10" fill="rgb(67,67,67)"/><rect x="10" y="80" width="10" height="10" fill="rgb(97,97,97)"/><rect x="20" y="80" width="10" height="10" fill="rgb(90,90,90)"/><rect x="30" y="80" width="10" height="10" fill="rgb(93,93,93)"/><rect x="40" y="80" width="10" height="10" fill="rgb(103,103,103)"/><rect x="50" y="80" width="10" height="10" fill="rgb(102,102,102)"/><rect x="60" y="80" width="10" height="10" fill="rgb(92,92,92)"/><rect x="70" y="80" width="10" height="10" fill="rgb(89,89,89)"/><rect x="80" y="80" width="10" height="10" fill="rgb(86,86,86)"/><rect x="90" y="80" width="10" height="10" fill="rgb(97,97,97)"/><rect x="0" y="90" width="10" height="10" fill="rgb(90,90,90)"/><rect x="10" y="90" width="10" height="10" fill="rgb(96,96,96)"/><rect x="20" y="90" width="10" height="10" fill="rgb(103,103,103)"/><rect x="30" y="90" width="10" height="10" fill="rgb(107,107,107)"/><rect x="40" y="90" width="10" height="10" fill="rgb(114,114,114)"/><rect x="50" y="90" width="10" height="10" fill="rgb(109,109,109)"/><rect x="60" y="90" width="10" height="10" fill="rgb(102,102,102)"/><rect x="70" y="90" width="10" height="10" fill="rgb(109,109,109)"/><rect x="80" y="90" width="10" height="10" fill="rgb(86,86,86)"/><rect x="90" y="90" width="10" height="10" fill="rgb(73,73,73)"/><rect x="0" y="100" width="10" height="10" fill="rgb(83,83,83)"/><rect x="10" y="100" width="10" height="10" fill="rgb(94,94,94)"/><rect x="20" y="100" width="10" height="10" fill="rgb(91,91,91)"/><rect x="30" y="100" width="10" height="10" fill="rgb(117,117,117)"/><rect x="40" y="100" width="10" height="10" fill="rgb(113,113,113)"/><rect x="50" y="100" width="10" height="10" fill="rgb(104,104,104)"/><rect x="60" y="100" width="10" height="10" fill="rgb(116,116,116)"/><rect x="70" y="100" width="10" height="10" fill="rgb(108,108,108)"/><rect x="80" y="100" width="10" height="10" fill="rgb(104,104,104)"/><rect x="90" y="100" width="10" height="10" fill="rgb(91,91,91)"/><rect x="0" y="110" width="10" height="10" fill="rgb(102,102,102)"/><rect x="10" y="110" width="10" height="10" fill="rgb(115,115,115)"/><rect x="20" y="110" width="10" height="10" fill="rgb(98,98,98)"/><rect x="30" y="110" width="10" height="10" fill="rgb(96,96,96)"/><rect x="40" y="110" width="10" height="10" fill="rgb(88,88,88)"/><rect x="50" y="110" width="10" height="10" fill="rgb(86,86,86)"/><rect x="60" y="110" width="10" height="10" fill="rgb(91,91,91)"/><rect x="70" y="110" width="10" height="10" fill="rgb(92,92,92)"/><rect x="80" y="110" width="10" height="10" fill="rgb(96,96,96)"/><rect x="90" y="110" width="10" height="10" fill="rgb(105,105,105)"/><rect x="0" y="120" width="10" height="10" fill="rgb(109,109,109)"/><rect x="10" y="120" width="10" height="10" fill="rgb(56,56,56)"/><rect x="20" y="120" width="10" height="10" fill="rgb(76,76,76)"/><rect x="30" y="120" width="10" height="10" fill="rgb(83,83,83)"/><rect x="40" y="120" width="10" height="10" fill="rgb(98,98,98)"/><rect x="50" y="120" width="10" height="10" fill="rgb(87,87,87)"/><rect x="60" y="120" width="10" height="10" fill="rgb(78,78,78)"/><rect x="70" y="120" width="10" height="10" fill="rgb(65,65,65)"/><rect x="80" y="120" width="10" height="10" fill="rgb(40,40,40)"/><rect x="90" y="120" width="10" height="10" fill="rgb(56,56,56)"/><rect x="0" y="130" width="10" height="10" fill="rgb(48,48,48)"/><rect x="10" y="130" width="10" height="10" fill="rgb(87,87,87)"/><rect x="20" y="130" width="10" height="10" fill="rgb(73,73,73)"/><rect x="30" y="130" width="10" height="10" fill="rgb(54,54,54)"/><rect x="40" y="130" width="10" height="10" fill="rgb(41,41,41)"/><rect x="50" y="130" width="10" height="10" fill="rgb(43,43,43)"/><rect x="60" y="130" width="10" height="10" fill="rgb(42,42,42)"/><rect x="70" y="130" width="10" height="10" fill="rgb(38,38,38)"/><rect x="80" y="130" width="10" height="10" fill="rgb(28,28,28)"/><rect x="90" y="130" width="10" height="10" fill="rgb(31,31,31)"/><rect x="0" y="140" width="10" height="10" fill="rgb(29,29,29)"/><rect x="10" y="140" width="10" height="10" fill="rgb(30,30,30)"/><rect x="20" y="140" width="10" height="10" fill="rgb(37,37,37)"/><rect x="30" y="140" width="10" height="10" fill="rgb(45,45,45)"/><rect x="40" y="140" width="10" height="10" fill="rgb(61,61,61)"/><rect x="50" y="140" width="10" height="10" fill="rgb(91,91,91)"/><rect x="60" y="140" width="10" height="10" fill="rgb(140,140,140)"/><rect x="70" y="140" width="10" height="10" fill="rgb(177,177,177)"/><rect x="80" y="140" width="10" height="10" fill="rgb(178,178,178)"/><rect x="90" y="140" width="10" height="10" fill="rgb(176,176,176)"/><rect x="0" y="150" width="10" height="10" fill="rgb(124,171,233)"/><rect x="10" y="150" width="10" height="10" fill="rgb(170,200,245)"/><rect x="20" y="150" width="10" height="10" fill="rgb(195,208,234)"/><rect x="30" y="150" width="10" height="10" fill="rgb(196,199,214)"/><rect x="40" y="150" width="10" height="10" fill="rgb(177,181,191)"/><rect x="50" y="150" width="10" height="10" fill="rgb(182,186,196)"/><rect x="60" y="150" width="10" height="10" fill="rgb(186,189,195)"/><rect x="70" y="150" width="10" height="10" fill="rgb(171,175,184)"/><rect x="80" y="150" width="10" height="10" fill="rgb(175,182,186)"/><rect x="90" y="150" width="10" height="10" fill="rgb(195,198,199)"/><rect x="0" y="160" width="10" height="10" fill="rgb(198,200,201)"/><rect x="10" y="160" width="10" height="10" fill="rgb(194,191,190)"/><rect x="20" y="160" width="10" height="10" fill="rgb(180,179,179)"/><rect x="30" y="160" width="10" height="10" fill="rgb(200,197,193)"/><rect x="40" y="160" width="10" height="10" fill="rgb(220,214,205)"/><rect x="50" y="160" width="10" height="10" fill="rgb(225,218,207)"/><rect x="60" y="160" width="10" height="10" fill="rgb(229,221,212)"/><rect x="70" y="160" width="10" height="10" fill="rgb(225,223,219)"/><rect x="80" y="160" width="10" height="10" fill="rgb(185,189,191)"/><rect x="90" y="160" width="10" height="10" fill="rgb(168,180,191)"/><rect x="0" y="170" width="10" height="10" fill="rgb(189,193,195)"/><rect x="10" y="170" width="10" height="10" fill="rgb(169,180,193)"/><rect x="20" y="170" width="10" height="10" fill="rgb(167,177,188)"/><rect x="30" y="170" width="10" height="10" fill="rgb(169,177,187)"/><rect x="40" y="170" width="10" height="10" fill="rgb(185,189,198)"/><rect x="50" y="170" width="10" height="10" fill="rgb(171,177,186)"/><rect x="60" y="170" width="10" height="10" fill="rgb(177,182,190)"/><rect x="70" y="170" width="10" height="10" fill="rgb(191,191,193)"/><rect x="80" y="170" width="10" height="10" fill="rgb(191,192,194)"/><rect x="90" y="170" width="10" height="10" fill="rgb(205,207,207)"/><rect x="0" y="180" width="10" height="10" fill="rgb(206,207,207)"/><rect x="10" y="180" width="10" height="10" fill="rgb(208,210,212)"/><rect x="20" y="180" width="10" height="10" fill="rgb(228,229,229)"/><rect x="30" y="180" width="10" height="10" fill="rgb(215,217,225)"/><rect x="40" y="180" width="10" height="10" fill="rgb(194,194,203)"/><rect x="50" y="180" width="10" height="10" fill="rgb(214,213,217)"/><rect x="60" y="180" width="10" height="10" fill="rgb(223,222,227)"/><rect x="70" y="180" width="10" height="10" fill="rgb(198,199,209)"/><rect x="80" y="180" width="10" height="10" fill="rgb(189,189,198)"/><rect x="90" y="180" width="10" height="10" fill="rgb(232,231,235)"/><rect x="0" y="190" width="10" height="10" fill="rgb(182,185,195)"/><rect x="10" y="190" width="10" height="10" fill="rgb(229,228,234)"/><rect x="20" y="190" width="10" height="10" fill="rgb(230,230,236)"/><rect x="30" y="190" width="10" height="10" fill="rgb(226,226,225)"/><rect x="40" y="190" width="10" height="10" fill="rgb(216,217,218)"/><rect x="50" y="190" width="10" height="10" fill="rgb(229,228,232)"/><rect x="60" y="190" width="10" height="10" fill="rgb(197,197,205)"/><rect x="70" y="190" width="10" height="10" fill="rgb(200,199,207)"/><rect x="80" y="190" width="10" height="10" fill="rgb(217,217,226)"/><rect x="90" y="190" width="10" height="10" fill="rgb(199,199,205)"/><rect x="0" y="200" width="10" height="10" fill="rgb(219,219,230)"/><rect x="10" y="200" width="10" height="10" fill="rgb(177,178,188)"/><rect x="20" y="200" width="10" height="10" fill="rgb(219,218,223)"/><rect x="30" y="200" width="10" height="10" fill="rgb(228,227,231)"/><rect x="40" y="200" width="10" height="10" fill="rgb(175,178,191)"/><rect x="50" y="200" width="10" height="10" fill="rgb(215,215,223)"/><rect x="60" y="200" width="10" height="10" fill="rgb(189,189,197)"/><rect x="70" y="200" width="10" height="10" fill="rgb(222,222,229)"/><rect x="80" y="200" width="10" height="10" fill="rgb(181,181,187)"/><rect x="90" y="200" width="10" height="10" fill="rgb(225,224,231)"/><rect x="0" y="210" width="10" height="10" fill="rgb(229,229,237)"/><rect x="10" y="210" width="10" height="10" fill="rgb(202,203,212)"/><rect x="20" y="210" width="10" height="10" fill="rgb(195,196,201)"/><rect x="30" y="210" width="10" height="10" fill="rgb(196,197,207)"/><rect x="40" y="210" width="10" height="10" fill="rgb(179,181,188)"/><rect x="50" y="210" width="10" height="10" fill="rgb(148,149,157)"/><rect x="60" y="210" width="10" height="10" fill="rgb(133,138,147)"/><rect x="70" y="210" width="10" height="10" fill="rgb(132,140,155)"/><rect x="80" y="210" width="10" height="10" fill="rgb(133,135,144)"/><rect x="90" y="210" width="10" height="10" fill="rgb(131,135,142)"/><rect x="0" y="220" width="10" height="10" fill="rgb(121,133,151)"/><rect x="10" y="220" width="10" height="10" fill="rgb(130,139,156)"/><rect x="20" y="220" width="10" height="10" fill="rgb(145,154,170)"/><rect x="30" y="220" width="10" height="10" fill="rgb(132,145,164)"/><rect x="40" y="220" width="10" height="10" fill="rgb(149,158,175)"/><rect x="50" y="220" width="10" height="10" fill="rgb(138,148,169)"/><rect x="60" y="220" width="10" height="10" fill="rgb(136,145,160)"/><rect x="70" y="220" width="10" height="10" fill="rgb(131,145,168)"/><rect x="80" y="220" width="10" height="10" fill="rgb(133,150,174)"/><rect x="90" y="220" width="10" height="10" fill="rgb(136,151,175)"/><rect x="0" y="230" width="10" height="10" fill="rgb(148,162,186)"/><rect x="10" y="230" width="10" height="10" fill="rgb(135,149,172)"/><rect x="20" y="230" width="10" height="10" fill="rgb(126,141,165)"/><rect x="30" y="230" width="10" height="10" fill="rgb(146,156,174)"/><rect x="40" y="230" width="10" height="10" fill="rgb(151,164,184)"/><rect x="50" y="230" width="10" height="10" fill="rgb(147,162,186)"/><rect x="60" y="230" width="10" height="10" fill="rgb(141,157,182)"/><rect x="70" y="230" width="10" height="10" fill="rgb(129,147,173)"/><rect x="80" y="230" width="10" height="10" fill="rgb(138,152,174)"/><rect x="90" y="230" width="10" height="10" fill="rgb(142,157,183)"/><rect x="0" y="240" width="10" height="10" fill="rgb(141,155,177)"/><rect x="10" y="240" width="10" height="10" fill="rgb(123,139,168)"/><rect x="20" y="240" width="10" height="10" fill="rgb(143,148,156)"/><rect x="30" y="240" width="10" height="10" fill="rgb(122,133,155)"/><rect x="40" y="240" width="10" height="10" fill="rgb(132,144,167)"/><rect x="50" y="240" width="10" height="10" fill="rgb(128,145,170)"/><rect x="60" y="240" width="10" height="10" fill="rgb(144,157,176)"/><rect x="70" y="240" width="10" height="10" fill="rgb(139,151,169)"/><rect x="80" y="240" width="10" height="10" fill="rgb(124,143,175)"/><rect x="90" y="240" width="10" height="10" fill="rgb(133,141,157)"/><rect x="0" y="250" width="10" height="10" fill="rgb(140,145,155)"/><rect x="10" y="250" width="10" height="10" fill="rgb(132,141,160)"/><rect x="20" y="250" width="10" height="10" fill="rgb(124,140,167)"/><rect x="30" y="250" width="10" height="10" fill="rgb(123,143,175)"/><rect x="40" y="250" width="10" height="10" fill="rgb(121,142,174)"/><rect x="50" y="250" width="10" height="10" fill="rgb(103,133,175)"/><rect x="60" y="250" width="10" height="10" fill="rgb(103,133,176)"/><rect x="70" y="250" width="10" height="10" fill="rgb(103,133,176)"/><rect x="80" y="250" width="10" height="10" fill="rgb(104,134,176)"/><rect x="90" y="250" width="10" height="10" fill="rgb(104,134,177)"/><rect x="0" y="260" width="10" height="10" fill="rgb(105,135,178)"/><rect x="10" y="260" width="10" height="10" fill="rgb(106,136,178)"/><rect x="20" y="260" width="10" height="10" fill="rgb(106,137,179)"/><rect x="30" y="260" width="10" height="10" fill="rgb(107,137,179)"/><rect x="40" y="260" width="10" height="10" fill="rgb(107,138,180)"/><rect x="50" y="260" width="10" height="10" fill="rgb(110,139,179)"/><rect x="60" y="260" width="10" height="10" fill="rgb(110,139,182)"/><rect x="70" y="260" width="10" height="10" fill="rgb(111,139,179)"/><rect x="80" y="260" width="10" height="10" fill="rgb(111,140,180)"/><rect x="90" y="260" width="10" height="10" fill="rgb(113,141,181)"/></svg>