<svg xmlns="http://www.w3.org/2000/svg" width="100" height="270"><rect x="0" y="0" width="10" height="10" fill="rgb(192,211,251)"/><rect x="10" y="0" width="10" height="10" fill="rgb(185,204,246)"/><rect x="20" y="0" width="10" height="10" fill="rgb(175,196,241)"/><rect x="30" y="0" width="10" height="10" fill="rgb(187,208,250)"/><rect x="40" y="0" width="10" height="10" fill="rgb(170,189,233)"/><rect x="50" y="0" width="10" height="10" fill="rgb(180,199,244)"/><rect x="60" y="0" width="10" height="10" fill="rgb(176,196,240)"/><rect x="70" y="0" width="10" height="10" fill="rgb(172,191,234)"/><rect x="80" y="0" width="10" height="10" fill="rgb(177,197,240)"/><rect x="90" y="0" width="10" height="10" fill="rgb(178,197,240)"/><rect x="0" y="10" width="10" height="10" fill="rgb(199,212,242)"/><rect x="10" y="10" width="10" height="10" fill="rgb(173,191,233)"/><rect x="20" y="10" width="10" height="10" fill="rgb(177,196,238)"/><rect x="30" y="10" width="10" height="10" fill="rgb(177,196,237)"/><rect x="40" y="10" width="10" height="10" fill="rgb(179,200,243)"/><rect x="50" y="10" width="10" height="10" fill="rgb(176,197,241)"/><rect x="60" y="10" width="10" height="10" fill="rgb(175,197,241)"/><rect x="70" y="10" width="10" height="10" fill="rgb(174,196,241)"/><rect x="80" y="10" width="10" height="10" fill="rgb(172,196,241)"/><rect x="90" y="10" width="10" height="10" fill="rgb(172,197,241)"/><rect x="0" y="20" width="10" height="10" fill="rgb(173,198,242)"/><rect x="10" y="20" width="10" height="10" fill="rgb(174,199,242)"/><rect x="20" y="20" width="10" height="10" fill="rgb(176,202,242)"/><rect x="30" y="20" width="10" height="10" fill="rgb(178,203,242)"/><rect x="40" y="20" width="10" height="10" fill="rgb(184,208,242)"/><rect x="50" y="20" width="10" height="10" fill="rgb(190,213,242)"/><rect x="60" y="20" width="10" height="10" fill="rgb(189,213,241)"/><rect x="70" y="20" width="10" height="10" fill="rgb(192,215,240)"/><rect x="80" y="20" width="10" height="10" fill="rgb(195,217,237)"/><rect x="90" y="20" width="10" height="10" fill="rgb(200,219,234)"/><rect x="0" y="30" width="10" height="10" fill="rgb(206,221,231)"/><rect x="10" y="30" width="10" height="10" fill="rgb(213,222,228)"/><rect x="20" y="30" width="10" height="10" fill="rgb(217,220,226)"/><rect x="30" y="30" width="10" height="10" fill="rgb(220,218,226)"/><rect x="40" y="30" width="10" height="10" fill="rgb(217,215,228)"/><rect x="50" y="30" width="10" height="10" fill="rgb(209,211,230)"/><rect x="60" y="30" width="10" height="10" fill="rgb(196,206,232)"/><rect x="70" y="30" width="10" height="10" fill="rgb(182,200,237)"/><rect x="80" y="30" width="10" height="10" fill="rgb(153,174,212)"/><rect x="90" y="30" width="10" height="10" fill="rgb(153,176,218)"/><rect x="0" y="40" width="10" height="10" fill="rgb(149,170,215)"/><rect x="10" y="40" width="10" height="10" fill="rgb(139,163,205)"/><rect x="20" y="40" width="10" height="10" fill="rgb(120,147,190)"/><rect x="30" y="40" width="10" height="10" fill="rgb(96,121,159)"/><rect x="40" y="40" width="10" height="10" fill="rgb(74,97,131)"/><rect x="50" y="40" width="10" height="10" fill="rgb(58,76,106)"/><rect x="60" y="40" width="10" height="10" fill="rgb(44,57,80)"/><rect x="70" y="40" width="10" height="10" fill="rgb(38,47,62)"/><rect x="80" y="40" width="10" height="10" fill="rgb(36,41,51)"/><rect x="90" y="40" width="10" height="10" fill="rgb(34,37,43)"/><rect x="0" y="50" width="10" height="10" fill="rgb(34,38,42)"/><rect x="10" y="50" width="10" height="10" fill="rgb(32,35,37)"/><rect x="20" y="50" width="10" height="10" fill="rgb(31,33,34)"/><rect x="30" y="50" width="10" height="10" fill="rgb(32,34,33)"/><rect x="40" y="50" width="10" height="10" fill="rgb(30,32,32)"/><rect x="50" y="50" width="10" height="10" fill="rgb(31,32,31)"/><rect x="60" y="50" width="10" height="10" fill="rgb(31,32,31)"/><rect x="70" y="50" width="10" height="10" fill="rgb(34,36,35)"/><rect x="80" y="50" width="10" height="10" fill="rgb(31,32,31)"/><rect x="90" y="50" width="10" height="10" fill="rgb(35,38,39)"/><rect x="0" y="60" width="10" height="10" fill="rgb(32,34,35)"/><rect x="10" y="60" width="10" height="10" fill="rgb(30,32,30)"/><rect x="20" y="60" width="10" height="10" fill="rgb(32,34,34)"/><rect x="30" y="60" width="10" height="10" fill="rgb(33,34,34)"/><rect x="40" y="60" width="10" height="10" fill="rgb(30,32,31)"/><rect x="50" y="60" width="10" height="10" fill="rgb(31,32,32)"/><rect x="60" y="60" width="10" height="10" fill="rgb(30,32,31)"/><rect x="70" y="60" width="10" height="10" fill="rgb(30,32,30)"/><rect x="80" y="60" width="10" height="10" fill="rgb(32,34,33)"/><rect x="90" y="60" width="10" height="10" fill="rgb(31,32,31)"/><rect x="0" y="70" width="10" height="10" fill="rgb(32,33,32)"/><rect x="10" y="70" width="10" height="10" fill="rgb(30,32,30)"/><rect x="20" y="70" width="10" height="10" fill="rgb(30,32,30)"/><rect x="30" y="70" width="10" height="10" fill="rgb(30,32,31)"/><rect x="40" y="70" width="10" height="10" fill="rgb(33,34,33)"/><rect x="50" y="70" width="10" height="10" fill="rgb(32,33,33)"/><rect x="60" y="70" width="10" height="10" fill="rgb(31,33,31)"/><rect x="70" y="70" width="10" height="10" fill="rgb(33,34,34)"/><rect x="80" y="70" width="10" height="10" fill="rgb(32,33,33)"/><rect x="90" y="70" width="10" height="10" fill="rgb(30,31,30)"/><rect x="0" y="80" width="10" height="10" fill="rgb(29,31,29)"/><rect x="10" y="80" width="10" height="10" fill="rgb(30,32,30)"/><rect x="20" y="80" width="10" height="10" fill="rgb(42,44,43)"/><rect x="30" y="80" width="10" height="10" fill="rgb(32,34,33)"/><rect x="40" y="80" width="10" height="10" fill="rgb(29,31,29)"/><rect x="50" y="80" width="10" height="10" fill="rgb(32,32,31)"/><rect x="60" y="80" width="10" height="10" fill="rgb(31,32,31)"/><rect x="70" y="80" width="10" height="10" fill="rgb(33,34,34)"/><rect x="80" y="80" width="10" height="10" fill="rgb(32,32,31)"/><rect x="90" y="80" width="10" height="10" fill="rgb(33,34,33)"/><rect x="0" y="90" width="10" height="10" fill="rgb(31,32,32)"/><rect x="10" y="90" width="10" height="10" fill="rgb(32,33,32)"/><rect x="20" y="90" width="10" height="10" fill="rgb(30,32,30)"/><rect x="30" y="90" width="10" height="10" fill="rgb(30,32,30)"/><rect x="40" y="90" width="10" height="10" fill="rgb(30,31,29)"/><rect x="50" y="90" width="10" height="10" fill="rgb(30,32,29)"/><rect x="60" y="90" width="10" height="10" fill="rgb(31,32,31)"/><rect x="70" y="90" width="10" height="10" fill="rgb(32,33,32)"/><rect x="80" y="90" width="10" height="10" fill="rgb(30,31,29)"/><rect x="90" y="90" width="10" height="10" fill="rgb(29,31,29)"/><rect x="0" y="100" width="10" height="10" fill="rgb(31,32,31)"/><rect x="10" y="100" width="10" height="10" fill="rgb(30,31,30)"/><rect x="20" y="100" width="10" height="10" fill="rgb(31,32,32)"/><rect x="30" y="100" width="10" height="10" fill="rgb(29,31,29)"/><rect x="40" y="100" width="10" height="10" fill="rgb(31,32,32)"/><rect x="50" y="100" width="10" height="10" fill="rgb(29,31,29)"/><rect x="60" y="100" width="10" height="10" fill="rgb(31,32,30)"/><rect x="70" y="100" width="10" height="10" fill="rgb(29,30,28)"/><rect x="80" y="100" width="10" height="10" fill="rgb(31,32,31)"/><rect x="90" y="100" width="10" height="10" fill="rgb(31,31,31)"/><rect x="0" y="110" width="10" height="10" fill="rgb(31,31,30)"/><rect x="10" y="110" width="10" height="10" fill="rgb(34,35,36)"/><rect x="20" y="110" width="10" height="10" fill="rgb(29,30,29)"/><rect x="30" y="110" width="10" height="10" fill="rgb(31,31,30)"/><rect x="40" y="110" width="10" height="10" fill="rgb(29,30,28)"/><rect x="50" y="110" width="10" height="10" fill="rgb(31,32,31)"/><rect x="60" y="110" width="10" height="10" fill="rgb(29,31,30)"/><rect x="70" y="110" width="10" height="10" fill="rgb(29,30,28)"/><rect x="80" y="110" width="10" height="10" fill="rgb(30,31,30)"/><rect x="90" y="110" width="10" height="10" fill="rgb(30,31,30)"/><rect x="0" y="120" width="10" height="10" fill="rgb(30,31,30)"/><rect x="10" y="120" width="10" height="10" fill="rgb(31,32,31)"/><rect x="20" y="120" width="10" height="10" fill="rgb(30,31,29)"/><rect x="30" y="120" width="10" height="10" fill="rgb(28,30,29)"/><rect x="40" y="120" width="10" height="10" fill="rgb(30,31,31)"/><rect x="50" y="120" width="10" height="10" fill="rgb(32,33,34)"/><rect x="60" y="120" width="10" height="10" fill="rgb(30,33,35)"/><rect x="70" y="120" width="10" height="10" fill="rgb(33,35,40)"/><rect x="80" y="120" width="10" height="10" fill="rgb(33,38,46)"/><rect x="90" y="120" width="10" height="10" fill="rgb(36,43,57)"/><rect x="0" y="130" width="10" height="10" fill="rgb(40,53,76)"/><rect x="10" y="130" width="10" height="10" fill="rgb(49,67,99)"/><rect x="20" y="130" width="10" height="10" fill="rgb(65,90,128)"/><rect x="30" y="130" width="10" height="10" fill="rgb(90,120,161)"/><rect x="40" y="130" width="10" height="10" fill="rgb(123,152,196)"/><rect x="50" y="130" width="10" height="10" fill="rgb(148,177,221)"/><rect x="60" y="130" width="10" height="10" fill="rgb(159,183,228)"/><rect x="70" y="130" width="10" height="10" fill="rgb(166,188,232)"/><rect x="80" y="130" width="10" height="10" fill="rgb(171,192,232)"/><rect x="90" y="130" width="10" height="10" fill="rgb(191,209,233)"/><rect x="0" y="140" width="10" height="10" fill="rgb(201,211,231)"/><rect x="10" y="140" width="10" height="10" fill="rgb(201,211,231)"/><rect x="20" y="140" width="10" height="10" fill="rgb(225,223,232)"/><rect x="30" y="140" width="10" height="10" fill="rgb(229,227,233)"/><rect x="40" y="140" width="10" height="10" fill="rgb(229,230,234)"/><rect x="50" y="140" width="10" height="10" fill="rgb(226,231,236)"/><rect x="60" y="140" width="10" height="10" fill="rgb(222,231,238)"/><rect x="70" y="140" width="10" height="10" fill="rgb(222,231,238)"/><rect x="80" y="140" width="10" height="10" fill="rgb(202,217,232)"/><rect x="90" y="140" width="10" height="10" fill="rgb(202,217,232)"/><rect x="0" y="150" width="10" height="10" fill="rgb(182,197,218)"/><rect x="10" y="150" width="10" height="10" fill="rgb(180,195,217)"/><rect x="20" y="150" width="10" height="10" fill="rgb(179,195,219)"/><rect x="30" y="150" width="10" height="10" fill="rgb(180,195,221)"/><rect x="40" y="150" width="10" height="10" fill="rgb(179,194,221)"/><rect x="50" y="150" width="10" height="10" fill="rgb(177,193,221)"/><rect x="60" y="150" width="10" height="10" fill="rgb(177,191,221)"/><rect x="70" y="150" width="10" height="10" fill="rgb(177,191,222)"/><rect x="80" y="150" width="10" height="10" fill="rgb(176,191,222)"/><rect x="90" y="150" width="10" height="10" fill="rgb(175,190,222)"/><rect x="0" y="160" width="10" height="10" fill="rgb(173,188,221)"/><rect x="10" y="160" width="10" height="10" fill="rgb(172,187,222)"/><rect x="20" y="160" width="10" height="10" fill="rgb(171,187,222)"/><rect x="30" y="160" width="10" height="10" fill="rgb(171,187,224)"/><rect x="40" y="160" width="10" height="10" fill="rgb(171,187,226)"/><rect x="50" y="160" width="10" height="10" fill="rgb(170,186,225)"/><rect x="60" y="160" width="10" height="10" fill="rgb(167,184,223)"/><rect x="70" y="160" width="10" height="10" fill="rgb(169,185,225)"/><rect x="80" y="160" width="10" height="10" fill="rgb(168,185,225)"/><rect x="90" y="160" width="10" height="10" fill="rgb(168,185,226)"/><rect x="0" y="170" width="10" height="10" fill="rgb(167,184,226)"/><rect x="10" y="170" width="10" height="10" fill="rgb(167,184,226)"/><rect x="20" y="170" width="10" height="10" fill="rgb(167,183,226)"/><rect x="30" y="170" width="10" height="10" fill="rgb(167,183,226)"/><rect x="40" y="170" width="10" height="10" fill="rgb(166,183,226)"/><rect x="50" y="170" width="10" height="10" fill="rgb(166,182,227)"/><rect x="60" y="170" width="10" height="10" fill="rgb(165,182,227)"/><rect x="70" y="170" width="10" height="10" fill="rgb(165,182,227)"/><rect x="80" y="170" width="10" height="10" fill="rgb(166,183,228)"/><rect x="90" y="170" width="10" height="10" fill="rgb(166,183,229)"/><rect x="0" y="180" width="10" height="10" fill="rgb(166,184,230)"/><rect x="10" y="180" width="10" height="10" fill="rgb(165,183,229)"/><rect x="20" y="180" width="10" height="10" fill="rgb(166,183,230)"/><rect x="30" y="180" width="10" height="10" fill="rgb(167,185,232)"/><rect x="40" y="180" width="10" height="10" fill="rgb(169,186,233)"/><rect x="50" y="180" width="10" height="10" fill="rgb(170,188,236)"/><rect x="60" y="180" width="10" height="10" fill="rgb(172,190,237)"/><rect x="70" y="180" width="10" height="10" fill="rgb(173,190,238)"/><rect x="80" y="180" width="10" height="10" fill="rgb(173,191,238)"/><rect x="90" y="180" width="10" height="10" fill="rgb(174,192,238)"/><rect x="0" y="190" width="10" height="10" fill="rgb(175,194,240)"/><rect x="10" y="190" width="10" height="10" fill="rgb(177,195,241)"/><rect x="20" y="190" width="10" height="10" fill="rgb(176,195,241)"/><rect x="30" y="190" width="10" height="10" fill="rgb(177,195,241)"/><rect x="40" y="190" width="10" height="10" fill="rgb(175,193,241)"/><rect x="50" y="190" width="10" height="10" fill="rgb(175,194,241)"/><rect x="60" y="190" width="10" height="10" fill="rgb(176,195,241)"/><rect x="70" y="190" width="10" height="10" fill="rgb(172,190,236)"/><rect x="80" y="190" width="10" height="10" fill="rgb(174,193,239)"/><rect x="90" y="190" width="10" height="10" fill="rgb(174,192,238)"/><rect x="0" y="200" width="10" height="10" fill="rgb(172,190,236)"/><rect x="10" y="200" width="10" height="10" fill="rgb(172,190,236)"/><rect x="20" y="200" width="10" height="10" fill="rgb(171,189,234)"/><rect x="30" y="200" width="10" height="10" fill="rgb(173,191,237)"/><rect x="40" y="200" width="10" height="10" fill="rgb(174,191,234)"/><rect x="50" y="200" width="10" height="10" fill="rgb(175,191,234)"/><rect x="60" y="200" width="10" height="10" fill="rgb(174,191,235)"/><rect x="70" y="200" width="10" height="10" fill="rgb(173,190,236)"/><rect x="80" y="200" width="10" height="10" fill="rgb(174,191,237)"/><rect x="90" y="200" width="10" height="10" fill="rgb(174,192,237)"/><rect x="0" y="210" width="10" height="10" fill="rgb(177,194,239)"/><rect x="10" y="210" width="10" height="10" fill="rgb(178,195,240)"/><rect x="20" y="210" width="10" height="10" fill="rgb(178,196,241)"/><rect x="30" y="210" width="10" height="10" fill="rgb(178,195,241)"/><rect x="40" y="210" width="10" height="10" fill="rgb(177,194,238)"/><rect x="50" y="210" width="10" height="10" fill="rgb(180,197,242)"/><rect x="60" y="210" width="10" height="10" fill="rgb(181,198,243)"/><rect x="70" y="210" width="10" height="10" fill="rgb(181,198,243)"/><rect x="80" y="210" width="10" height="10" fill="rgb(180,197,242)"/><rect x="90" y="210" width="10" height="10" fill="rgb(179,196,241)"/><rect x="0" y="220" width="10" height="10" fill="rgb(178,195,239)"/><rect x="10" y="220" width="10" height="10" fill="rgb(178,195,239)"/><rect x="20" y="220" width="10" height="10" fill="rgb(178,195,238)"/><rect x="30" y="220" width="10" height="10" fill="rgb(178,195,240)"/><rect x="40" y="220" width="10" height="10" fill="rgb(178,194,239)"/><rect x="50" y="220" width="10" height="10" fill="rgb(178,195,239)"/><rect x="60" y="220" width="10" height="10" fill="rgb(177,194,238)"/><rect x="70" y="220" width="10" height="10" fill="rgb(177,194,238)"/><rect x="80" y="220" width="10" height="10" fill="rgb(178,194,239)"/><rect x="90" y="220" width="10" height="10" fill="rgb(178,194,238)"/><rect x="0" y="230" width="10" height="10" fill="rgb(177,194,238)"/><rect x="10" y="230" width="10" height="10" fill="rgb(178,195,239)"/><rect x="20" y="230" width="10" height="10" fill="rgb(179,195,239)"/><rect x="30" y="230" width="10" height="10" fill="rgb(178,194,238)"/><rect x="40" y="230" width="10" height="10" fill="rgb(178,194,238)"/><rect x="50" y="230" width="10" height="10" fill="rgb(175,190,233)"/><rect x="60" y="230" width="10" height="10" fill="rgb(177,193,236)"/><rect x="70" y="230" width="10" height="10" fill="rgb(177,194,238)"/><rect x="80" y="230" width="10" height="10" fill="rgb(177,194,238)"/><rect x="90" y="230" width="10" height="10" fill="rgb(177,193,237)"/><rect x="0" y="240" width="10" height="10" fill="rgb(176,193,237)"/><rect x="10" y="240" width="10" height="10" fill="rgb(173,189,232)"/><rect x="20" y="240" width="10" height="10" fill="rgb(177,193,237)"/><rect x="30" y="240" width="10" height="10" fill="rgb(177,194,239)"/><rect x="40" y="240" width="10" height="10" fill="rgb(177,194,239)"/><rect x="50" y="240" width="10" height="10" fill="rgb(176,193,238)"/><rect x="60" y="240" width="10" height="10" fill="rgb(176,193,237)"/><rect x="70" y="240" width="10" height="10" fill="rgb(177,194,239)"/><rect x="80" y="240" width="10" height="10" fill="rgb(173,190,233)"/><rect x="90" y="240" width="10" height="10" fill="rgb(177,193,238)"/><rect x="0" y="250" width="10" height="10" fill="rgb(177,195,240)"/><rect x="10" y="250" width="10" height="10" fill="rgb(178,195,240)"/><rect x="20" y="250" width="10" height="10" fill="rgb(178,195,240)"/><rect x="30" y="250" width="10" height="10" fill="rgb(176,193,239)"/><rect x="40" y="250" width="10" height="10" fill="rgb(177,194,240)"/><rect x="50" y="250" width="10" height="10" fill="rgb(186,205,248)"/><rect x="60" y="250" width="10" height="10" fill="rgb(177,195,241)"/><rect x="70" y="250" width="10" height="10" fill="rgb(178,197,243)"/><rect x="80" y="250" width="10" height="10" fill="rgb(177,196,243)"/><rect x="90" y="250" width="10" height="10" fill="rgb(177,196,242)"/><rect x="0" y="260" width="10" height="10" fill="rgb(187,207,250)"/><rect x="10" y="260" width="10" height="10" fill="rgb(186,204,248)"/><rect x="20" y="260" width="10" height="10" fill="rgb(194,212,252)"/><rect x="30" y="260" width="10" height="10" fill="rgb(189,208,252)"/><rect x="40" y="260" width="10" height="10" fill="rgb(176,197,245)"/><rect x="50" y="260" width="10" height="10" fill="rgb(170,189,238)"/><rect x="60" y="260" width="10" height="10" fill="rgb(190,210,252)"/><rect x="70" y="260" width="10" height="10" fill="rgb(172,192,239)"/><rect x="80" y="260" width="10" height="10" fill="rgb(171,191,237)"/><rect x="90" y="260" width="10" height="10" fill="rgb(178,199,246)"/></svg>