<svg xmlns="http://www.w3.org/2000/svg" width="100" height="260"><rect x="0" y="0" width="10" height="10" fill="rgb(99,103,103)"/><rect x="10" y="0" width="10" height="10" fill="rgb(99,103,103)"/><rect x="20" y="0" width="10" height="10" fill="rgb(106,108,105)"/><rect x="30" y="0" width="10" height="10" fill="rgb(106,108,105)"/><rect x="40" y="0" width="10" height="10" fill="rgb(106,108,105)"/><rect x="50" y="0" width="10" height="10" fill="rgb(252,252,252)"/><rect x="60" y="0" width="10" height="10" fill="rgb(252,252,252)"/><rect x="70" y="0" width="10" height="10" fill="rgb(100,103,100)"/><rect x="80" y="0" width="10" height="10" fill="rgb(100,103,100)"/><rect x="90" y="0" width="10" height="10" fill="rgb(101,103,100)"/><rect x="0" y="10" width="10" height="10" fill="rgb(101,103,100)"/><rect x="10" y="10" width="10" height="10" fill="rgb(100,103,100)"/><rect x="20" y="10" width="10" height="10" fill="rgb(100,103,100)"/><rect x="30" y="10" width="10" height="10" fill="rgb(102,103,100)"/><rect x="40" y="10" width="10" height="10" fill="rgb(102,103,100)"/><rect x="50" y="10" width="10" height="10" fill="rgb(100,102,99)"/><rect x="60" y="10" width="10" height="10" fill="rgb(100,102,99)"/><rect x="70" y="10" width="10" height="10" fill="rgb(101,104,100)"/><rect x="80" y="10" width="10" height="10" fill="rgb(101,104,100)"/><rect x="90" y="10" width="10" height="10" fill="rgb(101,104,100)"/><rect x="0" y="20" width="10" height="10" fill="rgb(102,104,100)"/><rect x="10" y="20" width="10" height="10" fill="rgb(102,104,100)"/><rect x="20" y="20" width="10" height="10" fill="rgb(113,113,108)"/><rect x="30" y="20" width="10" height="10" fill="rgb(113,113,108)"/><rect x="40" y="20" width="10" height="10" fill="rgb(88,90,87)"/><rect x="50" y="20" width="10" height="10" fill="rgb(88,90,87)"/><rect x="60" y="20" width="10" height="10" fill="rgb(76,78,75)"/><rect x="70" y="20" width="10" height="10" fill="rgb(76,78,75)"/><rect x="80" y="20" width="10" height="10" fill="rgb(66,68,65)"/><rect x="90" y="20" width="10" height="10" fill="rgb(66,68,65)"/><rect x="0" y="30" width="10" height="10" fill="rgb(252,252,252)"/><rect x="10" y="30" width="10" height="10" fill="rgb(252,252,252)"/><rect x="20" y="30" width="10" height="10" fill="rgb(88,91,91)"/><rect x="30" y="30" width="10" height="10" fill="rgb(88,91,91)"/><rect x="40" y="30" width="10" height="10" fill="rgb(92,96,96)"/><rect x="50" y="30" width="10" height="10" fill="rgb(92,96,96)"/><rect x="60" y="30" width="10" height="10" fill="rgb(101,104,110)"/><rect x="70" y="30" width="10" height="10" fill="rgb(101,104,110)"/><rect x="80" y="30" width="10" height="10" fill="rgb(98,101,117)"/><rect x="90" y="30" width="10" height="10" fill="rgb(98,101,117)"/><rect x="0" y="40" width="10" height="10" fill="rgb(107,109,131)"/><rect x="10" y="40" width="10" height="10" fill="rgb(107,109,131)"/><rect x="20" y="40" width="10" height="10" fill="rgb(97,99,113)"/><rect x="30" y="40" width="10" height="10" fill="rgb(97,99,113)"/><rect x="40" y="40" width="10" height="10" fill="rgb(97,99,113)"/><rect x="50" y="40" width="10" height="10" fill="rgb(252,252,252)"/><rect x="60" y="40" width="10" height="10" fill="rgb(252,252,252)"/><rect x="70" y="40" width="10" height="10" fill="rgb(48,53,59)"/><rect x="80" y="40" width="10" height="10" fill="rgb(48,53,59)"/><rect x="90" y="40" width="10" height="10" fill="rgb(20,24,28)"/><rect x="0" y="50" width="10" height="10" fill="rgb(20,24,28)"/><rect x="10" y="50" width="10" height="10" fill="rgb(4,5,6)"/><rect x="20" y="50" width="10" height="10" fill="rgb(4,5,6)"/><rect x="30" y="50" width="10" height="10" fill="rgb(1,1,1)"/><rect x="40" y="50" width="10" height="10" fill="rgb(1,1,1)"/><rect x="50" y="50" width="10" height="10" fill="rgb(1,1,1)"/><rect x="60" y="50" width="10" height="10" fill="rgb(1,1,1)"/><rect x="70" y="50" width="10" height="10" fill="rgb(1,1,1)"/><rect x="80" y="50" width="10" height="10" fill="rgb(1,1,1)"/><rect x="90" y="50" width="10" height="10" fill="rgb(1,1,1)"/><rect x="0" y="60" width="10" height="10" fill="rgb(1,1,1)"/><rect x="10" y="60" width="10" height="10" fill="rgb(1,1,1)"/><rect x="20" y="60" width="10" height="10" fill="rgb(252,252,252)"/><rect x="30" y="60" width="10" height="10" fill="rgb(252,252,252)"/><rect x="40" y="60" width="10" height="10" fill="rgb(1,1,1)"/><rect x="50" y="60" width="10" height="10" fill="rgb(1,1,1)"/><rect x="60" y="60" width="10" height="10" fill="rgb(1,1,1)"/><rect x="70" y="60" width="10" height="10" fill="rgb(1,1,1)"/><rect x="80" y="60" width="10" height="10" fill="rgb(1,1,1)"/><rect x="90" y="60" width="10" height="10" fill="rgb(1,1,1)"/><rect x="0" y="70" width="10" height="10" fill="rgb(1,1,1)"/><rect x="10" y="70" width="10" height="10" fill="rgb(1,1,1)"/><rect x="20" y="70" width="10" height="10" fill="rgb(1,1,1)"/><rect x="30" y="70" width="10" height="10" fill="rgb(1,1,1)"/><rect x="40" y="70" width="10" height="10" fill="rgb(1,1,1)"/><rect x="50" y="70" width="10" height="10" fill="rgb(1,1,1)"/><rect x="60" y="70" width="10" height="10" fill="rgb(1,1,1)"/><rect x="70" y="70" width="10" height="10" fill="rgb(1,1,1)"/><rect x="80" y="70" width="10" height="10" fill="rgb(1,1,1)"/><rect x="90" y="70" width="10" height="10" fill="rgb(1,1,1)"/><rect x="0" y="80" width="10" height="10" fill="rgb(1,1,1)"/><rect x="10" y="80" width="10" height="10" fill="rgb(1,1,1)"/><rect x="20" y="80" width="10" height="10" fill="rgb(1,1,1)"/><rect x="30" y="80" width="10" height="10" fill="rgb(1,1,1)"/><rect x="40" y="80" width="10" height="10" fill="rgb(1,1,1)"/><rect x="50" y="80" width="10" height="10" fill="rgb(1,1,1)"/><rect x="60" y="80" width="10" height="10" fill="rgb(1,1,1)"/><rect x="70" y="80" width="10" height="10" fill="rgb(1,1,1)"/><rect x="80" y="80" width="10" height="10" fill="rgb(1,1,1)"/><rect x="90" y="80" width="10" height="10" fill="rgb(1,1,1)"/><rect x="0" y="90" width="10" height="10" fill="rgb(1,1,1)"/><rect x="10" y="90" width="10" height="10" fill="rgb(1,1,1)"/><rect x="20" y="90" width="10" height="10" fill="rgb(1,1,1)"/><rect x="30" y="90" width="10" height="10" fill="rgb(1,1,1)"/><rect x="40" y="90" width="10" height="10" fill="rgb(1,1,1)"/><rect x="50" y="90" width="10" height="10" fill="rgb(1,1,1)"/><rect x="60" y="90" width="10" height="10" fill="rgb(1,1,1)"/><rect x="70" y="90" width="10" height="10" fill="rgb(1,1,1)"/><rect x="80" y="90" width="10" height="10" fill="rgb(1,1,1)"/><rect x="90" y="90" width="10" height="10" fill="rgb(1,1,1)"/><rect x="0" y="100" width="10" height="10" fill="rgb(1,1,1)"/><rect x="10" y="100" width="10" height="10" fill="rgb(1,1,1)"/><rect x="20" y="100" width="10" height="10" fill="rgb(1,1,1)"/><rect x="30" y="100" width="10" height="10" fill="rgb(1,1,1)"/><rect x="40" y="100" width="10" height="10" fill="rgb(1,1,1)"/><rect x="50" y="100" width="10" height="10" fill="rgb(1,1,1)"/><rect x="60" y="100" width="10" height="10" fill="rgb(1,1,1)"/><rect x="70" y="100" width="10" height="10" fill="rgb(1,1,1)"/><rect x="80" y="100" width="10" height="10" fill="rgb(1,1,1)"/><rect x="90" y="100" width="10" height="10" fill="rgb(3,3,3)"/><rect x="0" y="110" width="10" height="10" fill="rgb(3,3,3)"/><rect x="10" y="110" width="10" height="10" fill="rgb(12,16,23)"/><rect x="20" y="110" width="10" height="10" fill="rgb(12,16,23)"/><rect x="30" y="110" width="10" height="10" fill="rgb(12,16,23)"/><rect x="40" y="110" width="10" height="10" fill="rgb(39,40,49)"/><rect x="50" y="110" width="10" height="10" fill="rgb(39,40,49)"/><rect x="60" y="110" width="10" height="10" fill="rgb(87,88,101)"/><rect x="70" y="110" width="10" height="10" fill="rgb(87,88,101)"/><rect x="80" y="110" width="10" height="10" fill="rgb(105,106,118)"/><rect x="90" y="110" width="10" height="10" fill="rgb(105,106,118)"/><rect x="0" y="120" width="10" height="10" fill="rgb(106,107,117)"/><rect x="10" y="120" width="10" height="10" fill="rgb(106,107,117)"/><rect x="20" y="120" width="10" height="10" fill="rgb(105,106,120)"/><rect x="30" y="120" width="10" height="10" fill="rgb(105,106,120)"/><rect x="40" y="120" width="10" height="10" fill="rgb(105,106,120)"/><rect x="50" y="120" width="10" height="10" fill="rgb(107,109,117)"/><rect x="60" y="120" width="10" height="10" fill="rgb(107,109,117)"/><rect x="70" y="120" width="10" height="10" fill="rgb(119,121,125)"/><rect x="80" y="120" width="10" height="10" fill="rgb(119,121,125)"/><rect x="90" y="120" width="10" height="10" fill="rgb(121,124,122)"/><rect x="0" y="130" width="10" height="10" fill="rgb(121,124,122)"/><rect x="10" y="130" width="10" height="10" fill="rgb(131,134,130)"/><rect x="20" y="130" width="10" height="10" fill="rgb(131,134,130)"/><rect x="30" y="130" width="10" height="10" fill="rgb(117,121,120)"/><rect x="40" y="130" width="10" height="10" fill="rgb(117,121,120)"/><rect x="50" y="130" width="10" height="10" fill="rgb(156,162,162)"/><rect x="60" y="130" width="10" height="10" fill="rgb(156,162,162)"/><rect x="70" y="130" width="10" height="10" fill="rgb(156,162,162)"/><rect x="80" y="130" width="10" height="10" fill="rgb(109,124,133)"/><rect x="90" y="130" width="10" height="10" fill="rgb(109,124,133)"/><rect x="0" y="140" width="10" height="10" fill="rgb(120,136,146)"/><rect x="10" y="140" width="10" height="10" fill="rgb(120,136,146)"/><rect x="20" y="140" width="10" height="10" fill="rgb(79,92,101)"/><rect x="30" y="140" width="10" height="10" fill="rgb(79,92,101)"/><rect x="40" y="140" width="10" height="10" fill="rgb(252,252,252)"/><rect x="50" y="140" width="10" height="10" fill="rgb(252,252,252)"/><rect x="60" y="140" width="10" height="10" fill="rgb(77,90,99)"/><rect x="70" y="140" width="10" height="10" fill="rgb(77,90,99)"/><rect x="80" y="140" width="10" height="10" fill="rgb(77,90,99)"/><rect x="90" y="140" width="10" height="10" fill="rgb(76,90,99)"/><rect x="0" y="150" width="10" height="10" fill="rgb(76,90,99)"/><rect x="10" y="150" width="10" height="10" fill="rgb(76,89,98)"/><rect x="20" y="150" width="10" height="10" fill="rgb(76,89,98)"/><rect x="30" y="150" width="10" height="10" fill="rgb(76,90,99)"/><rect x="40" y="150" width="10" height="10" fill="rgb(76,90,99)"/><rect x="50" y="150" width="10" height="10" fill="rgb(75,88,97)"/><rect x="60" y="150" width="10" height="10" fill="rgb(75,88,97)"/><rect x="70" y="150" width="10" height="10" fill="rgb(74,88,97)"/><rect x="80" y="150" width="10" height="10" fill="rgb(74,88,97)"/><rect x="90" y="150" width="10" height="10" fill="rgb(74,88,98)"/><rect x="0" y="160" width="10" height="10" fill="rgb(74,88,98)"/><rect x="10" y="160" width="10" height="10" fill="rgb(74,88,97)"/><rect x="20" y="160" width="10" height="10" fill="rgb(74,88,97)"/><rect x="30" y="160" width="10" height="10" fill="rgb(73,87,96)"/><rect x="40" y="160" width="10" height="10" fill="rgb(73,87,96)"/><rect x="50" y="160" width="10" height="10" fill="rgb(75,87,95)"/><rect x="60" y="160" width="10" height="10" fill="rgb(75,87,95)"/><rect x="70" y="160" width="10" height="10" fill="rgb(73,87,96)"/><rect x="80" y="160" width="10" height="10" fill="rgb(73,87,96)"/><rect x="90" y="160" width="10" height="10" fill="rgb(73,86,96)"/><rect x="0" y="170" width="10" height="10" fill="rgb(73,86,96)"/><rect x="10" y="170" width="10" height="10" fill="rgb(70,84,95)"/><rect x="20" y="170" width="10" height="10" fill="rgb(70,84,95)"/><rect x="30" y="170" width="10" height="10" fill="rgb(70,84,95)"/><rect x="40" y="170" width="10" height="10" fill="rgb(71,85,95)"/><rect x="50" y="170" width="10" height="10" fill="rgb(71,85,95)"/><rect x="60" y="170" width="10" height="10" fill="rgb(66,80,91)"/><rect x="70" y="170" width="10" height="10" fill="rgb(66,80,91)"/><rect x="80" y="170" width="10" height="10" fill="rgb(69,82,91)"/><rect x="90" y="170" width="10" height="10" fill="rgb(69,82,91)"/><rect x="0" y="180" width="10" height="10" fill="rgb(66,79,90)"/><rect x="10" y="180" width="10" height="10" fill="rgb(66,79,90)"/><rect x="20" y="180" width="10" height="10" fill="rgb(252,252,252)"/><rect x="30" y="180" width="10" height="10" fill="rgb(252,252,252)"/><rect x="40" y="180" width="10" height="10" fill="rgb(252,252,252)"/><rect x="50" y="180" width="10" height="10" fill="rgb(65,79,92)"/><rect x="60" y="180" width="10" height="10" fill="rgb(65,79,92)"/><rect x="70" y="180" width="10" height="10" fill="rgb(65,80,92)"/><rect x="80" y="180" width="10" height="10" fill="rgb(65,80,92)"/><rect x="90" y="180" width="10" height="10" fill="rgb(64,78,91)"/><rect x="0" y="190" width="10" height="10" fill="rgb(64,78,91)"/><rect x="10" y="190" width="10" height="10" fill="rgb(64,79,92)"/><rect x="20" y="190" width="10" height="10" fill="rgb(64,79,92)"/><rect x="30" y="190" width="10" height="10" fill="rgb(62,78,91)"/><rect x="40" y="190" width="10" height="10" fill="rgb(62,78,91)"/><rect x="50" y="190" width="10" height="10" fill="rgb(62,78,91)"/><rect x="60" y="190" width="10" height="10" fill="rgb(80,87,92)"/><rect x="70" y="190" width="10" height="10" fill="rgb(80,87,92)"/><rect x="80" y="190" width="10" height="10" fill="rgb(83,88,89)"/><rect x="90" y="190" width="10" height="10" fill="rgb(83,88,89)"/><rect x="0" y="200" width="10" height="10" fill="rgb(98,99,98)"/><rect x="10" y="200" width="10" height="10" fill="rgb(98,99,98)"/><rect x="20" y="200" width="10" height="10" fill="rgb(91,94,94)"/><rect x="30" y="200" width="10" height="10" fill="rgb(91,94,94)"/><rect x="40" y="200" width="10" height="10" fill="rgb(252,252,252)"/><rect x="50" y="200" width="10" height="10" fill="rgb(252,252,252)"/><rect x="60" y="200" width="10" height="10" fill="rgb(252,252,252)"/><rect x="70" y="200" width="10" height="10" fill="rgb(102,103,101)"/><rect x="80" y="200" width="10" height="10" fill="rgb(102,103,101)"/><rect x="90" y="200" width="10" height="10" fill="rgb(103,104,103)"/><rect x="0" y="210" width="10" height="10" fill="rgb(103,104,103)"/><rect x="10" y="210" width="10" height="10" fill="rgb(100,102,101)"/><rect x="20" y="210" width="10" height="10" fill="rgb(100,102,101)"/><rect x="30" y="210" width="10" height="10" fill="rgb(89,93,92)"/><rect x="40" y="210" width="10" height="10" fill="rgb(89,93,92)"/><rect x="50" y="210" width="10" height="10" fill="rgb(87,90,89)"/><rect x="60" y="210" width="10" height="10" fill="rgb(87,90,89)"/><rect x="70" y="210" width="10" height="10" fill="rgb(84,88,88)"/><rect x="80" y="210" width="10" height="10" fill="rgb(84,88,88)"/><rect x="90" y="210" width="10" height="10" fill="rgb(84,88,88)"/><rect x="0" y="220" width="10" height="10" fill="rgb(96,98,97)"/><rect x="10" y="220" width="10" height="10" fill="rgb(96,98,97)"/><rect x="20" y="220" width="10" height="10" fill="rgb(102,104,103)"/><rect x="30" y="220" width="10" height="10" fill="rgb(102,104,103)"/><rect x="40" y="220" width="10" height="10" fill="rgb(98,99,98)"/><rect x="50" y="220" width="10" height="10" fill="rgb(98,99,98)"/><rect x="60" y="220" width="10" height="10" fill="rgb(96,97,97)"/><rect x="70" y="220" width="10" height="10" fill="rgb(96,97,97)"/><rect x="80" y="220" width="10" height="10" fill="rgb(99,100,99)"/><rect x="90" y="220" width="10" height="10" fill="rgb(99,100,99)"/><rect x="0" y="230" width="10" height="10" fill="rgb(100,101,100)"/><rect x="10" y="230" width="10" height="10" fill="rgb(100,101,100)"/><rect x="20" y="230" width="10" height="10" fill="rgb(92,95,94)"/><rect x="30" y="230" width="10" height="10" fill="rgb(92,95,94)"/><rect x="40" y="230" width="10" height="10" fill="rgb(95,97,96)"/><rect x="50" y="230" width="10" height="10" fill="rgb(95,97,96)"/><rect x="60" y="230" width="10" height="10" fill="rgb(90,94,93)"/><rect x="70" y="230" width="10" height="10" fill="rgb(90,94,93)"/><rect x="80" y="230" width="10" height="10" fill="rgb(252,252,252)"/><rect x="90" y="230" width="10" height="10" fill="rgb(252,252,252)"/><rect x="0" y="240" width="10" height="10" fill="rgb(91,94,93)"/><rect x="10" y="240" width="10" height="10" fill="rgb(91,94,93)"/><rect x="20" y="240" width="10" height="10" fill="rgb(97,99,98)"/><rect x="30" y="240" width="10" height="10" fill="rgb(97,99,98)"/><rect x="40" y="240" width="10" height="10" fill="rgb(97,99,98)"/><rect x="50" y="240" width="10" height="10" fill="rgb(86,89,88)"/><rect x="60" y="240" width="10" height="10" fill="rgb(86,89,88)"/><rect x="70" y="240" width="10" height="10" fill="rgb(84,88,87)"/><rect x="80" y="240" width="10" height="10" fill="rgb(84,88,87)"/><rect x="90" y="240" width="10" height="10" fill="rgb(242,242,242)"/><rect x="0" y="250" width="10" height="10" fill="rgb(242,242,242)"/><rect x="10" y="250" width="10" height="10" fill="rgb(87,91,91)"/><rect x="20" y="250" width="10" height="10" fill="rgb(87,91,91)"/><rect x="30" y="250" width="10" height="10" fill="rgb(87,91,91)"/></svg>