<svg xmlns="http://www.w3.org/2000/svg" width="100" height="640"><rect x="0" y="0" width="10" height="10" fill="rgb(99,103,103)"/><rect x="10" y="0" width="10" height="10" fill="rgb(99,103,103)"/><rect x="20" y="0" width="10" height="10" fill="rgb(106,108,105)"/><rect x="30" y="0" width="10" height="10" fill="rgb(106,108,105)"/><rect x="40" y="0" width="10" height="10" fill="rgb(106,108,105)"/><rect x="50" y="0" width="10" height="10" fill="rgb(252,252,252)"/><rect x="60" y="0" width="10" height="10" fill="rgb(252,252,252)"/><rect x="70" y="0" width="10" height="10" fill="rgb(100,103,100)"/><rect x="80" y="0" width="10" height="10" fill="rgb(100,103,100)"/><rect x="90" y="0" width="10" height="10" fill="rgb(101,103,100)"/><rect x="0" y="10" width="10" height="10" fill="rgb(101,103,100)"/><rect x="10" y="10" width="10" height="10" fill="rgb(100,103,100)"/><rect x="20" y="10" width="10" height="10" fill="rgb(100,103,100)"/><rect x="30" y="10" width="10" height="10" fill="rgb(102,103,100)"/><rect x="40" y="10" width="10" height="10" fill="rgb(102,103,100)"/><rect x="50" y="10" width="10" height="10" fill="rgb(100,102,99)"/><rect x="60" y="10" width="10" height="10" fill="rgb(100,102,99)"/><rect x="70" y="10" width="10" height="10" fill="rgb(101,104,100)"/><rect x="80" y="10" width="10" height="10" fill="rgb(101,104,100)"/><rect x="90" y="10" width="10" height="10" fill="rgb(101,104,100)"/><rect x="0" y="20" width="10" height="10" fill="rgb(102,104,100)"/><rect x="10" y="20" width="10" height="10" fill="rgb(102,104,100)"/><rect x="20" y="20" width="10" height="10" fill="rgb(113,113,108)"/><rect x="30" y="20" width="10" height="10" fill="rgb(113,113,108)"/><rect x="40" y="20" width="10" height="10" fill="rgb(88,90,87)"/><rect x="50" y="20" width="10" height="10" fill="rgb(88,90,87)"/><rect x="60" y="20" width="10" height="10" fill="rgb(76,78,75)"/><rect x="70" y="20" width="10" height="10" fill="rgb(76,78,75)"/><rect x="80" y="20" width="10" height="10" fill="rgb(66,68,65)"/><rect x="90" y="20" width="10" height="10" fill="rgb(66,68,65)"/><rect x="0" y="30" width="10" height="10" fill="rgb(252,252,252)"/><rect x="10" y="30" width="10" height="10" fill="rgb(252,252,252)"/><rect x="20" y="30" width="10" height="10" fill="rgb(88,91,91)"/><rect x="30" y="30" width="10" height="10" fill="rgb(88,91,91)"/><rect x="40" y="30" width="10" height="10" fill="rgb(92,96,96)"/><rect x="50" y="30" width="10" height="10" fill="rgb(92,96,96)"/><rect x="60" y="30" width="10" height="10" fill="rgb(101,104,110)"/><rect x="70" y="30" width="10" height="10" fill="rgb(101,104,110)"/><rect x="80" y="30" width="10" height="10" fill="rgb(98,101,117)"/><rect x="90" y="30" width="10" height="10" fill="rgb(98,101,117)"/><rect x="0" y="40" width="10" height="10" fill="rgb(107,109,131)"/><rect x="10" y="40" width="10" height="10" fill="rgb(107,109,131)"/><rect x="20" y="40" width="10" height="10" fill="rgb(97,99,113)"/><rect x="30" y="40" width="10" height="10" fill="rgb(97,99,113)"/><rect x="40" y="40" width="10" height="10" fill="rgb(97,99,113)"/><rect x="50" y="40" width="10" height="10" fill="rgb(252,252,252)"/><rect x="60" y="40" width="10" height="10" fill="rgb(252,252,252)"/><rect x="70" y="40" width="10" height="10" fill="rgb(48,53,59)"/><rect x="80" y="40" width="10" height="10" fill="rgb(48,53,59)"/><rect x="90" y="40" width="10" height="10" fill="rgb(20,24,28)"/><rect x="0" y="50" width="10" height="10" fill="rgb(20,24,28)"/><rect x="10" y="50" width="10" height="10" fill="rgb(4,5,6)"/><rect x="20" y="50" width="10" height="10" fill="rgb(4,5,6)"/><rect x="30" y="50" width="10" height="10" fill="rgb(1,1,1)"/><rect x="40" y="50" width="10" height="10" fill="rgb(1,1,1)"/><rect x="50" y="50" width="10" height="10" fill="rgb(1,1,1)"/><rect x="60" y="50" width="10" height="10" fill="rgb(1,1,1)"/><rect x="70" y="50" width="10" height="10" fill="rgb(1,1,1)"/><rect x="80" y="50" width="10" height="10" fill="rgb(1,1,1)"/><rect x="90" y="50" width="10" height="10" fill="rgb(1,1,1)"/><rect x="0" y="60" width="10" height="10" fill="rgb(1,1,1)"/><rect x="10" y="60" width="10" height="10" fill="rgb(1,1,1)"/><rect x="20" y="60" width="10" height="10" fill="rgb(252,252,252)"/><rect x="30" y="60" width="10" height="10" fill="rgb(252,252,252)"/><rect x="40" y="60" width="10" height="10" fill="rgb(1,1,1)"/><rect x="50" y="60" width="10" height="10" fill="rgb(1,1,1)"/><rect x="60" y="60" width="10" height="10" fill="rgb(1,1,1)"/><rect x="70" y="60" width="10" height="10" fill="rgb(1,1,1)"/><rect x="80" y="60" width="10" height="10" fill="rgb(1,1,1)"/><rect x="90" y="60" width="10" height="10" fill="rgb(1,1,1)"/><rect x="0" y="70" width="10" height="10" fill="rgb(1,1,1)"/><rect x="10" y="70" width="10" height="10" fill="rgb(1,1,1)"/><rect x="20" y="70" width="10" height="10" fill="rgb(1,1,1)"/><rect x="30" y="70" width="10" height="10" fill="rgb(1,1,1)"/><rect x="40" y="70" width="10" height="10" fill="rgb(1,1,1)"/><rect x="50" y="70" width="10" height="10" fill="rgb(1,1,1)"/><rect x="60" y="70" width="10" height="10" fill="rgb(1,1,1)"/><rect x="70" y="70" width="10" height="10" fill="rgb(1,1,1)"/><rect x="80" y="70" width="10" height="10" fill="rgb(1,1,1)"/><rect x="90" y="70" width="10" height="10" fill="rgb(1,1,1)"/><rect x="0" y="80" width="10" height="10" fill="rgb(1,1,1)"/><rect x="10" y="80" width="10" height="10" fill="rgb(1,1,1)"/><rect x="20" y="80" width="10" height="10" fill="rgb(1,1,1)"/><rect x="30" y="80" width="10" height="10" fill="rgb(1,1,1)"/><rect x="40" y="80" width="10" height="10" fill="rgb(1,1,1)"/><rect x="50" y="80" width="10" height="10" fill="rgb(1,1,1)"/><rect x="60" y="80" width="10" height="10" fill="rgb(1,1,1)"/><rect x="70" y="80" width="10" height="10" fill="rgb(1,1,1)"/><rect x="80" y="80" width="10" height="10" fill="rgb(1,1,1)"/><rect x="90" y="80" width="10" height="10" fill="rgb(1,1,1)"/><rect x="0" y="90" width="10" height="10" fill="rgb(1,1,1)"/><rect x="10" y="90" width="10" height="10" fill="rgb(1,1,1)"/><rect x="20" y="90" width="10" height="10" fill="rgb(1,1,1)"/><rect x="30" y="90" width="10" height="10" fill="rgb(1,1,1)"/><rect x="40" y="90" width="10" height="10" fill="rgb(1,1,1)"/><rect x="50" y="90" width="10" height="10" fill="rgb(1,1,1)"/><rect x="60" y="90" width="10" height="10" fill="rgb(1,1,1)"/><rect x="70" y="90" width="10" height="10" fill="rgb(1,1,1)"/><rect x="80" y="90" width="10" height="10" fill="rgb(1,1,1)"/><rect x="90" y="90" width="10" height="10" fill="rgb(1,1,1)"/><rect x="0" y="100" width="10" height="10" fill="rgb(1,1,1)"/><rect x="10" y="100" width="10" height="10" fill="rgb(1,1,1)"/><rect x="20" y="100" width="10" height="10" fill="rgb(1,1,1)"/><rect x="30" y="100" width="10" height="10" fill="rgb(1,1,1)"/><rect x="40" y="100" width="10" height="10" fill="rgb(1,1,1)"/><rect x="50" y="100" width="10" height="10" fill="rgb(1,1,1)"/><rect x="60" y="100" width="10" height="10" fill="rgb(1,1,1)"/><rect x="70" y="100" width="10" height="10" fill="rgb(1,1,1)"/><rect x="80" y="100" width="10" height="10" fill="rgb(1,1,1)"/><rect x="90" y="100" width="10" height="10" fill="rgb(3,3,3)"/><rect x="0" y="110" width="10" height="10" fill="rgb(3,3,3)"/><rect x="10" y="110" width="10" height="10" fill="rgb(12,16,23)"/><rect x="20" y="110" width="10" height="10" fill="rgb(12,16,23)"/><rect x="30" y="110" width="10" height="10" fill="rgb(12,16,23)"/><rect x="40" y="110" width="10" height="10" fill="rgb(39,40,49)"/><rect x="50" y="110" width="10" height="10" fill="rgb(39,40,49)"/><rect x="60" y="110" width="10" height="10" fill="rgb(87,88,101)"/><rect x="70" y="110" width="10" height="10" fill="rgb(87,88,101)"/><rect x="80" y="110" width="10" height="10" fill="rgb(105,106,118)"/><rect x="90" y="110" width="10" height="10" fill="rgb(105,106,118)"/><rect x="0" y="120" width="10" height="10" fill="rgb(106,107,117)"/><rect x="10" y="120" width="10" height="10" fill="rgb(106,107,117)"/><rect x="20" y="120" width="10" height="10" fill="rgb(105,106,120)"/><rect x="30" y="120" width="10" height="10" fill="rgb(105,106,120)"/><rect x="40" y="120" width="10" height="10" fill="rgb(105,106,120)"/><rect x="50" y="120" width="10" height="10" fill="rgb(107,109,117)"/><rect x="60" y="120" width="10" height="10" fill="rgb(107,109,117)"/><rect x="70" y="120" width="10" height="10" fill="rgb(119,121,125)"/><rect x="80" y="120" width="10" height="10" fill="rgb(119,121,125)"/><rect x="90" y="120" width="10" height="10" fill="rgb(121,124,122)"/><rect x="0" y="130" width="10" height="10" fill="rgb(121,124,122)"/><rect x="10" y="130" width="10" height="10" fill="rgb(131,134,130)"/><rect x="20" y="130" width="10" height="10" fill="rgb(131,134,130)"/><rect x="30" y="130" width="10" height="10" fill="rgb(117,121,120)"/><rect x="40" y="130" width="10" height="10" fill="rgb(117,121,120)"/><rect x="50" y="130" width="10" height="10" fill="rgb(156,162,162)"/><rect x="60" y="130" width="10" height="10" fill="rgb(156,162,162)"/><rect x="70" y="130" width="10" height="10" fill="rgb(156,162,162)"/><rect x="80" y="130" width="10" height="10" fill="rgb(109,124,133)"/><rect x="90" y="130" width="10" height="10" fill="rgb(109,124,133)"/><rect x="0" y="140" width="10" height="10" fill="rgb(120,136,146)"/><rect x="10" y="140" width="10" height="10" fill="rgb(120,136,146)"/><rect x="20" y="140" width="10" height="10" fill="rgb(79,92,101)"/><rect x="30" y="140" width="10" height="10" fill="rgb(79,92,101)"/><rect x="40" y="140" width="10" height="10" fill="rgb(252,252,252)"/><rect x="50" y="140" width="10" height="10" fill="rgb(252,252,252)"/><rect x="60" y="140" width="10" height="10" fill="rgb(77,90,99)"/><rect x="70" y="140" width="10" height="10" fill="rgb(77,90,99)"/><rect x="80" y="140" width="10" height="10" fill="rgb(77,90,99)"/><rect x="90" y="140" width="10" height="10" fill="rgb(76,90,99)"/><rect x="0" y="150" width="10" height="10" fill="rgb(76,90,99)"/><rect x="10" y="150" width="10" height="10" fill="rgb(76,89,98)"/><rect x="20" y="150" width="10" height="10" fill="rgb(76,89,98)"/><rect x="30" y="150" width="10" height="10" fill="rgb(76,90,99)"/><rect x="40" y="150" width="10" height="10" fill="rgb(76,90,99)"/><rect x="50" y="150" width="10" height="10" fill="rgb(75,88,97)"/><rect x="60" y="150" width="10" height="10" fill="rgb(75,88,97)"/><rect x="70" y="150" width="10" height="10" fill="rgb(74,88,97)"/><rect x="80" y="150" width="10" height="10" fill="rgb(74,88,97)"/><rect x="90" y="150" width="10" height="10" fill="rgb(74,88,98)"/><rect x="0" y="160" width="10" height="10" fill="rgb(74,88,98)"/><rect x="10" y="160" width="10" height="10" fill="rgb(74,88,97)"/><rect x="20" y="160" width="10" height="10" fill="rgb(74,88,97)"/><rect x="30" y="160" width="10" height="10" fill="rgb(73,87,96)"/><rect x="40" y="160" width="10" height="10" fill="rgb(73,87,96)"/><rect x="50" y="160" width="10" height="10" fill="rgb(75,87,95)"/><rect x="60" y="160" width="10" height="10" fill="rgb(75,87,95)"/><rect x="70" y="160" width="10" height="10" fill="rgb(73,87,96)"/><rect x="80" y="160" width="10" height="10" fill="rgb(73,87,96)"/><rect x="90" y="160" width="10" height="10" fill="rgb(73,86,96)"/><rect x="0" y="170" width="10" height="10" fill="rgb(73,86,96)"/><rect x="10" y="170" width="10" height="10" fill="rgb(70,84,95)"/><rect x="20" y="170" width="10" height="10" fill="rgb(70,84,95)"/><rect x="30" y="170" width="10" height="10" fill="rgb(70,84,95)"/><rect x="40" y="170" width="10" height="10" fill="rgb(71,85,95)"/><rect x="50" y="170" width="10" height="10" fill="rgb(71,85,95)"/><rect x="60" y="170" width="10" height="10" fill="rgb(66,80,91)"/><rect x="70" y="170" width="10" height="10" fill="rgb(66,80,91)"/><rect x="80" y="170" width="10" height="10" fill="rgb(69,82,91)"/><rect x="90" y="170" width="10" height="10" fill="rgb(69,82,91)"/><rect x="0" y="180" width="10" height="10" fill="rgb(66,79,90)"/><rect x="10" y="180" width="10" height="10" fill="rgb(66,79,90)"/><rect x="20" y="180" width="10" height="10" fill="rgb(252,252,252)"/><rect x="30" y="180" width="10" height="10" fill="rgb(252,252,252)"/><rect x="40" y="180" width="10" height="10" fill="rgb(252,252,252)"/><rect x="50" y="180" width="10" height="10" fill="rgb(65,79,92)"/><rect x="60" y="180" width="10" height="10" fill="rgb(65,79,92)"/><rect x="70" y="180" width="10" height="10" fill="rgb(65,80,92)"/><rect x="80" y="180" width="10" height="10" fill="rgb(65,80,92)"/><rect x="90" y="180" width="10" height="10" fill="rgb(64,78,91)"/><rect x="0" y="190" width="10" height="10" fill="rgb(64,78,91)"/><rect x="10" y="190" width="10" height="10" fill="rgb(64,79,92)"/><rect x="20" y="190" width="10" height="10" fill="rgb(64,79,92)"/><rect x="30" y="190" width="10" height="10" fill="rgb(62,78,91)"/><rect x="40" y="190" width="10" height="10" fill="rgb(62,78,91)"/><rect x="50" y="190" width="10" height="10" fill="rgb(62,78,91)"/><rect x="60" y="190" width="10" height="10" fill="rgb(80,87,92)"/><rect x="70" y="190" width="10" height="10" fill="rgb(80,87,92)"/><rect x="80" y="190" width="10" height="10" fill="rgb(83,88,89)"/><rect x="90" y="190" width="10" height="10" fill="rgb(83,88,89)"/><rect x="0" y="200" width="10" height="10" fill="rgb(98,99,98)"/><rect x="10" y="200" width="10" height="10" fill="rgb(98,99,98)"/><rect x="20" y="200" width="10" height="10" fill="rgb(91,94,94)"/><rect x="30" y="200" width="10" height="10" fill="rgb(91,94,94)"/><rect x="40" y="200" width="10" height="10" fill="rgb(252,252,252)"/><rect x="50" y="200" width="10" height="10" fill="rgb(252,252,252)"/><rect x="60" y="200" width="10" height="10" fill="rgb(252,252,252)"/><rect x="70" y="200" width="10" height="10" fill="rgb(102,103,101)"/><rect x="80" y="200" width="10" height="10" fill="rgb(102,103,101)"/><rect x="90" y="200" width="10" height="10" fill="rgb(103,104,103)"/><rect x="0" y="210" width="10" height="10" fill="rgb(103,104,103)"/><rect x="10" y="210" width="10" height="10" fill="rgb(100,102,101)"/><rect x="20" y="210" width="10" height="10" fill="rgb(100,102,101)"/><rect x="30" y="210" width="10" height="10" fill="rgb(89,93,92)"/><rect x="40" y="210" width="10" height="10" fill="rgb(89,93,92)"/><rect x="50" y="210" width="10" height="10" fill="rgb(87,90,89)"/><rect x="60" y="210" width="10" height="10" fill="rgb(87,90,89)"/><rect x="70" y="210" width="10" height="10" fill="rgb(84,88,88)"/><rect x="80" y="210" width="10" height="10" fill="rgb(84,88,88)"/><rect x="90" y="210" width="10" height="10" fill="rgb(84,88,88)"/><rect x="0" y="220" width="10" height="10" fill="rgb(96,98,97)"/><rect x="10" y="220" width="10" height="10" fill="rgb(96,98,97)"/><rect x="20" y="220" width="10" height="10" fill="rgb(102,104,103)"/><rect x="30" y="220" width="10" height="10" fill="rgb(102,104,103)"/><rect x="40" y="220" width="10" height="10" fill="rgb(98,99,98)"/><rect x="50" y="220" width="10" height="10" fill="rgb(98,99,98)"/><rect x="60" y="220" width="10" height="10" fill="rgb(96,97,97)"/><rect x="70" y="220" width="10" height="10" fill="rgb(96,97,97)"/><rect x="80" y="220" width="10" height="10" fill="rgb(99,100,99)"/><rect x="90" y="220" width="10" height="10" fill="rgb(99,100,99)"/><rect x="0" y="230" width="10" height="10" fill="rgb(100,101,100)"/><rect x="10" y="230" width="10" height="10" fill="rgb(100,101,100)"/><rect x="20" y="230" width="10" height="10" fill="rgb(92,95,94)"/><rect x="30" y="230" width="10" height="10" fill="rgb(92,95,94)"/><rect x="40" y="230" width="10" height="10" fill="rgb(95,97,96)"/><rect x="50" y="230" width="10" height="10" fill="rgb(95,97,96)"/><rect x="60" y="230" width="10" height="10" fill="rgb(90,94,93)"/><rect x="70" y="230" width="10" height="10" fill="rgb(90,94,93)"/><rect x="80" y="230" width="10" height="10" fill="rgb(252,252,252)"/><rect x="90" y="230" width="10" height="10" fill="rgb(252,252,252)"/><rect x="0" y="240" width="10" height="10" fill="rgb(91,94,93)"/><rect x="10" y="240" width="10" height="10" fill="rgb(91,94,93)"/><rect x="20" y="240" width="10" height="10" fill="rgb(97,99,98)"/><rect x="30" y="240" width="10" height="10" fill="rgb(97,99,98)"/><rect x="40" y="240" width="10" height="10" fill="rgb(97,99,98)"/><rect x="50" y="240" width="10" height="10" fill="rgb(86,89,88)"/><rect x="60" y="240" width="10" height="10" fill="rgb(86,89,88)"/><rect x="70" y="240" width="10" height="10" fill="rgb(84,88,87)"/><rect x="80" y="240" width="10" height="10" fill="rgb(84,88,87)"/><rect x="90" y="240" width="10" height="10" fill="rgb(242,242,242)"/><rect x="0" y="250" width="10" height="10" fill="rgb(242,242,242)"/><rect x="10" y="250" width="10" height="10" fill="rgb(87,91,91)"/><rect x="20" y="250" width="10" height="10" fill="rgb(87,91,91)"/><rect x="30" y="250" width="10" height="10" fill="rgb(87,91,91)"/><rect x="40" y="250" width="10" height="10" fill="rgb(92,94,93)"/><rect x="50" y="250" width="10" height="10" fill="rgb(92,94,93)"/><rect x="60" y="250" width="10" height="10" fill="rgb(88,91,90)"/><rect x="70" y="250" width="10" height="10" fill="rgb(88,91,90)"/><rect x="80" y="250" width="10" height="10" fill="rgb(252,252,252)"/><rect x="90" y="250" width="10" height="10" fill="rgb(252,252,252)"/><rect x="0" y="260" width="10" height="10" fill="rgb(83,89,94)"/><rect x="10" y="260" width="10" height="10" fill="rgb(83,89,94)"/><rect x="20" y="260" width="10" height="10" fill="rgb(87,92,92)"/><rect x="30" y="260" width="10" height="10" fill="rgb(87,92,92)"/><rect x="40" y="260" width="10" height="10" fill="rgb(77,86,92)"/><rect x="50" y="260" width="10" height="10" fill="rgb(77,86,92)"/><rect x="60" y="260" width="10" height="10" fill="rgb(77,86,92)"/><rect x="70" y="260" width="10" height="10" fill="rgb(83,91,95)"/><rect x="80" y="260" width="10" height="10" fill="rgb(83,91,95)"/><rect x="90" y="260" width="10" height="10" fill="rgb(74,86,94)"/><rect x="0" y="270" width="10" height="10" fill="rgb(74,86,94)"/><rect x="10" y="270" width="10" height="10" fill="rgb(80,90,97)"/><rect x="20" y="270" width="10" height="10" fill="rgb(80,90,97)"/><rect x="30" y="270" width="10" height="10" fill="rgb(95,100,103)"/><rect x="40" y="270" width="10" height="10" fill="rgb(95,100,103)"/><rect x="50" y="270" width="10" height="10" fill="rgb(77,87,94)"/><rect x="60" y="270" width="10" height="10" fill="rgb(77,87,94)"/><rect x="70" y="270" width="10" height="10" fill="rgb(78,88,96)"/><rect x="80" y="270" width="10" height="10" fill="rgb(78,88,96)"/><rect x="90" y="270" width="10" height="10" fill="rgb(70,82,92)"/><rect x="0" y="280" width="10" height="10" fill="rgb(70,82,92)"/><rect x="10" y="280" width="10" height="10" fill="rgb(70,82,91)"/><rect x="20" y="280" width="10" height="10" fill="rgb(70,82,91)"/><rect x="30" y="280" width="10" height="10" fill="rgb(70,83,93)"/><rect x="40" y="280" width="10" height="10" fill="rgb(70,83,93)"/><rect x="50" y="280" width="10" height="10" fill="rgb(71,84,95)"/><rect x="60" y="280" width="10" height="10" fill="rgb(71,84,95)"/><rect x="70" y="280" width="10" height="10" fill="rgb(69,83,96)"/><rect x="80" y="280" width="10" height="10" fill="rgb(69,83,96)"/><rect x="90" y="280" width="10" height="10" fill="rgb(69,83,96)"/><rect x="0" y="290" width="10" height="10" fill="rgb(70,85,96)"/><rect x="10" y="290" width="10" height="10" fill="rgb(70,85,96)"/><rect x="20" y="290" width="10" height="10" fill="rgb(252,252,252)"/><rect x="30" y="290" width="10" height="10" fill="rgb(252,252,252)"/><rect x="40" y="290" width="10" height="10" fill="rgb(252,252,252)"/><rect x="50" y="290" width="10" height="10" fill="rgb(252,252,252)"/><rect x="60" y="290" width="10" height="10" fill="rgb(76,89,99)"/><rect x="70" y="290" width="10" height="10" fill="rgb(76,89,99)"/><rect x="80" y="290" width="10" height="10" fill="rgb(80,91,100)"/><rect x="90" y="290" width="10" height="10" fill="rgb(80,91,100)"/><rect x="0" y="300" width="10" height="10" fill="rgb(82,93,102)"/><rect x="10" y="300" width="10" height="10" fill="rgb(82,93,102)"/><rect x="20" y="300" width="10" height="10" fill="rgb(83,94,102)"/><rect x="30" y="300" width="10" height="10" fill="rgb(83,94,102)"/><rect x="40" y="300" width="10" height="10" fill="rgb(83,94,102)"/><rect x="50" y="300" width="10" height="10" fill="rgb(84,95,102)"/><rect x="60" y="300" width="10" height="10" fill="rgb(84,95,102)"/><rect x="70" y="300" width="10" height="10" fill="rgb(85,96,103)"/><rect x="80" y="300" width="10" height="10" fill="rgb(85,96,103)"/><rect x="90" y="300" width="10" height="10" fill="rgb(85,96,102)"/><rect x="0" y="310" width="10" height="10" fill="rgb(85,96,102)"/><rect x="10" y="310" width="10" height="10" fill="rgb(85,96,102)"/><rect x="20" y="310" width="10" height="10" fill="rgb(85,96,102)"/><rect x="30" y="310" width="10" height="10" fill="rgb(252,252,252)"/><rect x="40" y="310" width="10" height="10" fill="rgb(252,252,252)"/><rect x="50" y="310" width="10" height="10" fill="rgb(252,252,252)"/><rect x="60" y="310" width="10" height="10" fill="rgb(252,252,252)"/><rect x="70" y="310" width="10" height="10" fill="rgb(252,252,252)"/><rect x="80" y="310" width="10" height="10" fill="rgb(77,87,91)"/><rect x="90" y="310" width="10" height="10" fill="rgb(77,87,91)"/><rect x="0" y="320" width="10" height="10" fill="rgb(57,68,73)"/><rect x="10" y="320" width="10" height="10" fill="rgb(57,68,73)"/><rect x="20" y="320" width="10" height="10" fill="rgb(90,100,103)"/><rect x="30" y="320" width="10" height="10" fill="rgb(90,100,103)"/><rect x="40" y="320" width="10" height="10" fill="rgb(87,96,99)"/><rect x="50" y="320" width="10" height="10" fill="rgb(87,96,99)"/><rect x="60" y="320" width="10" height="10" fill="rgb(84,94,98)"/><rect x="70" y="320" width="10" height="10" fill="rgb(84,94,98)"/><rect x="80" y="320" width="10" height="10" fill="rgb(81,91,102)"/><rect x="90" y="320" width="10" height="10" fill="rgb(81,91,102)"/><rect x="0" y="330" width="10" height="10" fill="rgb(77,88,105)"/><rect x="10" y="330" width="10" height="10" fill="rgb(77,88,105)"/><rect x="20" y="330" width="10" height="10" fill="rgb(80,88,99)"/><rect x="30" y="330" width="10" height="10" fill="rgb(80,88,99)"/><rect x="40" y="330" width="10" height="10" fill="rgb(69,74,82)"/><rect x="50" y="330" width="10" height="10" fill="rgb(69,74,82)"/><rect x="60" y="330" width="10" height="10" fill="rgb(30,36,43)"/><rect x="70" y="330" width="10" height="10" fill="rgb(30,36,43)"/><rect x="80" y="330" width="10" height="10" fill="rgb(30,36,43)"/><rect x="90" y="330" width="10" height="10" fill="rgb(12,16,18)"/><rect x="0" y="340" width="10" height="10" fill="rgb(12,16,18)"/><rect x="10" y="340" width="10" height="10" fill="rgb(4,6,6)"/><rect x="20" y="340" width="10" height="10" fill="rgb(4,6,6)"/><rect x="30" y="340" width="10" height="10" fill="rgb(2,2,2)"/><rect x="40" y="340" width="10" height="10" fill="rgb(2,2,2)"/><rect x="50" y="340" width="10" height="10" fill="rgb(252,252,252)"/><rect x="60" y="340" width="10" height="10" fill="rgb(252,252,252)"/><rect x="70" y="340" width="10" height="10" fill="rgb(1,1,1)"/><rect x="80" y="340" width="10" height="10" fill="rgb(1,1,1)"/><rect x="90" y="340" width="10" height="10" fill="rgb(1,1,1)"/><rect x="0" y="350" width="10" height="10" fill="rgb(1,1,1)"/><rect x="10" y="350" width="10" height="10" fill="rgb(1,1,1)"/><rect x="20" y="350" width="10" height="10" fill="rgb(1,1,1)"/><rect x="30" y="350" width="10" height="10" fill="rgb(1,1,1)"/><rect x="40" y="350" width="10" height="10" fill="rgb(1,1,1)"/><rect x="50" y="350" width="10" height="10" fill="rgb(1,1,1)"/><rect x="60" y="350" width="10" height="10" fill="rgb(1,1,1)"/><rect x="70" y="350" width="10" height="10" fill="rgb(1,1,1)"/><rect x="80" y="350" width="10" height="10" fill="rgb(252,252,252)"/><rect x="90" y="350" width="10" height="10" fill="rgb(252,252,252)"/><rect x="0" y="360" width="10" height="10" fill="rgb(1,1,1)"/><rect x="10" y="360" width="10" height="10" fill="rgb(1,1,1)"/><rect x="20" y="360" width="10" height="10" fill="rgb(1,1,1)"/><rect x="30" y="360" width="10" height="10" fill="rgb(1,1,1)"/><rect x="40" y="360" width="10" height="10" fill="rgb(1,1,1)"/><rect x="50" y="360" width="10" height="10" fill="rgb(1,1,1)"/><rect x="60" y="360" width="10" height="10" fill="rgb(1,1,1)"/><rect x="70" y="360" width="10" height="10" fill="rgb(1,1,1)"/><rect x="80" y="360" width="10" height="10" fill="rgb(1,1,1)"/><rect x="90" y="360" width="10" height="10" fill="rgb(1,1,1)"/><rect x="0" y="370" width="10" height="10" fill="rgb(1,1,1)"/><rect x="10" y="370" width="10" height="10" fill="rgb(1,1,1)"/><rect x="20" y="370" width="10" height="10" fill="rgb(1,1,1)"/><rect x="30" y="370" width="10" height="10" fill="rgb(1,1,1)"/><rect x="40" y="370" width="10" height="10" fill="rgb(1,1,1)"/><rect x="50" y="370" width="10" height="10" fill="rgb(1,1,1)"/><rect x="60" y="370" width="10" height="10" fill="rgb(1,1,1)"/><rect x="70" y="370" width="10" height="10" fill="rgb(1,1,1)"/><rect x="80" y="370" width="10" height="10" fill="rgb(1,1,1)"/><rect x="90" y="370" width="10" height="10" fill="rgb(1,1,1)"/><rect x="0" y="380" width="10" height="10" fill="rgb(1,1,1)"/><rect x="10" y="380" width="10" height="10" fill="rgb(1,1,1)"/><rect x="20" y="380" width="10" height="10" fill="rgb(1,1,1)"/><rect x="30" y="380" width="10" height="10" fill="rgb(1,1,1)"/><rect x="40" y="380" width="10" height="10" fill="rgb(1,1,1)"/><rect x="50" y="380" width="10" height="10" fill="rgb(1,1,1)"/><rect x="60" y="380" width="10" height="10" fill="rgb(1,1,1)"/><rect x="70" y="380" width="10" height="10" fill="rgb(1,1,1)"/><rect x="80" y="380" width="10" height="10" fill="rgb(1,1,1)"/><rect x="90" y="380" width="10" height="10" fill="rgb(1,1,1)"/><rect x="0" y="390" width="10" height="10" fill="rgb(1,1,1)"/><rect x="10" y="390" width="10" height="10" fill="rgb(1,1,1)"/><rect x="20" y="390" width="10" height="10" fill="rgb(1,1,1)"/><rect x="30" y="390" width="10" height="10" fill="rgb(1,1,1)"/><rect x="40" y="390" width="10" height="10" fill="rgb(1,1,1)"/><rect x="50" y="390" width="10" height="10" fill="rgb(1,1,1)"/><rect x="60" y="390" width="10" height="10" fill="rgb(1,1,1)"/><rect x="70" y="390" width="10" height="10" fill="rgb(1,1,1)"/><rect x="80" y="390" width="10" height="10" fill="rgb(13,17,25)"/><rect x="90" y="390" width="10" height="10" fill="rgb(13,17,25)"/><rect x="0" y="400" width="10" height="10" fill="rgb(45,46,57)"/><rect x="10" y="400" width="10" height="10" fill="rgb(45,46,57)"/><rect x="20" y="400" width="10" height="10" fill="rgb(99,101,114)"/><rect x="30" y="400" width="10" height="10" fill="rgb(99,101,114)"/><rect x="40" y="400" width="10" height="10" fill="rgb(99,101,114)"/><rect x="50" y="400" width="10" height="10" fill="rgb(100,103,115)"/><rect x="60" y="400" width="10" height="10" fill="rgb(100,103,115)"/><rect x="70" y="400" width="10" height="10" fill="rgb(105,107,119)"/><rect x="80" y="400" width="10" height="10" fill="rgb(105,107,119)"/><rect x="90" y="400" width="10" height="10" fill="rgb(106,107,119)"/><rect x="0" y="410" width="10" height="10" fill="rgb(106,107,119)"/><rect x="10" y="410" width="10" height="10" fill="rgb(100,103,123)"/><rect x="20" y="410" width="10" height="10" fill="rgb(100,103,123)"/><rect x="30" y="410" width="10" height="10" fill="rgb(105,108,120)"/><rect x="40" y="410" width="10" height="10" fill="rgb(105,108,120)"/><rect x="50" y="410" width="10" height="10" fill="rgb(111,112,117)"/><rect x="60" y="410" width="10" height="10" fill="rgb(111,112,117)"/><rect x="70" y="410" width="10" height="10" fill="rgb(111,112,117)"/><rect x="80" y="410" width="10" height="10" fill="rgb(117,119,118)"/><rect x="90" y="410" width="10" height="10" fill="rgb(117,119,118)"/><rect x="0" y="420" width="10" height="10" fill="rgb(119,121,117)"/><rect x="10" y="420" width="10" height="10" fill="rgb(119,121,117)"/><rect x="20" y="420" width="10" height="10" fill="rgb(123,124,122)"/><rect x="30" y="420" width="10" height="10" fill="rgb(123,124,122)"/><rect x="40" y="420" width="10" height="10" fill="rgb(141,142,140)"/><rect x="50" y="420" width="10" height="10" fill="rgb(141,142,140)"/><rect x="60" y="420" width="10" height="10" fill="rgb(141,142,140)"/><rect x="70" y="420" width="10" height="10" fill="rgb(252,252,252)"/><rect x="80" y="420" width="10" height="10" fill="rgb(252,252,252)"/><rect x="90" y="420" width="10" height="10" fill="rgb(143,145,143)"/><rect x="0" y="430" width="10" height="10" fill="rgb(143,145,143)"/><rect x="10" y="430" width="10" height="10" fill="rgb(140,142,139)"/><rect x="20" y="430" width="10" height="10" fill="rgb(140,142,139)"/><rect x="30" y="430" width="10" height="10" fill="rgb(153,155,152)"/><rect x="40" y="430" width="10" height="10" fill="rgb(153,155,152)"/><rect x="50" y="430" width="10" height="10" fill="rgb(103,105,102)"/><rect x="60" y="430" width="10" height="10" fill="rgb(103,105,102)"/><rect x="70" y="430" width="10" height="10" fill="rgb(100,102,101)"/><rect x="80" y="430" width="10" height="10" fill="rgb(100,102,101)"/><rect x="90" y="430" width="10" height="10" fill="rgb(100,102,101)"/><rect x="0" y="440" width="10" height="10" fill="rgb(97,101,99)"/><rect x="10" y="440" width="10" height="10" fill="rgb(97,101,99)"/><rect x="20" y="440" width="10" height="10" fill="rgb(101,103,102)"/><rect x="30" y="440" width="10" height="10" fill="rgb(101,103,102)"/><rect x="40" y="440" width="10" height="10" fill="rgb(102,104,102)"/><rect x="50" y="440" width="10" height="10" fill="rgb(102,104,102)"/><rect x="60" y="440" width="10" height="10" fill="rgb(102,103,102)"/><rect x="70" y="440" width="10" height="10" fill="rgb(102,103,102)"/><rect x="80" y="440" width="10" height="10" fill="rgb(102,103,102)"/><rect x="90" y="440" width="10" height="10" fill="rgb(100,102,100)"/><rect x="0" y="450" width="10" height="10" fill="rgb(100,102,100)"/><rect x="10" y="450" width="10" height="10" fill="rgb(105,106,103)"/><rect x="20" y="450" width="10" height="10" fill="rgb(105,106,103)"/><rect x="30" y="450" width="10" height="10" fill="rgb(104,106,102)"/><rect x="40" y="450" width="10" height="10" fill="rgb(104,106,102)"/><rect x="50" y="450" width="10" height="10" fill="rgb(106,107,104)"/><rect x="60" y="450" width="10" height="10" fill="rgb(106,107,104)"/><rect x="70" y="450" width="10" height="10" fill="rgb(106,107,104)"/><rect x="80" y="450" width="10" height="10" fill="rgb(106,107,105)"/><rect x="90" y="450" width="10" height="10" fill="rgb(106,107,105)"/><rect x="0" y="460" width="10" height="10" fill="rgb(103,105,102)"/><rect x="10" y="460" width="10" height="10" fill="rgb(103,105,102)"/><rect x="20" y="460" width="10" height="10" fill="rgb(103,104,103)"/><rect x="30" y="460" width="10" height="10" fill="rgb(103,104,103)"/><rect x="40" y="460" width="10" height="10" fill="rgb(102,103,102)"/><rect x="50" y="460" width="10" height="10" fill="rgb(102,103,102)"/><rect x="60" y="460" width="10" height="10" fill="rgb(100,102,100)"/><rect x="70" y="460" width="10" height="10" fill="rgb(100,102,100)"/><rect x="80" y="460" width="10" height="10" fill="rgb(100,102,100)"/><rect x="90" y="460" width="10" height="10" fill="rgb(104,105,103)"/><rect x="0" y="470" width="10" height="10" fill="rgb(104,105,103)"/><rect x="10" y="470" width="10" height="10" fill="rgb(99,101,99)"/><rect x="20" y="470" width="10" height="10" fill="rgb(99,101,99)"/><rect x="30" y="470" width="10" height="10" fill="rgb(98,100,98)"/><rect x="40" y="470" width="10" height="10" fill="rgb(98,100,98)"/><rect x="50" y="470" width="10" height="10" fill="rgb(102,104,102)"/><rect x="60" y="470" width="10" height="10" fill="rgb(102,104,102)"/><rect x="70" y="470" width="10" height="10" fill="rgb(102,104,102)"/><rect x="80" y="470" width="10" height="10" fill="rgb(101,102,101)"/><rect x="90" y="470" width="10" height="10" fill="rgb(101,102,101)"/><rect x="0" y="480" width="10" height="10" fill="rgb(102,103,102)"/><rect x="10" y="480" width="10" height="10" fill="rgb(102,103,102)"/><rect x="20" y="480" width="10" height="10" fill="rgb(102,104,102)"/><rect x="30" y="480" width="10" height="10" fill="rgb(102,104,102)"/><rect x="40" y="480" width="10" height="10" fill="rgb(97,99,97)"/><rect x="50" y="480" width="10" height="10" fill="rgb(97,99,97)"/><rect x="60" y="480" width="10" height="10" fill="rgb(96,98,96)"/><rect x="70" y="480" width="10" height="10" fill="rgb(96,98,96)"/><rect x="80" y="480" width="10" height="10" fill="rgb(103,105,102)"/><rect x="90" y="480" width="10" height="10" fill="rgb(103,105,102)"/><rect x="0" y="490" width="10" height="10" fill="rgb(104,105,102)"/><rect x="10" y="490" width="10" height="10" fill="rgb(104,105,102)"/><rect x="20" y="490" width="10" height="10" fill="rgb(104,105,102)"/><rect x="30" y="490" width="10" height="10" fill="rgb(97,98,97)"/><rect x="40" y="490" width="10" height="10" fill="rgb(97,98,97)"/><rect x="50" y="490" width="10" height="10" fill="rgb(99,101,99)"/><rect x="60" y="490" width="10" height="10" fill="rgb(99,101,99)"/><rect x="70" y="490" width="10" height="10" fill="rgb(95,97,95)"/><rect x="80" y="490" width="10" height="10" fill="rgb(95,97,95)"/><rect x="90" y="490" width="10" height="10" fill="rgb(99,100,99)"/><rect x="0" y="500" width="10" height="10" fill="rgb(99,100,99)"/><rect x="10" y="500" width="10" height="10" fill="rgb(105,106,103)"/><rect x="20" y="500" width="10" height="10" fill="rgb(105,106,103)"/><rect x="30" y="500" width="10" height="10" fill="rgb(102,103,101)"/><rect x="40" y="500" width="10" height="10" fill="rgb(102,103,101)"/><rect x="50" y="500" width="10" height="10" fill="rgb(103,104,101)"/><rect x="60" y="500" width="10" height="10" fill="rgb(103,104,101)"/><rect x="70" y="500" width="10" height="10" fill="rgb(252,252,252)"/><rect x="80" y="500" width="10" height="10" fill="rgb(252,252,252)"/><rect x="90" y="500" width="10" height="10" fill="rgb(101,102,100)"/><rect x="0" y="510" width="10" height="10" fill="rgb(101,102,100)"/><rect x="10" y="510" width="10" height="10" fill="rgb(101,102,100)"/><rect x="20" y="510" width="10" height="10" fill="rgb(105,106,104)"/><rect x="30" y="510" width="10" height="10" fill="rgb(105,106,104)"/><rect x="40" y="510" width="10" height="10" fill="rgb(98,99,98)"/><rect x="50" y="510" width="10" height="10" fill="rgb(98,99,98)"/><rect x="60" y="510" width="10" height="10" fill="rgb(97,98,96)"/><rect x="70" y="510" width="10" height="10" fill="rgb(97,98,96)"/><rect x="80" y="510" width="10" height="10" fill="rgb(101,102,98)"/><rect x="90" y="510" width="10" height="10" fill="rgb(101,102,98)"/><rect x="0" y="520" width="10" height="10" fill="rgb(100,102,100)"/><rect x="10" y="520" width="10" height="10" fill="rgb(100,102,100)"/><rect x="20" y="520" width="10" height="10" fill="rgb(101,102,100)"/><rect x="30" y="520" width="10" height="10" fill="rgb(101,102,100)"/><rect x="40" y="520" width="10" height="10" fill="rgb(105,106,102)"/><rect x="50" y="520" width="10" height="10" fill="rgb(105,106,102)"/><rect x="60" y="520" width="10" height="10" fill="rgb(100,101,100)"/><rect x="70" y="520" width="10" height="10" fill="rgb(100,101,100)"/><rect x="80" y="520" width="10" height="10" fill="rgb(100,101,100)"/><rect x="90" y="520" width="10" height="10" fill="rgb(104,105,102)"/><rect x="0" y="530" width="10" height="10" fill="rgb(104,105,102)"/><rect x="10" y="530" width="10" height="10" fill="rgb(252,252,252)"/><rect x="20" y="530" width="10" height="10" fill="rgb(252,252,252)"/><rect x="30" y="530" width="10" height="10" fill="rgb(96,97,95)"/><rect x="40" y="530" width="10" height="10" fill="rgb(96,97,95)"/><rect x="50" y="530" width="10" height="10" fill="rgb(94,95,93)"/><rect x="60" y="530" width="10" height="10" fill="rgb(94,95,93)"/><rect x="70" y="530" width="10" height="10" fill="rgb(92,93,90)"/><rect x="80" y="530" width="10" height="10" fill="rgb(92,93,90)"/><rect x="90" y="530" width="10" height="10" fill="rgb(92,93,90)"/><rect x="0" y="540" width="10" height="10" fill="rgb(99,100,97)"/><rect x="10" y="540" width="10" height="10" fill="rgb(99,100,97)"/><rect x="20" y="540" width="10" height="10" fill="rgb(102,103,101)"/><rect x="30" y="540" width="10" height="10" fill="rgb(102,103,101)"/><rect x="40" y="540" width="10" height="10" fill="rgb(98,99,98)"/><rect x="50" y="540" width="10" height="10" fill="rgb(98,99,98)"/><rect x="60" y="540" width="10" height="10" fill="rgb(100,101,98)"/><rect x="70" y="540" width="10" height="10" fill="rgb(100,101,98)"/><rect x="80" y="540" width="10" height="10" fill="rgb(100,101,98)"/><rect x="90" y="540" width="10" height="10" fill="rgb(105,106,103)"/><rect x="0" y="550" width="10" height="10" fill="rgb(105,106,103)"/><rect x="10" y="550" width="10" height="10" fill="rgb(102,103,101)"/><rect x="20" y="550" width="10" height="10" fill="rgb(102,103,101)"/><rect x="30" y="550" width="10" height="10" fill="rgb(93,94,93)"/><rect x="40" y="550" width="10" height="10" fill="rgb(93,94,93)"/><rect x="50" y="550" width="10" height="10" fill="rgb(102,103,100)"/><rect x="60" y="550" width="10" height="10" fill="rgb(102,103,100)"/><rect x="70" y="550" width="10" height="10" fill="rgb(102,103,100)"/><rect x="80" y="550" width="10" height="10" fill="rgb(97,98,97)"/><rect x="90" y="550" width="10" height="10" fill="rgb(97,98,97)"/><rect x="0" y="560" width="10" height="10" fill="rgb(98,99,97)"/><rect x="10" y="560" width="10" height="10" fill="rgb(98,99,97)"/><rect x="20" y="560" width="10" height="10" fill="rgb(98,100,98)"/><rect x="30" y="560" width="10" height="10" fill="rgb(98,100,98)"/><rect x="40" y="560" width="10" height="10" fill="rgb(102,103,100)"/><rect x="50" y="560" width="10" height="10" fill="rgb(102,103,100)"/><rect x="60" y="560" width="10" height="10" fill="rgb(103,104,101)"/><rect x="70" y="560" width="10" height="10" fill="rgb(103,104,101)"/><rect x="80" y="560" width="10" height="10" fill="rgb(103,104,101)"/><rect x="90" y="560" width="10" height="10" fill="rgb(95,96,93)"/><rect x="0" y="570" width="10" height="10" fill="rgb(95,96,93)"/><rect x="10" y="570" width="10" height="10" fill="rgb(98,99,98)"/><rect x="20" y="570" width="10" height="10" fill="rgb(98,99,98)"/><rect x="30" y="570" width="10" height="10" fill="rgb(102,103,100)"/><rect x="40" y="570" width="10" height="10" fill="rgb(102,103,100)"/><rect x="50" y="570" width="10" height="10" fill="rgb(99,100,98)"/><rect x="60" y="570" width="10" height="10" fill="rgb(99,100,98)"/><rect x="70" y="570" width="10" height="10" fill="rgb(99,100,98)"/><rect x="80" y="570" width="10" height="10" fill="rgb(99,100,98)"/><rect x="90" y="570" width="10" height="10" fill="rgb(99,101,99)"/><rect x="0" y="580" width="10" height="10" fill="rgb(99,101,99)"/><rect x="10" y="580" width="10" height="10" fill="rgb(99,101,99)"/><rect x="20" y="580" width="10" height="10" fill="rgb(242,242,242)"/><rect x="30" y="580" width="10" height="10" fill="rgb(242,242,242)"/><rect x="40" y="580" width="10" height="10" fill="rgb(96,97,94)"/><rect x="50" y="580" width="10" height="10" fill="rgb(96,97,94)"/><rect x="60" y="580" width="10" height="10" fill="rgb(252,252,252)"/><rect x="70" y="580" width="10" height="10" fill="rgb(252,252,252)"/><rect x="80" y="580" width="10" height="10" fill="rgb(99,100,98)"/><rect x="90" y="580" width="10" height="10" fill="rgb(99,100,98)"/><rect x="0" y="590" width="10" height="10" fill="rgb(99,100,98)"/><rect x="10" y="590" width="10" height="10" fill="rgb(109,110,109)"/><rect x="20" y="590" width="10" height="10" fill="rgb(109,110,109)"/><rect x="30" y="590" width="10" height="10" fill="rgb(110,111,108)"/><rect x="40" y="590" width="10" height="10" fill="rgb(110,111,108)"/><rect x="50" y="590" width="10" height="10" fill="rgb(110,111,109)"/><rect x="60" y="590" width="10" height="10" fill="rgb(110,111,109)"/><rect x="70" y="590" width="10" height="10" fill="rgb(87,88,87)"/><rect x="80" y="590" width="10" height="10" fill="rgb(87,88,87)"/><rect x="90" y="590" width="10" height="10" fill="rgb(87,88,87)"/><rect x="0" y="600" width="10" height="10" fill="rgb(252,252,252)"/><rect x="10" y="600" width="10" height="10" fill="rgb(252,252,252)"/><rect x="20" y="600" width="10" height="10" fill="rgb(252,252,252)"/><rect x="30" y="600" width="10" height="10" fill="rgb(252,252,252)"/><rect x="40" y="600" width="10" height="10" fill="rgb(100,102,101)"/><rect x="50" y="600" width="10" height="10" fill="rgb(100,102,101)"/><rect x="60" y="600" width="10" height="10" fill="rgb(104,105,102)"/><rect x="70" y="600" width="10" height="10" fill="rgb(104,105,102)"/><rect x="80" y="600" width="10" height="10" fill="rgb(95,96,95)"/><rect x="90" y="600" width="10" height="10" fill="rgb(95,96,95)"/><rect x="0" y="610" width="10" height="10" fill="rgb(95,96,95)"/><rect x="10" y="610" width="10" height="10" fill="rgb(96,99,108)"/><rect x="20" y="610" width="10" height="10" fill="rgb(96,99,108)"/><rect x="30" y="610" width="10" height="10" fill="rgb(252,252,252)"/><rect x="40" y="610" width="10" height="10" fill="rgb(252,252,252)"/><rect x="50" y="610" width="10" height="10" fill="rgb(252,252,252)"/><rect x="60" y="610" width="10" height="10" fill="rgb(252,252,252)"/><rect x="70" y="610" width="10" height="10" fill="rgb(95,98,117)"/><rect x="80" y="610" width="10" height="10" fill="rgb(95,98,117)"/><rect x="90" y="610" width="10" height="10" fill="rgb(99,100,113)"/><rect x="0" y="620" width="10" height="10" fill="rgb(99,100,113)"/><rect x="10" y="620" width="10" height="10" fill="rgb(99,100,113)"/><rect x="20" y="620" width="10" height="10" fill="rgb(67,68,73)"/><rect x="30" y="620" width="10" height="10" fill="rgb(67,68,73)"/><rect x="40" y="620" width="10" height="10" fill="rgb(32,33,35)"/><rect x="50" y="620" width="10" height="10" fill="rgb(32,33,35)"/><rect x="60" y="620" width="10" height="10" fill="rgb(12,12,11)"/><rect x="70" y="620" width="10" height="10" fill="rgb(12,12,11)"/><rect x="80" y="620" width="10" height="10" fill="rgb(9,10,8)"/><rect x="90" y="620" width="10" height="10" fill="rgb(9,10,8)"/><rect x="0" y="630" width="10" height="10" fill="rgb(8,8,6)"/><rect x="10" y="630" width="10" height="10" fill="rgb(8,8,6)"/><rect x="20" y="630" width="10" height="10" fill="rgb(8,8,6)"/><rect x="30" y="630" width="10" height="10" fill="rgb(7,7,5)"/><rect x="40" y="630" width="10" height="10" fill="rgb(7,7,5)"/><rect x="50" y="630" width="10" height="10" fill="rgb(6,6,5)"/></svg>